<svg width="84" height="84" viewBox="0 0 84 84" fill="none" xmlns="http://www.w3.org/2000/svg">
<rect width="84" height="84" rx="10" fill="#31C2E1" fill-opacity="0.19"/>
<path d="M55.41 40.5C55.0702 37.4582 53.7062 34.6223 51.542 32.458C49.3777 30.2938 46.5418 28.9298 43.5 28.59V25.5H40.5V28.59C37.4582 28.9298 34.6223 30.2938 32.458 32.458C30.2938 34.6223 28.9298 37.4582 28.59 40.5H25.5V43.5H28.59C28.9298 46.5418 30.2938 49.3777 32.458 51.542C34.6223 53.7062 37.4582 55.0702 40.5 55.41V58.5H43.5V55.41C46.5418 55.0702 49.3777 53.7062 51.542 51.542C53.7062 49.3777 55.0702 46.5418 55.41 43.5H58.5V40.5H55.41ZM42 52.5C36.195 52.5 31.5 47.805 31.5 42C31.5 36.195 36.195 31.5 42 31.5C47.805 31.5 52.5 36.195 52.5 42C52.5 47.805 47.805 52.5 42 52.5Z" fill="#09385A"/>
</svg>
