<svg width="84" height="84" viewBox="0 0 84 84" fill="none" xmlns="http://www.w3.org/2000/svg">
<rect width="84" height="84" rx="10" fill="#31C2E1" fill-opacity="0.19"/>
<path d="M42 23.0469C41.0489 23.0469 40.1133 24.0969 40.1133 25.5898C40.1133 27.0828 41.0489 28.1328 42 28.1328C42.9511 28.1328 43.8867 27.0828 43.8867 25.5898C43.8867 24.0969 42.9511 23.0469 42 23.0469ZM33.4728 23.2909L32.1522 23.9513C33.3902 26.4274 36.3662 28.6115 38.8942 30.0578L40.0586 45.1953H41.2617V36.7461H42.7383V45.1953H43.9414L45.1058 30.0578C47.6338 28.6115 50.6098 26.4274 51.8478 23.9513L50.5272 23.2909C48.894 25.7437 46.8448 27.3226 44.6756 28.0299C44.0763 28.9761 43.1279 29.6094 42 29.6094C40.8721 29.6094 39.9238 28.9761 39.3244 28.0298C37.1552 27.3227 35.106 25.7437 33.4728 23.2909ZM34.8633 46.6719V54.5469H23.0508V60.9453H60.9492V58.4844H49.1367V46.6719H34.8633Z" fill="#09385A"/>
</svg>
