<svg width="501" height="551" viewBox="0 0 501 551" fill="none" xmlns="http://www.w3.org/2000/svg">
<path d="M272.865 36.4541C272.394 67.6132 272.705 98.8108 272.68 129.975C272.655 161.14 272.63 192.321 272.625 223.491L272.59 409.575C272.59 444.563 272.59 479.554 272.59 514.546C272.59 514.75 272.664 514.947 272.795 515.091C272.927 515.236 273.105 515.317 273.291 515.317C273.477 515.317 273.656 515.236 273.787 515.091C273.919 514.947 273.993 514.75 273.993 514.546C273.993 452.198 273.993 389.853 273.993 327.509C273.993 265.485 273.971 203.457 273.928 141.425C273.902 106.442 274.263 71.4481 273.732 36.4541C273.721 36.3394 273.671 36.2333 273.593 36.1562C273.515 36.0791 273.414 36.0365 273.309 36.0365C273.204 36.0365 273.103 36.0791 273.024 36.1562C272.946 36.2333 272.897 36.3394 272.885 36.4541H272.865Z" fill="black"/>
<path d="M145.211 228.665C150.323 228.139 155.461 227.984 160.591 228.202C163.185 228.328 165.77 228.608 168.337 229.04C170.401 229.341 172.441 229.818 174.439 230.467C179.173 232.158 182.76 236.374 185.486 240.793C188.903 246.303 191.403 252.529 193.667 258.711C196.102 265.351 198.226 272.122 200.646 278.762C202.755 284.547 204.98 290.427 208.186 295.595C208.532 296.146 208.913 296.697 209.303 297.215C209.694 297.733 210.651 297.033 210.26 296.405C207.114 291.303 204.779 285.765 202.71 280.046C200.285 273.346 198.101 266.541 195.696 259.835C193.387 253.46 190.882 247.079 187.5 241.338C184.724 236.638 181.172 232.07 176.388 229.811C175.03 229.198 173.618 228.742 172.174 228.45C169.692 227.898 167.183 227.503 164.659 227.265C159.462 226.807 154.238 226.826 149.043 227.321C147.761 227.431 146.481 227.558 145.205 227.701C144.634 227.767 144.619 228.753 145.205 228.698L145.211 228.665Z" fill="black"/>
<path d="M258.296 238.836C257.95 235.619 257.795 231.817 260.069 229.751C261.031 228.869 262.279 228.483 263.486 228.098L266.652 227.133C267.132 227.031 267.583 226.806 267.97 226.478C268.471 225.982 268.611 225.21 268.817 224.51C269.179 223.23 269.827 222.071 270.702 221.138C271.578 220.205 272.652 219.529 273.827 219.171C276.191 218.549 278.917 219.634 280.169 221.926C280.475 222.477 281.001 224.13 281.482 224.516C282.083 225.012 282.905 224.979 283.656 224.924C286.161 224.742 290.009 223.116 292.048 225.475C295.009 228.874 293.321 233.558 292.454 237.514" fill="black"/>
<path d="M258.791 238.837C258.691 236.814 258.541 234.71 259.127 232.776C259.39 231.863 259.877 231.049 260.535 230.423C261.413 229.721 262.417 229.235 263.481 228.996C264.633 228.643 265.79 228.307 266.938 227.943C267.402 227.843 267.84 227.627 268.216 227.311C268.593 226.994 268.897 226.587 269.107 226.119C269.488 225.194 269.653 224.207 270.109 223.315C270.593 222.387 271.257 221.588 272.053 220.973C272.78 220.403 273.622 220.039 274.507 219.911C275.392 219.783 276.292 219.896 277.128 220.24C277.959 220.581 278.691 221.161 279.247 221.921C279.666 222.657 280.033 223.427 280.344 224.224C281.301 226.136 283.265 225.877 284.969 225.601C286.672 225.326 288.4 224.758 290.059 225.194C292.143 225.745 292.985 228.296 292.965 230.423C292.965 232.809 292.088 235.002 291.727 237.327C291.675 237.536 291.701 237.759 291.799 237.947C291.896 238.135 292.058 238.273 292.248 238.33C292.438 238.387 292.641 238.358 292.812 238.251C292.983 238.143 293.108 237.966 293.16 237.757C294.332 233.729 295.615 228.357 292.554 224.935C291.151 223.364 289.087 223.32 287.223 223.585C286.286 223.717 285.359 223.926 284.423 224.075C283.696 224.191 282.419 224.488 281.837 223.838C281.256 223.188 281.126 222.147 280.695 221.408C280.153 220.496 279.419 219.74 278.556 219.204C277.694 218.671 276.736 218.35 275.75 218.264C274.764 218.177 273.773 218.327 272.844 218.703C270.922 219.535 269.364 221.146 268.491 223.205C268.294 223.697 268.126 224.203 267.99 224.72C267.95 224.994 267.862 225.257 267.728 225.493C267.595 225.728 267.42 225.932 267.213 226.092C266.676 226.34 266.117 226.525 265.545 226.643L263.621 227.227C262.348 227.512 261.129 228.032 260.014 228.764C259.095 229.476 258.395 230.479 258.01 231.64C257.203 233.933 257.449 236.599 257.834 238.985C257.93 239.586 258.836 239.454 258.806 238.842L258.791 238.837Z" fill="black"/>
<path d="M228.957 282.024C228.86 273.068 229.26 264.114 230.154 255.212C230.655 250.358 231.477 245.079 234.809 241.845C236.973 239.746 239.864 238.853 242.654 238.065C263.595 232.177 285.087 228.988 306.697 228.56C308.3 228.533 309.959 228.527 311.437 229.216C315.355 231.045 316.261 236.616 316.447 241.288C316.948 255.19 315.775 269.086 314.613 282.939L310.079 336.997C309.673 341.835 309.132 347.031 306.186 350.645C303.651 353.759 299.819 355.092 296.166 356.293L250.5 371.374C243.932 373.534 235.971 375.022 231.622 367.688C229.213 363.632 228.902 358.718 228.787 354.018C228.661 348.827 228.892 343.637 228.952 338.452C229.042 331.179 229.323 322.566 229.714 315.31" fill="#FF9807"/>
<path d="M67.7861 242.104C55.677 244.457 43.8083 250.369 34.9456 259.885C25.7571 269.767 20.3666 283.151 19.8855 297.276C19.2944 312.467 23.6781 327.377 29.2993 341.063C35.0708 355.103 42.4055 368.239 49.5447 381.457C55.8273 393.089 62.3403 404.561 70.6919 414.561C78.7681 424.231 88.6578 432.585 100.306 436.15C106.513 438.069 113.013 438.555 119.399 437.577C126.684 436.431 133.567 433.169 139.895 429.163C146.323 425.074 152.27 420.137 158.136 415.145C164.003 410.153 169.659 405.117 175.17 399.817C186.122 389.348 196.473 378.025 205.606 365.6C210.162 359.437 214.376 352.979 218.226 346.259C220.13 342.92 221.932 339.515 223.632 336.044C225.11 333.013 226.773 329.911 227.244 326.462C227.61 323.784 227.164 320.952 224.9 319.492C224.739 319.389 224.548 319.36 224.368 319.412C224.188 319.465 224.034 319.593 223.94 319.77C223.847 319.947 223.821 320.157 223.868 320.355C223.916 320.553 224.033 320.722 224.193 320.825C226.748 322.478 226.057 326.335 225.24 328.908C224.138 332.369 222.275 335.653 220.636 338.826C217.172 345.51 213.334 351.951 209.143 358.111C200.711 370.553 190.982 381.882 180.586 392.356C170.079 403.04 158.926 412.929 147.205 421.956C141.233 426.507 134.91 430.673 128.031 433.328C121.621 435.834 114.778 436.707 108.016 435.88C96.253 434.43 85.742 427.692 77.1799 418.964C68.3974 410.005 61.3783 399.128 55.1609 387.943C51.9345 382.129 48.8183 376.239 45.6419 370.382C42.1349 363.869 38.7031 357.312 35.5318 350.601C29.2843 337.377 23.7683 323.161 22.135 308.218C20.607 294.278 22.9967 280.117 30.5017 268.579C37.5758 257.73 48.172 250.033 59.5447 245.746C62.3307 244.693 65.1756 243.839 68.0617 243.189C68.708 243.041 68.4274 241.988 67.7962 242.115L67.7861 242.104Z" fill="black"/>
<path d="M206.011 305.48C202.554 304.973 199.443 306.653 196.808 308.973C193.907 311.524 191.587 314.737 189.067 317.712C183.745 323.934 177.825 329.504 171.412 334.325C165.21 339.025 158.662 343.141 152.063 347.113C145.365 351.158 138.612 355.092 132.049 359.412C128.632 361.66 125.265 364.013 121.993 366.509C120.301 367.708 118.674 369.015 117.119 370.421C115.921 371.578 115.285 373.727 116.958 374.829C117.263 375.039 117.623 375.131 117.98 375.088C118.338 375.045 118.672 374.87 118.927 374.592C119.065 374.434 119.142 374.224 119.142 374.005C119.142 373.786 119.065 373.576 118.927 373.418C107.453 358.242 97.4507 341.79 89.0828 324.33C87.9138 321.887 86.7765 319.429 85.671 316.957C84.5487 314.45 83.5066 311.904 82.3042 309.442C81.9936 308.797 80.9716 309.238 81.2121 309.948C82.7952 314.571 84.9245 319.007 86.9886 323.393C89.0527 327.779 91.2521 332.176 93.5417 336.474C98.1173 345.068 103.103 353.39 108.476 361.406C111.482 365.899 114.612 370.294 117.865 374.592V373.418C117.795 373.49 117.61 373.341 117.515 373.192C117.314 372.889 117.459 372.553 117.635 372.267C118.136 371.484 118.982 370.944 119.669 370.399C121.207 369.159 122.775 367.958 124.358 366.784C127.474 364.475 130.661 362.293 133.877 360.172C140.125 356.1 146.537 352.353 152.915 348.502C159.158 344.728 165.355 340.838 171.252 336.435C177.35 331.964 183.009 326.806 188.135 321.046C190.64 318.202 192.835 315.095 195.33 312.268C197.584 309.717 200.275 307.204 203.541 306.499C204.355 306.328 205.186 306.28 206.011 306.356C206.512 306.395 206.512 305.562 206.011 305.491V305.48Z" fill="black"/>
<path d="M171.924 260.976C170.035 254.325 163.512 248.606 165.411 241.966C166.182 239.272 168.301 237.101 168.532 234.291C168.797 231.128 166.628 228.456 165.025 225.8C158.462 214.846 160.982 200.492 161.874 187.412C162.966 171.3 164.379 152.026 157.73 137.607C142.966 105.483 101.538 98.4858 79.9049 127.22H79.935C74.424 133.204 71.0122 141.816 69.7797 150.362C68.0112 162.639 69.8348 175.157 70.7817 187.533C71.7286 199.908 71.6134 212.973 66.418 224.009C63.4571 230.301 58.8028 237.354 61.6986 243.68C63.2517 247.079 66.894 249.873 66.1825 253.598C65.892 255.096 64.915 256.303 64.3589 257.708C62.1495 263.306 67.1294 269.02 71.7486 272.398C86.463 283.137 103.592 290.25 121.212 292.069C131.768 293.171 143.256 293.468 153.457 289.314C163.326 285.286 175.656 274.1 171.924 260.976ZM123.362 138.802C125.229 138.12 127.133 137.568 129.063 137.149L123.362 138.802H123.302H123.276H123.362ZM154.359 192.172C153.121 200.244 150.351 208.217 145.376 214.08C140.401 219.943 133.036 223.023 125.992 221.755C97.485 216.631 84.4089 168.308 106.152 149.288C108.165 147.524 110.275 145.899 112.47 144.423C119.519 139.695 127.816 137.535 135.982 138.83C157.63 142.257 155.175 164.485 155.24 167.647C155.421 175.841 155.596 184.1 154.359 192.172Z" fill="#FF9807"/>
<path d="M173.04 260.623C171.893 256.7 169.533 253.46 167.769 249.873C166.966 248.392 166.454 246.742 166.266 245.03C166.131 243.019 166.818 241.366 167.724 239.674C168.726 237.845 169.728 235.966 169.728 233.767C169.728 231.651 168.842 229.701 167.81 227.971C166.645 226.187 165.581 224.327 164.623 222.4C163.774 220.469 163.135 218.435 162.719 216.339C160.931 207.749 162.168 198.707 162.86 190.073C163.571 181.169 164.182 172.171 163.932 163.228C163.681 154.412 162.524 145.398 158.967 137.397C156.231 131.308 152.435 125.867 147.795 121.385C138.721 112.675 127.089 107.866 115.044 107.847C102.81 107.826 91.0557 113.08 82.3039 122.482C81.1817 123.705 80.1162 124.991 79.1075 126.339C78.326 127.375 79.333 129.198 80.5103 128.339H80.5454L79.1426 126.339C72.84 133.232 69.4934 142.731 68.3962 152.302C67.1186 163.46 68.5916 174.684 69.4934 185.803C70.295 195.765 70.6507 206.057 68.1357 215.777C67.5225 218.182 66.7125 220.52 65.7158 222.764C64.7489 224.913 63.6216 226.979 62.6096 229.106C60.7008 233.101 58.8221 237.79 59.9894 242.379C60.5355 244.506 61.7279 246.236 62.9353 247.933C63.9072 249.316 65.2148 250.992 65.1146 252.859C65.0545 253.961 64.4834 254.865 63.9974 255.774C63.4479 256.733 63.0499 257.788 62.82 258.893C62.4938 260.99 62.8036 263.147 63.7018 265.031C65.5806 269.23 69.2128 272.139 72.7198 274.602C76.5897 277.331 80.6049 279.802 84.7438 282.002C93.014 286.413 101.757 289.66 110.766 291.666C115.307 292.633 119.898 293.295 124.513 293.65C129.226 294.087 133.96 294.155 138.681 293.854C147.013 293.237 155.285 290.978 162.228 285.688C168.035 281.28 173.456 274.613 173.751 266.458C173.816 264.483 173.575 262.51 173.04 260.623C172.609 259.058 170.37 259.725 170.806 261.301C171.784 264.807 171.59 268.583 170.259 271.946C168.912 275.401 166.652 278.343 164.112 280.817C158.331 286.459 151.061 289.484 143.486 290.735C138.939 291.422 134.344 291.649 129.759 291.413C125.262 291.262 120.776 290.836 116.322 290.135C107.52 288.683 98.9209 286.01 90.7308 282.178C86.6065 280.256 82.5913 278.063 78.7068 275.61C75.0895 273.329 71.2719 270.976 68.3361 267.676C66.9537 266.241 65.9011 264.466 65.2649 262.496C64.7038 260.463 65.0996 258.695 66.0615 256.904C67.0886 254.986 67.805 253.047 67.1838 250.81C66.6527 248.92 65.4753 247.382 64.3982 245.851C63.321 244.319 62.2539 242.594 62.0084 240.55C61.7529 238.423 62.2589 236.28 62.9403 234.302C64.4433 229.894 67.0234 226.037 68.6918 221.662C72.1537 212.653 72.6998 202.669 72.2739 193.01C71.813 182.342 70.1647 171.758 70.2198 161.052C70.2749 151.288 71.9483 141.486 76.9432 133.237C78.064 131.393 79.3496 129.676 80.7809 128.113C81.6927 127.116 80.4953 125.297 79.3731 126.113H79.343L80.7458 128.113C84.5376 123.065 89.2142 118.907 94.4971 115.887C99.7801 112.867 105.562 111.048 111.497 110.536C123.039 109.615 134.492 113.335 143.727 121.005C148.432 124.947 152.389 129.864 155.375 135.48C159.217 142.703 160.886 150.858 161.417 159.14C161.993 167.956 161.457 176.81 160.861 185.588C160.275 194.272 158.967 203.071 159.728 211.788C160.03 216.093 161.081 220.295 162.825 224.163C163.716 226.048 164.894 227.706 165.931 229.492C166.873 231.106 167.729 232.946 167.263 234.919C166.798 236.891 165.585 238.396 164.834 240.164C164.038 241.984 163.76 244.025 164.037 246.022C164.538 249.79 166.773 253.019 168.546 256.193C169.484 257.796 170.249 259.514 170.826 261.312C171.261 262.871 173.501 262.204 173.04 260.623Z" fill="#FF9807"/>
<path d="M123.672 140.031C125.537 139.349 127.44 138.796 129.368 138.378L128.757 135.893L123.747 137.375L123.246 137.519C123.131 137.552 122.85 137.601 123.286 137.552L123.597 140.053H123.682C123.978 139.963 124.23 139.748 124.382 139.454C124.534 139.16 124.573 138.812 124.491 138.486C124.41 138.16 124.213 137.883 123.946 137.716C123.679 137.549 123.362 137.506 123.066 137.596H122.981C122.713 137.68 122.481 137.868 122.328 138.125C122.176 138.382 122.112 138.69 122.149 138.994C122.186 139.299 122.321 139.578 122.53 139.781C122.739 139.985 123.007 140.099 123.286 140.103C124.035 139.961 124.774 139.759 125.496 139.497L128.632 138.577L129.378 138.356C129.673 138.262 129.923 138.046 130.074 137.752C130.226 137.459 130.267 137.112 130.19 136.786C130.101 136.464 129.904 136.192 129.638 136.026C129.372 135.86 129.059 135.812 128.762 135.893C126.833 136.321 124.931 136.882 123.066 137.574C122.77 137.664 122.518 137.879 122.366 138.173C122.214 138.467 122.175 138.815 122.257 139.141C122.338 139.467 122.535 139.744 122.802 139.911C123.069 140.078 123.386 140.121 123.682 140.031H123.672Z" fill="#FF9807"/>
<path d="M153.241 191.836C151.703 201.754 147.771 212.317 139.514 217.606C135.675 220.118 131.191 221.171 126.754 220.604C123.704 220.142 120.742 219.137 117.986 217.629C112.563 214.596 107.928 210.102 104.514 204.564C100.969 198.927 98.5104 192.552 97.2898 185.83C96.045 179.395 96.1495 172.732 97.5954 166.347C99.0109 160.139 102.181 154.585 106.648 150.484C110.541 146.974 114.94 143.872 119.674 142.02C124.388 140.138 129.421 139.423 134.414 139.926C138.091 140.238 141.661 141.43 144.875 143.42C146.082 144.181 147.196 145.106 148.191 146.175C149.133 147.16 149.959 148.271 150.651 149.481C150.987 150.059 151.303 150.654 151.588 151.266C151.718 151.547 151.844 151.817 151.964 152.12C152.034 152.28 152.099 152.44 152.164 152.6C152.164 152.633 152.26 152.858 152.209 152.721C152.159 152.583 152.26 152.864 152.27 152.892C152.713 154.111 153.073 155.365 153.347 156.644C153.472 157.228 153.582 157.823 153.677 158.418C153.717 158.688 153.757 158.969 153.793 159.228C153.793 159.327 153.853 159.685 153.793 159.388C153.793 159.553 153.828 159.718 153.848 159.878C153.958 160.92 154.023 161.966 154.058 163.019C154.098 164.446 154.058 165.873 154.023 167.3C153.993 169.471 154.113 171.653 154.133 173.824C154.168 176.899 154.133 179.979 154.008 183.048C153.886 186.001 153.61 188.945 153.181 191.864C153.108 192.189 153.151 192.532 153.301 192.823C153.451 193.114 153.697 193.331 153.988 193.429C154.284 193.517 154.6 193.473 154.867 193.307C155.135 193.141 155.332 192.866 155.416 192.541C156.373 186.222 156.528 179.819 156.448 173.427C156.413 170.716 156.348 168.016 156.388 165.311C156.458 160.55 155.887 155.768 154.163 151.376C151.628 144.935 146.518 140.56 140.456 138.621C130.671 135.485 119.985 137.778 111.428 143.618C107.871 146.048 104.324 148.809 101.583 152.335C99.5453 154.973 97.8984 157.948 96.7036 161.151C94.3038 167.499 93.6625 174.584 94.3038 181.389C94.9939 188.664 97.0405 195.703 100.316 202.068C103.467 208.339 107.932 213.692 113.342 217.684C119.514 222.125 127.29 224.615 134.589 222.582C139.222 221.255 143.394 218.448 146.578 214.515C149.819 210.388 152.25 205.569 153.717 200.36C154.465 197.804 155.043 195.19 155.446 192.541C155.518 192.215 155.474 191.871 155.323 191.579C155.173 191.287 154.926 191.07 154.634 190.971C154.346 190.893 154.041 190.939 153.782 191.1C153.523 191.261 153.33 191.524 153.241 191.836Z" fill="#FF9807"/>
<path d="M112.118 161.201C113.206 161.325 114.305 161.29 115.384 161.096C116.547 160.964 117.704 160.798 118.891 160.716C121.185 160.547 123.485 160.527 125.78 160.655C127.243 160.727 127.238 158.231 125.78 158.159C123.442 158.035 121.098 158.09 118.766 158.324C117.629 158.44 116.482 158.572 115.354 158.782C114.227 158.991 112.925 159.261 111.983 159.939C111.572 160.231 111.567 161.085 112.133 161.201H112.118Z" fill="black"/>
<path d="M153.2 160.104C152.484 159.421 151.336 159.107 150.425 158.886C149.431 158.671 148.428 158.518 147.419 158.429C145.396 158.222 143.36 158.222 141.336 158.429C141.038 158.437 140.754 158.571 140.542 158.803C140.331 159.034 140.208 159.346 140.199 159.674C140.202 160.005 140.323 160.322 140.535 160.556C140.748 160.789 141.036 160.922 141.336 160.925C143.285 160.724 145.245 160.691 147.198 160.826C148.155 160.898 149.102 161.041 150.054 161.162C151.006 161.283 152.058 161.52 152.935 161.278C153.04 161.245 153.135 161.183 153.212 161.097C153.289 161.012 153.344 160.906 153.372 160.789C153.4 160.673 153.401 160.551 153.373 160.435C153.346 160.319 153.291 160.212 153.215 160.126L153.2 160.104Z" fill="black"/>
<path d="M117.343 168.573C117.338 168.394 117.273 168.223 117.162 168.092C117.05 167.961 116.899 167.879 116.737 167.862C116.442 167.841 116.149 167.934 115.91 168.127C115.416 168.474 115.022 168.969 114.773 169.554C114.496 170.166 114.44 170.871 114.618 171.526C114.716 171.864 114.885 172.172 115.111 172.425C115.337 172.677 115.615 172.868 115.92 172.981C116.192 173.067 116.475 173.092 116.755 173.054C117.035 173.017 117.306 172.919 117.551 172.765C117.795 172.61 118.01 172.404 118.18 172.157C118.351 171.91 118.476 171.628 118.546 171.328C118.615 170.954 118.595 170.566 118.487 170.202C118.379 169.839 118.187 169.513 117.929 169.256C117.644 168.993 117.292 168.833 116.921 168.797C116.551 168.76 116.179 168.849 115.855 169.052C115.488 169.289 115.22 169.675 115.109 170.127C115.005 170.581 115.057 171.062 115.254 171.477C115.356 171.715 115.514 171.919 115.711 172.069C115.908 172.219 116.138 172.31 116.376 172.331C116.617 172.331 116.849 172.229 117.023 172.047C117.198 171.864 117.302 171.615 117.313 171.35C117.313 171.246 117.299 171.142 117.273 171.041C117.183 170.763 117.005 170.528 116.772 170.38L116.963 170.546C116.882 170.474 116.802 170.402 116.717 170.336L116.907 170.496C116.862 170.456 116.82 170.412 116.782 170.364L116.932 170.568C116.887 170.507 116.851 170.438 116.827 170.364L116.917 170.612C116.898 170.549 116.883 170.484 116.872 170.419L116.902 170.689C116.895 170.61 116.895 170.531 116.902 170.452L116.867 170.727C116.876 170.661 116.893 170.596 116.917 170.535L116.822 170.777L116.877 170.672L116.802 170.771L116.847 170.727C116.887 170.661 116.632 170.865 116.782 170.782L116.907 170.716L116.687 170.821C116.761 170.788 116.838 170.766 116.917 170.755L116.672 170.788C116.752 170.78 116.832 170.78 116.912 170.788L116.672 170.755C116.75 170.766 116.826 170.79 116.897 170.827L116.682 170.722C116.727 170.749 116.772 170.788 116.822 170.816C116.697 170.7 116.667 170.678 116.737 170.744L116.777 170.794C116.827 170.854 116.777 170.793 116.702 170.683C116.721 170.707 116.738 170.733 116.752 170.76C116.781 170.813 116.806 170.869 116.827 170.926L116.737 170.689C116.773 170.79 116.798 170.895 116.812 171.003L116.782 170.738C116.792 170.846 116.792 170.955 116.782 171.063L116.812 170.805C116.803 170.874 116.787 170.942 116.767 171.008C116.732 171.146 116.862 170.81 116.807 170.904C116.752 170.997 116.782 170.959 116.767 170.986L116.727 171.052C116.662 171.179 116.852 170.904 116.792 170.964L116.667 171.097C116.612 171.163 116.862 170.953 116.747 171.03L116.687 171.075C116.631 171.1 116.577 171.131 116.527 171.168C116.527 171.168 116.762 171.08 116.617 171.124H116.532L116.356 171.163L116.587 171.13C116.482 171.143 116.376 171.143 116.271 171.13L116.497 171.163C116.427 171.15 116.358 171.132 116.291 171.108C116.156 171.069 116.477 171.218 116.361 171.141L116.271 171.086C116.151 171.008 116.411 171.229 116.311 171.119L116.221 171.025C116.116 170.909 116.326 171.196 116.251 171.063L116.186 170.948L116.146 170.865L116.196 170.997C116.178 170.955 116.164 170.911 116.156 170.865C116.156 170.777 116.116 170.689 116.096 170.595C116.076 170.501 116.096 170.805 116.096 170.645C116.096 170.595 116.096 170.551 116.096 170.501C116.096 170.452 116.096 170.408 116.096 170.364C116.093 170.333 116.093 170.301 116.096 170.27C116.096 170.413 116.071 170.446 116.096 170.38C116.121 170.314 116.136 170.176 116.166 170.077L116.191 170C116.191 169.939 116.191 169.939 116.191 170C116.191 170.061 116.166 170.066 116.191 170L116.221 169.934C116.263 169.837 116.31 169.744 116.361 169.653L116.441 169.521C116.441 169.521 116.552 169.355 116.487 169.449C116.421 169.543 116.527 169.399 116.542 169.377L116.702 169.146C116.726 169.102 116.753 169.059 116.782 169.019L116.822 168.953C116.772 169.023 116.762 169.039 116.792 169.003C116.792 169.003 116.907 168.909 116.827 168.959C116.747 169.008 116.787 168.992 116.827 168.959C116.867 168.926 116.867 168.959 116.827 168.959L116.922 168.915H116.872H116.807C116.733 168.912 116.662 168.885 116.602 168.837C116.663 168.9 116.739 168.941 116.822 168.957C116.904 168.973 116.989 168.963 117.066 168.928C117.143 168.892 117.209 168.833 117.256 168.758C117.304 168.682 117.33 168.593 117.333 168.501L117.343 168.573Z" fill="black"/>
<path d="M142.99 169.422C142.984 169.243 142.919 169.072 142.807 168.942C142.696 168.811 142.546 168.729 142.384 168.711C142.089 168.691 141.797 168.785 141.557 168.975C141.062 169.325 140.668 169.822 140.42 170.408C140.142 171.018 140.087 171.721 140.264 172.375C140.362 172.713 140.532 173.021 140.758 173.273C140.984 173.526 141.261 173.717 141.567 173.83C141.838 173.915 142.122 173.94 142.402 173.903C142.682 173.866 142.952 173.767 143.197 173.613C143.442 173.459 143.656 173.252 143.827 173.006C143.998 172.759 144.122 172.477 144.192 172.177C144.262 171.802 144.241 171.414 144.133 171.051C144.025 170.688 143.833 170.362 143.576 170.105C143.292 169.84 142.94 169.678 142.568 169.642C142.197 169.605 141.825 169.696 141.502 169.901C141.135 170.136 140.867 170.52 140.755 170.97C140.655 171.424 140.706 171.904 140.901 172.32C141.004 172.558 141.161 172.763 141.358 172.913C141.555 173.064 141.784 173.156 142.023 173.179C142.265 173.18 142.497 173.077 142.672 172.893C142.846 172.709 142.949 172.459 142.96 172.193C142.959 172.089 142.946 171.985 142.92 171.884C142.829 171.607 142.652 171.375 142.419 171.229L142.609 171.389C142.529 171.317 142.449 171.245 142.364 171.179L142.554 171.344L142.429 171.207L142.579 171.416C142.536 171.354 142.5 171.285 142.474 171.212L142.564 171.455C142.544 171.392 142.529 171.327 142.519 171.262L142.554 171.537C142.544 171.459 142.544 171.379 142.554 171.3L142.519 171.57C142.529 171.504 142.545 171.439 142.569 171.378L142.474 171.626C142.474 171.587 142.514 171.554 142.529 171.515C142.419 171.659 142.394 171.697 142.454 171.62L142.499 171.576C142.544 171.51 142.283 171.714 142.434 171.631C142.479 171.631 142.514 171.581 142.559 171.565L142.339 171.664C142.412 171.631 142.49 171.609 142.569 171.598L142.324 171.637C142.403 171.626 142.484 171.626 142.564 171.637L142.324 171.603C142.401 171.617 142.477 171.641 142.549 171.675L142.334 171.576C142.384 171.576 142.424 171.637 142.474 171.664C142.349 171.554 142.319 171.532 142.389 171.598L142.429 171.648C142.479 171.703 142.454 171.664 142.354 171.532L142.404 171.609C142.434 171.664 142.454 171.719 142.479 171.774L142.389 171.537C142.424 171.639 142.449 171.744 142.464 171.851L142.434 171.592C142.444 171.699 142.444 171.806 142.434 171.912L142.464 171.653C142.454 171.722 142.439 171.791 142.419 171.857C142.384 172 142.514 171.659 142.459 171.752L142.419 171.835L142.384 171.901C142.314 172.028 142.504 171.752 142.444 171.813L142.319 171.951C142.263 172.017 142.514 171.802 142.399 171.884L142.339 171.929C142.283 171.952 142.229 171.982 142.178 172.017C142.178 172.017 142.414 171.929 142.268 171.973L142.183 172C142.127 172.021 142.068 172.034 142.008 172.039L142.238 172.006C142.134 172.022 142.027 172.022 141.923 172.006L142.148 172.039C142.079 172.028 142.01 172.011 141.943 171.989C141.808 171.945 142.133 172.094 142.013 172.022L141.923 171.962C141.803 171.89 142.063 172.105 141.963 171.995L141.878 171.901C141.767 171.785 141.978 172.077 141.903 171.94C141.903 171.901 141.858 171.868 141.838 171.824C141.824 171.797 141.812 171.77 141.803 171.741L141.848 171.873C141.829 171.833 141.816 171.791 141.808 171.747C141.782 171.653 141.767 171.565 141.747 171.471C141.727 171.378 141.747 171.686 141.747 171.521C141.745 171.475 141.745 171.429 141.747 171.383C141.745 171.335 141.745 171.288 141.747 171.24C141.747 171.207 141.747 171.179 141.747 171.146V171.256C141.772 171.157 141.787 171.052 141.818 170.953C141.848 170.854 141.818 170.904 141.843 170.882C141.868 170.86 141.843 170.816 141.843 170.882L141.873 170.81C141.918 170.716 141.963 170.623 142.013 170.535L142.093 170.402L142.143 170.325C142.078 170.419 142.178 170.276 142.193 170.259C142.208 170.242 142.304 170.105 142.354 170.022L142.434 169.895C142.446 169.874 142.459 169.854 142.474 169.835C142.424 169.901 142.414 169.917 142.444 169.884C142.444 169.884 142.559 169.791 142.479 169.835C142.399 169.879 142.444 169.868 142.479 169.835C142.514 169.802 142.519 169.835 142.479 169.835C142.439 169.835 142.439 169.835 142.574 169.785C142.504 169.818 142.484 169.824 142.524 169.813C142.564 169.802 142.524 169.813 142.459 169.813C142.385 169.812 142.312 169.785 142.253 169.736C142.314 169.8 142.39 169.844 142.473 169.862C142.556 169.879 142.642 169.869 142.72 169.833C142.798 169.798 142.865 169.737 142.912 169.66C142.959 169.583 142.984 169.492 142.985 169.399L142.99 169.422Z" fill="black"/>
<path d="M134.327 175.218C134.408 176.695 134.468 178.171 134.523 179.626C134.524 180.218 134.596 180.807 134.738 181.378C134.93 181.958 135.263 182.469 135.7 182.855C135.993 183.119 136.224 183.457 136.374 183.839C136.525 184.222 136.59 184.638 136.565 185.054C136.54 185.47 136.426 185.873 136.231 186.23C136.036 186.587 135.766 186.889 135.445 187.109C134.989 187.325 134.563 187.608 134.177 187.952C133.486 188.74 134.583 189.946 135.269 189.153C135.6 188.767 136.191 188.602 136.587 188.277C137.014 187.916 137.365 187.46 137.619 186.938C138.028 186.087 138.162 185.108 137.999 184.162C137.836 183.216 137.386 182.358 136.722 181.731C136.502 181.516 136.261 181.334 136.041 181.125C135.908 180.995 135.8 180.836 135.724 180.659C135.648 180.482 135.606 180.29 135.6 180.094C135.39 178.474 135.284 176.827 135.149 175.196C135.104 174.645 134.297 174.606 134.327 175.196V175.218Z" fill="black"/>
<path d="M136.592 195.688C134.208 196.239 131.763 196.013 129.363 195.748C127.544 195.544 125.56 194.646 123.732 195.197C121.903 195.748 122.775 197.952 123.486 199.126C124.176 200.213 125.053 201.14 126.068 201.854C127.083 202.567 128.217 203.054 129.403 203.286C130.786 203.556 132.279 203.352 133.206 202.09C134.278 200.636 134.087 198.658 133.957 196.916" fill="black"/>
<path d="M136.593 195.247C133.591 195.563 130.563 195.344 127.625 194.597C125.841 194.15 122.114 193.423 121.888 196.443C121.718 198.647 123.472 200.806 124.95 202.046C126.763 203.572 129.388 204.719 131.688 204.112C132.33 203.943 132.923 203.6 133.413 203.114C133.903 202.628 134.274 202.014 134.494 201.33C134.97 199.919 134.809 198.371 134.679 196.922C134.584 195.93 133.176 195.892 133.241 196.922C133.346 198.812 133.567 201.583 131.518 202.338C129.759 202.983 127.58 201.953 126.147 200.862C125.338 200.258 124.645 199.485 124.108 198.586C123.721 198.029 123.494 197.357 123.457 196.657C123.507 195.798 124.664 195.88 125.235 195.897C126.345 195.995 127.449 196.162 128.542 196.398C129.854 196.584 131.177 196.67 132.5 196.657C133.917 196.715 135.333 196.529 136.698 196.106C137.104 195.969 137.059 195.203 136.593 195.247Z" fill="black"/>
<path d="M123.275 139.094C123.394 139.093 123.512 139.075 123.626 139.039H123.671C123.817 139.005 123.953 138.926 124.062 138.813C124.189 138.725 124.292 138.602 124.362 138.455C124.447 138.314 124.493 138.15 124.498 137.981C124.54 137.816 124.54 137.64 124.498 137.474L124.382 137.171C124.282 136.982 124.139 136.824 123.967 136.714L123.691 136.582C123.489 136.521 123.276 136.521 123.075 136.582H123C122.853 136.62 122.717 136.698 122.604 136.808C122.479 136.898 122.378 137.021 122.308 137.166C122.162 137.466 122.119 137.815 122.188 138.147L122.308 138.455C122.41 138.644 122.553 138.801 122.724 138.913L123 139.039C123.201 139.1 123.414 139.1 123.616 139.039H123.691L123.075 136.582H123.01L123.32 136.538H123.295C123.141 136.528 122.987 136.564 122.849 136.642C122.708 136.697 122.581 136.788 122.479 136.907C122.366 137.018 122.283 137.161 122.238 137.32C122.164 137.47 122.13 137.64 122.138 137.811L122.178 138.147C122.231 138.357 122.335 138.547 122.479 138.698L122.714 138.902C122.882 139.019 123.076 139.085 123.275 139.094Z" fill="#FF9807"/>
<path d="M123.671 139.023L128.681 137.557L129.392 137.348C129.686 137.255 129.936 137.04 130.088 136.747C130.239 136.455 130.281 136.109 130.204 135.783C130.116 135.46 129.919 135.188 129.653 135.021C129.387 134.855 129.073 134.808 128.776 134.89C126.848 135.311 124.945 135.863 123.08 136.543C122.783 136.633 122.531 136.849 122.38 137.143C122.228 137.437 122.189 137.785 122.27 138.111C122.352 138.437 122.548 138.714 122.815 138.88C123.083 139.047 123.399 139.091 123.696 139.001C125.562 138.321 127.464 137.769 129.392 137.348L128.756 134.89L123.746 136.356L123.034 136.565C122.738 136.655 122.486 136.871 122.335 137.165C122.183 137.459 122.144 137.807 122.225 138.133C122.307 138.459 122.503 138.736 122.77 138.903C123.038 139.069 123.354 139.113 123.651 139.023H123.671Z" fill="#FF9807"/>
<path d="M156.401 166.644C156.376 165.339 156.467 164.027 156.446 162.721C156.424 160.389 156.203 158.065 155.785 155.779C154.673 149.828 151.807 144.445 147.203 140.973C144.101 138.741 140.592 137.284 136.922 136.703C131.74 135.783 126.437 136.133 121.391 137.728C116.221 139.353 111.542 142.257 107.248 145.767C104.408 147.997 101.915 150.719 99.8685 153.828C96.2713 159.476 94.5178 166.341 94.1972 173.174C93.9045 180.305 94.987 187.424 97.3735 194.062C99.7162 200.868 103.392 207.023 108.14 212.091C112.819 216.967 118.661 220.543 125.014 221.849C129.64 222.794 134.418 222.132 138.686 219.954C143.082 217.639 146.797 214.011 149.407 209.485C155.299 199.66 156.497 187.5 156.537 176.017C156.537 172.893 156.477 169.769 156.411 166.65C156.376 164.997 154.057 164.997 154.092 166.65C154.347 178.254 154.593 190.249 150.675 201.247C148.987 205.975 146.462 210.482 142.985 213.871C139.66 217.131 135.487 219.159 131.056 219.667C124.463 220.345 117.869 217.303 112.704 213.028C107.885 209.044 104.037 203.545 101.301 197.561C98.5364 191.512 96.9123 184.911 96.5269 178.155C96.1912 171.675 97.0679 165.08 99.623 159.327C100.871 156.476 102.536 153.87 104.553 151.613C105.839 150.207 107.227 148.917 108.701 147.756C110.812 146.019 113.041 144.464 115.369 143.106C123.511 138.455 133.626 137.138 142.258 140.951C144.968 142.118 147.382 143.985 149.297 146.395C149.689 146.882 150.051 147.397 150.379 147.938C150.737 148.511 151.071 149.101 151.381 149.707C151.952 150.82 152.418 151.994 152.774 153.211C153.138 154.409 153.428 155.634 153.641 156.875C153.686 157.145 153.731 157.426 153.771 157.696C153.796 157.85 153.816 157.999 153.836 158.153C153.856 158.308 153.901 158.671 153.866 158.363C153.931 158.914 153.987 159.465 154.027 160.016C154.146 161.754 154.178 163.498 154.122 165.239C154.122 165.697 154.087 166.159 154.097 166.617C154.112 168.281 156.431 168.286 156.401 166.644Z" fill="#FF9807"/>
<path d="M114.728 173.334C116.376 173.482 118.02 173.615 119.668 173.741C120.284 173.785 120.289 172.717 119.668 172.678C118.02 172.573 116.376 172.48 114.728 172.402C114.182 172.375 114.192 173.284 114.728 173.334Z" fill="black"/>
<path d="M141.067 174.155C142.512 174.005 143.94 173.698 145.33 173.24C145.896 173.053 145.651 172.061 145.085 172.265C143.782 172.737 142.439 173.068 141.077 173.251C140.969 173.254 140.866 173.302 140.789 173.386C140.713 173.471 140.669 173.584 140.666 173.703C140.666 173.823 140.709 173.938 140.786 174.022C140.863 174.107 140.968 174.155 141.077 174.155H141.067Z" fill="black"/>
<path d="M125.852 199.87C126.222 199.776 126.588 199.671 126.964 199.611H127.114C127.188 199.605 127.261 199.605 127.335 199.611C127.413 199.605 127.492 199.605 127.57 199.611H127.665C127.803 199.64 127.938 199.679 128.071 199.726L128.282 199.804L128.377 199.848H128.412C128.758 200.032 129.093 200.242 129.414 200.476C129.547 200.56 129.705 200.582 129.852 200.538C130 200.495 130.127 200.388 130.203 200.242C130.279 200.096 130.3 199.922 130.26 199.759C130.22 199.597 130.123 199.458 129.99 199.374C129.33 198.875 128.574 198.55 127.781 198.426C126.99 198.404 126.206 198.593 125.496 198.977C125.407 199.036 125.341 199.128 125.308 199.236C125.276 199.344 125.281 199.462 125.321 199.567C125.362 199.669 125.435 199.753 125.526 199.803C125.618 199.853 125.722 199.867 125.822 199.842L125.852 199.87Z" fill="#FF9807"/>
<path d="M107.835 178.623C107.939 178.611 108.036 178.556 108.106 178.47C108.176 178.384 108.215 178.273 108.215 178.158C108.215 178.042 108.176 177.931 108.106 177.845C108.036 177.759 107.939 177.704 107.835 177.692C107.73 177.704 107.634 177.759 107.564 177.845C107.494 177.931 107.455 178.042 107.455 178.158C107.455 178.273 107.494 178.384 107.564 178.47C107.634 178.556 107.73 178.611 107.835 178.623Z" fill="#FF9807"/>
<path d="M110.875 177.708L111.021 177.554C111.061 177.509 111.092 177.454 111.111 177.394C111.138 177.339 111.15 177.276 111.146 177.213C111.15 177.148 111.138 177.083 111.111 177.025C111.092 176.965 111.061 176.911 111.021 176.865L110.93 176.794C110.862 176.75 110.784 176.727 110.705 176.728H110.59C110.516 176.748 110.448 176.79 110.394 176.849L110.254 177.009C110.171 177.099 110.124 177.222 110.124 177.35C110.12 177.415 110.132 177.48 110.159 177.538C110.177 177.598 110.21 177.651 110.254 177.692L110.339 177.769C110.408 177.813 110.486 177.836 110.565 177.835H110.68C110.754 177.813 110.822 177.769 110.875 177.708Z" fill="#FF9807"/>
<path d="M109.844 180.849C109.951 180.836 110.05 180.781 110.122 180.693C110.194 180.605 110.233 180.491 110.233 180.373C110.233 180.254 110.194 180.14 110.122 180.052C110.05 179.964 109.951 179.909 109.844 179.896C109.737 179.909 109.639 179.964 109.567 180.052C109.495 180.14 109.455 180.254 109.455 180.373C109.455 180.491 109.495 180.605 109.567 180.693C109.639 180.781 109.737 180.836 109.844 180.849Z" fill="#FF9807"/>
<path d="M148.657 176.871C148.766 176.871 148.87 176.823 148.947 176.739C149.024 176.654 149.068 176.539 149.068 176.419C149.068 176.299 149.024 176.184 148.947 176.1C148.87 176.015 148.766 175.967 148.657 175.967C148.548 175.967 148.443 176.015 148.366 176.1C148.289 176.184 148.246 176.299 148.246 176.419C148.246 176.539 148.289 176.654 148.366 176.739C148.443 176.823 148.548 176.871 148.657 176.871Z" fill="#FF9807"/>
<path d="M150.215 176.739V176.893C150.213 176.958 150.226 177.023 150.255 177.08C150.27 177.141 150.302 177.194 150.345 177.235C150.427 177.326 150.539 177.377 150.656 177.378H150.771C150.845 177.356 150.913 177.312 150.966 177.251L151.036 177.157C151.076 177.082 151.097 176.997 151.096 176.91V176.755C151.099 176.686 151.085 176.618 151.056 176.557C151.037 176.496 151.005 176.441 150.961 176.397C150.921 176.348 150.869 176.312 150.811 176.292C150.758 176.258 150.697 176.243 150.636 176.248H150.515C150.438 176.274 150.368 176.319 150.31 176.381L150.24 176.48C150.201 176.559 150.18 176.648 150.18 176.739H150.215Z" fill="#FF9807"/>
<path d="M149.087 180.21C149.238 180.21 149.384 180.144 149.491 180.026C149.598 179.908 149.658 179.748 149.658 179.582C149.658 179.415 149.598 179.256 149.491 179.138C149.384 179.02 149.238 178.954 149.087 178.954C148.935 178.954 148.79 179.02 148.683 179.138C148.576 179.256 148.516 179.415 148.516 179.582C148.516 179.748 148.576 179.908 148.683 180.026C148.79 180.144 148.935 180.21 149.087 180.21Z" fill="#FF9807"/>
<path d="M139.739 135.039C131.723 135.166 123.782 138.108 116.628 141.976C112.971 143.954 109.329 146.131 106.197 149.029C103.46 151.576 101.148 154.628 99.3638 158.049C97.3268 161.926 95.9149 166.161 95.1904 170.568C95.0852 171.201 95.957 171.477 96.0722 170.838C97.465 163.305 101.212 156.55 106.323 151.349C109.226 148.489 112.442 146.038 115.897 144.053C119.368 141.954 123.001 140.195 126.753 138.797C130.974 137.259 135.347 136.286 139.779 135.899C140.28 135.855 140.28 135.028 139.779 135.039H139.739Z" fill="black"/>
<path d="M95.3252 174C95.4275 174 95.5257 173.956 95.598 173.876C95.6703 173.796 95.711 173.689 95.711 173.576C95.711 173.463 95.6703 173.356 95.598 173.276C95.5257 173.196 95.4275 173.152 95.3252 173.152C95.2229 173.152 95.1248 173.196 95.0524 173.276C94.9801 173.356 94.9395 173.463 94.9395 173.576C94.9395 173.689 94.9801 173.796 95.0524 173.876C95.1248 173.956 95.2229 174 95.3252 174Z" fill="black"/>
<path d="M95.8454 176.221L95.8755 176.067C95.8956 175.987 95.8956 175.903 95.8755 175.824C95.8567 175.746 95.8205 175.674 95.7703 175.615L95.6851 175.543C95.6184 175.505 95.5447 175.485 95.4697 175.483C95.4124 175.479 95.3553 175.492 95.3044 175.521C95.2529 175.539 95.2064 175.572 95.1691 175.615C95.1189 175.674 95.0827 175.746 95.0639 175.824C95.0438 175.903 95.0438 175.987 95.0639 176.067L95.0889 176.221L95.129 176.32C95.1528 176.369 95.1872 176.411 95.2292 176.441C95.2544 176.468 95.2855 176.487 95.3194 176.496C95.3656 176.523 95.4174 176.537 95.4697 176.535H95.5749L95.6651 176.491C95.7115 176.468 95.7501 176.429 95.7753 176.381C95.811 176.342 95.8354 176.292 95.8454 176.237V176.221Z" fill="black"/>
<path d="M126.412 138.852C128.041 139.159 129.686 139.356 131.337 139.442L136.392 139.926L141.327 140.4C143.045 140.566 144.779 140.819 146.507 140.869C147.063 140.869 147.214 139.866 146.643 139.767C145.009 139.502 143.341 139.42 141.698 139.265L136.638 138.786L131.703 138.318C130.841 138.235 129.979 138.169 129.112 138.103C128.246 138.037 127.379 137.91 126.522 137.943C126.076 137.943 125.936 138.731 126.412 138.847V138.852Z" fill="black"/>
<path d="M116.662 227.916C121.893 225.96 127.118 223.981 132.193 221.607C136.878 219.403 141.783 216.967 145.525 213.083C147.389 211.149 148.977 208.901 149.533 206.09C149.552 205.973 149.53 205.852 149.472 205.751C149.414 205.65 149.324 205.577 149.219 205.545C149.115 205.514 149.003 205.526 148.907 205.58C148.81 205.634 148.735 205.726 148.696 205.837C147.329 210.796 143.351 213.705 139.453 216.157C134.787 219.042 129.93 221.536 124.924 223.618C122.113 224.808 119.278 225.926 116.437 227.045C115.936 227.238 116.151 228.103 116.657 227.916H116.662Z" fill="black"/>
<path d="M150.384 204.851C150.492 204.851 150.595 204.804 150.671 204.72C150.747 204.636 150.79 204.523 150.79 204.404C150.79 204.286 150.747 204.173 150.671 204.089C150.595 204.005 150.492 203.958 150.384 203.958C150.277 203.958 150.173 204.005 150.097 204.089C150.021 204.173 149.979 204.286 149.979 204.404C149.979 204.523 150.021 204.636 150.097 204.72C150.173 204.804 150.277 204.851 150.384 204.851Z" fill="black"/>
<path d="M71.233 252.027C78.0166 256.435 84.8252 260.893 92.1097 264.26C95.8046 265.975 99.6196 267.359 103.517 268.398C107.533 269.411 111.6 270.162 115.697 270.646C120.326 271.241 125.075 271.946 129.725 271.301C130.326 271.219 130.341 270.199 129.725 270.255C125.652 270.75 121.548 270.194 117.5 269.676C113.452 269.158 109.284 268.486 105.236 267.522C97.5105 265.681 90.266 262.315 83.2771 258.309C79.3492 256.055 75.5116 253.625 71.6739 251.19C71.5735 251.135 71.458 251.124 71.3508 251.16C71.2435 251.196 71.1526 251.275 71.0964 251.381C71.0403 251.488 71.0232 251.614 71.0486 251.734C71.0739 251.854 71.1399 251.959 71.233 252.027Z" fill="black"/>
<path d="M137.16 272.194H138.021C138.13 272.194 138.235 272.146 138.312 272.062C138.389 271.977 138.432 271.862 138.432 271.742C138.432 271.622 138.389 271.507 138.312 271.423C138.235 271.338 138.13 271.29 138.021 271.29H137.16C137.053 271.294 136.951 271.341 136.874 271.423C136.798 271.506 136.755 271.619 136.754 271.737C136.754 271.795 136.765 271.853 136.785 271.907C136.806 271.961 136.836 272.01 136.874 272.051C136.95 272.134 137.052 272.182 137.16 272.183V272.194Z" fill="black"/>
<path d="M223.321 269.296C221.192 275.357 216.347 279.528 213.366 285.027C210.576 290.168 209.083 296.129 207.68 301.865C207.284 303.518 206.898 305.127 206.502 306.758C206.068 308.289 205.71 309.846 205.43 311.42C205.34 312.086 206.222 312.681 206.532 311.932C207.011 310.608 207.393 309.245 207.675 307.855C208.025 306.444 208.346 305.028 208.677 303.618C209.388 300.609 210.125 297.612 211.011 294.658C211.823 291.816 212.871 289.062 214.143 286.432C215.51 283.677 217.309 281.324 219.052 278.889C221.097 276.029 223.06 273.015 224.133 269.522C224.308 268.971 223.506 268.728 223.316 269.274L223.321 269.296Z" fill="black"/>
<path d="M252.002 274.53C244.388 277.424 236.578 279.654 228.645 281.197C227.799 281.368 228.144 282.79 229.001 282.619C236.927 281.003 244.7 278.586 252.223 275.401C252.724 275.197 252.508 274.337 252.002 274.53Z" fill="black"/>
<path d="M251.031 302.984C246.933 306.389 241.973 308.119 237.293 310.274C233.124 312.246 229.154 314.695 225.45 317.58C223.411 319.054 221.471 320.685 219.643 322.462C219.007 323.112 219.934 324.076 220.585 323.492C224.048 320.367 227.717 317.529 231.562 315.001C235.635 312.362 240.079 310.67 244.368 308.532C246.951 307.292 249.376 305.686 251.582 303.755C251.968 303.408 251.447 302.653 251.041 302.984H251.031Z" fill="black"/>
<path d="M251.106 282.597C248.017 285.219 244.48 287.132 240.705 288.223C240.549 288.274 240.418 288.39 240.339 288.546C240.261 288.703 240.241 288.887 240.284 289.059C240.327 289.231 240.43 289.378 240.571 289.468C240.711 289.558 240.878 289.583 241.036 289.539C244.953 288.296 248.586 286.152 251.692 283.247C252.108 282.856 251.517 282.244 251.106 282.597Z" fill="black"/>
<path d="M251.546 290.928C250.324 292.163 248.962 293.219 247.493 294.069C246.782 294.488 246.055 294.879 245.324 295.253L244.152 295.837C244.011 295.909 243.505 296.223 243.385 296.08C242.964 295.578 242.132 296.251 242.513 296.818C243.119 297.738 244.016 297.281 244.793 296.879C245.68 296.41 246.561 295.937 247.428 295.419C249.189 294.43 250.789 293.126 252.163 291.562C252.227 291.473 252.259 291.361 252.253 291.248C252.247 291.134 252.203 291.027 252.13 290.947C252.057 290.867 251.96 290.819 251.857 290.812C251.754 290.806 251.652 290.841 251.571 290.911L251.546 290.928Z" fill="black"/>
<path d="M229.459 282.024C229.484 275.098 229.749 268.161 230.306 261.262C230.556 258.16 230.807 255.025 231.308 251.956C231.728 249.35 232.385 246.716 233.727 244.49C235.13 242.176 237.28 240.782 239.629 239.894C242.36 238.864 245.23 238.208 248.041 237.481C254.01 235.942 260.022 234.623 266.077 233.525C278.235 231.307 290.513 229.974 302.83 229.536C304.363 229.486 305.896 229.431 307.425 229.42C308.762 229.42 310.165 229.469 311.392 230.12C313.276 231.122 314.323 233.2 314.899 235.327C315.464 237.738 315.744 240.22 315.731 242.71C315.826 246.203 315.821 249.702 315.731 253.179C315.415 266.998 314.023 280.768 312.87 294.504C311.708 308.375 310.554 322.243 309.409 336.11C308.968 341.466 308.552 347.565 304.529 351.274C302.615 353.031 300.21 354.029 297.87 354.866C295.035 355.874 292.159 356.767 289.308 357.704L252.921 369.721C248.632 371.132 244.118 372.823 239.569 372.201C237.592 371.971 235.719 371.109 234.183 369.721C232.304 367.823 230.984 365.349 230.396 362.619C229.783 359.746 229.484 356.803 229.504 353.852C229.424 350.408 229.504 346.965 229.574 343.521C229.719 337.135 229.79 330.754 230.025 324.368C230.135 321.343 230.245 318.307 230.411 315.288C230.461 314.312 229.083 314.318 229.033 315.288C228.699 321.767 228.457 328.251 228.307 334.738C228.171 341.543 227.886 348.386 228.116 355.191C228.307 360.855 229.163 367.313 233.442 371.071C236.914 374.14 241.458 374.267 245.676 373.457C248.048 372.94 250.39 372.27 252.69 371.451L262.124 368.344L280.861 362.167L290.165 359.098C293.086 358.133 296.032 357.241 298.918 356.177C301.342 355.285 303.742 354.161 305.696 352.32C307.589 350.431 308.949 347.983 309.614 345.268C310.276 342.522 310.691 339.711 310.851 336.876C311.155 333.338 311.459 329.799 311.763 326.258C312.381 319.091 312.984 311.928 313.572 304.769C314.769 290.537 316.182 276.299 316.949 262.028C317.389 254.98 317.48 247.912 317.219 240.853C317.009 236.34 316.092 230.533 311.858 228.505C310.516 227.929 309.08 227.663 307.64 227.723C306.072 227.723 304.504 227.783 302.936 227.833C299.789 227.943 296.643 228.112 293.497 228.34C287.171 228.792 280.861 229.484 274.569 230.417C268.276 231.35 262.039 232.513 255.857 233.905C252.77 234.599 249.696 235.352 246.633 236.164C243.823 236.908 240.907 237.558 238.221 238.748C235.813 239.731 233.749 241.529 232.33 243.884C230.987 246.192 230.326 248.903 229.92 251.598C229.449 254.716 229.233 257.89 229.008 261.036C228.761 264.559 228.594 268.087 228.507 271.621C228.412 275.103 228.432 278.591 228.507 282.09C228.507 282.227 228.557 282.359 228.645 282.456C228.733 282.553 228.853 282.608 228.978 282.608C229.103 282.608 229.223 282.553 229.311 282.456C229.399 282.359 229.449 282.227 229.449 282.09L229.459 282.024Z" fill="#FF9807"/>
<path d="M203.241 308.896C204.127 310.901 205.255 312.765 206.593 314.439C207.91 316.175 209.347 317.796 210.892 319.288C212.438 320.841 214.08 322.276 215.807 323.58C216.669 324.218 217.593 324.749 218.562 325.162C219.434 325.525 220.862 326.148 221.723 325.586C221.821 325.522 221.904 325.434 221.967 325.329C222.029 325.224 222.069 325.106 222.083 324.981C222.098 324.857 222.087 324.731 222.05 324.612C222.014 324.494 221.953 324.386 221.874 324.297C221.484 323.954 221.009 323.75 220.511 323.712C220.014 323.589 219.525 323.429 219.048 323.233C218.163 322.838 217.322 322.332 216.543 321.723C214.915 320.506 213.357 319.128 211.844 317.751C210.361 316.419 208.949 314.995 207.615 313.486C206.295 311.895 205.067 310.215 203.938 308.455C203.881 308.364 203.794 308.3 203.696 308.275C203.597 308.251 203.494 308.268 203.407 308.324C203.32 308.38 203.255 308.47 203.225 308.576C203.195 308.682 203.203 308.796 203.246 308.896H203.241Z" fill="#FF9807"/>
<path d="M175.349 266.254C177.413 273.076 179.407 279.93 181.461 286.757L184.578 297.127C185.555 300.383 186.491 303.645 187.173 306.99C187.959 310.8 188.14 314.732 187.709 318.61C187.624 319.354 188.711 319.492 188.881 318.787C190.414 311.993 188.38 304.758 186.376 298.35C184.222 291.435 182.017 284.536 179.813 277.638C178.577 273.77 177.348 269.898 176.126 266.023C175.96 265.472 175.194 265.714 175.359 266.254H175.349Z" fill="black"/>
<path d="M57.0238 395.618C45.5409 414.088 34.4187 432.816 23.1612 451.434C19.9815 456.702 16.8085 461.966 13.6422 467.226C13.545 467.41 13.5179 467.63 13.5667 467.836C13.6154 468.042 13.7362 468.219 13.9027 468.328C31.4377 477.75 49.3434 486.428 67.8955 493.162C86.2772 499.834 105.29 504.573 124.629 506.138C143.762 507.686 163.241 506.088 181.743 500.303C185.886 499.008 190.26 497.724 194.072 495.421C197.745 493.217 200.164 489.668 200.796 485.073C201.437 480.378 200.691 475.546 200.245 470.868C199.734 465.49 199.219 460.116 198.702 454.746C196.617 433.257 194.488 411.713 192.444 390.191C192.197 387.619 191.953 385.048 191.713 382.477C191.617 381.463 190.17 381.452 190.265 382.477C192.269 403.657 194.338 424.821 196.377 445.996C197.379 456.316 198.451 466.636 199.318 476.973C199.694 481.453 199.909 486.544 197.314 490.351C194.859 493.983 190.595 495.487 186.858 496.837C168.762 503.377 149.579 505.653 130.596 504.766C111.613 503.879 92.7551 499.807 74.5487 493.674C56.1671 487.508 38.3816 479.348 21.0169 470.323C18.8826 469.221 16.7534 468.1 14.6292 466.962L14.8947 468.064C26.0703 449.403 37.2276 430.72 48.3665 412.016C51.5161 406.737 54.639 401.437 57.7352 396.114C58.0158 395.624 57.3294 395.194 57.0388 395.662L57.0238 395.618Z" fill="black"/>
<path d="M143.13 287.782C144.162 289.209 145.324 290.537 146.351 291.964C147.407 293.415 148.332 294.976 149.112 296.625C150.67 299.997 151.617 303.7 152.559 307.32C154.498 314.67 155.829 322.198 156.537 329.812C156.73 331.939 156.882 334.068 156.992 336.198C157.098 338.402 157.073 340.562 157.188 342.739C157.188 342.927 157.256 343.108 157.377 343.241C157.498 343.374 157.663 343.449 157.834 343.449C158.006 343.449 158.17 343.374 158.291 343.241C158.412 343.108 158.48 342.927 158.48 342.739C158.581 340.744 158.48 338.716 158.395 336.722C158.31 334.727 158.2 332.865 158.04 330.986C157.709 327.096 157.218 323.222 156.572 319.387C155.925 315.552 155.109 311.701 154.137 307.926C153.243 304.215 152.07 300.591 150.63 297.094C148.92 293.313 146.568 289.928 143.701 287.121C143.619 287.049 143.516 287.013 143.411 287.019C143.306 287.026 143.207 287.075 143.133 287.157C143.059 287.239 143.016 287.348 143.01 287.463C143.005 287.579 143.039 287.692 143.105 287.782H143.13Z" fill="#FF9807"/>
<path d="M158.992 415.818C157.594 428.854 156.287 441.896 154.984 454.939L154.483 459.865C154.378 460.967 153.952 462.548 154.628 463.523C155.129 464.223 156.242 464.251 156.332 463.204C156.387 462.559 155.876 461.611 155.194 462.058C154.774 462.333 154.804 462.967 154.759 463.424C154.673 464.284 154.588 465.143 154.508 466.003C154.361 467.59 154.226 469.177 154.102 470.763C153.848 474.033 153.646 477.304 153.496 480.577C153.331 484.213 153.251 487.855 153.231 491.498C153.211 495.14 153.135 498.892 153.396 502.556C153.408 502.681 153.461 502.796 153.546 502.88C153.63 502.964 153.74 503.01 153.854 503.01C153.968 503.01 154.078 502.964 154.163 502.88C154.247 502.796 154.301 502.681 154.313 502.556C154.378 499.691 154.273 496.82 154.313 493.955C154.353 491.09 154.393 488.219 154.493 485.354C154.688 479.618 154.994 473.893 155.495 468.179C155.622 466.732 155.757 465.283 155.901 463.832C155.933 463.65 155.949 463.466 155.951 463.281C155.916 462.917 156.202 463.011 155.58 463.005C154.759 463.005 155.45 463.308 155.535 462.686C155.535 462.537 155.45 462.278 155.45 462.135C155.461 461.792 155.489 461.449 155.535 461.11L156.367 452.492C156.918 446.745 157.484 441.004 158.015 435.257C158.623 428.785 159.216 422.308 159.794 415.829C159.844 415.278 159.057 415.278 158.997 415.829L158.992 415.818Z" fill="#FF9807"/>
<path d="M197.895 490.836C195.641 494.142 191.928 495.795 188.376 497.151C159.819 507.829 128.597 507.873 99.0331 501.41C73.3268 495.773 48.6976 485.376 24.8851 473.215C19.9953 483.602 14.835 497.751 12.5254 514.083H200.25L197.895 490.836Z" fill="black"/>
<path d="M146.577 258.254C149.399 256.338 152.056 254.141 154.513 251.691C155.728 250.483 156.889 249.212 157.995 247.878C159.152 246.538 160.217 245.105 161.181 243.592C161.462 243.118 160.8 242.539 160.46 242.98C159.392 244.352 158.416 245.796 157.318 247.135C156.221 248.473 155.119 249.697 153.947 250.903C151.546 253.364 148.945 255.578 146.176 257.515C145.745 257.818 146.141 258.573 146.577 258.276V258.254Z" fill="white"/>
<path d="M152.023 263.279C153.987 261.618 155.764 259.703 157.313 257.576C157.393 257.483 157.438 257.36 157.438 257.232C157.438 257.104 157.393 256.98 157.313 256.887C157.23 256.798 157.119 256.749 157.003 256.749C156.887 256.749 156.775 256.798 156.692 256.887C155.184 259.011 153.448 260.926 151.522 262.59C151.166 262.893 151.642 263.582 152.023 263.279Z" fill="white"/>
<path d="M42.3693 508.65C48.1854 506.627 53.2064 502.496 56.6127 496.93C57.0435 496.225 56.0065 495.558 55.5806 496.264C52.3684 501.596 47.6122 505.578 42.0837 507.565C41.4574 507.785 41.723 508.871 42.3542 508.667L42.3693 508.65Z" fill="#FF9807"/>
<path d="M191.227 384.703C194.539 394.511 201.628 403.839 211.187 406.429C215.989 407.735 221.061 407.024 225.41 404.434C229.97 401.723 233.467 397.188 236.072 392.312C237.539 389.551 238.759 386.639 239.714 383.617C240.676 380.631 241.628 377.407 241.808 374.25C241.853 373.479 240.806 373.385 240.626 374.074C239.884 376.658 239.433 379.325 238.622 381.898C237.832 384.505 236.85 387.037 235.686 389.469C233.416 394.202 230.355 398.781 226.267 401.789C222.435 404.667 217.753 405.839 213.166 405.068C208.542 404.236 204.343 401.602 200.896 398.18C197.039 394.351 194.138 389.507 191.949 384.35C191.758 383.893 191.037 384.218 191.202 384.697L191.227 384.703Z" fill="black"/>
<path d="M207.148 371.925C207.233 370.272 207.363 368.652 207.554 367.027C207.744 365.401 208.055 363.776 208.3 362.15C208.41 361.379 207.363 361.048 207.218 361.82C206.935 363.48 206.734 365.155 206.617 366.839C206.461 368.531 206.366 370.222 206.326 371.925C206.326 372.509 207.113 372.476 207.148 371.925Z" fill="black"/>
<path d="M328.766 103.538H302.404C300.633 103.538 299.197 105.117 299.197 107.065V136.058C299.197 138.006 300.633 139.585 302.404 139.585H328.766C330.537 139.585 331.973 138.006 331.973 136.058V107.065C331.973 105.117 330.537 103.538 328.766 103.538Z" fill="black"/>
<path d="M328.766 138.301H304.141C302.894 138.301 301.321 138.577 300.609 137.133C300.108 136.141 300.354 134.521 300.354 133.436V109.649C300.354 108.547 300.103 106.817 300.69 105.836C301.471 104.547 302.989 104.822 304.197 104.822H325.78C326.812 104.822 327.884 104.729 328.921 104.822C329.442 104.879 329.924 105.149 330.272 105.579C330.62 106.008 330.808 106.567 330.8 107.142V108.47V123.975C330.8 127.986 330.865 132.009 330.8 136.02C330.804 136.624 330.59 137.204 330.207 137.636C329.823 138.067 329.299 138.314 328.751 138.323C327.248 138.367 327.248 140.918 328.751 140.874C329.831 140.857 330.868 140.406 331.667 139.607C332.466 138.807 332.972 137.714 333.089 136.532C333.109 136.101 333.109 135.669 333.089 135.237V111.39C333.089 109.969 333.114 108.542 333.089 107.12C333.092 106.234 332.875 105.363 332.461 104.603C332.046 103.843 331.451 103.221 330.739 102.806C329.974 102.41 329.134 102.221 328.29 102.255H315.128C310.95 102.255 306.777 102.255 302.603 102.255C302.001 102.237 301.402 102.354 300.841 102.599C300.281 102.843 299.771 103.209 299.343 103.675C298.915 104.142 298.577 104.699 298.349 105.312C298.122 105.926 298.01 106.584 298.019 107.247V112.118V135.546C297.988 136.316 298.091 137.084 298.325 137.811C298.655 138.71 299.221 139.481 299.951 140.024C300.681 140.568 301.541 140.86 302.423 140.863C306.241 140.94 310.063 140.863 313.881 140.863H328.746C330.254 140.858 330.259 138.301 328.766 138.301Z" fill="black"/>
<path d="M323.305 103.538H296.943C295.172 103.538 293.736 105.117 293.736 107.065V136.058C293.736 138.006 295.172 139.585 296.943 139.585H323.305C325.076 139.585 326.512 138.006 326.512 136.058V107.065C326.512 105.117 325.076 103.538 323.305 103.538Z" fill="#FF9807"/>
<path d="M323.301 138.301H298.682C297.434 138.301 295.856 138.576 295.145 137.133C294.644 136.141 294.894 134.521 294.894 133.436V109.649C294.894 108.547 294.639 106.817 295.23 105.836C296.011 104.547 297.529 104.822 298.737 104.822H320.325C321.357 104.822 322.429 104.729 323.461 104.822C323.982 104.878 324.465 105.147 324.814 105.577C325.162 106.007 325.35 106.566 325.34 107.142V108.47V123.975C325.34 127.986 325.41 132.009 325.34 136.02C325.345 136.624 325.132 137.206 324.748 137.637C324.364 138.069 323.84 138.316 323.291 138.323C321.788 138.367 321.788 140.918 323.291 140.874C324.372 140.859 325.41 140.409 326.21 139.609C327.009 138.809 327.514 137.714 327.629 136.532C327.662 136.102 327.672 135.669 327.659 135.237V111.39C327.659 109.969 327.659 108.541 327.659 107.12C327.661 106.234 327.443 105.364 327.029 104.604C326.615 103.844 326.021 103.222 325.31 102.806C324.545 102.41 323.705 102.222 322.86 102.255H309.684C305.51 102.255 301.337 102.255 297.159 102.255C296.556 102.237 295.956 102.354 295.396 102.598C294.835 102.843 294.325 103.209 293.897 103.675C293.468 104.141 293.13 104.698 292.901 105.312C292.673 105.926 292.56 106.584 292.569 107.247V112.117V135.546C292.54 136.316 292.645 137.085 292.88 137.811C293.21 138.71 293.776 139.481 294.506 140.024C295.236 140.568 296.097 140.86 296.978 140.863C300.791 140.94 304.613 140.863 308.431 140.863H323.296C324.794 140.858 324.794 138.301 323.301 138.301Z" fill="#FF9807"/>
<path d="M323.301 138.301H298.682C297.434 138.301 295.856 138.576 295.145 137.133C294.644 136.141 294.894 134.521 294.894 133.436V109.649C294.894 108.547 294.639 106.817 295.23 105.836C296.011 104.547 297.529 104.822 298.737 104.822H320.325C321.357 104.822 322.429 104.729 323.461 104.822C323.982 104.878 324.465 105.147 324.814 105.577C325.162 106.007 325.35 106.566 325.34 107.142V108.47V123.975C325.34 127.986 325.41 132.009 325.34 136.02C325.345 136.624 325.132 137.206 324.748 137.637C324.364 138.069 323.84 138.316 323.291 138.323C321.788 138.367 321.788 140.918 323.291 140.874C324.372 140.859 325.41 140.409 326.21 139.609C327.009 138.809 327.514 137.714 327.629 136.532C327.662 136.102 327.672 135.669 327.659 135.237V111.39C327.659 109.969 327.659 108.541 327.659 107.12C327.661 106.234 327.443 105.364 327.029 104.604C326.615 103.844 326.021 103.222 325.31 102.806C324.545 102.41 323.705 102.222 322.86 102.255H309.684C305.51 102.255 301.337 102.255 297.159 102.255C296.556 102.237 295.956 102.354 295.396 102.598C294.835 102.843 294.325 103.209 293.897 103.675C293.468 104.141 293.13 104.698 292.901 105.312C292.673 105.926 292.56 106.584 292.569 107.247V112.117V135.546C292.54 136.316 292.645 137.085 292.88 137.811C293.21 138.71 293.776 139.481 294.506 140.024C295.236 140.568 296.097 140.86 296.978 140.863C300.791 140.94 304.613 140.863 308.431 140.863H323.296C324.794 140.858 324.794 138.301 323.301 138.301Z" fill="black"/>
<path d="M315.88 112.569C315.469 113.12 314.943 113.539 314.502 114.062C314.061 114.586 313.671 115.164 313.27 115.715C312.423 116.895 311.656 118.134 310.875 119.363C310.093 120.592 309.432 121.716 308.771 122.928C308.425 123.551 308.089 124.179 307.769 124.807L307.268 125.749L307.017 126.218C306.802 126.57 306.902 126.46 307.313 125.881L308.44 125.545C308.714 125.555 308.977 125.666 309.187 125.859C309.292 125.953 309.302 125.953 309.187 125.859C309.074 125.697 308.944 125.549 308.801 125.419C308.535 125.105 308.265 124.796 307.994 124.487C307.323 123.716 306.692 122.757 305.7 122.515C304.056 122.118 302.939 123.578 303.195 125.27C303.355 126.427 304.517 127.435 305.199 128.273C305.88 129.11 306.596 130.113 307.669 130.35C309.242 130.692 310.279 129.689 311.045 128.317L312.608 125.518C313.61 123.688 314.522 121.782 315.419 119.876C315.88 118.895 316.291 117.903 316.697 116.895C316.902 116.382 317.077 115.864 317.243 115.335C317.408 114.806 317.483 114.233 317.684 113.682C318.094 112.58 316.551 111.655 315.89 112.531L315.88 112.569Z" fill="white"/>
<path d="M442.088 121.137C429.73 121.057 417.38 120.979 405.039 120.906C392.689 120.823 380.34 120.834 367.965 120.845C361.034 120.845 354.107 120.877 347.183 120.939C347.033 120.939 346.889 121.005 346.783 121.121C346.677 121.238 346.617 121.396 346.617 121.562C346.617 121.727 346.677 121.885 346.783 122.002C346.889 122.119 347.033 122.184 347.183 122.184C359.533 122.294 371.883 122.278 384.257 122.267C396.632 122.256 408.957 122.184 421.331 122.113L442.108 121.98C442.202 121.969 442.289 121.919 442.352 121.841C442.415 121.764 442.45 121.663 442.45 121.559C442.45 121.455 442.415 121.354 442.352 121.276C442.289 121.199 442.202 121.149 442.108 121.137H442.088Z" fill="black"/>
<path d="M442.088 128.884C429.73 128.804 417.38 128.726 405.039 128.653C392.689 128.57 380.34 128.581 367.965 128.592C361.034 128.592 354.107 128.624 347.183 128.686C347.033 128.686 346.889 128.752 346.783 128.868C346.677 128.985 346.617 129.144 346.617 129.309C346.617 129.474 346.677 129.632 346.783 129.749C346.889 129.866 347.033 129.931 347.183 129.931C359.533 130.042 371.883 130.025 384.257 130.014C396.632 130.003 408.957 129.931 421.331 129.86L442.108 129.727C442.202 129.716 442.289 129.666 442.352 129.588C442.415 129.511 442.45 129.41 442.45 129.306C442.45 129.202 442.415 129.101 442.352 129.024C442.289 128.946 442.202 128.896 442.108 128.884H442.088Z" fill="black"/>
<path d="M388.325 136.648C377.649 136.488 366.978 136.339 356.306 136.356C353.27 136.356 350.244 136.384 347.208 136.45C347.068 136.464 346.938 136.536 346.843 136.65C346.748 136.765 346.695 136.915 346.695 137.07C346.695 137.225 346.748 137.374 346.843 137.489C346.938 137.603 347.068 137.675 347.208 137.689C357.88 137.91 368.556 137.772 379.227 137.623L388.325 137.491C388.419 137.479 388.506 137.43 388.569 137.352C388.632 137.274 388.667 137.174 388.667 137.07C388.667 136.965 388.632 136.865 388.569 136.787C388.506 136.709 388.419 136.66 388.325 136.648Z" fill="black"/>
<path d="M347.209 103.538H388.321V111.126H347.209V103.538Z" fill="#FF9807"/>
<path d="M388.325 109.853H367.759H347.192L348.355 111.126V103.538L347.192 104.811H388.325L387.162 103.538V111.126C387.162 112.779 389.482 112.779 389.482 111.126V103.538C389.478 103.202 389.355 102.88 389.139 102.641C388.923 102.403 388.631 102.266 388.325 102.26H347.192C346.886 102.266 346.594 102.403 346.378 102.641C346.162 102.88 346.039 103.202 346.035 103.538V111.126C346.038 111.463 346.16 111.786 346.377 112.025C346.593 112.264 346.886 112.4 347.192 112.404H388.325C389.813 112.404 389.818 109.853 388.325 109.853Z" fill="#FF9807"/>
<path d="M328.766 170.551H302.404C300.633 170.551 299.197 172.13 299.197 174.077V203.071C299.197 205.019 300.633 206.597 302.404 206.597H328.766C330.537 206.597 331.973 205.019 331.973 203.071V174.077C331.973 172.13 330.537 170.551 328.766 170.551Z" fill="black"/>
<path d="M328.766 205.319H304.142C302.894 205.319 301.321 205.595 300.609 204.156C300.108 203.159 300.354 201.539 300.354 200.454V176.651C300.354 175.549 300.103 173.818 300.69 172.838C301.471 171.548 302.989 171.824 304.197 171.824H325.78C326.812 171.824 327.884 171.73 328.921 171.824C329.442 171.88 329.924 172.151 330.272 172.58C330.62 173.01 330.809 173.568 330.8 174.144V175.471V190.966C330.8 194.977 330.865 198.999 330.8 203.01C330.804 203.614 330.591 204.195 330.207 204.626C329.823 205.058 329.299 205.305 328.751 205.314C327.248 205.358 327.248 207.909 328.751 207.865C329.831 207.848 330.868 207.397 331.667 206.597C332.466 205.797 332.972 204.704 333.089 203.523C333.109 203.092 333.109 202.659 333.089 202.228V178.403C333.089 176.981 333.114 175.554 333.089 174.133C333.092 173.246 332.875 172.376 332.461 171.616C332.046 170.855 331.451 170.234 330.74 169.818C329.974 169.423 329.135 169.234 328.29 169.267H315.128C310.95 169.267 306.777 169.267 302.603 169.267C302.001 169.25 301.402 169.367 300.841 169.611C300.281 169.855 299.772 170.222 299.343 170.688C298.915 171.154 298.577 171.711 298.349 172.325C298.122 172.939 298.01 173.597 298.019 174.259V179.13V202.548C297.987 203.317 298.091 204.086 298.325 204.812C298.654 205.712 299.22 206.483 299.95 207.027C300.68 207.571 301.541 207.862 302.423 207.865C306.241 207.942 310.063 207.865 313.881 207.865H328.746C330.254 207.87 330.259 205.319 328.766 205.319Z" fill="black"/>
<path d="M323.305 170.551H296.943C295.172 170.551 293.736 172.13 293.736 174.077V203.071C293.736 205.019 295.172 206.597 296.943 206.597H323.305C325.076 206.597 326.512 205.019 326.512 203.071V174.077C326.512 172.13 325.076 170.551 323.305 170.551Z" fill="#FF9807"/>
<path d="M323.301 205.319H298.682C297.434 205.319 295.856 205.595 295.145 204.157C294.644 203.159 294.894 201.539 294.894 200.454V176.651C294.894 175.549 294.639 173.818 295.23 172.838C296.011 171.548 297.529 171.824 298.737 171.824H320.325C321.357 171.824 322.429 171.73 323.461 171.824C323.982 171.879 324.465 172.149 324.814 172.579C325.162 173.009 325.35 173.568 325.34 174.144V175.471V190.966C325.34 194.977 325.41 198.999 325.34 203.01C325.345 203.615 325.133 204.196 324.748 204.628C324.364 205.06 323.84 205.306 323.291 205.314C321.788 205.358 321.788 207.909 323.291 207.865C324.372 207.85 325.41 207.4 326.21 206.6C327.009 205.8 327.514 204.705 327.63 203.523C327.661 203.088 327.669 202.652 327.655 202.217V178.403C327.655 176.981 327.655 175.554 327.655 174.133C327.656 173.247 327.438 172.377 327.024 171.617C326.61 170.856 326.016 170.235 325.305 169.818C324.54 169.423 323.7 169.234 322.855 169.267H309.684C305.51 169.267 301.337 169.267 297.159 169.267C296.556 169.25 295.956 169.367 295.396 169.611C294.835 169.855 294.325 170.221 293.897 170.688C293.468 171.154 293.13 171.711 292.902 172.324C292.674 172.938 292.561 173.596 292.57 174.259V179.13V202.548C292.539 203.317 292.645 204.086 292.88 204.812C293.209 205.712 293.775 206.483 294.505 207.027C295.235 207.571 296.097 207.862 296.978 207.865C300.791 207.942 304.614 207.865 308.431 207.865H323.296C324.794 207.87 324.794 205.319 323.301 205.319Z" fill="#FF9807"/>
<path d="M315.88 179.582C315.469 180.133 314.943 180.552 314.502 181.075C314.061 181.599 313.671 182.177 313.27 182.728C312.423 183.907 311.656 185.147 310.875 186.381C310.093 187.616 309.432 188.729 308.771 189.941C308.425 190.563 308.089 191.192 307.769 191.82L307.268 192.762L307.017 193.23C306.802 193.583 306.902 193.473 307.313 192.894L308.44 192.558C308.714 192.568 308.977 192.679 309.187 192.872C309.292 192.966 309.302 192.966 309.187 192.872C309.074 192.709 308.944 192.561 308.801 192.431C308.535 192.117 308.265 191.809 307.994 191.5C307.323 190.729 306.692 189.77 305.7 189.528C304.056 189.131 302.939 190.591 303.195 192.283C303.355 193.44 304.517 194.448 305.199 195.285C305.88 196.123 306.596 197.126 307.669 197.363C309.242 197.704 310.279 196.702 311.045 195.33L312.608 192.53C313.61 190.707 314.522 188.795 315.419 186.888C315.88 185.913 316.291 184.916 316.697 183.907C316.902 183.395 317.077 182.877 317.243 182.348C317.408 181.819 317.483 181.246 317.684 180.695C318.094 179.593 316.551 178.667 315.89 179.543L315.88 179.582Z" fill="white"/>
<path d="M442.088 188.15C429.73 188.065 417.38 187.988 405.039 187.918C392.689 187.836 380.34 187.852 367.965 187.858C361.034 187.858 354.107 187.889 347.183 187.952C347.033 187.952 346.889 188.017 346.783 188.134C346.677 188.251 346.617 188.409 346.617 188.574C346.617 188.739 346.677 188.898 346.783 189.014C346.889 189.131 347.033 189.197 347.183 189.197C359.533 189.307 371.883 189.29 384.257 189.279C396.632 189.268 408.957 189.202 421.331 189.125L442.108 188.993C442.202 188.981 442.289 188.932 442.352 188.854C442.415 188.776 442.45 188.676 442.45 188.571C442.45 188.467 442.415 188.367 442.352 188.289C442.289 188.211 442.202 188.162 442.108 188.15H442.088Z" fill="black"/>
<path d="M442.088 195.897L405.039 195.666C392.689 195.583 380.34 195.594 367.965 195.605C361.034 195.605 354.107 195.636 347.183 195.699C347.033 195.699 346.889 195.764 346.783 195.881C346.677 195.998 346.617 196.156 346.617 196.321C346.617 196.486 346.677 196.645 346.783 196.762C346.889 196.878 347.033 196.944 347.183 196.944C359.533 197.054 371.883 197.038 384.257 197.027C396.632 197.016 408.957 196.949 421.331 196.872L442.108 196.74C442.202 196.728 442.289 196.679 442.352 196.601C442.415 196.523 442.45 196.423 442.45 196.319C442.45 196.214 442.415 196.114 442.352 196.036C442.289 195.958 442.202 195.909 442.108 195.897H442.088Z" fill="black"/>
<path d="M388.326 203.644C377.649 203.484 366.978 203.336 356.307 203.352C353.271 203.352 350.245 203.38 347.209 203.446C347.059 203.446 346.915 203.511 346.808 203.628C346.702 203.745 346.643 203.903 346.643 204.068C346.643 204.234 346.702 204.392 346.808 204.509C346.915 204.625 347.059 204.691 347.209 204.691C357.88 204.906 368.556 204.768 379.228 204.619C382.257 204.575 385.29 204.531 388.326 204.487C388.42 204.475 388.507 204.426 388.57 204.348C388.633 204.27 388.668 204.17 388.668 204.066C388.668 203.961 388.633 203.861 388.57 203.783C388.507 203.705 388.42 203.656 388.326 203.644Z" fill="black"/>
<path d="M347.209 170.551H388.321V178.138H347.209V170.551Z" fill="#FF9807"/>
<path d="M388.325 176.871H347.192L348.355 178.144V170.551L347.192 171.824H388.325L387.162 170.551V178.138C387.162 179.791 389.482 179.791 389.482 178.138V170.551C389.478 170.214 389.355 169.892 389.139 169.654C388.923 169.415 388.631 169.278 388.325 169.273H347.192C346.886 169.278 346.594 169.415 346.378 169.654C346.162 169.892 346.039 170.214 346.035 170.551V178.138C346.039 178.475 346.162 178.796 346.378 179.034C346.595 179.271 346.887 179.407 347.192 179.411H388.325C389.813 179.411 389.818 176.871 388.325 176.871Z" fill="#FF9807"/>
<path d="M375.153 237.564H348.79C347.02 237.564 345.584 239.142 345.584 241.09V270.084C345.584 272.031 347.02 273.61 348.79 273.61H375.153C376.924 273.61 378.359 272.031 378.359 270.084V241.09C378.359 239.142 376.924 237.564 375.153 237.564Z" fill="black"/>
<path d="M375.154 272.332H350.53C349.282 272.332 347.709 272.607 347.023 271.169C346.522 270.172 346.767 268.552 346.767 267.466V243.663C346.767 242.561 346.517 240.831 347.103 239.85C347.884 238.561 349.402 238.836 350.61 238.836H372.193C373.225 238.836 374.302 238.743 375.334 238.836C375.855 238.893 376.337 239.163 376.685 239.593C377.033 240.023 377.222 240.581 377.213 241.156V242.484V257.978C377.213 261.989 377.278 266.012 377.213 270.029C377.216 270.631 377.002 271.211 376.618 271.641C376.234 272.071 375.712 272.317 375.164 272.326C373.661 272.37 373.661 274.921 375.164 274.877C376.244 274.86 377.281 274.409 378.08 273.61C378.879 272.81 379.385 271.717 379.502 270.535C379.523 270.104 379.523 269.672 379.502 269.241V245.415C379.502 243.994 379.527 242.567 379.502 241.145C379.505 240.259 379.288 239.388 378.874 238.628C378.46 237.868 377.865 237.246 377.153 236.831C376.388 236.435 375.548 236.246 374.703 236.28H361.537C357.363 236.28 353.19 236.28 349.012 236.28C348.409 236.263 347.809 236.38 347.248 236.624C346.688 236.869 346.178 237.236 345.75 237.702C345.321 238.169 344.983 238.727 344.756 239.341C344.529 239.956 344.417 240.614 344.427 241.277V246.143V269.56C344.396 270.331 344.5 271.102 344.733 271.83C345.063 272.729 345.629 273.499 346.359 274.042C347.089 274.585 347.95 274.875 348.831 274.877C352.649 274.954 356.471 274.877 360.289 274.877H375.154C376.642 274.883 376.647 272.332 375.154 272.332Z" fill="black"/>
<path d="M369.692 237.564H343.329C341.559 237.564 340.123 239.142 340.123 241.09V270.084C340.123 272.031 341.559 273.61 343.329 273.61H369.692C371.463 273.61 372.898 272.031 372.898 270.084V241.09C372.898 239.142 371.463 237.564 369.692 237.564Z" fill="#FF9807"/>
<path d="M369.687 272.332H345.068C343.821 272.332 342.243 272.607 341.561 271.169C341.06 270.172 341.306 268.552 341.306 267.466V243.663C341.306 242.561 341.05 240.831 341.641 239.85C342.423 238.561 343.941 238.836 345.148 238.836H366.732C367.764 238.836 368.836 238.743 369.868 238.836C370.389 238.892 370.872 239.162 371.22 239.592C371.569 240.022 371.757 240.58 371.747 241.156V242.484V257.978C371.747 261.989 371.817 266.012 371.747 270.029C371.751 270.632 371.537 271.212 371.153 271.643C370.769 272.073 370.246 272.319 369.697 272.326C368.194 272.37 368.194 274.921 369.697 274.877C370.778 274.863 371.817 274.412 372.616 273.612C373.416 272.812 373.921 271.718 374.036 270.535C374.069 270.105 374.079 269.673 374.066 269.241V245.415C374.066 243.994 374.066 242.567 374.066 241.145C374.069 240.259 373.852 239.389 373.437 238.628C373.023 237.868 372.428 237.246 371.716 236.831C370.951 236.436 370.111 236.247 369.267 236.28H356.07C351.897 236.28 347.724 236.28 343.545 236.28C342.942 236.263 342.342 236.38 341.781 236.624C341.22 236.869 340.71 237.235 340.282 237.702C339.853 238.169 339.514 238.726 339.287 239.341C339.059 239.955 338.946 240.614 338.956 241.277V246.143V269.56C338.926 270.332 339.032 271.103 339.267 271.83C339.597 272.729 340.163 273.499 340.893 274.042C341.623 274.585 342.484 274.875 343.365 274.877C347.177 274.954 351.005 274.877 354.818 274.877H369.687C371.18 274.883 371.185 272.332 369.687 272.332Z" fill="#FF9807"/>
<path d="M362.268 246.595C361.857 247.146 361.331 247.564 360.89 248.088C360.449 248.611 360.059 249.19 359.658 249.741C358.811 250.92 358.045 252.16 357.263 253.394C356.482 254.628 355.82 255.741 355.159 256.953C354.813 257.576 354.478 258.204 354.157 258.832L353.656 259.774L353.4 260.243C353.185 260.595 353.285 260.485 353.701 259.907L354.823 259.571C355.097 259.581 355.36 259.691 355.57 259.885C355.675 259.978 355.685 259.984 355.595 259.885C355.482 259.722 355.353 259.574 355.209 259.444C354.943 259.13 354.673 258.821 354.402 258.513C353.736 257.741 353.1 256.783 352.108 256.54C350.465 256.143 349.347 257.604 349.603 259.295C349.758 260.452 350.92 261.461 351.607 262.298C352.293 263.136 353.005 264.138 354.077 264.375C355.65 264.717 356.692 263.72 357.453 262.342L359.017 259.543C360.019 257.719 360.93 255.807 361.827 253.901C362.288 252.926 362.699 251.928 363.105 250.92C363.31 250.407 363.486 249.89 363.651 249.361C363.816 248.832 363.891 248.259 364.092 247.708C364.503 246.606 362.96 245.68 362.298 246.556L362.268 246.595Z" fill="white"/>
<path d="M488.475 255.163L451.401 254.931C439.052 254.854 426.702 254.865 414.352 254.871C407.422 254.871 400.496 254.902 393.576 254.964C393.426 254.964 393.282 255.03 393.176 255.147C393.069 255.263 393.01 255.422 393.01 255.587C393.01 255.752 393.069 255.91 393.176 256.027C393.282 256.144 393.426 256.21 393.576 256.21C405.926 256.32 418.275 256.303 430.65 256.292C443.025 256.281 455.349 256.215 467.699 256.138L488.475 256.011C488.578 256.011 488.676 255.966 488.748 255.887C488.82 255.807 488.861 255.699 488.861 255.587C488.861 255.474 488.82 255.366 488.748 255.287C488.676 255.207 488.578 255.163 488.475 255.163Z" fill="black"/>
<path d="M488.475 262.91L451.401 262.678C439.052 262.596 426.702 262.612 414.352 262.618C407.422 262.618 400.496 262.649 393.576 262.711C393.426 262.711 393.282 262.777 393.176 262.894C393.069 263.01 393.01 263.169 393.01 263.334C393.01 263.499 393.069 263.657 393.176 263.774C393.282 263.891 393.426 263.957 393.576 263.957C405.926 264.067 418.275 264.05 430.65 264.039C443.025 264.028 455.349 263.962 467.699 263.885L488.475 263.758C488.578 263.758 488.676 263.714 488.748 263.634C488.82 263.554 488.861 263.446 488.861 263.334C488.861 263.221 488.82 263.114 488.748 263.034C488.676 262.954 488.578 262.91 488.475 262.91Z" fill="black"/>
<path d="M434.713 270.657C424.037 270.497 413.366 270.348 402.694 270.365C399.688 270.365 396.632 270.392 393.601 270.458C393.451 270.458 393.307 270.524 393.201 270.641C393.095 270.757 393.035 270.916 393.035 271.081C393.035 271.246 393.095 271.404 393.201 271.521C393.307 271.638 393.451 271.704 393.601 271.704C404.268 271.918 414.949 271.781 425.615 271.632C428.651 271.588 431.684 271.544 434.713 271.5C434.807 271.488 434.894 271.438 434.957 271.361C435.02 271.283 435.055 271.182 435.055 271.078C435.055 270.974 435.02 270.874 434.957 270.796C434.894 270.718 434.807 270.669 434.713 270.657Z" fill="black"/>
<path d="M393.602 237.564H434.714V245.151H393.602V237.564Z" fill="#FF9807"/>
<path d="M434.712 243.878H393.6L394.757 245.151V237.564L393.6 238.836H434.712L433.55 237.564V245.151C433.55 246.804 435.869 246.804 435.869 245.151V237.564C435.865 237.227 435.742 236.905 435.526 236.666C435.31 236.428 435.018 236.291 434.712 236.285H393.6C393.293 236.29 392.999 236.426 392.782 236.664C392.565 236.903 392.441 237.226 392.438 237.564V245.151C392.443 245.488 392.567 245.809 392.784 246.047C393.001 246.284 393.294 246.419 393.6 246.424H434.712C436.2 246.424 436.205 243.878 434.712 243.878Z" fill="#FF9807"/>
<path d="M375.153 304.576H348.79C347.02 304.576 345.584 306.155 345.584 308.103V337.096C345.584 339.044 347.02 340.623 348.79 340.623H375.153C376.924 340.623 378.359 339.044 378.359 337.096V308.103C378.359 306.155 376.924 304.576 375.153 304.576Z" fill="black"/>
<path d="M375.154 339.344H350.53C349.282 339.344 347.709 339.62 347.023 338.182C346.522 337.184 346.767 335.564 346.767 334.479V310.676C346.767 309.574 346.517 307.844 347.103 306.868C347.884 305.574 349.402 305.849 350.61 305.849H372.193C373.225 305.849 374.302 305.755 375.334 305.849C375.855 305.906 376.337 306.176 376.685 306.605C377.033 307.035 377.222 307.593 377.213 308.169V309.497V324.991C377.213 329.002 377.278 333.024 377.213 337.041C377.216 337.644 377.002 338.223 376.618 338.654C376.234 339.084 375.712 339.33 375.164 339.339C373.661 339.383 373.661 341.934 375.164 341.89C376.244 341.873 377.281 341.422 378.08 340.622C378.879 339.823 379.385 338.729 379.502 337.548C379.523 337.117 379.523 336.685 379.502 336.253V312.417C379.502 310.995 379.527 309.568 379.502 308.147C379.505 307.26 379.288 306.39 378.874 305.63C378.46 304.869 377.865 304.248 377.153 303.832C376.388 303.437 375.548 303.248 374.703 303.281H361.537C357.363 303.281 353.19 303.281 349.012 303.281C348.409 303.264 347.809 303.381 347.248 303.626C346.688 303.87 346.178 304.237 345.75 304.704C345.321 305.171 344.983 305.728 344.756 306.343C344.529 306.957 344.417 307.616 344.427 308.279V313.144V336.562C344.396 337.333 344.5 338.104 344.733 338.832C345.063 339.731 345.629 340.5 346.359 341.043C347.089 341.586 347.95 341.877 348.831 341.879C352.649 341.956 356.471 341.879 360.289 341.879H375.154C376.642 341.895 376.647 339.344 375.154 339.344Z" fill="black"/>
<path d="M369.692 304.576H343.329C341.559 304.576 340.123 306.155 340.123 308.103V337.096C340.123 339.044 341.559 340.623 343.329 340.623H369.692C371.463 340.623 372.898 339.044 372.898 337.096V308.103C372.898 306.155 371.463 304.576 369.692 304.576Z" fill="#FF9807"/>
<path d="M369.687 339.344H345.068C343.821 339.344 342.243 339.62 341.561 338.182C341.06 337.184 341.306 335.564 341.306 334.479V310.676C341.306 309.574 341.05 307.844 341.641 306.868C342.423 305.574 343.941 305.849 345.148 305.849H366.732C367.764 305.849 368.836 305.755 369.868 305.849C370.389 305.906 370.872 306.177 371.219 306.608C371.566 307.039 371.753 307.598 371.742 308.174V309.502V324.996C371.742 329.008 371.812 333.03 371.742 337.047C371.746 337.65 371.532 338.23 371.148 338.661C370.764 339.091 370.241 339.337 369.692 339.344C368.189 339.388 368.189 341.94 369.692 341.895C370.773 341.881 371.812 341.431 372.611 340.631C373.411 339.83 373.916 338.736 374.031 337.554C374.064 337.123 374.074 336.691 374.061 336.259V312.417C374.061 310.995 374.061 309.568 374.061 308.147C374.064 307.26 373.847 306.39 373.432 305.63C373.018 304.869 372.423 304.248 371.711 303.832C370.946 303.437 370.106 303.248 369.262 303.281H356.07C351.897 303.281 347.724 303.281 343.545 303.281C342.942 303.264 342.342 303.381 341.781 303.626C341.22 303.87 340.71 304.237 340.282 304.704C339.853 305.171 339.514 305.728 339.287 306.342C339.059 306.957 338.946 307.616 338.956 308.279V313.144V336.562C338.926 337.333 339.032 338.104 339.267 338.832C339.597 339.731 340.163 340.501 340.893 341.043C341.623 341.586 342.484 341.877 343.365 341.879C347.177 341.956 351.005 341.879 354.818 341.879H369.687C371.18 341.895 371.185 339.344 369.687 339.344Z" fill="#FF9807"/>
<path d="M362.268 313.607C361.857 314.158 361.331 314.582 360.89 315.1C360.449 315.618 360.059 316.202 359.658 316.753C358.811 317.932 358.045 319.172 357.263 320.406C356.482 321.641 355.82 322.759 355.159 323.966C354.813 324.589 354.478 325.217 354.157 325.845L353.656 326.787L353.4 327.255C353.185 327.608 353.285 327.498 353.701 326.919L354.823 326.583C355.097 326.593 355.36 326.704 355.57 326.897C355.675 326.991 355.685 326.996 355.595 326.897C355.481 326.736 355.351 326.588 355.209 326.456C354.943 326.142 354.673 325.834 354.402 325.525C353.736 324.754 353.1 323.795 352.108 323.553C350.465 323.156 349.347 324.616 349.603 326.308C349.758 327.465 350.92 328.473 351.607 329.311C352.293 330.148 353.005 331.151 354.077 331.388C355.65 331.729 356.692 330.732 357.453 329.355L359.017 326.556C360.019 324.732 360.93 322.82 361.827 320.913C362.288 319.938 362.699 318.941 363.105 317.932C363.31 317.42 363.486 316.902 363.651 316.373C363.816 315.844 363.891 315.271 364.092 314.72C364.503 313.618 362.96 312.692 362.298 313.569L362.268 313.607Z" fill="white"/>
<path d="M488.475 322.175L451.401 321.944C439.052 321.867 426.702 321.878 414.352 321.883C407.422 321.883 400.496 321.914 393.576 321.977C393.426 321.977 393.282 322.042 393.176 322.159C393.069 322.276 393.01 322.434 393.01 322.599C393.01 322.765 393.069 322.923 393.176 323.04C393.282 323.157 393.426 323.222 393.576 323.222C405.926 323.332 418.275 323.316 430.65 323.305C443.025 323.294 455.349 323.228 467.699 323.15L488.475 323.024C488.578 323.024 488.676 322.979 488.748 322.9C488.82 322.82 488.861 322.712 488.861 322.599C488.861 322.487 488.82 322.379 488.748 322.3C488.676 322.22 488.578 322.175 488.475 322.175Z" fill="black"/>
<path d="M488.475 329.922L451.401 329.691C439.052 329.614 426.702 329.625 414.352 329.63C407.422 329.63 400.496 329.661 393.576 329.724C393.426 329.724 393.282 329.79 393.176 329.906C393.069 330.023 393.01 330.181 393.01 330.347C393.01 330.512 393.069 330.67 393.176 330.787C393.282 330.904 393.426 330.969 393.576 330.969C405.926 331.079 418.275 331.063 430.65 331.052C443.025 331.041 455.349 330.975 467.699 330.898L488.475 330.771C488.578 330.771 488.676 330.726 488.748 330.647C488.82 330.567 488.861 330.459 488.861 330.347C488.861 330.234 488.82 330.126 488.748 330.047C488.676 329.967 488.578 329.922 488.475 329.922Z" fill="black"/>
<path d="M434.713 337.669C424.037 337.509 413.366 337.361 402.694 337.377C399.688 337.377 396.632 337.405 393.601 337.471C393.451 337.471 393.307 337.537 393.201 337.653C393.095 337.77 393.035 337.928 393.035 338.094C393.035 338.259 393.095 338.417 393.201 338.534C393.307 338.651 393.451 338.716 393.601 338.716C404.268 338.937 414.949 338.793 425.615 338.645L434.713 338.518C434.816 338.518 434.914 338.473 434.986 338.394C435.058 338.314 435.099 338.206 435.099 338.094C435.099 337.981 435.058 337.873 434.986 337.794C434.914 337.714 434.816 337.669 434.713 337.669Z" fill="black"/>
<path d="M393.602 304.576H434.714V312.164H393.602V304.576Z" fill="#FF9807"/>
<path d="M434.712 310.891H393.6L394.757 312.164V304.576L393.6 305.849H434.712L433.55 304.576V312.164C433.55 313.817 435.869 313.817 435.869 312.164V304.576C435.865 304.24 435.742 303.918 435.526 303.679C435.31 303.44 435.018 303.304 434.712 303.298H393.6C393.293 303.302 392.999 303.438 392.782 303.677C392.565 303.916 392.441 304.239 392.438 304.576V312.164C392.443 312.5 392.567 312.822 392.784 313.059C393.001 313.297 393.294 313.432 393.6 313.436H434.712C436.2 313.436 436.205 310.891 434.712 310.891Z" fill="#FF9807"/>
<path d="M328.766 371.589H302.404C300.633 371.589 299.197 373.168 299.197 375.115V404.109C299.197 406.056 300.633 407.635 302.404 407.635H328.766C330.537 407.635 331.973 406.056 331.973 404.109V375.115C331.973 373.168 330.537 371.589 328.766 371.589Z" fill="black"/>
<path d="M328.766 406.362H304.141C302.894 406.362 301.321 406.632 300.609 405.194C300.108 404.197 300.354 402.577 300.354 401.492V377.688C300.354 376.586 300.103 374.856 300.69 373.881C301.471 372.586 302.989 372.862 304.197 372.862H325.78C326.812 372.862 327.884 372.768 328.921 372.862C329.442 372.918 329.924 373.188 330.272 373.618C330.62 374.048 330.808 374.606 330.8 375.181V376.509V392.003C330.8 396.02 330.865 400.037 330.8 404.054C330.801 404.657 330.587 405.236 330.204 405.667C329.82 406.097 329.299 406.345 328.751 406.357C327.248 406.396 327.248 408.947 328.751 408.903C329.83 408.886 330.867 408.435 331.666 407.637C332.465 406.838 332.971 405.746 333.089 404.566C333.109 404.135 333.109 403.703 333.089 403.271V379.441C333.089 378.019 333.114 376.592 333.089 375.17C333.092 374.284 332.875 373.414 332.461 372.653C332.046 371.893 331.451 371.272 330.739 370.856C329.974 370.461 329.134 370.272 328.29 370.305H315.128C310.95 370.305 306.777 370.305 302.603 370.305C302 370.288 301.401 370.405 300.84 370.65C300.279 370.894 299.77 371.261 299.341 371.728C298.913 372.195 298.575 372.752 298.348 373.366C298.121 373.981 298.009 374.639 298.019 375.303V380.168V403.585C297.988 404.357 298.091 405.127 298.325 405.856C298.655 406.754 299.221 407.524 299.951 408.067C300.681 408.61 301.542 408.901 302.423 408.903C306.241 408.98 310.063 408.903 313.881 408.903H328.746C330.254 408.908 330.259 406.362 328.766 406.362Z" fill="black"/>
<path d="M323.305 371.589H296.943C295.172 371.589 293.736 373.168 293.736 375.115V404.109C293.736 406.056 295.172 407.635 296.943 407.635H323.305C325.076 407.635 326.512 406.056 326.512 404.109V375.115C326.512 373.168 325.076 371.589 323.305 371.589Z" fill="#FF9807"/>
<path d="M323.301 406.363H298.682C297.434 406.363 295.856 406.632 295.145 405.194C294.644 404.197 294.894 402.577 294.894 401.492V377.688C294.894 376.586 294.639 374.856 295.23 373.881C296.011 372.586 297.529 372.862 298.737 372.862H320.325C321.357 372.862 322.429 372.768 323.461 372.862C323.982 372.917 324.465 373.187 324.814 373.617C325.162 374.047 325.35 374.606 325.34 375.181V376.509V392.003C325.34 396.02 325.41 400.037 325.34 404.054C325.344 404.657 325.131 405.238 324.747 405.67C324.363 406.101 323.84 406.348 323.291 406.357C321.788 406.396 321.788 408.947 323.291 408.903C324.371 408.888 325.409 408.439 326.208 407.64C327.007 406.841 327.513 405.747 327.629 404.566C327.662 404.136 327.672 403.703 327.659 403.271V379.441C327.659 378.019 327.659 376.592 327.659 375.17C327.661 374.284 327.443 373.415 327.029 372.654C326.615 371.894 326.021 371.273 325.31 370.856C324.545 370.461 323.705 370.272 322.86 370.305H309.684C305.51 370.305 301.337 370.305 297.159 370.305C296.555 370.288 295.955 370.405 295.395 370.649C294.834 370.894 294.324 371.261 293.895 371.727C293.466 372.194 293.128 372.752 292.9 373.366C292.672 373.981 292.56 374.639 292.569 375.303V380.168V403.585C292.54 404.357 292.645 405.128 292.88 405.856C293.21 406.754 293.776 407.524 294.506 408.067C295.236 408.61 296.097 408.901 296.978 408.903C300.791 408.98 304.613 408.903 308.431 408.903H323.296C324.794 408.908 324.794 406.363 323.301 406.363Z" fill="#FF9807"/>
<path d="M315.88 380.62C315.469 381.171 314.943 381.595 314.502 382.113C314.061 382.631 313.671 383.215 313.27 383.766C312.423 384.945 311.656 386.185 310.875 387.419C310.093 388.653 309.432 389.772 308.771 390.979C308.425 391.601 308.089 392.229 307.769 392.857L307.268 393.8L307.017 394.268C306.802 394.621 306.902 394.511 307.313 393.932L308.44 393.596C308.713 393.608 308.975 393.719 309.187 393.91C309.292 394.004 309.302 394.009 309.187 393.91C309.072 393.748 308.943 393.601 308.801 393.469L307.994 392.538C307.323 391.767 306.692 390.808 305.7 390.565C304.056 390.174 302.939 391.629 303.195 393.32C303.355 394.477 304.517 395.486 305.199 396.323C305.88 397.161 306.596 398.164 307.669 398.401C309.242 398.742 310.279 397.745 311.045 396.373L312.608 393.568C313.61 391.744 314.522 389.833 315.419 387.926C315.88 386.951 316.291 385.953 316.697 384.945C316.902 384.433 317.077 383.915 317.243 383.386C317.408 382.857 317.483 382.284 317.684 381.733C318.094 380.631 316.551 379.705 315.89 380.581L315.88 380.62Z" fill="white"/>
<path d="M442.088 389.188L405.039 388.956C392.689 388.879 380.34 388.89 367.965 388.896C361.034 388.896 354.107 388.927 347.183 388.989C347.033 388.989 346.889 389.055 346.783 389.172C346.677 389.289 346.617 389.447 346.617 389.612C346.617 389.777 346.677 389.936 346.783 390.052C346.889 390.169 347.033 390.235 347.183 390.235C359.533 390.345 371.883 390.328 384.257 390.317C396.632 390.306 408.957 390.24 421.331 390.163L442.108 390.036C442.21 390.036 442.308 389.992 442.381 389.912C442.453 389.833 442.494 389.725 442.494 389.612C442.494 389.5 442.453 389.392 442.381 389.312C442.308 389.233 442.21 389.188 442.108 389.188H442.088Z" fill="black"/>
<path d="M442.088 396.935L405.039 396.72C392.689 396.643 380.34 396.654 367.965 396.659C361.034 396.659 354.107 396.691 347.183 396.753C347.033 396.753 346.889 396.819 346.783 396.935C346.677 397.052 346.617 397.211 346.617 397.376C346.617 397.541 346.677 397.699 346.783 397.816C346.889 397.933 347.033 397.998 347.183 397.998C359.533 398.109 371.883 398.092 384.257 398.081C396.632 398.07 408.957 398.004 421.331 397.927L442.108 397.8C442.21 397.8 442.308 397.755 442.381 397.676C442.453 397.596 442.494 397.488 442.494 397.376C442.494 397.263 442.453 397.155 442.381 397.076C442.308 396.996 442.21 396.951 442.108 396.951L442.088 396.935Z" fill="black"/>
<path d="M388.326 404.682C377.649 404.522 366.978 404.373 356.307 404.39C353.271 404.39 350.245 404.418 347.209 404.484C347.059 404.484 346.915 404.549 346.808 404.666C346.702 404.783 346.643 404.941 346.643 405.106C346.643 405.271 346.702 405.43 346.808 405.547C346.915 405.663 347.059 405.729 347.209 405.729C357.88 405.949 368.556 405.806 379.228 405.657L388.326 405.536C388.428 405.536 388.526 405.491 388.599 405.412C388.671 405.332 388.712 405.224 388.712 405.112C388.712 404.999 388.671 404.891 388.599 404.812C388.526 404.732 388.428 404.687 388.326 404.687V404.682Z" fill="black"/>
<path d="M347.209 371.589H388.321V379.176H347.209V371.589Z" fill="#FF9807"/>
<path d="M388.325 377.903H347.192L348.355 379.176V371.589L347.192 372.862H388.325L387.162 371.589V379.176C387.162 380.829 389.482 380.829 389.482 379.176V371.589C389.478 371.252 389.355 370.93 389.139 370.692C388.923 370.453 388.631 370.316 388.325 370.311H347.192C346.886 370.316 346.594 370.453 346.378 370.692C346.162 370.93 346.039 371.252 346.035 371.589V379.176C346.039 379.512 346.162 379.834 346.378 380.071C346.595 380.309 346.887 380.445 347.192 380.449H388.325C389.813 380.449 389.818 377.903 388.325 377.903Z" fill="#FF9807"/>
<path d="M328.766 438.602H302.404C300.633 438.602 299.197 440.18 299.197 442.128V471.122C299.197 473.069 300.633 474.648 302.404 474.648H328.766C330.537 474.648 331.973 473.069 331.973 471.122V442.128C331.973 440.18 330.537 438.602 328.766 438.602Z" fill="black"/>
<path d="M328.766 473.375H304.141C302.894 473.375 301.321 473.645 300.609 472.207C300.108 471.21 300.354 469.59 300.354 468.504V444.701C300.354 443.599 300.103 441.869 300.69 440.894C301.471 439.599 302.989 439.874 304.197 439.874H325.78C326.812 439.874 327.884 439.786 328.921 439.874C329.442 439.931 329.924 440.201 330.272 440.631C330.62 441.061 330.808 441.619 330.8 442.194V443.522V459.016C330.8 463.033 330.865 467.05 330.8 471.066C330.801 471.669 330.587 472.248 330.204 472.679C329.82 473.11 329.299 473.358 328.751 473.37C327.248 473.408 327.248 475.959 328.751 475.915C329.83 475.899 330.868 475.45 331.667 474.651C332.466 473.852 332.972 472.759 333.089 471.579C333.109 471.147 333.109 470.715 333.089 470.284V446.453C333.089 445.032 333.114 443.605 333.089 442.183C333.092 441.297 332.875 440.426 332.461 439.666C332.046 438.906 331.451 438.284 330.739 437.869C329.974 437.473 329.134 437.284 328.29 437.318H315.128C310.95 437.318 306.777 437.318 302.603 437.318C302.001 437.3 301.401 437.416 300.84 437.66C300.28 437.904 299.77 438.27 299.342 438.737C298.913 439.203 298.575 439.76 298.348 440.374C298.121 440.988 298.009 441.647 298.019 442.31V447.175V470.593C297.988 471.364 298.091 472.135 298.325 472.863C298.655 473.761 299.221 474.531 299.951 475.074C300.681 475.617 301.542 475.908 302.423 475.91C306.241 475.987 310.063 475.91 313.881 475.91H328.746C330.254 475.921 330.259 473.375 328.766 473.375Z" fill="black"/>
<path d="M323.305 438.602H296.943C295.172 438.602 293.736 440.18 293.736 442.128V471.122C293.736 473.069 295.172 474.648 296.943 474.648H323.305C325.076 474.648 326.512 473.069 326.512 471.122V442.128C326.512 440.18 325.076 438.602 323.305 438.602Z" fill="#FF9807"/>
<path d="M323.301 473.375H298.682C297.434 473.375 295.856 473.645 295.145 472.207C294.644 471.21 294.894 469.59 294.894 468.504V444.701C294.894 443.599 294.639 441.869 295.23 440.894C296.011 439.599 297.529 439.874 298.737 439.874H320.325C321.357 439.874 322.429 439.786 323.461 439.874C323.982 439.93 324.465 440.199 324.814 440.629C325.162 441.059 325.35 441.618 325.34 442.194V443.522V459.016C325.34 463.033 325.41 467.05 325.34 471.066C325.344 471.67 325.131 472.251 324.747 472.682C324.363 473.114 323.84 473.361 323.291 473.37C321.788 473.408 321.788 475.959 323.291 475.915C324.371 475.901 325.409 475.451 326.208 474.652C327.007 473.853 327.513 472.76 327.629 471.579C327.662 471.148 327.672 470.716 327.659 470.284V446.453C327.659 445.032 327.659 443.605 327.659 442.183C327.661 441.297 327.443 440.427 327.029 439.667C326.615 438.907 326.021 438.285 325.31 437.869C324.545 437.473 323.705 437.284 322.86 437.318H309.684C305.51 437.318 301.337 437.318 297.159 437.318C296.556 437.299 295.955 437.415 295.394 437.658C294.833 437.902 294.322 438.268 293.894 438.735C293.465 439.201 293.126 439.759 292.899 440.373C292.671 440.988 292.559 441.646 292.569 442.31V447.175V470.593C292.54 471.364 292.645 472.135 292.88 472.863C293.21 473.761 293.776 474.531 294.506 475.074C295.236 475.617 296.097 475.908 296.978 475.91C300.791 475.987 304.613 475.91 308.431 475.91H323.296C324.794 475.921 324.794 473.375 323.301 473.375Z" fill="#FF9807"/>
<path d="M369.687 339.344H345.068C343.821 339.344 342.243 339.62 341.561 338.182C341.06 337.184 341.306 335.564 341.306 334.479V310.676C341.306 309.574 341.05 307.844 341.641 306.868C342.423 305.574 343.941 305.849 345.148 305.849H366.732C367.764 305.849 368.836 305.755 369.868 305.849C370.389 305.906 370.872 306.177 371.219 306.608C371.566 307.039 371.753 307.598 371.742 308.174V309.502V324.996C371.742 329.008 371.812 333.03 371.742 337.047C371.746 337.65 371.532 338.23 371.148 338.661C370.764 339.091 370.241 339.337 369.692 339.344C368.189 339.388 368.189 341.94 369.692 341.895C370.773 341.881 371.812 341.431 372.611 340.631C373.411 339.83 373.916 338.736 374.031 337.554C374.064 337.123 374.074 336.691 374.061 336.259V312.417C374.061 310.995 374.061 309.568 374.061 308.147C374.064 307.26 373.847 306.39 373.432 305.63C373.018 304.869 372.423 304.248 371.711 303.832C370.946 303.437 370.106 303.248 369.262 303.281H356.07C351.897 303.281 347.724 303.281 343.545 303.281C342.942 303.264 342.342 303.381 341.781 303.626C341.22 303.87 340.71 304.237 340.282 304.704C339.853 305.171 339.514 305.728 339.287 306.342C339.059 306.957 338.946 307.616 338.956 308.279V313.144V336.562C338.926 337.333 339.032 338.104 339.267 338.832C339.597 339.731 340.163 340.501 340.893 341.043C341.623 341.586 342.484 341.877 343.365 341.879C347.177 341.956 351.005 341.879 354.818 341.879H369.687C371.18 341.895 371.185 339.344 369.687 339.344Z" fill="black"/>
<path d="M323.301 473.375H298.682C297.434 473.375 295.856 473.645 295.145 472.207C294.644 471.21 294.894 469.59 294.894 468.504V444.701C294.894 443.599 294.639 441.869 295.23 440.894C296.011 439.599 297.529 439.874 298.737 439.874H320.325C321.357 439.874 322.429 439.786 323.461 439.874C323.982 439.93 324.465 440.199 324.814 440.629C325.162 441.059 325.35 441.618 325.34 442.194V443.522V459.016C325.34 463.033 325.41 467.05 325.34 471.066C325.344 471.67 325.131 472.251 324.747 472.682C324.363 473.114 323.84 473.361 323.291 473.37C321.788 473.408 321.788 475.959 323.291 475.915C324.371 475.901 325.409 475.451 326.208 474.652C327.007 473.853 327.513 472.76 327.629 471.579C327.662 471.148 327.672 470.716 327.659 470.284V446.453C327.659 445.032 327.659 443.605 327.659 442.183C327.661 441.297 327.443 440.427 327.029 439.667C326.615 438.907 326.021 438.285 325.31 437.869C324.545 437.473 323.705 437.284 322.86 437.318H309.684C305.51 437.318 301.337 437.318 297.159 437.318C296.556 437.299 295.955 437.415 295.394 437.658C294.833 437.902 294.322 438.268 293.894 438.735C293.465 439.201 293.126 439.759 292.899 440.373C292.671 440.988 292.559 441.646 292.569 442.31V447.175V470.593C292.54 471.364 292.645 472.135 292.88 472.863C293.21 473.761 293.776 474.531 294.506 475.074C295.236 475.617 296.097 475.908 296.978 475.91C300.791 475.987 304.613 475.91 308.431 475.91H323.296C324.794 475.921 324.794 473.375 323.301 473.375Z" fill="black"/>
<path d="M315.881 447.632C315.47 448.183 314.944 448.608 314.503 449.126C314.062 449.643 313.672 450.228 313.271 450.779C312.424 451.958 311.658 453.197 310.876 454.432C310.094 455.666 309.433 456.784 308.772 457.991C308.426 458.614 308.09 459.242 307.77 459.87L307.269 460.812L307.018 461.281C306.803 461.633 306.903 461.523 307.314 460.944L308.441 460.608C308.714 460.621 308.977 460.731 309.188 460.922C309.293 461.016 309.303 461.022 309.188 460.922C309.074 460.761 308.944 460.613 308.802 460.482L307.99 459.534C307.319 458.763 306.688 457.804 305.696 457.567C304.052 457.17 302.935 458.625 303.191 460.322C303.351 461.479 304.513 462.487 305.195 463.325C305.876 464.162 306.592 465.165 307.665 465.402C309.238 465.744 310.275 464.746 311.041 463.374L312.625 460.636C313.627 458.812 314.538 456.9 315.435 454.994C315.896 454.018 316.307 453.021 316.713 452.013C316.918 451.5 317.093 450.982 317.259 450.453C317.424 449.925 317.499 449.351 317.7 448.8C318.11 447.698 316.567 446.773 315.906 447.649L315.881 447.632Z" fill="white"/>
<path d="M442.088 456.228L405.039 455.997C392.689 455.92 380.34 455.931 367.965 455.936C361.034 455.936 354.107 455.967 347.183 456.03C347.033 456.03 346.889 456.095 346.783 456.212C346.677 456.329 346.617 456.487 346.617 456.652C346.617 456.818 346.677 456.976 346.783 457.093C346.889 457.209 347.033 457.275 347.183 457.275C359.533 457.385 371.883 457.369 384.257 457.358C396.632 457.347 408.957 457.281 421.331 457.203L442.108 457.077C442.21 457.077 442.308 457.032 442.381 456.952C442.453 456.873 442.494 456.765 442.494 456.652C442.494 456.54 442.453 456.432 442.381 456.352C442.308 456.273 442.21 456.228 442.108 456.228H442.088Z" fill="black"/>
<path d="M442.088 463.942L405.039 463.711C392.689 463.633 380.34 463.644 367.965 463.65C361.034 463.65 354.107 463.681 347.183 463.744C347.033 463.744 346.889 463.809 346.783 463.926C346.677 464.043 346.617 464.201 346.617 464.366C346.617 464.531 346.677 464.69 346.783 464.807C346.889 464.923 347.033 464.989 347.183 464.989C359.533 465.099 371.883 465.083 384.257 465.072C396.632 465.061 408.957 464.994 421.331 464.917L442.108 464.791C442.21 464.791 442.308 464.746 442.381 464.666C442.453 464.587 442.494 464.479 442.494 464.366C442.494 464.254 442.453 464.146 442.381 464.066C442.308 463.987 442.21 463.942 442.108 463.942H442.088Z" fill="black"/>
<path d="M388.326 471.695C377.649 471.535 366.978 471.386 356.307 471.403C353.271 471.403 350.245 471.436 347.209 471.496C347.059 471.496 346.915 471.562 346.808 471.679C346.702 471.795 346.643 471.954 346.643 472.119C346.643 472.284 346.702 472.442 346.808 472.559C346.915 472.676 347.059 472.741 347.209 472.741C357.88 472.962 368.556 472.819 379.228 472.67L388.326 472.543C388.428 472.543 388.526 472.498 388.599 472.419C388.671 472.339 388.712 472.231 388.712 472.119C388.712 472.006 388.671 471.898 388.599 471.819C388.526 471.739 388.428 471.695 388.326 471.695Z" fill="black"/>
<path d="M347.207 438.602H388.319V446.189H347.207V438.602Z" fill="#FF9807"/>
<path d="M388.325 444.916H347.192L348.355 446.189V438.596L347.192 439.874H388.325L387.162 438.596V446.183C387.162 447.836 389.482 447.836 389.482 446.183V438.596C389.478 438.26 389.355 437.939 389.139 437.701C388.922 437.463 388.63 437.328 388.325 437.323H347.192C346.887 437.328 346.595 437.463 346.378 437.701C346.162 437.939 346.039 438.26 346.035 438.596V446.183C346.038 446.521 346.16 446.844 346.376 447.084C346.593 447.324 346.885 447.461 347.192 447.467H388.325C389.813 447.467 389.818 444.916 388.325 444.916Z" fill="#FF9807"/>
</svg>
