<svg width="97" height="32" viewBox="0 0 97 32" fill="none" xmlns="http://www.w3.org/2000/svg">
<path d="M23.4731 11.523H12.334V14.742H20.2345C19.843 19.2477 15.9879 21.1817 12.3473 21.1817C11.1939 21.1868 10.0511 20.9678 8.9856 20.5379C7.92007 20.108 6.95314 19.4757 6.1413 18.6778C5.32944 17.8799 4.68892 16.9326 4.25713 15.8911C3.82534 14.8494 3.61094 13.7345 3.62643 12.6113C3.62643 7.73823 7.50019 3.98634 12.358 3.98634C16.1054 3.98634 18.3136 6.31286 18.3136 6.31286L20.6268 3.97855C20.6268 3.97855 17.6552 0.757812 12.237 0.757812C5.33732 0.757812 0 6.42897 0 12.5542C0 18.5563 5.0206 24.4095 12.4113 24.4095C18.9124 24.4095 23.6714 20.0718 23.6714 13.6581C23.6714 12.3046 23.4695 11.523 23.4695 11.523H23.4731Z" fill="white"/>
<path d="M32.5971 9.19618C28.0258 9.19618 24.75 12.6769 24.75 16.7345C24.75 20.8539 27.9262 24.3987 32.6506 24.3987C36.9264 24.3987 40.4292 21.2161 40.4292 16.8229C40.4292 11.7974 36.3543 9.19618 32.5971 9.19618ZM32.6416 12.1821C34.889 12.1821 37.019 13.9523 37.019 16.8039C37.019 19.594 34.8979 21.4154 32.6309 21.4154C30.1398 21.4154 28.1824 19.4727 28.1824 16.7815C28.1824 14.1473 30.122 12.1821 32.6487 12.1821H32.6416Z" fill="white"/>
<path d="M49.6635 9.19618C45.0922 9.19618 41.8164 12.6769 41.8164 16.7345C41.8164 20.8539 44.9926 24.3987 49.717 24.3987C53.9928 24.3987 57.4956 21.2161 57.4956 16.8229C57.4956 11.7974 53.4208 9.19618 49.6635 9.19618ZM49.708 12.1821C51.9554 12.1821 54.0854 13.9523 54.0854 16.8039C54.0854 19.594 51.9643 21.4154 49.6974 21.4154C47.2062 21.4154 45.2488 19.4727 45.2488 16.7815C45.2488 14.1473 47.1884 12.1821 49.7151 12.1821H49.708Z" fill="white"/>
<path d="M66.4012 9.20312C62.2054 9.20312 58.9082 12.7817 58.9082 16.7988C58.9082 21.3737 62.7312 24.4082 66.3282 24.4082C68.5525 24.4082 69.7359 23.5477 70.5989 22.5609V24.0599C70.5989 26.6827 68.9636 28.2537 66.4956 28.2537C64.1111 28.2537 62.9154 26.5268 62.4918 25.5476L59.4917 26.7607C60.5558 28.953 62.6983 31.2378 66.5204 31.2378C70.702 31.2378 73.8711 28.6792 73.8711 23.3122V9.65977H70.6113V10.9474C69.6059 9.89024 68.2287 9.20312 66.4031 9.20312H66.4012ZM66.7038 12.1838C68.7608 12.1838 70.8729 13.8943 70.8729 16.8153C70.8729 19.7847 68.7643 21.4205 66.6583 21.4205C64.4217 21.4205 62.3406 19.6529 62.3406 16.843C62.3406 13.9246 64.5026 12.1838 66.7038 12.1838Z" fill="white"/>
<path d="M88.4405 9.17969C84.4833 9.17969 81.1602 12.2471 81.1602 16.7701C81.1602 21.5582 84.864 24.3977 88.8116 24.3977C92.1142 24.3977 94.1498 22.6388 95.351 21.0618L92.6525 19.3132C91.9523 20.3703 90.7813 21.4059 88.8285 21.4059C86.6345 21.4059 85.6255 20.236 85.0001 19.101L95.4657 14.8725L94.9318 13.6334C93.9212 11.2073 91.5616 9.17969 88.4405 9.17969ZM88.5767 12.1032C90.0029 12.1032 91.0288 12.8415 91.4646 13.727L84.4753 16.5717C84.1727 14.3691 86.3169 12.1032 88.5679 12.1032H88.5767Z" fill="white"/>
<path d="M76.1621 23.9517H79.5999V1.54688H76.1621V23.9517Z" fill="white"/>
</svg>
