<svg width="752" height="527" viewBox="0 0 752 527" fill="none" xmlns="http://www.w3.org/2000/svg">
<path d="M579.885 525.247L579.9 524.55C580.216 512.862 583.073 501.383 588.273 490.91C593.473 480.438 600.891 471.223 610.012 463.907C615.161 459.844 620.801 456.445 626.798 453.792L627.37 453.537L627.468 454.155C628.629 461.535 630.469 469.068 631.326 472.411L637.07 449.997L637.708 449.813C640.635 448.953 643.752 448.99 646.658 449.919C649.564 450.847 652.125 452.624 654.011 455.021C655.98 457.419 657.185 460.351 657.473 463.44C657.76 466.529 657.116 469.634 655.623 472.353C654.284 474.848 652.968 477.451 651.695 479.967C647.321 488.617 642.798 497.561 636.208 504.509C631.167 509.72 625.027 513.739 618.235 516.272C611.442 518.806 604.17 519.791 596.948 519.154L579.885 525.247Z" fill="#F2F2F2"/>
<path d="M405.248 320.566H256.967C251.634 320.56 246.521 318.439 242.75 314.668C238.979 310.897 236.858 305.784 236.852 300.451V91.8522C236.879 67.5 246.565 44.153 263.785 26.9333C281.004 9.71367 304.351 0.0275554 328.703 0H405.249C410.581 0.00602138 415.694 2.12718 419.465 5.89813C423.236 9.66908 425.357 14.7819 425.363 20.1148V300.451C425.357 305.784 423.236 310.897 419.465 314.668C415.694 318.439 410.581 320.56 405.248 320.566V320.566Z" fill="#F2F2F2"/>
<path d="M262.152 181.284C259.906 181.286 257.752 182.18 256.164 183.768C254.576 185.356 253.682 187.51 253.68 189.756V237.369C253.682 239.615 254.576 241.768 256.164 243.356C257.752 244.945 259.906 245.838 262.152 245.841H406.254C408.5 245.838 410.653 244.945 412.241 243.356C413.83 241.768 414.723 239.615 414.726 237.369V189.756C414.723 187.51 413.83 185.356 412.241 183.768C410.653 182.18 408.5 181.286 406.254 181.284L262.152 181.284Z" fill="white"/>
<path d="M406.6 150.394H262.498C260.068 150.391 257.738 149.424 256.02 147.706C254.301 145.988 253.335 143.658 253.332 141.228C253.349 126.174 259.337 111.742 269.981 101.097C280.626 90.4528 295.058 84.4653 310.111 84.4482H406.6C409.03 84.4509 411.36 85.4175 413.079 87.1359C414.797 88.8543 415.764 91.1842 415.766 93.6144V141.227C415.764 143.658 414.797 145.987 413.078 147.706C411.36 149.424 409.03 150.391 406.6 150.394V150.394Z" fill="white"/>
<path d="M468.642 238.536H302.758C301.783 238.535 300.848 238.148 300.158 237.458C299.469 236.769 299.081 235.834 299.08 234.859V191.151C299.081 190.176 299.469 189.241 300.158 188.551C300.848 187.862 301.783 187.474 302.758 187.473H468.642C469.617 187.474 470.552 187.862 471.241 188.551C471.931 189.241 472.318 190.176 472.32 191.151V234.859C472.318 235.834 471.931 236.769 471.241 237.458C470.552 238.148 469.617 238.535 468.642 238.536V238.536Z" fill="white"/>
<path d="M468.643 239.23H302.758C301.599 239.229 300.488 238.768 299.669 237.949C298.849 237.129 298.388 236.018 298.387 234.859V191.151C298.388 189.991 298.849 188.88 299.669 188.061C300.488 187.241 301.599 186.78 302.758 186.779H468.643C469.802 186.78 470.913 187.241 471.733 188.061C472.552 188.88 473.013 189.991 473.015 191.151V234.859C473.013 236.018 472.552 237.129 471.733 237.949C470.913 238.768 469.802 239.229 468.643 239.23V239.23ZM302.758 188.167C301.967 188.168 301.209 188.483 300.65 189.042C300.091 189.601 299.776 190.36 299.775 191.151V234.859C299.776 235.65 300.091 236.408 300.65 236.967C301.209 237.527 301.967 237.841 302.758 237.842H468.643C469.434 237.841 470.192 237.527 470.751 236.967C471.311 236.408 471.625 235.65 471.626 234.859V191.151C471.625 190.36 471.311 189.601 470.751 189.042C470.192 188.483 469.434 188.168 468.643 188.167H302.758Z" fill="#CCCCCC"/>
<path d="M316.864 208.19C320.16 208.19 322.832 205.519 322.832 202.223C322.832 198.927 320.16 196.255 316.864 196.255C313.568 196.255 310.896 198.927 310.896 202.223C310.896 205.519 313.568 208.19 316.864 208.19Z" fill="#E6E6E6"/>
<path d="M458.725 217.261H312.672C312.438 217.262 312.207 217.216 311.991 217.127C311.774 217.038 311.578 216.907 311.413 216.742C311.247 216.577 311.116 216.381 311.026 216.165C310.937 215.949 310.891 215.718 310.891 215.484C310.891 215.25 310.937 215.019 311.026 214.803C311.116 214.587 311.247 214.391 311.413 214.226C311.578 214.061 311.774 213.93 311.991 213.841C312.207 213.752 312.438 213.706 312.672 213.707H458.725C458.959 213.706 459.191 213.752 459.407 213.841C459.623 213.93 459.819 214.061 459.985 214.226C460.15 214.391 460.281 214.587 460.371 214.803C460.46 215.019 460.507 215.25 460.507 215.484C460.507 215.718 460.46 215.949 460.371 216.165C460.281 216.381 460.15 216.577 459.985 216.742C459.819 216.907 459.623 217.038 459.407 217.127C459.191 217.216 458.959 217.262 458.725 217.261H458.725Z" fill="#E6E6E6"/>
<path d="M444.215 224.283H312.674C312.202 224.283 311.75 224.096 311.417 223.763C311.084 223.43 310.896 222.977 310.896 222.506C310.896 222.035 311.084 221.583 311.417 221.25C311.75 220.916 312.202 220.729 312.674 220.729H444.215C444.686 220.729 445.138 220.916 445.471 221.25C445.805 221.583 445.992 222.035 445.992 222.506C445.992 222.977 445.805 223.43 445.471 223.763C445.138 224.096 444.686 224.283 444.215 224.283V224.283Z" fill="#E6E6E6"/>
<path d="M296.307 523.611L255.705 507.427C254.8 507.065 254.075 506.359 253.69 505.463C253.305 504.568 253.291 503.556 253.651 502.65L315.071 348.555C315.433 347.65 316.139 346.925 317.035 346.54C317.931 346.155 318.943 346.14 319.849 346.5L360.451 362.684C361.356 363.046 362.081 363.752 362.466 364.648C362.851 365.544 362.865 366.555 362.505 367.462L301.085 521.556C300.723 522.461 300.017 523.186 299.121 523.571C298.225 523.957 297.213 523.971 296.307 523.611V523.611Z" fill="white"/>
<path d="M296.051 524.256L255.449 508.072C254.373 507.642 253.511 506.802 253.053 505.738C252.595 504.673 252.579 503.47 253.006 502.393L314.427 348.298C314.857 347.222 315.697 346.36 316.762 345.902C317.826 345.444 319.029 345.428 320.106 345.856L360.708 362.039C361.784 362.469 362.646 363.309 363.104 364.374C363.562 365.439 363.579 366.642 363.151 367.719L301.73 521.813C301.3 522.89 300.46 523.751 299.396 524.209C298.331 524.667 297.128 524.684 296.051 524.256V524.256ZM254.296 502.907C254.004 503.642 254.016 504.463 254.328 505.189C254.641 505.916 255.228 506.489 255.963 506.783L296.565 522.966C297.3 523.258 298.121 523.247 298.847 522.934C299.574 522.622 300.147 522.034 300.441 521.299L361.861 367.205C362.153 366.47 362.141 365.649 361.829 364.922C361.516 364.195 360.929 363.622 360.194 363.329L319.592 347.145C318.857 346.853 318.036 346.865 317.31 347.177C316.583 347.49 316.01 348.078 315.716 348.812L254.296 502.907Z" fill="#CCCCCC"/>
<path d="M323.55 373.087C326.846 373.087 329.517 370.415 329.517 367.119C329.517 363.823 326.846 361.151 323.55 361.151C320.254 361.151 317.582 363.823 317.582 367.119C317.582 370.415 320.254 373.087 323.55 373.087Z" fill="#E6E6E6"/>
<path d="M282.685 505.46C282.247 505.285 281.897 504.944 281.711 504.511C281.525 504.078 281.518 503.589 281.692 503.152L335.77 367.478C335.856 367.262 335.984 367.064 336.147 366.897C336.31 366.73 336.504 366.596 336.719 366.504C336.933 366.412 337.163 366.363 337.397 366.36C337.63 366.356 337.862 366.399 338.078 366.486C338.295 366.572 338.493 366.7 338.66 366.863C338.827 367.026 338.961 367.22 339.053 367.434C339.145 367.649 339.194 367.879 339.197 368.113C339.201 368.346 339.158 368.578 339.071 368.794L284.994 504.468C284.819 504.905 284.477 505.255 284.045 505.441C283.612 505.628 283.123 505.634 282.685 505.46V505.46Z" fill="#E6E6E6"/>
<path d="M294.579 494.58C294.142 494.405 293.792 494.063 293.606 493.63C293.42 493.198 293.413 492.709 293.587 492.271L342.291 370.078C342.377 369.861 342.505 369.663 342.668 369.495C342.831 369.328 343.025 369.194 343.239 369.101C343.454 369.009 343.685 368.959 343.918 368.956C344.152 368.953 344.384 368.996 344.601 369.082C344.818 369.169 345.016 369.297 345.183 369.46C345.351 369.623 345.484 369.818 345.576 370.033C345.668 370.247 345.717 370.478 345.72 370.712C345.723 370.946 345.68 371.177 345.593 371.394L296.888 493.587C296.713 494.024 296.372 494.374 295.939 494.561C295.506 494.747 295.017 494.754 294.579 494.58V494.58Z" fill="#E6E6E6"/>
<path d="M396.24 41.238C404.916 41.238 411.949 34.2049 411.949 25.5292C411.949 16.8534 404.916 9.82031 396.24 9.82031C387.564 9.82031 380.531 16.8534 380.531 25.5292C380.531 34.2049 387.564 41.238 396.24 41.238Z" fill="white"/>
<path d="M403.974 24.9076H396.908V17.8415C396.908 17.7535 396.891 17.6663 396.857 17.5849C396.824 17.5035 396.775 17.4295 396.713 17.3671C396.651 17.3048 396.577 17.2553 396.495 17.2215C396.414 17.1878 396.327 17.1704 396.239 17.1704C396.151 17.1704 396.064 17.1878 395.983 17.2215C395.901 17.2553 395.828 17.3048 395.765 17.3671C395.703 17.4295 395.654 17.5035 395.621 17.5849C395.587 17.6663 395.57 17.7535 395.571 17.8415V24.9076H388.504C388.327 24.9076 388.157 24.978 388.032 25.1034C387.906 25.2288 387.836 25.3988 387.836 25.5761C387.836 25.7534 387.906 25.9234 388.032 26.0488C388.157 26.1741 388.327 26.2446 388.504 26.2446H395.571V33.3109C395.57 33.3989 395.587 33.4861 395.621 33.5675C395.654 33.6489 395.703 33.7229 395.765 33.7852C395.828 33.8476 395.901 33.897 395.983 33.9308C396.064 33.9646 396.151 33.9819 396.239 33.9819C396.327 33.9819 396.414 33.9646 396.495 33.9308C396.577 33.897 396.651 33.8476 396.713 33.7852C396.775 33.7229 396.824 33.6489 396.857 33.5675C396.891 33.4861 396.908 33.3989 396.908 33.3109V26.2446H403.974C404.151 26.2446 404.321 26.1741 404.446 26.0488C404.572 25.9234 404.642 25.7534 404.642 25.5761C404.642 25.3988 404.572 25.2288 404.446 25.1034C404.321 24.978 404.151 24.9076 403.974 24.9076Z" fill="#E6E6E6"/>
<path d="M589.818 38.4727H536.818C533.371 38.4727 530.064 37.103 527.626 34.6651C525.188 32.2271 523.818 28.9205 523.818 25.4727C523.818 22.0248 525.188 18.7182 527.626 16.2803C530.064 13.8423 533.371 12.4727 536.818 12.4727H589.818C593.266 12.4727 596.573 13.8423 599.011 16.2803C601.449 18.7182 602.818 22.0248 602.818 25.4727C602.818 28.9205 601.449 32.2271 599.011 34.6651C596.573 37.103 593.266 38.4727 589.818 38.4727V38.4727Z" fill="#1C9962"/>
<path d="M408.728 20.1192L408.699 22.1191L511.118 23.5986L511.147 21.5987L408.728 20.1192Z" fill="#3F3D56"/>
<path d="M404.429 26.5441C403.198 26.5469 402.009 26.0966 401.09 25.2791C400.17 24.4616 399.583 23.3341 399.441 22.1116C399.3 20.8892 399.613 19.6574 400.322 18.6513C401.03 17.6451 402.085 16.935 403.283 16.6564C404.482 16.3778 405.741 16.5502 406.821 17.1408C407.9 17.7313 408.725 18.6987 409.137 19.8583C409.549 21.0178 409.52 22.2885 409.055 23.4279C408.59 24.5673 407.721 25.4956 406.616 26.0358C405.935 26.3686 405.187 26.5424 404.429 26.5441V26.5441ZM404.422 18.5396C403.77 18.5396 403.136 18.7518 402.615 19.1441C402.094 19.5364 401.716 20.0875 401.536 20.7141C401.356 21.3407 401.385 22.0088 401.619 22.6175C401.852 23.2261 402.277 23.7422 402.83 24.0878C403.383 24.4333 404.033 24.5896 404.683 24.5329C405.332 24.4762 405.946 24.2097 406.43 23.7736C406.915 23.3375 407.244 22.7555 407.369 22.1156C407.493 21.4757 407.406 20.8127 407.121 20.2266V20.2262C406.873 19.7208 406.49 19.2948 406.013 18.9967C405.535 18.6986 404.984 18.5403 404.422 18.5397V18.5396Z" fill="#3F3D56"/>
<path d="M97.5918 55.4727C97.5956 52.026 98.9665 48.7216 101.404 46.2845C103.841 43.8473 107.145 42.4765 110.592 42.4727H163.592C167.04 42.4727 170.346 43.8423 172.784 46.2803C175.222 48.7182 176.592 52.0248 176.592 55.4727C176.592 58.9205 175.222 62.2271 172.784 64.6651C170.346 67.103 167.04 68.4727 163.592 68.4727H110.592C107.145 68.4688 103.841 67.098 101.404 64.6608C98.9665 62.2237 97.5956 58.9193 97.5918 55.4727V55.4727Z" fill="#1C9962"/>
<path d="M291.685 50.122L189.266 51.6011L189.295 53.6011L291.714 52.122L291.685 50.122Z" fill="#3F3D56"/>
<path d="M293.796 56.0358C292.701 55.4984 291.842 54.577 291.383 53.4472C290.924 52.3175 290.896 51.0582 291.306 49.9095C291.715 48.7607 292.533 47.8027 293.603 47.218C294.673 46.6333 295.921 46.4627 297.109 46.7388C298.297 47.0149 299.342 47.7183 300.044 48.7151C300.747 49.7119 301.059 50.9323 300.919 52.1438C300.78 53.3554 300.2 54.4734 299.29 55.2849C298.379 56.0964 297.202 56.5446 295.983 56.5441C295.225 56.5438 294.477 56.3699 293.796 56.0358V56.0358ZM295.01 48.7047C294.637 48.8321 294.293 49.0321 293.998 49.2933C293.703 49.5544 293.463 49.8715 293.291 50.2262V50.2267C292.985 50.852 292.906 51.5639 293.067 52.241C293.228 52.9181 293.618 53.5185 294.172 53.9398C294.726 54.3611 295.409 54.5772 296.104 54.5514C296.8 54.5255 297.465 54.2593 297.986 53.798C298.507 53.3367 298.852 52.709 298.962 52.0218C299.072 51.3347 298.94 50.6306 298.589 50.0298C298.238 49.4289 297.689 48.9684 297.037 48.7267C296.384 48.4851 295.668 48.4773 295.01 48.7047V48.7047Z" fill="#3F3D56"/>
<path d="M93.5918 448.473C93.5956 445.026 94.9665 441.722 97.4036 439.284C99.8408 436.847 103.145 435.476 106.592 435.473H159.592C163.04 435.473 166.346 436.842 168.784 439.28C171.222 441.718 172.592 445.025 172.592 448.473C172.592 451.92 171.222 455.227 168.784 457.665C166.346 460.103 163.04 461.473 159.592 461.473H106.592C103.145 461.469 99.8408 460.098 97.4036 457.661C94.9665 455.224 93.5956 451.919 93.5918 448.473V448.473Z" fill="#1C9962"/>
<path d="M287.683 443.123L185.264 444.603L185.293 446.603L287.712 445.123L287.683 443.123Z" fill="#3F3D56"/>
<path d="M289.796 449.036C288.701 448.498 287.842 447.577 287.383 446.447C286.924 445.317 286.896 444.058 287.306 442.909C287.715 441.761 288.533 440.803 289.603 440.218C290.673 439.633 291.921 439.463 293.109 439.739C294.297 440.015 295.342 440.718 296.044 441.715C296.747 442.712 297.059 443.932 296.919 445.144C296.78 446.355 296.2 447.473 295.29 448.285C294.379 449.096 293.202 449.545 291.983 449.544C291.225 449.544 290.476 449.37 289.796 449.036V449.036ZM291.01 441.705C290.637 441.832 290.293 442.032 289.998 442.293C289.703 442.554 289.463 442.872 289.291 443.226V443.227C288.985 443.852 288.906 444.564 289.067 445.241C289.228 445.918 289.618 446.518 290.172 446.94C290.726 447.361 291.409 447.577 292.104 447.551C292.8 447.526 293.465 447.259 293.986 446.798C294.507 446.337 294.852 445.709 294.962 445.022C295.072 444.335 294.94 443.631 294.589 443.03C294.238 442.429 293.689 441.968 293.037 441.727C292.384 441.485 291.668 441.477 291.01 441.705V441.705Z" fill="#3F3D56"/>
<path d="M107.592 200.473C107.596 197.026 108.966 193.722 111.404 191.284C113.841 188.847 117.145 187.476 120.592 187.473H173.592C177.04 187.473 180.346 188.842 182.784 191.28C185.222 193.718 186.592 197.025 186.592 200.473C186.592 203.92 185.222 207.227 182.784 209.665C180.346 212.103 177.04 213.473 173.592 213.473H120.592C117.145 213.469 113.841 212.098 111.404 209.661C108.966 207.224 107.596 203.919 107.592 200.473V200.473Z" fill="#1C9962"/>
<path d="M301.685 195.122L199.266 196.602L199.295 198.602L301.714 197.122L301.685 195.122Z" fill="#3F3D56"/>
<path d="M303.796 201.036C302.701 200.498 301.842 199.577 301.383 198.447C300.924 197.317 300.896 196.058 301.306 194.909C301.715 193.761 302.533 192.803 303.603 192.218C304.673 191.633 305.921 191.463 307.109 191.739C308.297 192.015 309.342 192.718 310.044 193.715C310.747 194.712 311.059 195.932 310.919 197.144C310.78 198.355 310.2 199.473 309.29 200.285C308.379 201.096 307.202 201.545 305.983 201.544C305.225 201.544 304.477 201.37 303.796 201.036V201.036ZM305.01 193.705C304.637 193.832 304.293 194.032 303.998 194.293C303.703 194.554 303.463 194.872 303.291 195.226V195.227C302.985 195.852 302.906 196.564 303.067 197.241C303.228 197.918 303.618 198.518 304.172 198.94C304.726 199.361 305.409 199.577 306.104 199.551C306.8 199.526 307.465 199.259 307.986 198.798C308.507 198.337 308.852 197.709 308.962 197.022C309.072 196.335 308.94 195.631 308.589 195.03C308.238 194.429 307.689 193.968 307.037 193.727C306.384 193.485 305.668 193.477 305.01 193.705V193.705Z" fill="#3F3D56"/>
<path d="M575.818 121.473H522.818C519.371 121.473 516.064 120.103 513.626 117.665C511.188 115.227 509.818 111.92 509.818 108.473C509.818 105.025 511.188 101.718 513.626 99.2803C516.064 96.8423 519.371 95.4727 522.818 95.4727H575.818C579.266 95.4727 582.573 96.8423 585.011 99.2803C587.449 101.718 588.818 105.025 588.818 108.473C588.818 111.92 587.449 115.227 585.011 117.665C582.573 120.103 579.266 121.473 575.818 121.473V121.473Z" fill="#1C9962"/>
<path d="M394.728 103.119L394.699 105.119L497.118 106.599L497.147 104.599L394.728 103.119Z" fill="#3F3D56"/>
<path d="M390.429 109.544C389.198 109.547 388.009 109.097 387.09 108.279C386.17 107.462 385.583 106.334 385.441 105.112C385.3 103.889 385.613 102.657 386.322 101.651C387.03 100.645 388.085 99.935 389.283 99.6564C390.482 99.3778 391.741 99.5502 392.821 100.141C393.9 100.731 394.725 101.699 395.137 102.858C395.549 104.018 395.52 105.289 395.055 106.428C394.59 107.567 393.721 108.496 392.616 109.036C391.935 109.369 391.187 109.542 390.429 109.544V109.544ZM390.422 101.54C389.77 101.54 389.136 101.752 388.615 102.144C388.094 102.536 387.716 103.087 387.536 103.714C387.356 104.341 387.385 105.009 387.619 105.617C387.852 106.226 388.277 106.742 388.83 107.088C389.383 107.433 390.033 107.59 390.683 107.533C391.332 107.476 391.946 107.21 392.43 106.774C392.915 106.337 393.244 105.755 393.369 105.116C393.493 104.476 393.406 103.813 393.121 103.227V103.226C392.873 102.721 392.49 102.295 392.013 101.997C391.535 101.699 390.984 101.54 390.422 101.54V101.54Z" fill="#3F3D56"/>
<path d="M604.162 269.548L588.768 270.231C585.299 279.664 587.756 302.566 587.756 302.566L579.669 340.2C578.822 341.043 578.212 342.094 577.901 343.248C577.59 344.402 577.588 345.617 577.895 346.772C578.203 347.927 578.81 348.98 579.654 349.826C580.498 350.672 581.55 351.281 582.704 351.591C583.859 351.901 585.074 351.901 586.229 351.592C587.383 351.283 588.436 350.675 589.28 349.83C590.125 348.985 590.733 347.932 591.041 346.777C591.35 345.623 591.349 344.407 591.038 343.253L607.462 298.126L604.162 269.548Z" fill="#9E616A"/>
<path d="M593.921 228.387C596.309 228.309 598.685 228.757 600.88 229.701C603.074 230.645 605.034 232.061 606.619 233.848C608.205 235.635 609.376 237.75 610.052 240.042C610.727 242.334 610.888 244.746 610.525 247.107L609.046 256.723C609.046 256.723 613.276 289.457 608.119 298.366L598.284 324.999L582.238 324.178L586.674 295.095C586.674 295.095 587.794 280.7 583.699 274.611C581.191 270.882 578.642 256.847 578.206 245.122C578.137 242.99 578.488 240.866 579.241 238.871C579.994 236.876 581.133 235.049 582.593 233.495C584.052 231.94 585.804 230.689 587.748 229.813C589.692 228.936 591.79 228.452 593.921 228.387V228.387Z" fill="#3F3D56"/>
<path d="M582.798 514.593L572.803 514.592L568.047 476.036H582.801L582.798 514.593Z" fill="#9E616A"/>
<path d="M583.151 525.02L552.412 525.019V524.63C552.412 521.457 553.673 518.414 555.917 516.17C558.16 513.927 561.203 512.666 564.377 512.666H564.377L569.992 508.406L580.468 512.667L583.151 512.667L583.151 525.02Z" fill="#2F2E41"/>
<path d="M546.681 514.593L536.686 514.592L531.93 476.036H546.684L546.681 514.593Z" fill="#9E616A"/>
<path d="M547.034 525.02L516.295 525.019V524.63C516.295 521.457 517.556 518.414 519.799 516.17C522.043 513.927 525.086 512.666 528.259 512.666H528.26L533.875 508.406L544.351 512.667L547.034 512.667L547.034 525.02Z" fill="#2F2E41"/>
<path d="M510.385 409.522C516.321 428.433 518.6 443.27 523.125 461.995C524.911 465.283 532.602 492.599 532.602 492.599C532.602 492.599 544.128 493.864 548.205 490.638C552.282 487.412 548.081 471.447 548.081 471.447C550.769 459.377 544.144 440.359 543.752 428.658C544.567 423.747 540.245 419.531 539.849 414.847C542.707 412.673 556.608 378.55 559.442 369.015C557.985 398.068 570.766 464.405 564.032 486.442C560.12 499.246 569.214 496.4 582.681 497.019C588.685 495.235 586.243 484.957 586.243 484.957C586.243 484.957 590.32 478.169 590.32 475.536C593.239 463.218 596.747 436.423 595.789 430.402C596.228 424.011 596.445 360.156 601.327 337.789C604.58 319.973 564.708 316.051 553.242 311.802C534.108 302.584 537.337 315.69 527.26 327.763C517.544 348.574 511.821 385.737 510.385 409.522Z" fill="#2F2E41"/>
<path d="M555.051 222.225L566.675 209.137L585.042 211.178L596.801 227.635C609.798 230.626 612.195 241.252 609.913 254.391C605.349 280.668 594.085 299.035 599.205 312C606.978 331.681 603.209 346.825 584.603 344.066C565.996 341.307 523.12 323.086 535.205 311C547.291 298.914 536.485 292.579 536.485 292.579L544.97 246.375C542.797 234.592 543.133 223.459 555.051 222.225V222.225Z" fill="#3F3D56"/>
<path d="M556.545 263.704L541.896 258.926C535.329 266.535 529.569 288.836 529.569 288.836L508.755 321.216C507.665 321.707 506.725 322.477 506.027 323.447C505.329 324.418 504.9 325.555 504.782 326.744C504.663 327.933 504.86 329.133 505.353 330.222C505.845 331.311 506.616 332.251 507.587 332.947C508.558 333.643 509.696 334.071 510.885 334.188C512.075 334.305 513.274 334.107 514.362 333.613C515.45 333.119 516.389 332.348 517.085 331.375C517.78 330.403 518.207 329.265 518.322 328.076L549.577 291.615L556.545 263.704Z" fill="#9E616A"/>
<path d="M561.445 221.573C563.707 222.34 565.773 223.596 567.495 225.251C569.217 226.907 570.553 228.922 571.408 231.153C572.263 233.384 572.616 235.776 572.441 238.159C572.267 240.541 571.569 242.856 570.398 244.939L565.63 253.419C565.63 253.419 558.068 285.548 550.106 292.072L531.528 313.539L516.797 307.124L531.185 281.463C531.185 281.463 537.298 268.383 535.608 261.242C534.574 256.869 537.127 242.835 540.845 231.706C541.53 229.687 542.607 227.823 544.014 226.22C545.421 224.617 547.13 223.308 549.043 222.367C550.956 221.426 553.037 220.871 555.165 220.735C557.293 220.599 559.427 220.883 561.445 221.573V221.573Z" fill="#3F3D56"/>
<path d="M580.318 206.346C590.804 206.346 599.305 197.846 599.305 187.36C599.305 176.874 590.804 168.374 580.318 168.374C569.833 168.374 561.332 176.874 561.332 187.36C561.332 197.846 569.833 206.346 580.318 206.346Z" fill="#A0616A"/>
<path d="M563.789 170.276C564.073 168.699 564.708 167.206 565.647 165.907C566.12 165.345 566.707 164.889 567.368 164.568C568.03 164.248 568.752 164.071 569.486 164.049C570.221 164.026 570.952 164.159 571.632 164.439C572.312 164.718 572.925 165.138 573.431 165.671C573.134 164.808 573.048 163.886 573.179 162.983C574.566 163.648 576.049 164.089 577.574 164.29L574.205 160.772C581.127 157.697 586.846 157.863 590.976 162.313C592.158 163.587 594.579 162.698 595.85 164.012C597.121 165.327 597.191 168.134 595.585 168.867C598.75 167.675 602.386 169.406 604.474 172.305C606.563 175.204 607.332 179.028 607.473 182.738C607.656 187.549 606.759 192.671 603.823 196.213C601.903 198.529 599.284 199.973 597.159 202.057L597.096 202.119C594.768 204.506 591.851 206.235 588.639 207.13C585.427 208.024 582.036 208.053 578.81 207.213C578.447 207.114 578.088 207.003 577.726 206.9C575.919 207.717 573.668 206.6 572.527 204.782C571.31 202.844 571.07 200.364 571.019 198.002C570.951 194.913 571.142 191.824 571.588 188.766C572.091 185.323 572.544 180.913 569.817 179.184C567.694 177.837 565.056 179.166 562.919 180.485C562.714 177.058 563.007 173.619 563.789 170.276V170.276Z" fill="#2F2E41"/>
<path d="M749.941 526.604L1.19115 526.911C0.875955 526.91 0.573992 526.785 0.35144 526.561C0.128889 526.338 0.00390625 526.036 0.00390625 525.721C0.00390625 525.405 0.128889 525.103 0.35144 524.88C0.573992 524.657 0.875955 524.531 1.19115 524.53L749.941 524.223C750.257 524.223 750.56 524.348 750.783 524.571C751.006 524.795 751.132 525.098 751.132 525.413C751.132 525.729 751.006 526.032 750.783 526.255C750.56 526.479 750.257 526.604 749.941 526.604V526.604Z" fill="#CACACA"/>
</svg>
