<svg width="752" height="559" viewBox="0 0 752 559" fill="none" xmlns="http://www.w3.org/2000/svg">
<path d="M641.234 553.957C649.204 535.287 654.824 514.967 652.164 494.857C651.252 488.038 649.268 481.406 646.284 475.207C643.88 470.154 640.777 465.464 637.064 461.277C635.781 459.8 634.019 458.821 632.087 458.51C630.155 458.2 628.176 458.577 626.494 459.577C626.234 459.727 625.974 459.887 625.734 460.057C624.432 460.974 623.405 462.23 622.764 463.687C622.64 463.966 622.536 464.253 622.454 464.547C622.087 465.775 621.988 467.068 622.164 468.337C623.566 478.687 623.262 489.196 621.264 499.447C620.754 502.057 620.131 504.644 619.394 507.207C617.74 505.142 615.981 503.163 614.124 501.277C609.31 496.399 603.759 492.309 597.674 489.157H597.664C597.634 489.137 597.614 489.127 597.584 489.107C590.204 485.347 580.364 486.907 574.614 489.467C574.234 489.627 573.874 489.807 573.524 489.977C570.524 491.517 569.034 493.287 570.314 494.447C570.604 494.697 570.894 494.957 571.164 495.217C579.881 503.276 587.023 512.886 592.224 523.557V523.567C594.291 527.816 596.033 532.215 597.434 536.727C599.364 542.957 600.964 549.867 604.734 554.947C605.12 555.482 605.537 555.993 605.984 556.477L639.664 556.207C639.744 556.167 639.814 556.137 639.894 556.097L641.234 556.147C641.184 555.907 641.124 555.667 641.064 555.427V555.407C641.034 555.277 640.994 555.137 640.964 555.017C640.934 554.917 640.914 554.827 640.894 554.747C640.954 554.597 641.014 554.457 641.084 554.307C641.134 554.187 641.184 554.077 641.234 553.957Z" fill="#F0F0F0"/>
<path d="M641.065 555.407C641.055 555.482 641.026 555.553 640.98 555.613C640.934 555.673 640.874 555.721 640.805 555.751C640.735 555.781 640.659 555.793 640.584 555.785C640.509 555.778 640.437 555.751 640.375 555.707C638.991 554.703 637.473 553.899 635.865 553.317C635.855 553.307 635.855 553.317 635.855 553.317C633.826 552.588 631.739 552.032 629.615 551.657C629.595 551.657 629.585 551.647 629.565 551.647C628.705 551.477 627.845 551.327 626.985 551.167C622.805 550.397 618.555 549.467 614.935 547.087C613.462 546.175 612.199 544.961 611.229 543.525C610.258 542.089 609.603 540.464 609.305 538.757C608.775 535.407 609.445 532.037 609.725 528.697C609.745 528.457 609.765 528.207 609.775 527.967C609.795 527.657 609.805 527.357 609.805 527.057C609.908 524.025 609.299 521.011 608.025 518.257C606.39 514.961 604.243 511.943 601.665 509.317C600.335 507.887 598.949 506.511 597.505 505.187H597.495C597.435 505.127 597.385 505.077 597.325 505.027C597.325 505.017 597.315 505.007 597.305 504.997C591.134 499.391 584.135 494.77 576.555 491.297C576.285 491.177 576.005 491.047 575.725 490.927C574.995 490.597 574.265 490.287 573.525 489.977C573.875 489.807 574.235 489.627 574.615 489.467C583.07 493.043 590.872 497.997 597.705 504.127C597.935 504.327 598.165 504.537 598.385 504.747C600.115 506.347 601.762 508.024 603.325 509.777C605.825 512.47 607.851 515.567 609.315 518.937C610.389 521.664 610.863 524.591 610.705 527.517C610.685 528.077 610.645 528.637 610.595 529.207C610.285 532.577 609.595 536.057 610.365 539.427C611.245 543.267 614.225 545.947 617.685 547.587C619.976 548.608 622.379 549.354 624.845 549.807C629.945 550.877 635.215 551.397 639.675 554.137H639.685C639.755 554.187 639.825 554.227 639.885 554.267C639.895 554.267 639.895 554.267 639.895 554.277C640.217 554.469 640.528 554.679 640.825 554.907C640.845 554.917 640.865 554.937 640.885 554.947C640.914 554.968 640.941 554.991 640.965 555.017C641.012 555.07 641.045 555.132 641.062 555.2C641.079 555.268 641.081 555.339 641.065 555.407Z" fill="white"/>
<path d="M598.122 505.09C599.939 502.836 600.896 500.01 600.822 497.116C600.748 494.222 599.647 491.449 597.717 489.291C597.325 488.856 596.63 489.445 597.023 489.88C598.824 491.886 599.849 494.47 599.912 497.165C599.976 499.86 599.074 502.489 597.369 504.578C596.999 505.032 597.754 505.542 598.122 505.09Z" fill="white"/>
<path d="M610.095 527.026C604.216 527.71 598.296 526.152 593.515 522.665C593.042 522.319 592.53 523.072 593.002 523.417C597.985 527.037 604.149 528.646 610.264 527.921C610.847 527.851 610.674 526.957 610.095 527.026Z" fill="white"/>
<path d="M576.614 491.187C576.594 491.227 576.574 491.257 576.554 491.297C576.003 492.31 575.234 493.187 574.301 493.865C573.369 494.543 572.298 495.005 571.164 495.217C570.894 494.957 570.604 494.697 570.314 494.447C570.36 494.419 570.411 494.402 570.464 494.397C571.554 494.277 572.599 493.9 573.513 493.297C574.428 492.694 575.186 491.881 575.724 490.927C575.774 490.847 575.824 490.757 575.864 490.677C575.898 490.628 575.94 490.585 575.99 490.552C576.04 490.52 576.096 490.497 576.154 490.486C576.213 490.475 576.273 490.475 576.332 490.487C576.39 490.5 576.445 490.523 576.494 490.557C576.591 490.627 576.656 490.732 576.679 490.849C576.701 490.965 576.678 491.087 576.614 491.187Z" fill="white"/>
<path d="M73.2613 5.44312C55.2811 5.46339 38.0431 12.615 25.3292 25.3289C12.6152 38.0429 5.46363 55.2808 5.44336 73.261V333.161C5.46363 351.141 12.6152 368.379 25.3292 381.093C38.0431 393.807 55.2811 400.958 73.2613 400.979H677.894C695.874 400.958 713.112 393.807 725.826 381.093C738.54 368.379 745.692 351.141 745.712 333.161V73.261C745.692 55.2808 738.54 38.0429 725.826 25.3289C713.112 12.615 695.874 5.46339 677.894 5.44312H73.2613Z" fill="white"/>
<path d="M677.894 406.422H73.261C53.8377 406.4 35.2162 398.674 21.4818 384.94C7.74743 371.206 0.0218624 352.584 0 333.161V73.2611C0.0218624 53.8377 7.74743 35.2162 21.4818 21.4819C35.2162 7.74749 53.8377 0.0219234 73.261 6.10352e-05H677.894C697.317 0.0219102 715.939 7.74747 729.673 21.4818C743.407 35.2162 751.133 53.8377 751.155 73.2611V333.161C751.133 352.584 743.407 371.206 729.673 384.94C715.939 398.675 697.317 406.4 677.894 406.422V406.422ZM73.261 10.8863C56.7239 10.905 40.8695 17.4826 29.176 29.1761C17.4826 40.8696 10.905 56.724 10.8863 73.2611V333.161C10.905 349.698 17.4826 365.552 29.176 377.246C40.8695 388.939 56.7239 395.517 73.261 395.536H677.894C694.431 395.517 710.285 388.939 721.979 377.246C733.672 365.552 740.25 349.698 740.268 333.161V73.2611C740.25 56.724 733.672 40.8696 721.979 29.1761C710.285 17.4826 694.431 10.905 677.894 10.8863H73.261Z" fill="#E6E6E6"/>
<path d="M377.201 59.2527H89.6574C83.5205 59.2633 77.638 61.7059 73.2985 66.0453C68.959 70.3848 66.5164 76.2674 66.5059 82.4043V212.096C66.5033 213.472 66.631 214.845 66.887 216.197C66.9777 216.814 67.1229 217.413 67.2679 218.011C68.5851 222.947 71.4926 227.31 75.5401 230.426C79.5876 233.542 84.5494 235.237 89.6574 235.248H377.201C377.673 235.248 378.144 235.23 378.598 235.193H378.925V235.175C379.016 235.178 379.107 235.172 379.197 235.157C379.287 235.157 379.396 235.139 379.487 235.139C379.518 235.142 379.55 235.136 379.578 235.121C379.777 235.103 379.977 235.085 380.158 235.066C380.485 235.012 380.812 234.976 381.12 234.921C381.161 234.907 381.204 234.9 381.247 234.903C381.303 234.875 381.366 234.863 381.428 234.867C381.436 234.86 381.444 234.855 381.454 234.852C381.463 234.849 381.473 234.848 381.483 234.849C381.683 234.813 381.882 234.776 382.082 234.722C382.192 234.706 382.301 234.682 382.408 234.649C382.807 234.559 383.207 234.468 383.588 234.341C383.769 234.286 383.932 234.25 384.114 234.196C384.35 234.123 384.604 234.032 384.84 233.942C384.963 233.908 385.084 233.865 385.202 233.815C385.216 233.814 385.23 233.811 385.243 233.805C385.255 233.798 385.266 233.789 385.275 233.778C385.8 233.593 386.314 233.381 386.817 233.143C387.253 232.944 387.67 232.726 388.087 232.508C388.251 232.436 388.396 232.345 388.559 232.254C388.599 232.237 388.636 232.212 388.668 232.182C389.085 231.928 389.503 231.674 389.902 231.438C389.92 231.42 389.92 231.402 389.938 231.402C389.94 231.402 389.943 231.401 389.945 231.4C389.947 231.399 389.949 231.398 389.951 231.396C389.953 231.395 389.954 231.393 389.955 231.39C389.956 231.388 389.956 231.386 389.956 231.383C390.383 231.116 390.795 230.825 391.19 230.513H391.208C391.317 230.422 391.408 230.349 391.498 230.277C391.625 230.186 391.752 230.077 391.861 229.986C392.079 229.805 392.297 229.623 392.496 229.442C392.619 229.349 392.735 229.246 392.841 229.134C393.149 228.861 393.44 228.571 393.73 228.281C393.885 228.133 394.03 227.975 394.165 227.809C394.391 227.593 394.603 227.362 394.8 227.12C394.982 226.884 395.182 226.648 395.363 226.412C395.578 226.164 395.778 225.904 395.962 225.632C396.288 225.196 396.579 224.761 396.869 224.289C397.105 223.908 397.341 223.509 397.558 223.11C397.667 222.91 397.776 222.692 397.885 222.475C397.903 222.475 397.903 222.457 397.903 222.439C398.103 222.057 398.284 221.676 398.447 221.277C398.52 221.114 398.593 220.969 398.647 220.806C398.792 220.497 398.901 220.171 399.028 219.844C399.228 219.245 399.427 218.628 399.59 218.011C399.736 217.413 399.881 216.814 399.971 216.197C400.227 214.845 400.355 213.472 400.352 212.097V82.4043C400.342 76.2674 397.899 70.3848 393.56 66.0453C389.22 61.7059 383.338 59.2633 377.201 59.2527V59.2527Z" fill="#755EA4"/>
<path opacity="0.3" d="M400.352 96.4476H66.5059V98.262H400.352V96.4476Z" fill="white"/>
<path opacity="0.3" d="M400.352 116.406H66.5059V118.22H400.352V116.406Z" fill="white"/>
<path opacity="0.3" d="M400.352 136.364H66.5059V138.178H400.352V136.364Z" fill="white"/>
<path opacity="0.3" d="M400.352 156.322H66.5059V158.137H400.352V156.322Z" fill="white"/>
<path opacity="0.3" d="M400.352 176.28H66.5059V178.095H400.352V176.28Z" fill="white"/>
<path opacity="0.3" d="M400.352 196.239H66.5059V198.053H400.352V196.239Z" fill="white"/>
<path opacity="0.3" d="M399.972 216.197C399.881 216.814 399.736 217.412 399.591 218.011H66.7607C66.6513 217.411 66.5786 216.806 66.543 216.197H399.972Z" fill="white"/>
<g opacity="0.1">
<path opacity="0.1" d="M400.352 184.01V212.096C400.355 213.472 400.227 214.845 399.971 216.197C399.881 216.814 399.736 217.412 399.59 218.011C399.427 218.628 399.228 219.245 399.028 219.844C398.901 220.17 398.792 220.497 398.647 220.805C398.593 220.969 398.52 221.114 398.447 221.277C398.284 221.676 398.103 222.057 397.903 222.438C397.903 222.457 397.903 222.475 397.885 222.475C397.776 222.692 397.667 222.91 397.558 223.11C397.341 223.509 397.105 223.908 396.869 224.289C396.578 224.761 396.288 225.196 395.962 225.632C395.778 225.904 395.578 226.164 395.363 226.412C395.182 226.648 394.982 226.884 394.8 227.119C394.603 227.362 394.391 227.592 394.165 227.809C394.03 227.975 393.885 228.133 393.73 228.281C393.44 228.571 393.149 228.861 392.841 229.133C392.735 229.246 392.619 229.349 392.496 229.442C392.297 229.623 392.079 229.805 391.861 229.986C391.752 230.077 391.625 230.186 391.498 230.277C391.408 230.349 391.317 230.422 391.208 230.512H391.19C390.795 230.825 390.383 231.116 389.956 231.383C389.956 231.386 389.956 231.388 389.955 231.39C389.954 231.393 389.953 231.395 389.951 231.396C389.949 231.398 389.947 231.399 389.945 231.4C389.943 231.401 389.94 231.401 389.938 231.401C389.92 231.401 389.92 231.42 389.902 231.438C389.648 231.619 389.375 231.782 389.103 231.946C388.958 232.036 388.813 232.109 388.668 232.182C388.636 232.212 388.599 232.236 388.559 232.254C388.396 232.345 388.251 232.436 388.087 232.508C387.67 232.726 387.253 232.944 386.817 233.143C386.314 233.381 385.8 233.593 385.275 233.778C385.266 233.789 385.255 233.798 385.243 233.805C385.23 233.811 385.216 233.814 385.202 233.814C385.084 233.865 384.963 233.907 384.839 233.941C384.604 234.032 384.35 234.123 384.114 234.195C383.932 234.25 383.769 234.286 383.588 234.341C383.207 234.468 382.807 234.558 382.408 234.649C382.301 234.682 382.192 234.706 382.082 234.722C381.882 234.776 381.683 234.812 381.483 234.849C381.473 234.847 381.463 234.848 381.454 234.852C381.444 234.855 381.436 234.86 381.428 234.867C381.366 234.863 381.303 234.875 381.247 234.903C381.204 234.9 381.161 234.906 381.12 234.921C380.812 234.976 380.485 235.012 380.158 235.066C379.977 235.084 379.777 235.103 379.578 235.121C379.55 235.135 379.518 235.142 379.487 235.139C379.288 235.157 379.106 235.175 378.925 235.193H378.888C378.689 235.211 378.489 235.211 378.29 235.23C377.927 235.248 377.564 235.248 377.201 235.248H89.6574C84.5494 235.237 79.5876 233.542 75.5401 230.426C71.4925 227.31 68.5851 222.946 67.2679 218.011H66.7599C66.6505 217.411 66.5778 216.805 66.5422 216.197C66.524 215.852 66.5059 215.489 66.5059 215.144V183.502C70.314 183.614 74.0905 184.23 77.7369 185.334C87.6071 188.346 97.2052 193.444 107.511 193.444C108.327 193.444 109.18 193.408 110.015 193.336C120.865 192.428 129.302 185.697 136.323 178.095C136.886 177.496 137.448 176.897 137.974 176.28C139.299 174.811 140.569 173.305 141.803 171.817C145.745 166.839 150.162 162.257 154.993 158.137C155.774 157.502 156.554 156.903 157.352 156.322C162.037 152.828 167.554 150.62 173.355 149.917C174.099 149.845 174.843 149.79 175.587 149.772C183.352 149.536 190.646 152.331 197.287 156.322C198.248 156.903 199.21 157.502 200.135 158.137C203.31 160.289 206.369 162.609 209.298 165.086C213.82 169.058 218.543 172.794 223.45 176.28C223.813 176.534 224.176 176.788 224.539 177.006C225.101 177.387 225.682 177.75 226.262 178.095C231.233 181.29 236.822 183.398 242.664 184.282C242.864 184.318 243.082 184.354 243.299 184.373C252.752 185.479 261.552 182.685 269.59 178.095C270.588 177.514 271.604 176.915 272.584 176.28C278.862 172.107 284.747 167.37 290.165 162.128C291.58 160.804 293.014 159.461 294.501 158.137C295.173 157.538 295.844 156.921 296.534 156.322C307.311 146.851 319.739 138.178 334.418 138.178C335.035 138.178 335.67 138.197 336.305 138.233C346.864 138.741 356.136 143.857 363.92 150.353C366.181 152.229 368.343 154.221 370.397 156.322C370.488 156.413 370.56 156.485 370.651 156.576C371.159 157.084 371.667 157.61 372.139 158.137C377.945 164.215 383.297 170.71 389.611 176.28C390.301 176.915 391.008 177.514 391.734 178.095C393.911 179.902 396.216 181.552 398.629 183.03C399.191 183.375 399.772 183.701 400.352 184.01Z" fill="black"/>
</g>
<g opacity="0.1">
<path opacity="0.1" d="M400.352 156.594V212.096C400.355 213.472 400.227 214.845 399.971 216.197C399.881 216.814 399.736 217.412 399.59 218.011C399.427 218.628 399.228 219.245 399.028 219.844C398.901 220.17 398.792 220.497 398.647 220.805C398.593 220.969 398.52 221.114 398.447 221.277C398.284 221.676 398.103 222.057 397.903 222.438C397.903 222.457 397.903 222.475 397.885 222.475C397.776 222.692 397.667 222.91 397.558 223.11C397.341 223.509 397.105 223.908 396.869 224.289C396.578 224.761 396.288 225.196 395.962 225.632C395.778 225.904 395.578 226.164 395.363 226.412C395.182 226.648 394.982 226.884 394.8 227.119C394.603 227.362 394.391 227.592 394.165 227.809C394.03 227.975 393.885 228.133 393.73 228.281C393.44 228.571 393.149 228.861 392.841 229.133C392.735 229.246 392.619 229.349 392.496 229.442C392.297 229.623 392.079 229.805 391.861 229.986C391.752 230.077 391.625 230.186 391.498 230.277C391.408 230.349 391.317 230.422 391.208 230.512H391.19C390.795 230.825 390.383 231.116 389.956 231.383C389.956 231.386 389.956 231.388 389.955 231.39C389.954 231.393 389.953 231.395 389.951 231.396C389.949 231.398 389.947 231.399 389.945 231.4C389.943 231.401 389.94 231.401 389.938 231.401C389.92 231.401 389.92 231.42 389.902 231.438C389.648 231.619 389.375 231.782 389.103 231.946C388.958 232.036 388.813 232.109 388.668 232.182C388.636 232.212 388.599 232.236 388.559 232.254C388.396 232.345 388.251 232.436 388.087 232.508C387.67 232.726 387.253 232.944 386.817 233.143C386.314 233.381 385.8 233.593 385.275 233.778C385.266 233.789 385.255 233.798 385.243 233.805C385.23 233.811 385.216 233.814 385.202 233.814C385.084 233.865 384.963 233.907 384.839 233.941C384.604 234.032 384.35 234.123 384.114 234.195C383.932 234.25 383.769 234.286 383.588 234.341C383.207 234.468 382.807 234.558 382.408 234.649C382.301 234.682 382.192 234.706 382.082 234.722C381.882 234.776 381.683 234.812 381.483 234.849C381.473 234.847 381.463 234.848 381.454 234.852C381.444 234.855 381.436 234.86 381.428 234.867C381.366 234.863 381.303 234.875 381.247 234.903C381.204 234.9 381.161 234.906 381.12 234.921C380.812 234.976 380.485 235.012 380.158 235.066C379.977 235.084 379.777 235.103 379.578 235.121C379.55 235.135 379.518 235.142 379.487 235.139C379.396 235.139 379.287 235.157 379.197 235.157C379.107 235.172 379.016 235.178 378.925 235.175C378.847 235.191 378.768 235.197 378.689 235.193H378.598C378.507 235.211 378.398 235.211 378.29 235.23C377.927 235.248 377.564 235.248 377.201 235.248H89.6574C84.5494 235.237 79.5876 233.542 75.5401 230.426C71.4926 227.31 68.5851 222.946 67.2679 218.011C67.1229 217.412 66.9777 216.814 66.887 216.197C66.631 214.845 66.5033 213.472 66.5059 212.096V179.782C67.1409 179.238 67.7578 178.675 68.3748 178.095C69.0098 177.496 69.6266 176.897 70.2435 176.28C75.648 170.655 80.5702 164.586 84.9582 158.137C85.1033 157.937 85.2485 157.756 85.3755 157.556C85.6658 157.139 85.956 156.74 86.2645 156.322C90.6649 149.882 95.5863 143.814 100.979 138.178C101.596 137.562 102.213 136.963 102.848 136.364C109.597 130.014 117.29 125.278 126.362 124.153C138.864 122.593 150.494 128.381 160.781 136.364C161.543 136.963 162.287 137.562 163.031 138.178C166.551 141.045 169.889 144.166 173.046 147.268C173.881 148.103 174.734 148.938 175.587 149.772C177.782 151.968 180.032 154.163 182.3 156.322C182.953 156.939 183.588 157.538 184.241 158.137C193.313 166.537 203.129 173.922 214.795 176.28C215.594 176.444 216.41 176.589 217.227 176.698C221.635 177.285 226.109 177.144 230.472 176.28C231.198 176.153 231.905 175.99 232.631 175.809C243.553 173.105 253.678 166.301 262.84 158.137C263.494 157.538 264.165 156.939 264.818 156.322C269.499 151.986 273.944 147.341 278.099 142.769C279.478 141.245 280.893 139.702 282.309 138.178C282.889 137.58 283.452 136.981 284.014 136.364C290.086 129.746 296.728 123.675 303.864 118.22C304.716 117.585 305.569 116.986 306.422 116.406C316.02 109.856 326.507 105.647 338.028 106.318C347.536 106.862 356.227 110.781 364.047 116.406C364.845 116.986 365.643 117.585 366.442 118.22C372.393 123.001 377.823 128.395 382.644 134.314C383.207 134.985 383.769 135.675 384.331 136.364C384.622 136.709 384.894 137.072 385.184 137.416L385.783 138.178C390.591 144.184 395.218 150.426 400.135 156.322L400.352 156.594Z" fill="black"/>
</g>
<g opacity="0.1">
<path opacity="0.1" d="M400.352 133.679V212.096C400.355 213.472 400.227 214.845 399.971 216.197C399.881 216.814 399.736 217.412 399.59 218.011C399.427 218.628 399.228 219.245 399.028 219.844C398.901 220.17 398.792 220.497 398.647 220.805C398.593 220.969 398.52 221.114 398.447 221.277C398.284 221.676 398.103 222.057 397.903 222.438C397.903 222.457 397.903 222.475 397.885 222.475C397.776 222.692 397.667 222.91 397.558 223.11C397.341 223.509 397.105 223.908 396.869 224.289C396.578 224.761 396.288 225.196 395.962 225.632C395.778 225.904 395.578 226.164 395.363 226.412C395.182 226.648 394.982 226.884 394.8 227.119C394.603 227.362 394.391 227.592 394.165 227.809C394.03 227.975 393.885 228.133 393.73 228.281C393.44 228.571 393.149 228.861 392.841 229.133C392.735 229.246 392.619 229.349 392.496 229.442C392.297 229.623 392.079 229.805 391.861 229.986C391.752 230.077 391.625 230.186 391.498 230.277C391.408 230.349 391.317 230.422 391.208 230.512H391.19C390.795 230.825 390.383 231.116 389.956 231.383C389.956 231.386 389.956 231.388 389.955 231.39C389.954 231.393 389.953 231.395 389.951 231.396C389.949 231.398 389.947 231.399 389.945 231.4C389.943 231.401 389.94 231.401 389.938 231.401C389.92 231.401 389.92 231.42 389.902 231.438C389.648 231.619 389.375 231.782 389.103 231.946C388.958 232.036 388.813 232.109 388.668 232.182C388.636 232.212 388.599 232.236 388.559 232.254C388.396 232.345 388.251 232.436 388.087 232.508C387.67 232.726 387.253 232.944 386.817 233.143C386.314 233.381 385.8 233.593 385.275 233.778C385.266 233.789 385.255 233.798 385.243 233.805C385.23 233.811 385.216 233.814 385.202 233.814C385.084 233.865 384.963 233.907 384.839 233.941C384.604 234.032 384.35 234.123 384.114 234.195C383.932 234.25 383.769 234.286 383.588 234.341C383.207 234.468 382.807 234.558 382.408 234.649C382.301 234.682 382.192 234.706 382.082 234.722C381.882 234.776 381.683 234.812 381.483 234.849C381.473 234.847 381.463 234.848 381.454 234.852C381.444 234.855 381.436 234.86 381.428 234.867C381.366 234.863 381.303 234.875 381.247 234.903C381.204 234.9 381.161 234.906 381.12 234.921C380.812 234.976 380.485 235.012 380.158 235.066C379.977 235.084 379.777 235.103 379.578 235.121C379.55 235.135 379.518 235.142 379.487 235.139C379.396 235.139 379.287 235.157 379.197 235.157C379.107 235.172 379.016 235.178 378.925 235.175C378.915 235.185 378.902 235.191 378.888 235.193H378.598C378.144 235.23 377.673 235.248 377.201 235.248H89.6574C84.5494 235.237 79.5876 233.542 75.5401 230.426C71.4926 227.31 68.5851 222.946 67.2679 218.011C67.1229 217.412 66.9777 216.814 66.887 216.197C66.631 214.845 66.5033 213.472 66.5059 212.096V165.249C68.3384 162.872 70.177 160.501 72.0216 158.137C72.4933 157.52 72.9651 156.921 73.4369 156.322C75.9226 153.129 78.4264 149.972 81.0028 146.887C83.4704 143.93 86.065 141.009 88.7684 138.178C89.3491 137.58 89.9295 136.963 90.5283 136.364C97.4115 129.193 105.317 123.079 113.988 118.22C115.168 117.567 116.365 116.968 117.581 116.406C124.018 113.332 130.983 111.516 138.102 111.053C147.439 110.587 156.749 112.425 165.208 116.406C166.478 116.95 167.73 117.567 168.964 118.22C177.836 122.792 186.165 129.197 193.966 136.364C194.638 136.945 195.273 137.561 195.926 138.178C202.113 143.984 207.973 150.208 213.562 156.322C213.979 156.776 214.396 157.248 214.814 157.701C214.941 157.846 215.086 157.991 215.213 158.137C220.656 164.124 226.462 170.184 232.631 175.809C232.794 175.972 232.976 176.117 233.157 176.28C233.828 176.897 234.5 177.496 235.189 178.095C237.62 180.254 240.124 182.322 242.664 184.282C248.684 189.023 255.243 193.037 262.205 196.239C263.675 196.91 265.163 197.509 266.669 198.053C274.965 201.221 283.917 202.281 292.723 201.138C296.768 200.578 300.733 199.542 304.535 198.053C305.986 197.509 307.402 196.892 308.799 196.239C317.998 191.884 326.307 185.298 334.182 178.095C334.835 177.496 335.488 176.897 336.141 176.28C340.623 172.071 344.977 167.698 349.278 163.471C351.092 161.693 352.943 159.897 354.848 158.137C355.501 157.538 356.172 156.939 356.844 156.322C359.13 154.272 361.488 152.258 363.92 150.353C369.863 145.489 376.398 141.399 383.37 138.178C383.969 137.906 384.585 137.652 385.184 137.416C386.11 137.035 387.035 136.691 387.96 136.364C391.956 134.932 396.122 134.029 400.352 133.679Z" fill="black"/>
</g>
<path d="M138.174 121.849C141.18 121.849 143.617 119.412 143.617 116.406C143.617 113.4 141.18 110.963 138.174 110.963C135.167 110.963 132.73 113.4 132.73 116.406C132.73 119.412 135.167 121.849 138.174 121.849Z" fill="white"/>
<path d="M221.637 181.724C224.643 181.724 227.08 179.287 227.08 176.28C227.08 173.274 224.643 170.837 221.637 170.837C218.63 170.837 216.193 173.274 216.193 176.28C216.193 179.287 218.63 181.724 221.637 181.724Z" fill="white"/>
<path d="M334.127 141.807C337.133 141.807 339.57 139.37 339.57 136.364C339.57 133.358 337.133 130.921 334.127 130.921C331.121 130.921 328.684 133.358 328.684 136.364C328.684 139.37 331.121 141.807 334.127 141.807Z" fill="white"/>
<path d="M581.718 182.806H453.37C452.762 182.805 452.159 182.924 451.596 183.156C451.033 183.389 450.522 183.73 450.091 184.16C449.66 184.59 449.319 185.101 449.086 185.663C448.852 186.225 448.732 186.828 448.732 187.437C448.732 188.046 448.852 188.648 449.086 189.211C449.319 189.773 449.66 190.284 450.091 190.714C450.522 191.144 451.033 191.485 451.596 191.717C452.159 191.95 452.762 192.069 453.37 192.068H581.718C582.946 192.068 584.124 191.58 584.993 190.712C585.861 189.843 586.349 188.665 586.349 187.437C586.349 186.209 585.861 185.031 584.993 184.162C584.124 183.294 582.946 182.806 581.718 182.806V182.806Z" fill="#E6E6E6"/>
<path d="M581.719 252.934H453.371C452.143 252.934 450.965 253.422 450.097 254.29C449.228 255.159 448.74 256.337 448.74 257.565C448.74 258.793 449.228 259.971 450.097 260.84C450.965 261.708 452.143 262.196 453.371 262.196H581.719C582.947 262.196 584.125 261.708 584.994 260.84C585.862 259.971 586.35 258.793 586.35 257.565C586.35 256.337 585.862 255.159 584.994 254.29C584.125 253.422 582.947 252.934 581.719 252.934V252.934Z" fill="#E6E6E6"/>
<path d="M581.719 323.062H453.371C452.143 323.062 450.965 323.55 450.097 324.418C449.228 325.287 448.74 326.465 448.74 327.693C448.74 328.921 449.228 330.099 450.097 330.968C450.965 331.836 452.143 332.324 453.371 332.324H581.719C582.947 332.324 584.125 331.836 584.994 330.968C585.862 330.099 586.35 328.921 586.35 327.693C586.35 326.465 585.862 325.287 584.994 324.418C584.125 323.55 582.947 323.062 581.719 323.062Z" fill="#E6E6E6"/>
<path d="M659.487 199.349C665.874 199.349 671.052 194.171 671.052 187.783C671.052 181.396 665.874 176.218 659.487 176.218C653.1 176.218 647.922 181.396 647.922 187.783C647.922 194.171 653.1 199.349 659.487 199.349Z" fill="#F2F2F2"/>
<path d="M657.909 193.803C657.71 193.803 657.513 193.756 657.334 193.667C657.155 193.577 657 193.448 656.88 193.288L653.725 189.081C653.623 188.946 653.549 188.792 653.507 188.628C653.465 188.464 653.456 188.294 653.48 188.127C653.503 187.959 653.56 187.798 653.646 187.653C653.732 187.507 653.846 187.38 653.981 187.279C654.117 187.177 654.271 187.103 654.434 187.061C654.598 187.02 654.769 187.01 654.936 187.034C655.103 187.058 655.264 187.115 655.41 187.201C655.555 187.288 655.682 187.402 655.783 187.537L657.848 190.289L663.149 182.337C663.339 182.053 663.633 181.856 663.967 181.789C664.302 181.722 664.65 181.791 664.933 181.98C665.217 182.169 665.414 182.464 665.481 182.798C665.548 183.133 665.479 183.48 665.29 183.764L658.98 193.23C658.866 193.401 658.712 193.542 658.532 193.642C658.352 193.741 658.151 193.796 657.945 193.802L657.909 193.803Z" fill="white"/>
<path d="M659.487 269.477C665.874 269.477 671.052 264.299 671.052 257.911C671.052 251.524 665.874 246.346 659.487 246.346C653.1 246.346 647.922 251.524 647.922 257.911C647.922 264.299 653.1 269.477 659.487 269.477Z" fill="#F2F2F2"/>
<path d="M657.909 263.931C657.71 263.931 657.513 263.884 657.334 263.795C657.155 263.705 657 263.576 656.88 263.416L653.725 259.209C653.623 259.074 653.549 258.92 653.507 258.756C653.465 258.592 653.456 258.422 653.48 258.255C653.503 258.087 653.56 257.926 653.646 257.781C653.732 257.635 653.846 257.508 653.981 257.407C654.117 257.305 654.271 257.231 654.434 257.19C654.598 257.148 654.769 257.138 654.936 257.162C655.103 257.186 655.264 257.243 655.41 257.329C655.555 257.416 655.682 257.53 655.783 257.665L657.848 260.417L663.149 252.465C663.243 252.324 663.364 252.204 663.504 252.11C663.644 252.016 663.802 251.95 663.967 251.917C664.133 251.884 664.304 251.884 664.469 251.916C664.635 251.949 664.793 252.014 664.933 252.108C665.074 252.202 665.195 252.322 665.289 252.463C665.383 252.603 665.448 252.761 665.481 252.926C665.514 253.092 665.515 253.262 665.482 253.428C665.449 253.594 665.384 253.752 665.29 253.892L658.98 263.358C658.866 263.529 658.712 263.67 658.532 263.77C658.352 263.869 658.151 263.924 657.945 263.93L657.909 263.931Z" fill="white"/>
<path d="M659.487 339.605C665.874 339.605 671.052 334.427 671.052 328.04C671.052 321.652 665.874 316.474 659.487 316.474C653.1 316.474 647.922 321.652 647.922 328.04C647.922 334.427 653.1 339.605 659.487 339.605Z" fill="#F2F2F2"/>
<path d="M581.719 112.678H453.371C452.143 112.678 450.965 113.166 450.097 114.034C449.228 114.903 448.74 116.081 448.74 117.309C448.74 118.537 449.228 119.715 450.097 120.583C450.965 121.452 452.143 121.94 453.371 121.94H581.719C582.947 121.94 584.125 121.452 584.994 120.583C585.862 119.715 586.35 118.537 586.35 117.309C586.35 116.081 585.862 114.903 584.994 114.034C584.125 113.166 582.947 112.678 581.719 112.678Z" fill="#E6E6E6"/>
<path d="M659.487 129.221C665.874 129.221 671.052 124.043 671.052 117.655C671.052 111.268 665.874 106.09 659.487 106.09C653.1 106.09 647.922 111.268 647.922 117.655C647.922 124.043 653.1 129.221 659.487 129.221Z" fill="#755EA4"/>
<path d="M657.909 123.674C657.71 123.674 657.513 123.628 657.334 123.539C657.155 123.449 657 123.32 656.88 123.16L653.725 118.953C653.623 118.818 653.549 118.664 653.507 118.5C653.465 118.336 653.456 118.166 653.48 117.998C653.503 117.831 653.56 117.67 653.646 117.524C653.732 117.379 653.846 117.252 653.981 117.15C654.117 117.049 654.271 116.975 654.434 116.933C654.598 116.891 654.769 116.882 654.936 116.906C655.103 116.93 655.264 116.987 655.41 117.073C655.555 117.16 655.682 117.274 655.783 117.409L657.848 120.161L663.149 112.209C663.243 112.068 663.364 111.947 663.504 111.853C663.644 111.759 663.802 111.694 663.967 111.661C664.133 111.628 664.304 111.627 664.469 111.66C664.635 111.693 664.793 111.758 664.933 111.852C665.074 111.946 665.195 112.066 665.289 112.206C665.383 112.347 665.448 112.504 665.481 112.67C665.514 112.836 665.515 113.006 665.482 113.172C665.449 113.338 665.384 113.495 665.29 113.636L658.98 123.101C658.866 123.273 658.712 123.414 658.532 123.514C658.352 123.613 658.151 123.668 657.945 123.674L657.909 123.674Z" fill="white"/>
<path d="M621.116 129.221C627.503 129.221 632.681 124.043 632.681 117.655C632.681 111.268 627.503 106.09 621.116 106.09C614.729 106.09 609.551 111.268 609.551 117.655C609.551 124.043 614.729 129.221 621.116 129.221Z" fill="#F2F2F2"/>
<path d="M621.116 199.349C627.503 199.349 632.681 194.171 632.681 187.783C632.681 181.396 627.503 176.218 621.116 176.218C614.729 176.218 609.551 181.396 609.551 187.783C609.551 194.171 614.729 199.349 621.116 199.349Z" fill="#F2F2F2"/>
<path d="M621.116 269.477C627.503 269.477 632.681 264.299 632.681 257.911C632.681 251.524 627.503 246.346 621.116 246.346C614.729 246.346 609.551 251.524 609.551 257.911C609.551 264.299 614.729 269.477 621.116 269.477Z" fill="#F2F2F2"/>
<path d="M621.116 339.605C627.503 339.605 632.681 334.427 632.681 328.04C632.681 321.652 627.503 316.474 621.116 316.474C614.729 316.474 609.551 321.652 609.551 328.04C609.551 334.427 614.729 339.605 621.116 339.605Z" fill="#F2F2F2"/>
<path d="M657.91 334.059C657.711 334.059 657.514 334.012 657.335 333.923C657.156 333.834 657.001 333.704 656.881 333.544L653.726 329.337C653.625 329.202 653.551 329.048 653.509 328.884C653.467 328.721 653.458 328.551 653.482 328.383C653.506 328.216 653.562 328.055 653.648 327.91C653.734 327.764 653.848 327.637 653.983 327.536C654.119 327.435 654.272 327.361 654.436 327.319C654.6 327.277 654.77 327.268 654.937 327.292C655.104 327.316 655.265 327.372 655.411 327.458C655.556 327.544 655.683 327.658 655.784 327.793L657.849 330.545L663.15 322.593C663.34 322.309 663.634 322.112 663.968 322.045C664.303 321.978 664.651 322.047 664.934 322.236C665.218 322.425 665.415 322.72 665.482 323.054C665.549 323.389 665.481 323.736 665.291 324.02L658.981 333.486C658.867 333.657 658.713 333.798 658.533 333.898C658.353 333.998 658.152 334.053 657.946 334.058L657.91 334.059Z" fill="white"/>
<path d="M641.236 553.957C641.239 554.023 641.228 554.089 641.202 554.15C641.176 554.211 641.136 554.265 641.086 554.307C641.006 554.366 640.914 554.404 640.816 554.417C640.716 554.438 640.613 554.419 640.527 554.365C640.441 554.311 640.38 554.226 640.356 554.127C638.976 549.487 635.596 545.927 632.396 542.437C629.516 539.307 626.686 536.007 625.236 531.937C624.607 530.32 624.329 528.589 624.419 526.856C624.508 525.124 624.964 523.431 625.756 521.887C626.254 520.964 626.833 520.088 627.486 519.267C628.916 517.447 630.616 515.827 632.146 514.107C632.306 513.927 632.466 513.737 632.616 513.557C632.826 513.327 633.016 513.087 633.196 512.847C635.103 510.488 636.429 507.713 637.066 504.747C637.749 501.13 637.853 497.427 637.376 493.777C637.176 491.837 636.899 489.911 636.546 487.997C636.526 487.907 636.516 487.827 636.496 487.747C634.952 479.541 632.145 471.623 628.176 464.277C628.026 464.007 627.886 463.737 627.736 463.477C627.096 462.317 626.436 461.177 625.736 460.057C625.976 459.887 626.236 459.727 626.496 459.577C628.789 463.291 630.785 467.179 632.466 471.207C634.638 476.375 636.27 481.754 637.336 487.257C637.406 487.557 637.456 487.867 637.506 488.167C637.926 490.477 638.236 492.817 638.426 495.147C638.801 498.803 638.551 502.496 637.686 506.067C636.901 508.901 635.513 511.531 633.616 513.777C633.276 514.207 632.916 514.627 632.536 515.037C631.016 516.697 629.336 518.307 627.966 520.117C627.266 521.027 626.672 522.013 626.196 523.057C624.586 526.657 625.346 530.597 627.126 533.977C630.346 540.127 636.486 544.317 639.756 550.347C640.36 551.458 640.849 552.627 641.216 553.837C641.227 553.876 641.234 553.917 641.236 553.957Z" fill="white"/>
<path d="M637.091 488.273C639.899 487.567 642.365 485.887 644.048 483.532C645.731 481.176 646.522 478.299 646.28 475.414C646.229 474.831 645.32 474.883 645.371 475.467C645.601 478.153 644.864 480.833 643.292 483.023C641.72 485.213 639.417 486.769 636.799 487.411C636.23 487.551 636.526 488.412 637.091 488.273Z" fill="white"/>
<path d="M633.443 512.996C628.338 510.002 624.549 505.195 622.832 499.531C622.662 498.97 621.8 499.263 621.969 499.824C623.768 505.714 627.721 510.709 633.04 513.812C633.548 514.108 633.948 513.29 633.443 512.996V512.996Z" fill="white"/>
<path d="M628.285 464.227C628.245 464.247 628.215 464.257 628.175 464.277C626.374 465.099 624.326 465.196 622.455 464.547C622.537 464.253 622.641 463.966 622.765 463.687C624.389 464.244 626.164 464.169 627.735 463.477C627.825 463.447 627.905 463.407 627.995 463.367C628.109 463.328 628.234 463.335 628.343 463.388C628.451 463.44 628.535 463.533 628.575 463.647C628.608 463.763 628.596 463.886 628.543 463.993C628.489 464.101 628.397 464.184 628.285 464.227V464.227Z" fill="white"/>
<path d="M578.437 310.993C579.312 309.941 579.945 308.709 580.292 307.385C580.639 306.061 580.691 304.677 580.445 303.33C580.199 301.984 579.661 300.708 578.869 299.592C578.076 298.476 577.049 297.547 575.859 296.871L581.897 264.153L565.976 270.894L562.683 300.93C561.68 303.004 561.472 305.375 562.1 307.592C562.728 309.809 564.148 311.719 566.09 312.959C568.032 314.2 570.361 314.685 572.637 314.323C574.913 313.96 576.977 312.776 578.437 310.993V310.993Z" fill="#FFB6B6"/>
<path d="M588.155 214.157L583.095 197.147L547.415 141.477C545.431 139.159 543.059 137.203 540.405 135.697C535.132 132.683 528.984 131.567 522.988 132.536C516.991 133.505 511.508 136.5 507.452 141.021C503.396 145.543 501.012 151.318 500.698 157.384C500.383 163.45 502.158 169.441 505.725 174.357C506.46 175.385 507.272 176.354 508.155 177.257L554.365 224.917L556.995 227.637L561.155 238.157L562.795 286.127L564.265 286.477L577.215 289.527L579.025 289.957L582.055 274.287L583.955 266.797C585.571 260.41 586.388 253.846 586.385 247.257C586.385 245.227 586.315 243.187 586.155 241.157L588.155 214.157Z" fill="#3F3D56"/>
<path d="M539.104 544.946H526.714L520.82 497.156L539.106 497.157L539.104 544.946Z" fill="#FFB6B6"/>
<path d="M538.774 540.897L525.555 535.527L525.164 535.367L517.865 540.897C513.858 540.897 510.007 542.443 507.113 545.214C504.22 547.984 502.508 551.765 502.334 555.767C502.314 555.987 502.314 556.217 502.314 556.447V556.957H542.264V540.897H538.774Z" fill="#2F2E41"/>
<path d="M515.51 520.231L504.831 526.514L475.514 488.316L491.274 479.043L515.51 520.231Z" fill="#FFB6B6"/>
<path d="M522.884 526.527L521.434 524.057L516.184 515.137L513.454 516.747L513.174 516.907L499.054 518.987L498.634 519.047L495.154 527.517C493.394 528.552 491.854 529.924 490.624 531.555C489.394 533.185 488.497 535.042 487.984 537.019C487.471 538.996 487.353 541.055 487.637 543.077C487.92 545.1 488.599 547.047 489.634 548.807L489.894 549.237L524.324 528.977L522.884 526.527Z" fill="#2F2E41"/>
<path d="M554.797 252.786C560.606 270.306 559.992 289.323 553.401 309.734L551.68 379.898L546.155 424.157C549.487 432.829 551.196 442.041 551.197 451.331C551.174 475.683 549.537 510.279 541.235 526.531H521.589L517.155 454.157L511.863 417.769L511.21 378.776L510.641 344.768L489.28 376.003L468.523 406.356L489.155 441.157L507.155 497.157L488.155 513.157L466.601 472.294L456.155 460.157L427.639 398.427L430.201 389.832C435.479 372.131 443.144 355.233 452.984 339.602V339.602L481.348 273.771L554.797 252.786Z" fill="#2F2E41"/>
<path d="M557.316 246.937L554.076 240.457L554.366 224.917L555.336 172.377C555.452 165.572 554.19 158.813 551.624 152.509C549.058 146.205 545.242 140.486 540.406 135.697C537.536 132.838 534.325 130.342 530.846 128.267L523.886 124.107L520.366 115.167L487.906 115.957L487.836 124.627L487.806 127.677L476.176 146.217L476.186 146.297L476.426 180.037L476.906 247.197L480.116 257.607L475.266 269.727L477.846 277.447L479.906 277.117L549.286 266.027C552.439 265.015 555.116 262.89 556.816 260.047C557.158 259.492 557.455 258.91 557.706 258.307C558.462 256.495 558.819 254.542 558.752 252.58C558.685 250.617 558.195 248.693 557.316 246.937Z" fill="#3F3D56"/>
<path d="M501.158 104.047C517.448 104.047 530.654 90.8411 530.654 74.551C530.654 58.261 517.448 45.0552 501.158 45.0552C484.868 45.0552 471.662 58.261 471.662 74.551C471.662 90.8411 484.868 104.047 501.158 104.047Z" fill="#FFB6B6"/>
<path d="M519.506 98.9918C522.622 96.7998 525.776 92.6271 527.878 89.5034C530.663 85.397 532.554 80.7512 533.428 75.8671C534.303 70.9831 534.142 65.9698 532.955 61.1521C532.571 59.2245 531.668 57.4383 530.344 55.9859C529.668 55.2769 528.784 54.8003 527.82 54.6242C526.855 54.4481 525.86 54.5816 524.976 55.0057C525.422 53.7603 525.608 52.4368 525.522 51.1169C525.436 49.797 525.08 48.5087 524.477 47.3316C523.253 44.9814 521.498 42.9488 519.351 41.395C515.244 38.3221 510.382 36.4184 505.281 35.8859C500.18 35.3534 495.029 36.2119 490.376 38.3704C488.546 39.2495 491.481 32.6147 489.561 33.2771C487.656 34.0454 485.525 34.0374 483.626 33.2549C481.8 32.3671 475.863 37.8743 476.533 35.9571C475.165 36.6011 473.983 37.5806 473.095 38.8046C472.208 40.0286 471.645 41.4572 471.459 42.9573C471.273 44.4575 471.469 45.9804 472.03 47.3842C472.59 48.788 473.497 50.0271 474.666 50.9861C476.206 52.2499 478.116 52.9635 479.798 54.0313C482.746 56.0452 484.856 59.069 485.727 62.5316C486.599 65.9943 486.172 69.6562 484.528 72.8259C486.266 71.675 488.179 70.8123 490.192 70.2712C491.202 70.0098 492.259 69.9934 493.277 70.2234C494.295 70.4533 495.243 70.9229 496.042 71.5931C496.713 72.3395 497.224 73.2151 497.544 74.1663C497.864 75.1174 497.986 76.1238 497.903 77.1238C497.864 79.1262 497.415 81.1046 497.39 83.1071C497.314 88.9831 494.323 100.194 498.92 103.253C502.548 105.667 515.253 101.984 519.506 98.9918Z" fill="#2F2E41"/>
<path d="M337.298 146.295C337.996 147.472 338.943 148.482 340.074 149.254C341.204 150.025 342.49 150.54 343.841 150.761C345.192 150.981 346.575 150.903 347.892 150.532C349.209 150.161 350.429 149.505 351.466 148.611L380.252 165.293L379.254 148.033L352.071 134.838C350.454 133.196 348.291 132.204 345.992 132.05C343.692 131.897 341.417 132.592 339.596 134.004C337.775 135.417 336.535 137.448 336.111 139.713C335.688 141.978 336.11 144.32 337.298 146.295V146.295Z" fill="#FFB6B6"/>
<path d="M523.194 141.127C522.078 137.637 520.251 134.415 517.829 131.665C515.408 128.914 512.443 126.694 509.122 125.145C505.801 123.595 502.196 122.749 498.532 122.66C494.869 122.571 491.226 123.241 487.834 124.627C487.514 124.757 487.194 124.897 486.874 125.037L423.014 154.107L398.154 151.157L365.974 139.917L365.154 141.187L357.924 152.357L356.914 153.917L391.434 174.327L395.094 175.087C398.281 175.747 401.307 177.028 403.997 178.859C406.688 180.69 408.991 183.034 410.774 185.757L424.154 190.157L476.424 180.037L505.724 174.357L507.384 174.037C512.405 172.105 516.723 168.697 519.77 164.264C522.817 159.83 524.45 154.577 524.454 149.197C524.456 146.458 524.031 143.735 523.194 141.127V141.127Z" fill="#3F3D56"/>
<path d="M671.792 558.147H323.804C323.488 558.147 323.185 558.022 322.962 557.798C322.739 557.575 322.613 557.272 322.613 556.956C322.613 556.641 322.739 556.338 322.962 556.114C323.185 555.891 323.488 555.766 323.804 555.766H671.792C672.108 555.766 672.411 555.891 672.634 556.114C672.857 556.338 672.983 556.641 672.983 556.956C672.983 557.272 672.857 557.575 672.634 557.798C672.411 558.022 672.108 558.147 671.792 558.147Z" fill="#CCCCCC"/>
<path d="M297.251 279.936H85.9036C84.6765 279.937 83.5004 280.426 82.6333 281.294C81.7663 282.163 81.2793 283.34 81.2793 284.567C81.2793 285.794 81.7663 286.971 82.6333 287.839C83.5004 288.707 84.6765 289.196 85.9036 289.198H297.251C297.86 289.199 298.463 289.08 299.026 288.847C299.588 288.615 300.1 288.274 300.53 287.844C300.961 287.414 301.303 286.903 301.536 286.34C301.769 285.778 301.889 285.175 301.889 284.567C301.889 283.958 301.769 283.355 301.536 282.793C301.303 282.231 300.961 281.72 300.53 281.29C300.1 280.859 299.588 280.518 299.026 280.286C298.463 280.054 297.86 279.935 297.251 279.936H297.251Z" fill="#E6E6E6"/>
<path d="M375.02 296.478C381.408 296.478 386.586 291.3 386.586 284.913C386.586 278.526 381.408 273.348 375.02 273.348C368.633 273.348 363.455 278.526 363.455 284.913C363.455 291.3 368.633 296.478 375.02 296.478Z" fill="#755EA4"/>
<path d="M373.443 290.932C373.244 290.932 373.047 290.886 372.868 290.796C372.69 290.707 372.534 290.577 372.414 290.418L369.259 286.211C369.158 286.075 369.084 285.922 369.042 285.758C369 285.594 368.991 285.424 369.015 285.257C369.039 285.09 369.095 284.929 369.181 284.783C369.268 284.638 369.381 284.511 369.517 284.41C369.652 284.308 369.806 284.234 369.969 284.193C370.133 284.151 370.303 284.141 370.47 284.165C370.638 284.189 370.799 284.246 370.944 284.332C371.089 284.418 371.216 284.532 371.318 284.667L373.382 287.419L378.684 279.467C378.777 279.326 378.898 279.205 379.038 279.111C379.179 279.017 379.336 278.952 379.502 278.919C379.667 278.886 379.838 278.885 380.004 278.918C380.169 278.951 380.327 279.016 380.468 279.11C380.608 279.203 380.729 279.324 380.823 279.464C380.917 279.605 380.982 279.762 381.015 279.928C381.049 280.094 381.049 280.264 381.016 280.43C380.983 280.596 380.918 280.753 380.824 280.894L374.514 290.359C374.4 290.531 374.246 290.672 374.066 290.772C373.886 290.871 373.685 290.926 373.479 290.932L373.443 290.932Z" fill="white"/>
<path d="M336.649 296.478C343.037 296.478 348.215 291.3 348.215 284.913C348.215 278.526 343.037 273.348 336.649 273.348C330.262 273.348 325.084 278.526 325.084 284.913C325.084 291.3 330.262 296.478 336.649 296.478Z" fill="#F2F2F2"/>
<path d="M296.251 335.936H84.9036C83.6765 335.937 82.5004 336.426 81.6333 337.294C80.7663 338.163 80.2793 339.34 80.2793 340.567C80.2793 341.794 80.7663 342.971 81.6333 343.839C82.5004 344.707 83.6765 345.196 84.9036 345.198H296.251C297.48 345.198 298.657 344.71 299.526 343.841C300.394 342.973 300.882 341.795 300.882 340.567C300.882 339.338 300.394 338.16 299.526 337.292C298.657 336.423 297.48 335.936 296.251 335.936H296.251Z" fill="#E6E6E6"/>
<path d="M374.02 352.478C380.408 352.478 385.586 347.3 385.586 340.913C385.586 334.526 380.408 329.348 374.02 329.348C367.633 329.348 362.455 334.526 362.455 340.913C362.455 347.3 367.633 352.478 374.02 352.478Z" fill="#F2F2F2"/>
<path d="M372.443 346.932C372.244 346.932 372.047 346.886 371.868 346.796C371.69 346.707 371.534 346.577 371.414 346.418L368.259 342.211C368.055 341.938 367.967 341.595 368.015 341.257C368.063 340.919 368.244 340.614 368.517 340.41C368.79 340.205 369.133 340.117 369.47 340.165C369.808 340.214 370.113 340.394 370.318 340.667L372.382 343.419L377.684 335.467C377.777 335.326 377.898 335.205 378.038 335.111C378.179 335.017 378.336 334.952 378.502 334.919C378.667 334.886 378.838 334.885 379.004 334.918C379.169 334.951 379.327 335.016 379.468 335.11C379.608 335.203 379.729 335.324 379.823 335.464C379.917 335.605 379.982 335.762 380.016 335.928C380.049 336.094 380.049 336.264 380.016 336.43C379.983 336.596 379.918 336.753 379.824 336.894L373.514 346.359C373.4 346.531 373.246 346.672 373.066 346.772C372.886 346.871 372.685 346.926 372.479 346.932L372.443 346.932Z" fill="white"/>
<path d="M335.649 352.478C342.037 352.478 347.215 347.3 347.215 340.913C347.215 334.526 342.037 329.348 335.649 329.348C329.262 329.348 324.084 334.526 324.084 340.913C324.084 347.3 329.262 352.478 335.649 352.478Z" fill="#F2F2F2"/>
</svg>
