<svg width="77" height="62" viewBox="0 0 77 62" fill="none" xmlns="http://www.w3.org/2000/svg">
<g clip-path="url(#clip0_245_1347)">
<path d="M4.6688 0.618259C3.41755 -0.37471 1.60083 -0.144632 0.61427 1.11474C-0.372292 2.37412 -0.143699 4.20263 1.10755 5.1956L72.3326 61.3831C73.5838 62.3761 75.4005 62.146 76.3871 60.8866C77.3736 59.6272 77.1451 57.7987 75.8938 56.8058L63.2369 46.8276C68.0013 41.9112 71.2257 36.4015 72.8499 32.4901C73.2469 31.5335 73.2469 30.4679 72.8499 29.5112C71.0572 25.1882 67.2915 18.8913 61.6608 13.6358C56.0061 8.33193 48.2219 3.87568 38.5007 3.87568C30.2954 3.87568 23.4616 7.06045 18.1318 11.2382L4.6688 0.618259ZM26.8304 18.1042C32.6776 12.7397 41.6288 11.9526 48.4024 16.6874C55.7174 21.8218 57.8951 31.6061 53.7202 39.3198L49.0882 35.6628C50.0988 33.3257 50.3635 30.6495 49.6657 27.9976C48.3302 22.9722 43.9147 19.5936 39.006 19.3878C38.3082 19.3636 37.8991 20.1265 38.1157 20.8046C38.3683 21.5796 38.5127 22.403 38.5127 23.2628C38.5127 24.4979 38.224 25.6604 37.7186 26.6897L26.8304 18.1042ZM9.99864 19.5573C8.67521 21.3011 7.53224 23.0327 6.58177 24.6675L47.3677 56.8421C49.6175 56.1761 51.723 55.2679 53.6961 54.2022L9.99864 19.5573ZM3.98302 30.0077C3.76646 30.8312 3.82661 31.703 4.15146 32.4901C5.94411 36.8132 9.7099 43.1101 15.3405 48.3655C20.9952 53.6694 28.7794 58.1257 38.5007 58.1257C38.8736 58.1257 39.2346 58.1136 39.6076 58.1015L3.98302 30.0077Z" fill="#93936B"/>
</g>
<defs>
<clipPath id="clip0_245_1347">
<rect width="77" height="62" fill="white"/>
</clipPath>
</defs>
</svg>
