<svg width="807" height="818" viewBox="0 0 807 818" fill="none" xmlns="http://www.w3.org/2000/svg">
<path d="M510.69 336.72L395.4 331.39C395.4 331.39 367.26 326.08 346.51 367.14C346.51 367.14 343.51 374.75 352.27 377.52C352.27 377.52 353.89 389.28 365.19 383.05C365.19 383.05 372.11 393.38 382.03 384.87C382.03 384.87 391.03 390.87 413.39 374.98C436.757 385.227 461.294 392.565 486.45 396.83C491.323 397.65 496.107 398.34 500.8 398.9L518.8 401.76C524.881 402.728 531.094 402.489 537.083 401.056C543.072 399.623 548.721 397.025 553.705 393.409C558.69 389.793 562.914 385.23 566.135 379.982C569.356 374.733 571.512 368.902 572.48 362.82L510.69 336.72Z" fill="white"/>
<path d="M526.27 404.36C523.661 404.357 521.057 404.149 518.48 403.74L500.48 400.87C495.75 400.31 490.89 399.61 486.11 398.8C461.17 394.568 436.834 387.335 413.63 377.26C395.42 389.94 385.75 388.51 382.3 387.26C379.16 389.63 375.95 390.61 372.73 390.17C369.59 389.626 366.735 388.011 364.65 385.6C361.18 387.18 358.14 387.34 355.65 386.07C352.42 384.44 351.09 380.94 350.6 379.07C348.146 378.216 346.118 376.446 344.94 374.13C343.888 371.691 343.798 368.943 344.69 366.44L344.77 366.28C365.41 325.46 393.12 329.01 395.67 329.44L511.19 334.78L574.75 361.63L574.51 363.18C572.679 374.654 566.826 385.101 557.996 392.653C549.167 400.206 537.939 404.37 526.32 404.4L526.27 404.36ZM413.16 372.69L414.16 373.15C437.381 383.32 461.759 390.611 486.75 394.86C491.46 395.65 496.26 396.34 501 396.91L519.08 399.79C530.583 401.627 542.35 398.921 551.895 392.242C561.44 385.564 568.014 375.437 570.23 364L510.23 338.67L395.16 333.34H395.02C393.94 333.14 368.09 328.95 348.34 367.92C347.848 369.38 347.905 370.969 348.5 372.39C348.967 373.196 349.596 373.897 350.346 374.449C351.096 375.002 351.952 375.393 352.86 375.6L354.07 375.98L354.24 377.23C354.24 377.23 354.84 381.17 357.4 382.45C359.05 383.26 361.34 382.88 364.21 381.29L365.82 380.4L366.82 381.93C366.82 381.93 369.39 385.65 373.27 386.16C375.65 386.49 378.15 385.53 380.69 383.34L381.85 382.34L383.11 383.19C383.11 383.19 391.59 387.99 412.2 373.33L413.16 372.69Z" fill="black"/>
<path d="M352.27 380C351.796 379.998 351.331 379.863 350.93 379.61C350.37 379.255 349.975 378.691 349.831 378.044C349.686 377.397 349.805 376.72 350.16 376.16L362.75 356.27C362.929 355.991 363.162 355.75 363.434 355.561C363.706 355.371 364.013 355.238 364.337 355.167C364.662 355.097 364.996 355.091 365.323 355.149C365.649 355.208 365.961 355.331 366.24 355.51C366.519 355.689 366.76 355.922 366.949 356.194C367.138 356.467 367.272 356.774 367.343 357.098C367.413 357.422 367.419 357.756 367.36 358.083C367.302 358.409 367.179 358.721 367 359L354.41 378.89C354.178 379.242 353.859 379.53 353.485 379.724C353.11 379.918 352.692 380.013 352.27 380V380Z" fill="black"/>
<path d="M365.19 385.55C364.735 385.553 364.287 385.432 363.897 385.199C363.506 384.965 363.186 384.63 362.973 384.227C362.759 383.825 362.66 383.373 362.686 382.918C362.712 382.464 362.862 382.025 363.12 381.65L375.39 363.65C375.575 363.379 375.812 363.147 376.087 362.967C376.361 362.787 376.669 362.664 376.992 362.603C377.314 362.542 377.646 362.545 377.967 362.613C378.289 362.68 378.594 362.81 378.865 362.995C379.136 363.18 379.368 363.417 379.548 363.692C379.727 363.967 379.851 364.274 379.912 364.597C379.973 364.92 379.97 365.251 379.902 365.572C379.835 365.894 379.705 366.199 379.52 366.47L367.25 384.47C367.022 384.805 366.714 385.079 366.355 385.268C365.996 385.456 365.596 385.553 365.19 385.55V385.55Z" fill="black"/>
<path d="M382 387.37C381.479 387.371 380.971 387.206 380.55 386.9C380.282 386.709 380.055 386.467 379.881 386.188C379.708 385.909 379.591 385.598 379.538 385.274C379.485 384.949 379.497 384.618 379.573 384.298C379.648 383.978 379.787 383.676 379.98 383.41L391.3 367.66C391.492 367.394 391.734 367.167 392.013 366.994C392.292 366.822 392.603 366.705 392.927 366.652C393.251 366.599 393.582 366.611 393.902 366.686C394.222 366.761 394.523 366.898 394.79 367.09C395.057 367.282 395.283 367.524 395.456 367.803C395.629 368.083 395.745 368.393 395.798 368.717C395.851 369.041 395.839 369.372 395.764 369.692C395.689 370.012 395.552 370.314 395.36 370.58L384.03 386.33C383.8 386.653 383.495 386.916 383.142 387.097C382.788 387.278 382.397 387.372 382 387.37V387.37Z" fill="black"/>
<path d="M425 725.68L331.69 764C330.39 764.534 329.285 765.452 328.522 766.631C327.758 767.811 327.374 769.196 327.42 770.6V770.6C327.478 772.408 328.244 774.121 329.554 775.369C330.863 776.617 332.611 777.3 334.42 777.27L445.42 775.27L444.13 787.97C444.053 788.7 444.121 789.438 444.332 790.141C444.542 790.844 444.89 791.498 445.355 792.066C445.82 792.633 446.393 793.103 447.041 793.447C447.69 793.791 448.4 794.003 449.13 794.07L473.72 796.29C475.115 796.421 476.507 796.022 477.619 795.171C478.732 794.32 479.482 793.08 479.72 791.7L489.38 736.22L425 725.68Z" fill="#31C2E1"/>
<path d="M687 715.4L648.1 808.4C647.559 809.697 647.427 811.129 647.722 812.503C648.017 813.877 648.724 815.129 649.75 816.09C651.073 817.324 652.827 817.99 654.636 817.943C656.445 817.896 658.163 817.141 659.42 815.84L736.42 735.95L744.48 745.85C744.944 746.42 745.517 746.893 746.166 747.24C746.815 747.587 747.526 747.802 748.258 747.871C748.99 747.941 749.729 747.865 750.432 747.646C751.134 747.428 751.786 747.072 752.35 746.6L771.35 730.78C772.421 729.888 773.119 728.626 773.304 727.245C773.489 725.863 773.149 724.462 772.35 723.32L739.95 677.26L687 715.4Z" fill="#31C2E1"/>
<path d="M426 455.84C425.534 455.844 425.077 455.717 424.679 455.474C424.282 455.23 423.961 454.88 423.753 454.464C423.544 454.047 423.457 453.58 423.501 453.117C423.544 452.653 423.717 452.211 424 451.84L472.12 388.46C473.098 387.148 473.691 385.59 473.834 383.96C473.977 382.33 473.663 380.692 472.928 379.23C472.194 377.768 471.067 376.539 469.674 375.681C468.281 374.823 466.676 374.369 465.04 374.37H392.71C392.047 374.37 391.411 374.107 390.942 373.638C390.473 373.169 390.21 372.533 390.21 371.87C390.21 371.207 390.473 370.571 390.942 370.102C391.411 369.634 392.047 369.37 392.71 369.37H465.08C467.645 369.371 470.159 370.085 472.342 371.433C474.524 372.781 476.289 374.709 477.438 377.002C478.588 379.295 479.077 381.862 478.851 384.417C478.626 386.972 477.694 389.414 476.16 391.47L428 454.86C427.763 455.165 427.46 455.412 427.114 455.582C426.767 455.752 426.386 455.84 426 455.84V455.84Z" fill="black"/>
<path d="M546.36 426.56C534.219 433.56 525.276 445.006 521.419 458.478C517.562 471.951 519.093 486.396 525.69 498.76L646.1 724C647.438 726.568 649.312 728.818 651.594 730.6C653.877 732.382 656.514 733.654 659.33 734.33C668.33 736.42 681.68 735.11 691.62 715.25C692.47 715.61 707.49 721.76 720.8 712.36C732.4 704.16 733.23 690.83 733.3 689.21C734.64 689.67 743.68 692.6 752.35 687.41C752.71 687.19 753.07 686.97 753.41 686.73C762.47 680.57 764.55 668.05 758.55 658.88C714.85 592.02 664.47 514.39 618.47 443.88C610.93 432.337 599.26 424.115 585.852 420.901C572.444 417.686 558.315 419.721 546.36 426.59V426.56Z" fill="#09385A"/>
<path d="M583 194L561.26 202.88C552.357 206.509 542.376 206.454 533.514 202.726C524.651 198.998 517.632 191.902 514 183L502 153.71C499.951 148.69 499.979 143.06 502.08 138.061C504.18 133.061 508.18 129.101 513.2 127.05L544.88 114.11C553.785 110.481 563.766 110.538 572.629 114.268C581.492 117.998 588.51 125.096 592.14 134L600.05 153.35C603.174 161.002 603.133 169.581 599.936 177.203C596.739 184.825 590.648 190.866 583 194V194Z" fill="black"/>
<path d="M523 163.21C518.972 163.201 515.032 162.034 511.649 159.848C508.266 157.662 505.583 154.549 503.92 150.88L503.54 150.05L503.92 149.23C505.869 144.958 509.222 141.482 513.42 139.38L535 128.61C537.603 127.314 540.441 126.554 543.344 126.377C546.246 126.199 549.155 126.607 551.897 127.577C554.639 128.546 557.158 130.057 559.304 132.019C561.45 133.982 563.18 136.356 564.39 139L569.18 149.5L568.6 150.41C567.074 152.834 565.065 154.919 562.7 156.534C560.334 158.149 557.661 159.26 554.847 159.799C552.034 160.337 549.139 160.291 546.344 159.663C543.549 159.035 540.913 157.84 538.6 156.15C536.642 158.357 534.24 160.126 531.552 161.342C528.864 162.559 525.95 163.195 523 163.21V163.21ZM508 150.06C509.329 152.628 511.294 154.813 513.707 156.406C516.12 157.999 518.901 158.948 521.785 159.161C524.669 159.375 527.559 158.846 530.18 157.626C532.802 156.406 535.067 154.534 536.76 152.19L538 150.4L539.66 151.87C541.425 153.454 543.504 154.649 545.761 155.377C548.019 156.104 550.404 156.349 552.762 156.094C555.12 155.84 557.398 155.092 559.448 153.899C561.498 152.706 563.274 151.094 564.66 149.17L560.78 140.68C559.796 138.517 558.386 136.575 556.634 134.969C554.882 133.364 552.824 132.128 550.584 131.335C548.344 130.543 545.967 130.21 543.595 130.357C541.223 130.504 538.905 131.127 536.78 132.19L515.17 143C512.084 144.544 509.557 147.012 507.94 150.06H508Z" fill="black"/>
<path d="M585.12 187.88L576.87 171.17C579.81 170.071 582.193 167.849 583.494 164.992C584.796 162.136 584.91 158.88 583.81 155.94C582.711 153 580.489 150.617 577.633 149.316C574.776 148.014 571.52 147.901 568.58 149C568.06 149.191 567.555 149.422 567.07 149.69L566.91 149.35C565.444 151.676 563.488 153.654 561.179 155.147C558.869 156.639 556.262 157.61 553.539 157.99C550.816 158.371 548.042 158.153 545.412 157.352C542.782 156.55 540.358 155.185 538.31 153.35C536.368 156.044 533.752 158.178 530.723 159.54C527.695 160.902 524.361 161.443 521.058 161.109C517.754 160.774 514.597 159.576 511.903 157.635C509.209 155.694 507.073 153.078 505.71 150.05C504.697 152.255 504.129 154.638 504.038 157.062C503.947 159.487 504.335 161.906 505.18 164.18L507.1 169.36C508.986 174.447 509.436 179.955 508.4 185.28C508.165 186.389 508.357 187.545 508.937 188.518C509.517 189.491 510.443 190.21 511.53 190.53L515.39 191.63L519.47 202.63C520.281 204.813 521.555 206.794 523.203 208.438C524.852 210.082 526.837 211.35 529.022 212.155C531.207 212.959 533.54 213.282 535.862 213.1C538.183 212.918 540.437 212.236 542.47 211.1L552.47 205.49L561.42 223L593.85 206.41L585.12 187.88Z" fill="white"/>
<path d="M560.55 225.65L551.67 208.29L543.46 212.89C541.173 214.168 538.637 214.936 536.026 215.142C533.414 215.347 530.789 214.986 528.331 214.081C525.872 213.177 523.638 211.751 521.783 209.902C519.927 208.054 518.493 205.825 517.58 203.37L513.86 193.32L511 192.5C509.434 192.056 508.093 191.036 507.247 189.645C506.402 188.254 506.113 186.595 506.44 185V184.87C506.902 182.51 507.05 180.099 506.88 177.7C506.693 175.091 506.137 172.523 505.23 170.07L503.3 164.88C502.361 162.361 501.93 159.682 502.032 156.996C502.133 154.31 502.764 151.671 503.89 149.23L505.72 145.23L507.53 149.23C508.747 151.94 510.655 154.282 513.063 156.022C515.471 157.761 518.295 158.837 521.25 159.141C524.205 159.445 527.188 158.966 529.9 157.753C532.612 156.54 534.957 154.635 536.7 152.23L538 150.4L539.66 151.87C541.492 153.51 543.66 154.73 546.013 155.446C548.365 156.162 550.845 156.357 553.281 156.016C555.716 155.675 558.048 154.807 560.113 153.473C562.178 152.139 563.928 150.37 565.24 148.29L567.24 145.17L568.11 147.07C571.534 145.852 575.299 146.032 578.591 147.571C581.884 149.109 584.437 151.882 585.7 155.29C586.832 158.362 586.841 161.737 585.724 164.815C584.608 167.893 582.438 170.478 579.6 172.11L586.93 187L596.49 207.24L560.55 225.65ZM553.34 202.77L562.29 220.27L591.21 205.47L583.32 188.75L574.1 170.08L576.16 169.3C578.602 168.386 580.582 166.54 581.663 164.166C582.744 161.793 582.838 159.088 581.925 156.645C581.011 154.202 579.165 152.223 576.791 151.141C574.418 150.06 571.712 149.966 569.27 150.88C568.841 151.045 568.423 151.239 568.02 151.46L567.83 151.57C566.216 153.792 564.179 155.674 561.836 157.108C559.494 158.542 556.892 159.5 554.179 159.927C551.466 160.355 548.695 160.243 546.025 159.598C543.355 158.953 540.839 157.788 538.62 156.17C536.565 158.487 534.022 160.319 531.173 161.534C528.324 162.748 525.241 163.314 522.147 163.192C519.052 163.069 516.023 162.261 513.279 160.825C510.536 159.39 508.145 157.362 506.28 154.89C505.759 157.774 506.025 160.745 507.05 163.49L508.98 168.68C510.998 174.111 511.476 179.994 510.36 185.68C510.209 186.304 510.302 186.961 510.62 187.519C510.938 188.076 511.456 188.492 512.07 188.68L516.9 190L521.33 202C522.041 203.914 523.158 205.651 524.604 207.092C526.051 208.534 527.792 209.645 529.708 210.35C531.624 211.055 533.67 211.337 535.706 211.176C537.741 211.016 539.718 210.417 541.5 209.42L553.34 202.77Z" fill="black"/>
<path d="M593.85 125.01C610.247 125.01 623.54 111.717 623.54 95.3199C623.54 78.9226 610.247 65.6299 593.85 65.6299C577.453 65.6299 564.16 78.9226 564.16 95.3199C564.16 111.717 577.453 125.01 593.85 125.01Z" fill="black"/>
<path d="M639.62 87.3899C663.573 87.3899 682.99 67.9725 682.99 44.0199C682.99 20.0673 663.573 0.649902 639.62 0.649902C615.667 0.649902 596.25 20.0673 596.25 44.0199C596.25 67.9725 615.667 87.3899 639.62 87.3899Z" fill="black"/>
<path d="M506.8 385.74L388.06 707.38C384.45 716.38 386.7 726.46 393.36 732.22C401.56 739.31 415.15 738.75 423.74 729.86C424.26 730.93 430.11 742.29 443.2 744.3C447.869 744.981 452.634 744.393 456.998 742.598C461.361 740.804 465.161 737.869 468 734.1C469.987 738.175 472.998 741.665 476.738 744.229C480.478 746.792 484.819 748.34 489.337 748.723C493.854 749.106 498.394 748.31 502.512 746.413C506.63 744.516 510.185 741.583 512.83 737.9C514.719 735.293 516.137 732.376 517.02 729.28L588.02 492.28C588.02 492.28 624.86 463.75 616.34 403.34L506.8 385.74Z" fill="#09385A"/>
<path d="M528.46 176.87C530.045 176.87 531.33 175.585 531.33 174C531.33 172.415 530.045 171.13 528.46 171.13C526.875 171.13 525.59 172.415 525.59 174C525.59 175.585 526.875 176.87 528.46 176.87Z" fill="black"/>
<path d="M552.08 203.36L557.08 213.15L570.56 194.76C570.64 194.631 570.677 194.48 570.663 194.328C570.65 194.177 570.588 194.034 570.486 193.921C570.385 193.808 570.249 193.732 570.1 193.702C569.951 193.673 569.797 193.694 569.66 193.76L552.08 203.36Z" fill="black"/>
<path d="M530.46 198.43C529.604 198.442 528.75 198.341 527.92 198.13C527.437 197.966 527.034 197.624 526.795 197.173C526.556 196.722 526.498 196.197 526.634 195.705C526.769 195.213 527.088 194.791 527.524 194.527C527.96 194.262 528.481 194.174 528.98 194.28C530.538 194.625 532.169 194.394 533.57 193.63C535.07 192.71 536.11 190.99 536.66 188.51C536.777 187.992 537.095 187.541 537.544 187.257C537.993 186.973 538.537 186.879 539.055 186.995C539.574 187.112 540.025 187.43 540.309 187.879C540.593 188.328 540.687 188.872 540.57 189.39C539.76 192.99 538.09 195.58 535.57 197.08C534.02 197.984 532.254 198.45 530.46 198.43V198.43Z" fill="black"/>
<path d="M572.84 164.87C572.107 164.876 571.386 164.68 570.756 164.304C570.127 163.927 569.613 163.385 569.271 162.736C568.928 162.088 568.771 161.357 568.816 160.625C568.861 159.893 569.106 159.187 569.525 158.585C569.944 157.983 570.521 157.508 571.192 157.212C571.862 156.915 572.602 156.809 573.329 156.904C574.056 157 574.743 157.293 575.315 157.753C575.887 158.212 576.321 158.82 576.57 159.51C576.93 160.5 576.885 161.591 576.445 162.548C576.005 163.504 575.206 164.249 574.22 164.62C573.779 164.786 573.312 164.871 572.84 164.87V164.87ZM572.84 159.87C572.626 159.867 572.417 159.933 572.243 160.058C572.069 160.183 571.94 160.361 571.875 160.564C571.81 160.768 571.811 160.988 571.88 161.19C571.949 161.393 572.08 161.569 572.256 161.691C572.432 161.813 572.642 161.876 572.856 161.869C573.07 161.863 573.276 161.789 573.445 161.656C573.613 161.524 573.735 161.342 573.791 161.135C573.848 160.929 573.837 160.71 573.76 160.51V160.51C573.682 160.331 573.553 160.179 573.39 160.072C573.227 159.966 573.035 159.909 572.84 159.91V159.87Z" fill="black"/>
<path d="M570.67 163.72C570.414 163.72 570.162 163.655 569.938 163.53C569.714 163.406 569.525 163.227 569.39 163.01C568.791 162.041 568.456 160.932 568.419 159.793C568.383 158.654 568.645 157.526 569.18 156.52C569.711 155.586 570.457 154.793 571.356 154.205C572.255 153.617 573.281 153.252 574.35 153.14C574.745 153.115 575.134 153.243 575.436 153.498C575.738 153.754 575.929 154.116 575.97 154.51C575.986 154.706 575.964 154.904 575.904 155.092C575.844 155.279 575.748 155.453 575.62 155.604C575.493 155.754 575.338 155.878 575.162 155.968C574.987 156.059 574.796 156.113 574.6 156.13C574.028 156.197 573.48 156.396 572.998 156.71C572.516 157.024 572.113 157.445 571.82 157.94C571.534 158.481 571.394 159.089 571.415 159.701C571.436 160.313 571.617 160.909 571.94 161.43C572.044 161.596 572.115 161.782 572.147 161.976C572.18 162.17 572.173 162.368 572.129 162.56C572.084 162.751 572.002 162.932 571.887 163.092C571.772 163.251 571.627 163.387 571.46 163.49C571.224 163.641 570.95 163.721 570.67 163.72V163.72Z" fill="black"/>
<path d="M554.36 227C551.807 228.234 549.166 229.281 546.46 230.13C543.237 231.1 540.246 232.715 537.667 234.878C535.088 237.041 532.976 239.705 531.46 242.71L506.68 291.78C506.68 291.78 490.43 322.89 512.91 336.73L632.39 344.54L654.32 225C654.32 225 637.18 206.33 600.32 208.42L594.76 199.81C594.26 199.029 593.49 198.461 592.597 198.213C591.703 197.966 590.75 198.058 589.92 198.47L557.16 214.76C556.336 215.169 555.69 215.866 555.346 216.72C555.001 217.573 554.981 218.523 555.29 219.39L557.48 225.6L554.36 227Z" fill="#31C2E1"/>
<path d="M638.38 217.66C629.858 216.303 621.146 218.384 614.157 223.447C607.169 228.51 602.476 236.14 601.11 244.66L585.91 340.16L470.62 334.82C470.62 334.82 442.48 329.51 421.73 370.57C421.73 370.57 418.73 378.18 427.49 380.95C427.49 380.95 429.11 392.71 440.41 386.48C440.41 386.48 447.33 396.81 457.25 388.3C457.25 388.3 466.25 394.3 488.61 378.41C511.976 388.661 536.513 396 561.67 400.26C566.537 401.08 571.32 401.77 576.02 402.33L594.02 405.19C600.102 406.158 606.314 405.919 612.304 404.486C618.293 403.053 623.941 400.455 628.926 396.839C633.91 393.223 638.134 388.66 641.355 383.412C644.577 378.163 646.733 372.332 647.7 366.25L665.42 254.9C666.765 246.377 664.673 237.669 659.603 230.687C654.534 223.705 646.901 219.02 638.38 217.66V217.66Z" fill="white"/>
<path d="M601.49 407.83C598.881 407.826 596.277 407.619 593.7 407.21L575.7 404.34C570.96 403.78 566.1 403.08 561.33 402.27C536.39 398.038 512.054 390.805 488.85 380.73C470.64 393.41 460.97 391.98 457.52 390.73C454.38 393.1 451.17 394.08 447.95 393.64C444.81 393.096 441.955 391.481 439.87 389.07C436.4 390.65 433.36 390.81 430.87 389.54C427.64 387.91 426.32 384.41 425.82 382.54C423.366 381.686 421.338 379.916 420.16 377.6C419.102 375.161 419.016 372.41 419.92 369.91L419.99 369.75C440.63 328.93 468.33 332.48 470.89 332.91L584.27 338.16L599.18 244.43C600.62 235.377 605.598 227.267 613.018 221.884C620.438 216.5 629.692 214.285 638.745 215.725C647.798 217.165 655.909 222.143 661.292 229.563C666.675 236.983 668.89 246.237 667.45 255.29L649.68 366.61C647.849 378.084 641.996 388.531 633.166 396.083C624.337 403.636 613.109 407.8 601.49 407.83V407.83ZM488.38 376.16L489.38 376.62C512.611 386.792 536.998 394.083 562 398.33C566.7 399.12 571.5 399.81 576.25 400.38L594.33 403.26C606.086 405.13 618.104 402.256 627.742 395.269C637.38 388.282 643.85 377.755 645.73 366L663.45 254.64C664.721 246.634 662.761 238.451 658.002 231.889C653.244 225.326 646.075 220.921 638.07 219.64V219.64C630.065 218.375 621.884 220.337 615.323 225.095C608.762 229.852 604.356 237.018 603.07 245.02L587.6 342.28L470.24 336.82C469.15 336.62 443.31 332.43 423.56 371.4C423.073 372.861 423.13 374.448 423.72 375.87C424.187 376.676 424.816 377.377 425.566 377.929C426.316 378.482 427.172 378.873 428.08 379.08L429.29 379.46L429.46 380.71C429.46 380.71 430.06 384.71 432.62 385.93C434.26 386.74 436.56 386.36 439.43 384.77L441.04 383.89L442.04 385.41C442.04 385.41 444.62 389.13 448.49 389.64C450.87 389.95 453.37 389.01 455.91 386.82L457.07 385.82L458.33 386.67C458.33 386.67 466.81 391.47 487.42 376.81L488.38 376.16Z" fill="black"/>
<path d="M427.49 383.49C427.043 383.487 426.606 383.364 426.223 383.136C425.839 382.907 425.524 382.58 425.309 382.189C425.094 381.798 424.987 381.356 425 380.91C425.012 380.464 425.143 380.029 425.38 379.65L438 359.76C438.166 359.465 438.391 359.207 438.661 359.001C438.93 358.796 439.239 358.647 439.567 358.565C439.896 358.482 440.238 358.467 440.572 358.521C440.907 358.574 441.227 358.695 441.513 358.877C441.8 359.058 442.046 359.295 442.238 359.575C442.43 359.854 442.563 360.169 442.629 360.502C442.695 360.834 442.693 361.176 442.622 361.508C442.552 361.839 442.415 362.153 442.22 362.43L429.6 382.32C429.378 382.679 429.067 382.975 428.697 383.18C428.328 383.385 427.912 383.492 427.49 383.49Z" fill="black"/>
<path d="M440.41 389C439.955 389.003 439.508 388.882 439.117 388.649C438.726 388.415 438.406 388.08 438.193 387.678C437.98 387.276 437.88 386.823 437.906 386.368C437.932 385.914 438.082 385.475 438.34 385.1L450.61 367.1C450.788 366.813 451.021 366.565 451.297 366.371C451.573 366.177 451.886 366.04 452.216 365.97C452.546 365.9 452.887 365.897 453.218 365.962C453.549 366.027 453.863 366.159 454.142 366.349C454.421 366.538 454.659 366.783 454.841 367.067C455.023 367.351 455.146 367.669 455.202 368.002C455.257 368.335 455.245 368.675 455.166 369.003C455.087 369.331 454.942 369.64 454.74 369.91L442.48 387.91C442.249 388.246 441.941 388.521 441.58 388.711C441.219 388.901 440.818 389 440.41 389Z" fill="black"/>
<path d="M457.24 390.84C456.719 390.841 456.212 390.676 455.79 390.37C455.524 390.178 455.297 389.936 455.124 389.657C454.951 389.378 454.835 389.067 454.782 388.743C454.729 388.419 454.741 388.088 454.816 387.768C454.891 387.448 455.028 387.146 455.22 386.88L466.54 371.13C466.927 370.591 467.513 370.229 468.167 370.122C468.822 370.015 469.492 370.173 470.03 370.56C470.569 370.947 470.931 371.532 471.038 372.187C471.145 372.841 470.987 373.511 470.6 374.05L459.28 389.8C459.047 390.123 458.74 390.385 458.386 390.566C458.031 390.747 457.638 390.841 457.24 390.84Z" fill="black"/>
<path d="M565 571.2C564.803 571.2 564.607 571.17 564.42 571.11C563.912 570.957 563.486 570.609 563.234 570.142C562.983 569.675 562.928 569.128 563.08 568.62L586.29 491.11L586.8 490.72C608.95 473.72 613.89 440.72 613.93 440.35C614.006 439.819 614.289 439.341 614.717 439.019C615.146 438.698 615.685 438.559 616.215 438.635C616.745 438.711 617.224 438.994 617.546 439.422C617.867 439.851 618.006 440.389 617.93 440.92C617.73 442.33 612.81 475.44 589.79 493.5L566.95 569.77C566.826 570.189 566.568 570.555 566.216 570.813C565.863 571.071 565.436 571.207 565 571.2V571.2Z" fill="white"/>
<path d="M608.31 344.26H608.14L585.74 342.69C585.412 342.667 585.091 342.58 584.796 342.433C584.502 342.286 584.239 342.083 584.023 341.834C583.587 341.333 583.368 340.678 583.415 340.015C583.461 339.352 583.769 338.735 584.271 338.299C584.772 337.863 585.427 337.644 586.09 337.69L608.49 339.26C608.818 339.272 609.141 339.348 609.44 339.485C609.739 339.621 610.007 339.816 610.231 340.056C610.455 340.297 610.629 340.579 610.744 340.887C610.859 341.194 610.912 341.522 610.9 341.85C610.888 342.179 610.812 342.501 610.675 342.8C610.539 343.099 610.344 343.368 610.104 343.592C609.863 343.815 609.581 343.99 609.273 344.104C608.966 344.219 608.638 344.272 608.31 344.26V344.26Z" fill="black"/>
<path d="M321.29 79.6099H172.24C160.576 79.6099 151.12 89.0656 151.12 100.73V163.95C151.12 175.614 160.576 185.07 172.24 185.07H321.29C332.954 185.07 342.41 175.614 342.41 163.95V100.73C342.41 89.0656 332.954 79.6099 321.29 79.6099Z" fill="white"/>
<path d="M321.29 187.07H172.29C166.159 187.062 160.281 184.622 155.947 180.286C151.612 175.95 149.175 170.071 149.17 163.94V100.74C149.175 94.6088 151.612 88.7301 155.947 84.3939C160.281 80.0576 166.159 77.6178 172.29 77.6099H321.29C327.421 77.6178 333.299 80.0576 337.633 84.3939C341.967 88.7301 344.405 94.6088 344.41 100.74V163.94C344.405 170.071 341.967 175.95 337.633 180.286C333.299 184.622 327.421 187.062 321.29 187.07V187.07ZM172.29 81.6099C167.22 81.6178 162.36 83.6362 158.775 87.2223C155.191 90.8084 153.175 95.6696 153.17 100.74V163.94C153.175 169.01 155.191 173.871 158.775 177.457C162.36 181.044 167.22 183.062 172.29 183.07H321.29C326.36 183.062 331.22 181.044 334.805 177.457C338.389 173.871 340.405 169.01 340.41 163.94V100.74C340.405 95.6696 338.389 90.8084 334.805 87.2223C331.22 83.6362 326.36 81.6178 321.29 81.6099H172.29Z" fill="black"/>
<path d="M186 115.86C185.469 115.86 184.961 115.649 184.586 115.274C184.211 114.899 184 114.39 184 113.86C183.87 108.19 186 104.79 187.78 102.94C188.761 101.893 189.939 101.051 191.247 100.46C192.554 99.8701 193.966 99.5437 195.4 99.5C196.8 99.5182 198.182 99.8129 199.467 100.367C200.753 100.922 201.916 101.725 202.89 102.73C204.73 104.58 206.89 108 206.83 113.84C206.83 114.37 206.619 114.879 206.244 115.254C205.869 115.629 205.36 115.84 204.83 115.84C204.299 115.84 203.791 115.629 203.416 115.254C203.041 114.879 202.83 114.37 202.83 113.84C202.83 110.32 201.92 107.47 200.06 105.61C198.854 104.356 197.209 103.617 195.47 103.55V103.55C193.648 103.639 191.933 104.436 190.69 105.77C188.88 107.64 187.96 110.42 188.04 113.77C188.046 114.033 188.001 114.294 187.907 114.539C187.812 114.784 187.671 115.009 187.49 115.199C187.308 115.389 187.092 115.542 186.851 115.649C186.611 115.755 186.352 115.814 186.09 115.82L186 115.86Z" fill="black"/>
<path d="M214.41 166.49H176.67C175.742 166.484 174.825 166.28 173.982 165.892C173.138 165.504 172.387 164.941 171.779 164.24C171.17 163.538 170.718 162.715 170.453 161.826C170.188 160.936 170.115 160 170.24 159.08L175.5 119.53C175.702 117.966 176.465 116.528 177.648 115.485C178.831 114.441 180.353 113.864 181.93 113.86H208.26C209.812 113.868 211.31 114.429 212.485 115.443C213.66 116.457 214.435 117.856 214.67 119.39L220.82 158.94C220.969 159.869 220.915 160.819 220.661 161.726C220.408 162.632 219.961 163.472 219.352 164.19C218.743 164.907 217.986 165.484 217.133 165.881C216.28 166.278 215.351 166.486 214.41 166.49V166.49Z" fill="#31C2E1"/>
<path d="M314.91 107.83H247.5C243.523 107.83 240.3 111.051 240.3 115.025C240.3 118.999 243.523 122.22 247.5 122.22H314.91C318.886 122.22 322.11 118.999 322.11 115.025C322.11 111.051 318.886 107.83 314.91 107.83Z" fill="#FFBB45"/>
<path d="M318.7 141.11H243.7C243.17 141.11 242.661 140.899 242.286 140.524C241.911 140.149 241.7 139.64 241.7 139.11C241.7 138.579 241.911 138.071 242.286 137.696C242.661 137.321 243.17 137.11 243.7 137.11H318.7C319.231 137.11 319.739 137.321 320.114 137.696C320.489 138.071 320.7 138.579 320.7 139.11C320.7 139.64 320.489 140.149 320.114 140.524C319.739 140.899 319.231 141.11 318.7 141.11Z" fill="black"/>
<path d="M308.14 158.21H243.72C243.19 158.21 242.681 157.999 242.306 157.624C241.931 157.249 241.72 156.74 241.72 156.21C241.72 155.68 241.931 155.171 242.306 154.796C242.681 154.421 243.19 154.21 243.72 154.21H308.14C308.671 154.21 309.179 154.421 309.554 154.796C309.929 155.171 310.14 155.68 310.14 156.21C310.14 156.74 309.929 157.249 309.554 157.624C309.179 157.999 308.671 158.21 308.14 158.21V158.21Z" fill="black"/>
<path d="M439.38 34.5898H387.33C379.504 34.5898 373.16 40.934 373.16 48.7598V100.81C373.16 108.636 379.504 114.98 387.33 114.98H439.38C447.206 114.98 453.55 108.636 453.55 100.81V48.7598C453.55 40.934 447.206 34.5898 439.38 34.5898Z" fill="white"/>
<path d="M439.38 117H387.33C383.042 116.997 378.931 115.293 375.899 112.261C372.867 109.229 371.163 105.118 371.16 100.83V48.7598C371.163 44.4721 372.867 40.3607 375.899 37.3289C378.931 34.297 383.042 32.5925 387.33 32.5898H439.38C443.668 32.5925 447.779 34.297 450.811 37.3289C453.843 40.3607 455.547 44.4721 455.55 48.7598V100.81C455.551 102.935 455.134 105.039 454.322 107.002C453.51 108.966 452.32 110.75 450.818 112.254C449.317 113.757 447.534 114.95 445.571 115.764C443.609 116.579 441.505 116.999 439.38 117V117ZM387.33 36.6098C384.103 36.6125 381.009 37.8955 378.728 40.1773C376.446 42.459 375.163 45.553 375.16 48.7798V100.83C375.163 104.057 376.446 107.151 378.728 109.432C381.009 111.714 384.103 112.997 387.33 113H439.38C442.607 112.997 445.701 111.714 447.983 109.432C450.264 107.151 451.547 104.057 451.55 100.83V48.7598C451.547 45.533 450.264 42.439 447.983 40.1573C445.701 37.8755 442.607 36.5925 439.38 36.5898L387.33 36.6098Z" fill="black"/>
<path d="M428.21 59.1299H398.51C393.694 59.1299 389.79 63.034 389.79 67.8499V92.0299C389.79 96.8458 393.694 100.75 398.51 100.75H428.21C433.026 100.75 436.93 96.8458 436.93 92.0299V67.8499C436.93 63.034 433.026 59.1299 428.21 59.1299Z" fill="#31C2E1"/>
<path d="M436.92 74.7402H389.79C389.26 74.7402 388.751 74.5295 388.376 74.1544C388.001 73.7794 387.79 73.2707 387.79 72.7402C387.79 72.2098 388.001 71.7011 388.376 71.326C388.751 70.9509 389.26 70.7402 389.79 70.7402H436.92C437.45 70.7402 437.959 70.9509 438.334 71.326C438.709 71.7011 438.92 72.2098 438.92 72.7402C438.92 73.2707 438.709 73.7794 438.334 74.1544C437.959 74.5295 437.45 74.7402 436.92 74.7402V74.7402Z" fill="#FB6D6D"/>
<path d="M416.46 61.13H413.35C401.25 61.13 397.75 56.77 396.94 53.13C396.78 52.4019 396.779 51.6478 396.938 50.9194C397.097 50.191 397.411 49.5055 397.86 48.91C398.3 48.3162 398.865 47.8252 399.514 47.4713C400.163 47.1173 400.882 46.9087 401.62 46.86C409.62 46.3 414.95 57.86 415.17 58.31L416.46 61.13ZM402.17 50.83H401.89C401.727 50.8426 401.568 50.8902 401.425 50.9696C401.281 51.0489 401.157 51.1582 401.06 51.29C400.958 51.4237 400.887 51.5779 400.85 51.7419C400.814 51.906 400.814 52.0759 400.85 52.24C401.43 54.86 404.59 56.49 409.85 56.97C408.06 54.14 405.2 50.83 402.17 50.83V50.83Z" fill="#FB6D6D"/>
<path d="M413.19 61.1301H410.09L411.37 58.3001C411.6 57.8101 416.92 46.3001 424.92 46.8501C425.661 46.9015 426.382 47.1122 427.034 47.4679C427.686 47.8237 428.254 48.316 428.698 48.9113C429.143 49.5066 429.453 50.1909 429.609 50.9173C429.765 51.6436 429.761 52.3951 429.6 53.1201C428.8 56.7701 425.3 61.1301 413.19 61.1301ZM424.38 50.8301C421.38 50.8301 418.5 54.1701 416.68 56.9801C421.96 56.5001 425.12 54.8701 425.68 52.2501C425.716 52.086 425.715 51.9161 425.679 51.7521C425.643 51.588 425.571 51.4338 425.47 51.3001C425.372 51.1671 425.246 51.0571 425.1 50.9777C424.955 50.8982 424.795 50.8513 424.63 50.8401L424.38 50.8301Z" fill="#FB6D6D"/>
<path d="M425.92 83.2699C425.568 83.2713 425.221 83.1795 424.915 83.0039C424.61 82.8283 424.356 82.5751 424.18 82.2699L413.08 63.1299L402.53 81.5299C402.399 81.7577 402.224 81.9574 402.015 82.1177C401.807 82.2779 401.569 82.3956 401.315 82.4638C401.061 82.5321 400.796 82.5496 400.535 82.5155C400.274 82.4813 400.023 82.3962 399.795 82.2649C399.567 82.1335 399.367 81.9586 399.207 81.7501C399.047 81.5416 398.929 81.3036 398.861 81.0496C398.793 80.7956 398.775 80.5307 398.809 80.2699C398.844 80.0092 398.929 79.7577 399.06 79.5299L413.06 55.1099L427.64 80.2599C427.906 80.7176 427.979 81.2619 427.844 81.7736C427.709 82.2853 427.377 82.7227 426.92 82.9899C426.617 83.1696 426.272 83.2662 425.92 83.2699V83.2699Z" fill="#FB6D6D"/>
<path d="M413.56 102.74C413.03 102.74 412.521 102.529 412.146 102.154C411.771 101.779 411.56 101.271 411.56 100.74V60.4502C411.56 59.9198 411.771 59.4111 412.146 59.036C412.521 58.6609 413.03 58.4502 413.56 58.4502C414.09 58.4502 414.599 58.6609 414.974 59.036C415.349 59.4111 415.56 59.9198 415.56 60.4502V100.74C415.56 101.003 415.508 101.263 415.408 101.506C415.307 101.748 415.16 101.969 414.974 102.154C414.789 102.34 414.568 102.487 414.325 102.588C414.083 102.688 413.823 102.74 413.56 102.74Z" fill="#FB6D6D"/>
<path d="M500.52 150.19C497.18 150.19 494.06 148.19 491.7 144.6C489.431 140.709 488.169 136.313 488.03 131.811C487.89 127.309 488.877 122.844 490.9 118.82C493.08 114.96 496.17 112.82 499.62 112.67C503.07 112.52 506.29 114.55 508.7 118.27C511.054 122.121 512.325 126.536 512.38 131.05C512.7 141.57 507.61 149.98 500.79 150.19H500.52ZM499.87 116.67H499.74C497.74 116.73 495.85 118.2 494.38 120.79C492.72 124.177 491.913 127.918 492.029 131.688C492.146 135.458 493.183 139.142 495.05 142.42C496.68 144.91 498.67 146.23 500.66 146.19C505.1 146.05 508.66 139.19 508.38 131.19C508.355 127.41 507.319 123.705 505.38 120.46C503.76 118 501.82 116.67 499.87 116.67Z" fill="#FB6D6D"/>
<path d="M530.53 143.13C522.64 143.13 516.22 134.71 516.22 124.37C516.22 114.03 522.64 105.6 530.53 105.6C538.42 105.6 544.86 114.02 544.86 124.37C544.86 134.72 538.43 143.13 530.53 143.13ZM530.53 109.6C524.84 109.6 520.22 116.22 520.22 124.37C520.22 132.52 524.84 139.13 530.53 139.13C536.22 139.13 540.86 132.51 540.86 124.37C540.86 116.23 536.23 109.6 530.53 109.6Z" fill="#FB6D6D"/>
<path d="M510.21 131C509.727 130.994 509.263 130.814 508.903 130.493C508.543 130.172 508.311 129.732 508.25 129.253C508.189 128.774 508.303 128.289 508.572 127.888C508.84 127.487 509.244 127.197 509.71 127.07L516.92 125.2C517.178 125.123 517.448 125.099 517.716 125.129C517.983 125.158 518.242 125.242 518.476 125.374C518.71 125.506 518.916 125.684 519.08 125.898C519.243 126.111 519.363 126.355 519.43 126.616C519.497 126.876 519.511 127.148 519.471 127.414C519.431 127.68 519.338 127.935 519.197 128.164C519.056 128.393 518.87 128.592 518.651 128.747C518.431 128.903 518.183 129.013 517.92 129.07L510.71 130.94C510.546 130.979 510.378 130.999 510.21 131Z" fill="#FB6D6D"/>
<path d="M565.91 126.37H542.91C542.38 126.37 541.871 126.159 541.496 125.784C541.121 125.409 540.91 124.901 540.91 124.37C540.91 123.84 541.121 123.331 541.496 122.956C541.871 122.581 542.38 122.37 542.91 122.37H565.91C566.441 122.37 566.949 122.581 567.324 122.956C567.699 123.331 567.91 123.84 567.91 124.37C567.91 124.901 567.699 125.409 567.324 125.784C566.949 126.159 566.441 126.37 565.91 126.37Z" fill="#FB6D6D"/>
<path d="M559.17 227.75C558.6 227.744 558.05 227.544 557.609 227.182C557.169 226.821 556.865 226.32 556.748 225.762C556.632 225.204 556.709 224.623 556.968 224.115C557.226 223.608 557.65 223.203 558.17 222.97L584.91 210.87C585.515 210.597 586.203 210.575 586.824 210.809C587.445 211.044 587.947 211.515 588.22 212.12C588.493 212.724 588.515 213.413 588.281 214.034C588.046 214.654 587.575 215.157 586.97 215.43L560.23 227.53C559.897 227.68 559.535 227.755 559.17 227.75V227.75Z" fill="black"/>
<path d="M229.77 455.61C229.279 455.614 228.797 455.472 228.386 455.202C227.975 454.933 227.653 454.547 227.46 454.095C227.268 453.643 227.213 453.143 227.304 452.66C227.395 452.177 227.627 451.732 227.97 451.38L291.66 384.87C293.04 383.42 294.32 381.87 295.66 380.31L296.06 379.83C298.847 376.547 302.314 373.91 306.222 372.102C310.13 370.294 314.384 369.358 318.69 369.36H346.2C346.863 369.36 347.499 369.623 347.968 370.092C348.437 370.561 348.7 371.197 348.7 371.86C348.7 372.523 348.437 373.159 347.968 373.628C347.499 374.096 346.863 374.36 346.2 374.36H318.71C315.13 374.357 311.593 375.135 308.344 376.64C305.096 378.144 302.214 380.338 299.9 383.07L299.49 383.55C298.15 385.13 296.76 386.77 295.27 388.32L231.58 454.84C231.346 455.084 231.065 455.277 230.754 455.41C230.443 455.542 230.108 455.61 229.77 455.61V455.61Z" fill="black"/>
<path d="M245.12 568.71L186.06 558.79C182.024 558.109 178.188 556.543 174.829 554.203C171.47 551.864 168.672 548.809 166.634 545.259C164.596 541.709 163.371 537.751 163.045 533.671C162.719 529.59 163.301 525.488 164.75 521.66L277.53 223.9C279.705 218.161 283.724 213.307 288.957 210.099C294.189 206.892 300.339 205.514 306.44 206.18L365.96 212.68C370.163 213.137 374.205 214.55 377.777 216.81C381.349 219.071 384.357 222.119 386.569 225.721C388.781 229.323 390.14 233.384 390.54 237.593C390.941 241.801 390.373 246.045 388.88 250L275.64 551.15C273.379 557.163 269.098 562.202 263.531 565.406C257.963 568.609 251.454 569.777 245.12 568.71Z" fill="#004E96"/>
<path d="M210.27 564.86C210.034 564.861 209.8 564.817 209.58 564.73C209.083 564.547 208.679 564.175 208.456 563.696C208.233 563.216 208.21 562.667 208.39 562.17L338.15 209.17C338.232 208.912 338.365 208.674 338.541 208.469C338.718 208.264 338.934 208.097 339.177 207.978C339.419 207.859 339.684 207.791 339.954 207.777C340.224 207.763 340.494 207.804 340.747 207.897C341.001 207.991 341.233 208.135 341.43 208.32C341.626 208.506 341.783 208.729 341.891 208.977C341.999 209.225 342.055 209.492 342.057 209.763C342.058 210.033 342.005 210.301 341.9 210.55L212.14 563.55C211.999 563.933 211.745 564.264 211.41 564.498C211.076 564.732 210.678 564.858 210.27 564.86V564.86Z" fill="#FB6D6D"/>
<path d="M350 355.49H349.77L233.34 342C233.077 341.97 232.823 341.888 232.592 341.76C232.361 341.631 232.157 341.459 231.993 341.252C231.829 341.045 231.707 340.807 231.634 340.553C231.561 340.299 231.54 340.033 231.57 339.77C231.6 339.507 231.682 339.253 231.81 339.022C231.939 338.791 232.111 338.588 232.318 338.423C232.525 338.259 232.763 338.137 233.017 338.064C233.271 337.992 233.537 337.97 233.8 338L350.18 351.52C350.442 351.535 350.7 351.602 350.936 351.716C351.173 351.831 351.385 351.991 351.56 352.187C351.735 352.384 351.87 352.612 351.957 352.861C352.043 353.109 352.08 353.372 352.065 353.635C352.05 353.898 351.983 354.155 351.869 354.392C351.754 354.628 351.594 354.84 351.398 355.016C351.201 355.191 350.972 355.325 350.724 355.412C350.476 355.498 350.212 355.535 349.95 355.52L350 355.49Z" fill="#FB6D6D"/>
<path d="M290.08 348C289.198 347.999 288.345 347.688 287.67 347.12C269.76 332.12 259.06 319.53 255.86 309.74C255.367 308.244 255.305 306.639 255.681 305.109C256.057 303.579 256.857 302.186 257.988 301.09C259.119 299.993 260.536 299.237 262.077 298.908C263.617 298.579 265.22 298.691 266.7 299.23C282.78 304.95 290.95 332.02 293.7 343.38C293.896 344.144 293.841 344.951 293.542 345.68C293.243 346.41 292.716 347.024 292.04 347.43C291.452 347.799 290.774 347.996 290.08 348V348ZM263.82 302.72C262.694 302.735 261.619 303.187 260.82 303.98C260.225 304.548 259.806 305.275 259.612 306.075C259.419 306.874 259.46 307.713 259.73 308.49C261.73 314.67 268.58 325.75 289.73 343.54C281.89 311.97 270.16 304.67 265.46 303C264.93 302.796 264.368 302.688 263.8 302.68L263.82 302.72Z" fill="#FB6D6D"/>
<path d="M236.66 404.37C236.287 404.369 235.922 404.264 235.605 404.066C235.289 403.869 235.034 403.586 234.87 403.251C234.705 402.916 234.638 402.542 234.675 402.171C234.712 401.799 234.853 401.446 235.08 401.15C236.37 399.47 266.84 360.15 286.94 345.28C289.43 342.21 314.28 312.28 334.82 315.43C336.38 315.655 337.845 316.314 339.048 317.333C340.25 318.351 341.142 319.688 341.62 321.19C342.097 322.692 342.143 324.298 341.75 325.824C341.358 327.35 340.543 328.735 339.4 329.82C331.45 337.41 314.55 343.74 289.16 348.62C269.49 363.24 238.56 403.19 238.24 403.62C238.051 403.857 237.81 404.047 237.537 404.177C237.263 404.307 236.963 404.373 236.66 404.37ZM331.66 319.2C317.6 319.2 300.97 335.58 293.66 343.62C320.5 337.97 331.84 331.49 336.66 326.92C337.265 326.362 337.697 325.643 337.906 324.848C338.116 324.052 338.093 323.213 337.84 322.43C337.586 321.64 337.113 320.939 336.475 320.408C335.838 319.877 335.063 319.538 334.24 319.43C333.398 319.287 332.545 319.21 331.69 319.2H331.66Z" fill="#FB6D6D"/>
<path d="M300 416H299.9C299.637 415.987 299.38 415.923 299.142 415.81C298.904 415.698 298.691 415.539 298.514 415.344C298.338 415.149 298.202 414.921 298.113 414.673C298.025 414.425 297.987 414.163 298 413.9C299.26 388.8 286.59 347.74 286.46 347.33C286.302 346.823 286.352 346.275 286.599 345.805C286.845 345.335 287.269 344.983 287.775 344.825C288.282 344.667 288.83 344.717 289.3 344.964C289.77 345.21 290.122 345.633 290.28 346.14C290.81 347.85 303.28 388.3 302 414.14C301.965 414.646 301.738 415.119 301.367 415.464C300.996 415.81 300.507 416.001 300 416Z" fill="#FB6D6D"/>
<path d="M94.0298 514.57H253.07C260.238 514.57 266.05 508.758 266.05 501.59V387.08C266.05 379.911 260.238 374.1 253.07 374.1H94.0298C86.8611 374.1 81.0498 379.911 81.0498 387.08L81.0498 501.59C81.0498 508.758 86.8611 514.57 94.0298 514.57Z" fill="#3D9CF5"/>
<path d="M115.2 516.56C114.67 516.56 114.161 516.349 113.786 515.974C113.411 515.599 113.2 515.09 113.2 514.56V439.47C113.2 438.939 113.411 438.431 113.786 438.056C114.161 437.68 114.67 437.47 115.2 437.47C115.731 437.47 116.239 437.68 116.614 438.056C116.989 438.431 117.2 438.939 117.2 439.47V514.56C117.2 515.09 116.989 515.599 116.614 515.974C116.239 516.349 115.731 516.56 115.2 516.56Z" fill="black"/>
<path d="M247.74 388.17H220.75C217.735 388.17 215.29 390.614 215.29 393.63V408.61C215.29 411.625 217.735 414.07 220.75 414.07H247.74C250.755 414.07 253.2 411.625 253.2 408.61V393.63C253.2 390.614 250.755 388.17 247.74 388.17Z" fill="white"/>
<path d="M250.08 430.27H219.53C218.999 430.27 218.491 430.059 218.116 429.684C217.74 429.309 217.53 428.8 217.53 428.27C217.53 427.74 217.74 427.231 218.116 426.856C218.491 426.481 218.999 426.27 219.53 426.27H250.08C250.61 426.27 251.119 426.481 251.494 426.856C251.869 427.231 252.08 427.74 252.08 428.27C252.08 428.8 251.869 429.309 251.494 429.684C251.119 430.059 250.61 430.27 250.08 430.27Z" fill="black"/>
<path d="M250.08 442.43H227.6C227.07 442.43 226.561 442.219 226.186 441.844C225.811 441.469 225.6 440.961 225.6 440.43C225.6 439.9 225.811 439.391 226.186 439.016C226.561 438.641 227.07 438.43 227.6 438.43H250.08C250.611 438.43 251.119 438.641 251.494 439.016C251.869 439.391 252.08 439.9 252.08 440.43C252.08 440.961 251.869 441.469 251.494 441.844C251.119 442.219 250.611 442.43 250.08 442.43V442.43Z" fill="black"/>
<path d="M115.38 441.47H115.13C111.13 441.37 107.54 438.74 105.54 434.47L83.2601 382.27C83.0519 381.782 83.0461 381.231 83.2439 380.739C83.4418 380.247 83.8271 379.853 84.3151 379.645C84.8031 379.437 85.3538 379.431 85.8461 379.629C86.3383 379.827 86.7319 380.212 86.9401 380.7L109.19 432.84C110.51 435.67 112.78 437.43 115.24 437.5H115.38C117.74 437.5 119.9 435.98 121.32 433.3L151.54 380.3C151.671 380.072 151.846 379.872 152.055 379.712C152.263 379.552 152.501 379.434 152.755 379.366C153.009 379.298 153.274 379.28 153.535 379.314C153.796 379.348 154.047 379.434 154.275 379.565C154.503 379.696 154.703 379.871 154.863 380.08C155.023 380.288 155.141 380.526 155.209 380.78C155.277 381.034 155.295 381.299 155.261 381.56C155.227 381.821 155.141 382.072 155.01 382.3L124.82 435.3C122.73 439.12 119.21 441.47 115.38 441.47Z" fill="black"/>
<path d="M157 516.07C156.469 516.07 155.961 515.859 155.586 515.484C155.21 515.109 155 514.601 155 514.07V395.8C155.36 380.53 148.5 377.37 148.21 377.24C147.723 377.035 147.337 376.645 147.136 376.156C146.936 375.667 146.937 375.118 147.14 374.63C147.342 374.149 147.723 373.766 148.203 373.563C148.683 373.359 149.224 373.351 149.71 373.54C150.11 373.7 159.43 377.62 159 395.85V514.07C159 514.601 158.789 515.109 158.414 515.484C158.039 515.859 157.53 516.07 157 516.07Z" fill="black"/>
<path d="M246.53 298.1H105.27C101.039 298.1 97.6099 301.53 97.6099 305.76V366.44C97.6099 370.671 101.039 374.1 105.27 374.1H246.53C250.76 374.1 254.19 370.671 254.19 366.44V305.76C254.19 301.53 250.76 298.1 246.53 298.1Z" fill="#FB6D6D"/>
<path d="M165 375.52C164.47 375.52 163.961 375.309 163.586 374.934C163.211 374.559 163 374.05 163 373.52V299.86C163 299.329 163.211 298.821 163.586 298.446C163.961 298.071 164.47 297.86 165 297.86C165.53 297.86 166.039 298.071 166.414 298.446C166.789 298.821 167 299.329 167 299.86V373.52C167 374.05 166.789 374.559 166.414 374.934C166.039 375.309 165.53 375.52 165 375.52Z" fill="black"/>
<path d="M139.6 344.12H115.77L97.2401 307.06C97.1226 306.825 97.0525 306.569 97.0338 306.307C97.0152 306.045 97.0484 305.781 97.1315 305.532C97.2146 305.283 97.346 305.052 97.5182 304.854C97.6904 304.655 97.9 304.492 98.1351 304.375C98.3702 304.257 98.6261 304.187 98.8882 304.169C99.1504 304.15 99.4136 304.183 99.6629 304.266C99.9123 304.349 100.143 304.481 100.341 304.653C100.54 304.825 100.703 305.035 100.82 305.27L118.24 340.12H137.34L161.24 300.6C161.515 300.145 161.959 299.818 162.474 299.69C162.99 299.563 163.535 299.645 163.99 299.92C164.445 300.194 164.772 300.638 164.9 301.154C165.027 301.67 164.945 302.215 164.67 302.67L139.6 344.12Z" fill="black"/>
<path d="M161.43 375.52C161.114 375.521 160.803 375.447 160.521 375.305C160.24 375.162 159.996 374.955 159.81 374.7L137.45 344.12H118.1L101.94 369.18C101.797 369.401 101.612 369.592 101.395 369.741C101.179 369.89 100.935 369.995 100.677 370.05C100.42 370.105 100.154 370.108 99.8957 370.06C99.637 370.012 99.3903 369.914 99.1698 369.77C98.7265 369.482 98.4155 369.029 98.3049 368.512C98.1944 367.995 98.2932 367.455 98.5798 367.01L115.92 340.12H139.48L163 372.33C163.155 372.543 163.267 372.784 163.329 373.04C163.391 373.296 163.402 373.561 163.361 373.822C163.321 374.082 163.229 374.331 163.091 374.556C162.954 374.78 162.773 374.976 162.56 375.13C162.232 375.372 161.837 375.508 161.43 375.52Z" fill="black"/>
<path d="M353.62 768.48H55.3498L39.8198 671.65H375.54L353.62 768.48ZM59.6198 763.48H349.62L369.28 676.65H45.6798L59.6198 763.48Z" fill="black"/>
<path d="M200.71 769.77C200.047 769.77 199.411 769.506 198.942 769.038C198.473 768.569 198.21 767.933 198.21 767.27V676.32C198.21 675.657 198.473 675.021 198.942 674.552C199.411 674.083 200.047 673.82 200.71 673.82C201.373 673.82 202.009 674.083 202.478 674.552C202.947 675.021 203.21 675.657 203.21 676.32V767.27C203.21 767.933 202.947 768.569 202.478 769.038C202.009 769.506 201.373 769.77 200.71 769.77V769.77Z" fill="black"/>
<path d="M72.6699 790.74C85.5216 790.74 95.9399 780.232 95.9399 767.27C95.9399 754.308 85.5216 743.8 72.6699 743.8C59.8182 743.8 49.3999 754.308 49.3999 767.27C49.3999 780.232 59.8182 790.74 72.6699 790.74Z" fill="black"/>
<path d="M200.89 790.74C213.852 790.74 224.36 780.232 224.36 767.27C224.36 754.308 213.852 743.8 200.89 743.8C187.928 743.8 177.42 754.308 177.42 767.27C177.42 780.232 187.928 790.74 200.89 790.74Z" fill="black"/>
<path d="M335.07 790.74C347.905 790.74 358.31 780.232 358.31 767.27C358.31 754.308 347.905 743.8 335.07 743.8C322.235 743.8 311.83 754.308 311.83 767.27C311.83 780.232 322.235 790.74 335.07 790.74Z" fill="black"/>
<path d="M414.62 451.29H20.1402C7.66023 451.29 -1.61977 464.29 1.06023 478L40.9302 681.86H373.79L433.62 481.33C438 466.58 428.35 451.29 414.62 451.29Z" fill="#31C2E1"/>
<path d="M200.71 623.81C200.047 623.81 199.411 623.547 198.942 623.078C198.473 622.609 198.21 621.973 198.21 621.31V473.23C198.21 472.567 198.473 471.931 198.942 471.462C199.411 470.993 200.047 470.73 200.71 470.73C201.373 470.73 202.009 470.993 202.478 471.462C202.947 471.931 203.21 472.567 203.21 473.23V621.31C203.21 621.638 203.145 621.963 203.02 622.267C202.894 622.57 202.71 622.846 202.478 623.078C202.246 623.31 201.97 623.494 201.667 623.62C201.363 623.745 201.038 623.81 200.71 623.81Z" fill="black"/>
<path d="M140.31 488.36H51.3902C44.934 488.36 39.7002 493.594 39.7002 500.05C39.7002 506.506 44.934 511.74 51.3902 511.74H140.31C146.766 511.74 152 506.506 152 500.05C152 493.594 146.766 488.36 140.31 488.36Z" fill="white"/>
<path d="M789 317.27H701.8C697.172 317.265 692.735 315.423 689.463 312.15C686.192 308.876 684.353 304.438 684.35 299.81V133.81C684.355 129.183 686.195 124.746 689.466 121.473C692.737 118.2 697.173 116.358 701.8 116.35H789C793.629 116.355 798.067 118.197 801.34 121.47C804.614 124.743 806.455 129.181 806.46 133.81V299.81C806.455 304.439 804.614 308.877 801.34 312.15C798.067 315.424 793.629 317.265 789 317.27ZM701.8 120.36C698.233 120.365 694.813 121.786 692.292 124.309C689.77 126.832 688.353 130.253 688.35 133.82V299.82C688.353 303.387 689.77 306.808 692.292 309.331C694.813 311.855 698.233 313.275 701.8 313.28H789C792.568 313.275 795.989 311.855 798.512 309.332C801.035 306.809 802.455 303.388 802.46 299.82V133.82C802.455 130.252 801.035 126.831 798.512 124.308C795.989 121.785 792.568 120.365 789 120.36H701.8Z" fill="black"/>
<path d="M770.56 232.3H720.28C715.912 232.3 712.37 235.841 712.37 240.21V271.21C712.37 275.578 715.912 279.12 720.28 279.12H770.56C774.929 279.12 778.47 275.578 778.47 271.21V240.21C778.47 235.841 774.929 232.3 770.56 232.3Z" fill="#C7B8F8"/>
<path d="M776.68 251.09H714C713.47 251.09 712.961 250.879 712.586 250.504C712.211 250.129 712 249.62 712 249.09C712 248.559 712.211 248.051 712.586 247.676C712.961 247.301 713.47 247.09 714 247.09H776.7C777.23 247.09 777.739 247.301 778.114 247.676C778.489 248.051 778.7 248.559 778.7 249.09C778.7 249.62 778.489 250.129 778.114 250.504C777.739 250.879 777.23 251.09 776.7 251.09H776.68Z" fill="black"/>
<path d="M733.31 273.49H725.31C723.569 273.423 721.921 272.684 720.713 271.428C719.505 270.173 718.83 268.498 718.83 266.755C718.83 265.013 719.505 263.338 720.713 262.082C721.921 260.826 723.569 260.087 725.31 260.02H733.31C734.216 259.985 735.12 260.134 735.968 260.456C736.815 260.779 737.589 261.269 738.243 261.898C738.896 262.527 739.416 263.281 739.771 264.116C740.126 264.951 740.31 265.848 740.31 266.755C740.31 267.662 740.126 268.56 739.771 269.394C739.416 270.229 738.896 270.983 738.243 271.612C737.589 272.241 736.815 272.731 735.968 273.054C735.12 273.377 734.216 273.525 733.31 273.49V273.49ZM725.31 264.02C724.613 264.062 723.959 264.369 723.48 264.877C723.002 265.385 722.735 266.057 722.735 266.755C722.735 267.453 723.002 268.125 723.48 268.633C723.959 269.141 724.613 269.448 725.31 269.49H733.31C733.683 269.513 734.057 269.459 734.408 269.331C734.76 269.204 735.081 269.006 735.354 268.75C735.626 268.494 735.843 268.185 735.991 267.842C736.139 267.499 736.215 267.129 736.215 266.755C736.215 266.381 736.139 266.012 735.991 265.668C735.843 265.325 735.626 265.016 735.354 264.76C735.081 264.504 734.76 264.306 734.408 264.179C734.057 264.052 733.683 263.998 733.31 264.02H725.31Z" fill="black"/>
<path d="M772.09 149.25H718.64C713.526 149.25 709.38 153.396 709.38 158.51V186.81C709.38 191.924 713.526 196.07 718.64 196.07H772.09C777.204 196.07 781.35 191.924 781.35 186.81V158.51C781.35 153.396 777.204 149.25 772.09 149.25Z" fill="#6DC8C2"/>
<path d="M745.36 184.65C742.986 184.65 740.666 183.946 738.693 182.628C736.72 181.309 735.182 179.435 734.273 177.242C733.365 175.049 733.127 172.637 733.59 170.309C734.053 167.981 735.196 165.843 736.875 164.165C738.553 162.486 740.691 161.344 743.019 160.88C745.347 160.417 747.759 160.655 749.952 161.563C752.145 162.472 754.019 164.01 755.338 165.983C756.656 167.956 757.36 170.277 757.36 172.65C757.36 175.833 756.096 178.885 753.845 181.135C751.595 183.386 748.542 184.65 745.36 184.65V184.65ZM745.36 164.65C743.778 164.65 742.231 165.119 740.915 165.998C739.6 166.877 738.574 168.127 737.969 169.588C737.363 171.05 737.205 172.659 737.514 174.211C737.822 175.762 738.584 177.188 739.703 178.307C740.822 179.426 742.247 180.188 743.799 180.496C745.351 180.805 746.96 180.646 748.421 180.041C749.883 179.435 751.133 178.41 752.012 177.094C752.891 175.779 753.36 174.232 753.36 172.65C753.364 171.597 753.16 170.553 752.76 169.579C752.359 168.605 751.771 167.72 751.027 166.974C750.284 166.228 749.401 165.636 748.428 165.232C747.456 164.828 746.413 164.62 745.36 164.62V164.65Z" fill="black"/>
<path d="M781.46 184.7H774.68C771.707 184.7 768.856 183.519 766.753 181.416C764.651 179.314 763.47 176.463 763.47 173.49C763.47 170.517 764.651 167.665 766.753 165.563C768.856 163.461 771.707 162.28 774.68 162.28H781.46V166.28H774.68C772.768 166.28 770.934 167.039 769.582 168.392C768.23 169.744 767.47 171.578 767.47 173.49C767.47 175.402 768.23 177.236 769.582 178.588C770.934 179.94 772.768 180.7 774.68 180.7H781.46V184.7Z" fill="black"/>
<path d="M716.26 184.7H709.47V180.7H716.26C718.172 180.7 720.006 179.94 721.358 178.588C722.71 177.236 723.47 175.402 723.47 173.49C723.47 171.578 722.71 169.744 721.358 168.392C720.006 167.039 718.172 166.28 716.26 166.28H709.47V162.28H716.26C719.233 162.28 722.084 163.461 724.187 165.563C726.289 167.665 727.47 170.517 727.47 173.49C727.47 176.463 726.289 179.314 724.187 181.416C722.084 183.519 719.233 184.7 716.26 184.7V184.7Z" fill="black"/>
<path d="M696.49 743.6C696.304 743.602 696.119 743.578 695.94 743.53L679.66 739.82C679.013 739.673 678.451 739.275 678.097 738.713C677.744 738.151 677.628 737.472 677.775 736.825C677.922 736.178 678.32 735.616 678.882 735.262C679.444 734.909 680.123 734.793 680.77 734.94L697.05 738.66C697.652 738.795 698.183 739.147 698.542 739.649C698.9 740.152 699.059 740.769 698.99 741.382C698.92 741.995 698.627 742.561 698.165 742.97C697.704 743.38 697.107 743.604 696.49 743.6V743.6Z" fill="black"/>
<path d="M690.73 757.26C690.541 757.261 690.353 757.237 690.17 757.19L673.89 753.47C673.558 753.41 673.241 753.283 672.959 753.097C672.677 752.911 672.435 752.67 672.249 752.388C672.063 752.106 671.936 751.789 671.875 751.457C671.815 751.125 671.822 750.784 671.897 750.454C671.973 750.125 672.114 749.814 672.312 749.541C672.511 749.267 672.762 749.037 673.052 748.864C673.342 748.691 673.664 748.578 673.999 748.532C674.334 748.487 674.674 748.51 675 748.6L691.28 752.32C691.882 752.454 692.414 752.806 692.772 753.309C693.13 753.811 693.289 754.428 693.22 755.042C693.15 755.655 692.857 756.22 692.395 756.63C691.934 757.039 691.337 757.264 690.72 757.26H690.73Z" fill="black"/>
<path d="M404.93 754.36C404.575 754.36 404.225 754.284 403.903 754.138C403.58 753.991 403.293 753.777 403.06 753.51L392 741C391.596 740.498 391.401 739.86 391.456 739.218C391.511 738.576 391.812 737.98 392.295 737.555C392.779 737.129 393.408 736.907 394.052 736.934C394.695 736.961 395.304 737.235 395.75 737.7L406.75 750.23C407.186 750.728 407.408 751.379 407.367 752.04C407.326 752.701 407.025 753.32 406.53 753.76C406.081 754.137 405.516 754.349 404.93 754.36Z" fill="black"/>
<path d="M388.68 761.49C388.324 761.493 387.971 761.418 387.646 761.271C387.322 761.125 387.033 760.909 386.8 760.64L375.8 748.12C375.582 747.874 375.416 747.587 375.309 747.276C375.203 746.966 375.158 746.637 375.179 746.309C375.199 745.981 375.284 745.661 375.428 745.366C375.572 745.071 375.774 744.807 376.02 744.59C376.266 744.372 376.553 744.206 376.863 744.099C377.174 743.993 377.503 743.948 377.83 743.969C378.158 743.989 378.479 744.074 378.774 744.218C379.069 744.363 379.332 744.564 379.55 744.81L390.55 757.34C390.871 757.699 391.081 758.144 391.155 758.62C391.228 759.096 391.162 759.583 390.964 760.023C390.766 760.462 390.445 760.835 390.039 761.095C389.634 761.355 389.162 761.492 388.68 761.49V761.49Z" fill="black"/>
</svg>
