<svg id="man1" xmlns="http://www.w3.org/2000/svg" viewBox="0 0 442.14 538.96"><defs><style>.cls-1{fill:#a7cce9;}.cls-2{fill:#044faa;}.cls-11,.cls-3{fill:#31c2e1;}.cls-10,.cls-4{fill:none;}.cls-4,.cls-8{stroke:#031f43;}.cls-10,.cls-4,.cls-8{stroke-linecap:round;stroke-linejoin:round;stroke-width:2px;}.cls-5{fill:#347ce1;}.cls-6,.cls-8{fill:#fff;}.cls-7{fill:#031f43;}.cls-9{fill:#09385a;}.cls-10{stroke:#fff;}.cls-11{stroke:#1c1c1c;stroke-miterlimit:10;}.cls-12{fill:#e1fbff;}</style></defs><rect class="cls-1" x="181.39" y="222.67" width="79.74" height="284.51"/><path class="cls-2" d="M316.4,281.56l-6.32-10.06.25-84.06a12,12,0,0,1,12-12h52.27a12.05,12.05,0,0,1,12.05,11.94l.75,84.13L380,281.56Z" transform="translate(-127.22 -58.89)"/><path class="cls-3" d="M339.59,211h42.77v38.79A96.2,96.2,0,0,1,364,251.64c-9.83,0-24.44-.53-24.44-.53Z" transform="translate(-127.22 -58.89)"/><path class="cls-4" d="M326.27,354.87V297h45v57.61S326.53,354.62,326.27,354.87Z" transform="translate(-127.22 -58.89)"/><path class="cls-4" d="M329.89,354.77v-7.86a33.5,33.5,0,0,1,18.35-5.68,39.83,39.83,0,0,1,19.19,5.35v8Z" transform="translate(-127.22 -58.89)"/><rect class="cls-4" x="209.17" y="295.86" width="6.37" height="19.85"/><rect class="cls-4" x="226.77" y="295.86" width="6.37" height="19.85"/><polyline class="cls-4" points="199.06 295.98 202.1 368.29 239.87 368.29 243.77 295.72"/><polyline class="cls-4" points="202.1 368.29 202.1 507.04 239.4 507.04 239.4 368.29"/><rect class="cls-5" x="177.74" y="507.13" width="86.46" height="7.28"/><path class="cls-6" d="M444.9,247l-4.54-.1a14.26,14.26,0,0,0-1.12-2.59c-.28-.19-16.51.09-17,1.48s-1,16.42-.92,20.6.51,11.82.51,11.82l17.77-.35-.19-3.59a4.76,4.76,0,0,0,3.71.56c2.41-.46,6-2.32,6.49-6.22s.65-16.88-.46-18.46S444.9,247,444.9,247Z" transform="translate(-127.22 -58.89)"/><path class="cls-7" d="M465,549.08s-12.32,7.26-19.8,9.24-16.95,4-18.05,8.36-.44,5.5-.44,5.5,4,4,26,1.1,49.47-3,49.47-3c1.57-.76,31.41-28.09-2.16-19.4C493.17,552.6,465,549.08,465,549.08Z" transform="translate(-127.22 -58.89)"/><path class="cls-7" d="M507.25,561.84s-10.56,14.74-15.41,18.26-7.7,9-7.7,11,2,5.72,12.11,4.62,25.52-5.94,33.44-9.68,11.88-5.94,14.3-7.7.88-10.12.88-10.12Z" transform="translate(-127.22 -58.89)"/><path class="cls-2" d="M460.46,301.26s-4,9-4.85,26.78-.27,95.62,1.86,121.92,7.44,79.16,6.91,84.47-3.19,14.34-3.19,14.34a16.4,16.4,0,0,0,10.62,8c7.71,1.86,23.3,2.15,23.3,2.15l5.39-.82s-1.59,2.66,2.92,5,32.41,8.5,38,8.5,6.11-3.46,6.11-3.46-1.86-27.89-2.13-38.51,2.13-76.24,2.66-93.24,3.18-94.81,1.85-102.26-10.35-56-10.35-56Z" transform="translate(-127.22 -58.89)"/><path class="cls-8" d="M516.44,344s-5.76,22.59-3.66,25.52a6.26,6.26,0,0,0,5.18,2.7,9.53,9.53,0,0,0,5,3.15c3.28.82,7.26-1.29,7.26-1.29a13.29,13.29,0,0,0,5-1.05,6.25,6.25,0,0,0,3.63-5.15c0-2,2.57-18.74,2.46-19.21S516.44,344,516.44,344Z" transform="translate(-127.22 -58.89)"/><path class="cls-9" d="M480.88,164.79A28.47,28.47,0,0,0,460.69,180c-7,13.59-17.44,63.87-17.44,63.87L440.89,247s7.9,7.73,6.47,16.44-3.31,11.13-3.31,11.13l10.14-1.76,6.46,21.74s-1.73,4.62-.19,6.73,11.16,10.39,32.51,4.43,30.77-10.39,30.77-10.39l-3.46,31.54s-2.69,1.93-2.69,3.47S516.44,344,516.44,344s4.8,3.47,13.84,5.2,12.32,1.73,12.32,1.73,6.73-14.81,7.3-16.74,4-13.85,6-20,13.66-47.32,13.46-69.83,1.93-41.16-10.77-59.24-31.74-26.74-31.74-26.74l-35.94,8.2Z" transform="translate(-127.22 -58.89)"/><path class="cls-6" d="M486.07,98.76s-5.91,12.7-6.94,15.8l-1,3.1,4.33,1.06-6.88,9.92s3,2.3,2.7,4.08,5.61,21.11,17.57,28.93,27.31-11.51,28.79-15.5,2.66-19.49-.15-27.75-13.88-21.26-13.88-21.26Z" transform="translate(-127.22 -58.89)"/><path class="cls-3" d="M482.64,170.35l-.86,8.25s5.14,3.11,5.14,2.88,9.31-13.29,9.31-13.29l-8.77-3.05Z" transform="translate(-127.22 -58.89)"/><path class="cls-3" d="M481.78,178.6s-15.4,37-20.17,54.83-10.7,54.5-9.78,57.8,14,19.14,14,19.14,14.57-18.4,15.49-19.68-1.76-35.6-1.57-53.59,7.14-55.62,7.14-55.62Z" transform="translate(-127.22 -58.89)"/><path class="cls-4" d="M523.74,295.3s4-25.87,4.5-36c.56-10.5.63-24.51.66-33.44,0-10.66.17-16.63.17-16.63" transform="translate(-127.22 -58.89)"/><polygon class="cls-4" points="312.69 186.19 312.33 218.84 294.57 219.2 293.15 186.19 312.69 186.19"/><path class="cls-4" d="M500.5,558.07s.8-27.09,0-38.52-5.05-72.51-7.17-87.65-9.83-60-9.83-60" transform="translate(-127.22 -58.89)"/><path class="cls-4" d="M483.3,133.52c-3.48-.53-8.22-4-8.31-4.82s6.88-9.91,6.88-9.91l-4.64-1.07s3.63-12.92,7.16-17.25" transform="translate(-127.22 -58.89)"/><path class="cls-4" d="M485.89,119.86s2-1.16,5.8.18,4.64,2.32,4.64,2.32" transform="translate(-127.22 -58.89)"/><path class="cls-4" d="M489.28,119.51s-1.16,2.32,2,3.66,3.19-1.52,3.19-1.52" transform="translate(-127.22 -58.89)"/><path class="cls-7" d="M480.62,98.7c-.44,1.45.36,4.64,5.89,4.2s11.88-4.65,14.74-1.07-.46,12,1.23,18.48,5.92,11.38.62,15.24c-2.13,1.56,7.9,1.35,7.9,1.35s1.56-9.08,6.14-9.08c3.13,0,4.86,2.73,5.3,5.58s-2.16,5.4-2.43,5.31,2.4,11,6.77,11.42,10.27-3,8.93-7-4.28-7.59-3.66-13.49,3.13-14.46-.62-24.1-6.88-14.92-13.75-16.79-16.17.36-16.17.36a14.19,14.19,0,0,0-9.37-.18C487.14,90.66,482.5,92.45,480.62,98.7Z" transform="translate(-127.22 -58.89)"/><polygon class="cls-2" points="395.38 89.71 363.31 107.27 371.41 121.79 403.99 101.53 395.38 89.71"/><path class="cls-2" d="M482.07,160.46c.08.47,5,5.3,5,5.3s-10.38,8.31-10.38,8.08-.23-10.66-.23-10.66Z" transform="translate(-127.22 -58.89)"/><path class="cls-7" d="M475.44,133.61s1.27-3,2.71-2.12c.57.33-.42.37.57.73.19.07-1.78,2.91,1.31,4.18a28,28,0,0,0,15.37,1.29c5.09-1.16,15.31-5.5,15.31-5.5s1.88,13.57.09,17.59-10.72,13.81-14.75,15.32c-6.36,2.38-11.86.39-19.36-2s-7.14-10-6.16-15.63S475.44,133.61,475.44,133.61Z" transform="translate(-127.22 -58.89)"/><path class="cls-6" d="M476.4,141.06a16.5,16.5,0,0,0,5,.6c3.14-.06,6.3-.43,6.3-.43a7.05,7.05,0,0,1-6.52,4.73C477.19,146,476.4,141.06,476.4,141.06Z" transform="translate(-127.22 -58.89)"/><path class="cls-4" d="M517.36,370.75s1.07-6.67,1.67-9.17" transform="translate(-127.22 -58.89)"/><path class="cls-4" d="M523.56,374.08s1.07-6.67,1.66-9.17" transform="translate(-127.22 -58.89)"/><path class="cls-4" d="M530,373.49s1.07-6.67,1.66-9.18" transform="translate(-127.22 -58.89)"/><path class="cls-4" d="M520.28,326.84s4.09,3.34,15.74,6.64" transform="translate(-127.22 -58.89)"/><path class="cls-8" d="M439.9,245.08c0,1.07-4.37,1.94-9.76,1.94s-9.77-.87-9.77-1.94,4.37-2.2,9.77-2.2S439.9,244,439.9,245.08Z" transform="translate(-127.22 -58.89)"/><path class="cls-8" d="M415.51,252.08s-.76-3.45.75-4.42,7-.72,8.75,1.94c.87,1.35-2.38,3.35-2.38,3.35a5.1,5.1,0,0,1,1.52,3.89,2.81,2.81,0,0,1-2.27,2.8s2.59,4.11,2.16,5.84a1.86,1.86,0,0,1-2.16,1.4s1.51,3.57.21,4.65-3-.68-3.8-2.52a5.05,5.05,0,0,1-.12-3.46s-1.91-3.1-1.8-4.72a8,8,0,0,1,.43-2.37Z" transform="translate(-127.22 -58.89)"/><path class="cls-4" d="M443.25,243.89s3.25-2.72,9.48-2.51" transform="translate(-127.22 -58.89)"/><path class="cls-4" d="M439.88,271a15.75,15.75,0,0,0,5.95-2.4" transform="translate(-127.22 -58.89)"/><path class="cls-4" d="M444.05,274.55s-2.83.46-3.69,0" transform="translate(-127.22 -58.89)"/><path class="cls-4" d="M415.51,252.08c-.51.28,5,1.53,7.12.87" transform="translate(-127.22 -58.89)"/><path class="cls-4" d="M416.87,258.28c-.51.28,3.45,1.57,5.62.91" transform="translate(-127.22 -58.89)"/><path class="cls-4" d="M418.17,265.55a10.81,10.81,0,0,0,3.71,1.33" transform="translate(-127.22 -58.89)"/><path class="cls-6" d="M237.24,71.35s4.74,11.72,4.62,16.46-3.08,19.89-4.62,24.62-3.31,8.88-6.75,11-2.72,2-2.6,4.86-1.54,14-1.54,14l-9.23,13.37-24-33.5a3.26,3.26,0,0,1,2.13-3.2,30.19,30.19,0,0,0,4.62-2v-9.71s-5.33-12.31-1.89-14.68,5.8-.59,5.8-.59S200.3,78.58,208,76.33,237.24,71.35,237.24,71.35Z" transform="translate(-127.22 -58.89)"/><path class="cls-7" d="M210.7,553.9l-1.35,14s19.4,1.35,24,1.35,8.63,1.88,16.71,3S286.7,572,286.7,572s-.54-9.7-3.78-12.13-25.84-10.28-29.9-11.34S210.7,553.9,210.7,553.9Z" transform="translate(-127.22 -58.89)"/><path class="cls-9" d="M248.21,270.39s-.42,5.62.83,9.37a178.7,178.7,0,0,1,8.75,56.64c-.42,29.16-4.33,125.46-3.9,141.49s-3,42.45-5.2,46.35a60.36,60.36,0,0,0-3,6.06L253,548.49s-9.09,2.17-15.16,4.33-28.58,3.9-28.58,3.9-3-16.89-3-25.55,3-107.42,2.16-118.25-6.5-149-6.5-149Z" transform="translate(-127.22 -58.89)"/><path class="cls-10" d="M214.92,539.69S230,535,235.49,534.21a23.52,23.52,0,0,0,10.17-3.91" transform="translate(-127.22 -58.89)"/><path class="cls-10" d="M253,554a8.54,8.54,0,0,1,7.79-3" transform="translate(-127.22 -58.89)"/><path class="cls-10" d="M258.31,556.34a8.58,8.58,0,0,1,7.79-3" transform="translate(-127.22 -58.89)"/><path class="cls-10" d="M264.41,558a8.55,8.55,0,0,1,7.79-3" transform="translate(-127.22 -58.89)"/><path class="cls-7" d="M181.12,564.08s2.9,8.69,6.13,13.81,5.66,13.48,5.66,15.09-9.16,4.58-13.21,4.85-17.78-2.69-21.29-7-5.12-8.36-6.47-9.44a49.25,49.25,0,0,1-4.58-5.39s.54-16.17,1.08-17.24,20.48-4.32,25.6-2.43S181.12,564.08,181.12,564.08Z" transform="translate(-127.22 -58.89)"/><path class="cls-9" d="M224.87,353.15c-.43,2.16-12.13,52-14.73,66.27S187.19,525.1,187.19,525.1s1.3,14.3.86,17.76-6.49,8.23-6.49,8.23l-.44,13s-7.79-4.76-15.59-3.89-14.73,6.93-17.76.43,2.17-19.49,2.17-19.49,1.3-10.4,1.3-16,4.33-50.24,4.76-71.47,9.53-58,10.83-68-2.17-74.93-2.6-86.19,6.06-30.32,6.06-30.32L217,258.18" transform="translate(-127.22 -58.89)"/><path class="cls-8" d="M142.54,237.08s4.43,23.07,3.5,30.53,3.49,30.52,5.36,38.68,6.52,30.53,6.76,36.12,1.16,17.24,1.86,20.51,8.39,13.51,10.72,14,7,.7,9.55-.23a30.93,30.93,0,0,0,5.13-2.57s3.5,1.17,4.43.7-2.1-16.08-2.57-20.27-7.45-14.45-9.32-17.48-6.52-15.15-7-17.71-2.78-32.31-3.6-42.72-1.29-28.82-1.29-28.82Z" transform="translate(-127.22 -58.89)"/><path class="cls-4" d="M185.42,374.1a89.83,89.83,0,0,1-3.44-9.72,28.83,28.83,0,0,1-.93-6.32" transform="translate(-127.22 -58.89)"/><path class="cls-10" d="M154.46,553.8s20.33-3.42,27.1-2.71" transform="translate(-127.22 -58.89)"/><path class="cls-10" d="M162,546.1s11.9-6.36,16-16.82" transform="translate(-127.22 -58.89)"/><path class="cls-10" d="M163.12,565.16s8-1.43,13.41.36" transform="translate(-127.22 -58.89)"/><path class="cls-10" d="M164.91,570.53s8-1.43,13.41.35" transform="translate(-127.22 -58.89)"/><path class="cls-10" d="M166.57,575.78s8.05-1.43,13.41.36" transform="translate(-127.22 -58.89)"/><path class="cls-3" d="M190.44,133.55s-30.69,12.92-34.84,17.31S139,191.93,135.29,203.7s-8.07,33.69-8.07,33.69,13.84,2.77,21.46,6,17.76,8.31,17.76,8.31-2.53,21.46.93,24.92,20.07,1.61,31.61-.93,49.38-3.46,49.38-3.46,9.23-5.53,10.85-9-.23-45.69-.23-45.69l12.69-2.3s-6.23-45.69-11.08-53.54-27-23.54-30.46-24.69c-1.35-.45-7.76,14.81-15,14.21C203.82,150.3,190.44,133.55,190.44,133.55Z" transform="translate(-127.22 -58.89)"/><path class="cls-4" d="M166.44,251.7s5.08-27.23,4.85-46.16a233.76,233.76,0,0,0-3.46-36" transform="translate(-127.22 -58.89)"/><line class="cls-4" x1="128.53" y1="112.5" x2="131.76" y2="158.65"/><path class="cls-4" d="M228.18,108.36a12.49,12.49,0,0,0,4.82-1.7l-3.14-11.52s.79-6.71,8.45-7" transform="translate(-127.22 -58.89)"/><path class="cls-4" d="M232.75,114.13l-10.45-1.82s-.13,5.06,3.57,5.94S232.75,114.13,232.75,114.13Z" transform="translate(-127.22 -58.89)"/><line class="cls-4" x1="72.45" y1="52.19" x2="70.88" y2="68.13"/><path class="cls-7" d="M197.2,112a2.66,2.66,0,0,0,3.93-1.56c.33-1.16.54-2.4.19-3-.79-1.38-3.75-3-3.21-6s3-6,4.45-2.33,2.07,4.34,3.86,3.17S204.66,86.86,208,83.85s9.33.76,12.84.89,7.93,2.82,13.78-3.07,5.69-7.29,6.42-11.54a43.86,43.86,0,0,0,.62-7.72,35.23,35.23,0,0,1-16-1.71c-7.87-3-24-2.94-31.33,5.34s-7.75,10.73-6.8,17.87,1.21,8.29,1,10.86,1.27,9.5,4.05,13A18.35,18.35,0,0,0,197.2,112Z" transform="translate(-127.22 -58.89)"/><path class="cls-7" d="M239.58,73.46s4,3.47,4.64,11.77-3.58,22.06-5.58,18.28c-.21-.41.7-22.93-1.82-26.56S239.58,73.46,239.58,73.46Z" transform="translate(-127.22 -58.89)"/><path class="cls-4" d="M239.11,101.06c0,.49-2.44,16.63-7.33,21.69-6.82,7-13.45,5.5-17,3.26-5.38-3.42-9.62-10.44-9.62-10.44" transform="translate(-127.22 -58.89)"/><path class="cls-4" d="M233.32,95.25a7.67,7.67,0,0,0,5.54,0" transform="translate(-127.22 -58.89)"/><path class="cls-4" d="M218,95.48a7.63,7.63,0,0,0,5.53,0" transform="translate(-127.22 -58.89)"/><polygon class="cls-11" points="71.61 61.91 66.84 63.5 88.23 91.55 76.23 107.88 56.86 77.96 64.81 61.19 71.9 58.15 71.61 61.91"/><path class="cls-11" d="M215.45,150.44c.17-.54,9.89-16.33,9.89-16.33l.48-7,2-1,4.65,12.77-2.31,27.78Z" transform="translate(-127.22 -58.89)"/><polygon class="cls-12" points="88.29 92.86 83.1 99.98 86.19 106.39 91.1 106.5 94.31 99.3 88.29 92.86"/><path class="cls-12" d="M218.26,164.09s1.6,42,3.32,60.49,7.93,46.11,7.93,46.11l-8.57,11.58-12.66-11.8s-1.5-27-.86-50.61S213.34,164,213.34,164Z" transform="translate(-127.22 -58.89)"/><path class="cls-8" d="M251.23,229.86s-5-2.22-6.25-.14,0,3.75.7,4.72,4.72,3.19,4.72,3.19Z" transform="translate(-127.22 -58.89)"/><path class="cls-8" d="M249.84,213.47c-.14.7-2.22,34.71-2.22,34.71l18.74,3.61,8.61-35.4Z" transform="translate(-127.22 -58.89)"/><path class="cls-8" d="M274.38,232.24a3.17,3.17,0,0,0-2.83-2.7c-2.86-.28-8.39-.68-9.16,1.16-1.2,2.86,1.83,4.21,1.83,4.21s-6.81-1-7,1.86a6.12,6.12,0,0,0,1.65,4.34s-3.72-1-4.35,1.68a4,4,0,0,0,.59,3.39s-1.92,1.69-1,3.72,7.53,3.47,11.61,3.8,7.36-3.44,8-5.4a17.08,17.08,0,0,0,.33-5.39,8.23,8.23,0,0,0,1.63-4.25,6.72,6.72,0,0,0-1-4.55Z" transform="translate(-127.22 -58.89)"/><line class="cls-8" x1="137.01" y1="176.01" x2="143.05" y2="176.83"/><line class="cls-8" x1="131.62" y1="182.22" x2="141.09" y2="182.87"/><line class="cls-8" x1="128.02" y1="187.45" x2="139.95" y2="189.25"/><path class="cls-4" d="M180.56,375.57s-3.66-6.47-4.39-9.65" transform="translate(-127.22 -58.89)"/><path class="cls-4" d="M174.21,376.55s-3.66-6.47-4.39-9.65" transform="translate(-127.22 -58.89)"/></svg>