<svg id="illustration" xmlns="http://www.w3.org/2000/svg" xmlns:xlink="http://www.w3.org/1999/xlink" viewBox="0 0 546.92 537.6"><defs><style>.cls-1,.cls-11,.cls-14,.cls-16,.cls-18,.cls-21,.cls-23,.cls-25,.cls-26,.cls-28,.cls-3,.cls-6{fill:none;}.cls-2,.cls-4{fill:#31c2e1;}.cls-2{opacity:0.21;}.cls-3,.cls-5,.cls-6{stroke:#30c3e2;}.cls-11,.cls-14,.cls-16,.cls-18,.cls-21,.cls-23,.cls-25,.cls-26,.cls-28,.cls-3,.cls-6{stroke-linecap:round;stroke-linejoin:round;}.cls-11,.cls-14,.cls-16,.cls-18,.cls-21,.cls-23,.cls-25,.cls-28,.cls-3{stroke-width:1.8px;}.cls-5{fill:#b8d8c7;stroke-miterlimit:10;}.cls-6{stroke-width:1.8px;}.cls-7{fill:#63737a;}.cls-8{fill:#09385a;}.cls-9{fill:#22272e;}.cls-10{fill:#f4c2c9;}.cls-11,.cls-26{stroke:#22272e;}.cls-12{fill:#6dafa7;}.cls-13{fill:#ffe779;}.cls-14{stroke:#63737a;}.cls-15{fill:#282828;}.cls-16{stroke:#282828;}.cls-17{fill:#f8ab5d;}.cls-18{stroke:#6dafa7;}.cls-19{fill:#e26e85;}.cls-20{fill:#078ea0;}.cls-21{stroke:#fff;}.cls-22{clip-path:url(#clip-path);}.cls-23{stroke:#85f6ff;}.cls-24{fill:#9ff4ff;}.cls-25{stroke:#f4c2c9;}.cls-26{stroke-width:1.8px;}.cls-27{fill:#fff;}.cls-28{stroke:#e26e85;}</style><clipPath id="clip-path" transform="translate(-222.81 -115.1)"><path class="cls-1" d="M554.8,213.9s5,1.5,15.6,1.7,22.7,3.3,27.4,9.2,6.2,49.4,5.5,69.1-14.8,49-14.8,49-33.7,3.8-61.3,2.5-34.2-7.4-36.1-9.3-3-6.5-1.9-8.5,6.5-17.5,8.5-32.4-2.2-35.7-.3-54,9-23.7,9-23.7,8.9-3,24.3-3.5A235.38,235.38,0,0,1,554.8,213.9Z"/></clipPath></defs><path class="cls-2" d="M674.56,565.3,280.82,550.4c-18.33-.7-33.4-19.2-35.21-43.3l-19-248c-2.12-28.1,14.39-52.6,35.74-53l438.27-8c22.11-.4,39.45,25.1,36.72,54.1L711.81,523.1C709.47,547.8,693.34,566.1,674.56,565.3Z" transform="translate(-222.81 -115.1)"/><path class="cls-3" d="M665,366.9h15.37c1.67,0,3-1.6,3.26-3.8l1.21-14.4c.22-2.5-1.29-4.8-3.26-4.8H663.75c-2,0-3.41,2.2-3.26,4.8l1.21,14.4C661.93,365.3,663.29,366.9,665,366.9Z" transform="translate(-222.81 -115.1)"/><path class="cls-4" d="M674.42,344s6.06-.8,7.27-11.6c0,0-5.45,2.1-7.19,7.2,0,0-.76-11.4-4.85-12.5,0,0-1.81,8.5,1.06,12.7a8.6,8.6,0,0,0-7.8-4.7s1.44,6.8,7,8.8" transform="translate(-222.81 -115.1)"/><path class="cls-3" d="M297.19,347.2h15.37c1.66,0,3-1.6,3.25-3.8L317,329c.23-2.5-1.28-4.8-3.25-4.8H296c-2,0-3.4,2.2-3.25,4.8l1.21,14.4C294.08,345.5,295.52,347.2,297.19,347.2Z" transform="translate(-222.81 -115.1)"/><path class="cls-4" d="M306.65,324.2s6.06-.8,7.27-11.6c0,0-5.45,2.1-7.19,7.2,0,0-.76-11.4-4.85-12.5,0,0-1.82,8.5,1.06,12.7a8.61,8.61,0,0,0-7.8-4.7s1.44,6.8,7,8.8" transform="translate(-222.81 -115.1)"/><path class="cls-3" d="M610.27,416.7h68.3c1.74,0,3.18-1.9,3.18-4.2V385c0-2.3-1.44-4.2-3.18-4.2h-68.3c-1.74,0-3.18,1.9-3.18,4.2v27.4C607.09,414.8,608.53,416.7,610.27,416.7Z" transform="translate(-222.81 -115.1)"/><path class="cls-4" d="M636.54,390.6h15.75c.61,0,1.14-.7,1.14-1.5h0c0-.8-.53-1.5-1.14-1.5H636.54c-.6,0-1.13.7-1.13,1.5h0C635.41,389.9,635.94,390.6,636.54,390.6Z" transform="translate(-222.81 -115.1)"/><path class="cls-3" d="M610.27,462.5h68.3c1.74,0,3.18-1.9,3.18-4.2V430.9c0-2.3-1.44-4.2-3.18-4.2h-68.3c-1.74,0-3.18,1.9-3.18,4.2v27.4C607.09,460.6,608.53,462.5,610.27,462.5Z" transform="translate(-222.81 -115.1)"/><path class="cls-4" d="M636.54,436.4h15.75c.61,0,1.14-.7,1.14-1.5h0c0-.8-.53-1.5-1.14-1.5H636.54c-.6,0-1.13.7-1.13,1.5h0C635.41,435.7,635.94,436.4,636.54,436.4Z" transform="translate(-222.81 -115.1)"/><path class="cls-3" d="M299.53,494.9h68.3c1.74,0,3.18-1.9,3.18-4.2V463.3c0-2.3-1.44-4.2-3.18-4.2h-68.3c-1.74,0-3.18,1.9-3.18,4.2v27.4C296.35,493,297.79,494.9,299.53,494.9Z" transform="translate(-222.81 -115.1)"/><path class="cls-4" d="M325.88,468.7h15.75c.61,0,1.14-.7,1.14-1.5h0c0-.8-.53-1.5-1.14-1.5H325.88c-.6,0-1.13.7-1.13,1.5h0C324.75,468.1,325.2,468.7,325.88,468.7Z" transform="translate(-222.81 -115.1)"/><path class="cls-3" d="M387.22,494.9h68.3c1.74,0,3.18-1.9,3.18-4.2V463.3c0-2.3-1.44-4.2-3.18-4.2h-68.3c-1.74,0-3.18,1.9-3.18,4.2v27.4C384,493,385.48,494.9,387.22,494.9Z" transform="translate(-222.81 -115.1)"/><path class="cls-4" d="M413.57,468.7h15.75c.6,0,1.13-.7,1.13-1.5h0c0-.8-.53-1.5-1.13-1.5H413.57c-.61,0-1.14.7-1.14,1.5h0C412.43,468.1,412.89,468.7,413.57,468.7Z" transform="translate(-222.81 -115.1)"/><path class="cls-3" d="M697.35,416.7h68.3c1.74,0,3.18-1.9,3.18-4.2V385c0-2.3-1.44-4.2-3.18-4.2h-68.3c-1.74,0-3.18,1.9-3.18,4.2v27.4C694.17,414.8,695.61,416.7,697.35,416.7Z" transform="translate(-222.81 -115.1)"/><path class="cls-5" d="M723.62,390.6h15.75c.61,0,1.14-.7,1.14-1.5h0c0-.8-.53-1.5-1.14-1.5H723.62c-.6,0-1.13.7-1.13,1.5h0C722.49,389.9,723,390.6,723.62,390.6Z" transform="translate(-222.81 -115.1)"/><path class="cls-3" d="M697.35,462.5h68.3c1.74,0,3.18-1.9,3.18-4.2V430.9c0-2.3-1.44-4.2-3.18-4.2h-68.3c-1.74,0-3.18,1.9-3.18,4.2v27.4C694.17,460.6,695.61,462.5,697.35,462.5Z" transform="translate(-222.81 -115.1)"/><path class="cls-5" d="M723.62,436.4h15.75c.61,0,1.14-.7,1.14-1.5h0c0-.8-.53-1.5-1.14-1.5H723.62c-.6,0-1.13.7-1.13,1.5h0C722.49,435.7,723,436.4,723.62,436.4Z" transform="translate(-222.81 -115.1)"/><path class="cls-3" d="M258.7,347.3H545.23c1.57,0,2.89-2.1,2.89-4.6V263c0-2.5-1.32-4.6-2.89-4.6H258.7c-1.58,0-2.9,2.1-2.9,4.6v79.7C255.8,345.3,257.12,347.3,258.7,347.3Z" transform="translate(-222.81 -115.1)"/><path class="cls-3" d="M259.31,446.3H545.23c1.57,0,2.89-2.1,2.89-4.6V362c0-2.5-1.32-4.6-2.89-4.6H259.31c-1.57,0-2.89,2.1-2.89,4.6v79.7C256.42,444.2,257.74,446.3,259.31,446.3Z" transform="translate(-222.81 -115.1)"/><rect class="cls-3" x="294.67" y="181.99" width="7.5" height="50.3"/><rect class="cls-3" x="286.84" y="195.6" width="7.8" height="36.6"/><rect class="cls-3" x="68.74" y="280.73" width="7.5" height="50.3"/><rect class="cls-3" x="60.91" y="294.44" width="7.8" height="36.6"/><rect class="cls-3" x="83.95" y="280.73" width="7.5" height="50.3"/><polygon class="cls-6" points="109.95 327.64 102.81 330.62 91.34 282.65 98.49 279.67 109.95 327.64"/><rect class="cls-3" x="76.19" y="294.44" width="7.8" height="36.6"/><path class="cls-4" d="M457.41,303.6l-.83-14.9a1.52,1.52,0,0,1,1.28-1.8h6.52c.75,0,1.28.8,1.28,1.8l-.83,14.9s6.81,5.8,6.74,10.6c-.08,3.7-1.74,21.4-2.5,29.2-.23,2.2-1.59,3.8-3.26,3.8h-9.38c-1.67,0-3-1.6-3.26-3.8-.76-7.8-2.42-25.5-2.5-29.2C450.59,309.4,457.41,303.6,457.41,303.6Z" transform="translate(-222.81 -115.1)"/><path class="cls-4" d="M423.94,303.6l-.83-14.9a1.52,1.52,0,0,1,1.29-1.8h6.51c.75,0,1.28.8,1.28,1.8l-.83,14.9s6.82,5.8,6.74,10.6c-.07,3.7-1.74,21.4-2.5,29.2-.23,2.2-1.59,3.8-3.25,3.8H423c-1.67,0-3-1.6-3.26-3.8-.76-7.8-2.42-25.5-2.5-29.2C417.13,309.4,423.94,303.6,423.94,303.6Z" transform="translate(-222.81 -115.1)"/><line class="cls-3" x1="546.02" y1="425.6" x2="0.9" y2="425.6"/><path class="cls-1" d="M704.56,565.3,310.82,550.4c-18.33-.7-33.4-19.2-35.21-43.3l-19-248c-2.12-28.1,14.39-52.6,35.74-53l438.27-8c22.11-.4,39.45,25.1,36.72,54.1L741.81,523.1C739.47,547.8,723.34,566.1,704.56,565.3Z" transform="translate(-222.81 -115.1)"/><path class="cls-3" d="M423.9,446.3H340.7a4.91,4.91,0,0,1-4.9-4.9V428.3a4.91,4.91,0,0,1,4.9-4.9h83.2a4.91,4.91,0,0,1,4.9,4.9v13.1A4.91,4.91,0,0,1,423.9,446.3Z" transform="translate(-222.81 -115.1)"/><rect class="cls-3" x="129.39" y="287.2" width="60" height="21"/><circle class="cls-4" cx="122.39" cy="315.9" r="1.5"/><path class="cls-7" d="M434.3,423.8l42.2-15.7a4.23,4.23,0,0,0,2.7-3.9h0l-83.8-6,12.9,23.2,21.8,2.9A8.57,8.57,0,0,0,434.3,423.8Z" transform="translate(-222.81 -115.1)"/><path class="cls-8" d="M328.1,408.5l-7.6-59.3a2.68,2.68,0,0,1,2.8-3l101.4,7.2a3,3,0,0,1,2.8,2.8l6,65.3a2.66,2.66,0,0,1-3,2.9l-99.8-13.2A3.18,3.18,0,0,1,328.1,408.5Z" transform="translate(-222.81 -115.1)"/><path class="cls-9" d="M479.2,404.3a4.13,4.13,0,0,1-2.7,3.9l-42.2,15.7a7.39,7.39,0,0,1-3.3.5,10.55,10.55,0,0,1-2.6-3.1Z" transform="translate(-222.81 -115.1)"/><ellipse class="cls-7" cx="372.39" cy="383.18" rx="6" ry="7" transform="translate(-377.61 181.04) rotate(-36.44)"/><path class="cls-10" d="M611.3,140.1H580.7l-3.1,2a1.49,1.49,0,0,1-2.3-1.3V119.1a4,4,0,0,1,4-4h32.1a4,4,0,0,1,4,4V136A4.18,4.18,0,0,1,611.3,140.1Z" transform="translate(-222.81 -115.1)"/><line class="cls-11" x1="372.09" y1="10" x2="382.79" y2="10"/><line class="cls-11" x1="372.09" y1="15.5" x2="378.59" y2="15.5"/><rect class="cls-11" x="361.09" y="10" width="5.5" height="5.5"/><path class="cls-7" d="M428.5,302l-169,25.6a6.52,6.52,0,0,1-7.5-6L241.9,169.4a6.93,6.93,0,0,1,7.4-7.4l169.3,10.8a6.54,6.54,0,0,1,6.1,5.9l9.7,115.9A7.06,7.06,0,0,1,428.5,302Z" transform="translate(-222.81 -115.1)"/><path class="cls-8" d="M433.1,301.8,263.3,327.5a6.52,6.52,0,0,1-7.5-6L245.6,168.6a7,7,0,0,1,7.5-7.5l170,10.8a6.55,6.55,0,0,1,6.1,6L439,294.3A6.81,6.81,0,0,1,433.1,301.8Z" transform="translate(-222.81 -115.1)"/><path class="cls-12" d="M322.4,249.4,274.6,252a2.78,2.78,0,0,1-2.9-2.6L268.9,209a2.84,2.84,0,0,1,2.8-3l47.8.3a2.76,2.76,0,0,1,2.8,2.6l2.8,37.5A2.82,2.82,0,0,1,322.4,249.4Z" transform="translate(-222.81 -115.1)"/><path class="cls-13" d="M373.8,233.8l-40,1.4a2.78,2.78,0,0,1-2.9-2.6l-1.7-23.3a2.84,2.84,0,0,1,2.8-3l40,.3a2.9,2.9,0,0,1,2.8,2.6l1.7,21.6A2.76,2.76,0,0,1,373.8,233.8Z" transform="translate(-222.81 -115.1)"/><path class="cls-10" d="M419.1,232.3l-33.7,1.2a2.78,2.78,0,0,1-2.9-2.6l-1.7-21.1a2.84,2.84,0,0,1,2.8-3l33.7.2a2.9,2.9,0,0,1,2.8,2.6l1.6,19.7A2.73,2.73,0,0,1,419.1,232.3Z" transform="translate(-222.81 -115.1)"/><path class="cls-14" d="M325.4,288.6l-47.8,5.2a2.77,2.77,0,0,1-3.1-2.6l-1.8-26.1a2.87,2.87,0,0,1,2.6-3l47.9-3.2a2.8,2.8,0,0,1,3,2.6l1.8,24.1A3,3,0,0,1,325.4,288.6Z" transform="translate(-222.81 -115.1)"/><path class="cls-10" d="M378.3,287.6l-39.9,4.7a2.77,2.77,0,0,1-3.1-2.6l-3.2-43.1a2.81,2.81,0,0,1,2.6-3l40-1.9a2.78,2.78,0,0,1,2.9,2.6l3.2,40.3A2.85,2.85,0,0,1,378.3,287.6Z" transform="translate(-222.81 -115.1)"/><path class="cls-12" d="M370,249.2l-28.7,1.7a1.11,1.11,0,0,0-1.1,1.3l1.3,17.8a1.16,1.16,0,0,0,1.3,1.1l28.7-2.5a1.16,1.16,0,0,0,1.1-1.3l-1.3-17A1.38,1.38,0,0,0,370,249.2Z" transform="translate(-222.81 -115.1)"/><path class="cls-13" d="M423.1,277.7l-33.7,3.7a2.77,2.77,0,0,1-3.1-2.6l-2.7-34.7a2.81,2.81,0,0,1,2.6-3l33.7-1.6a2.78,2.78,0,0,1,2.9,2.6l2.7,32.6A2.7,2.7,0,0,1,423.1,277.7Z" transform="translate(-222.81 -115.1)"/><line class="cls-14" x1="78.19" y1="157" x2="78.79" y2="164.4"/><line class="cls-14" x1="74.99" y1="161" x2="81.99" y2="160.4"/><path class="cls-15" d="M348.9,280.3c-.2-2-1.7-3.6-3.5-3.4a3.65,3.65,0,0,0-3,4.1,3.46,3.46,0,0,0,3.6,3.4A3.88,3.88,0,0,0,348.9,280.3Z" transform="translate(-222.81 -115.1)"/><line class="cls-16" x1="131.89" y1="164.6" x2="150.59" y2="162.7"/><path class="cls-12" d="M396.3,250.5a3.37,3.37,0,0,0-3.1-3.3c-1.6.1-2.7,1.7-2.6,3.6s1.5,3.4,3.1,3.3S396.5,252.4,396.3,250.5Z" transform="translate(-222.81 -115.1)"/><line class="cls-16" x1="178.59" y1="135.1" x2="194.69" y2="134.1"/><path class="cls-12" d="M397.2,261.2c-.2-1.9-1.5-3.3-3.1-3.2s-2.7,1.8-2.6,3.7,1.6,3.4,3.1,3.2A3.23,3.23,0,0,0,397.2,261.2Z" transform="translate(-222.81 -115.1)"/><line class="cls-16" x1="179.39" y1="145.7" x2="195.59" y2="144.4"/><path class="cls-12" d="M398.1,271.9c-.2-1.9-1.5-3.3-3.1-3.2s-2.7,1.8-2.6,3.7,1.6,3.3,3.1,3.2A3.31,3.31,0,0,0,398.1,271.9Z" transform="translate(-222.81 -115.1)"/><line class="cls-16" x1="180.29" y1="156.3" x2="196.39" y2="154.7"/><path class="cls-13" d="M285.6,222.2l-6.5.1a1.28,1.28,0,0,1-1.2-1.1l-.5-6.8a1.16,1.16,0,0,1,1.2-1.2h6.5a1.28,1.28,0,0,1,1.2,1.1l.5,6.7A1.38,1.38,0,0,1,285.6,222.2Z" transform="translate(-222.81 -115.1)"/><line class="cls-16" x1="69.79" y1="98.1" x2="92.29" y2="98"/><line class="cls-16" x1="70.19" y1="103.9" x2="92.69" y2="103.7"/><path class="cls-15" d="M393.5,220.6l-5.1.1a.86.86,0,0,1-.7-.6l-.5-6.5a.68.68,0,0,1,.7-.7H393a.86.86,0,0,1,.7.6l.5,6.4A.75.75,0,0,1,393.5,220.6Z" transform="translate(-222.81 -115.1)"/><line class="cls-16" x1="175.49" y1="97.7" x2="192.19" y2="97.7"/><line class="cls-16" x1="175.99" y1="102.8" x2="192.59" y2="102.6"/><line class="cls-16" x1="165.39" y1="111.1" x2="193.19" y2="110.4"/><path class="cls-13" d="M286.7,237.7l-6.5.2a1.2,1.2,0,0,1-1.2-1.1l-.5-6.8a1.13,1.13,0,0,1,1.1-1.2l6.5-.2a1.28,1.28,0,0,1,1.2,1.1l.5,6.7A1.23,1.23,0,0,1,286.7,237.7Z" transform="translate(-222.81 -115.1)"/><line class="cls-16" x1="70.89" y1="113.4" x2="93.39" y2="112.8"/><line class="cls-16" x1="71.29" y1="119.3" x2="93.79" y2="118.6"/><path class="cls-12" d="M303.1,189.3l-33.7-1a2.16,2.16,0,0,1-2.1-2l-.4-5.3a2.13,2.13,0,0,1,2.2-2.3l33.7,1.4a2.16,2.16,0,0,1,2.1,2l.4,4.9A2.18,2.18,0,0,1,303.1,189.3Z" transform="translate(-222.81 -115.1)"/><line class="cls-16" x1="114.39" y1="97.9" x2="146.19" y2="97.8"/><line class="cls-16" x1="114.79" y1="103.5" x2="146.59" y2="103.1"/><line class="cls-16" x1="115.39" y1="112.3" x2="132.49" y2="111.9"/><path class="cls-7" d="M418.1,188.8a3,3,0,0,0-2.5-2.9c-1.2-.1-2.2,1.2-2,2.7a2.85,2.85,0,0,0,2.5,2.9C417.3,191.6,418.2,190.3,418.1,188.8Z" transform="translate(-222.81 -115.1)"/><path class="cls-7" d="M409.2,188.5a2.94,2.94,0,0,0-2.5-2.9c-1.3-.1-2.2,1.2-2.1,2.8a2.93,2.93,0,0,0,2.6,2.9C408.4,191.3,409.3,190,409.2,188.5Z" transform="translate(-222.81 -115.1)"/><path class="cls-7" d="M400,188.1a3.13,3.13,0,0,0-2.6-3c-1.3-.1-2.3,1.2-2.2,2.8a3.13,3.13,0,0,0,2.6,3C399.2,191,400.1,189.7,400,188.1Z" transform="translate(-222.81 -115.1)"/><path class="cls-17" d="M458.7,201.9l-44.4-.8a3.4,3.4,0,0,1-3.4-3.2l-4-48.9a2.73,2.73,0,0,1,2.9-2.9l44.6,4.7a3.43,3.43,0,0,1,3.1,3.2l3.9,44.9A2.71,2.71,0,0,1,458.7,201.9Z" transform="translate(-222.81 -115.1)"/><path class="cls-13" d="M461.1,201.1l-44.4-.8a3.4,3.4,0,0,1-3.4-3.2l-4-48.9a2.73,2.73,0,0,1,2.9-2.9l44.6,4.7a3.43,3.43,0,0,1,3.1,3.2l3.9,44.9A2.77,2.77,0,0,1,461.1,201.1Z" transform="translate(-222.81 -115.1)"/><line class="cls-14" x1="205.89" y1="39.3" x2="229.39" y2="41.5"/><line class="cls-14" x1="206.29" y1="44.1" x2="229.79" y2="46.1"/><line class="cls-14" x1="207.19" y1="55.1" x2="230.79" y2="56.7"/><line class="cls-14" x1="207.59" y1="59.8" x2="231.09" y2="61.2"/><line class="cls-14" x1="208.59" y1="70.9" x2="232.09" y2="71.9"/><line class="cls-14" x1="208.99" y1="75.6" x2="232.49" y2="76.4"/><polyline class="cls-18" points="197.79 42 198.99 43.5 200.69 41.2"/><polyline class="cls-18" points="199.09 58 200.29 59.4 202.09 57.1"/><polyline class="cls-18" points="200.39 73.7 201.69 75.1 203.39 72.7"/><path class="cls-10" d="M479.8,272.2s-6.2,12.9-6.7,21.1,8.2,41.1,22.4,66.2c0,0,13.4-4.4,13.4-8.5s-7.9-52.6-7.4-54,6-11.7,6-16.1S481.9,267.4,479.8,272.2Z" transform="translate(-222.81 -115.1)"/><path class="cls-19" d="M507.5,280.9c0-4.4-25.5-13.5-27.6-8.7,0,0-.8,1.8-1.9,4.4,8.1,6.3,16.8,11.7,26.7,13.5C506.1,286.9,507.5,283.1,507.5,280.9Z" transform="translate(-222.81 -115.1)"/><path class="cls-20" d="M506.4,217.4s-10,3.4-17.6,20.6-15.7,31.6-15.7,31.6,12.5,12.4,28.5,18.7C517.6,294.8,518.2,219,506.4,217.4Z" transform="translate(-222.81 -115.1)"/><path class="cls-16" d="M475.9,264.5s17.1,14,33,20.1" transform="translate(-222.81 -115.1)"/><path class="cls-10" d="M539.8,590.4s-.9,21-.7,23-7,6.3-15.9,6-9.7-2.9-9.7-2.9-2-22.7-2.2-25.9S538,586.1,539.8,590.4Z" transform="translate(-222.81 -115.1)"/><path class="cls-9" d="M539.3,602.5c.2-6,.5-12.1.5-12.1-1.8-4.3-28.7-3-28.5.2.1,1.5.6,7.1,1,12.7C520.2,607.2,530.6,606.2,539.3,602.5Z" transform="translate(-222.81 -115.1)"/><path class="cls-9" d="M539.1,612.8s.8,5.9,1.1,12.3,1.3,18.1.2,20.1-7.2,3.7-21.5,4.8-27.5.1-29.8-1.7-1.6-4.5.6-6.6,10.9-11.4,14.5-15.2c4.7-5,8.1-10.1,8.1-10.7.3-2.4.8-2.4.8-2.4s.6,1.5,1.4,1.4,1.9-4.6,6.7-3.5,6.8,4.4,8.6,4.4S536.5,615,539.1,612.8Z" transform="translate(-222.81 -115.1)"/><path class="cls-10" d="M577.3,594.6s2.7,21.6,3.2,22.9,5.5,4.9,13.3,4.5,10.8-2.7,11.1-3.2-.2-25.2-.4-26.8S579.1,590.8,577.3,594.6Z" transform="translate(-222.81 -115.1)"/><path class="cls-9" d="M604.8,603.1c-.1-5.5-.3-10.6-.4-11.3-.3-1.6-25.3-1.1-27.2,2.7,0,0,.6,4.8,1.3,10A46.9,46.9,0,0,0,604.8,603.1Z" transform="translate(-222.81 -115.1)"/><path class="cls-9" d="M580.1,615.6a24.67,24.67,0,0,0-.2,4.7c.1,1.3.2,3.1.2,5.3.1,4.6.5,20.5,1.6,22.8s13.7,4.2,23.2,4.3,16.5-2.4,17.6-5,.5-6.4-2.8-10.6-10.9-10.7-11.8-13.8a47.46,47.46,0,0,0-2.9-7.7,6.58,6.58,0,0,1-2.7,2.2c-1.3.4-3.2-5-7.3-5.2s-5.9,1.4-8.5,5.2a9.1,9.1,0,0,1-6.4-2.2Z" transform="translate(-222.81 -115.1)"/><path class="cls-8" d="M492.4,333.8a212.32,212.32,0,0,0-3.6,25.6c-1.2,14.7,3,105.8,3.6,112.9s2.9,47.6,5.5,67.3c2.1,16.2.6,48.9,5.5,53.5s19.9,7.1,29.2,4.6,13.6-7.1,14.7-10.9-3.3-32.7-3-47.4,0-58.1-.5-68.4c0,0,4.1-52.6,9-64.6s12-56.2-1.6-69C537.4,324.6,493.6,331.7,492.4,333.8Z" transform="translate(-222.81 -115.1)"/><path class="cls-8" d="M514.3,339.6s-.1,19.8.7,34.6a85.11,85.11,0,0,0,1.5,13.4c2.5,10.4,7.9,11.2,12,13.6s18.8,61.3,24.8,76.6c0,0,4.6,35.2,8.2,56.2s3,46.4,5.7,55.1,18.5,10.4,26.2,9.7,18-3.7,17.7-12.7-1.8-34.6-3.1-56.4-3.8-54.3-4.4-61.9c0,0-3-36-4.6-54.5s-.7-37.4-3.1-69.3C593.3,312,514.2,321.8,514.3,339.6Z" transform="translate(-222.81 -115.1)"/><path class="cls-14" d="M515,374.2a85.11,85.11,0,0,0,1.5,13.4c2.5,10.4,7.9,11.2,12,13.6s18.8,61.3,24.8,76.6" transform="translate(-222.81 -115.1)"/><path class="cls-14" d="M528.5,401.2s-11.7-6-16.9-3.8" transform="translate(-222.81 -115.1)"/><ellipse class="cls-14" cx="287.79" cy="357.3" rx="13.2" ry="14.5"/><ellipse class="cls-14" cx="356.79" cy="356.4" rx="13.6" ry="14.5"/><path class="cls-14" d="M516.4,604.8a9.56,9.56,0,0,1,0-3" transform="translate(-222.81 -115.1)"/><path class="cls-14" d="M524.7,606.1v-4.3" transform="translate(-222.81 -115.1)"/><path class="cls-14" d="M534.8,604.1s.1-2.5,0-3.6" transform="translate(-222.81 -115.1)"/><path class="cls-14" d="M582.8,605.4s-.5-2.7-.5-3.5" transform="translate(-222.81 -115.1)"/><path class="cls-14" d="M592.8,605.8a30.1,30.1,0,0,0,0-4.3" transform="translate(-222.81 -115.1)"/><path class="cls-14" d="M601.4,604.2a18.17,18.17,0,0,0,0-3.4" transform="translate(-222.81 -115.1)"/><path class="cls-21" d="M507,625s7.6-6.1,22.5,2.3" transform="translate(-222.81 -115.1)"/><path class="cls-21" d="M501.3,632.7s9.4-7.5,23.4,1.6" transform="translate(-222.81 -115.1)"/><path class="cls-21" d="M610.2,629.4s-9.1-4-21.4,2.5" transform="translate(-222.81 -115.1)"/><path class="cls-21" d="M614.3,636.2s-10.5-4.6-23.2,3.7" transform="translate(-222.81 -115.1)"/><path class="cls-4" d="M554.8,213.9s5,1.5,15.6,1.7,22.7,3.3,27.4,9.2,6.2,49.4,5.5,69.1-14.8,49-14.8,49-33.7,3.8-61.3,2.5-34.2-7.4-36.1-9.3-3-6.5-1.9-8.5,6.5-17.5,8.5-32.4-2.2-35.7-.3-54,9-23.7,9-23.7,8.9-3,24.3-3.5A235.38,235.38,0,0,1,554.8,213.9Z" transform="translate(-222.81 -115.1)"/><g class="cls-22"><path class="cls-23" d="M515.2,209.9s-12.9,19.8-8.8,61.5-13.9,63.2-5.7,82.4" transform="translate(-222.81 -115.1)"/><path class="cls-23" d="M584.9,213.6s-15.7,2.6-19.6,29.1,6.4,61.9,4.5,81.8-7.2,31.6-7.2,31.6" transform="translate(-222.81 -115.1)"/><path class="cls-23" d="M586.6,349.7s5.3-49.9,0-77.5,6.7-51.6,20.2-48.3" transform="translate(-222.81 -115.1)"/><path class="cls-23" d="M540.2,351.8s4.4-32.4,2.9-61.4c-.6-10.9-6.9-64.4,16.4-81.3" transform="translate(-222.81 -115.1)"/><path class="cls-23" d="M515.2,349.7s6.9-40.8,6.5-64.8-2.4-74.8,9.7-83" transform="translate(-222.81 -115.1)"/></g><circle class="cls-24" cx="330.49" cy="145" r="6.5"/><path class="cls-20" d="M531.5,210.1c-2.7.1-4.8,1.7-6.7,3.6a10.24,10.24,0,0,0-2.8,4.9c-3.8,18.4,2,40.6,9.4,40.4,9.3-.3,21.8-17.2,31.6-36.4,4-7.9-3.7-13.4-8.2-13.4C551.3,209.1,537.1,209.8,531.5,210.1Z" transform="translate(-222.81 -115.1)"/><path class="cls-9" d="M574.2,171.2a35.21,35.21,0,0,1-4.7,16.1c-4.7,8-10.4,12.2-12.3,15.8s-1.4-5.8,0-10.3S566.9,164.3,574.2,171.2Z" transform="translate(-222.81 -115.1)"/><path class="cls-10" d="M529.4,201.6s-1.1,9.7-1.8,13.4-2.3,13.4,10.1,14c11.1.6,17.1-8,19.3-12.2a7.47,7.47,0,0,0,.9-4.1c-.3-4.4-.9-15.2-.6-24C557.7,177.5,529.4,193.7,529.4,201.6Z" transform="translate(-222.81 -115.1)"/><path class="cls-19" d="M551.4,202.3c-5.9,4.7-14.6,6.9-22.8,5.7-.3,2.6-.7,5.4-1,7q-.15.75-.3,1.8C537.4,217.3,548.9,212.3,551.4,202.3Z" transform="translate(-222.81 -115.1)"/><path class="cls-9" d="M517.6,165.6s-2.7,3.9-2.3,6.9,6.1,13.1,9,12.8,5.9-12.7,2.5-16.8S518.7,163.7,517.6,165.6Z" transform="translate(-222.81 -115.1)"/><path class="cls-10" d="M519.9,171.3a82.72,82.72,0,0,1-1,15c-1.3,8-2.2,20,9.7,23.3s25.9-1.2,30.3-17.6,7.6-33-7.6-37.8S518.1,155.6,519.9,171.3Z" transform="translate(-222.81 -115.1)"/><path class="cls-9" d="M525,179.3a6.37,6.37,0,0,1-.2,3.6,5.07,5.07,0,0,1-.9,1.6,4.35,4.35,0,0,1-.6.7c-.1.1-.2.3-.3.4a1.39,1.39,0,0,0,0,.9,3.75,3.75,0,0,0,.7,1.2,9.8,9.8,0,0,0,2.4,2.1,4.81,4.81,0,0,1-3.4-1.1,4.17,4.17,0,0,1-1.3-1.6,2.65,2.65,0,0,1,0-2.3,2.18,2.18,0,0,1,.7-.9c.2-.2.4-.3.5-.5a9.38,9.38,0,0,0,.9-1.2A13.23,13.23,0,0,0,525,179.3Z" transform="translate(-222.81 -115.1)"/><path class="cls-9" d="M558.3,183.9a18.73,18.73,0,0,1-2.2-6.9c-.6-4.6-5.5-4.3-7.8-12.8s-7.9,2-16.8,5.8-15.9-2.3-19.5-9.1,2.5-12.8,6.6-15.6S527,147,535,145s20.9-4.5,27.1,4.5,12.6,11.2,12.2,21-11.9,20.7-12.6,20.8S558.3,183.9,558.3,183.9Z" transform="translate(-222.81 -115.1)"/><path class="cls-9" d="M537.2,174.5c-.3-.8-.6-2.3.5-3.1s3.6-.5,6,1c2.1,1.3,2.7,3.4,1.3,3.2s-2.5-.8-4.2-.9S537.5,175.2,537.2,174.5Z" transform="translate(-222.81 -115.1)"/><path class="cls-9" d="M525.2,173.4a3.39,3.39,0,0,0-.3-2.9c-.6-.8-2.2-.7-3.7.4-1.3,1-1.7,2.9-.8,2.8a10.13,10.13,0,0,1,2.6-.4C524.1,173.4,525,174,525.2,173.4Z" transform="translate(-222.81 -115.1)"/><path class="cls-9" d="M518.3,191.4s-.1,1.2,1.6,1.5,1.9-2.3,4.8-2.7c1.8-.2,8.1.3,10.7,2.7s6.2,5.2,11.4,3.6,8.3-8.9,9.3-19.5c.9-9.7,4.5-.3,4.5,2,0,1.6-1.5-.7-3.3,5.8-.8,2.9,0,11.1-3.1,17.1-2.4,4.6-9.1,9.3-17.6,9.9s-15.5-2.9-17.6-8.5C516.9,197.9,517.7,191.8,518.3,191.4Z" transform="translate(-222.81 -115.1)"/><path class="cls-9" d="M522.4,180.9h0a1.46,1.46,0,0,0,1.6-1.3l.1-.8a1.46,1.46,0,0,0-1.3-1.6h0a1.46,1.46,0,0,0-1.6,1.3l-.1.8A1.46,1.46,0,0,0,522.4,180.9Z" transform="translate(-222.81 -115.1)"/><path class="cls-9" d="M538.3,181.9h0a1.46,1.46,0,0,0,1.6-1.3l.1-.8a1.46,1.46,0,0,0-1.3-1.6h0a1.46,1.46,0,0,0-1.6,1.3l-.1.8A1.35,1.35,0,0,0,538.3,181.9Z" transform="translate(-222.81 -115.1)"/><path class="cls-10" d="M557.2,184.8s2.7-6,7.4-5.3,2.4,13.4-6.3,13.3" transform="translate(-222.81 -115.1)"/><path class="cls-9" d="M564.3,184a4.37,4.37,0,0,0-.8-.7c-.3-.1-.2.1-.4.2,0,.1-.2.9-.3,1.6a6.26,6.26,0,0,1-.7,2.2,2.84,2.84,0,0,1-.8,1.1,1.26,1.26,0,0,1-1.3.2,1.16,1.16,0,0,0,.6-.8c.1-.3.1-.6.2-.9a19.19,19.19,0,0,1,.3-2.2l.3-1.2.3-.6c.1-.1.1-.2.3-.3s.3-.2.4-.3a2,2,0,0,1,.9-.2,1.58,1.58,0,0,1,.8.5A1.81,1.81,0,0,1,564.3,184Z" transform="translate(-222.81 -115.1)"/><path class="cls-25" d="M529.4,197a10.41,10.41,0,0,0,5.4.7" transform="translate(-222.81 -115.1)"/><ellipse class="cls-26" cx="518.6" cy="177.45" rx="9.1" ry="6" transform="translate(69.86 561.74) rotate(-84.55)"/><ellipse class="cls-26" cx="539.15" cy="179.24" rx="9.1" ry="7.7" transform="translate(86.67 583.81) rotate(-84.55)"/><path class="cls-11" d="M524.3,179.5s1.7-3.2,7.1.6" transform="translate(-222.81 -115.1)"/><line class="cls-11" x1="323.89" y1="64.9" x2="335.19" y2="67.3"/><path class="cls-10" d="M590,290.4l5.3,10.7s-5.6,7.6-11.6,22-10.4,32.2-14.5,37.3c0,0,4,9.6,13.8,13.8,0,0,19.1-28,27.8-40.2s17-27.8,16.4-35.6c-.9-11.5-9.6-28.5-10.4-33.1S590.2,277.1,590,290.4Z" transform="translate(-222.81 -115.1)"/><path class="cls-19" d="M616.7,265.3c-.7-4.5-26.5,11.8-26.7,25.1l.8,1.5A94.67,94.67,0,0,1,621,277C618.9,271.8,617,267.3,616.7,265.3Z" transform="translate(-222.81 -115.1)"/><path class="cls-9" d="M574.2,350c1.4,2.4,6.2,8.8,17.4,11.4a.5.5,0,0,1,.3.8l-5.1,6.9c-.1.2-.4.2-.6.2-12.5-3.8-15.8-10.1-16.3-11.3a.3.3,0,0,1,0-.4l3.4-7.5C573.5,349.6,574,349.6,574.2,350Z" transform="translate(-222.81 -115.1)"/><ellipse class="cls-27" cx="577.34" cy="359.75" rx="4.8" ry="4.6" transform="matrix(0.52, -0.85, 0.85, 0.52, -252.82, 551.01)"/><path class="cls-20" d="M592.9,224a6.6,6.6,0,0,1,6.3,2.4c2.3,2.9,6.1,8.5,10.8,18.1,7.9,16.1,13.4,26.7,13.4,26.7S596,286,590,290.4c0,0-11.1-18.7-14.7-26.5C571.8,256.5,572.8,227.7,592.9,224Z" transform="translate(-222.81 -115.1)"/><path class="cls-16" d="M586.6,284.6a192.55,192.55,0,0,1,33.7-19.4" transform="translate(-222.81 -115.1)"/><path class="cls-14" d="M565.3,353.8a36.83,36.83,0,0,0,24,23.6" transform="translate(-222.81 -115.1)"/><path class="cls-28" d="M595.3,301.1a15,15,0,0,1,8.2-4.7" transform="translate(-222.81 -115.1)"/><path class="cls-7" d="M743.5,326.1,655,315.2a5.26,5.26,0,0,1-4.6-5.8l9.4-87.8a7.53,7.53,0,0,1,6.4-6.6l91.6-12.4a5.31,5.31,0,0,1,6,5.9L750.2,321A6,6,0,0,1,743.5,326.1Z" transform="translate(-222.81 -115.1)"/><path class="cls-8" d="M740.5,325.8l-88.5-11a5.26,5.26,0,0,1-4.6-5.8l9.4-87.8a7.53,7.53,0,0,1,6.4-6.6l91.6-12.4a5.31,5.31,0,0,1,6,5.9L747.2,320.6A6.05,6.05,0,0,1,740.5,325.8Z" transform="translate(-222.81 -115.1)"/><path class="cls-12" d="M737.2,244.2l-69.3,3.5a1.87,1.87,0,0,1-2-2.1l1.7-15.5a1.92,1.92,0,0,1,1.7-1.7l69.9-6.9a1.93,1.93,0,0,1,2.1,2.2l-2.3,19C739,243.4,738.2,244.1,737.2,244.2Z" transform="translate(-222.81 -115.1)"/><line class="cls-11" x1="462.79" y1="118.7" x2="508.69" y2="115"/><line class="cls-11" x1="462.19" y1="124.6" x2="486.89" y2="122.9"/><ellipse class="cls-9" cx="675.17" cy="237.35" rx="3.4" ry="2.8" transform="translate(-77.05 603.82) rotate(-61.66)"/><path class="cls-10" d="M733.3,275.9l-68.5-1.2a2,2,0,0,1-1.9-2.1l1.7-15.4a1.86,1.86,0,0,1,1.9-1.7l69-2.2a2,2,0,0,1,2,2.2l-2.2,18.8A2.06,2.06,0,0,1,733.3,275.9Z" transform="translate(-222.81 -115.1)"/><line class="cls-11" x1="459.69" y1="146.9" x2="505.09" y2="146.3"/><line class="cls-11" x1="458.99" y1="152.7" x2="483.49" y2="152.7"/><ellipse class="cls-9" cx="672.22" cy="265.1" rx="3.4" ry="2.7" transform="translate(-81.71 639.96) rotate(-64.21)"/><path class="cls-13" d="M729.5,307.3l-67.7-5.8a2,2,0,0,1-1.8-2.1l1.7-15.3a1.88,1.88,0,0,1,2-1.7l68.2,2.5a2,2,0,0,1,1.9,2.2l-2.2,18.6A2.08,2.08,0,0,1,729.5,307.3Z" transform="translate(-222.81 -115.1)"/><line class="cls-11" x1="456.59" y1="174.9" x2="501.39" y2="177.3"/><line class="cls-11" x1="455.89" y1="180.6" x2="480.09" y2="182.3"/><ellipse class="cls-9" cx="669.33" cy="291.98" rx="3.4" ry="2.7" transform="translate(-85.44 677.15) rotate(-66.81)"/></svg>