<svg width="870" height="754" viewBox="0 0 870 754" fill="none" xmlns="http://www.w3.org/2000/svg">
<g clip-path="url(#clip0_103_2)">
<path d="M870 0H0V754H870V0Z" fill="#0029FF"/>
<g filter="url(#filter0_d_103_2)">
<path d="M731.057 644.623L691.6 102.032C688.644 61.2999 642.623 39.0348 608.717 61.9686L157.502 367.352C123.622 390.277 127.325 441.194 164.161 459.01L654.833 696.209C691.669 714.016 734.013 685.355 731.057 644.623Z" fill="#31C2E1"/>
<path d="M490.848 344.005C461.01 343.023 436.08 320.154 431.86 289.89L421.285 214.017L461.053 208.472C464.058 208.119 476.605 206.974 487.86 215.687C492.347 219.131 496.11 223.832 499.348 230.824C505.694 244.514 532.528 315.471 503.18 338.322C499.54 341.104 495.328 343.045 490.848 344.005V344.005Z" fill="black"/>
<path d="M618.223 698.49H379.422L360.131 407.199C393.786 392.445 429.028 381.627 465.157 374.958C516.784 365.435 557.673 365.082 594.629 369.675C602.502 479.59 610.324 588.687 618.223 698.49Z" fill="black"/>
<path d="M488.284 341.108L478.871 315.274C488.138 314.898 495.549 306.846 495.549 296.928C495.549 286.779 487.779 278.555 478.195 278.555C474.087 278.565 470.127 280.088 467.071 282.834L449.358 234.135L376.725 257.53C373.36 258.613 370.242 260.348 367.548 262.637C364.854 264.925 362.637 267.722 361.024 270.867C359.411 274.012 358.433 277.444 358.146 280.967C357.86 284.49 358.27 288.035 359.354 291.4L379.035 352.558C382.031 361.822 388.576 369.521 397.237 373.969C405.898 378.417 415.969 379.25 425.244 376.287L435.812 371.564L444.651 390.441C445.03 391.273 445.687 391.947 446.508 392.349C461.86 399.717 479.025 397.92 489.525 388.07C496.807 381.276 500.837 375.166 501.992 371.178C502.252 370.24 502.151 369.239 501.71 368.372L488.284 341.108Z" fill="white"/>
<path d="M435.797 372.33L468.548 357.565C468.765 357.471 469.008 357.454 469.237 357.515C469.466 357.577 469.666 357.714 469.805 357.904C469.944 358.094 470.013 358.325 470 358.558C469.987 358.792 469.894 359.015 469.736 359.189L442.994 387.538L435.797 372.33Z" fill="black"/>
<path d="M477.266 304.617C476.035 304.619 474.831 304.225 473.807 303.486C472.783 302.746 471.985 301.694 471.513 300.463C471.041 299.231 470.917 297.876 471.157 296.568C471.397 295.26 471.989 294.059 472.86 293.116C473.73 292.173 474.839 291.531 476.046 291.272C477.253 291.012 478.504 291.146 479.641 291.657C480.778 292.169 481.749 293.034 482.432 294.143C483.114 295.252 483.478 296.556 483.476 297.889C483.474 299.673 482.819 301.383 481.655 302.644C480.49 303.905 478.912 304.615 477.266 304.617ZM477.266 294.859C476.712 294.857 476.17 295.033 475.709 295.365C475.248 295.697 474.888 296.17 474.675 296.723C474.462 297.277 474.406 297.886 474.513 298.475C474.62 299.063 474.885 299.604 475.276 300.029C475.667 300.454 476.165 300.743 476.708 300.861C477.251 300.979 477.814 300.919 478.326 300.69C478.837 300.461 479.275 300.072 479.582 299.574C479.89 299.075 480.054 298.489 480.054 297.889C480.052 297.088 479.758 296.32 479.236 295.753C478.713 295.185 478.005 294.864 477.266 294.859V294.859Z" fill="black"/>
<path d="M472.873 300.471C472.448 300.474 472.036 300.318 471.718 300.032C471.399 299.747 471.196 299.353 471.147 298.925C470.715 295.142 471.57 292.076 473.684 289.822C477.671 285.558 484.662 285.96 484.964 285.978C485.422 286.007 485.85 286.218 486.153 286.567C486.457 286.915 486.611 287.371 486.582 287.834C486.554 288.298 486.345 288.73 486.001 289.038C485.657 289.345 485.206 289.501 484.748 289.472V289.472C484.688 289.472 479.044 289.166 476.178 292.242C474.789 293.736 474.262 295.789 474.582 298.523C474.608 298.751 474.59 298.983 474.528 299.204C474.466 299.425 474.361 299.632 474.22 299.812C474.079 299.992 473.904 300.142 473.705 300.254C473.507 300.366 473.288 300.437 473.063 300.463L472.873 300.471Z" fill="black"/>
<path d="M408.789 349.186C406.568 349.214 404.373 348.728 402.387 347.767C402.014 347.538 401.746 347.177 401.641 346.761C401.536 346.346 401.6 345.907 401.822 345.536C402.043 345.165 402.404 344.892 402.83 344.773C403.255 344.653 403.711 344.698 404.103 344.896C404.489 345.112 413.319 349.726 422.364 337.386C422.636 337.05 423.031 336.828 423.467 336.767C423.903 336.705 424.348 336.808 424.707 337.055C425.067 337.301 425.315 337.672 425.4 338.091C425.484 338.51 425.399 338.944 425.161 339.303C419.3 347.319 413.199 349.186 408.789 349.186Z" fill="black"/>
<path d="M419.731 302.544C421.734 302.544 423.358 300.92 423.358 298.917C423.358 296.913 421.734 295.289 419.731 295.289C417.727 295.289 416.103 296.913 416.103 298.917C416.103 300.92 417.727 302.544 419.731 302.544Z" fill="black"/>
<path d="M375.161 318.092C377.164 318.092 378.788 316.7 378.788 314.983C378.788 313.265 377.164 311.873 375.161 311.873C373.157 311.873 371.533 313.265 371.533 314.983C371.533 316.7 373.157 318.092 375.161 318.092Z" fill="black"/>
<path d="M374.572 335.712C365.761 335.712 357.581 328.699 355.459 318.719C353.074 307.476 359.273 296.64 369.277 294.582C371.751 294.096 374.303 294.148 376.755 294.735C379.206 295.322 381.499 296.43 383.472 297.98C387.75 301.277 390.682 305.984 391.731 311.238V311.238C392.901 316.467 392.127 321.937 389.548 326.649C388.368 328.848 386.718 330.767 384.71 332.273C382.702 333.779 380.385 334.834 377.922 335.367C376.82 335.596 375.698 335.712 374.572 335.712V335.712ZM372.652 297.66C371.769 297.661 370.887 297.751 370.022 297.928C361.912 299.606 356.932 308.592 358.922 317.975C360.912 327.358 369.119 333.62 377.229 331.95C379.199 331.515 381.05 330.661 382.652 329.448C384.254 328.235 385.569 326.693 386.505 324.928C388.679 320.947 389.326 316.326 388.329 311.913V311.913C387.454 307.462 384.982 303.47 381.367 300.67C378.87 298.753 375.799 297.707 372.635 297.695L372.652 297.66Z" fill="black"/>
<path d="M391.871 311.873C391.469 311.87 391.082 311.725 390.778 311.464C390.473 311.202 390.272 310.842 390.21 310.446C390.148 310.051 390.229 309.646 390.439 309.304C390.648 308.963 390.973 308.707 391.354 308.582L406.632 303.662C407.06 303.525 407.525 303.562 407.925 303.766C408.325 303.971 408.627 304.325 408.765 304.751C408.903 305.177 408.866 305.641 408.661 306.04C408.456 306.438 408.101 306.74 407.673 306.877L392.387 311.797C392.219 311.847 392.046 311.872 391.871 311.873V311.873Z" fill="black"/>
<path d="M398.849 330.528C397.978 330.549 397.113 330.378 396.315 330.028C395.516 329.678 394.804 329.156 394.226 328.499C392.475 326.419 392.808 323.556 393.62 321.742C394.196 320.471 395.132 319.401 396.311 318.664L389.288 299.75C389.198 299.537 389.153 299.308 389.153 299.076C389.154 298.845 389.201 298.616 389.292 298.403C389.383 298.19 389.515 297.998 389.681 297.838C389.847 297.679 390.044 297.554 390.259 297.472C390.475 297.391 390.704 297.354 390.934 297.363C391.164 297.373 391.389 297.429 391.597 297.529C391.804 297.628 391.99 297.769 392.142 297.942C392.295 298.116 392.411 298.318 392.483 298.538L400.677 320.547L398.968 321.106C398.477 321.27 398.023 321.532 397.635 321.876C397.246 322.22 396.929 322.64 396.704 323.109C396.397 323.788 396.029 325.318 396.807 326.247C397.584 327.175 399.37 327.45 401.019 326.367C401.399 326.118 401.861 326.03 402.305 326.123C402.749 326.217 403.138 326.484 403.386 326.866C403.634 327.248 403.721 327.713 403.628 328.16C403.535 328.606 403.27 328.998 402.89 329.247C401.695 330.06 400.291 330.505 398.849 330.528V330.528Z" fill="black"/>
<path d="M412.309 263.027C434.062 258.479 448.965 241.734 445.597 225.627C442.229 209.519 421.865 200.149 400.113 204.697C378.36 209.245 363.457 225.99 366.825 242.098C370.193 258.205 390.557 267.576 412.309 263.027Z" fill="black"/>
<path d="M478.294 263.089L456.758 268.648C450.9 270.16 444.677 269.297 439.459 266.249C434.241 263.201 430.455 258.218 428.934 252.396L424.395 235.034L468.058 223.77L478.294 263.089Z" fill="black"/>
<path d="M357.54 285.96C373.855 285.96 387.08 272.735 387.08 256.42C387.08 240.105 373.855 226.879 357.54 226.879C341.225 226.879 327.999 240.105 327.999 256.42C327.999 272.735 341.225 285.96 357.54 285.96Z" fill="black"/>
<path d="M437.563 295.289C437.154 295.292 436.756 295.161 436.44 294.919C436.123 294.677 435.907 294.339 435.829 293.963C435.751 293.588 435.816 293.199 436.012 292.864C436.209 292.528 436.525 292.268 436.905 292.127L469.72 279.841C470.148 279.695 470.619 279.71 471.035 279.883C471.451 280.057 471.779 280.374 471.948 280.769C472.118 281.164 472.117 281.605 471.945 281.999C471.772 282.393 471.443 282.709 471.026 282.88L438.211 295.166C438.005 295.245 437.785 295.287 437.563 295.289V295.289Z" fill="black"/>
<path d="M316.762 569.963L309.342 669.84L311.937 694.343H378.788L370.834 573.45L316.762 569.963Z" fill="white"/>
<path d="M380.861 696.416H310.074L307.269 670.106L314.89 567.89L372.616 571.592L380.861 696.416ZM313.145 692.98H377.209L369.4 574.821L318.08 571.523L310.733 670.055L313.145 692.98Z" fill="black"/>
<path d="M360.263 407.231C357.387 408.402 354.622 409.829 351.998 411.493C332.387 423.933 325.921 446.789 320.962 469.095C315.687 492.795 307.919 547.358 305.196 589.696C326.469 591.065 351.305 592.434 372.569 593.802L360.263 407.231Z" fill="black"/>
<path d="M341.829 492.225H135.889C135.433 492.225 134.996 492.061 134.674 491.77C134.352 491.478 134.171 491.083 134.171 490.67C134.171 490.258 134.352 489.862 134.674 489.571C134.996 489.279 135.433 489.115 135.889 489.115H341.829C342.285 489.115 342.722 489.279 343.044 489.571C343.366 489.862 343.547 490.258 343.547 490.67C343.547 491.083 343.366 491.478 343.044 491.77C342.722 492.061 342.285 492.225 341.829 492.225Z" fill="black"/>
<path d="M239.621 491.188H154.139C152.416 491.184 150.766 490.505 149.549 489.3C148.332 488.095 147.648 486.462 147.646 484.759V472.733C147.648 471.031 148.333 469.399 149.55 468.195C150.767 466.992 152.417 466.315 154.139 466.312H239.621C241.343 466.315 242.993 466.992 244.21 468.195C245.427 469.399 246.112 471.031 246.114 472.733V484.759C246.112 486.462 245.428 488.095 244.211 489.3C242.994 490.505 241.344 491.184 239.621 491.188V491.188ZM154.139 469.709C153.328 469.712 152.552 470.031 151.979 470.598C151.406 471.164 151.083 471.932 151.081 472.733V484.759C151.081 485.562 151.403 486.332 151.976 486.9C152.549 487.469 153.327 487.789 154.139 487.791H239.621C240.433 487.789 241.211 487.469 241.784 486.9C242.357 486.332 242.679 485.562 242.679 484.759V472.733C242.677 471.932 242.354 471.164 241.781 470.598C241.208 470.031 240.432 469.712 239.621 469.709H154.139Z" fill="black"/>
<path d="M239.293 443.509H154.467C151.844 443.509 149.719 445.758 149.719 448.531V461.29C149.719 464.064 151.844 466.312 154.467 466.312H239.293C241.916 466.312 244.041 464.064 244.041 461.29V448.531C244.041 445.758 241.916 443.509 239.293 443.509Z" fill="#FFBB45"/>
<path d="M261.452 491.188H249.426C247.722 491.186 246.089 490.49 244.885 489.253C243.681 488.016 243.005 486.34 243.005 484.592V412.791C243.007 411.044 243.684 409.369 244.887 408.132C246.091 406.896 247.723 406.199 249.426 406.195H261.452C263.156 406.197 264.79 406.893 265.996 408.129C267.201 409.366 267.879 411.042 267.881 412.791V484.592C267.879 486.341 267.201 488.017 265.996 489.254C264.79 490.49 263.156 491.186 261.452 491.188ZM249.426 409.68C248.623 409.683 247.854 410.011 247.287 410.594C246.72 411.178 246.402 411.968 246.402 412.791V484.592C246.402 485.416 246.72 486.205 247.287 486.789C247.854 487.372 248.623 487.7 249.426 487.703H261.452C262.256 487.703 263.027 487.375 263.596 486.792C264.165 486.208 264.484 485.417 264.484 484.592V412.791C264.484 411.966 264.165 411.175 263.596 410.591C263.027 410.008 262.256 409.68 261.452 409.68H249.426Z" fill="black"/>
<path d="M285.662 408.268H272.903C270.13 408.268 267.881 410.423 267.881 413.082V484.301C267.881 486.96 270.13 489.115 272.903 489.115H285.662C288.436 489.115 290.684 486.96 290.684 484.301V413.082C290.684 410.423 288.436 408.268 285.662 408.268Z" fill="#FFC1EB"/>
<path d="M465.71 417.596C454.285 417.49 443.125 414.256 433.528 408.269C433.328 408.154 433.155 408.002 433.018 407.821C432.882 407.64 432.784 407.435 432.732 407.217C432.679 406.998 432.673 406.772 432.713 406.552C432.753 406.331 432.839 406.121 432.966 405.933C433.092 405.746 433.257 405.585 433.449 405.46C433.642 405.335 433.858 405.249 434.086 405.207C434.314 405.165 434.548 405.168 434.774 405.215C435.001 405.263 435.215 405.354 435.405 405.484C440.751 408.809 455.155 416.382 473.484 413.697C498.685 410.014 511.168 390.246 513.415 386.322C513.637 385.936 514.008 385.651 514.447 385.529C514.886 385.408 515.358 385.46 515.757 385.673C516.157 385.887 516.452 386.246 516.578 386.67C516.704 387.094 516.65 387.549 516.429 387.935C514.044 392.091 500.794 413.065 474.001 417.031C471.256 417.418 468.484 417.607 465.71 417.596V417.596Z" fill="white"/>
<path d="M402.282 431.731L362.776 441.913C357.564 443.256 354.428 448.57 355.771 453.782L376.507 534.236C377.85 539.448 383.164 542.584 388.376 541.24L427.882 531.058C433.094 529.715 436.23 524.401 434.887 519.19L414.151 438.736C412.808 433.524 407.494 430.388 402.282 431.731Z" fill="#FFC1EB"/>
<path d="M402.511 442.416L401.857 442.563C399.74 443.038 398.409 445.138 398.884 447.255L402.731 464.412C403.206 466.529 405.307 467.86 407.423 467.385L408.077 467.238C410.194 466.764 411.525 464.663 411.05 462.547L407.202 445.389C406.728 443.273 404.627 441.942 402.511 442.416Z" fill="white"/>
<path d="M422.515 317.056C413.972 317.056 406.121 310.463 404.13 301.031C401.883 290.362 407.983 280.041 417.731 278.016C427.479 275.99 437.227 283.032 439.474 293.701C441.729 304.362 435.629 314.691 425.881 316.708C424.775 316.94 423.647 317.056 422.515 317.056V317.056ZM421.089 281.058C420.19 281.06 419.294 281.153 418.415 281.338C410.521 282.973 405.6 291.506 407.471 300.336C409.342 309.166 417.27 315.03 425.172 313.395C433.075 311.759 437.987 303.226 436.125 294.396C434.476 286.558 428.043 281.058 421.089 281.058Z" fill="black"/>
<path d="M629.508 179.2H558.221C547.853 179.2 539.448 187.619 539.448 198.005V265.082C539.448 275.468 547.853 283.887 558.221 283.887H629.508C639.877 283.887 648.282 275.468 648.282 265.082V198.005C648.282 187.619 639.877 179.2 629.508 179.2Z" fill="white"/>
<path d="M618.9 209.259H568.83C564.624 209.259 561.215 212.63 561.215 216.79V258.736C561.215 262.895 564.624 266.267 568.83 266.267H618.9C623.106 266.267 626.515 262.895 626.515 258.736V216.79C626.515 212.63 623.106 209.259 618.9 209.259Z" fill="#FFC1EB"/>
<path d="M625.816 229.989H560.878C560.417 229.989 559.976 229.825 559.65 229.534C559.325 229.242 559.142 228.847 559.142 228.434C559.142 228.022 559.325 227.626 559.65 227.335C559.976 227.043 560.417 226.879 560.878 226.879H625.816C626.276 226.879 626.718 227.043 627.043 227.335C627.369 227.626 627.552 228.022 627.552 228.434C627.552 228.847 627.369 229.242 627.043 229.534C626.718 229.825 626.276 229.989 625.816 229.989Z" fill="#FB6D6D"/>
<path d="M596.456 211.332H593.824C578.23 211.332 573.768 205.778 572.761 201.117C572.573 200.263 572.569 199.378 572.747 198.522C572.925 197.666 573.282 196.86 573.794 196.158C574.305 195.457 574.959 194.877 575.71 194.459C576.461 194.041 577.292 193.794 578.145 193.735C588.211 193.033 595.077 208.239 595.364 208.88L596.456 211.332ZM578.797 197.175H578.374C578.01 197.198 577.656 197.304 577.337 197.483C577.018 197.663 576.742 197.913 576.528 198.214C576.305 198.516 576.148 198.863 576.069 199.233C575.99 199.602 575.991 199.985 576.071 200.354C577.011 204.73 582.276 207.329 591.005 207.78C588.566 203.465 583.91 197.175 578.797 197.175V197.175Z" fill="#FB6D6D"/>
<path d="M592.977 211.332H590.237L591.368 208.88C591.669 208.239 598.835 193.025 609.342 193.736C610.233 193.794 611.1 194.041 611.884 194.46C612.668 194.878 613.351 195.457 613.885 196.159C614.419 196.86 614.791 197.666 614.977 198.522C615.164 199.378 615.159 200.263 614.963 201.117C613.902 205.778 609.254 211.332 592.977 211.332ZM608.662 197.175C603.36 197.175 598.464 203.465 595.928 207.797C605.03 207.347 610.527 204.747 611.516 200.372C611.6 200.003 611.601 199.62 611.519 199.25C611.436 198.881 611.273 198.533 611.039 198.232C610.815 197.931 610.526 197.682 610.194 197.503C609.861 197.323 609.492 197.217 609.113 197.192L608.662 197.175Z" fill="#FB6D6D"/>
<path d="M610.304 241.39C610.006 241.39 609.713 241.313 609.455 241.167C609.196 241.022 608.982 240.812 608.832 240.56L592.981 213.872L577.87 239.58C577.644 239.962 577.272 240.241 576.836 240.355C576.399 240.47 575.934 240.411 575.543 240.19C575.151 239.97 574.865 239.607 574.748 239.181C574.631 238.755 574.691 238.301 574.917 237.918L592.964 207.186L611.776 238.849C612.002 239.23 612.063 239.683 611.946 240.108C611.83 240.533 611.545 240.896 611.155 241.116C610.903 241.283 610.609 241.378 610.304 241.39V241.39Z" fill="#FB6D6D"/>
<path d="M593.865 268.34C593.452 268.34 593.057 268.156 592.765 267.83C592.474 267.504 592.31 267.061 592.31 266.599V210.999C592.31 210.537 592.474 210.095 592.765 209.768C593.057 209.442 593.452 209.259 593.865 209.259C594.277 209.259 594.673 209.442 594.964 209.768C595.256 210.095 595.42 210.537 595.42 210.999V266.599C595.42 267.061 595.256 267.504 594.964 267.83C594.673 268.156 594.277 268.34 593.865 268.34Z" fill="#FB6D6D"/>
<path d="M581.945 535.35L370.931 559.598L368.423 530.006L575.813 505.699L581.945 535.35Z" fill="#C7B8F8"/>
<path d="M597.493 600.964L372.661 625.934L370.496 594.126L590.41 568.926L597.493 600.964Z" fill="#C7B8F8"/>
<path d="M443.07 497.729C443.07 497.729 414.912 500.21 400.232 475.11C398.85 472.744 396.973 470.701 394.728 469.12C390.866 466.424 385.078 464.73 379.118 471.516C379.118 471.516 369.417 458.739 362.253 466.031C362.253 466.031 357.136 472.483 363.973 483.343C363.973 483.343 353.059 487.844 363.879 506.843C365.538 509.761 367.147 512.696 368.591 515.726C374.405 527.937 395.08 562.588 444.36 567.611C447.571 567.963 450.617 569.215 453.141 571.223L569.958 663.501C580.713 672.089 593.282 678.142 606.724 681.207C625.954 685.486 660.57 683.244 678.484 658.4C689 643.6 693.546 625.408 691.221 607.43L685.794 563.555L588.457 579.387L490.259 518.113C486.984 516.053 484.314 513.169 482.519 509.752C476.817 498.927 462.455 473.81 446.518 462.881C445.976 462.505 445.435 462.128 444.901 461.743C441.461 459.219 437.161 457.045 432.861 456.985C425.981 456.882 420.15 463.207 424.398 469.625C426.265 472.44 429.258 474.76 432.036 476.651C434.918 478.602 437.369 481.118 439.24 484.045C441.11 486.972 442.361 490.248 442.915 493.672C443.102 495.016 443.154 496.375 443.07 497.729Z" fill="white"/>
<path d="M412.306 516.064C412.043 516.066 411.784 516.006 411.548 515.89C406.909 513.633 402.564 510.817 398.608 507.505C385.188 496.253 379.324 481.775 376.771 471.604C376.655 471.155 376.722 470.679 376.958 470.28C377.193 469.881 377.577 469.592 378.025 469.477C378.474 469.361 378.95 469.429 379.348 469.664C379.747 469.899 380.036 470.284 380.152 470.732C382.583 480.398 388.142 494.152 400.847 504.812C404.576 507.937 408.673 510.595 413.047 512.726C413.402 512.898 413.689 513.186 413.859 513.543C414.03 513.899 414.074 514.303 413.985 514.688C413.896 515.073 413.678 515.417 413.369 515.662C413.059 515.907 412.675 516.04 412.28 516.038L412.306 516.064Z" fill="black"/>
<path d="M400.882 529.539C400.617 529.537 400.356 529.477 400.118 529.362C397.843 528.346 395.726 527.012 393.831 525.402C393.169 524.879 392.355 524.222 391.286 523.371C378.559 513.588 368.572 500.031 362.319 484.157C362.156 483.74 362.166 483.276 362.348 482.866C362.529 482.457 362.867 482.136 363.286 481.974C363.706 481.812 364.173 481.822 364.586 482.002C364.998 482.183 365.321 482.518 365.484 482.935C371.508 498.236 381.155 511.297 393.373 520.708C394.493 521.551 395.324 522.234 395.995 522.773C397.706 524.234 399.624 525.437 401.688 526.345C402.031 526.515 402.306 526.795 402.468 527.139C402.63 527.484 402.671 527.873 402.582 528.243C402.494 528.613 402.282 528.943 401.981 529.178C401.68 529.413 401.307 529.54 400.924 529.539H400.882Z" fill="black"/>
<path d="M451.383 698.49H307.269V666.358H451.383C452.332 666.358 453.271 666.551 454.147 666.926C455.023 667.301 455.819 667.851 456.489 668.545C457.159 669.238 457.691 670.061 458.053 670.966C458.415 671.872 458.601 672.842 458.6 673.822V691.026C458.601 692.005 458.415 692.976 458.053 693.881C457.691 694.787 457.159 695.61 456.489 696.303C455.819 696.996 455.023 697.546 454.147 697.921C453.271 698.296 452.332 698.49 451.383 698.49V698.49Z" fill="#FF5B8C"/>
<path d="M322.817 698.489H153.919C150.772 698.521 147.699 697.527 145.159 695.655C142.618 693.784 140.745 691.135 139.82 688.104L98.4671 546.781C95.7881 537.625 102.82 528.503 112.566 528.503H271.821C275.112 528.465 278.319 529.549 280.922 531.578C283.525 533.608 285.371 536.465 286.161 539.685L322.817 698.489Z" fill="#FF5B8C"/>
<path d="M201.026 649.774C213.906 649.774 224.348 639.332 224.348 626.452C224.348 613.572 213.906 603.131 201.026 603.131C188.146 603.131 177.704 613.572 177.704 626.452C177.704 639.332 188.146 649.774 201.026 649.774Z" fill="#FFC1EB"/>
<path d="M195.402 610.386C194.944 610.396 194.496 610.275 194.132 610.042C193.768 609.809 193.511 609.478 193.404 609.105L190.206 597.974C190.14 597.761 190.126 597.538 190.163 597.32C190.2 597.101 190.288 596.891 190.422 596.701C190.556 596.511 190.733 596.345 190.944 596.212C191.155 596.08 191.395 595.983 191.65 595.928C191.905 595.873 192.171 595.861 192.432 595.892C192.693 595.923 192.944 595.997 193.171 596.109C193.397 596.221 193.596 596.37 193.754 596.546C193.912 596.723 194.027 596.924 194.093 597.137L197.341 608.31C197.403 608.524 197.415 608.746 197.375 608.963C197.335 609.181 197.244 609.39 197.108 609.578C196.971 609.766 196.792 609.93 196.58 610.06C196.368 610.19 196.127 610.283 195.872 610.335C195.718 610.368 195.561 610.385 195.402 610.386V610.386Z" fill="#6DC8C2"/>
<path d="M705.29 562.225L590.812 581.364L548.777 366.808L578.667 367.221C597.179 367.381 615.151 373.468 629.945 384.588C637.666 390.407 644.23 397.617 649.3 405.845C652.943 411.815 655.751 418.254 657.647 424.985L705.29 562.225Z" fill="black"/>
<path d="M754.153 314.982H628.442C619.936 314.982 613.041 321.858 613.041 330.34V410.531C613.041 419.013 619.936 425.888 628.442 425.888H754.153C762.659 425.888 769.554 419.013 769.554 410.531V330.34C769.554 321.858 762.659 314.982 754.153 314.982Z" fill="white"/>
<path d="M754.542 427.962H629.089C624.563 427.943 620.228 426.128 617.028 422.91C613.828 419.692 612.022 415.333 612.004 410.783V330.088C612.022 325.538 613.828 321.179 617.028 317.961C620.228 314.743 624.563 312.928 629.089 312.909H754.542C759.072 312.914 763.415 314.725 766.618 317.946C769.821 321.167 771.623 325.534 771.627 330.088V410.783C771.623 415.337 769.821 419.704 766.618 422.925C763.415 426.146 759.072 427.957 754.542 427.962V427.962ZM629.089 316.359C625.469 316.364 621.999 317.812 619.439 320.385C616.879 322.959 615.439 326.448 615.435 330.088V410.783C615.439 414.422 616.879 417.912 619.439 420.486C621.999 423.059 625.469 424.507 629.089 424.512H754.542C758.162 424.507 761.632 423.059 764.192 420.486C766.752 417.912 768.192 414.422 768.196 410.783V330.088C768.192 326.448 766.752 322.959 764.192 320.385C761.632 317.812 758.162 316.364 754.542 316.359H629.089Z" fill="black"/>
<path d="M749.189 353.333H702.852C702.399 353.333 701.964 353.169 701.644 352.878C701.324 352.586 701.144 352.191 701.144 351.778C701.144 351.366 701.324 350.971 701.644 350.679C701.964 350.387 702.399 350.224 702.852 350.224H749.189C749.642 350.224 750.076 350.387 750.397 350.679C750.717 350.971 750.897 351.366 750.897 351.778C750.897 352.191 750.717 352.586 750.397 352.878C750.076 353.169 749.642 353.333 749.189 353.333Z" fill="black"/>
<path d="M749.189 371.99H702.852C702.399 371.99 701.964 371.827 701.644 371.535C701.324 371.243 701.144 370.848 701.144 370.436C701.144 370.023 701.324 369.628 701.644 369.336C701.964 369.045 702.399 368.881 702.852 368.881H749.189C749.642 368.881 750.076 369.045 750.397 369.336C750.717 369.628 750.897 370.023 750.897 370.436C750.897 370.848 750.717 371.243 750.397 371.535C750.076 371.827 749.642 371.99 749.189 371.99Z" fill="black"/>
<path d="M732.626 390.647H702.831C702.383 390.647 701.954 390.538 701.638 390.344C701.322 390.149 701.144 389.886 701.144 389.611C701.144 389.336 701.322 389.072 701.638 388.878C701.954 388.683 702.383 388.574 702.831 388.574H732.626C733.073 388.574 733.502 388.683 733.819 388.878C734.135 389.072 734.313 389.336 734.313 389.611C734.313 389.886 734.135 390.149 733.819 390.344C733.502 390.538 733.073 390.647 732.626 390.647V390.647Z" fill="black"/>
<path d="M649.112 344.101C649.227 346.15 650.112 348.076 651.585 349.485C653.057 350.894 655.007 351.679 657.033 351.679C659.059 351.679 661.008 350.894 662.481 349.485C663.953 348.076 664.838 346.15 664.953 344.101C664.953 344.101 681.229 341.406 681.45 365.059H673.415V396.866H639.959V365.059H630.661C630.661 365.059 631.105 342.348 649.112 344.101Z" fill="#C7B8F8"/>
<path d="M615.491 595.875C615.19 595.88 614.894 595.806 614.631 595.66L589.057 581.496C588.858 581.387 588.683 581.24 588.542 581.062C588.401 580.885 588.295 580.682 588.232 580.464C588.169 580.246 588.15 580.018 588.174 579.793C588.199 579.567 588.268 579.349 588.377 579.15C588.486 578.951 588.633 578.776 588.81 578.634C588.986 578.492 589.189 578.387 589.406 578.323C589.623 578.26 589.851 578.24 590.075 578.265C590.3 578.29 590.518 578.359 590.716 578.469L616.299 592.641C616.635 592.827 616.899 593.12 617.049 593.475C617.199 593.829 617.227 594.223 617.128 594.595C617.03 594.967 616.81 595.295 616.503 595.527C616.197 595.759 615.823 595.881 615.439 595.875H615.491Z" fill="black"/>
<path d="M341.829 375.1H135.889C135.433 375.1 134.996 374.936 134.674 374.644C134.352 374.353 134.171 373.957 134.171 373.545C134.171 373.133 134.352 372.737 134.674 372.446C134.996 372.154 135.433 371.99 135.889 371.99H341.829C342.285 371.99 342.722 372.154 343.044 372.446C343.366 372.737 343.547 373.133 343.547 373.545C343.547 373.957 343.366 374.353 343.044 374.644C342.722 374.936 342.285 375.1 341.829 375.1Z" fill="black"/>
<path d="M277.728 370.954C294.616 370.954 308.305 357.496 308.305 340.895C308.305 324.294 294.616 310.836 277.728 310.836C260.841 310.836 247.151 324.294 247.151 340.895C247.151 357.496 260.841 370.954 277.728 370.954Z" fill="white"/>
<path d="M215.455 374.063H172.086C168.08 374.059 164.239 372.452 161.405 369.596C158.572 366.74 156.979 362.868 156.974 358.829V296.012C156.979 291.973 158.572 288.101 161.405 285.245C164.239 282.389 168.08 280.782 172.086 280.778H215.455C219.462 280.78 223.304 282.386 226.138 285.242C228.972 288.099 230.564 291.972 230.567 296.012V358.821C230.567 362.862 228.975 366.738 226.141 369.596C223.307 372.454 219.463 374.061 215.455 374.063V374.063ZM172.086 284.251C168.989 284.255 166.019 285.494 163.823 287.697C161.628 289.9 160.386 292.889 160.368 296.012V358.821C160.373 361.952 161.609 364.954 163.805 367.169C166.002 369.383 168.98 370.629 172.086 370.633H215.455C218.562 370.631 221.541 369.386 223.738 367.171C225.935 364.956 227.17 361.953 227.173 358.821V296.012C227.168 292.88 225.932 289.878 223.736 287.664C221.539 285.45 218.561 284.204 215.455 284.199L172.086 284.251Z" fill="black"/>
<path d="M227.837 351.26H158.668C158.219 351.26 157.788 351.096 157.47 350.805C157.153 350.513 156.974 350.118 156.974 349.705C156.974 349.293 157.153 348.898 157.47 348.606C157.788 348.314 158.219 348.151 158.668 348.151H227.837C228.286 348.151 228.717 348.314 229.034 348.606C229.352 348.898 229.53 349.293 229.53 349.705C229.53 350.118 229.352 350.513 229.034 350.805C228.717 351.096 228.286 351.26 227.837 351.26Z" fill="black"/>
<path d="M185.997 365.771C188.286 365.771 190.143 363.915 190.143 361.625C190.143 359.335 188.286 357.479 185.997 357.479C183.707 357.479 181.851 359.335 181.851 361.625C181.851 363.915 183.707 365.771 185.997 365.771Z" fill="white"/>
<path d="M200.508 365.771C202.798 365.771 204.654 363.915 204.654 361.625C204.654 359.335 202.798 357.479 200.508 357.479C198.218 357.479 196.362 359.335 196.362 361.625C196.362 363.915 198.218 365.771 200.508 365.771Z" fill="white"/>
<path d="M271.417 318.091C271.007 318.1 270.606 317.969 270.284 317.72C269.962 317.47 269.739 317.118 269.653 316.725C265.065 295.97 270.252 281.77 275.405 273.485C281.025 264.474 287.757 260.461 288.004 260.297C288.405 260.059 288.886 259.988 289.341 260.098C289.796 260.209 290.188 260.491 290.43 260.885C290.672 261.278 290.745 261.75 290.633 262.196C290.52 262.642 290.232 263.026 289.83 263.263C288.763 263.894 264.862 278.631 273.067 315.955C273.124 316.208 273.122 316.47 273.062 316.721C273.002 316.973 272.885 317.208 272.72 317.41C272.555 317.611 272.346 317.774 272.108 317.886C271.87 317.998 271.61 318.056 271.347 318.057L271.417 318.091Z" fill="black"/>
<path d="M309.959 262.735L302.523 261.114C302.454 260.696 302.386 260.286 302.291 259.876L308.755 256.207C310.049 255.407 310.985 254.129 311.368 252.643C311.752 251.156 311.551 249.577 310.81 248.238C310.069 246.898 308.844 245.902 307.393 245.459C305.942 245.016 304.378 245.16 303.03 245.862L296.222 249.732C296.119 249.793 296.033 249.871 295.93 249.941C295.603 249.697 295.268 249.462 294.924 249.235L296.42 242.263C296.719 240.736 296.414 239.151 295.572 237.85C294.729 236.549 293.416 235.635 291.916 235.306C290.415 234.976 288.847 235.258 287.55 236.09C286.252 236.922 285.328 238.237 284.978 239.753L283.482 246.725C282.904 246.803 282.33 246.914 281.763 247.056C281.64 246.821 281.502 246.594 281.351 246.376L276.734 240.066C275.785 238.852 274.405 238.063 272.889 237.866C271.373 237.67 269.842 238.083 268.622 239.016C267.402 239.949 266.59 241.328 266.36 242.86C266.13 244.392 266.5 245.954 267.39 247.213L272.093 253.523C272.093 253.575 272.178 253.619 272.221 253.671C272.058 253.889 271.912 254.124 271.766 254.36L264.605 252.791C263.855 252.626 263.079 252.612 262.323 252.751C261.567 252.89 260.846 253.178 260.2 253.6C259.554 254.021 258.996 254.568 258.559 255.208C258.122 255.849 257.813 256.57 257.651 257.332V257.332C257.487 258.093 257.472 258.879 257.609 259.646C257.745 260.413 258.03 261.145 258.446 261.8C258.862 262.455 259.401 263.021 260.034 263.464C260.666 263.907 261.378 264.219 262.13 264.382L269.221 265.942C269.221 266.117 269.264 266.291 269.299 266.465H269.23L262.422 270.405C261.679 270.741 261.013 271.232 260.467 271.844C259.921 272.457 259.507 273.178 259.252 273.962C258.997 274.746 258.905 275.575 258.984 276.396C259.063 277.218 259.31 278.014 259.709 278.733C260.108 279.453 260.651 280.08 261.303 280.574C261.954 281.069 262.701 281.42 263.494 281.606C264.287 281.792 265.11 281.808 265.91 281.653C266.709 281.498 267.468 281.175 268.138 280.706L274.938 276.837C274.989 276.805 275.037 276.77 275.084 276.732C275.626 277.202 276.201 277.633 276.803 278.022L275.316 284.994C275.154 285.755 275.14 286.541 275.278 287.308C275.415 288.074 275.699 288.805 276.115 289.46C276.531 290.115 277.07 290.68 277.701 291.123C278.333 291.567 279.044 291.88 279.795 292.045C280.545 292.21 281.321 292.223 282.077 292.084C282.832 291.945 283.554 291.656 284.199 291.235C284.845 290.813 285.403 290.267 285.84 289.627C286.278 288.986 286.586 288.265 286.749 287.504L288.236 280.532C288.666 280.471 289.096 280.392 289.517 280.297L294.064 286.397C295.014 287.611 296.394 288.401 297.91 288.597C299.426 288.794 300.957 288.381 302.177 287.448C303.397 286.515 304.209 285.135 304.439 283.604C304.669 282.072 304.299 280.51 303.408 279.251L299.36 273.812C299.626 273.455 299.867 273.089 300.108 272.705L307.44 274.318C308.957 274.649 310.542 274.356 311.846 273.503C313.15 272.65 314.067 271.306 314.394 269.768V269.768C314.717 268.24 314.433 266.644 313.602 265.327C312.772 264.011 311.463 263.079 309.959 262.735V262.735Z" fill="#FFC1EB"/>
<path d="M309.959 262.735L302.523 261.114C302.454 260.696 302.386 260.286 302.291 259.876L308.755 256.207C310.049 255.407 310.985 254.129 311.368 252.643C311.752 251.156 311.551 249.577 310.81 248.238C310.069 246.898 308.844 245.902 307.393 245.459C305.942 245.016 304.378 245.16 303.03 245.862L296.222 249.732C296.119 249.793 296.033 249.871 295.93 249.941C295.603 249.697 295.268 249.462 294.924 249.235L296.42 242.263C296.719 240.736 296.414 239.151 295.572 237.85C294.729 236.549 293.416 235.635 291.916 235.306C290.415 234.976 288.847 235.258 287.55 236.09C286.252 236.922 285.328 238.237 284.978 239.753L283.482 246.725C282.904 246.803 282.33 246.914 281.763 247.056C281.64 246.821 281.502 246.594 281.351 246.376L276.734 240.066C275.785 238.852 274.405 238.063 272.889 237.866C271.373 237.67 269.842 238.083 268.622 239.016C267.402 239.949 266.59 241.328 266.36 242.86C266.13 244.392 266.5 245.954 267.39 247.213L272.093 253.523C272.093 253.575 272.178 253.619 272.221 253.671C272.058 253.889 271.912 254.124 271.766 254.36L264.605 252.791C263.855 252.626 263.079 252.612 262.323 252.751C261.567 252.89 260.846 253.178 260.2 253.6C259.554 254.021 258.996 254.568 258.559 255.208C258.122 255.849 257.813 256.57 257.651 257.332V257.332C257.487 258.093 257.472 258.879 257.609 259.646C257.745 260.413 258.03 261.145 258.446 261.8C258.862 262.455 259.401 263.021 260.034 263.464C260.666 263.907 261.378 264.219 262.13 264.382L269.221 265.942C269.221 266.117 269.264 266.291 269.299 266.465H269.23L262.422 270.405C261.679 270.741 261.013 271.232 260.467 271.844C259.921 272.457 259.507 273.178 259.252 273.962C258.997 274.746 258.905 275.575 258.984 276.396C259.063 277.218 259.31 278.014 259.709 278.733C260.108 279.453 260.651 280.08 261.303 280.574C261.954 281.069 262.701 281.42 263.494 281.606C264.287 281.792 265.11 281.808 265.91 281.653C266.709 281.498 267.468 281.175 268.138 280.706L274.938 276.837C274.989 276.805 275.037 276.77 275.084 276.732C275.626 277.202 276.201 277.633 276.803 278.022L275.316 284.994C275.154 285.755 275.14 286.541 275.278 287.308C275.415 288.074 275.699 288.805 276.115 289.46C276.531 290.115 277.07 290.68 277.701 291.123C278.333 291.567 279.044 291.88 279.795 292.045C280.545 292.21 281.321 292.223 282.077 292.084C282.832 291.945 283.554 291.656 284.199 291.235C284.845 290.813 285.403 290.267 285.84 289.627C286.278 288.986 286.586 288.265 286.749 287.504L288.236 280.532C288.666 280.471 289.096 280.392 289.517 280.297L294.064 286.397C295.014 287.611 296.394 288.401 297.91 288.597C299.426 288.794 300.957 288.381 302.177 287.448C303.397 286.515 304.209 285.135 304.439 283.604C304.669 282.072 304.299 280.51 303.408 279.251L299.36 273.812C299.626 273.455 299.867 273.089 300.108 272.705L307.44 274.318C308.957 274.649 310.542 274.356 311.846 273.503C313.15 272.65 314.067 271.306 314.394 269.768V269.768C314.717 268.24 314.433 266.644 313.602 265.327C312.772 264.011 311.463 263.079 309.959 262.735V262.735Z" fill="#FFC1EB"/>
<path d="M309.959 262.735L302.523 261.114C302.454 260.696 302.386 260.286 302.291 259.876L308.755 256.207C310.049 255.407 310.985 254.129 311.368 252.643C311.752 251.156 311.551 249.577 310.81 248.238C310.069 246.898 308.844 245.902 307.393 245.459C305.942 245.016 304.378 245.16 303.03 245.862L296.222 249.732C296.119 249.793 296.033 249.871 295.93 249.941C295.603 249.697 295.268 249.462 294.924 249.235L296.42 242.263C296.719 240.736 296.414 239.151 295.572 237.85C294.729 236.549 293.416 235.635 291.916 235.306C290.415 234.976 288.847 235.258 287.55 236.09C286.252 236.922 285.328 238.237 284.978 239.753L283.482 246.725C282.904 246.803 282.33 246.914 281.763 247.056C281.64 246.821 281.502 246.594 281.351 246.376L276.734 240.066C275.785 238.852 274.405 238.063 272.889 237.866C271.373 237.67 269.842 238.083 268.622 239.016C267.402 239.949 266.59 241.328 266.36 242.86C266.13 244.392 266.5 245.954 267.39 247.213L272.093 253.523C272.093 253.575 272.178 253.619 272.221 253.671C272.058 253.889 271.912 254.124 271.766 254.36L264.605 252.791C263.855 252.626 263.079 252.612 262.323 252.751C261.567 252.89 260.846 253.178 260.2 253.6C259.554 254.021 258.996 254.568 258.559 255.208C258.122 255.849 257.813 256.57 257.651 257.332V257.332C257.487 258.093 257.472 258.879 257.609 259.646C257.745 260.413 258.03 261.145 258.446 261.8C258.862 262.455 259.401 263.021 260.034 263.464C260.666 263.907 261.378 264.219 262.13 264.382L269.221 265.942C269.221 266.117 269.264 266.291 269.299 266.465H269.23L262.422 270.405C261.679 270.741 261.013 271.232 260.467 271.844C259.921 272.457 259.507 273.178 259.252 273.962C258.997 274.746 258.905 275.575 258.984 276.396C259.063 277.218 259.31 278.014 259.709 278.733C260.108 279.453 260.651 280.08 261.303 280.574C261.954 281.069 262.701 281.42 263.494 281.606C264.287 281.792 265.11 281.808 265.91 281.653C266.709 281.498 267.468 281.175 268.138 280.706L274.938 276.837C274.989 276.805 275.037 276.77 275.084 276.732C275.626 277.202 276.201 277.633 276.803 278.022L275.316 284.994C275.154 285.755 275.14 286.541 275.278 287.308C275.415 288.074 275.699 288.805 276.115 289.46C276.531 290.115 277.07 290.68 277.701 291.123C278.333 291.567 279.044 291.88 279.795 292.045C280.545 292.21 281.321 292.223 282.077 292.084C282.832 291.945 283.554 291.656 284.199 291.235C284.845 290.813 285.403 290.267 285.84 289.627C286.278 288.986 286.586 288.265 286.749 287.504L288.236 280.532C288.666 280.471 289.096 280.392 289.517 280.297L294.064 286.397C295.014 287.611 296.394 288.401 297.91 288.597C299.426 288.794 300.957 288.381 302.177 287.448C303.397 286.515 304.209 285.135 304.439 283.604C304.669 282.072 304.299 280.51 303.408 279.251L299.36 273.812C299.626 273.455 299.867 273.089 300.108 272.705L307.44 274.318C308.957 274.649 310.542 274.356 311.846 273.503C313.15 272.65 314.067 271.306 314.394 269.768V269.768C314.717 268.24 314.433 266.644 313.602 265.327C312.772 264.011 311.463 263.079 309.959 262.735V262.735Z" fill="#FFC1EB"/>
<path d="M309.959 262.735L302.523 261.114C302.454 260.696 302.386 260.286 302.291 259.876L308.755 256.207C310.049 255.407 310.985 254.129 311.368 252.643C311.752 251.156 311.551 249.577 310.81 248.238C310.069 246.898 308.844 245.902 307.393 245.459C305.942 245.016 304.378 245.16 303.03 245.862L296.222 249.732C296.119 249.793 296.033 249.871 295.93 249.941C295.603 249.697 295.268 249.462 294.924 249.235L296.42 242.263C296.719 240.736 296.414 239.151 295.572 237.85C294.729 236.549 293.416 235.635 291.916 235.306C290.415 234.976 288.847 235.258 287.55 236.09C286.252 236.922 285.328 238.237 284.978 239.753L283.482 246.725C282.904 246.803 282.33 246.914 281.763 247.056C281.64 246.821 281.502 246.594 281.351 246.376L276.734 240.066C275.785 238.852 274.405 238.063 272.889 237.866C271.373 237.67 269.842 238.083 268.622 239.016C267.402 239.949 266.59 241.328 266.36 242.86C266.13 244.392 266.5 245.954 267.39 247.213L272.093 253.523C272.093 253.575 272.178 253.619 272.221 253.671C272.058 253.889 271.912 254.124 271.766 254.36L264.605 252.791C263.855 252.626 263.079 252.612 262.323 252.751C261.567 252.89 260.846 253.178 260.2 253.6C259.554 254.021 258.996 254.568 258.559 255.208C258.122 255.849 257.813 256.57 257.651 257.332V257.332C257.487 258.093 257.472 258.879 257.609 259.646C257.745 260.413 258.03 261.145 258.446 261.8C258.862 262.455 259.401 263.021 260.034 263.464C260.666 263.907 261.378 264.219 262.13 264.382L269.221 265.942C269.221 266.117 269.264 266.291 269.299 266.465H269.23L262.422 270.405C261.679 270.741 261.013 271.232 260.467 271.844C259.921 272.457 259.507 273.178 259.252 273.962C258.997 274.746 258.905 275.575 258.984 276.396C259.063 277.218 259.31 278.014 259.709 278.733C260.108 279.453 260.651 280.08 261.303 280.574C261.954 281.069 262.701 281.42 263.494 281.606C264.287 281.792 265.11 281.808 265.91 281.653C266.709 281.498 267.468 281.175 268.138 280.706L274.938 276.837C274.989 276.805 275.037 276.77 275.084 276.732C275.626 277.202 276.201 277.633 276.803 278.022L275.316 284.994C275.154 285.755 275.14 286.541 275.278 287.308C275.415 288.074 275.699 288.805 276.115 289.46C276.531 290.115 277.07 290.68 277.701 291.123C278.333 291.567 279.044 291.88 279.795 292.045C280.545 292.21 281.321 292.223 282.077 292.084C282.832 291.945 283.554 291.656 284.199 291.235C284.845 290.813 285.403 290.267 285.84 289.627C286.278 288.986 286.586 288.265 286.749 287.504L288.236 280.532C288.666 280.471 289.096 280.392 289.517 280.297L294.064 286.397C295.014 287.611 296.394 288.401 297.91 288.597C299.426 288.794 300.957 288.381 302.177 287.448C303.397 286.515 304.209 285.135 304.439 283.604C304.669 282.072 304.299 280.51 303.408 279.251L299.36 273.812C299.626 273.455 299.867 273.089 300.108 272.705L307.44 274.318C308.957 274.649 310.542 274.356 311.846 273.503C313.15 272.65 314.067 271.306 314.394 269.768V269.768C314.717 268.24 314.433 266.644 313.602 265.327C312.772 264.011 311.463 263.079 309.959 262.735V262.735Z" fill="#FFC1EB"/>
<path d="M309.959 262.735L302.523 261.114C302.454 260.696 302.386 260.286 302.291 259.876L308.755 256.207C310.049 255.407 310.985 254.129 311.368 252.643C311.752 251.156 311.551 249.577 310.81 248.238C310.069 246.898 308.844 245.902 307.393 245.459C305.942 245.016 304.378 245.16 303.03 245.862L296.222 249.732C296.119 249.793 296.033 249.871 295.93 249.941C295.603 249.697 295.268 249.462 294.924 249.235L296.42 242.263C296.719 240.736 296.414 239.151 295.572 237.85C294.729 236.549 293.416 235.635 291.916 235.306C290.415 234.976 288.847 235.258 287.55 236.09C286.252 236.922 285.328 238.237 284.978 239.753L283.482 246.725C282.904 246.803 282.33 246.914 281.763 247.056C281.64 246.821 281.502 246.594 281.351 246.376L276.734 240.066C275.785 238.852 274.405 238.063 272.889 237.866C271.373 237.67 269.842 238.083 268.622 239.016C267.402 239.949 266.59 241.328 266.36 242.86C266.13 244.392 266.5 245.954 267.39 247.213L272.093 253.523C272.093 253.575 272.178 253.619 272.221 253.671C272.058 253.889 271.912 254.124 271.766 254.36L264.605 252.791C263.855 252.626 263.079 252.612 262.323 252.751C261.567 252.89 260.846 253.178 260.2 253.6C259.554 254.021 258.996 254.568 258.559 255.208C258.122 255.849 257.813 256.57 257.651 257.332V257.332C257.487 258.093 257.472 258.879 257.609 259.646C257.745 260.413 258.03 261.145 258.446 261.8C258.862 262.455 259.401 263.021 260.034 263.464C260.666 263.907 261.378 264.219 262.13 264.382L269.221 265.942C269.221 266.117 269.264 266.291 269.299 266.465H269.23L262.422 270.405C261.679 270.741 261.013 271.232 260.467 271.844C259.921 272.457 259.507 273.178 259.252 273.962C258.997 274.746 258.905 275.575 258.984 276.396C259.063 277.218 259.31 278.014 259.709 278.733C260.108 279.453 260.651 280.08 261.303 280.574C261.954 281.069 262.701 281.42 263.494 281.606C264.287 281.792 265.11 281.808 265.91 281.653C266.709 281.498 267.468 281.175 268.138 280.706L274.938 276.837C274.989 276.805 275.037 276.77 275.084 276.732C275.626 277.202 276.201 277.633 276.803 278.022L275.316 284.994C275.154 285.755 275.14 286.541 275.278 287.308C275.415 288.074 275.699 288.805 276.115 289.46C276.531 290.115 277.07 290.68 277.701 291.123C278.333 291.567 279.044 291.88 279.795 292.045C280.545 292.21 281.321 292.223 282.077 292.084C282.832 291.945 283.554 291.656 284.199 291.235C284.845 290.813 285.403 290.267 285.84 289.627C286.278 288.986 286.586 288.265 286.749 287.504L288.236 280.532C288.666 280.471 289.096 280.392 289.517 280.297L294.064 286.397C295.014 287.611 296.394 288.401 297.91 288.597C299.426 288.794 300.957 288.381 302.177 287.448C303.397 286.515 304.209 285.135 304.439 283.604C304.669 282.072 304.299 280.51 303.408 279.251L299.36 273.812C299.626 273.455 299.867 273.089 300.108 272.705L307.44 274.318C308.957 274.649 310.542 274.356 311.846 273.503C313.15 272.65 314.067 271.306 314.394 269.768V269.768C314.717 268.24 314.433 266.644 313.602 265.327C312.772 264.011 311.463 263.079 309.959 262.735V262.735Z" fill="#FFC1EB"/>
<path d="M309.959 262.735L302.523 261.114C302.454 260.696 302.386 260.286 302.291 259.876L308.755 256.207C310.049 255.407 310.985 254.129 311.368 252.643C311.752 251.156 311.551 249.577 310.81 248.238C310.069 246.898 308.844 245.902 307.393 245.459C305.942 245.016 304.378 245.16 303.03 245.862L296.222 249.732C296.119 249.793 296.033 249.871 295.93 249.941C295.603 249.697 295.268 249.462 294.924 249.235L296.42 242.263C296.719 240.736 296.414 239.151 295.572 237.85C294.729 236.549 293.416 235.635 291.916 235.306C290.415 234.976 288.847 235.258 287.55 236.09C286.252 236.922 285.328 238.237 284.978 239.753L283.482 246.725C282.904 246.803 282.33 246.914 281.763 247.056C281.64 246.821 281.502 246.594 281.351 246.376L276.734 240.066C275.785 238.852 274.405 238.063 272.889 237.866C271.373 237.67 269.842 238.083 268.622 239.016C267.402 239.949 266.59 241.328 266.36 242.86C266.13 244.392 266.5 245.954 267.39 247.213L272.093 253.523C272.093 253.575 272.178 253.619 272.221 253.671C272.058 253.889 271.912 254.124 271.766 254.36L264.605 252.791C263.855 252.626 263.079 252.612 262.323 252.751C261.567 252.89 260.846 253.178 260.2 253.6C259.554 254.021 258.996 254.568 258.559 255.208C258.122 255.849 257.813 256.57 257.651 257.332V257.332C257.487 258.093 257.472 258.879 257.609 259.646C257.745 260.413 258.03 261.145 258.446 261.8C258.862 262.455 259.401 263.021 260.034 263.464C260.666 263.907 261.378 264.219 262.13 264.382L269.221 265.942C269.221 266.117 269.264 266.291 269.299 266.465H269.23L262.422 270.405C261.679 270.741 261.013 271.232 260.467 271.844C259.921 272.457 259.507 273.178 259.252 273.962C258.997 274.746 258.905 275.575 258.984 276.396C259.063 277.218 259.31 278.014 259.709 278.733C260.108 279.453 260.651 280.08 261.303 280.574C261.954 281.069 262.701 281.42 263.494 281.606C264.287 281.792 265.11 281.808 265.91 281.653C266.709 281.498 267.468 281.175 268.138 280.706L274.938 276.837C274.989 276.805 275.037 276.77 275.084 276.732C275.626 277.202 276.201 277.633 276.803 278.022L275.316 284.994C275.154 285.755 275.14 286.541 275.278 287.308C275.415 288.074 275.699 288.805 276.115 289.46C276.531 290.115 277.07 290.68 277.701 291.123C278.333 291.567 279.044 291.88 279.795 292.045C280.545 292.21 281.321 292.223 282.077 292.084C282.832 291.945 283.554 291.656 284.199 291.235C284.845 290.813 285.403 290.267 285.84 289.627C286.278 288.986 286.586 288.265 286.749 287.504L288.236 280.532C288.666 280.471 289.096 280.392 289.517 280.297L294.064 286.397C295.014 287.611 296.394 288.401 297.91 288.597C299.426 288.794 300.957 288.381 302.177 287.448C303.397 286.515 304.209 285.135 304.439 283.604C304.669 282.072 304.299 280.51 303.408 279.251L299.36 273.812C299.626 273.455 299.867 273.089 300.108 272.705L307.44 274.318C308.957 274.649 310.542 274.356 311.846 273.503C313.15 272.65 314.067 271.306 314.394 269.768V269.768C314.717 268.24 314.433 266.644 313.602 265.327C312.772 264.011 311.463 263.079 309.959 262.735V262.735Z" fill="#FFC1EB"/>
<path d="M309.959 262.735L302.523 261.114C302.454 260.696 302.386 260.286 302.291 259.876L308.755 256.207C310.049 255.407 310.985 254.129 311.368 252.643C311.752 251.156 311.551 249.577 310.81 248.238C310.069 246.898 308.844 245.902 307.393 245.459C305.942 245.016 304.378 245.16 303.03 245.862L296.222 249.732C296.119 249.793 296.033 249.871 295.93 249.941C295.603 249.697 295.268 249.462 294.924 249.235L296.42 242.263C296.719 240.736 296.414 239.151 295.572 237.85C294.729 236.549 293.416 235.635 291.916 235.306C290.415 234.976 288.847 235.258 287.55 236.09C286.252 236.922 285.328 238.237 284.978 239.753L283.482 246.725C282.904 246.803 282.33 246.914 281.763 247.056C281.64 246.821 281.502 246.594 281.351 246.376L276.734 240.066C275.785 238.852 274.405 238.063 272.889 237.866C271.373 237.67 269.842 238.083 268.622 239.016C267.402 239.949 266.59 241.328 266.36 242.86C266.13 244.392 266.5 245.954 267.39 247.213L272.093 253.523C272.093 253.575 272.178 253.619 272.221 253.671C272.058 253.889 271.912 254.124 271.766 254.36L264.605 252.791C263.855 252.626 263.079 252.612 262.323 252.751C261.567 252.89 260.846 253.178 260.2 253.6C259.554 254.021 258.996 254.568 258.559 255.208C258.122 255.849 257.813 256.57 257.651 257.332V257.332C257.487 258.093 257.472 258.879 257.609 259.646C257.745 260.413 258.03 261.145 258.446 261.8C258.862 262.455 259.401 263.021 260.034 263.464C260.666 263.907 261.378 264.219 262.13 264.382L269.221 265.942C269.221 266.117 269.264 266.291 269.299 266.465H269.23L262.422 270.405C261.679 270.741 261.013 271.232 260.467 271.844C259.921 272.457 259.507 273.178 259.252 273.962C258.997 274.746 258.905 275.575 258.984 276.396C259.063 277.218 259.31 278.014 259.709 278.733C260.108 279.453 260.651 280.08 261.303 280.574C261.954 281.069 262.701 281.42 263.494 281.606C264.287 281.792 265.11 281.808 265.91 281.653C266.709 281.498 267.468 281.175 268.138 280.706L274.938 276.837C274.989 276.805 275.037 276.77 275.084 276.732C275.626 277.202 276.201 277.633 276.803 278.022L275.316 284.994C275.154 285.755 275.14 286.541 275.278 287.308C275.415 288.074 275.699 288.805 276.115 289.46C276.531 290.115 277.07 290.68 277.701 291.123C278.333 291.567 279.044 291.88 279.795 292.045C280.545 292.21 281.321 292.223 282.077 292.084C282.832 291.945 283.554 291.656 284.199 291.235C284.845 290.813 285.403 290.267 285.84 289.627C286.278 288.986 286.586 288.265 286.749 287.504L288.236 280.532C288.666 280.471 289.096 280.392 289.517 280.297L294.064 286.397C295.014 287.611 296.394 288.401 297.91 288.597C299.426 288.794 300.957 288.381 302.177 287.448C303.397 286.515 304.209 285.135 304.439 283.604C304.669 282.072 304.299 280.51 303.408 279.251L299.36 273.812C299.626 273.455 299.867 273.089 300.108 272.705L307.44 274.318C308.957 274.649 310.542 274.356 311.846 273.503C313.15 272.65 314.067 271.306 314.394 269.768V269.768C314.717 268.24 314.433 266.644 313.602 265.327C312.772 264.011 311.463 263.079 309.959 262.735V262.735Z" fill="#FFC1EB"/>
<path d="M286.02 271.449C290.314 271.449 293.794 268.201 293.794 264.194C293.794 260.187 290.314 256.938 286.02 256.938C281.727 256.938 278.247 260.187 278.247 264.194C278.247 268.201 281.727 271.449 286.02 271.449Z" fill="white"/>
<path d="M272.919 324.824C277.013 324.125 279.87 320.851 279.3 317.51C278.73 314.17 274.949 312.027 270.855 312.726C266.761 313.424 263.904 316.698 264.474 320.039C265.044 323.38 268.825 325.522 272.919 324.824Z" fill="black"/>
<path d="M263.347 365.771C262.982 365.774 262.627 365.664 262.335 365.457C262.042 365.251 261.829 364.96 261.728 364.628C261.627 364.296 261.643 363.942 261.774 363.619C261.904 363.297 262.143 363.024 262.453 362.842C266.683 360.336 271.504 358.865 276.482 358.56C282.643 358.237 288.762 359.694 294.029 362.739C294.217 362.848 294.38 362.991 294.51 363.159C294.639 363.327 294.732 363.518 294.784 363.721C294.835 363.923 294.844 364.133 294.81 364.339C294.776 364.545 294.7 364.742 294.585 364.92C294.47 365.098 294.32 365.253 294.142 365.375C293.964 365.498 293.763 365.586 293.549 365.635C293.335 365.684 293.113 365.692 292.896 365.66C292.679 365.628 292.471 365.555 292.283 365.447C287.602 362.735 282.161 361.435 276.683 361.718C272.258 361.988 267.974 363.297 264.216 365.526C263.957 365.684 263.655 365.769 263.347 365.771V365.771Z" fill="black"/>
</g>
</g>
<defs>
<filter id="filter0_d_103_2" x="20.8929" y="-24.2534" width="827.734" height="802.852" filterUnits="userSpaceOnUse" color-interpolation-filters="sRGB">
<feFlood flood-opacity="0" result="BackgroundImageFix"/>
<feColorMatrix in="SourceAlpha" type="matrix" values="0 0 0 0 0 0 0 0 0 0 0 0 0 0 0 0 0 0 127 0" result="hardAlpha"/>
<feOffset/>
<feGaussianBlur stdDeviation="38.5"/>
<feComposite in2="hardAlpha" operator="out"/>
<feColorMatrix type="matrix" values="0 0 0 0 0.4 0 0 0 0 0.384 0 0 0 0 0 0 0 0 0.34 0"/>
<feBlend mode="normal" in2="BackgroundImageFix" result="effect1_dropShadow_103_2"/>
<feBlend mode="normal" in="SourceGraphic" in2="effect1_dropShadow_103_2" result="shape"/>
</filter>
<clipPath id="clip0_103_2">
<rect width="870" height="754" fill="white"/>
</clipPath>
</defs>
</svg>
