<svg id="Layer_1" data-name="Layer 1" xmlns="http://www.w3.org/2000/svg" viewBox="0 0 906.5 785.64"><defs><style>.cls-1{fill:#d7faff;}.cls-2{fill:#31c2e1;}.cls-3{fill:#fff;}.cls-4{fill:#ffbb45;}.cls-5{fill:#ffc1eb;}.cls-6{fill:#fb6d6d;}.cls-7{fill:#c7b8f8;}.cls-8{fill:#09385a;}.cls-9{fill:#6dc8c2;}</style></defs><rect class="cls-1" width="906.5" height="785.64"/><path class="cls-2" d="M843.19,807.69,797.27,174.81c-3.44-47.51-57-73.48-96.46-46.73L175.68,484.28c-39.43,26.74-35.12,86.13,7.75,106.91L754.48,867.86C797.35,888.63,846.63,855.2,843.19,807.69Z" transform="translate(-45.88 -102.92)"/><path d="M563.93,457.16c-34.65-1.14-63.6-27.7-68.5-62.85l-12.28-88.12,46.18-6.44c3.49-.41,18.06-1.74,31.13,8.38,5.21,4,9.58,9.46,13.34,17.58,7.37,15.9,38.53,98.31,4.45,124.85A36,36,0,0,1,563.93,457.16Z" transform="translate(-45.88 -102.92)"/><path d="M712,869H434.47l-22.42-338a555.48,555.48,0,0,1,122.06-37.41c60-11.05,107.52-11.46,150.47-6.13C693.73,615,702.82,741.59,712,869Z" transform="translate(-45.88 -102.92)"/><path class="cls-3" d="M561.37,453.86l-11-30.19c10.83-.44,19.49-9.85,19.49-21.44,0-11.86-9.08-21.47-20.28-21.47a19.52,19.52,0,0,0-13,5l-20.7-56.91L431,356.19a31.45,31.45,0,0,0-20.3,39.58l23,71.47a43,43,0,0,0,54,27.73l12.35-5.52,10.33,22.06a4.61,4.61,0,0,0,2.17,2.23c17.94,8.61,38,6.51,50.27-5,8.51-7.94,13.22-15.08,14.57-19.74a4.56,4.56,0,0,0-.33-3.28Z" transform="translate(-45.88 -102.92)"/><path d="M500.06,489.49l37.22-17a1.18,1.18,0,0,1,1.35,1.87L508.24,507Z" transform="translate(-45.88 -102.92)"/><path d="M547.89,411.11a7.27,7.27,0,1,1,7.26-7.26A7.27,7.27,0,0,1,547.89,411.11Zm0-10.53a3.27,3.27,0,1,0,3.26,3.27A3.28,3.28,0,0,0,547.89,400.58Z" transform="translate(-45.88 -102.92)"/><path d="M542.77,407.07a2,2,0,0,1-2-1.77c-.5-4.33.49-7.84,2.94-10.42,4.62-4.88,12.72-4.42,13.07-4.4a2,2,0,0,1-.25,4h0c-.07,0-6.61-.35-9.93,3.17-1.61,1.71-2.22,4.06-1.85,7.19a2,2,0,0,1-1.76,2.22Z" transform="translate(-45.88 -102.92)"/><path d="M469.08,463.08a16.21,16.21,0,0,1-7.46-1.71,2,2,0,0,1,2-3.46c.45.26,10.74,5.82,21.28-9.05a2,2,0,0,1,3.26,2.31C481.33,460.83,474.22,463.08,469.08,463.08Z" transform="translate(-45.88 -102.92)"/><circle cx="435.48" cy="302.23" r="4.38"/><circle cx="384.21" cy="320.79" r="4.38"/><path d="M429,447.69c-10.05,0-19.38-8.11-21.8-19.65-2.72-13,4.35-25.53,15.76-27.91a19.78,19.78,0,0,1,16.19,3.93,25.77,25.77,0,0,1,9.42,15.33h0a25.8,25.8,0,0,1-2.49,17.82,19.79,19.79,0,0,1-13.26,10.08A18.5,18.5,0,0,1,429,447.69Zm-2.19-44a14.77,14.77,0,0,0-3,.31c-9.25,1.94-14.93,12.33-12.66,23.18s11.63,18.09,20.88,16.16a15.86,15.86,0,0,0,10.58-8.12,21.76,21.76,0,0,0,2.08-15.05h0a21.81,21.81,0,0,0-7.94-13A16.32,16.32,0,0,0,426.79,403.73Z" transform="translate(-45.88 -102.92)"/><path d="M448.31,420.16a2,2,0,0,1-.61-3.9l18.05-5.83a2,2,0,0,1,1.23,3.81l-18.06,5.83A2.15,2.15,0,0,1,448.31,420.16Z" transform="translate(-45.88 -102.92)"/><path d="M457.28,441.52a7,7,0,0,1-5.41-2.36c-2.05-2.42-1.66-5.75-.71-7.86a8.24,8.24,0,0,1,3.15-3.58l-8.22-22a2,2,0,1,1,3.74-1.41l9.59,25.6-2,.65a4.53,4.53,0,0,0-2.65,2.33c-.36.79-.79,2.57.12,3.65s3,1.4,4.93.14a2,2,0,1,1,2.19,3.35A8.69,8.69,0,0,1,457.28,441.52Z" transform="translate(-45.88 -102.92)"/><ellipse cx="465.61" cy="329.21" rx="46.82" ry="34.67" transform="translate(-103.39 -0.67) rotate(-11.81)"/><path d="M549.93,363.29l-25.1,6.52a26.6,26.6,0,0,1-32.43-19.06l-5.29-20.36L538,317.18Z" transform="translate(-45.88 -102.92)"/><circle cx="363.18" cy="251.67" r="34.24"/><path d="M502.43,400.74a2,2,0,0,1-.75-3.86l37.44-15a2,2,0,0,1,1.49,3.71l-37.44,15A2,2,0,0,1,502.43,400.74Z" transform="translate(-45.88 -102.92)"/><polygon class="cls-3" points="315.18 616.53 306.43 733.39 309.49 762.06 388.32 762.06 378.94 620.61 315.18 616.53"/><path d="M436.33,867H353.57l-3.28-30.63,8.91-119,67.49,4.31Zm-79.17-4h74.9l-9.13-137.56-60-3.84-8.59,114.71Z" transform="translate(-45.88 -102.92)"/><path d="M412.05,531.05A61,61,0,0,0,402.4,536c-22.9,14.45-30.45,41-36.24,66.91C360,630.44,350.93,693.82,347.75,743c24.84,1.59,53.84,3.18,78.67,4.77Z" transform="translate(-45.88 -102.92)"/><path d="M389.89,629.27H150.09a2,2,0,0,1,0-4h239.8a2,2,0,0,1,0,4Z" transform="translate(-45.88 -102.92)"/><path d="M271.94,628.19H172.41a7.58,7.58,0,0,1-7.56-7.57V606.46a7.57,7.57,0,0,1,7.56-7.56h99.53a7.57,7.57,0,0,1,7.56,7.56v14.16A7.58,7.58,0,0,1,271.94,628.19ZM172.41,602.9a3.57,3.57,0,0,0-3.56,3.56v14.16a3.57,3.57,0,0,0,3.56,3.57h99.53a3.57,3.57,0,0,0,3.56-3.57V606.46a3.57,3.57,0,0,0-3.56-3.56Z" transform="translate(-45.88 -102.92)"/><rect class="cls-4" x="120.97" y="471.09" width="110.65" height="25.29" rx="5.57"/><path d="M298.06,627.68H283.9a7.57,7.57,0,0,1-7.56-7.57v-82.4a7.58,7.58,0,0,1,7.56-7.57h14.16a7.58,7.58,0,0,1,7.57,7.57v82.4A7.58,7.58,0,0,1,298.06,627.68ZM283.9,534.14a3.57,3.57,0,0,0-3.56,3.57v82.4a3.57,3.57,0,0,0,3.56,3.57h14.16a3.57,3.57,0,0,0,3.57-3.57v-82.4a3.57,3.57,0,0,0-3.57-3.57Z" transform="translate(-45.88 -102.92)"/><rect class="cls-5" x="259.53" y="429.23" width="25.29" height="93.54" rx="5.57"/><path class="cls-3" d="M534.87,543.69a70.12,70.12,0,0,1-37.38-11.22,2,2,0,1,1,2.18-3.35c6.21,4,22.94,13.11,44.23,9.88,29.27-4.43,43.77-28.21,46.38-32.93a2,2,0,0,1,3.5,1.94c-2.77,5-18.16,30.23-49.28,35A64.67,64.67,0,0,1,534.87,543.69Z" transform="translate(-45.88 -102.92)"/><rect class="cls-5" x="419.44" y="559.66" width="70.03" height="119.15" rx="11.32" transform="matrix(0.97, -0.25, 0.25, 0.97, -188.55, 33.18)"/><rect class="cls-3" x="459.18" y="571.62" width="9.92" height="29.6" rx="4.57" transform="translate(-162.92 12.83) rotate(-12.64)"/><path d="M484.67,426.84c-10,0-19.19-7.78-21.52-18.91-2.63-12.59,4.51-24.77,15.92-27.16s22.82,5.92,25.45,18.51h0c2.64,12.58-4.5,24.77-15.91,27.15A19,19,0,0,1,484.67,426.84ZM483,384.36a15.28,15.28,0,0,0-3.13.33c-9.24,1.93-15,12-12.81,22.42s11.47,17.34,20.72,15.41,15-12,12.82-22.42h0C498.67,390.85,491.14,384.36,483,384.36Z" transform="translate(-45.88 -102.92)"/><rect class="cls-3" x="574.51" y="162.41" width="126.38" height="121.36" rx="21.8"/><rect class="cls-5" x="600.31" y="198.25" width="74.77" height="66.01" rx="8.72"/><path class="cls-6" d="M721,324.76H646.19a2,2,0,0,1,0-4H721a2,2,0,0,1,0,4Z" transform="translate(-45.88 -102.92)"/><path class="cls-6" d="M686.68,303.17h-3.11c-18.42,0-23.69-6.41-24.88-11.79a7,7,0,0,1,6.36-8.52c11.89-.81,20,16.74,20.34,17.48Zm-20.86-16.34-.5,0a2.92,2.92,0,0,0-2.18,1.2,3,3,0,0,0-.54,2.47c1.11,5.05,7.33,8.05,17.64,8.57C677.36,294.09,671.86,286.83,665.82,286.83Z" transform="translate(-45.88 -102.92)"/><path class="cls-6" d="M683.32,303.17h-3.1l1.28-2.83c.34-.74,8.45-18.3,20.34-17.48a7,7,0,0,1,6.36,8.52C707,296.76,701.74,303.17,683.32,303.17Zm17.75-16.34c-6,0-11.54,7.26-14.41,12.26,10.3-.52,16.52-3.52,17.64-8.57a3,3,0,0,0-.54-2.47,2.94,2.94,0,0,0-2.18-1.2Z" transform="translate(-45.88 -102.92)"/><path class="cls-6" d="M703.5,338.29a2,2,0,0,1-1.73-1l-18.63-32.13-17.76,30.95a2,2,0,0,1-3.47-2l21.21-37,22.11,38.12a2,2,0,0,1-.73,2.73A1.93,1.93,0,0,1,703.5,338.29Z" transform="translate(-45.88 -102.92)"/><path class="cls-6" d="M683.9,369.18a2,2,0,0,1-2-2v-63.9a2,2,0,0,1,4,0v63.9A2,2,0,0,1,683.9,369.18Z" transform="translate(-45.88 -102.92)"/><polygon class="cls-7" points="624.22 576.86 378.55 605.31 375.63 570.59 617.08 542.07 624.22 576.86"/><polygon class="cls-7" points="641.73 653.19 381.11 682.66 378.6 645.12 633.52 615.38 641.73 653.19"/><path class="cls-3" d="M508.56,636.08s-32.74,2.9-49.81-26.43a22.31,22.31,0,0,0-6.4-7c-4.49-3.15-11.22-5.13-18.15,2.8,0,0-11.28-14.93-19.61-6.41,0,0-5.95,7.54,2,20.23,0,0-12.69,5.26-.11,27.46,1.93,3.41,3.8,6.84,5.48,10.38,6.76,14.27,30.8,54.76,88.1,60.63a19.82,19.82,0,0,1,10.21,4.22L656.1,829.79a106.21,106.21,0,0,0,42.75,20.69c22.36,5,62.61,2.38,83.44-26.65a84.49,84.49,0,0,0,14.81-59.56L790.79,713,677.61,731.5,563.43,659.9a25.58,25.58,0,0,1-9-9.77c-6.63-12.65-23.33-42-41.86-54.77-.63-.44-1.26-.88-1.88-1.33-4-2.95-9-5.49-14-5.56-8-.12-14.78,7.27-9.84,14.77,2.17,3.29,5.65,6,8.88,8.21a29.78,29.78,0,0,1,12.65,19.89A23.74,23.74,0,0,1,508.56,636.08Z" transform="translate(-45.88 -102.92)"/><path d="M473,656.91a1.94,1.94,0,0,1-.87-.2,72.68,72.68,0,0,1-14.85-9.62c-15.4-12.91-22.13-29.52-25.06-41.19a2,2,0,0,1,3.88-1c2.79,11.09,9.17,26.87,23.75,39.1a68.53,68.53,0,0,0,14,9.08,2,2,0,0,1-.88,3.8Z" transform="translate(-45.88 -102.92)"/><path d="M460.21,673.82a2.08,2.08,0,0,1-.9-.21,30.88,30.88,0,0,1-7.41-4.7c-.78-.62-1.74-1.4-3-2.41-15-11.61-26.77-27.7-34.14-46.54a2,2,0,0,1,3.73-1.45c7.1,18.16,18.47,33.66,32.87,44.83,1.32,1,2.3,1.81,3.09,2.45a27.2,27.2,0,0,0,6.71,4.24,2,2,0,0,1-.9,3.79Z" transform="translate(-45.88 -102.92)"/><path class="cls-8" d="M518.59,869H350.44V832.71H518.59a8.42,8.42,0,0,1,8.42,8.43v19.43A8.42,8.42,0,0,1,518.59,869Z" transform="translate(-45.88 -102.92)"/><path class="cls-8" d="M369.39,869H172.69a17,17,0,0,1-16.42-12L108.11,693.7c-3.12-10.58,5.07-21.12,16.42-21.12H310A17,17,0,0,1,326.7,685.5Z" transform="translate(-45.88 -102.92)"/><circle class="cls-5" cx="180.66" cy="683.36" r="27.26"/><path class="cls-9" d="M220.55,766.83a2,2,0,0,1-2-1.53L215.35,752a2,2,0,1,1,3.89-1l3.25,13.35a2,2,0,0,1-1.47,2.42A2,2,0,0,1,220.55,766.83Z" transform="translate(-45.88 -102.92)"/><path d="M813,711.59l-132.9,22.24-48.8-249.31L666,485a100.47,100.47,0,0,1,59.53,20.18A90.13,90.13,0,0,1,748,529.88a89.07,89.07,0,0,1,9.69,22.24Z" transform="translate(-45.88 -102.92)"/><rect class="cls-3" x="660.82" y="320.79" width="182.11" height="129.41" rx="17.92"/><path d="M870.89,555.12H724.62A20,20,0,0,1,704.7,535.2V441.63a20,20,0,0,1,19.92-19.92H870.89a19.94,19.94,0,0,1,19.92,19.92V535.2A19.94,19.94,0,0,1,870.89,555.12ZM724.62,425.71a15.94,15.94,0,0,0-15.92,15.92V535.2a15.94,15.94,0,0,0,15.92,15.92H870.89a15.94,15.94,0,0,0,15.92-15.92V441.63a15.94,15.94,0,0,0-15.92-15.92Z" transform="translate(-45.88 -102.92)"/><path d="M864.71,468.46H810.44a2,2,0,0,1,0-4h54.27a2,2,0,0,1,0,4Z" transform="translate(-45.88 -102.92)"/><path d="M864.71,490.41H810.44a2,2,0,0,1,0-4h54.27a2,2,0,0,1,0,4Z" transform="translate(-45.88 -102.92)"/><path d="M845.77,512.37H810.44a2,2,0,0,1,0-4h35.33a2,2,0,0,1,0,4Z" transform="translate(-45.88 -102.92)"/><path class="cls-7" d="M748.63,457.92a9.3,9.3,0,0,0,18.57,0s19.08-3.12,19.34,24.26h-9.42V519H737.9V482.18H727S727.52,455.89,748.63,457.92Z" transform="translate(-45.88 -102.92)"/><path d="M709.14,750.33a2,2,0,0,1-1-.25l-29.74-16.42a2,2,0,1,1,1.93-3.51l29.75,16.43a2,2,0,0,1-1,3.75Z" transform="translate(-45.88 -102.92)"/><path d="M389.89,493.78H150.09a2,2,0,0,1,0-4h239.8a2,2,0,0,1,0,4Z" transform="translate(-45.88 -102.92)"/><circle class="cls-3" cx="270.29" cy="350.44" r="35.53"/><path d="M243.72,492.25H192.61a17.83,17.83,0,0,1-17.81-17.81V401a17.83,17.83,0,0,1,17.81-17.81h51.11A17.82,17.82,0,0,1,261.53,401v73.43A17.82,17.82,0,0,1,243.72,492.25Zm-51.11-105A13.83,13.83,0,0,0,178.8,401v73.43a13.83,13.83,0,0,0,13.81,13.81h51.11a13.82,13.82,0,0,0,13.81-13.81V401a13.83,13.83,0,0,0-13.81-13.81Z" transform="translate(-45.88 -102.92)"/><path d="M258.48,465.86H176.8a2,2,0,0,1,0-4h81.68a2,2,0,0,1,0,4Z" transform="translate(-45.88 -102.92)"/><circle class="cls-3" cx="163.77" cy="374.93" r="4.85"/><circle class="cls-3" cx="180.79" cy="374.93" r="4.85"/><path d="M308.72,427.12a2,2,0,0,1-2-1.58c-5.2-24,.68-40.42,6.52-50,6.37-10.42,14-15.06,14.28-15.25a2,2,0,1,1,2.07,3.43c-1.21.73-28.3,17.77-19,60.93a2,2,0,0,1-1.95,2.43Z" transform="translate(-45.88 -102.92)"/><path class="cls-5" d="M353.65,363.2,345,361.34c-.08-.48-.16-.95-.27-1.42l7.52-4.21a6.81,6.81,0,0,0-6.66-11.87l-7.92,4.44c-.12.07-.22.16-.34.24q-.57-.42-1.17-.81l1.74-8a6.81,6.81,0,0,0-13.31-2.88l-1.74,8a18.33,18.33,0,0,0-2,.38,7.12,7.12,0,0,0-.48-.78L315,337.19a6.81,6.81,0,0,0-10.87,8.2l5.47,7.24c0,.06.1.11.15.17-.19.25-.36.52-.53.79l-8.33-1.8a6.8,6.8,0,0,0-8.09,5.21h0a6.79,6.79,0,0,0,5.21,8.09l8.25,1.79c0,.2.05.4.09.6l-.08,0L298.35,372A6.81,6.81,0,1,0,305,383.82l7.91-4.44a1.77,1.77,0,0,0,.17-.12,17.69,17.69,0,0,0,2,1.48l-1.73,8a6.8,6.8,0,1,0,13.3,2.88l1.73-8c.5-.07,1-.16,1.49-.27l5.29,7a6.81,6.81,0,0,0,10.87-8.2l-4.71-6.24c.31-.41.59-.83.87-1.27l8.53,1.85a6.81,6.81,0,0,0,8.09-5.22h0A6.81,6.81,0,0,0,353.65,363.2Z" transform="translate(-45.88 -102.92)"/><path class="cls-5" d="M353.65,363.2,345,361.34c-.08-.48-.16-.95-.27-1.42l7.52-4.21a6.81,6.81,0,0,0-6.66-11.87l-7.92,4.44c-.12.07-.22.16-.34.24q-.57-.42-1.17-.81l1.74-8a6.81,6.81,0,0,0-13.31-2.88l-1.74,8a18.33,18.33,0,0,0-2,.38,7.12,7.12,0,0,0-.48-.78L315,337.19a6.81,6.81,0,0,0-10.87,8.2l5.47,7.24c0,.06.1.11.15.17-.19.25-.36.52-.53.79l-8.33-1.8a6.8,6.8,0,0,0-8.09,5.21h0a6.79,6.79,0,0,0,5.21,8.09l8.25,1.79c0,.2.05.4.09.6l-.08,0L298.35,372A6.81,6.81,0,1,0,305,383.82l7.91-4.44a1.77,1.77,0,0,0,.17-.12,17.69,17.69,0,0,0,2,1.48l-1.73,8a6.8,6.8,0,1,0,13.3,2.88l1.73-8c.5-.07,1-.16,1.49-.27l5.29,7a6.81,6.81,0,0,0,10.87-8.2l-4.71-6.24c.31-.41.59-.83.87-1.27l8.53,1.85a6.81,6.81,0,0,0,8.09-5.22h0A6.81,6.81,0,0,0,353.65,363.2Z" transform="translate(-45.88 -102.92)"/><path class="cls-5" d="M353.65,363.2,345,361.34c-.08-.48-.16-.95-.27-1.42l7.52-4.21a6.81,6.81,0,0,0-6.66-11.87l-7.92,4.44c-.12.07-.22.16-.34.24q-.57-.42-1.17-.81l1.74-8a6.81,6.81,0,0,0-13.31-2.88l-1.74,8a18.33,18.33,0,0,0-2,.38,7.12,7.12,0,0,0-.48-.78L315,337.19a6.81,6.81,0,0,0-10.87,8.2l5.47,7.24c0,.06.1.11.15.17-.19.25-.36.52-.53.79l-8.33-1.8a6.8,6.8,0,0,0-8.09,5.21h0a6.79,6.79,0,0,0,5.21,8.09l8.25,1.79c0,.2.05.4.09.6l-.08,0L298.35,372A6.81,6.81,0,1,0,305,383.82l7.91-4.44a1.77,1.77,0,0,0,.17-.12,17.69,17.69,0,0,0,2,1.48l-1.73,8a6.8,6.8,0,1,0,13.3,2.88l1.73-8c.5-.07,1-.16,1.49-.27l5.29,7a6.81,6.81,0,0,0,10.87-8.2l-4.71-6.24c.31-.41.59-.83.87-1.27l8.53,1.85a6.81,6.81,0,0,0,8.09-5.22h0A6.81,6.81,0,0,0,353.65,363.2Z" transform="translate(-45.88 -102.92)"/><path class="cls-5" d="M353.65,363.2,345,361.34c-.08-.48-.16-.95-.27-1.42l7.52-4.21a6.81,6.81,0,0,0-6.66-11.87l-7.92,4.44c-.12.07-.22.16-.34.24q-.57-.42-1.17-.81l1.74-8a6.81,6.81,0,0,0-13.31-2.88l-1.74,8a18.33,18.33,0,0,0-2,.38,7.12,7.12,0,0,0-.48-.78L315,337.19a6.81,6.81,0,0,0-10.87,8.2l5.47,7.24c0,.06.1.11.15.17-.19.25-.36.52-.53.79l-8.33-1.8a6.8,6.8,0,0,0-8.09,5.21h0a6.79,6.79,0,0,0,5.21,8.09l8.25,1.79c0,.2.05.4.09.6l-.08,0L298.35,372A6.81,6.81,0,1,0,305,383.82l7.91-4.44a1.77,1.77,0,0,0,.17-.12,17.69,17.69,0,0,0,2,1.48l-1.73,8a6.8,6.8,0,1,0,13.3,2.88l1.73-8c.5-.07,1-.16,1.49-.27l5.29,7a6.81,6.81,0,0,0,10.87-8.2l-4.71-6.24c.31-.41.59-.83.87-1.27l8.53,1.85a6.81,6.81,0,0,0,8.09-5.22h0A6.81,6.81,0,0,0,353.65,363.2Z" transform="translate(-45.88 -102.92)"/><path class="cls-5" d="M353.65,363.2,345,361.34c-.08-.48-.16-.95-.27-1.42l7.52-4.21a6.81,6.81,0,0,0-6.66-11.87l-7.92,4.44c-.12.07-.22.16-.34.24q-.57-.42-1.17-.81l1.74-8a6.81,6.81,0,0,0-13.31-2.88l-1.74,8a18.33,18.33,0,0,0-2,.38,7.12,7.12,0,0,0-.48-.78L315,337.19a6.81,6.81,0,0,0-10.87,8.2l5.47,7.24c0,.06.1.11.15.17-.19.25-.36.52-.53.79l-8.33-1.8a6.8,6.8,0,0,0-8.09,5.21h0a6.79,6.79,0,0,0,5.21,8.09l8.25,1.79c0,.2.05.4.09.6l-.08,0L298.35,372A6.81,6.81,0,1,0,305,383.82l7.91-4.44a1.77,1.77,0,0,0,.17-.12,17.69,17.69,0,0,0,2,1.48l-1.73,8a6.8,6.8,0,1,0,13.3,2.88l1.73-8c.5-.07,1-.16,1.49-.27l5.29,7a6.81,6.81,0,0,0,10.87-8.2l-4.71-6.24c.31-.41.59-.83.87-1.27l8.53,1.85a6.81,6.81,0,0,0,8.09-5.22h0A6.81,6.81,0,0,0,353.65,363.2Z" transform="translate(-45.88 -102.92)"/><path class="cls-5" d="M353.65,363.2,345,361.34c-.08-.48-.16-.95-.27-1.42l7.52-4.21a6.81,6.81,0,0,0-6.66-11.87l-7.92,4.44c-.12.07-.22.16-.34.24q-.57-.42-1.17-.81l1.74-8a6.81,6.81,0,0,0-13.31-2.88l-1.74,8a18.33,18.33,0,0,0-2,.38,7.12,7.12,0,0,0-.48-.78L315,337.19a6.81,6.81,0,0,0-10.87,8.2l5.47,7.24c0,.06.1.11.15.17-.19.25-.36.52-.53.79l-8.33-1.8a6.8,6.8,0,0,0-8.09,5.21h0a6.79,6.79,0,0,0,5.21,8.09l8.25,1.79c0,.2.05.4.09.6l-.08,0L298.35,372A6.81,6.81,0,1,0,305,383.82l7.91-4.44a1.77,1.77,0,0,0,.17-.12,17.69,17.69,0,0,0,2,1.48l-1.73,8a6.8,6.8,0,1,0,13.3,2.88l1.73-8c.5-.07,1-.16,1.49-.27l5.29,7a6.81,6.81,0,0,0,10.87-8.2l-4.71-6.24c.31-.41.59-.83.87-1.27l8.53,1.85a6.81,6.81,0,0,0,8.09-5.22h0A6.81,6.81,0,0,0,353.65,363.2Z" transform="translate(-45.88 -102.92)"/><path class="cls-5" d="M353.65,363.2,345,361.34c-.08-.48-.16-.95-.27-1.42l7.52-4.21a6.81,6.81,0,0,0-6.66-11.87l-7.92,4.44c-.12.07-.22.16-.34.24q-.57-.42-1.17-.81l1.74-8a6.81,6.81,0,0,0-13.31-2.88l-1.74,8a18.33,18.33,0,0,0-2,.38,7.12,7.12,0,0,0-.48-.78L315,337.19a6.81,6.81,0,0,0-10.87,8.2l5.47,7.24c0,.06.1.11.15.17-.19.25-.36.52-.53.79l-8.33-1.8a6.8,6.8,0,0,0-8.09,5.21h0a6.79,6.79,0,0,0,5.21,8.09l8.25,1.79c0,.2.05.4.09.6l-.08,0L298.35,372A6.81,6.81,0,1,0,305,383.82l7.91-4.44a1.77,1.77,0,0,0,.17-.12,17.69,17.69,0,0,0,2,1.48l-1.73,8a6.8,6.8,0,1,0,13.3,2.88l1.73-8c.5-.07,1-.16,1.49-.27l5.29,7a6.81,6.81,0,0,0,10.87-8.2l-4.71-6.24c.31-.41.59-.83.87-1.27l8.53,1.85a6.81,6.81,0,0,0,8.09-5.22h0A6.81,6.81,0,0,0,353.65,363.2Z" transform="translate(-45.88 -102.92)"/><circle class="cls-3" cx="279.95" cy="261.28" r="9.01"/><ellipse cx="309.3" cy="428.02" rx="8.75" ry="7.14" transform="translate(-113.42 -44.84) rotate(-9.68)"/><path d="M298.58,482.85a2,2,0,0,1-1.07-3.7,36.06,36.06,0,0,1,16.79-5.41,36.45,36.45,0,0,1,21,5.28,2,2,0,0,1-2.09,3.42,32.4,32.4,0,0,0-18.67-4.71,32,32,0,0,0-14.92,4.81A1.94,1.94,0,0,1,298.58,482.85Z" transform="translate(-45.88 -102.92)"/></svg>