<svg width="512" height="512" viewBox="0 0 512 512" fill="#eb8ed0" stroke="currentColor" stroke-width="2" stroke-linecap="round" stroke-linejoin="round" xmlns="http://www.w3.org/2000/svg">
<g clip-path="url(#clip0_45_39)">
<path d="M106.496 0H207.872V17.408H190.464V36.864L197.632 37.888L209.92 41.984L222.208 47.104L237.568 56.32L241.664 58.368L248.832 46.08L257.024 35.84L264.192 27.648L275.456 18.432L290.816 9.216L306.176 3.072L323.584 0H386.048L401.408 2.048L417.792 8.192L430.08 15.36L442.368 24.576L455.68 37.888L466.944 53.248L472.064 66.56L477.184 81.92L479.232 92.16V122.88L474.112 142.336L475.136 147.456L479.232 156.672V173.056L475.136 183.296L465.92 193.536L455.68 198.656L446.464 199.68L444.416 211.968L438.272 228.352L430.08 242.688L419.84 254.976L409.6 263.168L399.36 269.312H397.312L398.336 280.576L419.84 285.696L441.344 293.888L460.8 304.128L466.944 308.224L482.304 321.536L492.544 333.824L500.736 347.136L504.832 355.328L509.952 370.688L512 386.048V413.696H496.64V485.376L492.544 496.64L483.328 506.88L479.232 509.952L471.04 512H239.616L229.376 508.928L220.16 500.736L215.04 491.52L214.016 483.328V413.696H197.632V389.12L200.704 371.712L206.848 353.28L216.064 335.872L224.256 325.632L237.568 312.32L253.952 301.056L275.456 290.816L297.984 283.648L311.296 280.576L312.32 269.312L307.2 267.264L301.056 263.168L285.696 249.856L281.6 244.736L279.552 243.712L277.504 248.832L274.432 253.952H272.384L270.336 258.048L262.144 268.288L254.976 275.456L249.856 281.6L234.496 292.864L218.112 301.056L206.848 306.176L190.464 311.296L172.032 314.368H141.312L119.808 310.272L99.3279 303.104L77.8239 291.84L61.4399 278.528L48.1279 265.216L41.9839 256V253.952H39.9359L29.6959 236.544L21.5039 216.064L17.4079 200.704L15.3599 185.344V161.792L18.4319 141.312L23.5519 124.928L31.7439 106.496L41.9839 90.112L51.1999 78.848L65.5359 64.512L79.8719 54.272L95.2319 45.056L119.808 36.864H122.88V17.408H106.496V0ZM141.312 17.408V32.768L173.056 33.792V17.408H141.312ZM349.184 17.408L340.992 24.576L333.824 33.792L330.752 39.936L324.608 53.248L320.512 69.632L337.92 66.56H372.736L389.12 68.608L385.024 50.176L378.88 37.888L371.712 27.648L365.568 20.48L361.472 17.408H349.184ZM389.12 19.456L395.264 31.744L402.432 47.104L408.576 69.632L410.624 77.824L423.936 84.992L434.176 92.16L441.344 98.304H460.8L459.776 87.04L453.632 69.632L444.416 54.272L432.128 40.96L421.888 32.768L411.648 26.624L395.264 20.48L389.12 19.456ZM318.464 19.456L303.104 24.576L291.84 30.72L280.576 38.912L272.384 46.08L262.144 59.392L253.952 75.776L249.856 93.184V98.304H268.288L280.576 88.064L288.768 83.968L301.056 76.8L303.104 62.464L309.248 43.008L317.44 25.6L320.512 21.504V19.456H318.464ZM147.456 50.176L128 53.248L107.52 60.416L92.1599 68.608L80.8959 76.8L70.6559 86.016L61.4399 95.232L52.2239 108.544L40.9599 130.048L34.8159 157.696V188.416L39.9359 214.016L50.1759 235.52L60.4159 249.856L67.5839 258.048L75.7759 265.216L86.0159 274.432L103.424 284.672L121.856 291.84L139.264 295.936L149.504 296.96H164.864L184.32 293.888L200.704 288.768L217.088 280.576L228.352 273.408L238.592 265.216L250.88 253.952L258.048 244.736L263.168 234.496L269.312 223.232L267.264 214.016L264.192 199.68L261.12 200.704L258.048 210.944L253.952 219.136L249.856 229.376L241.664 240.64L232.448 250.88L215.04 264.192L202.752 271.36L185.344 277.504L169.984 280.576H143.36L124.928 276.48L109.568 270.336L98.3039 264.192L88.0639 257.024L83.9679 252.928L78.8479 248.832L67.5839 234.496L58.3679 218.112L52.2239 200.704L49.1519 183.296V163.84L52.2239 145.408L58.3679 129.024L66.5599 113.664L74.7519 103.424L83.9679 93.184L96.2559 83.968L108.544 76.8L123.904 70.656L142.336 66.56H171.008L186.368 69.632L200.704 74.752L214.016 81.92L226.304 90.112L229.376 93.184H231.424L233.472 82.944V77.824L221.184 68.608L209.92 62.464L195.584 56.32L180.224 52.224L166.912 50.176H147.456ZM343.04 82.944L322.56 87.04L307.2 93.184L295.936 99.328V101.376L290.816 103.424L285.696 107.52L286.72 110.592L294.912 114.688H415.744L423.936 110.592V106.496L408.576 96.256L393.216 89.088L379.904 84.992L366.592 82.944H343.04ZM141.312 83.968L126.976 88.064L110.592 96.256L101.376 102.4L103.424 106.496L110.592 113.664L109.568 117.76L102.4 124.928L96.2559 125.952L88.0639 117.76L84.9919 118.784L76.7999 132.096L70.6559 148.48L67.5839 161.792V164.864H82.9439V182.272H67.5839L69.6319 195.584L74.7519 209.92L80.8959 221.184L86.0159 229.376L93.1839 224.256L96.2559 220.16L101.376 221.184L110.592 230.4L108.544 234.496L100.352 242.688L104.448 246.784L117.76 254.976L124.928 258.048L142.336 262.144H147.456V246.784H166.912V262.144L176.128 261.12L191.488 257.024L204.8 249.856L212.992 243.712L206.848 236.544L203.776 233.472L204.8 229.376L214.016 220.16L218.112 222.208L225.28 228.352L229.376 226.304L238.592 211.968L243.712 197.632L244.736 192.512L238.592 187.392L233.472 179.2L231.424 172.032V157.696L235.52 147.456L238.592 143.36L235.52 133.12L232.448 124.928L227.328 117.76L223.232 119.808L216.064 125.952L210.944 123.904L203.776 116.736L204.8 112.64L212.992 104.448L207.872 99.328L196.608 92.16L180.224 86.016L172.032 83.968H166.912L165.888 99.328L147.456 100.352V83.968H141.312ZM250.88 116.736L251.904 124.928L253.952 132.096L263.168 131.072V116.736H250.88ZM446.464 116.736V131.072L457.728 133.12L460.8 122.88V116.736H446.464ZM428.032 128L420.864 131.072L414.72 132.096H295.936L281.6 129.024V194.56L284.672 209.92L288.768 221.184L294.912 230.4L297.984 235.52L308.224 245.76L322.56 254.976L327.68 259.072L330.752 265.216L331.776 285.696L346.112 301.056L354.304 308.224L361.472 302.08L369.664 294.912L378.88 285.696L379.904 267.264L381.952 258.048L386.048 256L397.312 248.832L408.576 239.616L418.816 226.304L425.984 210.944L429.056 195.584V128H428.032ZM446.464 149.504V180.224L452.608 179.2L459.776 173.056L461.824 168.96V161.792L456.704 153.6L448.512 149.504H446.464ZM261.12 149.504L254.976 152.576L249.856 158.72L248.832 167.936L252.928 176.128L260.096 180.224H263.168V149.504H261.12ZM391.168 297.984L381.952 307.2L374.784 315.392L369.664 321.536L380.928 330.752L386.048 335.872L390.144 337.92L396.288 309.248L398.336 299.008L391.168 297.984ZM317.44 297.984L312.32 299.008L313.344 308.224L319.488 337.92L323.584 335.872L339.968 322.56V319.488L318.464 297.984H317.44ZM291.84 304.128L276.48 310.272L261.12 318.464L251.904 325.632L241.664 334.848L239.616 338.944L235.52 340.992L226.304 355.328L220.16 369.664L216.064 387.072V395.264H246.784V362.496H305.152L304.128 353.28L299.008 323.584L294.912 304.128H291.84ZM415.744 304.128L404.48 359.424V362.496H463.872V395.264H494.592L492.544 380.928L487.424 363.52L478.208 346.112L468.992 334.848L461.824 327.68L447.488 317.44L431.104 309.248L421.888 305.152L415.744 304.128ZM354.304 334.848L344.064 342.016L329.728 354.304L320.512 361.472V362.496H389.12L382.976 355.328L368.64 344.064L362.496 338.944L357.376 335.872L354.304 334.848ZM265.216 380.928V430.08L274.432 436.224L279.552 444.416L280.576 447.488V494.592H429.056L430.08 444.416L436.224 435.2L444.416 430.08V380.928H397.312V430.08H312.32V380.928H265.216ZM331.776 380.928V411.648H345.088L346.112 396.288L364.544 395.264V411.648H378.88V380.928H331.776ZM232.448 413.696V431.104L246.784 429.056V413.696H232.448ZM463.872 413.696V429.056L477.184 431.104V413.696H463.872ZM246.784 446.464L239.616 449.536L234.496 454.656L232.448 458.752V483.328L236.544 489.472L241.664 493.568L244.736 494.592H258.048L262.144 490.496L263.168 488.448V479.232H246.784V461.824H263.168V452.608L259.072 447.488L257.024 446.464H246.784ZM454.656 446.464L448.512 449.536L446.464 453.632V461.824H463.872V479.232H446.464V487.424L449.536 492.544L452.608 494.592H465.92L471.04 492.544L476.16 486.4L477.184 483.328V457.728L473.088 451.584L467.968 447.488L463.872 446.464H454.656Z"/>
<path d="M15.3599 395.264H182.272V413.696H15.3599V395.264Z"/>
<path d="M0 362.496H166.912V379.904L165.888 380.928H0V362.496Z"/>
<path d="M0 429.056H174.08V446.464H0V429.056Z"/>
<path d="M147.456 114.688H166.912L167.936 149.504L176.128 155.648L181.248 163.84L199.68 164.864V182.272H180.224L179.2 186.368L175.104 192.512L165.888 198.656L160.768 199.68H153.6L144.384 196.608L136.192 190.464L131.072 180.224V166.912L136.192 156.672L143.36 150.528L147.456 149.504V114.688ZM154.624 166.912L150.528 168.96L149.504 175.104L154.624 180.224L161.792 179.2L164.864 174.08L162.816 167.936L154.624 166.912Z"/>
<path d="M23.5518 329.728H182.272V347.136H23.5518V329.728Z"/>
<path d="M32.7681 461.824H190.464V479.232H32.7681V461.824Z"/>
<path d="M327.68 203.776H332.8L337.92 214.016L348.16 220.16H361.472L369.664 216.064L374.784 210.944L377.856 203.776L386.048 204.8L396.288 207.872L393.216 217.088L387.072 226.304L378.88 234.496L366.592 239.616L361.472 240.64H348.16L337.92 237.568L326.656 230.4L319.488 222.208L314.368 211.968V207.872L327.68 203.776Z"/>
<path d="M345.088 147.456H364.544L365.568 163.84L369.664 173.056V183.296L365.568 190.464L360.448 194.56L351.232 198.656H349.184L343.04 186.368V181.248L349.184 177.152L345.088 165.888V147.456Z"/>
<path d="M310.272 147.456L319.488 148.48L322.56 152.576L323.584 157.696L320.512 164.864L315.392 166.912L309.248 165.888L304.128 160.768V153.6L308.224 148.48L310.272 147.456Z"/>
<path d="M393.216 147.456H399.36L405.504 152.576V160.768L401.408 165.888L395.264 166.912L388.096 162.816L387.072 161.792V152.576L391.168 148.48L393.216 147.456Z"/>
</g>
<defs>
<clipPath id="clip0_45_39">
<rect width="512" height="512"/>
</clipPath>
</defs>
</svg>
