<svg width="512" height="512" viewBox="0 0 512 512" fill="#72ca63" stroke="currentColor" stroke-width="2" stroke-linecap="round" stroke-linejoin="round" xmlns="http://www.w3.org/2000/svg">
<g clip-path="url(#clip0_45_52)">
<path d="M59.3922 40.96H274.432L283.648 48.128L321.536 86.016L327.68 91.136V93.184L331.776 95.232L338.944 101.376L346.112 109.568L365.568 129.024L376.832 138.24L386.048 148.48L387.072 150.528V210.944L384 212.992H377.856L374.784 209.92V159.744H275.456L269.312 155.648L264.192 149.504L263.168 145.408V53.248L61.4402 54.272L55.2962 58.368L52.2242 61.44L51.2002 64.512V489.472L55.2962 495.616L60.4162 498.688L64.5122 499.712H360.448L367.616 496.64L371.712 492.544L373.76 488.448L374.784 464.896L377.856 461.824H384L387.072 464.896V491.52L380.928 503.808L374.784 509.952L367.616 512H57.3442L48.1282 507.904L40.9602 499.712L37.8882 491.52V61.44L43.0082 51.2L47.1042 46.08L55.2962 41.984L59.3922 40.96ZM276.48 61.44V143.36L279.552 146.432H363.52L357.376 139.264L330.752 112.64L322.56 105.472L302.08 84.992L296.96 79.872L286.72 70.656L277.504 61.44H276.48Z"/>
<path d="M350.208 276.48H374.784L387.072 279.552L399.36 284.672L409.6 290.816L419.84 300.032L428.032 309.248L436.224 323.584L441.344 340.992L442.368 347.136V364.544L439.296 379.904L433.152 394.24L424.96 406.528L427.008 410.624L435.2 418.816L440.32 417.792L446.464 415.744H462.848L475.136 421.888L492.544 438.272L505.856 451.584L509.952 457.728L512 465.92V482.304L508.928 491.52L500.736 500.736L492.544 504.832L484.352 506.88H476.16L465.92 503.808L459.776 499.712L443.392 484.352L441.344 480.256H439.296L432.128 472.064L424.96 462.848L421.888 450.56L422.912 439.296L425.984 431.104L424.96 427.008L415.744 418.816L410.624 420.864L403.456 424.96L387.072 432.128L373.76 435.2H351.232L338.944 432.128L326.656 427.008L316.416 421.888L305.152 412.672L294.912 398.336L286.72 380.928L283.648 367.616V344.064L287.744 328.704L291.84 319.488L299.008 307.2L309.248 295.936L323.584 285.696L337.92 279.552L350.208 276.48ZM352.256 289.792L339.968 292.864L330.752 296.96L321.536 303.104L313.344 310.272L305.152 321.536L299.008 334.848L295.936 346.112V365.568L300.032 380.928L309.248 396.288L315.392 403.456L325.632 411.648L340.992 419.84L353.28 422.912H372.736L385.024 419.84L400.384 411.648L412.672 400.384L419.84 391.168L424.96 381.952L429.056 369.664V342.016L422.912 325.632L415.744 314.368L403.456 302.08L393.216 295.936L378.88 290.816L373.76 289.792H352.256ZM449.536 428.032L443.392 431.104L438.272 436.224L435.2 441.344L434.176 449.536L437.248 458.752L449.536 471.04L454.656 475.136L459.776 480.256L468.992 490.496L476.16 493.568H483.328L491.52 490.496L498.688 482.304L500.736 472.064L497.664 463.872L488.448 453.632L472.064 437.248L467.968 432.128L459.776 428.032H449.536Z"/>
<path d="M46.0799 3.07178H259.072L262.144 5.11978V13.3118L258.048 16.3838L47.1039 17.4078L35.8399 21.5038L27.6479 27.6478L19.4559 36.8638L15.3599 45.0558L14.3359 49.1518L13.3119 436.224L11.2639 441.344L10.2399 442.368H2.04793L1.02393 440.32V47.1038L3.07193 37.8878L8.19193 27.6478L15.3599 18.4318L27.6479 9.21578L40.9599 4.09578L46.0799 3.07178Z"/>
<path d="M408.576 0H438.272L455.68 3.072L466.944 8.192L481.28 16.384L494.592 28.672L503.808 38.912L512 53.248V62.464L507.904 70.656L500.736 80.896L487.424 94.208L474.112 103.424L457.728 111.616L442.368 115.712L435.2 116.736H411.648L396.288 113.664L385.024 109.568L367.616 100.352L356.352 91.136L348.16 82.944L343.04 76.8L336.896 65.536L334.848 61.44V54.272L339.968 45.056L346.112 35.84L355.328 25.6L364.544 17.408L377.856 9.216L391.168 3.072L408.576 0ZM422.912 11.264L412.672 13.312L402.432 18.432L396.288 23.552L389.12 33.792L384 45.056L382.976 50.176V65.536L387.072 78.848L393.216 88.064L401.408 96.256L410.624 101.376L416.768 103.424H430.08L441.344 99.328L450.56 92.16L457.728 82.944L462.848 70.656L463.872 66.56V49.152L458.752 34.816L450.56 23.552L441.344 16.384L431.104 12.288L422.912 11.264ZM467.968 24.576L470.016 30.72L475.136 47.104V67.584L472.064 80.896L466.944 91.136L472.064 89.088L482.304 80.896L492.544 69.632L498.688 59.392L497.664 54.272L488.448 40.96L483.328 36.864L478.208 31.744L473.088 27.648H471.04V25.6L467.968 24.576ZM376.832 25.6L365.568 34.816L358.4 40.96L349.184 54.272L348.16 59.392L356.352 71.68L366.592 82.944L377.856 91.136L379.904 90.112L374.784 79.872L371.712 66.56V49.152L374.784 35.84L378.88 25.6H376.832Z"/>
<path d="M119.808 204.8H134.144L137.216 209.92V257.024H186.368L188.416 258.048V272.384L184.32 286.72L179.2 295.936H177.152L175.104 300.032L167.936 308.224L156.672 315.392L145.408 319.488L140.288 320.512H120.832L106.496 316.416L96.2561 310.272L87.0401 302.08L83.9681 296.96L80.8961 293.888L75.7761 283.648L72.7041 271.36V253.952L76.8001 238.592L82.9441 228.352L92.1601 218.112L95.2321 215.04L111.616 206.848L119.808 204.8ZM121.856 217.088L108.544 222.208L99.3281 229.376L92.1601 237.568L87.0401 247.808L84.9921 254.976V269.312L88.0641 279.552L93.1841 288.768L102.4 299.008L114.688 305.152L122.88 307.2H138.24L150.528 303.104L158.72 299.008L166.912 290.816L173.056 280.576L175.104 268.288L126.976 267.264L125.952 266.24L124.928 217.088H121.856Z"/>
<path d="M153.6 178.176L167.936 179.2L180.224 183.296L190.464 189.44L200.704 198.656L207.872 208.896L210.944 216.064L214.016 233.472L212.992 241.664L209.92 243.712H152.576L149.504 240.64V182.272L153.6 178.176ZM162.816 192.512V230.4H200.704L198.656 221.184L193.536 210.944H191.488L189.44 206.848L180.224 198.656L169.984 193.536L162.816 192.512Z"/>
<path d="M237.568 234.496H349.184L352.256 237.568V243.712L348.16 247.808H237.568L234.496 244.736V237.568L237.568 234.496Z"/>
<path d="M192.512 347.136H199.68V349.184H201.728L202.752 352.256V453.632L200.704 457.728L198.656 458.752H192.512L189.44 455.68V350.208L192.512 347.136Z"/>
<path d="M76.8001 138.24H173.056L177.152 142.336L176.128 149.504L174.08 151.552H75.7761L72.7041 148.48V141.312L76.8001 138.24Z"/>
<path d="M419.84 32.7681L427.008 33.7921L430.08 38.9121L428.032 44.0321L417.792 48.1281L413.696 52.2241L412.672 60.4161L415.744 65.5361L419.84 68.6081H428.032L433.152 63.4881L436.224 53.2481L438.272 51.2001H445.44L448.512 54.2721V63.4881L445.44 71.6801L440.32 77.8241L430.08 82.9441H416.768L408.576 78.8481L403.456 73.7281L399.36 66.5601L398.336 63.4881V52.2241L401.408 45.0561L407.552 37.8881L415.744 33.7921L419.84 32.7681Z"/>
<path d="M157.696 365.568H163.84L166.912 367.616L167.936 370.688V453.632L162.816 458.752L155.648 457.728L154.624 455.68V368.64L157.696 365.568Z"/>
<path d="M76.8001 94.208H151.552L156.672 99.328L155.648 105.472L153.6 107.52H75.7761L72.7041 104.448V97.28L76.8001 94.208Z"/>
<path d="M238.592 190.464H313.344L317.44 193.536V200.704L314.368 203.776H237.568L234.496 200.704V193.536L238.592 190.464Z"/>
<path d="M358.4 306.176H364.544L368.64 308.224L369.664 315.392L366.592 319.488L350.208 322.56L339.968 328.704L334.848 333.824L329.728 344.064L326.656 359.424L323.584 362.496H317.44L313.344 358.4L314.368 344.064L319.488 331.776L325.632 323.584L330.752 318.464L338.944 312.32L351.232 307.2L358.4 306.176Z"/>
<path d="M237.568 440.32H304.128L306.176 442.368V450.56L302.08 453.632H238.592L234.496 450.56V443.392L237.568 440.32Z"/>
<path d="M88.0642 384L95.2322 385.024L97.2802 387.072V454.656L94.2082 458.752H87.0402L84.9922 455.68V386.048L88.0642 384Z"/>
<path d="M237.568 278.528H294.912L296.96 280.576V288.768L292.864 291.84H238.592L234.496 288.768V280.576L237.568 278.528Z"/>
<path d="M123.904 395.264L130.048 396.288L132.096 400.384V454.656L129.024 458.752H122.88L119.808 455.68V398.336L123.904 395.264Z"/>
<path d="M238.592 352.256H270.336L274.432 356.352L273.408 363.52L271.36 365.568H237.568L234.496 362.496V355.328L238.592 352.256Z"/>
<path d="M237.568 396.288H270.336L274.432 400.384L273.408 407.552L270.336 409.6H237.568L234.496 406.528V399.36L237.568 396.288Z"/>
<path d="M192.512 138.24H207.872L210.944 141.312V148.48L207.872 151.552H192.512L189.44 148.48V141.312L192.512 138.24Z"/>
<path d="M334.848 190.464H348.16L352.256 194.56V200.704L349.184 203.776H333.824L330.752 200.704V193.536L334.848 190.464Z"/>
<path d="M379.904 232.448L385.024 233.472L388.096 236.544L389.12 243.712L385.024 248.832L379.904 249.856L374.784 246.784L373.76 245.76V236.544L376.832 233.472L379.904 232.448Z"/>
<path d="M2.048 464.896H11.264L15.36 470.016L14.336 476.16L11.264 479.232L4.096 480.256L0 476.16V467.968L2.048 464.896Z"/>
</g>
<defs>
<clipPath id="clip0_45_52">
<rect width="512" height="512"/>
</clipPath>
</defs>
</svg>
