<svg id="Layer_1" data-name="Layer 1" xmlns="http://www.w3.org/2000/svg" viewBox="0 0 1123.6 980.37"><defs><style>.cls-1{fill:#e3e5fc;}.cls-2{fill:#a7adff;}.cls-3{fill:#fff;}.cls-4{fill:#4b369d;}.cls-5{fill:#d7384e;}.cls-6{fill:#fdc510;}.cls-7{fill:#978cff;}.cls-8{fill:#5a54ff;}.cls-9{fill:#eac2ab;}.cls-10{fill:#d4a79a;}.cls-11{fill:#f3aa02;}.cls-12{fill:#f44e4e;}</style></defs><g id="UI"><g id="Infographic_Desktop" data-name="Infographic Desktop"><ellipse class="cls-1" cx="520.96" cy="961.65" rx="480.47" ry="18.72"/><path class="cls-2" d="M1299.24,868.49H383a45.09,45.09,0,0,1-45-45V155.21a45.09,45.09,0,0,1,45-45h916.28a45.09,45.09,0,0,1,45,45V823.53A45.09,45.09,0,0,1,1299.24,868.49Z" transform="translate(-338 -110.25)"/><path class="cls-1" d="M1271.13,805.25H406.72a45.09,45.09,0,0,1-45-45V188.19a45.09,45.09,0,0,1,45-45h864.41a45.09,45.09,0,0,1,45,45v572.1A45.08,45.08,0,0,1,1271.13,805.25Z" transform="translate(-338 -110.25)"/><path class="cls-1" d="M894.25,833.91H823.68a3.13,3.13,0,0,1-3.12-3.12h0a3.13,3.13,0,0,1,3.12-3.12h70.57a3.13,3.13,0,0,1,3.12,3.12h0A3.14,3.14,0,0,1,894.25,833.91Z" transform="translate(-338 -110.25)"/><circle class="cls-1" cx="53.68" cy="18.45" r="7.02"/><circle class="cls-3" cx="83.91" cy="18.45" r="7.02"/><circle class="cls-4" cx="114.41" cy="18.45" r="7.02"/><path class="cls-3" d="M1183.16,526.73H1012.05a8.38,8.38,0,0,1-8.35-8.35h0a8.38,8.38,0,0,1,8.35-8.35h171.11a8.38,8.38,0,0,1,8.35,8.35h0A8.38,8.38,0,0,1,1183.16,526.73Z" transform="translate(-338 -110.25)"/><path class="cls-3" d="M1183.16,565H1012.05a8.38,8.38,0,0,1-8.35-8.35h0a8.38,8.38,0,0,1,8.35-8.35h171.11a8.38,8.38,0,0,1,8.35,8.35h0A8.38,8.38,0,0,1,1183.16,565Z" transform="translate(-338 -110.25)"/><path class="cls-3" d="M1183.16,603.18H1012.05a8.38,8.38,0,0,1-8.35-8.35h0a8.38,8.38,0,0,1,8.35-8.35h171.11a8.38,8.38,0,0,1,8.35,8.35h0A8.38,8.38,0,0,1,1183.16,603.18Z" transform="translate(-338 -110.25)"/><path class="cls-3" d="M1183.16,646.27H1012.05a8.38,8.38,0,0,1-8.35-8.35h0a8.38,8.38,0,0,1,8.35-8.35h171.11a8.38,8.38,0,0,1,8.35,8.35h0A8.38,8.38,0,0,1,1183.16,646.27Z" transform="translate(-338 -110.25)"/><path class="cls-3" d="M1183.16,684.5H1012.05a8.38,8.38,0,0,1-8.35-8.35h0a8.38,8.38,0,0,1,8.35-8.35h171.11a8.38,8.38,0,0,1,8.35,8.35h0A8.38,8.38,0,0,1,1183.16,684.5Z" transform="translate(-338 -110.25)"/><path class="cls-3" d="M1183.16,722.73H1012.05a8.38,8.38,0,0,1-8.35-8.35h0a8.38,8.38,0,0,1,8.35-8.35h171.11a8.38,8.38,0,0,1,8.35,8.35h0A8.38,8.38,0,0,1,1183.16,722.73Z" transform="translate(-338 -110.25)"/><path class="cls-3" d="M490.36,427.93H844.28a45.09,45.09,0,0,0,45-45V255.07a45.09,45.09,0,0,0-45-45H490.36a45.09,45.09,0,0,0-45,45V383A45.08,45.08,0,0,0,490.36,427.93Z" transform="translate(-338 -110.25)"/><path class="cls-5" d="M455,722.84h0a8.44,8.44,0,0,1-8.41-8.41V521.06a8.44,8.44,0,0,1,8.41-8.41h0a8.44,8.44,0,0,1,8.41,8.41V714.43A8.44,8.44,0,0,1,455,722.84Z" transform="translate(-338 -110.25)"/><path class="cls-5" d="M495.31,722.84h0a8.44,8.44,0,0,1-8.41-8.41V628.14a8.44,8.44,0,0,1,8.41-8.41h0a8.44,8.44,0,0,1,8.41,8.41v86.29A8.44,8.44,0,0,1,495.31,722.84Z" transform="translate(-338 -110.25)"/><path class="cls-5" d="M535.58,722.84h0a8.44,8.44,0,0,1-8.41-8.41V545.84a8.44,8.44,0,0,1,8.41-8.41h0a8.44,8.44,0,0,1,8.41,8.41V714.43A8.44,8.44,0,0,1,535.58,722.84Z" transform="translate(-338 -110.25)"/><path class="cls-5" d="M575.84,722.84h0a8.44,8.44,0,0,1-8.41-8.41V652.48a8.44,8.44,0,0,1,8.41-8.41h0a8.44,8.44,0,0,1,8.41,8.41v61.95A8.43,8.43,0,0,1,575.84,722.84Z" transform="translate(-338 -110.25)"/><path class="cls-5" d="M616.11,722.84h0a8.44,8.44,0,0,1-8.41-8.41V610a8.44,8.44,0,0,1,8.41-8.41h0a8.44,8.44,0,0,1,8.41,8.41V714.43A8.43,8.43,0,0,1,616.11,722.84Z" transform="translate(-338 -110.25)"/><path class="cls-5" d="M656.38,722.84h0a8.44,8.44,0,0,1-8.41-8.41V683.49a8.44,8.44,0,0,1,8.41-8.41h0a8.44,8.44,0,0,1,8.41,8.41v30.94A8.44,8.44,0,0,1,656.38,722.84Z" transform="translate(-338 -110.25)"/><path class="cls-2" d="M503,361.94a73.15,73.15,0,0,0,102.18,16.19l-86-118.37A73.15,73.15,0,0,0,503,361.94Z" transform="translate(-338 -110.25)"/><path class="cls-2" d="M526.88,254.16l39.4,54.23,55.28-40.16A68.37,68.37,0,0,0,526.88,254.16Z" transform="translate(-338 -110.25)"/><path class="cls-6" d="M647.24,263.6c-.36-.5-.78-.94-1.15-1.43l-74.23,53.92,55.06,75.79A91.84,91.84,0,0,0,647.24,263.6Z" transform="translate(-338 -110.25)"/><path class="cls-6" d="M709.39,266.47h0a8.93,8.93,0,0,1,8.9-8.9H837.64a8.93,8.93,0,0,1,8.9,8.9h0a8.93,8.93,0,0,1-8.9,8.9H718.29A8.93,8.93,0,0,1,709.39,266.47Z" transform="translate(-338 -110.25)"/><path class="cls-2" d="M709.39,309.09h0a8.93,8.93,0,0,1,8.9-8.9h40.47a8.93,8.93,0,0,1,8.9,8.9h0a8.93,8.93,0,0,1-8.9,8.9H718.29A8.93,8.93,0,0,1,709.39,309.09Z" transform="translate(-338 -110.25)"/><path class="cls-7" d="M761,669.4a80.25,80.25,0,1,1,80.25-80.25A80.34,80.34,0,0,1,761,669.4Zm0-153a72.76,72.76,0,1,0,72.75,72.75A72.84,72.84,0,0,0,761,516.4Z" transform="translate(-338 -110.25)"/><path class="cls-7" d="M761,643.17a54,54,0,1,1,54-54A54.08,54.08,0,0,1,761,643.17Zm0-100.54a46.53,46.53,0,1,0,46.52,46.52A46.58,46.58,0,0,0,761,542.63Z" transform="translate(-338 -110.25)"/><path class="cls-7" d="M761,620.13a31,31,0,1,1,31-31A31,31,0,0,1,761,620.13Zm0-54.46a23.48,23.48,0,1,0,23.48,23.48A23.5,23.5,0,0,0,761,565.67Z" transform="translate(-338 -110.25)"/><path class="cls-6" d="M757,595.88l.86-19.07a3.75,3.75,0,0,1,7.49.33l-.24,5.28,124.26-73a3.75,3.75,0,0,1,3.8,6.46Z" transform="translate(-338 -110.25)"/><path class="cls-6" d="M773.84,596.61H761a3.75,3.75,0,0,1,0-7.5h12.8a3.75,3.75,0,0,1,0,7.5Z" transform="translate(-338 -110.25)"/><path class="cls-8" d="M988.61,429.2a3.74,3.74,0,0,1-3.28-5.55l30.76-56,24.57,23.51,16.38-26,14.37,8.7,34.37-85.28,24,42.49,22.54-33.38,19,23.32,38.45-70.81c1.22-2.25,2.83-4.71,4.53-7.32,1.4-2.15,2.89-4.43,4.19-6.65-1.45.63-2.93,1.32-4.34,2a75.07,75.07,0,0,1-7.29,3.12,3.75,3.75,0,1,1-2.39-7.11,68,68,0,0,0,6.5-2.8c4.78-2.23,9.71-4.54,14.08-4.88l5.33-.41-1.43,5.15c-1.39,5-4.94,10.43-8.38,15.7-1.62,2.48-3.15,4.82-4.22,6.8l-43.78,80.63-19.7-24.17-23.68,35.07-22.26-39.48-31.84,79-15.61-9.45-17.34,27.51L1018,379.79,991.9,427.25A3.73,3.73,0,0,1,988.61,429.2Z" transform="translate(-338 -110.25)"/><path class="cls-8" d="M1227.49,252.76a3.75,3.75,0,0,1-3.75-3.75V230.27a3.75,3.75,0,1,1,7.5,0V249A3.75,3.75,0,0,1,1227.49,252.76Z" transform="translate(-338 -110.25)"/><path class="cls-2" d="M984.87,451.05h0a3.76,3.76,0,0,1-3.75-3.75V208.12a3.76,3.76,0,0,1,3.75-3.75h0a3.76,3.76,0,0,1,3.75,3.75V447.31A3.76,3.76,0,0,1,984.87,451.05Z" transform="translate(-338 -110.25)"/><path class="cls-2" d="M962.08,429.2h0a3.76,3.76,0,0,1,3.75-3.75H1205a3.76,3.76,0,0,1,3.75,3.75h0A3.76,3.76,0,0,1,1205,433H965.82A3.76,3.76,0,0,1,962.08,429.2Z" transform="translate(-338 -110.25)"/><path class="cls-5" d="M1123.67,263.26H1054a12.53,12.53,0,0,1-12.49-12.49h0A12.53,12.53,0,0,1,1054,238.28h69.63a12.53,12.53,0,0,1,12.49,12.49h0A12.53,12.53,0,0,1,1123.67,263.26Z" transform="translate(-338 -110.25)"/><rect class="cls-4" x="832.97" y="207.74" width="2.81" height="3.75"/><path class="cls-4" d="M1173.78,310.94H1171v-7.05h2.81Zm0-14.11H1171v-7.05h2.81Zm0-14.11H1171v-7.05h2.81Zm0-14.1H1171v-7.05h2.81Z" transform="translate(-338 -110.25)"/><polygon class="cls-4" points="835.78 144.26 832.97 144.26 832.97 141.92 830.63 141.92 830.63 139.11 835.78 139.11 835.78 144.26"/><rect class="cls-4" x="811.48" y="139.11" width="9.58" height="2.81"/><rect class="cls-4" x="798.16" y="139.11" width="3.75" height="2.81"/><path class="cls-5" d="M1174.11,338.47h-3.46a8.54,8.54,0,0,1-8.51-8.51V326.5a8.54,8.54,0,0,1,8.51-8.51h3.46a8.54,8.54,0,0,1,8.51,8.51V330A8.54,8.54,0,0,1,1174.11,338.47Z" transform="translate(-338 -110.25)"/></g></g><g id="Characters"><g id="Man"><path id="Arm" class="cls-9" d="M1437,510s11.09,52.73,10.15,74.28-19.67,53.7-19.67,53.7l-12.1-128H1437Z" transform="translate(-338 -110.25)"/><g id="Head"><path id="Neck" class="cls-10" d="M1370.78,413.26l2.44,45.42,35.55,13.71s-21.38-31.28-17.75-59.13S1370.78,413.26,1370.78,413.26Z" transform="translate(-338 -110.25)"/><path id="Face" class="cls-9" d="M1339,320.33s-7.74,10.26-.19,41.71,19.81,58.32,29.29,56.42c26.21-5.24,35.41-23.76,44.5-39.66,11.14-19.5-11-67.06-11-67.06l-20.9-11.28Z" transform="translate(-338 -110.25)"/><path id="Hair" class="cls-4" d="M1311.1,311.86c-2.29-7.38,1.73-16.82,7.1-21.38a10,10,0,0,1,7.29-2.62c2,.19,3.88,1.14,5.83.82,5.84-1,6.54-9.58,12-11.33,4-1.3,7.92,2.36,12,3.33,3.11.73,6.33-.11,9.46-.76,8.81-1.85,17-6.08,26-7.17,7.62-.92,15.57-.06,22.46,3.64,7.2,3.86,12.36,11,15.11,19.16a27.26,27.26,0,0,1,.85,15.38c1.08-4.13,8.51.31,9.72,1.93,4.72,6.38,5.53,20.21,3,27.63-2,5.88-5.26,11.08-7.08,17-2.16,7.11-3.06,15-7,21.3-4.51,7.23-28.8,31-36.51,29,2.38-6.54-9.22-12.48-8.79-19.51s4.82-43.62-29.76-50.47c-13.75-2.72,3.89-7.18-9.88-6.63a46.3,46.3,0,0,1-19.22-3.5c-4.74-1.92-9.35-9-12-14.16A12.42,12.42,0,0,1,1311.1,311.86Z" transform="translate(-338 -110.25)"/><path id="Ear" class="cls-9" d="M1380.41,359.28s14.37-12.31,13.32,4.34-14.5,21.48-14.5,21.48Z" transform="translate(-338 -110.25)"/></g><g id="Leg"><path id="Skin" class="cls-10" d="M1418.83,988.2l-8.84,60,19.74,5,5.51-63.11S1424.85,985.78,1418.83,988.2Z" transform="translate(-338 -110.25)"/><path id="Shoe" class="cls-11" d="M1332.61,1077s14.78,3.92,42.6,4,58.77-1,64.09-5.53,6.49-39.67-2.74-39-11.88,14.25-29,3.48c-14.65-9.23-24.43,10.79-48.33,17.63S1325.68,1067.14,1332.61,1077Z" transform="translate(-338 -110.25)"/><path id="Leg-2" data-name="Leg" class="cls-4" d="M1369.64,1006.69c.76-2.42,3.07-4.37,5-6.35,18.14-18.17,11.63-43.47,7-65.66-11.06-52.64-7-106.76-7.77-160.13-.78-52.09-9.2-103.83-23.61-153.64-5.23-18.1-12.68-46.13,13.75-42.58,12.52,1.68,24.66.33,36.8-2.89,6.39-1.69-.38-3.53,6.39-1.69,23,6.26,36.23,72.67,32.74,89.16-6.94,32.83-9.29,43.34-8.39,77.53,1.28,48.49-2.7,97.4,5.92,145,4.23,23.32,8.86,46.56,13.38,69.81,2.64,13.56,15.22,42.82,9.06,55.69-8.46,17.68-52.5,6.29-66.9,6.91C1382.21,1018.32,1367.05,1014.94,1369.64,1006.69Z" transform="translate(-338 -110.25)"/></g><g id="Leg-3" data-name="Leg"><path id="Skin-2" data-name="Skin" class="cls-9" d="M1374.11,990.27l-13,59.19,19.34,6.38,9.91-62.57S1380.29,988.28,1374.11,990.27Z" transform="translate(-338 -110.25)"/><path id="Shoe-2" data-name="Shoe" class="cls-6" d="M1281.9,1072.79s14.47,4.94,42.21,7,58.7,3.09,64.32-1,9.25-39.11,0-39.11-12.84,13.38-29.15,1.44c-14-10.23-25.13,9.06-49.45,14.2S1275.67,1062.49,1281.9,1072.79Z" transform="translate(-338 -110.25)"/><path id="Leg-4" data-name="Leg" class="cls-8" d="M1323.75,1006.85c.93-2.17,3.37-3.79,5.49-5.48,19.37-15.44,14.64-39,11.54-59.57-7.35-48.82.52-98,3.46-146.86,2.86-47.66-1.91-95.49-12.8-142-4-16.88-9.42-43,16.69-38,12.37,2.34,24.58,1.88,36.91-.28,6.49-1.14-.13-3.25,6.49-1.14,22.55,7.2,31.32,31.25,26.69,46.09-9.22,29.57-12.57,76.52-14.06,107.83-2.12,44.4-9.51,88.85-4.24,132.91,2.58,21.59,5.58,43.12,8.46,64.67,1.68,12.57,12.19,40.11,5.14,51.49-9.68,15.62-52.81,2.38-67.22,2C1335.48,1018.28,1320.6,1014.22,1323.75,1006.85Z" transform="translate(-338 -110.25)"/></g><path id="Arm-2" data-name="Arm" class="cls-9" d="M1298.59,500.23a205.87,205.87,0,0,1-29.68,18.68c-8.09,4.17-30,18.24-38.53,9.63-2.48-2.52-3.56-6.07-4.45-9.49-5.27-20.19-12.92-39.65-20.4-59.1-6.69-17.37-14.72-35.69-14.1-54.69.64-19.4-.52-45.57-2.37-50.32s-17-32.71-17.3-24,14.34,32.62,7.67,31.73-20.92,4.67-19.24,14.78,12.35,31.89,12.35,31.89q7,29.44,14.7,58.74c3.82,14.6,7.74,29.2,12.11,43.65,4.25,14,8.19,29.3,20.55,38.62a29.86,29.86,0,0,0,5.14,3.17c14.64,7,31.85-.33,46.09-8.11,30.55-16.69,59.51-35.95,88.69-54.88L1342.7,473.7c-1.37-1.34-2.87-2.76-4.76-3-2.21-.34-4.32.94-6.15,2.23-9.11,6.39-17.08,14.22-25.63,21.35Q1302.44,497.32,1298.59,500.23Z" transform="translate(-338 -110.25)"/><g id="Body"><path class="cls-12" d="M1397.76,515.78s-30-50.39-7.11-59.81S1437,510,1437,510l-37.73,14.88Z" transform="translate(-338 -110.25)"/><path class="cls-5" d="M1328.35,625.05c0-2.08-3.47-56.2,4.16-90.89s0-64.53,26.37-85.34,47.87,6.94,54.81,21.51,12.76,60.83,13.74,85.34c1,25.05,14.17,78,14.7,79.1,10.46,21.75,3.58,20.15,2.67,22.22-5.65,12.88-42.4,15.38-51.23,10.82-19.36-10-23.47-15.44-44.34-12.23-9,1.39-19-1.39-21.67-4.16S1328.35,625.05,1328.35,625.05Z" transform="translate(-338 -110.25)"/><path class="cls-12" d="M1313.64,476.64s48.71-51.93,67.38-28.36-47.44,72.14-47.44,72.14l-30-39Z" transform="translate(-338 -110.25)"/></g></g></g></svg>