<svg id="Layer_1" data-name="Layer 1" xmlns="http://www.w3.org/2000/svg" viewBox="0 0 1584.5 1020.54"><defs><style>.cls-1{fill:#e3e5fc;}.cls-2{fill:#fff;}.cls-3{fill:#a7adff;}.cls-4{fill:#f44e4e;}.cls-5{fill:#978cff;}.cls-6{fill:#fae026;}.cls-7{fill:#fdc510;}.cls-8{fill:#4b369d;}.cls-9{fill:#eac2ab;}.cls-10{fill:#5a54ff;}.cls-11{fill:#d4a79a;}.cls-12{fill:#d7384e;}</style></defs><g id="Nature"><ellipse id="Ground" class="cls-1" cx="729.25" cy="982.59" rx="681.78" ry="37.95"/><g id="Plants"><path class="cls-1" d="M1559.56,1048.83c42.73-2.27,90-13.39,116.18-40.43,12.88-13.31,18.83-30.35,15.33-49.28-3.94-21.38-21.07-40.76-24.86-62.21-3.91-22.09,13.41-30.15,21.27-47.59,8.91-19.72,4.34-44.75-12.48-64.46a85.82,85.82,0,0,0-32.9-23.59c-13.81-5.54-29.26-4.68-37-18.67-4.67-8.45-4.21-17.62-2.62-26,4.07-21.53,14.75-40.84,23.31-60.82,3.41-7.94,6.1-17.83-.9-25.5-14.2-15.56-48.74-11.76-63.73-5.81-16.09,6.39-27.67,19-31.31,34.21-3.22,13.41-1.16,29.74-12.67,38.47-8,6-20.24,6.51-30.74,9.33-18.85,5.06-20.54,20.39-15.5,36.46,6.1,19.44,12.46,38.89.87,55.46-10.2,14.59-29.94,22-42.71,34.9-4.29,4.34-7.85,9.56-7.84,15.65.06,21.55,30.89,37.06,33.36,59.68,1.18,10.86-1,21.28-2.42,31.75-4.81,35.71,8.91,72.38,47.52,98.09,35.82,23.87,85.23,29.68,119.81,14.08" transform="translate(-107.55 -90.17)"/><path class="cls-2" d="M1537.61,1040.91h-.22a2.22,2.22,0,0,1-2-2.42l25-263.93a2.26,2.26,0,0,1,2.42-2,2.22,2.22,0,0,1,2,2.42l-25,263.92A2.22,2.22,0,0,1,1537.61,1040.91Z" transform="translate(-107.55 -90.17)"/><path class="cls-2" d="M1550.12,908.94a2.22,2.22,0,0,1-.89-4.26l74.65-32.54a2.22,2.22,0,1,1,1.78,4.07L1551,908.76A2.21,2.21,0,0,1,1550.12,908.94Z" transform="translate(-107.55 -90.17)"/><path class="cls-2" d="M1554.55,854.3a2.23,2.23,0,0,1-.89-4.27l74.65-32.54a2.23,2.23,0,0,1,1.78,4.08l-74.65,32.54A2.13,2.13,0,0,1,1554.55,854.3Z" transform="translate(-107.55 -90.17)"/><path class="cls-2" d="M1552.51,883.67a2.16,2.16,0,0,1-.89-.19l-66.82-29.36a2.21,2.21,0,0,1-1.14-2.92,2.23,2.23,0,0,1,2.93-1.14l66.82,29.35a2.21,2.21,0,0,1,1.14,2.93A2.24,2.24,0,0,1,1552.51,883.67Z" transform="translate(-107.55 -90.17)"/><path class="cls-3" d="M1496.75,981.86c.24-.83.44-1.66.63-2.5,2.51-11.73-1.21-22.84-10.83-29.69-7.59-5.41-20-7.08-22.91-17.35-1.38-4.81.24-10,2.28-14.54s4.55-9.1,5-14.08-1.83-10.7-6.6-12.24c-3.46-1.11-7.21.18-10.83-.18-13.47-1.36-8.87-16.53-12.54-25.19-1.57-3.68-4.85-6.87-8.83-7.21-4.24-.36-8,2.42-11.7,4.52s-8.7,3.49-11.94.74c-3.4-2.88-2.6-8.31-.93-12.46,4.09-10.17,11.38-18.72,19.06-26.53,3.17-3.21,6.59-6.67,7.23-11.14.82-5.66-3.25-11-8-14.18-11.67-7.89-25.64-13.23-39.21-16.67-14.6-3.69-46.55-4.46-44.89,19.36,1,14.2,22.18,36.72,6,48.46-8,5.75-26.58,3.92-21.46,18.73,1.07,3.09,2.66,6,3.39,9.22,2.85,12.22-7.08,21.79-7.59,33.5-.43,9.79,9.12,17.61,15.64,23.49,3,2.66,5.62,6.34,5.09,10.28-.31,2.31-1.67,4.34-2.31,6.59-1.18,4.17.24,8.58.52,12.91.62,9.24-7.9,10.52-11,17.86-6.74,16.21,25.48,15.6,32.3,24.32,5.65,7.25,4.41,17.21,8.55,25.13,8.93,17.08,37.08,21.46,54.18,22.9,11.3.94,23.46-1.12,32-8.6,9.31-8.19,12.36-20.56,17.8-31.21C1481.2,1003.56,1492.76,995.86,1496.75,981.86Z" transform="translate(-107.55 -90.17)"/><path class="cls-4" d="M1510.56,1032.31c-4.79-11.41-3.41-24.34-1.94-36.64.49-4.11,1-8.35,3.18-11.89,2-3.26,5.73-5.86,9.67-5.26a2.76,2.76,0,0,0,1.34,0c.75-.29,1-1.21,1.07-2,.64-5.32-.57-10.4-.59-15.69,0-6.94,6.73-1.64,8.79.92,1.6,2,2.9,4.2,4.53,6.16.19.22.48.47.75.36s.31-.48.31-.78a7.51,7.51,0,0,1,1.23-4A40.47,40.47,0,0,1,1542,960c3-3.5,1.74-9.84,4-14.11,2.21-4.07,6.25-7.66,11.2-6.64,8.17,1.68,9.35,12.91,7.73,21.1-.73,3.74-1.23,8.53,2,10.52,3.45,2.1,22.64-13.7,29.25-17.87,3-1.91,7.2-3.63,9.92-1.31s1.76,6.48.37,9.65c-1.59,3.64,5.84,6.08,7.7,8.42,6.87,8.64,3.13,23.32-1.5,32-4.85,9.09-12,17.05-19.62,23.9-6.23,5.63,7.66,18.9,2.2,25.34-8.82,10.39-44.93,9.55-58.87,8.22-11.86-1.13-18.62-11.33-23.34-21.21C1512.21,1036.13,1511.37,1034.23,1510.56,1032.31Z" transform="translate(-107.55 -90.17)"/><path class="cls-2" d="M1525.49,1055.78a2.22,2.22,0,0,1-1.88-3.39l40.5-64.93a2.22,2.22,0,1,1,3.76,2.35l-40.5,64.92A2.24,2.24,0,0,1,1525.49,1055.78Z" transform="translate(-107.55 -90.17)"/><path class="cls-2" d="M1555.35,1007.87a2.22,2.22,0,0,1-.34-4.41l22.2-3.53a2.22,2.22,0,1,1,.7,4.39l-22.2,3.53A2.17,2.17,0,0,1,1555.35,1007.87Z" transform="translate(-107.55 -90.17)"/><path class="cls-2" d="M1447.21,1062.53a2.23,2.23,0,0,1-2.1-1.5l-64.19-186.12a2.22,2.22,0,0,1,4.2-1.44l64.19,186.12a2.21,2.21,0,0,1-1.38,2.82A2.53,2.53,0,0,1,1447.21,1062.53Z" transform="translate(-107.55 -90.17)"/><path class="cls-2" d="M1421,990.84a.82.82,0,0,1-.22,0L1379,986.64a2.22,2.22,0,0,1,.43-4.42l41.78,4.19a2.22,2.22,0,0,1-.21,4.43Z" transform="translate(-107.55 -90.17)"/><path class="cls-2" d="M1403.67,936a2.85,2.85,0,0,1-.41,0l-35.43-6.53a2.22,2.22,0,0,1,.81-4.36l35.43,6.53a2.22,2.22,0,0,1-.4,4.4Z" transform="translate(-107.55 -90.17)"/><path class="cls-2" d="M1412.28,960.82a2.21,2.21,0,0,1-1.62-3.73L1440,925.71a2.22,2.22,0,1,1,3.25,3l-29.38,31.38A2.24,2.24,0,0,1,1412.28,960.82Z" transform="translate(-107.55 -90.17)"/></g></g><g id="UI"><g id="E-commerce_Mobile" data-name="E-commerce Mobile"><path class="cls-1" d="M418.46,858H160.81a53.41,53.41,0,0,1-53.26-53.26V174.12a53.41,53.41,0,0,1,53.26-53.26H418.46a53.41,53.41,0,0,1,53.26,53.26V804.76A53.42,53.42,0,0,1,418.46,858Z" transform="translate(-107.55 -90.17)"/><path class="cls-2" d="M395.35,789.25H183.91A53.41,53.41,0,0,1,130.65,736V198.9a53.41,53.41,0,0,1,53.26-53.26H395.35a53.41,53.41,0,0,1,53.26,53.26V736A53.41,53.41,0,0,1,395.35,789.25Z" transform="translate(-107.55 -90.17)"/><path class="cls-1" d="M323.94,137.71H255.33a3,3,0,0,1-3-3h0a3,3,0,0,1,3-3h68.61a3,3,0,0,1,3,3h0A3,3,0,0,1,323.94,137.71Z" transform="translate(-107.55 -90.17)"/><circle class="cls-3" cx="182.08" cy="731.2" r="18.89"/><path class="cls-4" d="M370.88,712.46H208.39a33.65,33.65,0,0,1-33.55-33.55h0a33.65,33.65,0,0,1,33.55-33.55H370.88a33.65,33.65,0,0,1,33.55,33.55h0A33.66,33.66,0,0,1,370.88,712.46Z" transform="translate(-107.55 -90.17)"/><path class="cls-3" d="M406.91,250.43H309a8.14,8.14,0,0,1-8.12-8.12h0A8.14,8.14,0,0,1,309,234.2h97.89a8.14,8.14,0,0,1,8.12,8.11h0A8.14,8.14,0,0,1,406.91,250.43Z" transform="translate(-107.55 -90.17)"/><path class="cls-3" d="M406.91,287.6H309a8.14,8.14,0,0,1-8.12-8.11h0a8.14,8.14,0,0,1,8.12-8.12h97.89a8.14,8.14,0,0,1,8.12,8.12h0A8.14,8.14,0,0,1,406.91,287.6Z" transform="translate(-107.55 -90.17)"/><path class="cls-1" d="M288.24,596.33h0a2.42,2.42,0,0,1-.34-3.41l22.26-27.33a2.42,2.42,0,0,1,3.41-.34h0a2.43,2.43,0,0,1,.34,3.41L291.65,596A2.44,2.44,0,0,1,288.24,596.33Z" transform="translate(-107.55 -90.17)"/><path class="cls-1" d="M291,596.33h0a2.43,2.43,0,0,0,.35-3.41l-22.26-27.33a2.42,2.42,0,0,0-3.41-.34h0a2.43,2.43,0,0,0-.35,3.41L287.61,596A2.44,2.44,0,0,0,291,596.33Z" transform="translate(-107.55 -90.17)"/><path class="cls-1" d="M250.77,235H202.38v-4.44c0-17.29,10.85-31.35,24.2-31.35s24.2,14.06,24.2,31.35V235Zm-39.2-8.87h30c-1.45-10.14-7.74-18-15-18S213,216,211.57,226.09Z" transform="translate(-107.55 -90.17)"/><path class="cls-3" d="M206.12,224.73c-7.55,0-13.74,4.84-13.74,10.74L179.52,311c0,5.9,6.18,10.73,13.74,10.73h56l-15-97Z" transform="translate(-107.55 -90.17)"/><path class="cls-5" d="M269.65,310.94l-11-75.48c0-5.9-6.19-10.74-13.75-10.74H234.19l15,97h6.69C263.47,321.67,269.65,316.85,269.65,310.94Z" transform="translate(-107.55 -90.17)"/><path class="cls-3" d="M406.91,424.29H309a8.14,8.14,0,0,1-8.12-8.11h0a8.14,8.14,0,0,1,8.12-8.12h97.89a8.14,8.14,0,0,1,8.12,8.12h0A8.14,8.14,0,0,1,406.91,424.29Z" transform="translate(-107.55 -90.17)"/><path class="cls-3" d="M406.91,461.45H309a8.14,8.14,0,0,1-8.12-8.11h0a8.14,8.14,0,0,1,8.12-8.12h97.89a8.14,8.14,0,0,1,8.12,8.12h0A8.14,8.14,0,0,1,406.91,461.45Z" transform="translate(-107.55 -90.17)"/><path class="cls-1" d="M250.77,408.81H202.38v-4.44c0-17.29,10.85-31.35,24.2-31.35s24.2,14.06,24.2,31.35v4.44Zm-39.2-8.87h30c-1.45-10.14-7.74-18-15-18S213,389.8,211.57,399.94Z" transform="translate(-107.55 -90.17)"/><path class="cls-6" d="M206.12,398.59c-7.55,0-13.74,4.83-13.74,10.73L179.52,484.8c0,5.9,6.18,10.73,13.74,10.73h56l-15-96.94Z" transform="translate(-107.55 -90.17)"/><path class="cls-7" d="M269.65,484.8l-11-75.48c0-5.9-6.19-10.73-13.75-10.73H234.19l15,96.94h6.69C263.47,495.53,269.65,490.7,269.65,484.8Z" transform="translate(-107.55 -90.17)"/><circle class="cls-4" cx="158.01" cy="222.81" r="19.24"/><circle class="cls-4" cx="158.01" cy="399.28" r="19.24"/><path class="cls-8" d="M289.64,633.59h0a13,13,0,0,1-12.95-13h0a13,13,0,0,1,12.95-12.95h0a13,13,0,0,1,12.95,12.95h0A13,13,0,0,1,289.64,633.59Z" transform="translate(-107.55 -90.17)"/></g></g><g id="Characters"><g id="Woman"><path id="Arm" class="cls-9" d="M693.25,476.44c33.65-37.87,107.3-117.57,137.57-158,1.59-2.12,3.21-4.36,3.53-6.95.4-3.28-1.34-6.4-2.76-9.41a54.09,54.09,0,0,1-5.2-22.65c0-3.86.41-7.92,2.68-11.11s6.8-5.09,10.37-3.4A82.48,82.48,0,0,0,846,301.64q4.82-7.63,9.62-15.27c3.26,17-10.67,31.91-18.13,47.6-3.78,7.95-52.41,63.63-57.43,70.91-28,40.47-35.17,55.66-63,80.93-7.38,6.7-15,13.57-24.45,17.09s-21.22,3-28.38-4Z" transform="translate(-107.55 -90.17)"/><g id="Leg"><path class="cls-9" d="M1049.11,717.43l28,55.12-18.21,12.5-25.7-59.48S1042.28,717.38,1049.11,717.43Z" transform="translate(-107.55 -90.17)"/><path class="cls-7" d="M1160,800s-15.73,4.9-45.87,6.78-70.26-1.82-77.35-4.34c-10.79-3.83-2.51-37,7.53-36.94s13.93,13.7,31.67,1.7c15.18-10.28,27.28,9.39,53.69,14.81S1166.75,789.61,1160,800Z" transform="translate(-107.55 -90.17)"/><path class="cls-8" d="M989.47,692.24c3.44,8,5.9,16.43,10.06,24.08,5.84,10.75,15.29,21.23,13.37,33.31-.71,4.52-2.51,10.36,1.4,12.74,2.92,1.78,6.71-.26,9-2.8,4.92-5.52,7.14-13.85,13.84-17,6-2.79,13.1-.23,19.58-1.47,10.88-2.07,17.74-14.24,28.67-16.14-.22-3.08-4-4.26-6.79-5.51-6-2.65-9.76-8.47-13.21-14-12.42-19.92-24.59-40.13-33.26-61.92-1.84-4.6-3.52-9.3-6.18-13.47a53.62,53.62,0,0,0-8.62-10A129.78,129.78,0,0,0,996.53,604c-10.1-6.3-23.74-11.79-35.07-5.31-9,5.13-16.35,18.3-14.63,28.7,1.92,11.64,13.15,20.92,20.23,29.56C975.91,667.79,983.94,679.37,989.47,692.24Z" transform="translate(-107.55 -90.17)"/></g><g id="Leg-2" data-name="Leg"><path class="cls-9" d="M1118.29,604.07l66,8.11-.49,22.74-68.33-12.62S1114,609.83,1118.29,604.07Z" transform="translate(-107.55 -90.17)"/><path class="cls-7" d="M1232.28,536.69s.65,17-5.9,47.42-15.19,63.87-21.29,68.63-44.06-2.18-41.16-12.09,18.11-9.63,10.67-30.8c-6.37-18.14,17.43-24.13,30.48-48.62S1223.41,526.83,1232.28,536.69Z" transform="translate(-107.55 -90.17)"/><path class="cls-10" d="M825.7,636.76c-18.36,6.14-24.83,24.83-30.88,43.23a142.29,142.29,0,0,0-7.08,41.37c-.18,7.94.77,16.84,6.81,22,3.34,2.83,7.74,4,12.07,4.77,31.13,5.25,62.43-11,85-33.08s38.7-49.74,57.94-74.77C958.13,629.1,969,617.58,983,616.72c16-1,28.92,12,43.28,19,15.4,7.58,32.54,11.94,49.47,14.42,17.47,2.56,27.14,3.52,43.9,10.23,6.54,2.61,13.45,12.15,19.56,13.87,18.29,5.15,6.16-4.73,8.73-9.43,3.3-6,6.07-16,4.43-21.67a98,98,0,0,1-3.58-30.71c.25-6.51,5.66-11.14,8.71-16.65,6.1-13.31-33.41-7.9-49.7-8.59-19-.79-37.67-5.22-56-10.36q-30.81-8.65-60.77-20.06c-14.45-5.49-29.68-11.58-44.9-8.92-20.79,3.64-35,22.09-50,37-17.36,17.24-28.76,26.87-51.38,36.18" transform="translate(-107.55 -90.17)"/></g><g id="Head"><path id="Neck" class="cls-11" d="M639.35,462.39l10.52,33.12,28.29,6.22-8.5-13.87s-13.92-23.09-8.89-37.63S639.35,462.39,639.35,462.39Z" transform="translate(-107.55 -90.17)"/><path id="Face" class="cls-9" d="M647.66,362.87c7.47,1.62,20.06,9.9,22.33,17.2,1.5,4.83,3.07,10,6.29,14,4.1,5.13,9.9,7.57,15.27,11s-2.09,4.81-4.39,8c-2.57,3.53-2.76,7.54-3.12,11.95-.75,9.07,1.22,26.17-4.27,33.68-7.39,10.12-34.77,6-43.64,1.05-1.76-1-22.15-12-21.68-13.17Z" transform="translate(-107.55 -90.17)"/><g id="Hair"><path class="cls-8" d="M599.23,370c1.52-2,.14-4.82.32-7.32.23-3.2,3-5.57,5.68-7.36a76.92,76.92,0,0,1,50.4-12.62c7,.72,5.17,2.46,11.16,6.18,7.65,4.74,17.22,22.26,6,29.33-11.84,7.47-25.85-.36-14,1.42-6.91-1-10.19,4.86-13.93,10.51-14.3,21.57-12.88,48.31-5.47,72.26-39.58-10.89-64-40.55-53.84-71.91,4.38-13.5,15.15-32.88,3.43-45.57-7.38-8-19.51-9.39-30.32-8.3-10.44,1.05-21.18,4.25-28.47,11.81-11.43,11.88-11.08,31.06-5.54,46.59s15.3,29.26,21,44.74c4.55,12.45,4.69,29.46-7,35.65-10.57,5.56-23-1.49-34.28-5.24-14.21-4.7-31.29-3.48-42.23,6.7s-12.28,30.37-.35,39.4a18.43,18.43,0,0,0,8.86,33.23c10,1.09,19.77-6,29.7-4.27,5.58,1,10.25,4.65,15.36,7.09s11.82,3.46,16-.37c2.32-2.12,3.34-5.27,4.69-8.1,7.18-15,24.78-22.35,33.44-36.53,16.78-27.5-.49-69.48-2.51-98.82-.67-9.64.19-20.65,7.64-26.81,6.79-5.6,14.92-9.85,22.38-14.51C597.9,368.11,598.57,369.05,599.23,370Z" transform="translate(-107.55 -90.17)"/></g><path id="Ear" class="cls-9" d="M638.29,420.35s-17-4.48-15.32,8.59,18,15,18,15l-4.15-15.28Z" transform="translate(-107.55 -90.17)"/><path id="Decoration" class="cls-4" d="M602.64,357.3s4.17,2.21,1.58,8.48-15,20.65-15.63,16.25-9.52-.8-5.46-7.09,3.14-4.19,7.63-11.37c4.31-6.89-.6-9.83,1.94-12.68C597.17,345.93,600.59,354.77,602.64,357.3Z" transform="translate(-107.55 -90.17)"/></g><path id="Body" class="cls-4" d="M686.33,487.4c23.6,6.72,20.47,8.1,38.29,25,15.13,14.34,35.43,46.59,43.27,65.91,5,12.2,20.06,23.83,26.94,35.09,5.71,9.33,21.5,6,26.82,15.57a11.67,11.67,0,0,0,2.81,3.76c2.24,1.73-3.5,5.15-.81,6,3.21,1.08,11.3,14.57,13.05,17.48,3.41,5.72-1-.31-1.39,6.38-.51,9,2,11.63-2.56,18.2-5.71,8.25-8.08,18.26-10.36,27.88-1.95,8.2-2.75,19.18-8.83,25.4-5.93,6.08-15.14,7.85-23.6,7.17a65.85,65.85,0,0,1-44.38-23.33c-12.82-15.77-14.33-36.54-24.62-53.48-9.43-15.52-23.66-27.13-34.33-41.68-11.18-15.24-18.32-32.86-25.46-50.24-8.18-19.93-18.78-37.84-17.11-60.19.75-10.1,3.33-20.55,10.14-28S676.6,484.62,686.33,487.4Z" transform="translate(-107.55 -90.17)"/><g id="Arm-2" data-name="Arm"><path class="cls-9" d="M823.9,637.6c7.84-3.2,19.94-14.28,24.52-18.66-4.75,1.91-8.28,5.73-13.75,4.16-7.93-2.25-15.84-4.51-23.73-6.86-73.8-29.56-100.72-78.64-100.72-78.64s9.69,10.39-18.86-15.53-20.72-3.31-20.72-3.31,21.1,32.43,55.08,69,78.4,45.16,78.4,45.16c5.6,1.47,11.23,2.88,16.84,4.05C822,637.14,822.94,637.36,823.9,637.6Z" transform="translate(-107.55 -90.17)"/><path class="cls-12" d="M720.23,527s-41.57-61.45-59.92-36.36,39.29,84,39.29,84L729.13,533Z" transform="translate(-107.55 -90.17)"/></g></g></g><g id="UI-2" data-name="UI"><g id="Shopping_bag" data-name="Shopping bag"><path class="cls-1" d="M844.92,324.24l-1.7-4.11c-4-9.81-5-20.26-2.76-29.41,2.4-9.66,8.06-16.75,16-20,15.82-6.52,35.65,5,44.2,25.77l1.69,4.1Zm21-46.52a15.66,15.66,0,0,0-6.11,1.2c-5.23,2.15-9,7.11-10.73,13.94a37.51,37.51,0,0,0,.85,19.71l40.58-16.72C884.64,284.75,874.9,277.72,865.93,277.72Z" transform="translate(-107.55 -90.17)"/><path class="cls-6" d="M843.5,311.6c-9.41,3.87-14.63,13.07-11.6,20.41l22.69,100.56c3,7.35,13.21,10.19,22.62,6.32l69.65-28.71-68.42-113Z" transform="translate(-107.55 -90.17)"/><path class="cls-7" d="M966.8,386.34,914.36,298c-3-7.35-13.21-10.19-22.62-6.32l-13.31,5.49,68.42,113,8.34-3.43C964.61,402.87,969.83,393.68,966.8,386.34Z" transform="translate(-107.55 -90.17)"/></g><g id="Element"><path class="cls-1" d="M691.88,111.07h-120a6.71,6.71,0,0,1-6.7-6.69V96.86a6.7,6.7,0,0,1,6.7-6.69h120a6.7,6.7,0,0,1,6.69,6.69v7.52A6.71,6.71,0,0,1,691.88,111.07Z" transform="translate(-107.55 -90.17)"/><path class="cls-1" d="M691.88,146.55h-120a6.71,6.71,0,0,1-6.7-6.69v-7.52a6.71,6.71,0,0,1,6.7-6.7h120a6.71,6.71,0,0,1,6.69,6.7v7.52A6.71,6.71,0,0,1,691.88,146.55Z" transform="translate(-107.55 -90.17)"/><path class="cls-1" d="M691.88,182h-120a6.71,6.71,0,0,1-6.7-6.69v-7.52a6.71,6.71,0,0,1,6.7-6.7h120a6.71,6.71,0,0,1,6.69,6.7v7.52A6.71,6.71,0,0,1,691.88,182Z" transform="translate(-107.55 -90.17)"/><path class="cls-1" d="M691.88,217.51h-120a6.71,6.71,0,0,1-6.7-6.69v-7.53a6.71,6.71,0,0,1,6.7-6.69h120a6.71,6.71,0,0,1,6.69,6.69v7.53A6.71,6.71,0,0,1,691.88,217.51Z" transform="translate(-107.55 -90.17)"/></g><g id="Shopping_Cart" data-name="Shopping Cart"><path class="cls-1" d="M548.72,744.7h0a27.35,27.35,0,0,1-27.27-27.27h0a27.35,27.35,0,0,1,27.27-27.27h0A27.35,27.35,0,0,1,576,717.43h0A27.35,27.35,0,0,1,548.72,744.7Z" transform="translate(-107.55 -90.17)"/><path class="cls-1" d="M569.92,686.6a25.68,25.68,0,0,1-9-1.72,36.79,36.79,0,0,1-17.4-14.49l-2.43-3.72L581.6,640.2l2.43,3.72c9.46,14.47,8.05,32.18-3.12,39.47A19.82,19.82,0,0,1,569.92,686.6Zm-16.3-17.52A26.23,26.23,0,0,0,564,676.56c4.53,1.71,8.81,1.5,12-.6,6.09-4,7-14,2.71-23.3Z" transform="translate(-107.55 -90.17)"/><path class="cls-3" d="M584.07,650.81c6.32-4.13,8.86-11.56,5.64-16.5l-30.49-70.24c-3.23-4.94-11-5.6-17.38-1.46L495,593.2l65.58,73Z" transform="translate(-107.55 -90.17)"/><path class="cls-5" d="M483.73,613.35l50.5,57.17c3.23,4.94,11,5.6,17.38,1.47l9-5.84-65.58-73-5.61,3.66C483.05,601,480.51,608.41,483.73,613.35Z" transform="translate(-107.55 -90.17)"/><path class="cls-1" d="M584.84,586.32l-1.29-4.24c-3.09-10.15-3.08-20.65,0-29.54,3.3-9.37,9.62-15.91,17.8-18.41s17.07-.59,25,5.35c7.55,5.64,13.41,14.35,16.5,24.5l1.29,4.24ZM608.53,542a15.52,15.52,0,0,0-4.55.67c-5.41,1.65-9.68,6.22-12,12.85a37.69,37.69,0,0,0-1,19.7l42-12.79a37.59,37.59,0,0,0-11.84-15.79A21.27,21.27,0,0,0,608.53,542Z" transform="translate(-107.55 -90.17)"/><path class="cls-6" d="M584.63,573.6c-9.74,3-15.81,11.61-13.5,19.21l13,102.27c2.32,7.6,12.17,11.39,21.91,8.43l72.07-22-57.38-119Z" transform="translate(-107.55 -90.17)"/><path class="cls-7" d="M700.28,659.72l-43.82-92.9c-2.32-7.6-12.18-11.39-21.92-8.43l-13.77,4.19,57.38,119,8.62-2.63C696.52,676,702.59,667.31,700.28,659.72Z" transform="translate(-107.55 -90.17)"/><path class="cls-7" d="M745.88,802.9H556.78a27.35,27.35,0,0,1-27.27-27.27h0a27.35,27.35,0,0,1,27.27-27.27h189.1a27.35,27.35,0,0,1,27.27,27.27h0A27.35,27.35,0,0,1,745.88,802.9Z" transform="translate(-107.55 -90.17)"/><path class="cls-5" d="M693,742.08H609.68a27.35,27.35,0,0,1-27.27-27.27h0a27.35,27.35,0,0,1,27.27-27.27H693a27.35,27.35,0,0,1,27.27,27.27h0A27.34,27.34,0,0,1,693,742.08Z" transform="translate(-107.55 -90.17)"/><path class="cls-3" d="M872.94,802H815a27.36,27.36,0,0,1-27.27-27.27h0A27.35,27.35,0,0,1,815,747.5h58a27.35,27.35,0,0,1,27.27,27.27h0A27.34,27.34,0,0,1,872.94,802Z" transform="translate(-107.55 -90.17)"/><g id="Shoping_Cart" data-name="Shoping Cart"><circle class="cls-8" cx="530.56" cy="940.85" r="28.58"/><circle class="cls-1" cx="530.56" cy="940.85" r="20.21"/><circle class="cls-8" cx="733.07" cy="940.85" r="28.58"/><circle class="cls-1" cx="733.07" cy="940.85" r="20.21"/><path class="cls-8" d="M609.29,993.55c-4.46,0-54.66-.91-64.87-41-3.83-15-12.31-61.41-22.12-115.13-13.89-76-32.93-180.19-38.92-191.57C474.19,628.4,466.23,625,436.3,625.5c-30.1.5-141.2,0-142.33,0l0-8.87c1.11,0,112.11.55,142.13,0,30.64-.5,43.54,3.19,55.08,25.08,6.15,11.68,20.38,87.81,39.8,194.1,9.79,53.55,18.25,99.8,22,114.53,8.77,34.44,56,34.32,56.47,34.35H900.23v8.87H609.29Z" transform="translate(-107.55 -90.17)"/><polygon class="cls-8" points="803.39 719.33 414.3 719.33 414.3 710.46 796.53 710.46 835.57 561.13 380.99 561.13 380.99 552.26 847.07 552.26 803.39 719.33"/><rect class="cls-8" x="613.14" y="644.17" width="8.87" height="163.43" transform="translate(-270.1 88.25) rotate(-14.55)"/><rect class="cls-8" x="606.71" y="556.7" width="8.87" height="155.17"/><rect class="cls-8" x="738.67" y="721.48" width="163.44" height="8.87" transform="translate(-195.75 1247.68) rotate(-75.46)"/><rect class="cls-8" x="394.68" y="605.17" width="429.74" height="8.87"/><rect class="cls-8" x="404.92" y="658.44" width="408.64" height="8.87"/></g></g></g></svg>