<svg id="illustration" xmlns="http://www.w3.org/2000/svg" xmlns:xlink="http://www.w3.org/1999/xlink" viewBox="0 0 707.4 519.47"><defs><style>.cls-1,.cls-12,.cls-13,.cls-15,.cls-17,.cls-19,.cls-4,.cls-6{fill:none;}.cls-2{fill:#eaf9f3;}.cls-3{clip-path:url(#clip-path);}.cls-4,.cls-6{stroke:#b8d8c7;}.cls-12,.cls-13,.cls-15,.cls-17,.cls-19,.cls-4,.cls-6{stroke-linecap:round;stroke-linejoin:round;}.cls-12,.cls-13,.cls-15,.cls-17,.cls-19,.cls-4{stroke-width:1.8px;}.cls-5{fill:#b8d8c7;}.cls-6{stroke-width:1.8px;}.cls-7{fill:#b0d7c0;}.cls-8{fill:#6dafa7;}.cls-9{fill:#ffe779;}.cls-10{fill:#22272e;}.cls-11{fill:#63737a;}.cls-12{stroke:#63737a;}.cls-13{stroke:#ffe779;}.cls-14{fill:#f4c2c9;}.cls-15{stroke:#e26e85;}.cls-16{fill:#fff;}.cls-17{stroke:#6dafa7;}.cls-18{fill:#f8ab5d;}.cls-19{stroke:#22272e;}.cls-20{clip-path:url(#clip-path-3);}.cls-21{fill:#e26e85;}</style><clipPath id="clip-path" transform="translate(-151.5 -166.03)"><path class="cls-1" d="M766.3,602l-520-14.9a48.07,48.07,0,0,1-46.5-43.3l-25.1-248A48.17,48.17,0,0,1,217.81,243c1.36-.14,2.72-.22,4.09-.24l578.8-8a48.19,48.19,0,0,1,48.5,54.1L815.5,559.8A48.28,48.28,0,0,1,766.3,602Z"/></clipPath><clipPath id="clip-path-3" transform="translate(-151.5 -166.03)"><path class="cls-1" d="M495,351.5s-21.6,1.2-34.2,5.7-10.3,14.5-11.9,25-11.9,21.2-6.7,35.5,10.3,22.4,7.6,33.4-5.2,16.5-4.8,19.6,14.8,12.6,20.3,14.5,16.2-5.7,16.2-5.7,5.5,7.2,13.5,8.8,40.4-6.7,47.8-15a51.88,51.88,0,0,1-5-20.5c-.2-11.2,6.3-25.1,8.7-32.8s15.9-37.4,10.6-47.3C553.3,365.6,524.9,349.6,495,351.5Z"/></clipPath></defs><path class="cls-2" d="M766.3,602l-520-14.9a48.07,48.07,0,0,1-46.5-43.3l-25.1-248A48.17,48.17,0,0,1,217.81,243c1.36-.14,2.72-.22,4.09-.24l578.8-8a48.19,48.19,0,0,1,48.5,54.1L815.5,559.8A48.28,48.28,0,0,1,766.3,602Z" transform="translate(-151.5 -166.03)"/><g class="cls-3"><path class="cls-4" d="M350.76,592H180.6c-3.4,0-6.15-5.33-6.15-11.89V393.19c0-6.56,2.75-11.89,6.15-11.89H350.76c3.39,0,6.14,5.33,6.14,11.89V580.11C356.9,586.67,354.15,592,350.76,592Z" transform="translate(-151.5 -166.03)"/><path class="cls-4" d="M844.6,602H470.3a13.62,13.62,0,0,1-13.4-13.83V270.73a13.62,13.62,0,0,1,13.4-13.83H844.6A13.62,13.62,0,0,1,858,270.73V588.19A13.62,13.62,0,0,1,844.6,602Z" transform="translate(-151.5 -166.03)"/><path class="cls-4" d="M242.3,311H152.4v-8.9h89.9a1.79,1.79,0,0,1,1.8,1.78v5.22a1.83,1.83,0,0,1-1.74,1.9Z" transform="translate(-151.5 -166.03)"/><path class="cls-4" d="M226,302.1H205.7a4.32,4.32,0,0,1-4.3-3.8l-1.6-14.4a4.33,4.33,0,0,1,3.83-4.77,3.71,3.71,0,0,1,.47,0h23.5a4.34,4.34,0,0,1,4.32,4.36,3.31,3.31,0,0,1,0,.44l-1.6,14.4A4.41,4.41,0,0,1,226,302.1Z" transform="translate(-151.5 -166.03)"/><path class="cls-5" d="M213.4,279.1s-8-.8-9.6-11.6c0,0,7.2,2.1,9.5,7.2,0,0,1-11.4,6.4-12.5,0,0,2.4,8.5-1.4,12.7,0,0,2.9-4.8,10.3-4.7a13.59,13.59,0,0,1-9.2,8.8" transform="translate(-151.5 -166.03)"/><path class="cls-4" d="M338.7,431.1H248.5a4.24,4.24,0,0,1-4.2-4.2V399.5a4.24,4.24,0,0,1,4.2-4.2h90.2a4.24,4.24,0,0,1,4.2,4.2v27.4a4.1,4.1,0,0,1-4,4.2Z" transform="translate(-151.5 -166.03)"/><path class="cls-5" d="M304,404.9H283.2a1.54,1.54,0,0,1-1.5-1.5h0a1.54,1.54,0,0,1,1.5-1.5H304a1.54,1.54,0,0,1,1.5,1.5h0A1.54,1.54,0,0,1,304,404.9Z" transform="translate(-151.5 -166.03)"/><path class="cls-4" d="M338.7,476.9H248.5a4.24,4.24,0,0,1-4.2-4.2V445.3a4.24,4.24,0,0,1,4.2-4.2h90.2a4.24,4.24,0,0,1,4.2,4.2v27.4a4.1,4.1,0,0,1-4,4.2Z" transform="translate(-151.5 -166.03)"/><path class="cls-5" d="M304,450.7H283.2a1.54,1.54,0,0,1-1.5-1.5h0a1.54,1.54,0,0,1,1.5-1.5H304a1.54,1.54,0,0,1,1.5,1.5h0a1.47,1.47,0,0,1-1.44,1.5Z" transform="translate(-151.5 -166.03)"/><path class="cls-4" d="M801.9,509.2H711.7a4.24,4.24,0,0,1-4.2-4.2V477.6a4.24,4.24,0,0,1,4.2-4.2h90.2a4.24,4.24,0,0,1,4.2,4.2V505a4.1,4.1,0,0,1-4,4.2Z" transform="translate(-151.5 -166.03)"/><path class="cls-5" d="M767.2,483.1H746.4a1.54,1.54,0,0,1-1.5-1.5h0a1.54,1.54,0,0,1,1.5-1.5h20.8a1.54,1.54,0,0,1,1.5,1.5h0A1.54,1.54,0,0,1,767.2,483.1Z" transform="translate(-151.5 -166.03)"/><path class="cls-4" d="M686.1,509.2H595.9a4.24,4.24,0,0,1-4.2-4.2V477.6a4.24,4.24,0,0,1,4.2-4.2h90.2a4.24,4.24,0,0,1,4.2,4.2V505A4.24,4.24,0,0,1,686.1,509.2Z" transform="translate(-151.5 -166.03)"/><path class="cls-5" d="M651.4,483.1H630.6a1.54,1.54,0,0,1-1.5-1.5h0a1.54,1.54,0,0,1,1.5-1.5h20.8a1.54,1.54,0,0,1,1.5,1.5h0A1.54,1.54,0,0,1,651.4,483.1Z" transform="translate(-151.5 -166.03)"/><path class="cls-4" d="M226,431.1H184c-1.08,0-2-1.89-2-4.2V399.5c0-2.31.88-4.18,2-4.2h42c1.07,0,1.94,1.89,2,4.2v27.4c0,2.26-.81,4.14-1.86,4.2Z" transform="translate(-151.5 -166.03)"/><path class="cls-5" d="M189,404.9H168.2a1.54,1.54,0,0,1-1.5-1.5h0a1.54,1.54,0,0,1,1.5-1.5H189a1.54,1.54,0,0,1,1.5,1.5h0a1.47,1.47,0,0,1-1.44,1.5Z" transform="translate(-151.5 -166.03)"/><path class="cls-4" d="M226.07,476.9H186.83c-1,0-1.82-1.89-1.83-4.2V445.3c0-2.31.82-4.18,1.83-4.2h39.24c1,0,1.82,1.89,1.83,4.2v27.4c0,2.26-.75,4.14-1.74,4.2Z" transform="translate(-151.5 -166.03)"/><path class="cls-5" d="M189,450.7H168.2a1.54,1.54,0,0,1-1.5-1.5h0a1.54,1.54,0,0,1,1.5-1.5H189a1.54,1.54,0,0,1,1.5,1.5h0a1.42,1.42,0,0,1-1.34,1.5Z" transform="translate(-151.5 -166.03)"/><path class="cls-4" d="M850.23,361.7H477.37c-2.07,0-3.75-2.07-3.77-4.6V277.4c0-2.53,1.7-4.57,3.77-4.6H850.23c2.07,0,3.75,2.07,3.77,4.6v79.7c0,2.53-1.68,4.59-3.75,4.6Z" transform="translate(-151.5 -166.03)"/><path class="cls-4" d="M840.33,460.6H477.27c-2,0-3.65-2.07-3.67-4.6V376.3c0-2.53,1.65-4.57,3.67-4.6H840.33c2,0,3.65,2.07,3.67,4.6V456c0,2.5-1.56,4.56-3.56,4.6Z" transform="translate(-151.5 -166.03)"/><rect class="cls-4" x="352.8" y="145.37" width="9.9" height="50.3"/><rect class="cls-4" x="362.6" y="159.07" width="10.3" height="36.6"/><rect class="cls-4" x="651.1" y="244.17" width="9.9" height="50.3"/><rect class="cls-4" x="661" y="257.87" width="10.3" height="36.6"/><rect class="cls-4" x="631" y="244.17" width="9.9" height="50.3"/><rect class="cls-6" x="745.16" y="429.57" width="50.3" height="9.9" transform="translate(-27.45 872.26) rotate(-72.48)"/><rect class="cls-4" x="640.9" y="257.87" width="10.3" height="36.6"/><rect class="cls-4" x="517.6" y="145.37" width="9.9" height="50.3"/><rect class="cls-4" x="527.5" y="159.07" width="10.3" height="36.6"/><rect class="cls-4" x="419.8" y="145.37" width="9.9" height="50.3"/><rect class="cls-6" x="533.97" y="330.77" width="50.3" height="9.9" transform="translate(-80.85 601.81) rotate(-72.48)"/><rect class="cls-4" x="429.7" y="159.07" width="10.3" height="36.6"/><path class="cls-5" d="M812.4,318l1.1-14.9a1.64,1.64,0,0,0-1.49-1.79H803.2a1.7,1.7,0,0,0-1.7,1.72v.08l1.1,14.9s-9,5.8-8.9,10.6c.1,3.7,2.3,21.4,3.3,29.2a4.32,4.32,0,0,0,4.3,3.8h12.4a4.32,4.32,0,0,0,4.3-3.8c1-7.8,3.2-25.5,3.3-29.2C821.4,323.7,812.4,318,812.4,318Z" transform="translate(-151.5 -166.03)"/><path class="cls-5" d="M772.5,318l1.1-14.9a1.64,1.64,0,0,0-1.49-1.79H763.3a1.7,1.7,0,0,0-1.7,1.72v.08l1.1,14.9s-9,5.8-8.9,10.6c.1,3.7,2.3,21.4,3.3,29.2a4.32,4.32,0,0,0,4.3,3.8h12.4a4.32,4.32,0,0,0,4.3-3.8c1-7.8,3.2-25.5,3.3-29.2C781.5,323.7,772.5,318,772.5,318Z" transform="translate(-151.5 -166.03)"/><line class="cls-4" x1="33.5" y1="388.97" x2="675.5" y2="388.97"/></g><g class="cls-3"><polygon class="cls-7" points="109.6 399.17 109.6 519.47 117.7 519.47 120.3 399.17 109.6 399.17"/><polygon class="cls-8" points="120.3 399.17 109.6 399.17 109.6 412.27 120 412.27 120.3 399.17"/><polygon class="cls-7" points="590.1 399.17 590.1 519.47 581.9 519.47 579.4 399.17 590.1 399.17"/><polygon class="cls-8" points="579.4 399.17 590.1 399.17 590.1 412.27 579.7 412.27 579.4 399.17"/><polygon class="cls-9" points="624.7 394.27 75 394.27 133.5 368.67 566.1 368.67 624.7 394.27"/><rect class="cls-7" x="75" y="394.27" width="549.7" height="7.7"/></g><path class="cls-10" d="M291.4,501.4l-12.7,7.3a4,4,0,0,1-5.47-1.45l0-.05-36.4-62.8a4,4,0,0,1,1.45-5.47l.05,0,12.7-7.3a4,4,0,0,1,5.47,1.45l0,.05,36.4,62.8A4.08,4.08,0,0,1,291.4,501.4Z" transform="translate(-151.5 -166.03)"/><path class="cls-11" d="M282.5,492.5A4,4,0,1,0,281,498,4.08,4.08,0,0,0,282.5,492.5Z" transform="translate(-151.5 -166.03)"/><line class="cls-12" x1="114.3" y1="316.47" x2="123.6" y2="311.07"/><line class="cls-12" x1="111.7" y1="312.07" x2="121.1" y2="306.67"/><path class="cls-9" d="M310.6,458.5l-8.2,34.7c-.3,1,4.5,3.5,10.9,5.7s11.8,3.2,12.1,2.3l15.1-32.3Z" transform="translate(-151.5 -166.03)"/><path class="cls-13" d="M332.7,477.6l5.6,1.9a4.26,4.26,0,0,1,2.65,5.41,4.35,4.35,0,0,1-.25.59l-4.7,9a4.24,4.24,0,0,1-5.2,2l-6.1-2.1" transform="translate(-151.5 -166.03)"/><path class="cls-8" d="M340.5,469c-.4,1.2-7.5-.1-15.7-3s-14.6-6.2-14.2-7.5,7.5.1,15.7,3S340.9,467.7,340.5,469Z" transform="translate(-151.5 -166.03)"/><path class="cls-11" d="M393.7,288.8,279,319.2a7,7,0,0,1-8.59-4.91,6.77,6.77,0,0,1-.21-1.09L255.9,189.5a4.74,4.74,0,0,1,4.13-5.28,4.5,4.5,0,0,1,1,0l116.6,8.1a7,7,0,0,1,6.5,6l13,85.2A4.65,4.65,0,0,1,393.7,288.8Z" transform="translate(-151.5 -166.03)"/><path class="cls-10" d="M399,289.2,283.1,319.9a7.16,7.16,0,0,1-8.72-5.14,8.1,8.1,0,0,1-.18-1l-14.4-125a4.88,4.88,0,0,1,4.34-5.38,4.94,4.94,0,0,1,.86,0l117.9,8.1a7.13,7.13,0,0,1,6.6,6l13.2,86.1A5.27,5.27,0,0,1,399,289.2Z" transform="translate(-151.5 -166.03)"/><path class="cls-8" d="M308.3,207.1l-28.3-.4a1.09,1.09,0,0,1-1.1-1l-.4-3.2a1.15,1.15,0,0,1,1-1.29h.09l28.4.8a1.09,1.09,0,0,1,1.1,1l.4,2.9A1.22,1.22,0,0,1,308.3,207.1Z" transform="translate(-151.5 -166.03)"/><line class="cls-12" x1="128.8" y1="51.67" x2="183.6" y2="50.97"/><line class="cls-12" x1="130.2" y1="62.77" x2="164.9" y2="61.37"/><path class="cls-9" d="M294.7,297.2l-3.3.7a1.22,1.22,0,0,1-1.47-.88,1.66,1.66,0,0,1,0-.22l-3.3-27.7a1.25,1.25,0,0,1,1.06-1.4h0l3.3-.5a1.25,1.25,0,0,1,1.4,1.06v0l3.4,27.5A1.52,1.52,0,0,1,294.7,297.2Z" transform="translate(-151.5 -166.03)"/><path class="cls-8" d="M306.4,293.3l-5.5-44a1.25,1.25,0,0,1,1.06-1.4h0l2.8-.3a1.11,1.11,0,0,1,1.28.9,1.36,1.36,0,0,1,0,.2l5.5,43.6a1.28,1.28,0,0,1-1,1.4l-2.9.6C307.2,294.5,306.5,294,306.4,293.3Z" transform="translate(-151.5 -166.03)"/><path class="cls-9" d="M321.7,290l-2.1-16.2a1.25,1.25,0,0,1,1-1.4l2.4-.4a1.25,1.25,0,0,1,1.4,1.06v0l2.1,16.1a1.28,1.28,0,0,1-1,1.4l-2.4.5a1.18,1.18,0,0,1-1.38-1A.68.68,0,0,1,321.7,290Z" transform="translate(-151.5 -166.03)"/><path class="cls-14" d="M339.3,287.6l-2.1.4a1.2,1.2,0,0,1-1.47-.85l0-.15-1.2-8.7a1.25,1.25,0,0,1,1-1.4l2.1-.4a1.18,1.18,0,0,1,1.38,1,.68.68,0,0,1,0,.14l1.2,8.7A1.14,1.14,0,0,1,339.3,287.6Z" transform="translate(-151.5 -166.03)"/><path class="cls-8" d="M380.1,275.5l-8.6-19.3,7.4-17.1c3.4,3.6,5.9,9,6.9,15.1C386.9,262.9,384.6,271.2,380.1,275.5Z" transform="translate(-151.5 -166.03)"/><path class="cls-14" d="M378.8,239.1l-7.4,17.1-14.5-11.6c2.1-5.9,6.2-10,11.3-10.3C372,234,375.8,235.8,378.8,239.1Z" transform="translate(-151.5 -166.03)"/><path class="cls-9" d="M380.1,275.5a11,11,0,0,1-5.4,2.9c-8.4,1.8-17.1-7.2-18.9-20.1a30.87,30.87,0,0,1,1.1-13.8l14.5,11.6Z" transform="translate(-151.5 -166.03)"/><path class="cls-9" d="M477,190.3A230.52,230.52,0,0,0,491.4,214a4.87,4.87,0,0,0,6.78,1.28l.12-.08a119.37,119.37,0,0,1,14.7-8.5,5.44,5.44,0,0,0,2.6-6.9c-2.7-6.3-5.5-14.7-7.8-22.1a16.62,16.62,0,0,0-23.3-9.9h0a16.54,16.54,0,0,0-7.72,22.07Z" transform="translate(-151.5 -166.03)"/><path class="cls-14" d="M510.2,201.2a4.32,4.32,0,0,1,3.7,1.8,37.76,37.76,0,0,0,7.8,8.5c4.7,3.3,21.8,6.2,23.2,8.7s-2.7,3.3-5.5,3-5.2-.6-5.8.6.2,6.2,4.1,9.7,10.9,7.2,11.2,10.4-7.6.1-11.1-2.1a37.76,37.76,0,0,0-4.5-2.6s-.5,1-3.3,2c-1.6.5-3.3-.8-4.8-.5s-8.2,3.7-11.4,2.1c-2.3-1.2-7.4-12.8-9.9-15.9-1.8-2.3-6.1-8.9-8.2-12.2a4.12,4.12,0,0,1-.1-4.4A16.75,16.75,0,0,1,510.2,201.2Z" transform="translate(-151.5 -166.03)"/><path class="cls-15" d="M533.2,239.3a29.43,29.43,0,0,1-5.5-3.6,10.87,10.87,0,0,1-1.6-2.2" transform="translate(-151.5 -166.03)"/><path class="cls-15" d="M525.1,240.7a21.43,21.43,0,0,1-3.3-1.7,17.71,17.71,0,0,1-2.2-2.9" transform="translate(-151.5 -166.03)"/><path class="cls-15" d="M519.3,242.7a10.81,10.81,0,0,1-2.8-1.6,25.23,25.23,0,0,1-2.1-2.4" transform="translate(-151.5 -166.03)"/><path class="cls-8" d="M444,269.4a.83.83,0,0,1,1-.58.85.85,0,0,1,.58.58,11.36,11.36,0,0,0,1.8,3.8,12.41,12.41,0,0,0,3.8,1.8.83.83,0,0,1,.58,1,.85.85,0,0,1-.58.58,11.36,11.36,0,0,0-3.8,1.8,12.41,12.41,0,0,0-1.8,3.8.83.83,0,0,1-1,.58.85.85,0,0,1-.58-.58,11.36,11.36,0,0,0-1.8-3.8,12.41,12.41,0,0,0-3.8-1.8.83.83,0,0,1-.58-1,.85.85,0,0,1,.58-.58,6.24,6.24,0,0,0,5.6-5.6Z" transform="translate(-151.5 -166.03)"/><path class="cls-8" d="M456.1,211.7a.64.64,0,0,1,.79-.41.62.62,0,0,1,.41.41,7.51,7.51,0,0,0,1.3,2.7,8.54,8.54,0,0,0,2.7,1.3.62.62,0,0,1,0,1.2,7.51,7.51,0,0,0-2.7,1.3,8.54,8.54,0,0,0-1.3,2.7.64.64,0,0,1-.79.41.62.62,0,0,1-.41-.41,7.51,7.51,0,0,0-1.3-2.7,8.54,8.54,0,0,0-2.7-1.3.62.62,0,0,1,0-1.2A4.55,4.55,0,0,0,456.1,211.7Z" transform="translate(-151.5 -166.03)"/><path class="cls-8" d="M550.8,261.4a.62.62,0,0,1,1.2,0,7.51,7.51,0,0,0,1.3,2.7,11.39,11.39,0,0,0,2.7,1.3.64.64,0,0,1,.41.79.62.62,0,0,1-.41.41,7.51,7.51,0,0,0-2.7,1.3,8.54,8.54,0,0,0-1.3,2.7.64.64,0,0,1-.79.41.62.62,0,0,1-.41-.41,7.51,7.51,0,0,0-1.3-2.7,8.54,8.54,0,0,0-2.7-1.3.64.64,0,0,1-.41-.79.62.62,0,0,1,.41-.41,7.51,7.51,0,0,0,2.7-1.3A6.12,6.12,0,0,0,550.8,261.4Z" transform="translate(-151.5 -166.03)"/><path class="cls-9" d="M466.2,244.3c.2-.5.8-.5.9,0a9.49,9.49,0,0,0,1,2.2,5,5,0,0,0,2.2,1c.5.2.5.8,0,.9a9.49,9.49,0,0,0-2.2,1,5,5,0,0,0-1,2.2c-.2.5-.8.5-.9,0a9.49,9.49,0,0,0-1-2.2,5,5,0,0,0-2.2-1c-.5-.2-.5-.8,0-.9a9.49,9.49,0,0,0,2.2-1A7.54,7.54,0,0,0,466.2,244.3Z" transform="translate(-151.5 -166.03)"/><path class="cls-9" d="M558.8,288.1a.83.83,0,0,1,1-.58.85.85,0,0,1,.58.58,11.36,11.36,0,0,0,1.8,3.8,12.41,12.41,0,0,0,3.8,1.8.83.83,0,0,1,.58,1,.85.85,0,0,1-.58.58,11.36,11.36,0,0,0-3.8,1.8,12.41,12.41,0,0,0-1.8,3.8.83.83,0,0,1-1,.58.85.85,0,0,1-.58-.58,11.36,11.36,0,0,0-1.8-3.8,12.41,12.41,0,0,0-3.8-1.8.83.83,0,0,1-.58-1,.85.85,0,0,1,.58-.58,11.36,11.36,0,0,0,3.8-1.8A13.67,13.67,0,0,0,558.8,288.1Z" transform="translate(-151.5 -166.03)"/><path class="cls-10" d="M727.8,268.2s-1.4,1.4,1.2,12a59.41,59.41,0,0,0,8.5,18.7,18.41,18.41,0,0,0,5.3-17.4C740.6,270.5,727.8,268.2,727.8,268.2Z" transform="translate(-151.5 -166.03)"/><path class="cls-14" d="M729.3,299.4s-2,.6-6.7,5.5S711,312.3,702.8,316s-12.2-13.5-10.1-22.2,11-14.7,11-14.7l17.5,2.4s5.8-6.9,8.1-2.4S731.3,293.7,729.3,299.4Z" transform="translate(-151.5 -166.03)"/><path class="cls-10" d="M714.3,331.3,654.7,345a4.83,4.83,0,0,1-5.8-3.59h0L632,268.2a4.83,4.83,0,0,1,3.59-5.8h0l59.6-13.7a4.83,4.83,0,0,1,5.8,3.59h0l16.8,73.2a4.68,4.68,0,0,1-3.3,5.75Z" transform="translate(-151.5 -166.03)"/><path class="cls-9" d="M689.2,269.7l-38.8,8.9a2.31,2.31,0,0,1-2.78-1.71s0-.06,0-.09h0a2.31,2.31,0,0,1,1.71-2.78l.09,0,38.8-8.9a2.31,2.31,0,0,1,2.78,1.71s0,.06,0,.09h0A2.53,2.53,0,0,1,689.2,269.7Z" transform="translate(-151.5 -166.03)"/><line class="cls-12" x1="498.8" y1="122.87" x2="542.2" y2="112.87"/><line class="cls-12" x1="500.5" y1="130.17" x2="543.9" y2="120.17"/><path class="cls-9" d="M677.9,325l-16,3.7a2.31,2.31,0,0,1-2.78-1.71s0-.06,0-.09l-3.7-16a2.31,2.31,0,0,1,1.71-2.78l.09,0,16-3.7a2.31,2.31,0,0,1,2.78,1.71s0,.06,0,.09l3.7,16A2.53,2.53,0,0,1,677.9,325Z" transform="translate(-151.5 -166.03)"/><line class="cls-12" x1="530.4" y1="136.27" x2="546.7" y2="132.47"/><line class="cls-12" x1="532.2" y1="144.17" x2="548.6" y2="140.47"/><line class="cls-12" x1="534" y1="152.17" x2="543.9" y2="149.87"/><path class="cls-8" d="M676.6,255.3l-21.2,4.9a2.11,2.11,0,0,1-2.5-2.5l.2-1a2.17,2.17,0,0,1,1.6-1.6l20.3-4.7a2.07,2.07,0,0,1,2.1.7l.6.8a2.09,2.09,0,0,1-.22,2.95A2.05,2.05,0,0,1,676.6,255.3Z" transform="translate(-151.5 -166.03)"/><path class="cls-14" d="M722.6,275.4s-2.5,1.3-7.3,0-5.6-2.5-10.6-3.8-11.9.1-13.1,2.2,2,3.4,6.3,3.9,6.3,8.7,13.2,11.8C722.6,294.6,732.8,279,722.6,275.4Z" transform="translate(-151.5 -166.03)"/><path class="cls-15" d="M691.6,273.8c-1.2,2.1,2,3.4,6.3,3.9s6.3,8.7,13.2,11.8a11,11,0,0,0,6.8.8" transform="translate(-151.5 -166.03)"/><path class="cls-16" d="M730.2,270.8s-5.3,3.4-7.6,4.6a26.57,26.57,0,0,1,6.3,12.3c1.8,7.9.4,11.7.4,11.7s5.9-.6,8.8-2.7c0,0,2.8-4.6.5-13.6S730.2,270.8,730.2,270.8Z" transform="translate(-151.5 -166.03)"/><path class="cls-8" d="M793,258.6a20.16,20.16,0,0,0-30.9-10.7,222.67,222.67,0,0,1-19,12.1l-15.3,8.3s8.7,8.6,10,18.1-.3,12.6-.3,12.6,23.9-5.9,45-16.2A20.51,20.51,0,0,0,793,258.6Z" transform="translate(-151.5 -166.03)"/><path class="cls-10" d="M735.5,291.7a1.2,1.2,0,1,0-1.2,1.2,1.16,1.16,0,0,0,1.2-1.12Z" transform="translate(-151.5 -166.03)"/><polygon class="cls-11" points="449.8 310.27 520.5 301.97 519.3 314.77 505.4 316.77 504 319.37 449.8 310.27"/><path class="cls-10" d="M655.5,484l18.4-72.9a6.4,6.4,0,0,1,5.3-4.8l94.5-14.1a2.82,2.82,0,0,1,3.19,2.39,2.75,2.75,0,0,1-.09,1.21l-19.3,65.3a6.62,6.62,0,0,1-4.8,4.5l-93.9,21.9a2.83,2.83,0,0,1-3.3-3.5Z" transform="translate(-151.5 -166.03)"/><path class="cls-11" d="M727.8,437.4c-1,3.6-4.3,7.1-7.6,7.8s-5.1-1.7-4.1-5.3,4.3-7.1,7.6-7.8S728.8,433.8,727.8,437.4Z" transform="translate(-151.5 -166.03)"/><path class="cls-10" d="M656.9,487.2c-.3-.2-41.3-5.6-52.7-7.2a3.27,3.27,0,0,1-2.9-3.3v-.4l55.6,6.5v4.4Z" transform="translate(-151.5 -166.03)"/><path class="cls-17" d="M742.9,349.8h30.8a2.53,2.53,0,0,1,2.51,2.55s0,.1,0,.15l-1.6,19.3a3.44,3.44,0,0,1-3.1,3.2l-31,3.4a2.44,2.44,0,0,1-2.69-2.16,2.16,2.16,0,0,1,0-.44l1.7-22.7a3.35,3.35,0,0,1,3.4-3.3Z" transform="translate(-151.5 -166.03)"/><path class="cls-17" d="M740.9,350.5l18,9.7a3.53,3.53,0,0,0,3.7-.3l12.8-9.4" transform="translate(-151.5 -166.03)"/><path class="cls-10" d="M569.8,252.5l-3.2,3.5a1.52,1.52,0,0,0,0,2h0a1.52,1.52,0,0,0,1.8.3l3.8-2.3Z" transform="translate(-151.5 -166.03)"/><path class="cls-10" d="M599,261l.9,4.7a1.54,1.54,0,0,1-1,1.7h0a1.38,1.38,0,0,1-1.7-.8l-2-4Z" transform="translate(-151.5 -166.03)"/><circle class="cls-8" cx="436.8" cy="77.27" r="21.8"/><circle class="cls-9" cx="436.77" cy="77.27" r="14"/><polyline class="cls-12" points="440.7 82.27 436.8 77.27 438.9 70.27"/><path class="cls-8" d="M574.4,222.2a1.16,1.16,0,0,1-1.48-.72.31.31,0,0,0,0-.08,6.34,6.34,0,0,1,11.6-4.4,1.07,1.07,0,0,1-.33,1.48,1.11,1.11,0,0,1-.27.12Z" transform="translate(-151.5 -166.03)"/><path class="cls-8" d="M611.3,233a1.16,1.16,0,0,0,1.62.17l.08-.07a6.31,6.31,0,0,0-7.4-9.9,1.07,1.07,0,0,0-.49,1.45.6.6,0,0,0,.09.15Z" transform="translate(-151.5 -166.03)"/><path class="cls-8" d="M598.2,219.9l-5.7-1.6a1.76,1.76,0,0,1-1.2-2.2h0a1.76,1.76,0,0,1,2.2-1.2h0l5.7,1.6a1.76,1.76,0,0,1,1.2,2.2h0A1.81,1.81,0,0,1,598.2,219.9Z" transform="translate(-151.5 -166.03)"/><rect class="cls-8" x="592.02" y="218.57" width="5.6" height="4.3" transform="translate(65.42 564.31) rotate(-73.8)"/><path class="cls-10" d="M355.6,388.7l.9,9.2a2.16,2.16,0,0,1-1.3,2.2,7.22,7.22,0,0,0-4.2,7.2l1.1,10.2a7,7,0,0,0,5.6,6.2,2.24,2.24,0,0,1,1.7,1.9l.9,9.2a2.11,2.11,0,0,1-3.1,2.1l-2.2-1.1a15.77,15.77,0,0,1-8.6-12.6l-2.1-20.3a16,16,0,0,1,5.9-14.1l2-1.6a2.14,2.14,0,0,1,3.4,1.5Z" transform="translate(-151.5 -166.03)"/><path class="cls-18" d="M402.3,194.4c1.8,12.2-5,23.3-16.4,24.9-13.1,1.8-26.8-9.5-28.6-25.1-1.7-15.3,9-25.8,22.1-24C390.9,171.8,400.6,182.4,402.3,194.4Z" transform="translate(-151.5 -166.03)"/><path class="cls-9" d="M407,192.3c1.8,12.6-5.1,24.1-16.9,25.7-13.6,1.9-27.7-9.8-29.5-25.9-1.8-15.8,9.3-26.6,22.8-24.8C395.2,169,405.2,180,407,192.3Z" transform="translate(-151.5 -166.03)"/><path class="cls-10" d="M390.6,185.3c.4,3.1-1.5,5.5-4.3,5.5s-5.7-2.7-6.1-5.9,1.7-5.6,4.6-5.4A6.81,6.81,0,0,1,390.6,185.3Z" transform="translate(-151.5 -166.03)"/><path class="cls-10" d="M393.3,204.9l-10.3.7c-2.5.2-4.8-1.9-5.2-4.7h0c-.8-6.1,3.2-10.9,8.5-10.8h0c5,.1,9.5,4.6,10.3,10h0C396.8,202.7,395.4,204.8,393.3,204.9Z" transform="translate(-151.5 -166.03)"/><path class="cls-10" d="M714.8,372.6a4,4,0,1,0-.35,5.65l0-.05a3.88,3.88,0,0,0,.42-5.47Z" transform="translate(-151.5 -166.03)"/><path class="cls-8" d="M709.6,363.5l-.7-.8a6.28,6.28,0,0,0-8.8-.4h0a6.28,6.28,0,0,0-.4,8.8l.7.8a7.27,7.27,0,0,1,1.7,3.1c.2.9.5,1.9.7,2.9a2.91,2.91,0,0,0,3.55,2.09,2.86,2.86,0,0,0,1.25-.69l4.4-4,4.4-4a2.92,2.92,0,0,0,.17-4.13,2.88,2.88,0,0,0-1.17-.77c-1-.3-1.9-.7-2.8-1A6.71,6.71,0,0,1,709.6,363.5Z" transform="translate(-151.5 -166.03)"/><path class="cls-10" d="M630.2,379.2a74,74,0,0,1,0,25.2l32.4-7s-7.2-12-9.1-23Z" transform="translate(-151.5 -166.03)"/><line class="cls-12" x1="479.4" y1="218.37" x2="503.2" y2="213.37"/><line class="cls-12" x1="485" y1="223.07" x2="500.4" y2="219.37"/><line class="cls-12" x1="485.3" y1="227.87" x2="495.6" y2="225.47"/><path class="cls-8" d="M706.8,489.2l21.8-4.9s.3,10,15.7,15.9c0,0-17.1,13-22.4,16.4C722,516.5,709.2,509.9,706.8,489.2Z" transform="translate(-151.5 -166.03)"/><line class="cls-19" x1="556.6" y1="329.77" x2="578.5" y2="322.67"/><line class="cls-19" x1="563.8" y1="333.87" x2="577.5" y2="327.57"/><line class="cls-19" x1="566.1" y1="338.07" x2="579.8" y2="330.67"/><line class="cls-19" x1="569.1" y1="342.07" x2="577" y2="337.27"/><path class="cls-5" d="M361,333.3a16.54,16.54,0,0,1-5.7.2l1.8-2.8c-3.9.1-13.3-5-14.3-9.7a2.82,2.82,0,0,1,.1-1.6h0v-.1c1.5-3,9.4-2.3,15.2,3.4C365,329.4,361,333.3,361,333.3Z" transform="translate(-151.5 -166.03)"/><path class="cls-8" d="M357.2,330.7l-1.8,2.8a22.24,22.24,0,0,1-8-2.7,14.29,14.29,0,0,1-6.5-6.9c1.1-2.5,1.9-4.2,2.1-4.6a2.82,2.82,0,0,0-.1,1.6C343.9,325.7,353.3,330.8,357.2,330.7Z" transform="translate(-151.5 -166.03)"/><path class="cls-14" d="M301.6,361s4.6,2.1,8.9,1.5,12.7-3,14.4-2.1,4.6,1,3.7,3.9-2.6,6.3-6.4,6.5-7.6,3.2-13.9,1.4-10-2.7-10.2-5.2S301.6,361,301.6,361Z" transform="translate(-151.5 -166.03)"/><path class="cls-16" d="M361,333.3c-1.6,4.7-22.5,32.2-32.4,46.6s-26.7,55.2-35.1,53.5-18.8-9.9-17-14.6,23.1-18.1,39.3-41.2,15.8-39.1,20.7-52.2c2.1-5.6,3.6-5.2,3.6-5.2a10.28,10.28,0,0,0,.7,3.8,13.34,13.34,0,0,0,6.5,6.9,22.24,22.24,0,0,0,8,2.7A14.79,14.79,0,0,0,361,333.3Z" transform="translate(-151.5 -166.03)"/><path class="cls-4" d="M325,374.7s4-7.4,5-11.9" transform="translate(-151.5 -166.03)"/><path class="cls-4" d="M328.8,375.7s2.7-5.1,4.1-6.4" transform="translate(-151.5 -166.03)"/><path class="cls-4" d="M314.1,395.1a63.32,63.32,0,0,1-4,8.5" transform="translate(-151.5 -166.03)"/><path class="cls-4" d="M308.5,393.7a52.19,52.19,0,0,1-10.4,11.2" transform="translate(-151.5 -166.03)"/><path class="cls-14" d="M317,367.2a79.9,79.9,0,0,0,9.7,5.4c3.6,1.4,8.2-.1,8.6-.1s2.3,3,.6,5.1-3.6,2.4-3.8,3.1.3,4.7-.8,6.1-3.2,2.2-3.9,3.1-1.4,5.4-2.5,6.1-2.5,3-5.3,3.4-13.8-4-24-11.9a56.65,56.65,0,0,0-10.7-6.8s4.5-19.7,12.7-17.9S317,367.2,317,367.2Z" transform="translate(-151.5 -166.03)"/><path class="cls-15" d="M317,367.2a79.9,79.9,0,0,0,9.7,5.4c3.6,1.4,8.2-.1,8.6-.1" transform="translate(-151.5 -166.03)"/><path class="cls-8" d="M292.3,354.4a1.93,1.93,0,0,1,2.4.1c1.3,1,6.2,4.9,6.8,6.5s-2.7,11.5-8,17.6-8.1,6.1-8.4,6-7.7-3.5-8.7-4.8a3.27,3.27,0,0,1-.6-2.7S289.9,354.3,292.3,354.4Z" transform="translate(-151.5 -166.03)"/><path class="cls-9" d="M227.6,319.8a20.44,20.44,0,0,0,1.9,27.9c2.3,2.1,4.9,4.5,7.8,7.1,15.6,14,39.8,22.7,39.8,22.7,13.2-6.1,15.2-23.1,15.2-23.1-11.9-7.5-23.7-21.5-32.4-33.7a20.43,20.43,0,0,0-28.56-4.43,20.18,20.18,0,0,0-3.74,3.53Z" transform="translate(-151.5 -166.03)"/><path class="cls-15" d="M332.2,380.8a18.59,18.59,0,0,1-4.4,1.5,25.51,25.51,0,0,1-4.1,0" transform="translate(-151.5 -166.03)"/><path class="cls-15" d="M328,389.6a6.87,6.87,0,0,1-2.9,1.3,5.63,5.63,0,0,1-3.1-.6" transform="translate(-151.5 -166.03)"/><path class="cls-15" d="M324.1,396.9s-2.4.8-3.7-.4" transform="translate(-151.5 -166.03)"/><path class="cls-10" d="M592.6,496c-19.1.4-49.1,7.6-67.3,15a311.1,311.1,0,0,0-30.5,14.3s4.3-2.4,9.4,7.4,3.3,21.2,3.3,21.2c2.6-.7,64.6-2.6,84.4-5.2s42.7-9.8,41.3-29.1-18.4-24.6-41.7-28.9-36.3-2.5-37.7-2.9a18.53,18.53,0,0,1-8.3-5.1c-2.4-2.9-4.9-10.8-4.9-10.8s-60.4-3.8-66.5,6.4,21.3,39.4,21.3,39.4Z" transform="translate(-151.5 -166.03)"/><path class="cls-10" d="M448.6,470.7s-3.3,7.2-4.5,9.8-28.9,3.6-41.3,3.8-36.7,5.2-38.6,23.1c-2.2,20.4,14.9,29.9,45.4,32.1,34.3,2.5,66.1,1.7,72.8,2.4s25.2-7.6,27.3-15.3S540.9,513,540.9,513s6.4-32-4.1-38.4S448.6,470.7,448.6,470.7Z" transform="translate(-151.5 -166.03)"/><path class="cls-12" d="M509.7,519.4s-56.8-32.7-101.9-30.8" transform="translate(-151.5 -166.03)"/><path class="cls-10" d="M494.8,525.4s-2.8,1.2-1.2,10.8S504,556,507.5,554s1.7-19.4-2.3-25.2S494.8,525.4,494.8,525.4Z" transform="translate(-151.5 -166.03)"/><path class="cls-8" d="M488.3,528.6s-5.5,6.7-8,8.6-13.7,2.7-17.8,9.1,5.3,21.1,12.9,18.7c-2.1,1.3-3.9,2.5-5.3,3.4-6.8,4.6-19.2,11.5-28,1.4-7.4-8.6-4.8-19,.6-25.9s19.3-7.7,22.5-8.6,10.5-6.2,13.7-8.1C481.6,525.6,483.6,527.7,488.3,528.6Z" transform="translate(-151.5 -166.03)"/><path class="cls-14" d="M507.7,550.7c-.4.1-7.6,1.3-10.6,1.9-2.4.5-13.8,7.2-21.8,12.3-7.6,2.4-17-12.3-12.9-18.7s15.3-7.2,17.8-9.1,8-8.6,8-8.6l2.3.3c6.4.5,9.7-1.7,9.7-1.7a19.13,19.13,0,0,1,3.8,5.5C507.6,539.3,507.9,546.6,507.7,550.7Z" transform="translate(-151.5 -166.03)"/><path class="cls-12" d="M592.6,496c-19.1.4-49.1,7.6-67.3,15a311.1,311.1,0,0,0-30.5,14.3" transform="translate(-151.5 -166.03)"/><path class="cls-12" d="M368.3,497.4a7.18,7.18,0,0,1,5.5-.1c5.4,1.8,7.2,13.7,4.5,21.1s-8.7,7.1-10.7,5" transform="translate(-151.5 -166.03)"/><path class="cls-12" d="M629.7,508.1s-5-5.7-10.9,1.4c-6.5,7.7-3.1,20.7,2.1,23.8s8.2,0,8.2,0" transform="translate(-151.5 -166.03)"/><path class="cls-19" d="M411.4,367a1.1,1.1,0,1,1-1.1-1.1A1.11,1.11,0,0,1,411.4,367Z" transform="translate(-151.5 -166.03)"/><path class="cls-14" d="M433.2,348.3c-2.1,7-4.3,10-4.1,16.4a22.61,22.61,0,0,1-21.1-4.2c.6-2.7.9-4.8.5-6.1-1.2-4.8-7.7-7-12.2-13s-4.9-16.6-2.7-17.9c1-.6,2-.4,3.5,4.6a30,30,0,0,0,2.5,5.9c-2.1-4.8-3-20.6,2.8-18.2,1.9.8-.3,4.2,2,10.3a15.38,15.38,0,0,0,6,8,12.86,12.86,0,0,1,1.9-8.4c2.2-3.1,7.8-6.6,8.8-3.3s-4,4.4-4.4,8.5c-.6,4.9,4.9,8.7,8.6,5.5s1.6-6.8,0-9.1-4.1-5.1-2.3-6.4,6.3.2,9.5,5.7S435.3,341.3,433.2,348.3Z" transform="translate(-151.5 -166.03)"/><path class="cls-8" d="M453.5,420s-22.5,28.4-37.3,34.8-24.8,1.9-27.7-13.6,6.3-43.2,10.3-53.4c2.9-7.6,7.5-19.6,9.2-27.2a23,23,0,0,0,21.1,4.2c.1,6.1-2.7,28.6-3,30.7.1-.7,1.3-4,9.7-15.8,9.7-13.5,19.4-19.4,19.4-19.4s8.2,3.9,10.6,22.2S453.5,420,453.5,420Z" transform="translate(-151.5 -166.03)"/><path class="cls-19" d="M426.1,395.5s-.9,25.6-4.2,33.9" transform="translate(-151.5 -166.03)"/><path class="cls-15" d="M410.3,334.2a11.55,11.55,0,0,0,1.6,4.4" transform="translate(-151.5 -166.03)"/><path class="cls-19" d="M405.7,368.5s5.7,8.2,22.8,5.8" transform="translate(-151.5 -166.03)"/><path class="cls-19" d="M391.4,449.9s-2.6-8.9,7-11,21.3,11.8,13.9,17.3" transform="translate(-151.5 -166.03)"/><path class="cls-15" d="M399.5,334.2a18.05,18.05,0,0,0,3.5,4.9c1,1,2.4,2,3,3.3" transform="translate(-151.5 -166.03)"/><path class="cls-10" d="M518.9,273.7c11.4,2.9,16.8,9.4,16.3,25.8s-2.7,22.3,5.1,31.4,9.9,21.9-4.9,30-47.2,10.2-63.3,0-18-21.1-13.2-31.8,17.6-17.7,14.8-25.4.6.7.6.7a21.62,21.62,0,0,1-7.7-18.3c.6-12.2,15.6-16.8,23.4-17.2,4-.2,8.3,2.3,14.2,3.3C510.1,273,516,273,518.9,273.7Z" transform="translate(-151.5 -166.03)"/><path class="cls-9" d="M495,351.5s-21.6,1.2-34.2,5.7-10.3,14.5-11.9,25-11.9,21.2-6.7,35.5,10.3,22.4,7.6,33.4-5.2,16.5-4.8,19.6,14.8,12.6,20.3,14.5,16.2-5.7,16.2-5.7,5.5,7.2,13.5,8.8,40.4-6.7,47.8-15a51.88,51.88,0,0,1-5-20.5c-.2-11.2,6.3-25.1,8.7-32.8s15.9-37.4,10.6-47.3C553.3,365.6,524.9,349.6,495,351.5Z" transform="translate(-151.5 -166.03)"/><g class="cls-20"><path class="cls-18" d="M440.6,482.6l1,1.2a2,2,0,0,1-.3,2.8l-1.2,1a2,2,0,0,1-2.8-.3l-1-1.2a2,2,0,0,1,.3-2.8l1.2-1a1.93,1.93,0,0,1,2.73.22Z" transform="translate(-151.5 -166.03)"/><path class="cls-18" d="M442.7,464.5l1,1.2a2,2,0,0,1-.3,2.8l-1.2,1a2,2,0,0,1-2.8-.3l-1-1.2a2,2,0,0,1,.3-2.8l1.2-1A2,2,0,0,1,442.7,464.5Z" transform="translate(-151.5 -166.03)"/><path class="cls-18" d="M444.9,446.5l1,1.2a2,2,0,0,1-.3,2.8l-1.2,1a2,2,0,0,1-2.8-.3l-1-1.2a2,2,0,0,1,.3-2.8l1.2-1a1.88,1.88,0,0,1,2.64.1Z" transform="translate(-151.5 -166.03)"/><path class="cls-18" d="M447,428.4l1,1.2a2,2,0,0,1-.3,2.8l-1.2,1a2,2,0,0,1-2.8-.3l-1-1.2a2,2,0,0,1,.3-2.8l1.2-1A2,2,0,0,1,447,428.4Z" transform="translate(-151.5 -166.03)"/><path class="cls-18" d="M449.1,410.3l1,1.2a2,2,0,0,1-.3,2.8l-1.2,1a2,2,0,0,1-2.8-.3l-1-1.2a2,2,0,0,1,.3-2.8l1.2-1A2,2,0,0,1,449.1,410.3Z" transform="translate(-151.5 -166.03)"/><path class="cls-18" d="M456.9,484.5l1,1.2a2,2,0,0,1-.3,2.8l-1.2,1a2,2,0,0,1-2.8-.3l-1-1.2a2,2,0,0,1,.3-2.8l1.2-1a1.93,1.93,0,0,1,2.73.22Z" transform="translate(-151.5 -166.03)"/><path class="cls-18" d="M459,466.4l1,1.2a2,2,0,0,1-.3,2.8l-1.2,1a2,2,0,0,1-2.8-.3l-1-1.2a2,2,0,0,1,.3-2.8l1.2-1A2,2,0,0,1,459,466.4Z" transform="translate(-151.5 -166.03)"/><path class="cls-18" d="M461.1,448.4l1,1.2a2,2,0,0,1-.3,2.8l-1.2,1a2,2,0,0,1-2.8-.3l-1-1.2a2,2,0,0,1,.3-2.8l1.2-1a1.93,1.93,0,0,1,2.72.2Z" transform="translate(-151.5 -166.03)"/><path class="cls-18" d="M463.3,430.3l1,1.2a2,2,0,0,1-.3,2.8l-1.2,1a2,2,0,0,1-2.8-.3l-1-1.2a2,2,0,0,1,.3-2.8l1.2-1A2,2,0,0,1,463.3,430.3Z" transform="translate(-151.5 -166.03)"/><path class="cls-18" d="M465.4,412.2l1,1.2a2,2,0,0,1-.3,2.8l-1.2,1a2,2,0,0,1-2.8-.3l-1-1.2a2,2,0,0,1,.3-2.8l1.2-1A2,2,0,0,1,465.4,412.2Z" transform="translate(-151.5 -166.03)"/><path class="cls-18" d="M473.2,486.4l1,1.2a2,2,0,0,1-.3,2.8l-1.2,1a2,2,0,0,1-2.8-.3l-1-1.2a2,2,0,0,1,.3-2.8l1.2-1A2,2,0,0,1,473.2,486.4Z" transform="translate(-151.5 -166.03)"/><path class="cls-18" d="M475.3,468.3l1,1.2a2,2,0,0,1-.3,2.8l-1.2,1a2,2,0,0,1-2.8-.3l-1-1.2a2,2,0,0,1,.3-2.8l1.2-1A2,2,0,0,1,475.3,468.3Z" transform="translate(-151.5 -166.03)"/><path class="cls-18" d="M477.4,450.3l1,1.2a2,2,0,0,1-.3,2.8l-1.2,1a2,2,0,0,1-2.8-.3l-1-1.2a2,2,0,0,1,.3-2.8l1.2-1a1.93,1.93,0,0,1,2.73.22Z" transform="translate(-151.5 -166.03)"/><path class="cls-18" d="M479.5,432.2l1,1.2a2,2,0,0,1-.3,2.8l-1.2,1a2,2,0,0,1-2.8-.3l-1-1.2a2,2,0,0,1,.3-2.8l1.2-1a1.93,1.93,0,0,1,2.73.22Z" transform="translate(-151.5 -166.03)"/><path class="cls-18" d="M481.6,414.1l1,1.2a2,2,0,0,1-.3,2.8l-1.2,1a2,2,0,0,1-2.8-.3l-1-1.2a2,2,0,0,1,.3-2.8l1.2-1A2,2,0,0,1,481.6,414.1Z" transform="translate(-151.5 -166.03)"/><path class="cls-18" d="M489.4,488.3l1,1.2a2,2,0,0,1-.3,2.8l-1.2,1a2,2,0,0,1-2.8-.3l-1-1.2a2,2,0,0,1,.3-2.8l1.2-1A2,2,0,0,1,489.4,488.3Z" transform="translate(-151.5 -166.03)"/><path class="cls-18" d="M491.6,470.3l1,1.2a2,2,0,0,1-.3,2.8l-1.2,1a2,2,0,0,1-2.8-.3l-1-1.2a2,2,0,0,1,.3-2.8l1.2-1a1.88,1.88,0,0,1,2.64.1Z" transform="translate(-151.5 -166.03)"/><path class="cls-18" d="M493.7,452.2l1,1.2a2,2,0,0,1-.3,2.8l-1.2,1a2,2,0,0,1-2.8-.3l-1-1.2a2,2,0,0,1,.3-2.8l1.2-1A2,2,0,0,1,493.7,452.2Z" transform="translate(-151.5 -166.03)"/><path class="cls-18" d="M495.8,434.1l1,1.2a2,2,0,0,1-.3,2.8l-1.2,1a2,2,0,0,1-2.8-.3l-1-1.2a2,2,0,0,1,.3-2.8l1.2-1A2,2,0,0,1,495.8,434.1Z" transform="translate(-151.5 -166.03)"/><path class="cls-18" d="M497.9,416.1l1,1.2a2,2,0,0,1-.3,2.8l-1.2,1a2,2,0,0,1-2.8-.3l-1-1.2a2,2,0,0,1,.3-2.8l1.2-1a1.88,1.88,0,0,1,2.64.1Z" transform="translate(-151.5 -166.03)"/><path class="cls-18" d="M505.7,490.2l1,1.2a2,2,0,0,1-.3,2.8l-1.2,1a2,2,0,0,1-2.8-.3l-1-1.2a2,2,0,0,1,.3-2.8l1.2-1A2,2,0,0,1,505.7,490.2Z" transform="translate(-151.5 -166.03)"/><path class="cls-18" d="M507.8,472.2l1,1.2a2,2,0,0,1-.3,2.8l-1.2,1a2,2,0,0,1-2.8-.3l-1-1.2a2,2,0,0,1,.3-2.8l1.2-1a1.88,1.88,0,0,1,2.64.1Z" transform="translate(-151.5 -166.03)"/><path class="cls-18" d="M509.9,454.1l1,1.2a2,2,0,0,1-.3,2.8l-1.2,1a2,2,0,0,1-2.8-.3l-1-1.2a2,2,0,0,1,.3-2.8l1.2-1a1.93,1.93,0,0,1,2.72.2Z" transform="translate(-151.5 -166.03)"/><path class="cls-18" d="M512.1,436l1,1.2a2,2,0,0,1-.3,2.8l-1.2,1a2,2,0,0,1-2.8-.3l-1-1.2a2,2,0,0,1,.3-2.8l1.2-1A2,2,0,0,1,512.1,436Z" transform="translate(-151.5 -166.03)"/><path class="cls-18" d="M514.2,418l1,1.2a2,2,0,0,1-.3,2.8l-1.2,1a2,2,0,0,1-2.8-.3l-1-1.2a2,2,0,0,1,.3-2.8l1.2-1A2,2,0,0,1,514.2,418Z" transform="translate(-151.5 -166.03)"/><path class="cls-18" d="M522,492.1l1,1.2a2,2,0,0,1-.3,2.8l-1.2,1a2,2,0,0,1-2.8-.3l-1-1.2a2,2,0,0,1,.3-2.8l1.2-1A2,2,0,0,1,522,492.1Z" transform="translate(-151.5 -166.03)"/><path class="cls-18" d="M524.1,474.1l1,1.2a2,2,0,0,1-.3,2.8l-1.2,1a2,2,0,0,1-2.8-.3l-1-1.2a2,2,0,0,1,.3-2.8l1.2-1A2,2,0,0,1,524.1,474.1Z" transform="translate(-151.5 -166.03)"/><path class="cls-18" d="M526.2,456l1,1.2a2,2,0,0,1-.3,2.8l-1.2,1a2,2,0,0,1-2.8-.3l-1-1.2a2,2,0,0,1,.3-2.8l1.2-1a1.93,1.93,0,0,1,2.73.22Z" transform="translate(-151.5 -166.03)"/><path class="cls-18" d="M528.3,437.9l1,1.2a2,2,0,0,1-.3,2.8l-1.2,1a2,2,0,0,1-2.8-.3l-1-1.2a2,2,0,0,1,.3-2.8l1.2-1A2,2,0,0,1,528.3,437.9Z" transform="translate(-151.5 -166.03)"/><path class="cls-18" d="M530.4,419.9l1,1.2a2,2,0,0,1-.3,2.8l-1.2,1a2,2,0,0,1-2.8-.3l-1-1.2a2,2,0,0,1,.3-2.8l1.2-1a1.93,1.93,0,0,1,2.72.2Z" transform="translate(-151.5 -166.03)"/><path class="cls-18" d="M538.2,494l1,1.2a2,2,0,0,1-.3,2.8l-1.2,1a2,2,0,0,1-2.8-.3l-1-1.2a2,2,0,0,1,.3-2.8l1.2-1A2,2,0,0,1,538.2,494Z" transform="translate(-151.5 -166.03)"/><path class="cls-18" d="M540.4,476l1,1.2a2,2,0,0,1-.3,2.8l-1.2,1a2,2,0,0,1-2.8-.3l-1-1.2a2,2,0,0,1,.3-2.8l1.2-1A2,2,0,0,1,540.4,476Z" transform="translate(-151.5 -166.03)"/><path class="cls-18" d="M542.5,457.9l1,1.2a2,2,0,0,1-.3,2.8l-1.2,1a2,2,0,0,1-2.8-.3l-1-1.2a2,2,0,0,1,.3-2.8l1.2-1A2,2,0,0,1,542.5,457.9Z" transform="translate(-151.5 -166.03)"/><path class="cls-18" d="M544.6,439.8l1,1.2a2,2,0,0,1-.3,2.8l-1.2,1a2,2,0,0,1-2.8-.3l-1-1.2a2,2,0,0,1,.3-2.8l1.2-1A2,2,0,0,1,544.6,439.8Z" transform="translate(-151.5 -166.03)"/><path class="cls-18" d="M546.7,421.8l1,1.2a2,2,0,0,1-.3,2.8l-1.2,1a2,2,0,0,1-2.8-.3l-1-1.2a2,2,0,0,1,.3-2.8l1.2-1a1.93,1.93,0,0,1,2.73.22Z" transform="translate(-151.5 -166.03)"/><path class="cls-18" d="M451.2,392.3l1,1.2a2,2,0,0,1-.3,2.8l-1.2,1a2,2,0,0,1-2.8-.3l-1-1.2a2,2,0,0,1,.3-2.8l1.2-1a1.88,1.88,0,0,1,2.64.1Z" transform="translate(-151.5 -166.03)"/><path class="cls-18" d="M453.3,374.2l1,1.2a2,2,0,0,1-.3,2.8l-1.2,1a2,2,0,0,1-2.8-.3l-1-1.2a2,2,0,0,1,.3-2.8l1.2-1a1.93,1.93,0,0,1,2.72.2Z" transform="translate(-151.5 -166.03)"/><path class="cls-18" d="M455.5,356.1l1,1.2a2,2,0,0,1-.3,2.8l-1.2,1a2,2,0,0,1-2.8-.3l-1-1.2a2,2,0,0,1,.3-2.8l1.2-1A2,2,0,0,1,455.5,356.1Z" transform="translate(-151.5 -166.03)"/><path class="cls-18" d="M457.6,338.1l1,1.2a2,2,0,0,1-.3,2.8l-1.2,1a2,2,0,0,1-2.8-.3l-1-1.2a2,2,0,0,1,.3-2.8l1.2-1A2,2,0,0,1,457.6,338.1Z" transform="translate(-151.5 -166.03)"/><path class="cls-18" d="M467.5,394.2l1,1.2a2,2,0,0,1-.3,2.8l-1.2,1a2,2,0,0,1-2.8-.3l-1-1.2a2,2,0,0,1,.3-2.8l1.2-1a1.93,1.93,0,0,1,2.73.22Z" transform="translate(-151.5 -166.03)"/><path class="cls-18" d="M469.6,376.1l1,1.2a2,2,0,0,1-.3,2.8l-1.2,1a2,2,0,0,1-2.8-.3l-1-1.2a2,2,0,0,1,.3-2.8l1.2-1a1.93,1.93,0,0,1,2.73.22Z" transform="translate(-151.5 -166.03)"/><path class="cls-18" d="M471.7,358l1,1.2a2,2,0,0,1-.3,2.8l-1.2,1a2,2,0,0,1-2.8-.3l-1-1.2a2,2,0,0,1,.3-2.8l1.2-1A2,2,0,0,1,471.7,358Z" transform="translate(-151.5 -166.03)"/><path class="cls-18" d="M473.9,340l1,1.2a2,2,0,0,1-.3,2.8l-1.2,1a2,2,0,0,1-2.8-.3l-1-1.2a2,2,0,0,1,.3-2.8l1.2-1A2,2,0,0,1,473.9,340Z" transform="translate(-151.5 -166.03)"/><path class="cls-18" d="M483.8,396.1l1,1.2a2,2,0,0,1-.3,2.8l-1.2,1a2,2,0,0,1-2.8-.3l-1-1.2a2,2,0,0,1,.3-2.8l1.2-1A2,2,0,0,1,483.8,396.1Z" transform="translate(-151.5 -166.03)"/><path class="cls-18" d="M485.9,378l1,1.2a2,2,0,0,1-.3,2.8l-1.2,1a2,2,0,0,1-2.8-.3l-1-1.2a2,2,0,0,1,.3-2.8l1.2-1A2,2,0,0,1,485.9,378Z" transform="translate(-151.5 -166.03)"/><path class="cls-18" d="M488,359.9l1,1.2a2,2,0,0,1-.3,2.8l-1.2,1a2,2,0,0,1-2.8-.3l-1-1.2a2,2,0,0,1,.3-2.8l1.2-1A2,2,0,0,1,488,359.9Z" transform="translate(-151.5 -166.03)"/><path class="cls-18" d="M490.1,341.9l1,1.2a2,2,0,0,1-.3,2.8l-1.2,1a2,2,0,0,1-2.8-.3l-1-1.2a2,2,0,0,1,.3-2.8l1.2-1a1.93,1.93,0,0,1,2.73.22Z" transform="translate(-151.5 -166.03)"/><path class="cls-18" d="M500,398l1,1.2a2,2,0,0,1-.3,2.8l-1.2,1a2,2,0,0,1-2.8-.3l-1-1.2a2,2,0,0,1,.3-2.8l1.2-1a1.93,1.93,0,0,1,2.73.22Z" transform="translate(-151.5 -166.03)"/><path class="cls-18" d="M502.2,379.9l1,1.2a2,2,0,0,1-.3,2.8l-1.2,1a2,2,0,0,1-2.8-.3l-1-1.2a2,2,0,0,1,.3-2.8l1.2-1A2,2,0,0,1,502.2,379.9Z" transform="translate(-151.5 -166.03)"/><path class="cls-18" d="M504.3,361.9l1,1.2a2,2,0,0,1-.3,2.8l-1.2,1a2,2,0,0,1-2.8-.3l-1-1.2a2,2,0,0,1,.3-2.8l1.2-1a1.88,1.88,0,0,1,2.64.1Z" transform="translate(-151.5 -166.03)"/><path class="cls-18" d="M506.4,343.8l1,1.2a2,2,0,0,1-.3,2.8l-1.2,1a2,2,0,0,1-2.8-.3l-1-1.2a2,2,0,0,1,.3-2.8l1.2-1A2,2,0,0,1,506.4,343.8Z" transform="translate(-151.5 -166.03)"/><path class="cls-18" d="M516.3,399.9l1,1.2a2,2,0,0,1-.3,2.8l-1.2,1a2,2,0,0,1-2.8-.3l-1-1.2a2,2,0,0,1,.3-2.8l1.2-1a1.93,1.93,0,0,1,2.73.22Z" transform="translate(-151.5 -166.03)"/><path class="cls-18" d="M518.4,381.8l1,1.2a2,2,0,0,1-.3,2.8l-1.2,1a2,2,0,0,1-2.8-.3l-1-1.2a2,2,0,0,1,.3-2.8l1.2-1A2,2,0,0,1,518.4,381.8Z" transform="translate(-151.5 -166.03)"/><path class="cls-18" d="M520.5,363.8l1,1.2a2,2,0,0,1-.3,2.8l-1.2,1a2,2,0,0,1-2.8-.3l-1-1.2a2,2,0,0,1,.3-2.8l1.2-1a1.93,1.93,0,0,1,2.72.2Z" transform="translate(-151.5 -166.03)"/><path class="cls-18" d="M522.7,345.7l1,1.2a2,2,0,0,1-.3,2.8l-1.2,1a2,2,0,0,1-2.8-.3l-1-1.2a2,2,0,0,1,.3-2.8l1.2-1A2,2,0,0,1,522.7,345.7Z" transform="translate(-151.5 -166.03)"/><path class="cls-18" d="M532.6,401.8l1,1.2a2,2,0,0,1-.3,2.8l-1.2,1a2,2,0,0,1-2.8-.3l-1-1.2a2,2,0,0,1,.3-2.8l1.2-1A2,2,0,0,1,532.6,401.8Z" transform="translate(-151.5 -166.03)"/><path class="cls-18" d="M534.7,383.7l1,1.2a2,2,0,0,1-.3,2.8l-1.2,1a2,2,0,0,1-2.8-.3l-1-1.2a2,2,0,0,1,.3-2.8l1.2-1A2,2,0,0,1,534.7,383.7Z" transform="translate(-151.5 -166.03)"/><path class="cls-18" d="M536.8,365.7l1,1.2a2,2,0,0,1-.3,2.8l-1.2,1a2,2,0,0,1-2.8-.3l-1-1.2a2,2,0,0,1,.3-2.8l1.2-1a1.93,1.93,0,0,1,2.73.22Z" transform="translate(-151.5 -166.03)"/><path class="cls-18" d="M538.9,347.6l1,1.2a2,2,0,0,1-.3,2.8l-1.2,1a2,2,0,0,1-2.8-.3l-1-1.2a2,2,0,0,1,.3-2.8l1.2-1a1.93,1.93,0,0,1,2.73.22Z" transform="translate(-151.5 -166.03)"/><path class="cls-18" d="M548.8,403.7l1,1.2a2,2,0,0,1-.3,2.8l-1.2,1a2,2,0,0,1-2.8-.3l-1-1.2a2,2,0,0,1,.3-2.8l1.2-1a1.93,1.93,0,0,1,2.72.2Z" transform="translate(-151.5 -166.03)"/><path class="cls-18" d="M551,385.7l1,1.2a2,2,0,0,1-.3,2.8l-1.2,1a2,2,0,0,1-2.8-.3l-1-1.2a2,2,0,0,1,.3-2.8l1.2-1a1.88,1.88,0,0,1,2.64.1Z" transform="translate(-151.5 -166.03)"/><path class="cls-18" d="M553.1,367.6l1,1.2a2,2,0,0,1-.3,2.8l-1.2,1a2,2,0,0,1-2.8-.3l-1-1.2a2,2,0,0,1,.3-2.8l1.2-1A2,2,0,0,1,553.1,367.6Z" transform="translate(-151.5 -166.03)"/><path class="cls-18" d="M555.2,349.5l1,1.2a2,2,0,0,1-.3,2.8l-1.2,1a2,2,0,0,1-2.8-.3l-1-1.2a2,2,0,0,1,.3-2.8l1.2-1A2,2,0,0,1,555.2,349.5Z" transform="translate(-151.5 -166.03)"/></g><path class="cls-8" d="M557.5,373.8a108.61,108.61,0,0,1,18.4,27s.5-34.6,1.2-37a39.3,39.3,0,0,0,21.5-1.7s2.9,26.7,7.2,47,9.1,50.6-5.5,54.6-27.9-5.2-45.6-28.9-16.2-35.5-16.2-41.5C538.4,386.2,548,368,557.5,373.8Z" transform="translate(-151.5 -166.03)"/><path class="cls-19" d="M575.9,400.9s-.7,21.5,1.9,35.1" transform="translate(-151.5 -166.03)"/><path class="cls-19" d="M576.5,373.2s12.8,4,23-2.5" transform="translate(-151.5 -166.03)"/><path class="cls-19" d="M595.6,368.1a1.1,1.1,0,1,1-1.1-1.1h0a1,1,0,0,1,1.1.89A.74.74,0,0,1,595.6,368.1Z" transform="translate(-151.5 -166.03)"/><path class="cls-14" d="M597.8,362.5s-1-7.1,3.8-9.4,9.2-1.2,14.1-4.8,13.2-15,12.9-17.5-2.1-1.4-5.4,1.3a20,20,0,0,1-4.8,3.3s2-6.8,1.1-11.8-4.3-5.6-5.1-5.1,0,2.6-.2,6.6-1.4,7.3-4.9,9.8a12.51,12.51,0,0,0-.7-7c-1.6-3.8-4.3-6.3-6.4-5.7s-1.4,2.2-.4,4.4,2.6,6.2-1.6,10.4a5.24,5.24,0,0,1-8.7-5.6c2.3-5.6,5.8-6.9,7.6-8.4s1.3-4.2-2.5-3.6-10.3,5.2-14.1,10.3-4.9,12-5,18.8-.4,15.5-.4,15.5,2.5,3.1,8,3.1S597.8,365,597.8,362.5Z" transform="translate(-151.5 -166.03)"/><path class="cls-15" d="M618.4,335.5a50.77,50.77,0,0,1-4.1,8.5" transform="translate(-151.5 -166.03)"/><path class="cls-15" d="M609.2,334.9a17.52,17.52,0,0,1-3.2,7.8" transform="translate(-151.5 -166.03)"/><path class="cls-19" d="M585.6,463.3s-2.5-4,3.6-10.1,19.1-5.4,19.5.9" transform="translate(-151.5 -166.03)"/><path class="cls-16" d="M488.5,350.1s-5.6-.3-9.1,7.3-2.5,23.2,1.3,25.6,14-7.9,14-7.9,8.6,11.6,14.8,11.1,14-11.6,13.5-23.8-5.5-13.6-8.2-13.9C512.2,348,488.5,350.1,488.5,350.1Z" transform="translate(-151.5 -166.03)"/><path class="cls-16" d="M494.7,375s-19.7,21.8-19.9,25.9,6.5,5.4,8.3,4.5S496.7,374.7,494.7,375Z" transform="translate(-151.5 -166.03)"/><path class="cls-16" d="M494.5,377.7s3.4,24.2,5.6,28,9.2-1.9,8.4-5.2-10.3-22.6-13.8-25.4S494.5,377.7,494.5,377.7Z" transform="translate(-151.5 -166.03)"/><path class="cls-14" d="M518.9,328.8s-2.2,13.7-.6,24c0,0-9.5,21.1-23.5,21.1-6.9,0-9.1-14.2-7.9-19.8l2.1-15.6S503,314.3,518.9,328.8Z" transform="translate(-151.5 -166.03)"/><path class="cls-21" d="M507.4,343.3c-6,3.6-12.6,5.4-19.6,4l-.8,5.9C494.6,351.7,502.3,349.5,507.4,343.3Z" transform="translate(-151.5 -166.03)"/><path class="cls-14" d="M475.3,299.3a136.3,136.3,0,0,1-.8,20.5c-1.3,12.7-.8,21,10,26.4s28.3.5,34.7-14.9,14.9-44.7-8.1-49.1S475,283.3,475.3,299.3Z" transform="translate(-151.5 -166.03)"/><path class="cls-10" d="M491.3,289.2s4.4,14.8,14.2,18.6,8.3,13,13.2,11.9,8.7-5.1,12-1.2,3.6-30.4-13.3-36.3-34.8-6.2-40.1-.8-3.4,22.7-3.4,22.7S484.7,301.6,491.3,289.2Z" transform="translate(-151.5 -166.03)"/><path class="cls-14" d="M519.8,319.8s2.3-5.7,7.2-4.7,4.5,16.5-8,15.7" transform="translate(-151.5 -166.03)"/><path class="cls-10" d="M484.8,314.5a6,6,0,0,1,.2,4.2,7.35,7.35,0,0,1-.9,2l-.6.9c-.1.2-.3.5-.4.7a3.1,3.1,0,0,0,.4,2.9,5.53,5.53,0,0,0,3,2.1,3,3,0,0,1-2.1,0,4.55,4.55,0,0,1-1.9-1.1,4.61,4.61,0,0,1-1.3-2,4.36,4.36,0,0,1,.2-2.5,9.12,9.12,0,0,1,.6-1c.2-.3.4-.5.6-.8a8.57,8.57,0,0,0,1-1.6A10,10,0,0,0,484.8,314.5Z" transform="translate(-151.5 -166.03)"/><path class="cls-19" d="M492.2,334a7.24,7.24,0,0,0,8-3.7" transform="translate(-151.5 -166.03)"/><path class="cls-19" d="M498.6,314.5s.4,2.2,4.2,2.6a4.85,4.85,0,0,0,4.7-2.2" transform="translate(-151.5 -166.03)"/><path class="cls-19" d="M483,312.9s-3,2.4-5.4-.6" transform="translate(-151.5 -166.03)"/><path class="cls-10" d="M485.8,303.4c.2-1.3-1.3-3.5-3.3-4.1s-5.2,2.2-4.9,3.4,2.3-.6,4.1-.4C483.3,302.5,485.6,304.5,485.8,303.4Z" transform="translate(-151.5 -166.03)"/><path class="cls-10" d="M509.7,305.6c.2-1.3-1.3-3.5-3.3-4.1s-5.2,2.2-4.9,3.4,2.3-.6,4.1-.4S509.6,306.7,509.7,305.6Z" transform="translate(-151.5 -166.03)"/><path class="cls-10" d="M526.6,319.8a3.39,3.39,0,0,0-2.1,1.4,3.12,3.12,0,0,0-.2,1v1.4a4.69,4.69,0,0,1-.3,1.7,2.26,2.26,0,0,1-1.3,1.4,3.8,3.8,0,0,1-3.3-.3,6.64,6.64,0,0,0,2.5-1,2.44,2.44,0,0,0,.6-2v-1.6a2.74,2.74,0,0,1,.8-1.7A3.61,3.61,0,0,1,526.6,319.8Z" transform="translate(-151.5 -166.03)"/><ellipse class="cls-19" cx="324.5" cy="146.97" rx="8.9" ry="9.7"/><circle class="cls-19" cx="350.18" cy="149.74" r="10.3"/><path class="cls-19" d="M484.9,313.8s1.6-1.7,6.6.4" transform="translate(-151.5 -166.03)"/><line class="cls-19" x1="360.5" y1="149.77" x2="370.3" y2="150.67"/><path class="cls-9" d="M524.2,328.4l-3.4,5.9a1.13,1.13,0,0,0,.43,1.55,1.16,1.16,0,0,0,.57.15h6.8a1.15,1.15,0,0,0,1.15-1.13,1.13,1.13,0,0,0-.15-.57l-3.4-5.9a1.21,1.21,0,0,0-2,0Z" transform="translate(-151.5 -166.03)"/><path class="cls-10" d="M663.5,528.5l2.4,22.2c0,1.6,8.3,2.8,18.5,2.8s18.5-1.3,18.5-2.8l2.4-22.2Z" transform="translate(-151.5 -166.03)"/><path class="cls-9" d="M705.3,528.5c0,1.8-9.4,3.2-20.9,3.2s-20.9-1.4-20.9-3.2,9.4-3.2,20.9-3.2S705.3,526.8,705.3,528.5Z" transform="translate(-151.5 -166.03)"/><path class="cls-8" d="M678.8,528.5s-11.2-4.4-10-13,9.5,9.2,11.6,6.5-.6-15.8,4-17,3.4,17.2,3.4,17.2a27.21,27.21,0,0,0,7.6-5.7c2.9-3.4,7.1,4.2-4.8,12A15.46,15.46,0,0,1,678.8,528.5Z" transform="translate(-151.5 -166.03)"/><path class="cls-9" d="M777.5,522.7a5.4,5.4,0,1,1-5.4-5.4A5.51,5.51,0,0,1,777.5,522.7Z" transform="translate(-151.5 -166.03)"/><path class="cls-16" d="M392.6,542a19.4,19.4,0,0,0-8,4.2,26.88,26.88,0,0,1-18.5,5.9,25.93,25.93,0,0,1-20-10.9A279.88,279.88,0,0,0,392.6,542Z" transform="translate(-151.5 -166.03)"/><path class="cls-10" d="M366,552.2c-17.6.3-42.2,0-49.8-.1-8.8.7-18.7-2.7-25.3-13.6,0,0,6.5,1,23.2,1.1s30-1.1,30-1.1c.6,1,1.2,1.9,1.8,2.8A26.88,26.88,0,0,0,366,552.2Z" transform="translate(-151.5 -166.03)"/></svg>