<svg id="Layer_1" data-name="Layer 1" xmlns="http://www.w3.org/2000/svg" viewBox="0 0 892.68 962.5"><defs><style>.cls-1{fill:#a7adff;}.cls-2{fill:#e3e5fc;}.cls-3{fill:#f44e4e;}.cls-4{fill:#fff;}.cls-5{fill:#d4a79a;}.cls-6{fill:#eac2ab;}.cls-7{fill:#4b369d;}.cls-8{fill:#f3aa02;}.cls-9{fill:#fdc510;}.cls-10{fill:#5a54ff;}.cls-11{fill:#d7384e;}</style></defs><g id="UI"><g id="Phone"><path class="cls-1" d="M1301.18,877.43H1016.51a45.09,45.09,0,0,1-45-45V164.15a45.09,45.09,0,0,1,45-45h284.67a45.09,45.09,0,0,1,45,45V832.47A45.1,45.1,0,0,1,1301.18,877.43Z" transform="translate(-453.46 -119.19)"/><path class="cls-2" d="M1277.41,806.69H1040.28a45.09,45.09,0,0,1-45-45V189.63a45.09,45.09,0,0,1,45-45h237.13a45.09,45.09,0,0,1,45,45v572.1A45.1,45.1,0,0,1,1277.41,806.69Z" transform="translate(-453.46 -119.19)"/><path class="cls-2" d="M1194.13,136.52h-70.57a3.13,3.13,0,0,1-3.12-3.12h0a3.13,3.13,0,0,1,3.12-3.12h70.57a3.13,3.13,0,0,1,3.12,3.12h0A3.13,3.13,0,0,1,1194.13,136.52Z" transform="translate(-453.46 -119.19)"/><circle class="cls-2" cx="705.38" cy="720.53" r="19.43"/><path class="cls-3" d="M1248,727.69H1069.66a29,29,0,0,1-28.89-28.89V687.58a29,29,0,0,1,28.89-28.89H1248a29,29,0,0,1,28.89,28.89V698.8A29,29,0,0,1,1248,727.69Z" transform="translate(-453.46 -119.19)"/><path class="cls-1" d="M1160.82,327c-15-3.75-18.74-48.71-33.72-48.71-32.92,3-44.34,46.61-62.87,79.33a29,29,0,0,0,28.41,23.81h131.92a29,29,0,0,0,28.89-28.89V258a27.48,27.48,0,0,0-14,5.36C1213.28,285.78,1194.55,334.49,1160.82,327Z" transform="translate(-453.46 -119.19)"/><path class="cls-4" d="M1224.8,219H1092.88A29,29,0,0,0,1064,247.92V352.53a28.51,28.51,0,0,0,.48,5.09c18.53-32.72,30-76.34,62.87-79.33,15,0,18.74,45,33.72,48.71,33.72,7.49,52.46-41.22,78.69-63.7a27.54,27.54,0,0,1,14-5.36v-10A29,29,0,0,0,1224.8,219Z" transform="translate(-453.46 -119.19)"/><path class="cls-1" d="M1244.4,442.4H1073.29a8.38,8.38,0,0,1-8.35-8.35h0a8.38,8.38,0,0,1,8.35-8.35H1244.4a8.38,8.38,0,0,1,8.35,8.35h0A8.38,8.38,0,0,1,1244.4,442.4Z" transform="translate(-453.46 -119.19)"/><path class="cls-4" d="M1244.4,480.63H1073.29a8.38,8.38,0,0,1-8.35-8.35h0a8.38,8.38,0,0,1,8.35-8.35H1244.4a8.38,8.38,0,0,1,8.35,8.35h0A8.38,8.38,0,0,1,1244.4,480.63Z" transform="translate(-453.46 -119.19)"/><path class="cls-4" d="M1244.4,518.85H1073.29a8.38,8.38,0,0,1-8.35-8.35h0a8.38,8.38,0,0,1,8.35-8.35H1244.4a8.38,8.38,0,0,1,8.35,8.35h0A8.37,8.37,0,0,1,1244.4,518.85Z" transform="translate(-453.46 -119.19)"/><circle class="cls-1" cx="724.12" cy="150.43" r="16.63"/><path class="cls-4" d="M1157.41,626.17h0a2.49,2.49,0,0,1-.36-3.51l22.89-28.11a2.49,2.49,0,0,1,3.51-.36h0a2.49,2.49,0,0,1,.36,3.51l-22.89,28.11A2.49,2.49,0,0,1,1157.41,626.17Z" transform="translate(-453.46 -119.19)"/><path class="cls-4" d="M1160.28,626.17h0a2.49,2.49,0,0,0,.36-3.51l-22.89-28.11a2.49,2.49,0,0,0-3.51-.36h0a2.49,2.49,0,0,0-.36,3.51l22.89,28.11A2.49,2.49,0,0,0,1160.28,626.17Z" transform="translate(-453.46 -119.19)"/><ellipse class="cls-2" cx="705.38" cy="919.05" rx="173.09" ry="25.53"/></g><g id="Button"><path class="cls-2" d="M673.18,430.6H483.06a29.69,29.69,0,0,1-29.6-29.6h0a29.69,29.69,0,0,1,29.6-29.6H673.19a29.69,29.69,0,0,1,29.6,29.6h0A29.7,29.7,0,0,1,673.18,430.6Z" transform="translate(-453.46 -119.19)"/><path class="cls-4" d="M673.94,402.94h0a1.52,1.52,0,0,1-2.12.22l-16.93-13.79a1.52,1.52,0,0,1-.22-2.12h0a1.52,1.52,0,0,1,2.12-.22l16.93,13.79A1.52,1.52,0,0,1,673.94,402.94Z" transform="translate(-453.46 -119.19)"/><path class="cls-4" d="M673.94,401.21h0a1.52,1.52,0,0,0-2.12-.22l-16.93,13.79a1.52,1.52,0,0,0-.22,2.12h0a1.52,1.52,0,0,0,2.12.22l16.93-13.79A1.52,1.52,0,0,0,673.94,401.21Z" transform="translate(-453.46 -119.19)"/><path class="cls-1" d="M600.39,496.47H473.25a19.85,19.85,0,0,1-19.79-19.79h0a19.85,19.85,0,0,1,19.79-19.79H600.39a19.85,19.85,0,0,1,19.79,19.79h0A19.84,19.84,0,0,1,600.39,496.47Z" transform="translate(-453.46 -119.19)"/><path class="cls-4" d="M600.9,478h0a1,1,0,0,1-1.42.14l-11.32-9.22a1,1,0,0,1-.14-1.42h0a1,1,0,0,1,1.42-.14l11.32,9.22A1,1,0,0,1,600.9,478Z" transform="translate(-453.46 -119.19)"/><path class="cls-4" d="M600.9,476.81h0a1,1,0,0,0-1.42-.14l-11.32,9.22a1,1,0,0,0-.14,1.42h0a1,1,0,0,0,1.42.14l11.32-9.22A1,1,0,0,0,600.9,476.81Z" transform="translate(-453.46 -119.19)"/></g></g><g id="Characters"><g id="Man"><path id="Arm" class="cls-5" d="M770.85,486.29s-22.76,30.08-24.13,51.93,56.35,30.57,56.35,30.57Z" transform="translate(-453.46 -119.19)"/><g id="Head"><path id="Neck" class="cls-5" d="M835.19,402.6,832.75,448,797.2,461.73S818.58,430.45,815,402.6,835.19,402.6,835.19,402.6Z" transform="translate(-453.46 -119.19)"/><path id="Face" class="cls-6" d="M867,309.67s7.74,10.26.19,41.71-19.81,58.32-29.29,56.42c-26.21-5.24-35.41-23.76-44.5-39.66-11.14-19.5,11-67.06,11-67.06l20.9-11.28Z" transform="translate(-453.46 -119.19)"/><path id="Hair" class="cls-7" d="M894.87,301.19c2.29-7.38-1.73-16.82-7.1-21.38a10,10,0,0,0-7.29-2.62c-2,.19-3.88,1.14-5.83.82-5.84-1-6.54-9.58-12-11.33-4-1.3-7.92,2.36-12,3.33-3.11.73-6.33-.11-9.46-.76-8.81-1.85-17-6.08-26-7.17-7.62-.92-15.57-.06-22.46,3.64-7.2,3.86-12.36,11-15.11,19.16a27.26,27.26,0,0,0-.85,15.38c-1.08-4.13-8.51.31-9.72,1.93-4.73,6.38-5.53,20.21-3,27.63,2,5.88,5.26,11.08,7.08,17,2.16,7.11,3.06,15,7,21.3,4.51,7.23,13.47,10.91,21.18,8.91-2.38-6.54-4.74-13.23-5.18-20.25s-9.73-38.75,24.85-45.6c13.75-2.72,30.31,8.74,44.08,9.29a46.3,46.3,0,0,0,19.22-3.5c4.74-1.92,9.35-9,12-14.16A9.57,9.57,0,0,0,894.87,301.19Z" transform="translate(-453.46 -119.19)"/><path id="Ear" class="cls-6" d="M794.15,333.94s-9.66-10.91-8.6,5.74,9.78,20.09,9.78,20.09Z" transform="translate(-453.46 -119.19)"/></g><g id="Leg"><path id="Skin" class="cls-5" d="M711.75,971.87l-20.94,55-19.1-5.11L697,965.67S707.79,967,711.75,971.87Z" transform="translate(-453.46 -119.19)"/><path id="Shoe" class="cls-8" d="M739.74,1078.12c-.68,1.14-7.44.68-8.45.69-10.43.15-26.46.91-35.43-5.12-8.74-5.88-14.36-16-22.08-23.06-5.43-5-12.36-8-18.78-11.53-7.09-3.9,7.33-36.24,15.93-31,7,4.24,3.54,16,21.29,14.44,15.21-1.31,5.55,20.41,23.24,33.35C731.1,1067.32,747.2,1065.62,739.74,1078.12Z" transform="translate(-453.46 -119.19)"/><path id="Leg-2" data-name="Leg" class="cls-7" d="M750.39,775.57c-8.5,46.25-26.24,88.34-52.58,127.16-12.85,18.93-26.6,37.18-39.91,55.79-19,26.54,45.35,32.75,61.19,37.54,10.36,3.13,25.77,3.93,25.08-4.06-.2-2.35-2-4.66-3.5-6.92-13.57-20.73-1.71-41.61,7.68-60.19,28.13-55.71,47.12-119.94,69.19-178,8.4-22.1,4.62-43.87,5.84-68.11.75-14.84-25-80.21-53.09-64.1-17.49,10-7.8,48.15-5.93,63.47,1.3,10.59,3.58,22.14,1.84,32.81C762.64,732.83,754.41,753.72,750.39,775.57Z" transform="translate(-453.46 -119.19)"/></g><g id="Leg-3" data-name="Leg"><path id="Skin-2" data-name="Skin" class="cls-6" d="M818.9,990.37l13,59.19-19.34,6.38-9.91-62.57S812.73,988.38,818.9,990.37Z" transform="translate(-453.46 -119.19)"/><path id="Shoe-2" data-name="Shoe" class="cls-9" d="M911.12,1072.89s-14.47,4.94-42.21,7-58.7,3.09-64.32-1-9.25-39.11,0-39.11,12.84,13.38,29.15,1.44c14-10.23,25.13,9.06,49.45,14.2S917.35,1062.6,911.12,1072.89Z" transform="translate(-453.46 -119.19)"/><path id="Leg-4" data-name="Leg" class="cls-10" d="M869.27,1007c-.93-2.17-3.37-3.79-5.49-5.48-19.37-15.44-14.64-39-11.54-59.57,7.35-48.82-.52-98-3.46-146.86-2.86-47.66,1.91-95.49,12.8-141.95,4-16.88,9.42-43-16.69-38-12.37,2.34-24.58,1.88-36.91-.28-6.49-1.14.13-3.25-6.49-1.14-22.55,7.2-31,49.82-26.35,64.67,9.22,29.57,12.22,58,13.72,89.26,2.12,44.4,9.51,88.85,4.24,132.91-2.58,21.59-5.58,43.12-8.46,64.67-1.68,12.57-12.19,40.11-5.14,51.49,9.68,15.62,52.81,2.38,67.22,2C857.54,1018.38,872.42,1014.32,869.27,1007Z" transform="translate(-453.46 -119.19)"/></g><path id="Body" class="cls-11" d="M850.07,532.53c-6.54-26.54.56-71.18-18.15-90.87a21.68,21.68,0,0,0-6.49-5.16c-23.51-10.59-37.69,8.71-47.8,25.44s-9.89,34.87-14.83,53.65c-5.62,21.35-4.49,43.55-4.89,65.59-.25,13.42,1.39,26.75.63,40.19a162.3,162.3,0,0,1-4,27.84c-1.42,6.08-9.37,18.15-7,24.34,1.84,4.9,10.26,3.05,14.4,3.19,16,.53,31.7-4.22,45.94-11.26,13-6.43,24.41-16.4,39.41-17.64,7.45-.62,30.91,2.44,27.54-11.11-8-32.09-17.1-59.45-20.41-82.11C853.3,547.29,851.88,539.89,850.07,532.53Z" transform="translate(-453.46 -119.19)"/><path id="Arm-2" data-name="Arm" class="cls-6" d="M882.75,554.74s27.45,30.37,31.92,26.06,86.56-92,90.67-101.57,13.94-37.17,12.91-42.74-3.64-5,7.24-6.94,31.56-2.44,29.88,1.78-10.28,4.58-10.28,4.58,11.14,2.73,6.93,5-18.22,4.15-16.86,8.2,3.39,13.33,2.65,21.18-3.77,11.4-12.87,17-10.7,1.7-16,12.77S923.11,607.3,918,611.28s-6.48,8.37-17.9-2.15-31.53-36.56-47.62-53.4c-14.76-15.44-20.83-37.18-20.83-37.18L855.5,515S858.3,531.59,882.75,554.74Z" transform="translate(-453.46 -119.19)"/><path id="Body-2" data-name="Body" class="cls-3" d="M865.1,515.69s-18.94-61.33-43.39-49.62,9.92,77.21,9.92,77.21l39.74-19.75Z" transform="translate(-453.46 -119.19)"/></g></g></svg>