<svg id="Layer_1" data-name="Layer 1" xmlns="http://www.w3.org/2000/svg" xmlns:xlink="http://www.w3.org/1999/xlink" viewBox="0 0 691.8 482"><defs><style>.cls-1,.cls-10,.cls-14,.cls-15,.cls-19,.cls-21{fill:none;}.cls-12,.cls-2,.cls-3,.cls-6{fill:#fff;}.cls-2{stroke:#c2d9f0;}.cls-10,.cls-12,.cls-14,.cls-15,.cls-19,.cls-2,.cls-21,.cls-3{stroke-miterlimit:10;}.cls-14,.cls-3{stroke:#f7c689;}.cls-20,.cls-4,.cls-8{fill:#4b4065;}.cls-5{fill:#c2d9f0;}.cls-17,.cls-23,.cls-7{fill:#495894;}.cls-11,.cls-15,.cls-17,.cls-22,.cls-7,.cls-8{isolation:isolate;}.cls-7{opacity:0.26;}.cls-22,.cls-8{opacity:0.46;}.cls-9{fill:#b9c6e4;}.cls-10,.cls-19,.cls-20{stroke:#4b4065;}.cls-11,.cls-22{fill:#ef749b;}.cls-11{opacity:0.45;}.cls-12{stroke:#fbd7ad;}.cls-13{fill:#f7c689;}.cls-15{stroke:#f27932;opacity:0.85;}.cls-16{clip-path:url(#clip-path);}.cls-17{opacity:0.21;}.cls-18{fill:#f27932;}.cls-19,.cls-21{stroke-width:1.51px;}.cls-20{stroke-linejoin:round;stroke-width:0.38px;}.cls-21{stroke:#ed4f2e;}</style><clipPath id="clip-path" transform="translate(-47.1 -53.1)"><rect class="cls-1" x="449.8" y="284.4" width="262" height="152.6"/></clipPath></defs><polyline class="cls-2" points="0.5 218.7 0.5 113 262.5 113 262.5 265.7 125.3 265.7"/><rect class="cls-3" x="27.1" y="85.3" width="262" height="152.6"/><path class="cls-4" d="M257.4,141.5a14,14,0,0,1-4,16.1c-2.5,2-5.9,3-8.8,1.7s-4.3-4.7-4.9-7.9c-.9-4.8-1.1-14,4-16.9S255.4,137,257.4,141.5Z" transform="translate(-47.1 -53.1)"/><path class="cls-5" d="M191.9,229.8l8-66-1.9-2a21.19,21.19,0,0,1,.4-30,21,21,0,0,1,15.4-6l15.8.4a21.4,21.4,0,0,1,20.7,19.6c.2,3,.4,5.9.6,8.9,0,1.3,0,2.5.1,3.8.3,1.2,5.9,4.8,4.7,8.6a7.05,7.05,0,0,1-2.1,2.7c-2,1.9-1.8,3.8-1.7,6.3,0,2.7,0,5.4-.1,8.1s.2,7.1-1.6,9.3c-4.5,5.5-15.6,4.4-17.9,3.5l6.1,44.2C238.3,241.2,198.3,257.6,191.9,229.8Z" transform="translate(-47.1 -53.1)"/><path class="cls-4" d="M233.3,151.7c3.2-4.5,7.8-4.8,11.7-.7C241.1,151.3,237.2,151.5,233.3,151.7Z" transform="translate(-47.1 -53.1)"/><path class="cls-4" d="M233.7,151.9a7.36,7.36,0,0,1,5.3-3.4,7.85,7.85,0,0,1,5.7,2.8l.3-.6c-3.9.2-7.8.5-11.7.7a.4.4,0,0,0,0,.8c3.9-.2,7.8-.5,11.7-.7a.43.43,0,0,0,.4-.4c0-.1,0-.2-.1-.2a8.83,8.83,0,0,0-6.4-3,8.57,8.57,0,0,0-5.9,3.7C232.7,152,233.4,152.3,233.7,151.9Z" transform="translate(-47.1 -53.1)"/><path class="cls-6" d="M242.5,164.7l2.6-5.4a11.76,11.76,0,0,0-11.6-1.1C234,163.3,238.5,164.7,242.5,164.7Z" transform="translate(-47.1 -53.1)"/><path class="cls-4" d="M245.1,159.4c-1-.6-2-1.1-3-1.6a5.68,5.68,0,0,0-3.6,2,6.32,6.32,0,0,0-1,4,10.66,10.66,0,0,0,4.9.9Z" transform="translate(-47.1 -53.1)"/><path class="cls-4" d="M191.8,178.9c-9.2-6.5-14.9-16.9-14.3-28.3.1-1.9.2-7.5,1.8-8.8s5.8.1,8-.9c2.4-1.1,1.5-4,1.9-6.2a11.65,11.65,0,0,1,6-8.3c3.6-1.8,7.6-1.4,11.4-.9a21.45,21.45,0,0,0,10-1.5c1.3-.5,6.6-1.9,7.9-2.6,3.1-1.7,0-4.7,2.4-6.8,1.7-1.4,4.4-1.7,6.4-1.7a17,17,0,0,1,11.5,3.8c9.1,7.9,4.4,19.6,3.2,21.6,0,0-23.9,3.6-25.3,4.2-4.1,1.6-4.4,7.1-2.7,10.6.7,1.4,1.7,2.6,2.4,3.9a6.23,6.23,0,0,1,1.1,4.4c-.6,3.6-4.6,2.2-7.1,3.4a26.62,26.62,0,0,0-7.4,5.4c-2.5,2.5-4.7,5.4-7.6,7.6C198.8,180,194.9,181.1,191.8,178.9Z" transform="translate(-47.1 -53.1)"/><path class="cls-7" d="M221.4,177.9c-4.4,7.1-16.5,12-24.9,12.7l1.2-10.8C204.8,178.7,214.4,179.1,221.4,177.9Z" transform="translate(-47.1 -53.1)"/><path class="cls-6" d="M197.9,161.8l6.3-37.8,13-.5s-2.7,37-2.8,36.5S197.9,161.8,197.9,161.8Z" transform="translate(-47.1 -53.1)"/><path class="cls-8" d="M204.6,144.2a23.4,23.4,0,0,0-3.8.3l-2.9,17.3s16.3-2.2,16.4-1.8c0,.2.5-5.2,1-11.9A18,18,0,0,0,204.6,144.2Z" transform="translate(-47.1 -53.1)"/><path class="cls-9" d="M233.7,207.5c-9.2-2.5-14.8-9.5-19.4-17.9,5.5,3.5,11.7,5.4,17.9,7.4Z" transform="translate(-47.1 -53.1)"/><circle class="cls-6" cx="161" cy="113" r="17.6"/><circle class="cls-2" cx="161" cy="113" r="10.4"/><path class="cls-10" d="M221.4,177.9c8.1,2.2,16.4,5,24.4,7.2,3,.8,6.1,1.6,9.1,1.1s6-2.8,6.3-5.9" transform="translate(-47.1 -53.1)"/><circle class="cls-10" cx="214.3" cy="124.7" r="3"/><circle class="cls-11" cx="185.5" cy="121.7" r="7.4"/><polygon class="cls-12" points="352.3 64.8 245.2 64.8 245.2 126.7 245.2 130.2 245.2 157.5 276.2 130.2 352.3 130.2 352.3 64.8"/><circle class="cls-13" cx="280" cy="95.8" r="4.6"/><circle class="cls-13" cx="300.4" cy="95.8" r="4.6"/><circle class="cls-13" cx="320.7" cy="95.8" r="4.6"/><polygon class="cls-13" points="245.2 157.5 275.7 144.9 289.1 144.9 289.1 130.2 276.2 130.2 245.2 157.5"/><line class="cls-14" x1="43.7" y1="115.3" x2="131.5" y2="115.3"/><path class="cls-13" d="M246.5,291l-9.6-68.1s-49.1-12.2-50.3-10.8S158.9,291,158.9,291Z" transform="translate(-47.1 -53.1)"/><path class="cls-6" d="M251.2,175.1h-8.9c.7,3.9,3.4,7,7.3,7.1Z" transform="translate(-47.1 -53.1)"/><path class="cls-13" d="M235.6,219l-23.5-6.2-17.2-4.6c-3.7-1-8.2-2.9-12-3.1-8.3-.5-16.5,6.2-21.6,12.2a42.3,42.3,0,0,0-10.4,24.3,28.46,28.46,0,0,0,2.7,15.2c2.4,4.6,6.9,8.3,12,9.1,6.8,1,13.4-3.2,17.3-8.8s5.5-12.4,6.9-19.1a13.74,13.74,0,0,1,2.3-6.2c3.5-4.5,11.1-1.4,15.7-1.2,9.2.5,21,2.1,29.9-1.2C237.5,229.3,236.3,221.6,235.6,219Z" transform="translate(-47.1 -53.1)"/><path class="cls-15" d="M168,264.7c3.7-10.2,7.8-20.6,15.7-28.1s20.5-11,29.7-5.2c8.6,5.3,11.3,16.6,11.4,26.7s-1.9,20.4.4,30.2" transform="translate(-47.1 -53.1)"/><polyline class="cls-2" points="691.3 364.7 691.3 259 429.3 259 429.3 411.7 566.5 411.7"/><rect class="cls-6" x="402.7" y="231.3" width="262" height="152.6"/><g class="cls-16"><path class="cls-4" d="M537.2,369.7a11.64,11.64,0,0,1-3.3-16.1,14.29,14.29,0,0,1,3.2-3.3l3-1.9a11.55,11.55,0,0,0,3.8-3.5c2.1-3.8-.3-9.4-.3-13.6a26.08,26.08,0,0,1,3.9-13.3c6.2-9.8,18.9-15.4,29.8-18.2a57,57,0,0,1,37.1,3.1c7.1,3.3,13.7,8.3,17,15.5a24,24,0,0,1,1.5,13.8c-1,5.5-4,7.9-6.7,12.3a5.81,5.81,0,0,0-.7,4.8c.7,2.3,2.9,3.4,5,4.6l10.4,5.6a11.71,11.71,0,0,1,4.7,15.8,12.48,12.48,0,0,1-3.3,3.9,48.38,48.38,0,0,1-13.4,6.8c-10,3.3-20.7,3.8-31.2,4.1C590.8,390.3,558.3,383.6,537.2,369.7Z" transform="translate(-47.1 -53.1)"/></g><g class="cls-16"><path class="cls-9" d="M561.8,398.5l10.7-41.6-3.7-.5a12.61,12.61,0,0,1-11-13.8l2.1-19.4a37.83,37.83,0,0,1,1.7-6c3.9-10.4,11.3-15.7,21.3-16.9,9.3-1.1,20.3,0,29.3,7.3,19.6,15.8-.4,34.7-11.7,41.4l2.1,32.7L561.4,421Z" transform="translate(-47.1 -53.1)"/></g><g class="cls-16"><path class="cls-4" d="M600.8,354c-.5-3.9-.3-8.4-.7-12.3a17.28,17.28,0,0,0,7.8-3.2,8.08,8.08,0,0,0,3.3-7.4,6.69,6.69,0,0,0-5.6-5.5,7.06,7.06,0,0,0-4.1.8c-1.5.8-1.4,1.9-2.5,2.9a2,2,0,0,1-2,.7,3,3,0,0,1-1.6-1.5,9.34,9.34,0,0,1-.2-2.3,26.42,26.42,0,0,0-2.6-11.4c-7.6-16-29.3-10.8-32.4.9a26,26,0,0,1,15.7-14.9,46,46,0,0,1,21.8-1.6c6.8.9,13.8,2.8,19,7.1,7.8,6.5,10.3,18,7.2,27.6C620.8,343.8,610.2,350.5,600.8,354Z" transform="translate(-47.1 -53.1)"/></g><g class="cls-16"><path class="cls-9" d="M546.4,489.2l-20.8,8.1L506,495l-12.7-4.6s-5.9,4.8,14.3,16.4a2.28,2.28,0,0,1-.8,4.2l-19.2,3.6-11.9,2a3.13,3.13,0,0,0-2.5,3.6,3.5,3.5,0,0,0,.9,1.7h0l19.8-.5,35.6-.7,17.6-4.5" transform="translate(-47.1 -53.1)"/></g><g class="cls-16"><path class="cls-17" d="M572.2,356.9l14.2-.5c-5.6,4.8-12.1,9.8-17.7,14.7" transform="translate(-47.1 -53.1)"/></g><g class="cls-16"><path class="cls-18" d="M567.9,375.5,550,374c-7.1,0-13.9,4.4-18.4,9.9L494,428.8l-49.7-8.9-1.4,36.3,60.9,8.5a19.08,19.08,0,0,0,17.3-6.6l44.4-52.3" transform="translate(-47.1 -53.1)"/></g><g class="cls-16"><path class="cls-18" d="M559.7,395.1l-12,17.1a15.47,15.47,0,0,0,.3,18l10.5,14-1.1,20.7c-.5,1.8-.7,10.9-.7,10.9l74,10L608.8,380.6l-6.2-.8L567,414.2l1.1-38.5" transform="translate(-47.1 -53.1)"/></g><g class="cls-16"><path class="cls-18" d="M608.7,380.5l22,13a16.75,16.75,0,0,1,8.1,12.2l11,80.1a15.55,15.55,0,0,1-11.1,17.1l-92,32.2-11-43.8,14.7-4,59.8-20.6-9.9-51.1" transform="translate(-47.1 -53.1)"/></g><g class="cls-16"><path class="cls-6" d="M590.1,328a10.34,10.34,0,0,0-14.6-3.2,9.8,9.8,0,0,0-3.9,4.4A18.07,18.07,0,0,0,590.1,328Z" transform="translate(-47.1 -53.1)"/></g><g class="cls-16"><path class="cls-19" d="M571.7,329a10.45,10.45,0,0,1,14.1-4.8,11.85,11.85,0,0,1,4.4,3.9" transform="translate(-47.1 -53.1)"/></g><g class="cls-16"><path class="cls-19" d="M566.1,328.1l-2.8,2.6a1.78,1.78,0,0,0,0,2.6.36.36,0,0,0,.3.2,16.54,16.54,0,0,0,2.5,1.5" transform="translate(-47.1 -53.1)"/></g><g class="cls-16"><path class="cls-4" d="M582.2,328.6a8.74,8.74,0,0,0-.4-5.5c-.4-.1-.9,0-1.4-.1a10.52,10.52,0,0,0-8.9,5.9,16.59,16.59,0,0,0,9.3,2.1A4.62,4.62,0,0,0,582.2,328.6Z" transform="translate(-47.1 -53.1)"/></g><g class="cls-16"><path class="cls-20" d="M589.1,318.6a9.55,9.55,0,0,0-13.4-1.6l-.2.1C580.3,317.6,584.4,318,589.1,318.6Z" transform="translate(-47.1 -53.1)"/></g><g class="cls-16"><path class="cls-6" d="M567.4,343.1c4.9.1,6.5-1.9,10.4-4.9l-13.4-1.3-1,5.5Z" transform="translate(-47.1 -53.1)"/></g><g class="cls-16"><path class="cls-21" d="M559.7,395.1l-12,17.1a15.47,15.47,0,0,0,.3,18l10.5,14L556.6,476" transform="translate(-47.1 -53.1)"/></g><g class="cls-16"><path class="cls-4" d="M558.9,327.3a4.18,4.18,0,0,0,1.3-5.6,9.36,9.36,0,0,1,.4-1.6,5.61,5.61,0,0,1,1.1,5.7,5.38,5.38,0,0,1-3.1,3A9.92,9.92,0,0,1,558.9,327.3Z" transform="translate(-47.1 -53.1)"/></g><g class="cls-16"><polyline class="cls-21" points="503.5 434.2 563.3 413.6 553.6 362.5"/></g><rect class="cls-14" x="402.7" y="231.3" width="262" height="152.6"/><polygon class="cls-12" points="339.5 210.8 446.6 210.8 446.6 272.7 446.6 276.2 446.6 303.5 415.6 276.2 339.5 276.2 339.5 210.8"/><circle class="cls-13" cx="411.8" cy="241.8" r="4.6"/><circle class="cls-13" cx="391.4" cy="241.8" r="4.6"/><circle class="cls-13" cx="371.1" cy="241.8" r="4.6"/><polygon class="cls-13" points="446.6 303.5 416.1 290.9 402.7 290.9 402.7 276.2 415.6 276.2 446.6 303.5"/><line class="cls-14" x1="648.1" y1="261.3" x2="607.4" y2="261.3"/><rect class="cls-22" x="404.2" width="145.8" height="145.8"/><path class="cls-5" d="M84.7,343.3h79a21.1,21.1,0,0,1,21.1,21.1v67a21.1,21.1,0,0,1-21.1,21.1h-79a21.1,21.1,0,0,1-21.1-21.1v-67A21,21,0,0,1,84.7,343.3Z" transform="translate(-47.1 -53.1)"/><path class="cls-6" d="M519.7,159.9l1.1-25.2-21.2,13.5-6.3-10.8,22.3-11.5-22.3-11.5,6.3-10.8,21.2,13.8-1.1-25.2h12.4L531,117.4l21.2-13.8,6.3,10.8L536,125.9l22.5,11.5-6.3,10.8L531,134.6l1.1,25.2-12.4.1Z" transform="translate(-47.1 -53.1)"/><polygon class="cls-23" points="62.3 325.9 62.3 362.7 78.1 351.9 93.8 362.7 93.8 325.9 62.3 325.9"/><path class="cls-4" d="M599.9,287.5a6.91,6.91,0,0,0,1.6,6.7c5.3,6.6,21.5,14.6,20.7.2C621.5,285,604.1,277,599.9,287.5Z" transform="translate(-47.1 -53.1)"/><circle class="cls-11" cx="544.7" cy="286.9" r="7.4"/><path class="cls-13" d="M528.7,245.1a21.29,21.29,0,0,0,6.9-3,30.07,30.07,0,0,0-6.9-3,7.38,7.38,0,0,1-5.2-5.2,21.29,21.29,0,0,0-3-6.9,30.07,30.07,0,0,0-3,6.9,7.38,7.38,0,0,1-5.2,5.2,23.36,23.36,0,0,0-7.1,3,28.08,28.08,0,0,0,7.1,3,7.38,7.38,0,0,1,5.2,5.2,21.29,21.29,0,0,0,3,6.9,30.07,30.07,0,0,0,3-6.9A7.05,7.05,0,0,1,528.7,245.1Z" transform="translate(-47.1 -53.1)"/><path class="cls-13" d="M241.7,419.1a21.29,21.29,0,0,0,6.9-3,30.07,30.07,0,0,0-6.9-3,7.38,7.38,0,0,1-5.2-5.2,21.29,21.29,0,0,0-3-6.9,30.07,30.07,0,0,0-3,6.9,7.38,7.38,0,0,1-5.2,5.2,23.36,23.36,0,0,0-7.1,3,28.08,28.08,0,0,0,7.1,3,7.38,7.38,0,0,1,5.2,5.2,21.29,21.29,0,0,0,3,6.9,30.07,30.07,0,0,0,3-6.9A7.05,7.05,0,0,1,241.7,419.1Z" transform="translate(-47.1 -53.1)"/><circle class="cls-13" cx="208.4" cy="339.4" r="4.5"/></svg>