<svg id="Layer_1" data-name="Layer 1" xmlns="http://www.w3.org/2000/svg" viewBox="0 0 1354.22 1016.57"><defs><style>.cls-1{fill:#8197e5;}.cls-2{fill:#efb940;}.cls-3{fill:#2552c2;}.cls-4{fill:#04000a;}.cls-5{fill:#a97653;}.cls-6{fill:#feffff;}.cls-7{fill:#2e2543;}</style></defs><g id="_" data-name=" "><path d="M608.3,470.3H181.1a18.87,18.87,0,0,1-18.7-19V209.6a18.87,18.87,0,0,1,18.7-19H608.2a18.87,18.87,0,0,1,18.7,19V451.3A18.72,18.72,0,0,1,608.3,470.3ZM181.1,192.6a16.86,16.86,0,0,0-16.7,17V451.3a16.86,16.86,0,0,0,16.7,17H608.2a16.86,16.86,0,0,0,16.7-17V209.6a16.86,16.86,0,0,0-16.7-17Z" transform="translate(-119.2 -77.3)"/><path class="cls-1" d="M387.6,307.9l-30.7,17.4V290.1Z" transform="translate(-119.2 -77.3)"/><path class="cls-2" d="M215.8,404.3c-3.1,7.8,1.2,3.6,6,5.1s12.6,5.7,12.3,2.5-1-7.7,2-12.7-.1-5.3-2.2-5.3-7.7-.3-11.3-2.9-4.6-.7-4.6-.7A30.07,30.07,0,0,1,215.8,404.3Z" transform="translate(-119.2 -77.3)"/><path class="cls-3" d="M323.2,362.2H567.5v24.3H323.2Z" transform="translate(-119.2 -77.3)"/><path class="cls-3" d="M316.6,511h23.8v81.8H316.6Z" transform="translate(-119.2 -77.3)"/><path class="cls-1" d="M354.5,540.1h25.3v52.1H354.5Z" transform="translate(-119.2 -77.3)"/><path class="cls-2" d="M391.7,563.1h23.7v28.8H391.7Z" transform="translate(-119.2 -77.3)"/><path class="cls-1" d="M428.4,139h91.5v21.8H428.4V139Z" transform="translate(-119.2 -77.3)"/><path class="cls-2" d="M411,435.7a10.4,10.4,0,1,1,10.4,10.4A10.39,10.39,0,0,1,411,435.7Z" transform="translate(-119.2 -77.3)"/><path class="cls-3" d="M441,435.2a10.4,10.4,0,1,1,10.4,10.4A10.39,10.39,0,0,1,441,435.2Z" transform="translate(-119.2 -77.3)"/><path class="cls-1" d="M387.6,307.9l-30.7,17.4V290.1Z" transform="translate(-119.2 -77.3)"/><path class="cls-2" d="M215.8,404.3c-3.1,7.8,1.2,3.6,6,5.1s12.6,5.7,12.3,2.5-1-7.7,2-12.7-.1-5.3-2.2-5.3-7.7-.3-11.3-2.9-4.6-.7-4.6-.7A30.07,30.07,0,0,1,215.8,404.3Z" transform="translate(-119.2 -77.3)"/><path class="cls-3" d="M323.2,362.2H567.5v24.3H323.2Z" transform="translate(-119.2 -77.3)"/><path class="cls-3" d="M316.6,511h23.8v81.8H316.6Z" transform="translate(-119.2 -77.3)"/><path class="cls-1" d="M354.5,540.1h25.3v52.1H354.5Z" transform="translate(-119.2 -77.3)"/><path class="cls-2" d="M391.7,563.1h23.7v28.8H391.7Z" transform="translate(-119.2 -77.3)"/><path class="cls-1" d="M428.4,139h91.5v21.8H428.4V139Z" transform="translate(-119.2 -77.3)"/><path class="cls-2" d="M411,435.7a10.4,10.4,0,1,1,10.4,10.4A10.39,10.39,0,0,1,411,435.7Z" transform="translate(-119.2 -77.3)"/></g><g id="Layer_2" data-name="Layer 2"><path class="cls-3" d="M929.5,732.4c13.7-2.8,27.6-12.3,45.6-27.3s19.4-36.6,19.4-36.6c2.7-10.8-20.8-132.8-20.8-132.8l-217.3-.5c-15.8,22.9,6,33.7,6,33.7l175.9.7c25,129.9-57.8,157.7-57.8,157.7Z" transform="translate(-119.2 -77.3)"/><path d="M706.9,986.6h-1a.91.91,0,0,1-.8-.4.83.83,0,0,1-.2-.8l4-22.1a.68.68,0,0,1,.4-.6,1.08,1.08,0,0,1,.8-.2c9.8,1.9,33.5,14.4,34.5,14.9a1,1,0,0,1,.5.8,1.09,1.09,0,0,1-.4.9C735.6,986.2,712.1,986.6,706.9,986.6Zm3.9-22-3.6,19.9c5.2,0,25.8-.5,35.1-6.2C737.1,975.6,719.4,966.7,710.8,964.6Z" transform="translate(-119.2 -77.3)"/><path d="M666,978.1c-12.4,0-22.4,12.2-22.4,27.3s10,27.3,22.4,27.3,22.4-12.2,22.4-27.3S678.3,978.1,666,978.1Zm0,2c11.5,0,20.7,11.3,20.7,25.3s-9.3,25.3-20.7,25.3-20.7-11.3-20.7-25.3S654.5,980.1,666,980.1Z" transform="translate(-119.2 -77.3)"/><path d="M1066.9,731.1a1.06,1.06,0,0,1-1-.9l-31.1-329.6a.75.75,0,0,1,.1-.5c.4-.7,38.1-75.1,137.9-144.7,20.9-14.6,90.9-4.5,136.5,26.3,25.4,17.2,53.6,47.2,43.1,93,0,.1-.1.2-.1.3L1204.8,620.8c-1.8,5.6-32.6,102.1-58.1,109.2h-.3l-79.5,1.1Zm-30.1-330.4,31,328.4,78.3-1.1c24.7-7.2,56.4-107,56.7-108,0-.1.1-.1.1-.2L1350.4,374c10.1-44.6-17.4-73.9-42.3-90.7-45-30.4-113.8-40.6-134.2-26.3C1077.5,324.2,1039.3,395.9,1036.8,400.7Z" transform="translate(-119.2 -77.3)"/><path d="M1100.1,612.1c4.7,1.4,17.6,16.3,17.6,16.3a36,36,0,0,1-18.9-.9C1097.6,625.4,1100.1,612.1,1100.1,612.1Z" transform="translate(-119.2 -77.3)"/><path class="cls-1" d="M942.5,513.4S734.1,601.1,701.4,640.6c-21.8,21-67.4,129.6-67.4,129.6L528.9,891.5c58.3,35.4,125.8,149.3,125.8,149.3l48.9-79.7,41.5,18.7,17.8-115.4,68.9-112.1,47.8-4.6,168.6-8.7,16.7-8.1c48.6-14.7,35.7-126.6,35.7-126.6C1069.6,557,942.5,513.4,942.5,513.4Z" transform="translate(-119.2 -77.3)"/><path class="cls-2" d="M976.4,387.5s74.4-67,103.1-74.5c39.8-.8,54.7,9.6,54.7,9.6-4-8.5.9-9.3.9-9.3,14-6.8,23.9,17.4,23.9,17.4l-3.8,40.6,48.7-20.3c23-5.1,30.8,6.3,30.8,6.3,10.2,3.2,18.8,5,25.8,7.9,16.8,6.9,36.3,21,34.5,37.4-2.5,23-31.2,48.6-31.2,48.6L1117.5,628.4c-15.7-17.4-56.2-44.2-95.4-63.3-57.2-27.9-101-42.6-101-42.6l47.6-58.9L856.9,440l15.9-63Z" transform="translate(-119.2 -77.3)"/><path class="cls-4" d="M1223.8,321.6l-3.4,5.3c12,4,13.1-3.2,13.1-3.2,11.3-1.5,11.3-14.4,11.3-14.4,7.4-1.4,5.9-8.2,5.9-8.2,6.4-3.3.6-12.3.6-12.3,3.4-7.3-2.3-11.1-2.3-11.1-1.4-9.4-9.9-9.7-9.9-9.7-4.3-9.3-18.7-7.1-18.7-7.1-8.3-5.5-16.7,1.5-16.7,1.5-10.7-5.7-15.3,5.1-15.3,5.1-4,.8-4.5,3.4-4.5,3.4Z" transform="translate(-119.2 -77.3)"/><path class="cls-5" d="M1197.1,268.3c3.7-.6,9.8-.5,19.2,4.3,13.6,7,15,19.8,15.2,26.6a13.8,13.8,0,0,1-.7,4.7c9.7,3.1,6.2,9.8,1.1,14.4-1.7,1.6-6.7,1.6-6.7,1.6l-21.6,31.9-49.2,20.8,3.9-40.9,13.4-13.3c-8.4-5.3-2.1-19,1.3-24.2s17.9-23.8,17.9-23.8A19.82,19.82,0,0,1,1197.1,268.3Z" transform="translate(-119.2 -77.3)"/><path class="cls-6" d="M1180.4,308.6c5.8,2.7,15.1-1.4,15.1-1.4l-12.8-8.1C1180.1,301.4,1178.1,307.6,1180.4,308.6Z" transform="translate(-119.2 -77.3)"/><path class="cls-6" d="M1187,269.9s23.7,1,40.4,25.6c0,0-5,7.7-12.6,6.6s-21.7-10.8-23.3-10.8-19.4-5.5-16.7-12C1177.6,272.6,1187,269.9,1187,269.9Z" transform="translate(-119.2 -77.3)"/><path class="cls-4" d="M1192.1,291.8s18.5,9.4,23.2,10.4,12-6.8,12-6.8l5.4,9-4.3.4-2.4-1.4s-7.7,3.8-11.7,4.7-18.3-6.8-19.3-7.3-4.1-5.6-4.1-5.6a15.91,15.91,0,0,0-5.3-.8c-2.7.1-10.4-3.5-12.1-6.1s.9-7.1.9-7.1C1175,284.8,1192.1,291.8,1192.1,291.8Z" transform="translate(-119.2 -77.3)"/><path class="cls-5" d="M984.1,451.4l-4.1,4.2c-3-1.7-18.7-8.8-35.2-13.5s-13-1-16.2,2.5.7,9.3.7,9.3c-11.9,1.8-9.3,12.6-9.3,12.6-5.2.2-9.6,4.5-10.5,7.8s8.7,14.8,8.7,14.8c-13.3-6.2-14.6-.2-14.6-.2-12.5,12,30.7,27.6,33.6,28.8s7.7-6.1,7.7-6.1l35.8,13.7c8.3-5.5,32.4-66.6,32.4-66.6Z" transform="translate(-119.2 -77.3)"/><path class="cls-5" d="M828.6,360c-7.6-3.1-29.1-2.3-29.1-2.3-22.1,2.7-20.8,7.4-19.7,11.5s12.1,4.3,12.1,4.3c-10.3,7.7-.3,11.7-.3,11.7-25,9.5-9.3,16.7-9.3,16.7-10.5,9.7-1.3,13.3-1.3,13.3-11.1,25.6,33.8,19,36.5,19a27.94,27.94,0,0,0,4.4-.3l36.5-.3,14-54.5C872.4,379,836.2,363.1,828.6,360Z" transform="translate(-119.2 -77.3)"/><path class="cls-3" d="M1177.7,735.6c13.7-2.8,27.6-12.3,45.6-27.3s19.4-36.6,19.4-36.6c2.7-10.8-20.8-132.8-20.8-132.8l-217.3-.5c-15.8,22.9,6,33.7,6,33.7l175.9.7c25,129.9-57.8,157.7-57.8,157.7Z" transform="translate(-119.2 -77.3)"/><path class="cls-2" d="M1468.5,333.8c3.2.9,3.2,2.9,3.1,3.8s-5.9,3.4-9.8,9.2-5,2.8-5.3,2.3-7.6-8.9-9.6-9.8a2.75,2.75,0,0,1-1.8-2.8,87.25,87.25,0,0,0,8.1-5.2c2.5-1.9,4.6-7.8,4.6-7.8C1458.9,322.6,1463.2,332.3,1468.5,333.8Z" transform="translate(-119.2 -77.3)"/><path class="cls-3" d="M1067.2,162.2a14.4,14.4,0,1,1,14.4,14.4A14.4,14.4,0,0,1,1067.2,162.2Z" transform="translate(-119.2 -77.3)"/><path d="M996,901.2a1.2,1.2,0,0,0-.8.2l-167,112.7a.91.91,0,0,0-.4.8v29.8a1,1,0,0,0,2,0v-29.2L996.3,903a1,1,0,0,0,.3-1.4A.82.82,0,0,0,996,901.2Z" transform="translate(-119.2 -77.3)"/><path d="M1022.7,901.2a1,1,0,0,0-.7.4,1,1,0,0,0,.3,1.4l166.6,112.5v29.2a1,1,0,0,0,1,1,.94.94,0,0,0,1-1v-29.8a1.23,1.23,0,0,0-.4-.8l-167-112.7A.88.88,0,0,0,1022.7,901.2Z" transform="translate(-119.2 -77.3)"/><path d="M828.1,1043.6a23.2,23.2,0,1,0,23.2,23.2A23.22,23.22,0,0,0,828.1,1043.6Zm0,2a21.2,21.2,0,1,1-21.2,21.2A21.21,21.21,0,0,1,828.1,1045.6Z" transform="translate(-119.2 -77.3)"/><path d="M1010,1043.6a23.2,23.2,0,1,0,23.2,23.2A23.22,23.22,0,0,0,1010,1043.6Zm0,2a21.2,21.2,0,1,1-21.2,21.2A21.21,21.21,0,0,1,1010,1045.6Z" transform="translate(-119.2 -77.3)"/><path d="M1190.5,1043.6a23.2,23.2,0,1,0,23.2,23.2A23.22,23.22,0,0,0,1190.5,1043.6Zm0,2a21.2,21.2,0,1,1-21.2,21.2A21.21,21.21,0,0,1,1190.5,1045.6Z" transform="translate(-119.2 -77.3)"/><path d="M1010,900a1.08,1.08,0,0,0-1,1l.5,142.9a1,1,0,0,0,1,1,1.08,1.08,0,0,0,1-1L1011,901A.94.94,0,0,0,1010,900Z" transform="translate(-119.2 -77.3)"/><path d="M1010,1053.8a13,13,0,1,0,13,13A13,13,0,0,0,1010,1053.8Z" transform="translate(-119.2 -77.3)"/><path d="M1189.8,1053.8a13,13,0,1,0,13,13A13,13,0,0,0,1189.8,1053.8Z" transform="translate(-119.2 -77.3)"/><path d="M828.3,1053.8a13,13,0,1,0,13,13A13,13,0,0,0,828.3,1053.8Z" transform="translate(-119.2 -77.3)"/><path d="M614.8,980.4c3.6,3.2,40.4,58.6,40.4,58.6-9.6-.3-47.2-49-47.2-49Z" transform="translate(-119.2 -77.3)"/><path d="M1186.2,269.4h-.2a1.69,1.69,0,0,0-.5.2c-.4.2-.9.4-1.3.6-1.4.7-2.8,1.5-4.1,2.3-4.5,2.9-6.9,6-6.1,9.3a4.84,4.84,0,0,0,1.4,2.2,27.39,27.39,0,0,0,6.3,3.8c1.1.5,7.6,3.5,9.6,4.5,1,.5,2.2,1.1,3.7,1.9.7.3,3.4,1.8,4.1,2.2,1.1.6,2,1.1,2.9,1.5,7.1,3.6,11.8,5.2,15,4.4a28.84,28.84,0,0,0,6.8-2.5c3-1.8,4-3.7,3.7-5.4,0-.1,0-.2-.1-.2l-.3-.6a10.93,10.93,0,0,0-.8-1.5,20.92,20.92,0,0,0-3.6-4.5l-.6-.6C1210.9,276.5,1196.5,268.5,1186.2,269.4Zm.2,1.6c9.8-.8,23.8,7,34.6,17.1.2.2.4.3.5.5a21.47,21.47,0,0,1,3.3,4.3c.3.5.6,1,.8,1.4a1.69,1.69,0,0,1,.2.5,2.18,2.18,0,0,1-.2,1.3,6.63,6.63,0,0,1-2.7,2.5,23.93,23.93,0,0,1-6.4,2.4c-2.8.7-7.2-.8-14-4.3-.9-.5-1.8-.9-2.9-1.5-.7-.4-3.4-1.8-4.1-2.2-1.5-.8-2.7-1.4-3.8-1.9-2-1-8.4-3.9-9.5-4.5a26.1,26.1,0,0,1-6-3.6,2.82,2.82,0,0,1-1-1.4c-.6-2.4,1.5-5.1,5.4-7.6a31.13,31.13,0,0,1,4-2.2c.5-.2.9-.4,1.3-.6S1186.3,271,1186.4,271Z" transform="translate(-119.2 -77.3)"/><path d="M1173.9,280.6c-.2,0-.3.1-.5.3a1.38,1.38,0,0,0-.3.4,10.91,10.91,0,0,0-.6,1.1,8.62,8.62,0,0,0-.9,3.4,4.19,4.19,0,0,0,.5,2.2c.9,1.9,4.5,4.3,11,6.9a7.59,7.59,0,0,0,3.6.4,7.33,7.33,0,0,1,3.4.5c.6.3,1.3,1.1,2.5,2.8,1.4,1.9,1.9,2.6,2.7,3.1,5,3.3,15.3,6.9,19.3,6.7a21.4,21.4,0,0,0,8.8-2.5,18.92,18.92,0,0,0,2.8-1.7,1.38,1.38,0,0,0,.4-.3l.9,1a.78.78,0,1,0,1.1-1.1l-1.4-1.5a.78.78,0,0,0-1.1,0l-.2.2a4.23,4.23,0,0,1-.7.5,27.21,27.21,0,0,1-2.5,1.6,20,20,0,0,1-8.2,2.3c-3.7.2-13.6-3.3-18.4-6.4a10,10,0,0,1-2.3-2.7c-1.4-2-2.1-2.8-3.1-3.3a8,8,0,0,0-4.1-.7,6.42,6.42,0,0,1-3.1-.4c-6.2-2.5-9.5-4.7-10.2-6.2a3.34,3.34,0,0,1-.3-1.5,6.3,6.3,0,0,1,.8-2.8,9.25,9.25,0,0,0,.5-1c.1-.2.2-.3.2-.4a.68.68,0,0,0-.2-1C1174.3,280.6,1174.1,280.6,1173.9,280.6Z" transform="translate(-119.2 -77.3)"/><path d="M1214.4,349a55.1,55.1,0,0,0-7,.6c-.8.1-1.6.3-2.3.4a4.5,4.5,0,0,1-.8.2.65.65,0,0,0-.5.9.72.72,0,0,0,.9.5c.1,0,.4-.1.8-.2.7-.1,1.4-.3,2.2-.4a40.2,40.2,0,0,1,13.4-.1,19.63,19.63,0,0,1,10.5,5.1c4.1,4,3.4,8-1.4,11.5-4.6,3.3-12.3,5.7-20,6.1-5.4.3-13.8,1-24.6,1.9l-30.8,2.7a.75.75,0,0,0,.1,1.5l30.8-2.7c10.7-.9,19.2-1.5,24.5-1.9,8.1-.5,16.1-2.9,20.9-6.4,5.5-4,6.4-9,1.6-13.8-2.9-2.9-6.7-4.6-11.3-5.5A41.11,41.11,0,0,0,1214.4,349Z" transform="translate(-119.2 -77.3)"/><path d="M1138.3,311.6c-5.4.4-8.5,4.6-5.9,9.9,1.5,3.1,3.3,8.5,5.4,15.7.8,2.8,1.7,5.9,2.5,9.2,1.6,6.1,3.3,12.7,4.8,19.3.5,2.3,2,8.6,2,8.8a.76.76,0,1,0,1.5-.3c0-.1-1.5-6.5-2.1-8.8-1.6-6.6-3.2-13.2-4.8-19.3-.9-3.3-1.7-6.4-2.6-9.2a115.66,115.66,0,0,0-5.5-16c-2.4-4.9,1-8.4,6.8-7.7,6.9.9,13.8,7.2,17.4,18a.79.79,0,0,0,1.5-.5c-3.8-11.3-11.1-18-18.6-19A9.66,9.66,0,0,0,1138.3,311.6Z" transform="translate(-119.2 -77.3)"/><path d="M1157.7,378.5a.55.55,0,0,0-.5.3s-.6.7-.8,1c-.6.8-1.2,1.8-1.9,2.9a109,109,0,0,0-5.8,10.2,94.27,94.27,0,0,0-5.3,12.4c-.5,1.4-1,2.9-1.5,4.6s-2,6.5-2.1,7.1-1,3.5-1.3,4.4c-4.5,15.1-7.7,22.9-11.8,26.9a.78.78,0,1,0,1.1,1.1c4.3-4.3,7.5-12.1,12.1-27.6.3-.9,2.9-9.8,3.4-11.4s1-3.2,1.5-4.6a107.65,107.65,0,0,1,5.2-12.3c1.8-3.6,3.8-7,5.7-10.1.7-1.1,1.3-2,1.9-2.8.2-.3.7-1,.7-1a.73.73,0,0,0-.2-1.1A.48.48,0,0,0,1157.7,378.5Z" transform="translate(-119.2 -77.3)"/><path d="M1146.6,371.9a.78.78,0,0,0-.4.4c0,.1-2.1,5-2.8,6.8-2.2,5.3-4.4,11.1-6.6,17.1-5.3,14.5-21.8,45.2-25.7,47.7a.72.72,0,1,0,.8,1.2c4.3-2.7,20.8-33.6,26.3-48.4q3.3-9,6.6-17.1c.8-1.9,2.8-6.7,2.8-6.8a.73.73,0,0,0-.4-1A1.27,1.27,0,0,0,1146.6,371.9Z" transform="translate(-119.2 -77.3)"/><path d="M947.2,511.1a.76.76,0,1,0-.6,1.4c.1,0,15.7,5.9,21.4,8.1,16.2,6,32.7,12.1,48.6,17.7a4.87,4.87,0,0,1,1.1.4h4.5c-1.7-.6-3.3-1.2-5-1.8-15.9-5.6-32.4-11.6-48.6-17.7Z" transform="translate(-119.2 -77.3)"/><path d="M1263.2,451.7c-9.7,10.2-21.3,21.4-34.6,33.2-33.8,30-41.3,39.3-65.5,52.6-.4.2-.3,1-.3,1s.6.5,1,.3c24.3-13.3,31.9-22.7,65.8-52.8,13.1-11.7,24.6-22.7,34.3-32.8Z" transform="translate(-119.2 -77.3)"/><path d="M1193.4,416a1.27,1.27,0,0,0-.6.1l-87.7,65.4L984,450.8a.78.78,0,0,0-.9.6.72.72,0,0,0,.5.9l121.5,30.8a.66.66,0,0,0,.6-.1l88-65.6a.89.89,0,0,0,.2-1.1A2.19,2.19,0,0,0,1193.4,416Z" transform="translate(-119.2 -77.3)"/><path d="M934.4,439.4c-2.8.1-4.7.8-5.7,2.3-2.8,4.1-2.8,7.9-.7,11.4,1.6,2.6,3.7,4.5,8.8,8.4a8.11,8.11,0,0,1,.8.6c2.4,1.8,10.2,5.6,18,8.6,10,3.8,18.8,5.9,24.6,5.6,10.1-.6,10.3-12,.6-20.6a.35.35,0,0,0-.2-.1c-.1,0-1-.5-1.4-.7-1.1-.6-2.4-1.2-3.8-1.8-4-1.9-8.2-3.8-12.5-5.5-2.8-1.2-5.6-2.3-8.2-3.2C946,441.1,939,439.3,934.4,439.4Zm.6,1.6c4.3.1,10.9,1.7,19.2,4.8,2.6,1,5.3,2,8.2,3.2,4.2,1.8,8.4,3.6,12.4,5.5,1.4.7,4.5,2.2,4.8,2.3a.37.37,0,0,0,.3.1c8.8,7.9,8.5,17.5.2,18-5.5.3-14.2-1.8-24-5.5-7.7-2.9-15.4-6.7-17.7-8.4a8.11,8.11,0,0,0-.8-.6c-4.9-3.7-7-5.6-8.4-8-1.9-3.1-1.8-6.1.7-9.8C930.7,441.4,932.4,440.9,935,441Z" transform="translate(-119.2 -77.3)"/><path d="M931.7,439.5a.78.78,0,0,0-.4.4.69.69,0,0,0,.3,1,13.62,13.62,0,0,1,3.4,2.5c3.3,3.2,2.7,6.6-.4,9.9-.6.6-1.2,1.2-1.8,1.7-.2.2-.4.3-.6.5a.31.31,0,0,1-.2.1.89.89,0,0,0-.2,1.1.78.78,0,0,0,1,.2c.2-.1.5-.4.9-.7a17.5,17.5,0,0,0,2-1.9c3.5-3.9,4.3-8.1.3-12a15.38,15.38,0,0,0-3.7-2.7A.48.48,0,0,0,931.7,439.5Z" transform="translate(-119.2 -77.3)"/><path d="M927.4,453.4a.64.64,0,0,0-.6,0c-10.6,5.2-9.7,12.6,0,20.8,7.2,6,18.9,12.3,31.5,17.6,10,4.2,15.5.9,17.3-7a25.4,25.4,0,0,0,.5-7.7v-.8a.75.75,0,1,0-1.5.1v.7a22.7,22.7,0,0,1-.5,7.3c-1.6,7.1-6.1,9.8-15.2,6-12.4-5.2-24.1-11.4-31.1-17.3-9-7.6-9.7-13.6-.3-18.3a.69.69,0,0,0,.3-1C927.7,453.6,927.5,453.4,927.4,453.4Z" transform="translate(-119.2 -77.3)"/><path d="M925.3,455.5a.55.55,0,0,0-.5.3.79.79,0,0,0,.1,1.1c5.5,4.6,5.5,8.3,2.2,11.4a6.1,6.1,0,0,1-1.6,1.2,2.74,2.74,0,0,1-.7.4.74.74,0,0,0,.7,1.3,9.22,9.22,0,0,0,.8-.5,22,22,0,0,0,1.8-1.4c3.9-3.7,3.9-8.5-2.3-13.7A.75.75,0,0,0,925.3,455.5Z" transform="translate(-119.2 -77.3)"/><path d="M918.9,465.4c-7.2,1.9-10.4,5.4-9.7,10,.6,3.9,3.8,8.4,9.2,13.4,8.7,8,23.5,17,30.1,18.9,5.5,1.6,10.2-1.3,13.9-7.1a49.7,49.7,0,0,0,2.7-5.1c.3-.6.5-1.1.7-1.6a2.54,2.54,0,0,0,.2-.7.73.73,0,1,0-1.4-.4,3.93,3.93,0,0,1-.2.6c-.2.5-.4,1-.6,1.6a27.73,27.73,0,0,1-2.6,4.8c-3.4,5.3-7.5,7.9-12.2,6.5-6.4-1.9-21-10.7-29.5-18.6-5.2-4.7-8.3-9-8.8-12.5-.5-3.8,2.1-6.6,8.6-8.4a.73.73,0,1,0-.4-1.4Z" transform="translate(-119.2 -77.3)"/><path d="M915.9,466.8c-.2,0-.4,0-.5.2a.78.78,0,0,0,0,1.1c4.7,5,4.4,9.1,1.1,12.4a11.51,11.51,0,0,1-1.7,1.4,9.22,9.22,0,0,1-.8.5.74.74,0,0,0,.7,1.3c.2-.1.5-.3.9-.5a9.5,9.5,0,0,0,1.9-1.6c3.8-3.9,4.2-8.8-1-14.5A.6.6,0,0,0,915.9,466.8Z" transform="translate(-119.2 -77.3)"/><path d="M909.7,485.5a12.89,12.89,0,0,0-2.8.1c-4,.6-6.3,3.6-6,8.5.3,4.7,5.6,9.5,14.6,14.5a161.88,161.88,0,0,0,19.3,8.8c3.9,1.5,7.3-.8,10.1-5.4a28.68,28.68,0,0,0,2-3.9,11.22,11.22,0,0,0,.5-1.3,1.69,1.69,0,0,0,.2-.5.73.73,0,0,0-1.4-.4c0,.1-.1.2-.2.4a6.12,6.12,0,0,1-.5,1.2,25.83,25.83,0,0,1-1.9,3.7c-2.5,4.1-5.2,6-8.3,4.8a138.74,138.74,0,0,1-19.1-8.7c-8.5-4.7-13.5-9.3-13.8-13.3-.3-4.2,1.5-6.4,4.7-6.9s7.3.7,11.1,3.1a.72.72,0,1,0,.8-1.2A18.8,18.8,0,0,0,909.7,485.5Z" transform="translate(-119.2 -77.3)"/><path d="M903.5,487.3c-.2,0-.5.3-.5.3l.2,1s6.1,5.1,6.7,7.5a5.15,5.15,0,0,1-1,4.5,6,6,0,0,1-.8.8q-.3.15-.3.3a.78.78,0,0,0-.2,1,.89.89,0,0,0,1.1.2,7,7,0,0,0,1.5-1.5c3.1-4,2.3-8.7-6-14.1C903.9,487.3,903.7,487.2,903.5,487.3Z" transform="translate(-119.2 -77.3)"/><path d="M1012.1,459.2a1,1,0,0,0-1,.4c0,.1-.8,2.1-1.1,2.8-.9,2.3-1.8,4.8-2.9,7.5-3,7.7-6.2,15.5-9.4,22.7-2.1,4.7-4.1,9-6,12.8-4.5,9.1-8.4,15.4-11.5,18.3a.78.78,0,0,0,1.1,1.1c3.2-3,7.2-9.4,11.8-18.7q2.85-5.85,6-12.9c3.2-7.3,6.4-15,9.4-22.8,1.1-2.7,2-5.2,2.9-7.5.3-.8,1-2.7,1.1-2.9S1012.5,459.3,1012.1,459.2Z" transform="translate(-119.2 -77.3)"/><path d="M1062.7,373.6a.76.76,0,0,0-.5.2l-83.8,81.8a.78.78,0,0,0,1.1,1.1l83.8-81.8a.78.78,0,0,0,0-1.1A1.42,1.42,0,0,0,1062.7,373.6Z" transform="translate(-119.2 -77.3)"/><path d="M804.7,356.6c-2.6.1-5.1.2-7.6.5-10.8,1.2-18.1,4.1-18.9,8.5s2.3,6.9,8.4,8c4.5.8,10,.8,19.3.4a.75.75,0,0,0-.1-1.5c-9.3.4-14.6.4-19-.3-5.5-.9-7.9-2.9-7.2-6.2,1.3-7.1,29.4-10.3,45.6-5.9a159.29,159.29,0,0,1,19.1,7.1c1.7.7,3.4,1.5,5.2,2.3,5.1,2.3,10.3,4.7,15.3,7.1,1.8.9,6.5,3.2,6.6,3.2a.74.74,0,1,0,.7-1.3c-.1,0-4.9-2.4-6.6-3.2-5-2.4-10.3-4.9-15.4-7.2-1.8-.8-3.5-1.5-5.2-2.3a170.53,170.53,0,0,0-19.3-7.2C820.1,357,812.4,356.3,804.7,356.6Z" transform="translate(-119.2 -77.3)"/><path d="M795.2,357.4a.72.72,0,0,0-.5.9.37.37,0,0,0,.1.3c.1.3.1.6.2.9a12.22,12.22,0,0,1,.3,2.6c0,1.9-.5,3-1.7,3.2-4.3.9-12.2.9-13.5-.1a.79.79,0,0,0-1.1.1.67.67,0,0,0,.1,1c1.9,1.5,10,1.5,14.8.4,2-.4,2.9-2.2,2.9-4.7a15,15,0,0,0-.3-2.9,3.55,3.55,0,0,1-.2-1c0-.2-.1-.3-.1-.4A1.11,1.11,0,0,0,795.2,357.4Z" transform="translate(-119.2 -77.3)"/><path d="M806.8,372.2a.75.75,0,0,0-.1,1.5c.1,0,1.1.1,1.6.1,1.2.1,2.6.2,4.1.3,4.3.4,8.6.9,12.5,1.6,8.7,1.6,14.8,3.8,16.9,6.6,2.4,3.1,1.8,6.1-1.3,8.4a14.79,14.79,0,0,1-11.3,2.3c-1.1-.3-15.2-2.2-20.3-3.2-8.4-1.6-14.6-3.4-18-5.7-3.9-2.6-3.8-5.5,1.1-9.5a.78.78,0,0,0,.1-1.1.71.71,0,0,0-1.1-.1c-5.7,4.6-5.7,8.7-1,11.9,3.6,2.4,9.9,4.3,18.5,6,5.1,1,19.1,2.9,20.2,3.2a16.51,16.51,0,0,0,12.5-2.5c3.7-2.7,4.6-6.7,1.6-10.5-2.4-3.2-8.7-5.5-17.8-7.2-4-.7-8.4-1.3-12.7-1.7l-4.2-.3C807.9,372.3,806.8,372.2,806.8,372.2Z" transform="translate(-119.2 -77.3)"/><path d="M835.7,384.5c-3.7.1-6.2,1.7-7.6,4.4a9.78,9.78,0,0,0-.9,2.9,8.64,8.64,0,0,0-.1,1.5h0a.71.71,0,0,0,.8.7.86.86,0,0,0,.8-.8,7.5,7.5,0,0,1,.1-1.2,6.81,6.81,0,0,1,.8-2.4c1.8-3.7,6.1-4.9,13.9-2.1a1,1,0,0,0,1-.4.88.88,0,0,0-.5-1A22.54,22.54,0,0,0,835.7,384.5Z" transform="translate(-119.2 -77.3)"/><path d="M791.4,385.5c-10.1.1-17.6,8-14.2,13.9,2,3.5,16.5,7,33.7,8.8,18.1,1.9,31.9,1.1,34-2.9,2.2-4.2.7-7.8-2.9-10.5a14,14,0,0,0-2.6-1.6,5.9,5.9,0,0,0-.8-.4.77.77,0,0,0-.3-.1.76.76,0,0,0-.6,1.4.44.44,0,0,0,.3.1,5.9,5.9,0,0,1,.8.4c.8.4,1.6.9,2.4,1.4,3.1,2.3,4.3,5.1,2.5,8.6-1.6,3.1-15.3,3.8-32.4,2-16.5-1.7-30.9-5.2-32.6-8-2.7-4.7,3.8-11.5,12.9-11.6a.71.71,0,0,0,.7-.8A.88.88,0,0,0,791.4,385.5Z" transform="translate(-119.2 -77.3)"/><path d="M834.7,398.9a3.75,3.75,0,0,0-1,.1,5.23,5.23,0,0,0-4.8,4.6,12.31,12.31,0,0,0-.2,3.8,2,2,0,0,0,.1.5.78.78,0,0,0,.9.6c.4-.1.7-.4.6-.8v-.4a9.06,9.06,0,0,1,.2-3.3c.4-2,1.5-3.3,3.5-3.5.3,0,.6-.1.9-.1a20.71,20.71,0,0,1,7.2,1.1,10.23,10.23,0,0,1,2.1.8c.2.1.8.3.8.3a.76.76,0,1,0,.6-1.4s-.6-.3-.9-.4c-.7-.3-1.4-.5-2.3-.8A23.52,23.52,0,0,0,834.7,398.9Z" transform="translate(-119.2 -77.3)"/><path d="M782.7,401.2a.73.73,0,0,0-.6.2c-.2.1-.4.4-.8.7-.6.5-1.1,1.2-1.7,1.8-2.1,2.6-3.1,5.3-2.3,7.9.7,2.2,2.8,4,6.1,5.6,6,2.7,18.2,4.4,30.7,4.5,12.7.2,21.7-1.2,22.3-4.1a10.54,10.54,0,0,0-1.4-7.3,6.45,6.45,0,0,0-1.1-1.6,3.81,3.81,0,0,0-.5-.6.78.78,0,1,0-1.1,1.1c.1.1.2.3.4.5a9.74,9.74,0,0,1,1,1.5,8.91,8.91,0,0,1,1.2,6.3c-.3,1.7-9.3,3-20.8,2.9-12.3-.2-24.3-1.8-30.1-4.4-3-1.4-4.7-2.9-5.3-4.7-.7-2,.1-4.3,2-6.5a12.88,12.88,0,0,1,1.6-1.7c.2-.2.4-.3.5-.4s.2-.1.2-.2a.78.78,0,0,0,.1-1.1A.37.37,0,0,0,782.7,401.2Z" transform="translate(-119.2 -77.3)"/><path d="M829.8,412.3c-5,0-7.7,1.5-8.7,4.2a7.35,7.35,0,0,0-.2,3.6,2.54,2.54,0,0,1,.2.7.76.76,0,1,0,1.4-.6,2,2,0,0,1-.1-.5,4.93,4.93,0,0,1,.1-2.7c1-2.7,4.8-4,12.8-2.8a.71.71,0,1,0,.2-1.4A30.68,30.68,0,0,0,829.8,412.3Z" transform="translate(-119.2 -77.3)"/><path d="M781.1,415.4a.55.55,0,0,0-.5.3,5.92,5.92,0,0,0-.4.6,9.88,9.88,0,0,0-.9,1.5,9.63,9.63,0,0,0-.6,8.1c1.4,3.4,5.3,6.1,11.9,7.8,9.7,2.4,20.4,2.8,28.3,1,8.7-2,13-6.5,10.7-12.8a.7.7,0,0,0-1-.4.83.83,0,0,0-.5,1c1.9,5.2-1.7,9-9.6,10.9-7.6,1.8-18.1,1.4-27.6-1-6.3-1.6-9.7-4-10.9-6.9-.9-2.2-.5-4.5.6-6.8a5.67,5.67,0,0,1,.8-1.3.91.91,0,0,0,.3-.5.79.79,0,0,0-.1-1.1C781.4,415.4,781.3,415.3,781.1,415.4Z" transform="translate(-119.2 -77.3)"/><path d="M821.1,425.1c-3-.2-5.1,1.6-6.2,4.6a16.66,16.66,0,0,0-.8,3,3.75,3.75,0,0,0-.1,1v.4a.79.79,0,0,0,.8.8.85.85,0,0,0,.8-.7v-.3a2.77,2.77,0,0,1,.1-.9,13.43,13.43,0,0,1,.7-2.7c1.5-4,4.6-5.1,10.4-1.5a.75.75,0,0,0,1-.2.94.94,0,0,0-.2-1.1A14.92,14.92,0,0,0,821.1,425.1Z" transform="translate(-119.2 -77.3)"/><path d="M881.8,746.3c-13-.6-41.6,3.9-46.1,4.5l2.1,1.6c7.7-1.1,32.1-4.6,44-4.1.5,0,.8-.4.8-1A.92.92,0,0,0,881.8,746.3Z" transform="translate(-119.2 -77.3)"/><path d="M1078.3,602.3a.66.66,0,0,0-.5.4s-.5.7-.7,1c-.6.8-1.2,1.7-2,2.7a78.27,78.27,0,0,1-7.2,8.2c-7,6.8-14.4,11.1-21.8,11.8-17.6,1.5-218.8,45.2-246.8,53.5-11.2,3.3-45.8,38.7-97,96.9-3,3.5-6.1,7-9.3,10.6-20.5,23.5-42,48.7-63.1,73.9-7.4,8.8-24.3,29.2-25.9,31.2-.6.7-1.9,2.3-2,2.4a1.2,1.2,0,0,0,0,1.4.75.75,0,0,0,1.2,0c.1-.1,20.5-24.7,27.9-33.5,21.1-25.2,42.6-50.4,63-73.8,3.1-3.6,6.2-7.1,9.3-10.6,50.7-57.7,85.5-93.2,96.2-96.4,27.9-8.3,229.1-51.9,246.6-53.4,7.8-.7,15.5-5.1,22.7-12.2a82.41,82.41,0,0,0,7.4-8.4c.8-1,1.4-1.9,2-2.8a9,9,0,0,0,.7-1.1,1.08,1.08,0,0,0-.2-1.4C1078.8,602.4,1078.5,602.3,1078.3,602.3Z" transform="translate(-119.2 -77.3)"/><path d="M1041.4,571.9c-15.6,4.9-27.7,15-36.5,28.7a98.41,98.41,0,0,0-10.5,22c-.9,2.6-1.5,5.1-2.1,7.3-.2.8-.3,1.5-.5,2.1-.1.4-.1.6-.2.7a1.07,1.07,0,0,0,.6,1.2.88.88,0,0,0,1-.8,3.55,3.55,0,0,0,.1-.7c.1-.6.3-1.2.4-2,.5-2.1,1.2-4.5,2-7.1a93.75,93.75,0,0,1,10.2-21.5c8.7-13.3,20.4-23.2,35.7-28a1.07,1.07,0,0,0,.6-1.2A.63.63,0,0,0,1041.4,571.9Z" transform="translate(-119.2 -77.3)"/><path d="M858.3,432.7s-16.4.5-18.5.5c-8.3.2-14.3.2-16.9.1a.75.75,0,1,0-.1,1.5c2.7.1,8.7.1,17-.1,2.1,0,18.5-.5,18.5-.5a.77.77,0,0,0,.7-.8A.57.57,0,0,0,858.3,432.7Z" transform="translate(-119.2 -77.3)"/><path class="cls-6" d="M976.4,387.5a.66.66,0,0,0-.6.1.69.69,0,0,0-.3,1l10.8,19.1a.74.74,0,1,0,1.3-.7l-10.8-19.1C976.8,387.7,976.6,387.6,976.4,387.5Z" transform="translate(-119.2 -77.3)"/><path d="M1105.7,481.5a1.27,1.27,0,0,0-.6.1.89.89,0,0,0-.2,1.1l8.9,12.7a.89.89,0,0,0,1.1.2.78.78,0,0,0,.2-1l-8.9-12.7A1,1,0,0,0,1105.7,481.5Z" transform="translate(-119.2 -77.3)"/><path d="M879.8,313.5a95.16,95.16,0,0,0-80.7,44.8.72.72,0,1,0,1.2.8,93.49,93.49,0,0,1,134.8-25.9,95.59,95.59,0,0,1,31,114.1.76.76,0,0,0,1.4.6A97.18,97.18,0,0,0,936,332,94.41,94.41,0,0,0,879.8,313.5Z" transform="translate(-119.2 -77.3)"/><path d="M787.4,431.6a.78.78,0,0,0-.6.9c8.8,43.9,46.6,73.8,93,73.8a94.67,94.67,0,0,0,23.8-3,.73.73,0,1,0-.4-1.4,91.56,91.56,0,0,1-23.4,3c-45.7,0-82.9-29.4-91.5-72.6A.78.78,0,0,0,787.4,431.6Z" transform="translate(-119.2 -77.3)"/><path class="cls-3" d="M853.3,729a24.75,24.75,0,0,0,0,49.5H1163a24.75,24.75,0,0,0,0-49.5Z" transform="translate(-119.2 -77.3)"/><path class="cls-3" d="M994.1,776.5a.94.94,0,0,0-1,1V916.7a.94.94,0,0,0,1,1h28.1a1,1,0,0,0,1-1V777.5a1,1,0,0,0-1-1Z" transform="translate(-119.2 -77.3)"/><path d="M369.2,919.3a.66.66,0,0,0-.5.4,1.06,1.06,0,0,0,.2,1.4l183.4,152.7a.79.79,0,0,0,1.2-.3,1.18,1.18,0,0,0-.2-1.4L369.8,919.4A.66.66,0,0,0,369.2,919.3Z" transform="translate(-119.2 -77.3)"/><path d="M710.1,964a.87.87,0,0,0-1,.7L682.6,1086l-135.7.2c-.5,0-.8.4-.8,1a1,1,0,0,0,.8,1l136.3-.2c.4,0,.7-.3.8-.8l26.7-122S710.5,964.2,710.1,964Z" transform="translate(-119.2 -77.3)"/><path d="M558.4,1064.9a.91.91,0,0,0-.8,1c0,.6.3,1,.8,1l129.1.4c.5,0,.8-.4.8-1a.92.92,0,0,0-.8-1Z" transform="translate(-119.2 -77.3)"/><path d="M1227.3,294.4a.66.66,0,0,0-.6.1.69.69,0,0,0-.3,1l5.2,9.3a.71.71,0,0,0,1,.3.69.69,0,0,0,.3-1l-5.2-9.3C1227.7,294.6,1227.5,294.5,1227.3,294.4Z" transform="translate(-119.2 -77.3)"/><path d="M1232.3,308.4a4.33,4.33,0,0,1-.5.1,9.29,9.29,0,0,0-1.3.4,27,27,0,0,0-4,1.4,16.27,16.27,0,0,0-2.3,1.1.71.71,0,0,0-.3,1,.69.69,0,0,0,1,.3,13.55,13.55,0,0,1,2.1-1,24.3,24.3,0,0,1,3.8-1.3c.5-.1.9-.2,1.3-.3a1.09,1.09,0,0,1,.5-.1.82.82,0,0,0-.3-1.6Z" transform="translate(-119.2 -77.3)"/><path d="M1201.2,267.7a22.29,22.29,0,0,0-6.6.7,16.52,16.52,0,0,0-2.1.7.74.74,0,1,0,.7,1.3c.1,0,.2-.1.4-.2a12.75,12.75,0,0,1,1.4-.4c3.6-.9,8.3-1,14.3.5,4.8,1.2,10.8,5.3,15,10.7,5,6.3,7.3,13.5,6,20.8a.76.76,0,1,0,1.5.3c1.4-7.7-1-15.4-6.2-22-4.5-5.6-10.7-9.9-15.9-11.2A42.11,42.11,0,0,0,1201.2,267.7Z" transform="translate(-119.2 -77.3)"/><path d="M1171.8,318.4c24,9.9,48.1-.4,48.1-.4-30.6,20.3-58.3,10.5-58.3,10.5Z" transform="translate(-119.2 -77.3)"/><path d="M492,894.6c.6.6.9,1.1,1.6,1.8,3.3-.5,6.4-1,9.6-1.4,6.5-.9,24.6-3.3,24.6-3.3a.88.88,0,0,0,.7-1.1c0-.5-.4-1-.9-.9-.1,0-18.2,2.4-24.7,3.3C499.3,893.5,495.8,894.1,492,894.6Z" transform="translate(-119.2 -77.3)"/><path d="M493.6,896.4l-2.1.3,22.8,25.7a3.29,3.29,0,0,1,.1,4l-1.8,2.4a2.13,2.13,0,0,1-3.3.2L482,898.1l-2.1.3,28.4,32a3.47,3.47,0,0,0,5.6-.3l1.8-2.4a5.56,5.56,0,0,0-.2-6.8C515.5,921,502.4,906.3,493.6,896.4Z" transform="translate(-119.2 -77.3)"/><path d="M479.9,898.5l-1.6-1.8c-3.3.5-6.5.9-9.7,1.4.4.5,1.1,1.2,1.6,1.8C473.4,899.4,476.6,898.9,479.9,898.5Z" transform="translate(-119.2 -77.3)"/><path d="M470.1,899.9l-2.2.3,24.8,28a3.15,3.15,0,0,1,.1,3.9l-1.8,2.5a2.06,2.06,0,0,1-3.3.1l-29.4-33.1-2.1.3c.1.1.1.2.2.3l30.2,34a3.52,3.52,0,0,0,5.6-.2l1.8-2.4a5.56,5.56,0,0,0-.2-6.8C493.9,926.8,478,908.8,470.1,899.9Z" transform="translate(-119.2 -77.3)"/><path d="M456.4,901.9a4.55,4.55,0,0,1-.8-1.9c-2.2.3-4.6.6-6.8,1-17.7,2.9-33.1,5.6-45.6,8.3-16.9,3.6-27.8,6.7-31.9,9.5-6.8,4.6-11.1,9.4-13.4,14a14.37,14.37,0,0,0-1.6,8,4.33,4.33,0,0,0,.1.5,2.19,2.19,0,0,0,.3.5l183.8,151.9a.72.72,0,0,0,1.1-.2l73.6-113.3a1.08,1.08,0,0,0-.2-1.4.76.76,0,0,0-1.2.2l-73,112.6L357.9,940.5a12.2,12.2,0,0,1,1.4-6.6c2.1-4.3,6.1-8.8,12.7-13.3,3.9-2.6,14.7-5.8,31.4-9.3,12.4-2.6,27.8-5.4,45.5-8.3C451.4,902.6,454,902.3,456.4,901.9Z" transform="translate(-119.2 -77.3)"/><path d="M466.4,898.4c-3,.5-6.1.9-9.1,1.4.1.3.1.7.4.9l.8.9c3.1-.5,6.3-.9,9.5-1.4Z" transform="translate(-119.2 -77.3)"/><path d="M482,898.1c3.2-.5,6.3-.9,9.5-1.4l-1.6-1.8c-3.2.5-6.3,1-9.5,1.4Z" transform="translate(-119.2 -77.3)"/><path d="M492,894.6l-2.1.3,1.6,1.8,2.1-.3C493,895.7,492.6,895.2,492,894.6Z" transform="translate(-119.2 -77.3)"/><path d="M480.4,896.4l-2.1.3,1.6,1.8,2.1-.3Z" transform="translate(-119.2 -77.3)"/><path d="M468.5,898.1l-2.1.3,1.6,1.8,2.2-.3C469.6,899.3,468.9,898.6,468.5,898.1Z" transform="translate(-119.2 -77.3)"/><path d="M457.3,899.8l-1.8.3a6.39,6.39,0,0,0,.8,1.9l2.1-.3-.8-.9C457.5,900.5,457.4,900.1,457.3,899.8Z" transform="translate(-119.2 -77.3)"/><path d="M562.4,948.7c-12.4,0-22.4,12.2-22.4,27.2s10,27.3,22.4,27.3,22.4-12.2,22.4-27.3S574.7,948.7,562.4,948.7Zm0,2c11.5,0,20.8,11.3,20.8,25.3s-9.3,25.3-20.8,25.3S541.7,990,541.7,976,550.9,950.7,562.4,950.7Z" transform="translate(-119.2 -77.3)"/><path d="M811.1,720a.73.73,0,0,0-.6.2,1.21,1.21,0,0,0-.1,1.4l16.4,23.7a.75.75,0,0,0,1.2.1,1.21,1.21,0,0,0,.1-1.4l-16.4-23.7C811.5,720.2,811.3,720,811.1,720Z" transform="translate(-119.2 -77.3)"/><path d="M1059.8,364.4a.78.78,0,0,0-.4.4c-.8,1.5-1.8,3.8-3,6.7-.3.6-.5,1.2-.8,1.9-.9,2.3-1.9,4.8-2.8,7.3a28.11,28.11,0,0,1-1.3,3.3.88.88,0,0,0,.5,1,1,1,0,0,0,1-.4s.9-2.4,1.2-3.3c.9-2.5,1.9-5,2.8-7.3.3-.6.5-1.3.8-1.9,1.2-2.8,2.1-5,2.9-6.5a.69.69,0,0,0-.3-1C1060.2,364.3,1059.9,364.3,1059.8,364.4Z" transform="translate(-119.2 -77.3)"/><path d="M1186.6,271.6a.73.73,0,0,0-.4,1.4c.1,0,.2.1.4.1a9.29,9.29,0,0,1,1.3.4c1.4.4,3,1,4.7,1.6a81,81,0,0,1,14.1,7.1,50.05,50.05,0,0,1,14.1,12.8.78.78,0,0,0,1,.2.89.89,0,0,0,.2-1.1,51.2,51.2,0,0,0-14.5-13.1,84.19,84.19,0,0,0-14.4-7.2c-1.7-.7-3.3-1.2-4.8-1.7-.5-.2-1-.3-1.3-.4S1186.6,271.7,1186.6,271.6Z" transform="translate(-119.2 -77.3)"/><path d="M898.4,379.1a.78.78,0,0,0-.9.6L881,444.9a.72.72,0,0,0,.5.9.78.78,0,0,0,.9-.6l16.4-65.3A.54.54,0,0,0,898.4,379.1Z" transform="translate(-119.2 -77.3)"/><path d="M1039.7,464.9a1,1,0,0,0-1,.4s-.8,2.3-1.1,3.1c-.9,2.5-1.9,5.2-3,8.2-3.2,8.5-6.6,17-9.9,25q-3,7-5.7,12.9c-4.3,9.3-8.1,16-11.1,19.8a.78.78,0,1,0,1.2,1c3.1-3.9,6.9-10.7,11.3-20.1,1.8-4,3.7-8.3,5.7-13,3.4-8,6.7-16.5,9.9-25,1.1-3,3.7-9.9,3.9-10.6.1-.2.3-.8.3-.8A.81.81,0,0,0,1039.7,464.9Z" transform="translate(-119.2 -77.3)"/><path class="cls-6" d="M1038.2,744.5a1,1,0,0,0,0,2l107.3.8a1,1,0,0,0,0-2Z" transform="translate(-119.2 -77.3)"/><path d="M556.8,861.9a1.21,1.21,0,0,0-.5.5,1.05,1.05,0,0,0,.4,1.3c.1,0,.2.1.5.3a15.14,15.14,0,0,1,1.4.9c1.5,1,3.2,2.2,5.2,3.6a202.42,202.42,0,0,1,18.5,15.7c19.2,18.3,38.4,42.1,56.3,72.3,4.3,7.2,8.5,14.7,12.5,22.5a.68.68,0,0,0,1.1.3,1.2,1.2,0,0,0,.3-1.4c-4.1-7.8-8.3-15.4-12.6-22.6-18-30.3-37.3-54.3-56.6-72.7a222.49,222.49,0,0,0-18.7-15.9c-2-1.5-3.8-2.7-5.3-3.7-.5-.4-1-.6-1.4-.9-.2-.1-.4-.3-.5-.3A1.49,1.49,0,0,0,556.8,861.9Z" transform="translate(-119.2 -77.3)"/><path class="cls-6" d="M1072.8,386.1a.78.78,0,0,0-.9.6l-4.2,22.7a.76.76,0,0,0,1.5.3l4.2-22.7A.87.87,0,0,0,1072.8,386.1Z" transform="translate(-119.2 -77.3)"/><path class="cls-6" d="M1104.3,434.7c-.2-.1-.4,0-.6,0L1082.4,446a.69.69,0,0,0-.3,1,.71.71,0,0,0,1,.3l21.3-11.3a.69.69,0,0,0,.3-1C1104.7,434.8,1104.5,434.7,1104.3,434.7Z" transform="translate(-119.2 -77.3)"/><path class="cls-6" d="M1174.1,392.2a.76.76,0,0,0-.5.2.78.78,0,0,0,0,1.1l18.4,18.3a.78.78,0,0,0,1.1-1.1l-18.4-18.3A.85.85,0,0,0,1174.1,392.2Z" transform="translate(-119.2 -77.3)"/><path class="cls-6" d="M1262.4,386.1l-25.1,5.7a.76.76,0,0,0,.3,1.5l25.1-5.7a.76.76,0,0,0-.3-1.5Z" transform="translate(-119.2 -77.3)"/><path class="cls-6" d="M1095.5,339.9a.76.76,0,0,0-.5.2.9.9,0,0,0-.1,1.1l18,20.5a.78.78,0,1,0,1.2-1l-18-20.5A.86.86,0,0,0,1095.5,339.9Z" transform="translate(-119.2 -77.3)"/><path class="cls-6" d="M1045.1,440.1l-21.8,4.9a.76.76,0,1,0,.3,1.5l21.8-4.9a.76.76,0,1,0-.3-1.5Z" transform="translate(-119.2 -77.3)"/><path class="cls-6" d="M1024.6,367.3a.72.72,0,0,0-.5.9l5.2,20.1a.72.72,0,0,0,.9.5.65.65,0,0,0,.5-.9l-5.2-20.1A.8.8,0,0,0,1024.6,367.3Z" transform="translate(-119.2 -77.3)"/><path class="cls-6" d="M1144.8,498.7a.78.78,0,0,0-.9.6l-5.9,33.1a.76.76,0,1,0,1.5.3l6-33.1A1,1,0,0,0,1144.8,498.7Z" transform="translate(-119.2 -77.3)"/><path class="cls-6" d="M1198.1,445.1a.66.66,0,0,0-.6.1l-28.7,16.5a.74.74,0,0,0,.7,1.3l28.7-16.5a.71.71,0,0,0,.3-1A.37.37,0,0,0,1198.1,445.1Z" transform="translate(-119.2 -77.3)"/><path class="cls-6" d="M1055.6,480.1a1,1,0,0,0-.7.4,1,1,0,0,0,.2,1.4l27.1,19.9a1.06,1.06,0,0,0,1.4-.2,1.08,1.08,0,0,0-.2-1.4l-27.1-19.9A1.45,1.45,0,0,0,1055.6,480.1Z" transform="translate(-119.2 -77.3)"/><path class="cls-6" d="M1239.1,426.5a.77.77,0,0,0-.8.7l-1.7,28.4a.75.75,0,1,0,1.5.1l1.7-28.4A.77.77,0,0,0,1239.1,426.5Z" transform="translate(-119.2 -77.3)"/><path d="M1296.9,301.7a.86.86,0,0,0-.6.3.91.91,0,0,0,0,1.2,7.32,7.32,0,0,0,.9.9c.7.8,1.6,1.7,2.4,2.7a86.08,86.08,0,0,1,7.3,9.8c6.9,10.5,11,20.9,10.6,30.6a34.29,34.29,0,0,1-.7,5.6.83.83,0,0,0,.6,1,.89.89,0,0,0,1-.6,28.85,28.85,0,0,0,.7-5.9c.3-10.1-3.8-20.9-10.9-31.6a98.61,98.61,0,0,0-7.5-9.9c-.9-1-1.7-2-2.5-2.8a6.53,6.53,0,0,1-.9-1C1297.4,301.8,1297.2,301.7,1296.9,301.7Z" transform="translate(-119.2 -77.3)"/><path d="M794.7,618.3c-.5,0-.8.4-.8,1-.1,20.8-4.5,36-12.4,46.5-6.7,8.8-15.8,14-26.7,16.1-10,1.9-20.8,1.1-31.2-1.4-2.2-.5-4.2-1.1-6-1.7-.6-.2-1.2-.4-1.6-.5a3.93,3.93,0,0,0-.6-.2c-.4-.2-.9.1-1,.7s.1,1.1.5,1.2a3.93,3.93,0,0,1,.6.2,16.19,16.19,0,0,0,1.7.6c1.8.6,3.9,1.2,6.1,1.7,10.6,2.5,21.5,3.4,31.8,1.4,11.3-2.1,20.7-7.5,27.7-16.7,8.2-10.8,12.7-26.6,12.8-47.9C795.5,618.8,795.2,618.3,794.7,618.3Z" transform="translate(-119.2 -77.3)"/><path d="M267.8,411.1a.94.94,0,0,0-1,1V616.9a.94.94,0,0,0,1,1H472.6a.94.94,0,0,0,1-1V412.1a.94.94,0,0,0-1-1Zm1,2H471.6V615.9H268.8Z" transform="translate(-119.2 -77.3)"/><path d="M412.8,120.1a.94.94,0,0,0-1,1V298.4a.94.94,0,0,0,1,1H590.1a.94.94,0,0,0,1-1V121.1a.94.94,0,0,0-1-1Zm1,2H589.1V297.4H413.8Z" transform="translate(-119.2 -77.3)"/><path d="M232,318.8a.94.94,0,0,0-1,1v24.5a.94.94,0,0,0,1,1h64.9a.94.94,0,0,0,1-1V319.8a.94.94,0,0,0-1-1Zm1,2h62.9v22.5H233Z" transform="translate(-119.2 -77.3)"/><path d="M197.8,217.2a.94.94,0,0,0-1,1V256a.94.94,0,0,0,1,1H378.6a.94.94,0,0,0,1-1V218.2a.94.94,0,0,0-1-1Zm1,2H377.6V255H198.8Z" transform="translate(-119.2 -77.3)"/><path d="M322.8,360.9a.94.94,0,0,0-1,1v24.3a.94.94,0,0,0,1,1H567.1a.94.94,0,0,0,1-1V361.9a.94.94,0,0,0-1-1Zm1,2H566.1v22.3H323.8Z" transform="translate(-119.2 -77.3)"/><path d="M956.9,353.5a1.27,1.27,0,0,0-.6.1L882,409.8a.71.71,0,0,0-.3.6l-1.3,94.1a.79.79,0,0,0,.8.8c.4,0,.7-.3.8-.8l1.3-93.7L957.2,355a.8.8,0,0,0,.2-1A1.18,1.18,0,0,0,956.9,353.5Z" transform="translate(-119.2 -77.3)"/><path d="M843.8,389.1a.78.78,0,0,0-.4.4.69.69,0,0,0,.3,1l37.9,20.8a.74.74,0,1,0,.7-1.3l-37.9-20.8A.47.47,0,0,0,843.8,389.1Z" transform="translate(-119.2 -77.3)"/><path d="M944.5,484.8a1,1,0,0,0-.5.6,1,1,0,0,0,.6,1.3l35.7,13.5a1,1,0,0,0,1.3-.6,1,1,0,0,0-.6-1.3l-35.7-13.5A1.1,1.1,0,0,0,944.5,484.8Z" transform="translate(-119.2 -77.3)"/><path d="M992.3,506.9a.76.76,0,0,0-.6,1.4l26.5,10a1,1,0,0,0,1-.4.82.82,0,0,0-.4-1Z" transform="translate(-119.2 -77.3)"/><path d="M997,497.2a.76.76,0,0,0-.6,1.4l25.6,9.6a1,1,0,0,0,1-.4.88.88,0,0,0-.5-1Z" transform="translate(-119.2 -77.3)"/><path d="M1000.3,489.1a.73.73,0,1,0-.4,1.4l26.3,9a.88.88,0,0,0,1-.5.72.72,0,0,0-.5-.9Z" transform="translate(-119.2 -77.3)"/><path d="M1003.9,480.8a.76.76,0,1,0-.6,1.4l25.7,9.5a1,1,0,0,0,1-.4.82.82,0,0,0-.4-1Z" transform="translate(-119.2 -77.3)"/><path d="M1007.4,472.8a.79.79,0,0,0-.5,1.5l26.3,8.6a.88.88,0,0,0,1-.5.72.72,0,0,0-.5-.9Z" transform="translate(-119.2 -77.3)"/><path d="M1010,465.3a.73.73,0,1,0-.4,1.4l26.4,8a.73.73,0,0,0,.4-1.4Z" transform="translate(-119.2 -77.3)"/><path d="M356.3,288.8a1.05,1.05,0,0,0-.5.9v35.9a1,1,0,0,0,1.5.9l31.1-17.9a1,1,0,0,0,0-1.8c-.5-.3-31.1-17.9-31.1-17.9A.77.77,0,0,0,356.3,288.8Zm1.5,2.6c2.5,1.5,25.2,14.5,28.1,16.2l-28.1,16.2Z" transform="translate(-119.2 -77.3)"/><path d="M543.4,138.9a.8.8,0,0,0-.8.1l-5.8,3a.92.92,0,0,0-.4,1.3l6.4,12.6-12.6,6.4a.9.9,0,0,0-.4,1.3l2.9,5.9a.9.9,0,0,0,1.3.4l12.7-6.4,6.4,12.7a.92.92,0,0,0,1.3.4l5.8-3a.92.92,0,0,0,.4-1.3l-6.4-12.6,12.6-6.4a.9.9,0,0,0,.4-1.3c-.4-.7-2.6-5.1-2.9-5.9a.9.9,0,0,0-1.3-.4l-12.7,6.4-6.4-12.7C543.9,139.2,543.7,139,543.4,138.9Zm-.7,2.3,6.4,12.7a.92.92,0,0,0,1.3.4l12.7-6.4c.6,1.2,1.5,2.9,2.1,4.1l-12.6,6.4a.88.88,0,0,0-.4,1.3l6.4,12.6-4,2.1-6.4-12.7a.92.92,0,0,0-1.3-.4l-12.7,6.4-2.1-4.1,12.6-6.4a.92.92,0,0,0,.4-1.3l-6.4-12.6Z" transform="translate(-119.2 -77.3)"/><path d="M391.8,424.4a11.5,11.5,0,1,0,11.5,11.5A11.5,11.5,0,0,0,391.8,424.4Zm0,2a9.5,9.5,0,1,1-9.5,9.5A9.5,9.5,0,0,1,391.8,426.4Z" transform="translate(-119.2 -77.3)"/><path d="M421.6,424.4a11.5,11.5,0,1,0,11.5,11.5A11.5,11.5,0,0,0,421.6,424.4Zm0,2a9.5,9.5,0,1,1-9.5,9.5A9.5,9.5,0,0,1,421.6,426.4Z" transform="translate(-119.2 -77.3)"/><path d="M451.2,424.4a11.5,11.5,0,1,0,11.5,11.5A11.5,11.5,0,0,0,451.2,424.4Zm0,2a9.5,9.5,0,1,1-9.5,9.5A9.5,9.5,0,0,1,451.2,426.4Z" transform="translate(-119.2 -77.3)"/><path d="M316,510.1a.94.94,0,0,0-1,1v81.8a.94.94,0,0,0,1,1h24a.94.94,0,0,0,1-1V511.1a.94.94,0,0,0-1-1Zm1,2h22V592H317Z" transform="translate(-119.2 -77.3)"/><path d="M355.3,538.8a.94.94,0,0,0-1,1V593a.94.94,0,0,0,1,1h23.9a.94.94,0,0,0,1-1V539.8a.94.94,0,0,0-1-1Zm1,2h21.9V592H356.3Z" transform="translate(-119.2 -77.3)"/><path d="M391.9,562.7a.94.94,0,0,0-1,1V593a.94.94,0,0,0,1,1h23.9a.94.94,0,0,0,1-1V563.7a.94.94,0,0,0-1-1Zm1,2h21.9V592H392.9Z" transform="translate(-119.2 -77.3)"/><path class="cls-2" d="M475.8,225.7h44v46.6h-44Z" transform="translate(-119.2 -77.3)"/><path class="cls-2" d="M487.6,212.3h45.7l-13,14H474.6Z" transform="translate(-119.2 -77.3)"/><path class="cls-2" d="M533.9,258.5V212.8l-14,13v45.7Z" transform="translate(-119.2 -77.3)"/><path class="cls-2" d="M475.8,225.7h44v46.6h-44Z" transform="translate(-119.2 -77.3)"/><path class="cls-2" d="M487.6,212.3h45.7l-13,14H474.6Z" transform="translate(-119.2 -77.3)"/><path class="cls-2" d="M533.9,258.5V212.8l-14,13v45.7Z" transform="translate(-119.2 -77.3)"/><path d="M519.8,226.9a.91.91,0,0,1-.7-.3,1,1,0,0,1,0-1.4l14-13.9a1,1,0,0,1,1.4,1.4l-14,13.9A.78.78,0,0,1,519.8,226.9Z" transform="translate(-119.2 -77.3)"/><path d="M520.1,273.7h-45a.94.94,0,0,1-1-1v-47a.94.94,0,0,1,1-1h45a.94.94,0,0,1,1,1v47A1,1,0,0,1,520.1,273.7Zm-44-2h43v-45h-43v45Z" transform="translate(-119.2 -77.3)"/><path d="M520.2,273.7a.91.91,0,0,1-.7-.3,1,1,0,0,1,0-1.4l13.4-13.5V212.9H489.3L476,226.2a1,1,0,0,1-1.4-1.4l13.7-13.6a.91.91,0,0,1,.7-.3h45a.94.94,0,0,1,1,1v47a.91.91,0,0,1-.3.7L521,273.4A1.6,1.6,0,0,1,520.2,273.7Z" transform="translate(-119.2 -77.3)"/><path d="M428.4,137.4a.94.94,0,0,0-1,1v22.7a.94.94,0,0,0,1,1h91.5a.94.94,0,0,0,1-1V138.4a.94.94,0,0,0-1-1Zm1,2h89.5v20.7H429.4Z" transform="translate(-119.2 -77.3)"/><path class="cls-7" d="M120.2,1088.9a1,1,0,0,0,0,2h1340a1,1,0,1,0,0-2Z" transform="translate(-119.2 -77.3)"/><path class="cls-7" d="M1081.9,146.5a15.5,15.5,0,1,0,15.5,15.5A15.51,15.51,0,0,0,1081.9,146.5Zm0,2a13.5,13.5,0,1,1-13.5,13.5A13.51,13.51,0,0,1,1081.9,148.5Z" transform="translate(-119.2 -77.3)"/><path class="cls-2" d="M583,499.9a32.2,32.2,0,1,1,32.2,32.5A32.31,32.31,0,0,1,583,499.9Z" transform="translate(-119.2 -77.3)"/><path class="cls-2" d="M583,499.9a32.2,32.2,0,1,1,32.2,32.5A32.31,32.31,0,0,1,583,499.9Z" transform="translate(-119.2 -77.3)"/><path class="cls-7" d="M614,466a33.95,33.95,0,1,0,13.3,2.2A32.66,32.66,0,0,0,614,466Zm.1,2a30.38,30.38,0,0,1,12.5,2,31.74,31.74,0,1,1-40.8,18.7A31.39,31.39,0,0,1,614.1,468Z" transform="translate(-119.2 -77.3)"/><path class="cls-7" d="M573.3,445a5.37,5.37,0,0,0-2.3,1c-7.1,6.3,8.2,34.1,33.7,62.9s51.3,47.3,58.4,41c5.1-4.5-.9-19.4-14.6-38.8a1,1,0,0,0-1.4-.3,1,1,0,0,0-.2,1.4c13,18.4,18.7,32.8,14.9,36.2-5.7,5.1-31-13.1-55.6-40.8s-39.6-55-33.9-60c3.6-3.2,17.9,5,34.8,20a1,1,0,0,0,1.3-1.5C592.8,452.1,579.6,443.9,573.3,445Z" transform="translate(-119.2 -77.3)"/><path class="cls-2" d="M1349.2,143.8c0-11.3,9.5-20.5,21.1-20.5s21.1,9.2,21.1,20.5-9.5,20.5-21.1,20.5S1349.2,155.2,1349.2,143.8Z" transform="translate(-119.2 -77.3)"/><path class="cls-7" d="M1370.5,165.7a21.5,21.5,0,0,1-14.7-5.7,21.82,21.82,0,0,1-7.3-15.2,22.08,22.08,0,0,1,5.6-15.9,21.82,21.82,0,0,1,15.2-7.3,22.08,22.08,0,0,1,15.9,5.6,21.82,21.82,0,0,1,7.3,15.2,22.23,22.23,0,0,1-5.6,15.9,21.82,21.82,0,0,1-15.2,7.3A4.87,4.87,0,0,1,1370.5,165.7Zm0-42.1h-1.1a20.15,20.15,0,0,0-13.9,6.6,19.78,19.78,0,0,0-5.1,14.5h0a20.13,20.13,0,1,0,20.1-21.1Z" transform="translate(-119.2 -77.3)"/><path class="cls-7" d="M1405,163.9c-8.8,0-24.5-5.1-38.6-11.8-19.8-9.2-39.1-22.5-36.1-29,2.7-5.7,21.9.1,27.7,2.1a1,1,0,1,1-.7,1.9c-15.2-5-24.2-5.4-25.3-3.1-1.8,3.8,12.2,15.6,35.1,26.3s41,13.9,42.8,10.1c1.1-2.3-4.1-8.6-17.9-17.1a1,1,0,0,1,1.1-1.7c6.5,4,21.4,13.9,18.7,19.7C1410.9,163.1,1408.5,163.9,1405,163.9Z" transform="translate(-119.2 -77.3)"/><path class="cls-7" d="M1223.7,77.3a3.4,3.4,0,0,0-2.8,2l-1.7,3.1a14.94,14.94,0,0,1-5.2,5.1l-3.1,1.7c-2.7,1.5-2.7,4.2,0,5.7l3.1,1.7a15.22,15.22,0,0,1,5.2,5.2l1.7,3.1c1.5,2.7,4.2,2.7,5.7,0l1.7-3.1a15.22,15.22,0,0,1,5.2-5.2l3.1-1.7c2.7-1.5,2.7-4.2,0-5.7l-3.1-1.7a15.84,15.84,0,0,1-5.2-5.1l-1.7-3.1A3.54,3.54,0,0,0,1223.7,77.3Zm0,2c.4,0,.7.3,1.1,1l1.7,3.1a18.78,18.78,0,0,0,5.9,6l3.1,1.7c1.3.7,1.3,1.5,0,2.2l-3.1,1.7a16.67,16.67,0,0,0-5.9,5.9l-1.7,3.1c-.7,1.3-1.5,1.3-2.2,0l-1.7-3.1a17,17,0,0,0-6-5.9l-3.1-1.7c-1.3-.7-1.3-1.5,0-2.2l3.1-1.7a17.24,17.24,0,0,0,6-6l1.7-3.1C1223,79.7,1223.3,79.3,1223.7,79.3Z" transform="translate(-119.2 -77.3)"/><path class="cls-7" d="M1458.5,322.3a3.4,3.4,0,0,0-2.8,2l-1.7,3.1a15.22,15.22,0,0,1-5.2,5.2l-3.1,1.7c-2.7,1.5-2.7,4.2,0,5.7l3.1,1.7a15.84,15.84,0,0,1,5.2,5.1l1.7,3.1c1.5,2.7,4.2,2.7,5.7,0l1.7-3.1a14.94,14.94,0,0,1,5.2-5.1l3.1-1.7c2.7-1.5,2.7-4.2,0-5.7l-3.1-1.7a15.22,15.22,0,0,1-5.2-5.2l-1.7-3.1A3.67,3.67,0,0,0,1458.5,322.3Zm0,2c.4,0,.7.3,1.1,1l1.7,3.1a17.52,17.52,0,0,0,5.9,5.9l3.1,1.7c1.3.7,1.3,1.5,0,2.2l-3.1,1.7a17,17,0,0,0-5.9,6l-1.7,3.1c-.7,1.3-1.5,1.3-2.2,0l-1.7-3.1a18.78,18.78,0,0,0-5.9-6l-3.1-1.7c-1.3-.7-1.3-1.5,0-2.2l3.1-1.7a16.67,16.67,0,0,0,5.9-5.9l1.7-3.1C1457.7,324.6,1458.1,324.3,1458.5,324.3Z" transform="translate(-119.2 -77.3)"/><path class="cls-7" d="M219.6,388.6c-1.8-.1-3.1,1.3-2.9,3.6l.2,3.5a14.6,14.6,0,0,1-1.7,7.1l-1.7,3.1c-1.5,2.7-.1,5,3,4.8l3.5-.2a15.8,15.8,0,0,1,7.1,1.7l3.1,1.7c2.7,1.5,5,0,4.8-3l-.2-3.5a14.6,14.6,0,0,1,1.7-7.1l1.7-3.1c1.5-2.7.1-5-3-4.8l-3.5.2a14.6,14.6,0,0,1-7.1-1.7l-3-1.8A19.45,19.45,0,0,0,219.6,388.6Zm-.5,2.1c.3-.2.8-.1,1.4.3l3.1,1.7a16.51,16.51,0,0,0,8.2,1.9l3.5-.2c1.5-.1,1.9.6,1.2,1.8l-1.8,3a17.66,17.66,0,0,0-1.9,8.2l.2,3.5c.1,1.5-.6,1.8-1.8,1.1l-3.1-1.7a16.51,16.51,0,0,0-8.2-1.9l-3.5.2c-1.5.1-1.9-.6-1.2-1.8l1.8-3a17.66,17.66,0,0,0,1.9-8.2l-.2-3.5C218.7,391.4,218.8,390.9,219.1,390.7Z" transform="translate(-119.2 -77.3)"/><path class="cls-6" d="M1202.4,559.5a.84.84,0,0,0-.7.2l-14.5,11.2a1,1,0,0,0,1.2,1.6l14.5-11.2a1.08,1.08,0,0,0,.2-1.4A.87.87,0,0,0,1202.4,559.5Z" transform="translate(-119.2 -77.3)"/><path class="cls-6" d="M993.8,777.7a1,1,0,0,0,0,2l29.1.3a1,1,0,1,0,0-2Z" transform="translate(-119.2 -77.3)"/><path d="M721.1,969l-17.6-7.9,59.3-96.6Z" transform="translate(-119.2 -77.3)"/><path d="M634.8,770.6a1.42,1.42,0,0,1-.6-.2,1.08,1.08,0,0,1-.2-1.4c3.7-4.9,90.9-119.6,126.1-136.9,35-17.2,213.3-75.9,215.1-76.5a1,1,0,0,1,.7,1.9c-1.8.6-180,59.2-214.9,76.4C726.3,651,636.5,769,635.6,770.2A.91.91,0,0,1,634.8,770.6Z" transform="translate(-119.2 -77.3)"/></g></svg>