<svg id="Layer_1" data-name="Layer 1" xmlns="http://www.w3.org/2000/svg" viewBox="0 0 1148.59 902.52"><defs><style>.cls-1{fill:#e8e8e8;}.cls-2{fill:#161616;}.cls-3{fill:#5222d0;}.cls-4{fill:#ec615b;}.cls-5,.cls-7{fill:none;}.cls-13,.cls-5,.cls-7{stroke:#161616;stroke-miterlimit:10;}.cls-13,.cls-6{fill:#fff;}.cls-7{stroke-width:3px;}.cls-10,.cls-11,.cls-12,.cls-14,.cls-15,.cls-16,.cls-17,.cls-18,.cls-8,.cls-9{fill:#6d6c6c;}.cls-10,.cls-11,.cls-12,.cls-14,.cls-15,.cls-16,.cls-17,.cls-18,.cls-19,.cls-20,.cls-8,.cls-9{isolation:isolate;}.cls-8{opacity:0.21;}.cls-9{opacity:0.2;}.cls-10{opacity:0.27;}.cls-11{opacity:0.24;}.cls-12{opacity:0.25;}.cls-13{stroke-width:2px;}.cls-14{opacity:0.22;}.cls-15{opacity:0.19;}.cls-16{opacity:0.11;}.cls-17{opacity:0.16;}.cls-18{opacity:0.4;}.cls-19,.cls-20{fill:#2c167c;}.cls-19{opacity:0.74;}.cls-20{opacity:0.52;}</style></defs><g id="backgound"><path class="cls-1" d="M1098.7,701.7c-.1,16.2-.3,32.5-.4,48.7,0,4-.1,8-.1,11.9,0,2.7-.6,6.1.5,8.7,1.7,4.4,7.4,3.2,9.5,6.9a16,16,0,0,0,.5-2.1c-7.3,3.6-9.2,11.7-9.8,19.2-.5,7.2-.8,18.8,8.6,20.2a25.12,25.12,0,0,0-.4-2.7c-14.2,6.5-8.5,31.9-2.5,42.1,4.4,7.5,10.9,13.6,17.6,19,3.8,3.1,7.6,6,11.5,9,2.3,1.8,4.6,3.5,6.8,5.3,1.2.9,6.3,3.7,6.5,5.4a17.1,17.1,0,0,1,1.1-1.4h.2a16,16,0,0,1,.5,2.1c.1-.1.1-.2.2-.3.8-1.7-1.7-3.2-2.6-1.5-.1.1-.1.2-.2.3a1.6,1.6,0,0,0,.5,2.1,1.8,1.8,0,0,0,2.1.3c.6-.2,1.2-.8,1.1-1.4-.4-3.1-3.5-4.5-5.9-6.3-3.5-2.8-7.1-5.5-10.6-8.3-6.6-5.1-13.3-10.2-19-16.2-6.4-6.7-10.8-14.5-12.1-23.8-1.1-7.6-2.1-19.8,6.3-23.7,1.1-.5.9-2.6-.4-2.7-8-1.2-6.9-12.6-6.3-18.7s2.3-12.3,8.2-15.2a1.58,1.58,0,0,0,.5-2.1c-2.1-3.6-7.2-2.9-9.1-6.1-1.5-2.4-.5-8-.4-10.9,0-4,.1-8,.1-11.9.1-15.2.2-30.5.4-45.7a1.46,1.46,0,1,0-2.9-.2Z" transform="translate(-187.9 -138.52)"/><path class="cls-1" d="M1100.3,702.5c14,.7,23.8,11.4,32.2,21.4,4,4.8,8.2,9.3,12.3,13.8s9.7,13.6,2.1,18a1.52,1.52,0,0,0,.8,2.8c11.6.3,16.7,14.4,20.3,23.3a215.66,215.66,0,0,1,10.2,33.2,209.47,209.47,0,0,1,3.2,70.6c-.2,1.9,2.8,1.9,3,0a215,215,0,0,0-5-78.3A184.94,184.94,0,0,0,1167,772c-3.8-8-9.7-16.3-19.3-16.5.3.9.5,1.9.8,2.8,14.6-8.4-3.5-24.4-9.4-31.3-10.5-12.2-21.1-26.7-38.7-27.6a1.55,1.55,0,0,0-.1,3.1Z" transform="translate(-187.9 -138.52)"/><path class="cls-1" d="M1150.5,738.5a327.85,327.85,0,0,1,29.4-71.2,16,16,0,0,1-2.1.5c2.7,1.6,5.5,3.2,8.2,4.8a1.56,1.56,0,0,0,2.1-2.1c-7.2-14.4,14.4-23.6,21.7-32.2a11,11,0,0,1-1.8.2c1.4.8,2.9,1.6,4.3,2.4a1.6,1.6,0,0,0,2.1-.5c8-13.6,22.1-21.2,35.7-28.2-.7-.6-1.5-1.1-2.2-1.7-4.3,14.1,2.5,29.5,3.8,43.6a135.81,135.81,0,0,1,.2,23c-.3,3.8,0,9.5-1.5,12.9,0,2.5-1.4,3.9-4.3,4.4l-2.6.3-6.1.6c-.8.1-1.6.6-1.5,1.5.1,2,.7,2.6,2.2,3.9,1.9,1.6,3.4,1.8,4.3,4.6a15.07,15.07,0,0,1,.5,4.7,154.4,154.4,0,0,1-2.7,24.4,180,180,0,0,1-5.8,23c-2.1,6.3-4.9,15.7-12.7,16.7a1.55,1.55,0,0,0-1.3,2.3c5.8,8.9-2.8,19.7-7,27.4-4.6,8.2-8.8,16.6-12.7,25.1a372.89,372.89,0,0,0-19.4,52.3,1.5,1.5,0,0,0,2.9.8,363.73,363.73,0,0,1,23-59.8c4.4-9.1,9.7-17.7,14.3-26.7,3.3-6.5,5.9-14.1,1.6-20.7-.4.8-.9,1.5-1.3,2.3,5.9-.7,9.7-4.9,12.3-10,3.9-7.8,6-16.8,7.9-25.3a172.72,172.72,0,0,0,4-28.6c.2-3.2.5-6.8-.9-9.8-.8-2-5.9-5.1-6-6.5l-1.5,1.5c5.6-.6,13.6.8,15.5-5.6,2.5-8,2.4-17.9,2.3-26.1a142.48,142.48,0,0,0-2.5-26.1c-1.8-9.7-5-19.4-2-29.2a1.52,1.52,0,0,0-2.2-1.7c-14.1,7.3-28.6,15.2-36.8,29.3a16,16,0,0,1,2.1-.5c-1.4-.8-2.9-1.6-4.3-2.4a1.51,1.51,0,0,0-1.8.2c-8.4,9.9-30.5,19.3-22.2,35.8l2.1-2.1c-2.7-1.6-5.5-3.2-8.2-4.8a1.58,1.58,0,0,0-2.1.5,341.67,341.67,0,0,0-29.7,71.9,1.43,1.43,0,1,0,2.7.9Z" transform="translate(-187.9 -138.52)"/><path class="cls-1" d="M1079.8,636.3c-16.8,1.2-25.7-18.5-22.9-32.7,2.7-13.9,16.3-23.7,30.2-23.3,18.3.4,27.7,18.3,24.4,35-2.9,14.9-17.9,25.9-32.9,20-1.8-.7-2.6,2.2-.8,2.9,12,4.7,26-.8,32.6-11.7,7-11.6,6.2-28.2-1.9-39-8.2-11-23.9-12.5-35.8-7.2a32,32,0,0,0-19.4,29.9c.3,14.2,10.8,30.2,26.4,29.1,2-.1,2.1-3.1.1-3Z" transform="translate(-187.9 -138.52)"/><path class="cls-1" d="M1233.3,416.6a206.94,206.94,0,0,1-20.1,30.6c-1.2,1.5.9,3.6,2.1,2.1a207.8,207.8,0,0,0,20.6-31.2c.9-1.7-1.7-3.2-2.6-1.5Z" transform="translate(-187.9 -138.52)"/><path class="cls-1" d="M1233.2,419c3.6,9.5,7.4,19,11.3,28.4.7,1.8,3.6,1,2.9-.8-3.9-9.4-7.7-18.9-11.3-28.4-.7-1.8-3.6-1-2.9.8Z" transform="translate(-187.9 -138.52)"/><path class="cls-1" d="M1232.5,420.4a500.07,500.07,0,0,1-14.4,110.3,1.5,1.5,0,0,0,2.9.8,501.36,501.36,0,0,0,14.5-111.1c.1-2-2.9-2-3,0Z" transform="translate(-187.9 -138.52)"/><path class="cls-1" d="M1249.8,481.5a212.67,212.67,0,0,1-1.9,64.2c-.3,1.9,2.5,2.7,2.9.8a218,218,0,0,0,2-65c-.3-1.9-3.3-1.9-3,0Z" transform="translate(-187.9 -138.52)"/><path class="cls-1" d="M1238.3,523.1c3.5,8,9.6,15.3,10,24.3a1.52,1.52,0,0,0,2.8.8c3.5-6.1,7.1-12.2,10.6-18.3a1.5,1.5,0,0,0-2.6-1.5c-3.5,6.1-7.1,12.2-10.6,18.3.9.3,1.9.5,2.8.8-.4-9.7-6.7-17.2-10.4-25.8-.8-1.9-3.4-.4-2.6,1.4Z" transform="translate(-187.9 -138.52)"/><path class="cls-1" d="M556,1029.4c60.3-5.6,120.7-12.9,181.2-15.4,61-2.5,122.3-.9,183.3.7,35,.9,70,2.6,104.8,5.9,1.9.2,1.9-2.8,0-3-61.2-5.8-122.6-6.5-184-7.2-30.8-.4-61.6-.7-92.3.3-29.9.9-59.7,3.4-89.5,6.1L556,1026.4c-1.9.1-1.9,3.1,0,3Z" transform="translate(-187.9 -138.52)"/><path class="cls-1" d="M869.8,985.2c25.1,4.7,49.9,4.5,75.2,2.2,26-2.4,51.9-3.9,78-5.1,52.4-2.3,104.8-4.4,157.1-6.6,29.9-1.3,59.8-2.5,89.7-3.8,1.9-.1,1.9-3.1,0-3l-157.4,6.6c-51.6,2.2-103.5,3.3-155,7.7-14,1.2-28,2.8-42,3a224.9,224.9,0,0,1-44.8-4c-1.9-.2-2.7,2.7-.8,3Z" transform="translate(-187.9 -138.52)"/><path class="cls-1" d="M189.4,964q69.9,1.95,139.8-.6c1.9-.1,1.9-3.1,0-3q-69.9,2.55-139.8.6c-2-.1-2,2.9,0,3Z" transform="translate(-187.9 -138.52)"/><path class="cls-1" d="M240.3,1004.2c17-3.6,35-1.3,52.2-.5s34.5,1.7,51.8,2.6c35.2,1.8,70.3,3.6,105.5,5.3,1.9.1,1.9-2.9,0-3l-107.5-5.4-53.7-2.7c-16.3-.8-32.9-2.7-49,.8-1.9.4-1.1,3.3.7,2.9Z" transform="translate(-187.9 -138.52)"/><path class="cls-1" d="M509.9,928c61.8,4.2,122.6-11.8,184.3-11.6a1.5,1.5,0,0,0,0-3c-61.7-.2-122.5,15.7-184.3,11.6-1.9-.2-1.9,2.9,0,3Z" transform="translate(-187.9 -138.52)"/><path class="cls-1" d="M463.6,617.2a29.84,29.84,0,0,1,1.8-5c.5-.7.9-1.3,1.4-2,2.1-.2,4.3-.5,6.4-.7.6.4,1.1,1.6,1.5,2.2a18.2,18.2,0,0,0,5.4,5.3,16.65,16.65,0,0,0,14.4,1.4c12.3-4.5,16.9-20.8,31.9-19.2a17.86,17.86,0,0,1,10.7,4.8c2.2,2.1,3.9,4.7,6.2,6.7,4.1,3.4,9.2,3.9,14.1,2.1,6-2.1,10.6-6.6,15.1-10.9,6.1-5.7,15-12.6,23.1-6.5,5.3,3.9,8.4,9.9,15,12a19.71,19.71,0,0,0,18-3.1c1.5-1.1,0-3.8-1.5-2.6-7.2,5.4-16.2,4.5-22.5-1.8-4.2-4.1-7.8-9.2-14-9.9-14.6-1.8-22.2,16-34.6,20.1-9.4,3.1-12.5-5.3-18.7-9.9a21.44,21.44,0,0,0-16.1-3.9c-6,.9-10.6,4.5-14.8,8.6-4.9,4.9-10.1,11.6-17.7,11.6-5.1,0-9-2.8-11.8-6.8-1.6-2.2-2.9-4-5.8-4.3-6.3-.6-9,6-10.5,10.9a1.57,1.57,0,0,0,3,.9Z" transform="translate(-187.9 -138.52)"/><path class="cls-1" d="M617.8,565.5c3.6-10.5,16.2-1.6,21,2.3,4.2,3.4,9.1,6.9,14.8,6.7,9.4-.4,14.4-10,22.1-14,10.7-5.5,17.2,8.8,27.6,7.4,4.6-.6,7-4.3,9.9-7.5,3.1-3.4,6.3-3.4,10.7-2.4l12.4,3a1.5,1.5,0,0,0,.8-2.9l-12.4-3c-2.8-.7-5.6-1.5-8.4-.7-5.5,1.7-7.1,9-12.6,10.3-5.9,1.4-11.7-5.2-16.8-7.3a14,14,0,0,0-12.6.4c-4.4,2.3-7.7,6.2-11.6,9.3-2.6,2.1-5.5,4-8.9,4.2-5.2.3-9.5-3.3-13.3-6.3-4.6-3.6-9.5-7.9-15.8-7.4-4.5.3-8.2,2.7-9.7,7-.7,1.9,2.2,2.7,2.8.9Z" transform="translate(-187.9 -138.52)"/><path class="cls-1" d="M1069.9,273.7c-.9,18.7-1.5,37.5-1.7,56.3a1.5,1.5,0,0,0,3,0c.2-18.8.8-37.5,1.7-56.3.1-1.9-2.9-1.9-3,0Z" transform="translate(-187.9 -138.52)"/><path class="cls-1" d="M1071.9,275.1c23.1-3.2,46.6-6.3,69.6-.9,1.9.4,2.7-2.4.8-2.9-23.5-5.6-47.6-2.4-71.2.9-1.9.2-1.1,3.1.8,2.9Z" transform="translate(-187.9 -138.52)"/><path class="cls-1" d="M1139.6,275.2c.5,38-.2,76.1-2.2,114.1-.1,1.9,2.9,1.9,3,0q3-57,2.2-114.1a1.5,1.5,0,0,0-3,0Z" transform="translate(-187.9 -138.52)"/><path class="cls-1" d="M1070.7,379.1c.5,4.8.7,9.8,1.6,14.5a7.76,7.76,0,0,0,3.3,5.3c6.3,4.1,16.5,1.7,23.4,1.3l29.5-1.8c4.4-.3,11.4-1.5,8.7-7.6-.8-1.8-3.4-.2-2.6,1.5.5,1.1-5.1,2.9-6.1,3.1a40.28,40.28,0,0,1-4.9.3c-2.9.2-5.9.4-8.8.5-5.9.4-11.8.7-17.7,1.1-5.4.3-11.4,1.4-16.8.2-6.8-1.6-5.9-12.6-6.6-18.3-.2-2-3.2-2-3-.1Z" transform="translate(-187.9 -138.52)"/><path class="cls-1" d="M1052.5,375.4c-8.8,12.9-17.9,25.6-27.1,38.2a1.36,1.36,0,0,0,0,1.5,6,6,0,0,0,7.2,2.6c4.3-1.3,6.4-6.2,8.6-9.6a142.92,142.92,0,0,1,12.1-16c1.9-2.1,3.8-4.2,5.8-6.2,2.3-2.3,6.2-7.2,9.5-7.7,1.9-.3,1.1-3.2-.8-2.9-3,.5-5,2.9-7.2,4.9-2.9,2.7-5.7,5.5-8.4,8.5a148.9,148.9,0,0,0-14.2,18.5c-1.2,1.8-2.2,4-3.7,5.6-1.6,2.3-3.3,2.5-5.3.6.6-.8,1.2-1.6,1.7-2.4,2.7-3.7,5.4-7.4,8-11.1,5.5-7.7,10.9-15.4,16.2-23.2,1.3-1.4-1.3-2.9-2.4-1.3Z" transform="translate(-187.9 -138.52)"/><path class="cls-1" d="M1068.1,379.1a31.35,31.35,0,0,0,29.2-18.6c4.4-10.3,2-23.7-7.3-30.5-10.7-7.7-24.4-1.9-32.7,6.5-4.9,5-9,11.3-10,18.3a21.06,21.06,0,0,0,.4,8.3,17.65,17.65,0,0,0,1.8,4.5c.2.4,4.8,6.9,2.8,6.8s-1.9,2.8,0,3c3.1.3,4.7-2.5,3.8-5.3-.7-2.3-2.9-3.9-4.1-6a17.51,17.51,0,0,1-1.7-10.8c1.7-12.8,15.3-26.2,28.5-26,13,.1,19.8,14.6,17.1,26-3,12.4-15.2,21.1-27.8,20.7a1.55,1.55,0,0,0,0,3.1Z" transform="translate(-187.9 -138.52)"/><path class="cls-1" d="M1082.3,285.7l-.1-.1v2.1c1.3-1.5,10.3-1.4,12.7-1.7,3.8-.4,7.7-.7,11.5-.9s7.7-.4,11.6-.5c1.7,0,10.6.8,11.2-.8-.7,1.8,2.2,2.6,2.9.8.1-.2.1-.3.2-.5a1.44,1.44,0,0,0-.4-1.5c-2.2-2.2-6.2-1.2-9.1-1.2-5.5,0-10.9.2-16.4.6-5.1.3-10.2.8-15.4,1.3-2.6.3-9.1-.1-11,2.1a1.54,1.54,0,0,0,0,2.1l.1.1c1.5,1.6,3.6-.6,2.2-1.9Z" transform="translate(-187.9 -138.52)"/><path class="cls-1" d="M1080.9,300.3c10.1,1.4,19.9,1,30,.6,1.9-.1,1.9-3.1,0-3-9.9.4-19.4.8-29.2-.5-1.9-.2-2.7,2.7-.8,2.9Z" transform="translate(-187.9 -138.52)"/><path class="cls-1" d="M1074.1,311.6c-.3.3-.6.7-.9,1a1.54,1.54,0,0,0,1.1,2.6,412.13,412.13,0,0,0,52.1-2.4c1.9-.2,1.9-3.2,0-3a412.13,412.13,0,0,1-52.1,2.4c.4.9.7,1.7,1.1,2.6.3-.3.6-.7.9-1,1.2-1.5-.9-3.6-2.2-2.2Z" transform="translate(-187.9 -138.52)"/><path class="cls-1" d="M1095.6,328a112.61,112.61,0,0,0,27.2-1.2c1.9-.3,1.1-3.2-.8-2.9a111.31,111.31,0,0,1-26.4,1.1c-2-.1-2,2.9,0,3Z" transform="translate(-187.9 -138.52)"/><path class="cls-1" d="M1071.2,368.5c-8.1.4-15-6.7-12.4-14.9,2-6.5,9.5-13.4,16.3-14.5a11.43,11.43,0,0,1,9.4,2.6c3.7,3.4,2.7,8.4,1,12.5-2.9,7.2-8.2,13.7-16.3,14.6-1.9.2-1.9,3.2,0,3,10.4-1.1,17.8-10,20.3-19.8,2.4-9.2-4.4-16.8-13.9-16-8.8.8-18.5,9.7-20.1,18.4-1.7,9.7,6.2,17.6,15.7,17.1,1.9-.1,1.9-3.1,0-3Z" transform="translate(-187.9 -138.52)"/><path class="cls-1" d="M1072.9,340.4c-4,8.6-7.7,17.3-11,26.1-.7,1.8,2.2,2.6,2.9.8,3.3-8.6,6.8-17.1,10.7-25.4.8-1.8-1.7-3.3-2.6-1.5Z" transform="translate(-187.9 -138.52)"/><path class="cls-1" d="M1077.5,349c-2.6,5.4-5.1,10.8-7.7,16.2-.8,1.7,1.8,3.3,2.6,1.5,2.6-5.4,5.1-10.8,7.7-16.2.8-1.7-1.7-3.3-2.6-1.5Z" transform="translate(-187.9 -138.52)"/><path class="cls-1" d="M334.1,185.7v27.4a1.5,1.5,0,0,0,3,0V185.7a1.5,1.5,0,0,0-3,0Z" transform="translate(-187.9 -138.52)"/><path class="cls-1" d="M336,214.4h25.4a1.5,1.5,0,0,0,0-3H336a1.5,1.5,0,0,0,0,3Z" transform="translate(-187.9 -138.52)"/><path class="cls-1" d="M363.2,211.2V181.4a1.5,1.5,0,0,0-3,0v29.8a1.5,1.5,0,0,0,3,0Z" transform="translate(-187.9 -138.52)"/><path class="cls-1" d="M362.1,179.5h-26a1.5,1.5,0,0,0,0,3h26a1.5,1.5,0,0,0,0-3Z" transform="translate(-187.9 -138.52)"/><path class="cls-1" d="M346.8,216v30.5a1.5,1.5,0,0,0,3,0V216a1.5,1.5,0,0,0-3,0Z" transform="translate(-187.9 -138.52)"/><path class="cls-1" d="M311.6,246.1q16.65-15.9,34.7-30.5c1.5-1.2-.6-3.3-2.1-2.1-12,9.7-23.5,19.8-34.7,30.5-1.4,1.3.7,3.4,2.1,2.1Z" transform="translate(-187.9 -138.52)"/><path class="cls-1" d="M350,216.6l36,27.3c1.5,1.2,3-1.4,1.5-2.6l-36-27.3c-1.5-1.2-3,1.4-1.5,2.6Z" transform="translate(-187.9 -138.52)"/><path class="cls-1" d="M300,249.7h19.9a1.5,1.5,0,0,0,0-3H300a1.5,1.5,0,0,0,0,3Z" transform="translate(-187.9 -138.52)"/><path class="cls-1" d="M318.1,250.3v22.6a1.5,1.5,0,0,0,3,0V250.3a1.5,1.5,0,0,0-3,0Z" transform="translate(-187.9 -138.52)"/><path class="cls-1" d="M297.8,248.9v26.4a1.5,1.5,0,0,0,3,0V248.9a1.5,1.5,0,1,0-3,0Z" transform="translate(-187.9 -138.52)"/><path class="cls-1" d="M299,277.1h18.5a1.5,1.5,0,0,0,0-3H299a1.5,1.5,0,0,0,0,3Z" transform="translate(-187.9 -138.52)"/><path class="cls-1" d="M337.6,249.6v26a1.5,1.5,0,0,0,3,0v-26a1.5,1.5,0,1,0-3,0Z" transform="translate(-187.9 -138.52)"/><path class="cls-1" d="M339.1,276.4h18.2a1.5,1.5,0,0,0,0-3H339.1a1.5,1.5,0,0,0,0,3Z" transform="translate(-187.9 -138.52)"/><path class="cls-1" d="M340.1,251.1h16.1a1.5,1.5,0,0,0,0-3H340.1a1.5,1.5,0,0,0,0,3Z" transform="translate(-187.9 -138.52)"/><path class="cls-1" d="M355.1,249.2v24.7a1.5,1.5,0,0,0,3,0V249.2a1.5,1.5,0,0,0-3,0Z" transform="translate(-187.9 -138.52)"/><path class="cls-1" d="M380,249.2c-.3,6.5-.5,13-.5,19.5a1.5,1.5,0,0,0,3,0c0-6.5.2-13,.5-19.5.1-1.9-2.9-1.9-3,0Z" transform="translate(-187.9 -138.52)"/><path class="cls-1" d="M381.3,249.9c6.6-.7,13.2-1.5,19.8-2.2,1.9-.2,1.9-3.2,0-3-6.6.7-13.2,1.5-19.8,2.2-1.9.2-2,3.2,0,3Z" transform="translate(-187.9 -138.52)"/><path class="cls-1" d="M400.1,246.8a69.83,69.83,0,0,0,.7,19.9c.3,1.9,3.2,1.1,2.9-.8a68,68,0,0,1-.6-19.1c.2-1.9-2.8-1.9-3,0Z" transform="translate(-187.9 -138.52)"/><path class="cls-1" d="M382.3,271.3l19.8-3c1.9-.3,1.1-3.2-.8-2.9l-19.8,3c-1.9.3-1.1,3.1.8,2.9Z" transform="translate(-187.9 -138.52)"/><path class="cls-1" d="M346.4,277.3a150.26,150.26,0,0,0-9.8,17.5c-.8,1.7,1.8,3.3,2.6,1.5a157,157,0,0,1,9.8-17.5c1-1.6-1.6-3.1-2.6-1.5Z" transform="translate(-187.9 -138.52)"/><path class="cls-1" d="M347.3,278.5a101.54,101.54,0,0,1,9.6,15.7c.9,1.7,3.5.2,2.6-1.5a113.58,113.58,0,0,0-9.6-15.7c-1.1-1.6-3.7-.1-2.6,1.5Z" transform="translate(-187.9 -138.52)"/><path class="cls-1" d="M331.2,298.7c2.1,0,4.2,0,6.4.1a28.25,28.25,0,0,1,2.9.2c1.8.1,1.6-.5,1.9,1.1.7,3.8-.1,8.7-.4,12.6-.2,1.9,2.8,1.9,3,0,.2-3,.4-6.1.4-9.1,0-1.7.5-4.5-.4-6.1s-3-1.3-4.5-1.4q-4.65-.3-9.3-.3c-1.9-.1-1.9,2.9,0,2.9Z" transform="translate(-187.9 -138.52)"/><path class="cls-1" d="M329.2,298.6c.3,3.5.6,6.9.9,10.4.2,2.8-.2,6.9.9,9.6a2.23,2.23,0,0,0,2,1.7c2.6.5,6.5-.8,9.1-1.2,1.9-.3,1.1-3.1-.8-2.9s-4.6,1.3-6.3.9c-1.9-.5-1.5-3.1-1.6-5.1-.4-4.5-.8-8.9-1.2-13.4-.2-1.9-3.2-2-3,0Z" transform="translate(-187.9 -138.52)"/><path class="cls-1" d="M351.8,298.2a86.17,86.17,0,0,0-.2,8.8c0,.7.9,7.3.6,7.5.5-.1,1-.3,1.5-.4-.1,0-.2-.1-.4-.1a17.1,17.1,0,0,0,1.1,1.4V315a17.1,17.1,0,0,1-1.1,1.4.37.37,0,0,0,.3-.1c1.9-.4,1.1-3.3-.8-2.9a.37.37,0,0,0-.3.1,1.39,1.39,0,0,0-1.1,1.4v.4a1.5,1.5,0,0,0,1.1,1.4c2.6.5,2.6-1.9,2.5-3.8a93.77,93.77,0,0,1-.2-15c.1-1.7-2.9-1.6-3,.3Z" transform="translate(-187.9 -138.52)"/><path class="cls-1" d="M353.6,298.9c0-.7,6.4-.9,7.3-.8,2.5.4,2,.6,2.4,2.4.3,1.2-.1,2.9-.2,4.1-.1,2.5-.1,4.9,0,7.4,0,1.4,1,5.6.3,6.6a16,16,0,0,1,2.1-.5c-.1,0-.2-.1-.3-.1.2.6.5,1.1.7,1.7,0-.1.1-.2.1-.3a1.5,1.5,0,0,0-2.9-.8c0,.1-.1.2-.1.3a1.48,1.48,0,0,0,.7,1.7c.1,0,.2.1.3.1a1.69,1.69,0,0,0,2.1-.5c.7-1,.4-2,.3-3.2-.1-2.7-.3-5.5-.3-8.2s.1-5.5.2-8.2c.1-1.2.4-2.8-.4-3.9-1.7-2.3-7.1-1.6-9.3-1.3-2.5.3-5.8.6-6,3.6,0,1.8,3,1.8,3-.1Z" transform="translate(-187.9 -138.52)"/><path class="cls-1" d="M353.9,319.2a29.57,29.57,0,0,1,8.9.8,1.5,1.5,0,0,0,.8-2.9,28.91,28.91,0,0,0-9.7-1c-2,.2-2,3.2,0,3.1Z" transform="translate(-187.9 -138.52)"/><path class="cls-1" d="M391.5,271.9c-2.4,5.3-4.5,10.8-6.4,16.3-.6,1.8,2.3,2.6,2.9.8,1.8-5.3,3.8-10.5,6.1-15.6.8-1.8-1.8-3.3-2.6-1.5Z" transform="translate(-187.9 -138.52)"/><path class="cls-1" d="M376.2,295.6a49.7,49.7,0,0,1,15.4-1.9c1.9.1,1.9-2.9,0-3a52.21,52.21,0,0,0-16.2,2,1.5,1.5,0,0,0,.8,2.9Z" transform="translate(-187.9 -138.52)"/><path class="cls-1" d="M376.1,294.2c-.9,2.8-.2,5.4.1,8.2a85.13,85.13,0,0,1,.2,10.1c-.2,4.4.9,4.9,5.3,4.5,3-.3,7.1.5,8.2-2.8s.7-7.5,1-10.9c.3-3.6.7-7.3,1-10.9.2-1.9-2.8-1.9-3,0-.4,4.2-.8,8.5-1.2,12.7a51.08,51.08,0,0,1-.5,5.5c-.6,2.8-.9,3-3.8,3.3l-2.6.3c-1.7.6-2.2.1-1.5-1.6-.4-1.4.2-3.6.1-5.1-.1-3.8-1.6-8.9-.5-12.5.7-1.9-2.2-2.7-2.8-.8Z" transform="translate(-187.9 -138.52)"/><path class="cls-1" d="M395.7,274.7a107.29,107.29,0,0,1,6.2,11c.8,1.7,3.4.2,2.6-1.5a99.67,99.67,0,0,0-6.2-11c-1.1-1.7-3.7-.2-2.6,1.5Z" transform="translate(-187.9 -138.52)"/><path class="cls-1" d="M399.1,290.1h15a1.5,1.5,0,0,0,0-3h-.9a1.5,1.5,0,0,0,0,3h.9a1.5,1.5,0,0,0,0-3h-15a1.5,1.5,0,0,0,0,3Z" transform="translate(-187.9 -138.52)"/><path class="cls-1" d="M397.6,290c.4,3.8.7,7.6.8,11.4.1,2.7-.8,7.3.4,9.8.7,1.5,1.6,1.7,3.2,1.7,3.7-.1,7.7-1,11.4-1.5a1.6,1.6,0,0,0,1.1-1.4c-.1-6.8-.2-13.5-.3-20.3a1.5,1.5,0,0,0-3,0c.1,6.8.2,13.5.3,20.3a17.1,17.1,0,0,1,1.1-1.4c-2.4.3-4.8.6-7.2,1-.8.1-3.1.8-3.8.2-.5-.4,0-3.5,0-4.1-.1-5.2-.4-10.4-.9-15.5-.3-2.1-3.3-2.1-3.1-.2Z" transform="translate(-187.9 -138.52)"/><path class="cls-1" d="M286.6,298.2a171.86,171.86,0,0,1,16.2-13.4c1.5-1.1,0-3.7-1.5-2.6a172.1,172.1,0,0,0-16.8,13.9c-1.4,1.3.7,3.4,2.1,2.1Z" transform="translate(-187.9 -138.52)"/><path class="cls-1" d="M301.9,283.5a74.61,74.61,0,0,1,7.5,13.5c.8,1.8,3.4.2,2.6-1.5a80.43,80.43,0,0,0-7.5-13.5c-1.1-1.6-3.7-.1-2.6,1.5Z" transform="translate(-187.9 -138.52)"/><path class="cls-1" d="M273.3,303.7l8-.6a22.8,22.8,0,0,1,3.6-.3c1.4-.5,1.8-.4,1.2.4a2.62,2.62,0,0,0-.5,1.9,84.94,84.94,0,0,0-1.5,15.1c.9-.4,1.7-.7,2.6-1.1a1.38,1.38,0,0,1-.3-.4c-1.3-1.4-3.4.7-2.1,2.1a1.38,1.38,0,0,1,.3.4,1.55,1.55,0,0,0,2.6-1.1,108.67,108.67,0,0,1,1.1-12.8c.3-1.8,1.6-4.8.5-6.6-.9-1.4-2.4-1.1-3.8-1l-11.6.9c-2,.3-2,3.3-.1,3.1Z" transform="translate(-187.9 -138.52)"/><path class="cls-1" d="M275.3,300.8h-.4a1.71,1.71,0,0,0-1.3.7c-1.6,2.7-1.5,7.4-2,10.5l-2.1,13.2c-.1.8.2,1.7,1,1.8a23.38,23.38,0,0,0,13.6-.9c1.8-.7,1-3.6-.8-2.9a20.5,20.5,0,0,1-12,.9c.3.6.7,1.2,1,1.8.3-2,3.8-22.1,2.8-22.2,2.1.3,2.1-2.7.2-2.9Z" transform="translate(-187.9 -138.52)"/><path class="cls-1" d="M302.5,300.3l-.1.1h2.1c-.1,0-.1-.1-.2-.1v2.1a15.52,15.52,0,0,1,2.3-.1c1.1-.1,2.3-.2,3.4-.2a44.22,44.22,0,0,1,6.3.2c-.4-.9-.7-1.7-1.1-2.6a2.18,2.18,0,0,0-.5.4c-1.9.2-1.9,3.2,0,3a3.68,3.68,0,0,0,2.7-1.3,1.54,1.54,0,0,0-1.1-2.6,63.16,63.16,0,0,0-8.7-.1c-1.4.1-4.3-.2-5.3,1.1a1.45,1.45,0,0,0,0,2.1c.1,0,.1.1.2.1a1.45,1.45,0,0,0,2.1,0l.1-.1c1.2-1.3-.9-3.4-2.2-2Z" transform="translate(-187.9 -138.52)"/><path class="cls-1" d="M301.3,301c-.3,4.1-.6,8.2-.8,12.3-.1,2.3-1.4,8.2,0,10.3a2.63,2.63,0,0,0,2.7,1.3c1.3,0,2.7-.9,3.9-1.2a26.33,26.33,0,0,1,7.4-.9,1.5,1.5,0,0,0,0-3,29.62,29.62,0,0,0-6.6.7c-1,.2-2.9,1.3-3.8,1.1-.7.5-1,.4-.8-.4a10.44,10.44,0,0,1,0-2.5c.1-5.8.6-11.7,1-17.5.2-2.2-2.8-2.2-3-.2Z" transform="translate(-187.9 -138.52)"/><path class="cls-1" d="M314.2,301.3a151.05,151.05,0,0,0-1.1,20.2,1.5,1.5,0,0,0,3,0,151.05,151.05,0,0,1,1.1-20.2c.3-1.9-2.7-1.9-3,0Z" transform="translate(-187.9 -138.52)"/><path class="cls-1" d="M1113,720.8a640.56,640.56,0,0,1,49.2,163c.3,1.9,3.2,1.1,2.9-.8a646.24,646.24,0,0,0-49.5-163.7c-.8-1.7-3.4-.2-2.6,1.5Z" transform="translate(-187.9 -138.52)"/><path class="cls-1" d="M1237.5,633c-29.2,44.6-54.6,91.6-72.6,141.9-.7,1.8,2.2,2.6,2.9.8,17.9-50.1,43.2-96.8,72.3-141.2,1-1.6-1.6-3.1-2.6-1.5Z" transform="translate(-187.9 -138.52)"/><path class="cls-1" d="M1102.8,775.6a68.73,68.73,0,0,1,39.4,28.4c1.1,1.6,3.7.1,2.6-1.5a71.93,71.93,0,0,0-41.2-29.8,1.5,1.5,0,0,0-.8,2.9Z" transform="translate(-187.9 -138.52)"/><path class="cls-1" d="M1141.8,734.1a78.1,78.1,0,0,0-10.7,29.6c-.3,1.9,2.6,2.7,2.9.8a76.67,76.67,0,0,1,10.4-28.9c1-1.6-1.6-3.1-2.6-1.5Z" transform="translate(-187.9 -138.52)"/><path class="cls-1" d="M1172.9,677.9a57.75,57.75,0,0,1,10.9,18.3c1.2,3,2.2,6.1,3.1,9.1s3,7.2,1.8,10.1c-.7,1.8,2.2,2.6,2.9.8,1.2-2.9,0-5.8-.9-8.6-1.2-4.1-2.5-8.2-4.1-12.2a63.5,63.5,0,0,0-11.7-19.7c-1.2-1.4-3.3.7-2,2.2Z" transform="translate(-187.9 -138.52)"/><path class="cls-1" d="M1206.8,689.4a95,95,0,0,1,47.1-29.6,1.5,1.5,0,0,0-.8-2.9,98.13,98.13,0,0,0-48.4,30.3c-1.2,1.5.9,3.7,2.1,2.2Z" transform="translate(-187.9 -138.52)"/><path class="cls-1" d="M1171.5,769.7c9-8,19.6-13.6,30.8-17.8,5.1-1.9,10.2-3.4,15.4-4.9,2.9-.8,5.7-1.5,8.6-2.3,1.4-.3,7.3-2.7,8.4-2.1a16,16,0,0,1-.5-2.1c-.1.1-.1.2-.2.3a16,16,0,0,1,2.1-.5c-.1,0-.2-.1-.3-.1-1.7-.9-3.2,1.7-1.5,2.6.1,0,.2.1.3.1a1.6,1.6,0,0,0,2.1-.5c.1-.1.1-.2.2-.3a1.6,1.6,0,0,0-.5-2.1c-1.4-.8-2.9-.1-4.4.2-3.4.8-6.8,1.6-10.2,2.5-6.5,1.7-13,3.6-19.4,5.8-12,4.3-23.4,10.2-32.9,18.8-1.5,1.5.6,3.7,2,2.4Z" transform="translate(-187.9 -138.52)"/><path class="cls-1" d="M1120.5,893.1c22.7,5.5,45.8,1.4,68.5-1.3,24.6-2.9,49.3-3.4,74-3.8a1.5,1.5,0,0,0,0-3c-24.1.4-48.2.9-72.1,3.6-23.1,2.7-46.6,7.2-69.6,1.6-1.8-.5-2.6,2.4-.8,2.9Z" transform="translate(-187.9 -138.52)"/><path class="cls-1" d="M1192.1,884.6q60.6-3.15,121.2-6.4c1.9-.1,1.9-3.1,0-3q-60.6,3.15-121.2,6.4c-1.9.1-1.9,3.1,0,3Z" transform="translate(-187.9 -138.52)"/><path class="cls-1" d="M1076.4,595.9c-9.9,1.9-22-7.6-21.7-18.1.4-11.9,15.3-15.9,24.8-16,10.5,0,17.9,8.1,15.4,18.7a21,21,0,0,1-7.6,11.3c-2.1,1.7-10.6,7.9-13,4.9-1.2-1.5-3.3.6-2.1,2.1,3.2,4,9.8-.1,13.2-2,5.2-3.1,9.9-7.8,11.9-13.6,4-11.7-3.1-23.4-15.4-24.3-11.7-.9-29.8,4.5-30.1,18.9-.2,12.6,13.6,23.2,25.5,21,1.8-.3,1-3.2-.9-2.9Z" transform="translate(-187.9 -138.52)"/><path class="cls-2" d="M308.8,643a74,74,0,0,0-9.6,13.8c-.9,1.7,1.7,3.2,2.6,1.5a74.39,74.39,0,0,1,9.2-13.2c1.2-1.4-.9-3.6-2.2-2.1Z" transform="translate(-187.9 -138.52)"/><path class="cls-2" d="M308.7,644.2c3,4.2,6,8.3,9,12.5,1.1,1.6,3.7.1,2.6-1.5-3-4.2-6-8.3-9-12.5-1.2-1.6-3.8-.1-2.6,1.5Z" transform="translate(-187.9 -138.52)"/><path class="cls-2" d="M308.5,650.1c.9,35.3,1.7,70.6,2.6,106a1.5,1.5,0,0,0,3,0c-.9-35.3-1.7-70.6-2.6-106-.1-1.9-3.1-2-3,0Z" transform="translate(-187.9 -138.52)"/><path class="cls-2" d="M314.4,758.9H447.6a1.5,1.5,0,0,0,0-3H314.4a1.5,1.5,0,0,0,0,3Z" transform="translate(-187.9 -138.52)"/><path class="cls-2" d="M441.8,755.9c3.1,1.2,6.1,2.4,9.2,3.6-.4-1.1-.9-2.2-1.3-3.3a17.31,17.31,0,0,1-6.2,6.4c-2.5,1.5-.2,5.4,2.3,3.9a21.65,21.65,0,0,0,7.9-8,2.26,2.26,0,0,0-1.3-3.3c-3.1-1.2-6.1-2.4-9.2-3.6-2.9-1.1-4.1,3.2-1.4,4.3Z" transform="translate(-187.9 -138.52)"/><path class="cls-3" d="M1209.8,215.8c-4-5.3,1.7-13.4,7.9-9.4,2.8,1.8,4.1,5.5,2.1,8.4a6.77,6.77,0,0,1-8.3,2.3c-1.7-.9-3.2,1.7-1.5,2.6a9.91,9.91,0,0,0,12-2.8c3.1-3.9,2-9.4-1.8-12.4s-8.9-2.9-12.1.7a9.93,9.93,0,0,0-.7,12.2c.9,1.4,3.5-.1,2.4-1.6Z" transform="translate(-187.9 -138.52)"/><path class="cls-3" d="M1293,596.1c-.2-4.7,3.3-7.9,7.9-7.9,1.9,0,3.4.5,5.2-.3,3.4-1.5,4.7-5.4,5.8-8.7,1.6-4.8,2.8-7.1,8.8-5.6,1.6.4,2.6,1.2,4.3.6,5-1.9,2-10.5,9.6-9.1,1.9.4,2.7-2.5.8-2.9a8.24,8.24,0,0,0-6.8,1.2c-1.9,1.4-2.1,3.1-3.2,4.9-.1,1.9-1.4,2.7-3.8,2.4a11.94,11.94,0,0,0-1.6-.8c-1.1-.1-1.7-.7-2.9-.6a7.31,7.31,0,0,0-5.2,3.1c-1.9,2.3-2.4,5.1-3.5,7.9s-2.2,4.8-5.6,5.1c-1.5.1-2.9-.4-4.4-.2-5.3.8-8.7,5.7-8.5,10.9.2,2,3.2,2,3.1,0Z" transform="translate(-187.9 -138.52)"/><path class="cls-3" d="M344.3,753.2c14.1-28.3,16.3-60.2,24.6-90.3,2.1-7.7,4.2-16.7,10-22.5,8.5-8.5,19.3-2.5,22.8,7.5,2.6,7.6,2.7,16.4,3.2,24.4.5,8.6.9,17.2,1.4,25.8,1.1,18.4,3,36.9,9.2,54.4.6,1.8,3.5,1,2.9-.8-6.5-18.4-8.3-37.9-9.3-57.3-.5-9.5-.9-19.1-1.6-28.6-.6-7.6-.9-15.9-4.5-22.8-2.8-5.4-8.2-9.8-14.5-9.8-6.5,0-11.9,4.5-15.2,9.7-4.3,6.9-6.3,15.6-8.3,23.4-2.2,8.7-4,17.5-5.8,26.3-4,20.2-8.1,40.5-17.4,59.1-1,1.7,1.6,3.2,2.5,1.5Z" transform="translate(-187.9 -138.52)"/><path class="cls-3" d="M358,629.2c-2-2.9,2.1-6.8,4.5-3.6,2.3,3-2,6-4.4,3.7-1.4-1.3-3.5.8-2.1,2.1a6.32,6.32,0,0,0,7.9.5,5.56,5.56,0,0,0,1-8.1,5.63,5.63,0,0,0-8.2-1.1,6.29,6.29,0,0,0-1.2,8c1,1.6,3.6.1,2.5-1.5Z" transform="translate(-187.9 -138.52)"/><path class="cls-3" d="M380.1,615.9c-1.6-2.3,1.9-4.4,3.4-2,1.6,2.6-2.9,5.5-4.4,2.6-.9-1.7-3.4-.2-2.6,1.5a5.16,5.16,0,0,0,7.3,1.9,5.6,5.6,0,0,0,2.2-7.6c-1.4-2.3-4.7-3.5-7.1-2a5.15,5.15,0,0,0-1.6,7c1.3,1.7,3.9.2,2.8-1.4Z" transform="translate(-187.9 -138.52)"/><path class="cls-3" d="M371.4,593.9c-.8-2.3,1.7-4.7,3.7-2.8s-.3,4.6-2.6,3.8c-1.8-.6-2.6,2.3-.8,2.9,5.2,1.7,9.6-4.9,5.5-8.8a5.17,5.17,0,0,0-6.7-.6,5.5,5.5,0,0,0-2,6.3c.7,1.8,3.6,1.1,2.9-.8Z" transform="translate(-187.9 -138.52)"/><path class="cls-3" d="M409.6,620.6c-.3-.2.1.1.2.3v.3h.4a2.92,2.92,0,0,1,.9.2A17.1,17.1,0,0,0,410,620v2.4a17.1,17.1,0,0,1,1.1-1.4,4,4,0,0,1-2.4.2c-1.8-.6-2.6,2.3-.8,2.9a5.51,5.51,0,0,0,4-.2c.6-.3,1.1-.7,1.1-1.4v-2.4a1.41,1.41,0,0,0-1.1-1.4c-1.6-.4-3.5-.6-4.5,1-.8,1.2-.7,3.1.8,3.7a1.6,1.6,0,0,0,2.1-.5,1.83,1.83,0,0,0-.7-2.3Z" transform="translate(-187.9 -138.52)"/><path class="cls-3" d="M576.6,222.5c.5.2-.6,5.2-.1,6.4a4.93,4.93,0,0,0,3.9,2.6c2.2.4,4.1-.6,5.9-1.7s6.1-4.9,7.4-.7c.3.9-.7,3.1-.4,4.3.9,4,4.7,3.8,7.4,1.7a20.18,20.18,0,0,0,2.4-2.7c1-2.4,2.5-2.9,4.4-1.5a4.67,4.67,0,0,0,.3,1.7c1,1.5,1.5,2.5,3.5,2.4s1.9-3.1,0-3c.1,0-2.1-4.5-3.3-5a4.79,4.79,0,0,0-4.3.7,11,11,0,0,0-2.3,2c-1.5,1.5-1.4,3.7-3.8,2.2s-.4-3.6-2-5.6c-2.6-3.3-7-1.5-9.8.3-1.6,1-5.6,4.6-6.6-.7-.1-.7.5-1.8.5-2.5,0-1.6-.3-2.5-1.7-3.2-1.6-1.2-3.1,1.4-1.4,2.3Z" transform="translate(-187.9 -138.52)"/><path class="cls-4" d="M472,456.4c1.2,14,2.4,28,3.7,42a1.5,1.5,0,0,0,3,0c0-.3.1-.7.1-1,.2-1.9-2.8-1.9-3,0,0,.3-.1.7-.1,1h3c-1.2-14-2.4-28-3.7-42-.2-1.9-3.2-2-3,0Z" transform="translate(-187.9 -138.52)"/><path class="cls-4" d="M474.3,457.5c4.2-.9,11.5-2.2,14.7,1.3,2.9,3.1,2.2,9.2,2.6,13.4.7,8.4,1.4,16.8,2.1,25.1.2,1.9,3.2,1.9,3,0-1-12-1.1-24.6-3.1-36.5-1.5-9.3-13.1-7.6-20.1-6.2-1.9.4-1.1,3.3.8,2.9Z" transform="translate(-187.9 -138.52)"/><path class="cls-4" d="M499.9,401.1a736.89,736.89,0,0,1,3.3,96.3c-.1,1.9,2.9,1.9,3,0a737.49,737.49,0,0,0-3.3-96.3c-.2-1.9-3.2-2-3,0Z" transform="translate(-187.9 -138.52)"/><path class="cls-4" d="M503.5,401.1c4.1.6,9.1.6,12.9,2,5.1,1.8,4.3,11,4.8,15.7.9,9.1,1.5,18.2,2.1,27.3,1.1,18.9,1.5,37.8,1.9,56.7a1.5,1.5,0,0,0,3,0c-.5-21.8-1-43.7-2.5-65.5-.7-10.2-1.2-20.5-2.8-30.6-1.4-8.6-11.7-7.5-18.6-8.6-1.9-.1-2.7,2.7-.8,3Z" transform="translate(-187.9 -138.52)"/><path class="cls-4" d="M528.9,382.3q5.1,57,10.3,113.9c.2,1.9,3.2,1.9,3,0q-5.1-57-10.3-113.9c-.1-1.9-3.1-1.9-3,0Z" transform="translate(-187.9 -138.52)"/><path class="cls-4" d="M530.8,383.8a51,51,0,0,1,14.6-.7c4.1.4,7,1.2,7.2,5.6.1,1.5.1,3.1.1,4.6.3,7.5.6,15,1,22.5,1.3,28.7,2.8,57.3,4.3,86,.1,1.9,3.1,1.9,3,0-1.6-31-3.2-61.9-4.6-92.9-.3-6.5-.6-12.9-.8-19.4-.1-2.9-.1-5.8-2.8-7.7-2.5-1.7-6.4-1.8-9.3-1.9a51.27,51.27,0,0,0-13.5,1c-1.9.4-1.1,3.3.8,2.9Z" transform="translate(-187.9 -138.52)"/><path class="cls-2" d="M450.5,372.7c-3.3,6.5-6.5,13-9.8,19.5-.9,1.7,1.7,3.2,2.6,1.5,3.3-6.5,6.5-13,9.8-19.5.8-1.7-1.8-3.3-2.6-1.5Z" transform="translate(-187.9 -138.52)"/><path class="cls-2" d="M450.9,375.7a27.11,27.11,0,0,0,9.1,14.7c1.5,1.2,3.6-.9,2.1-2.1a24.64,24.64,0,0,1-8.3-13.3,1.49,1.49,0,1,0-2.9.7Z" transform="translate(-187.9 -138.52)"/><path class="cls-2" d="M448.8,377.1a455,455,0,0,0,17,129.7,1.5,1.5,0,0,0,2.9-.8,452.47,452.47,0,0,1-16.9-128.9,1.5,1.5,0,0,0-3,0Z" transform="translate(-187.9 -138.52)"/><path class="cls-2" d="M469.4,509.4q35.1-3.3,70.4-3.5c21.9-.1,45.6-1,65.8,8.9,1.7.8,3.2-1.7,1.5-2.6-19.6-9.6-42-9.4-63.4-9.3q-37.2,0-74.3,3.5c-1.9.2-1.9,3.2,0,3Z" transform="translate(-187.9 -138.52)"/><path class="cls-2" d="M593.3,504.5a129.43,129.43,0,0,1,15.4,10.9l.3-2.4c-4.1,3.1-8.1,6.2-12.2,9.3-1.5,1.2,0,3.8,1.5,2.6,4.1-3.1,8.1-6.2,12.2-9.3a1.57,1.57,0,0,0,.3-2.4,125.14,125.14,0,0,0-16-11.3,1.5,1.5,0,0,0-1.5,2.6Z" transform="translate(-187.9 -138.52)"/><path class="cls-2" d="M458.1,427.8l4.5,5.4a1.58,1.58,0,0,0,2.4-.3c8-15.7,15.9-31.5,24-47.2,2.1-4,5-.7,8,.4a8.29,8.29,0,0,0,5.8-.2c4.8-1.8,8-6.8,10.2-11.2,3.6-7.5,6.8-15.3,10.3-22.9.9-2.1,1.9-4.2,2.8-6.2.5-1.2,1.1-3.7,2.1-4.6,3.1-2.8,10.7,3.6,13.3,5.2,4.3,2.6,10.5,8.4,16.1,6.9,4.2-1.1,6.2-5.7,7.4-9.5,5.8-17.1,13.2-32.6,24.6-46.7a1.51,1.51,0,0,0-1.5-2.5,47.46,47.46,0,0,0-14.2,7.6c-1.4,1.1.4,3.1,1.8,2.4,3.9-1.9,7.9-3.9,11.8-5.8-.7-.3-1.5-.6-2.2-.9,1.2,6,2.4,12,3.5,18,.4,1.9,3.3,1.1,2.9-.8-1.2-6-2.4-12-3.5-18a1.52,1.52,0,0,0-2.2-.9c-3.9,1.9-7.9,3.9-11.8,5.8l1.8,2.4a41.16,41.16,0,0,1,12.9-6.9c-.5-.8-1-1.7-1.5-2.5a140.63,140.63,0,0,0-21.1,35.6c-1.4,3.4-2.6,6.9-3.7,10.4-.9,2.8-2.3,8.8-6,9.4-4.2.7-9.6-4.1-13-6.2s-6.7-4.4-10.2-6.3c-4-2.1-6.5-1.3-8.5,2.6-3.8,7.5-6.9,15.5-10.4,23.2-2.6,5.8-5.9,17.5-13,19.4-4.8,1.3-9.2-5.9-13.5-1.7-2.5,2.4-3.8,6.9-5.3,9.9-2.3,4.5-4.5,8.9-6.8,13.4-4.5,8.9-9.1,17.8-13.6,26.7l2.4-.3-4.5-5.4c-1.3-1.3-3.4.8-2.1,2.3Z" transform="translate(-187.9 -138.52)"/><path class="cls-4" d="M893.4,179.3c-9.8-5.4-14-19.1-7.8-28.8,6.3-9.9,21.6-11.7,30.5-4.4,9.1,7.6,9.2,23.2.5,31.1-9,8.3-24.1,6.1-31.5-3.1-1.2-1.5-3.3.6-2.1,2.1a25.78,25.78,0,0,0,29.3,7.2c9.8-4.1,14.9-14.7,13.6-25a22.15,22.15,0,0,0-19.8-19.7c-10.1-1.2-20.9,3.8-24.7,13.6-4.2,10.8.5,23.9,10.6,29.4,1.6,1.1,3.1-1.5,1.4-2.4Z" transform="translate(-187.9 -138.52)"/><path class="cls-4" d="M936.8,197.7c-4.2-7.8,6.6-16.4,12-8,4.8,7.4-7,13-10.8,6.1-.9-1.7-3.5-.2-2.6,1.5,2.4,4.4,8,5.6,12.4,3.7,5.2-2.2,6.5-8.2,3.6-12.8-3-4.8-9.2-6.7-14-3.3a11.33,11.33,0,0,0-3.3,14.4c1.1,1.6,3.7.1,2.7-1.6Z" transform="translate(-187.9 -138.52)"/><path class="cls-2" d="M884.2,954.1h236a1.5,1.5,0,0,0,0-3h-236a1.5,1.5,0,0,0,0,3Z" transform="translate(-187.9 -138.52)"/><path class="cls-2" d="M1169.6,954.1h45a1.5,1.5,0,0,0,0-3h-45a1.5,1.5,0,0,0,0,3Z" transform="translate(-187.9 -138.52)"/><path class="cls-2" d="M657.5,999.5h157a1.5,1.5,0,0,0,0-3h-157a1.5,1.5,0,0,0,0,3Z" transform="translate(-187.9 -138.52)"/><path class="cls-2" d="M812.5,987.5h136a1.5,1.5,0,0,0,0-3h-136a1.5,1.5,0,0,0,0,3Z" transform="translate(-187.9 -138.52)"/><path class="cls-2" d="M447,979.3h41c2.9,0,2.9-4.5,0-4.5H447c-2.9,0-2.9,4.5,0,4.5Z" transform="translate(-187.9 -138.52)"/><path class="cls-2" d="M502,979.3h14c2.9,0,2.9-4.5,0-4.5H502c-2.9,0-2.9,4.5,0,4.5Z" transform="translate(-187.9 -138.52)"/><path class="cls-5" d="M559.7,495.8" transform="translate(-187.9 -138.52)"/></g><g id="cat"><path class="cls-2" d="M388.8,797.7c1.9.3,4.5,2.7,6.5,14.1L413,813c4.9-4.1,9.8-8.2,14.7-12.4.7,4,1.6,9.9,2.4,17.1,1.8,16.7.7,20.7,1.8,30a94.56,94.56,0,0,0,13.5,38.2c8.2,12.9,13.6,13.3,20,25.9a71,71,0,0,1,7.1,25.3c1-.1,13.7-1.1,21.8,8.8,3.7,4.6,7.8,13.2,4.7,20-3,6.6-9.9,5.6-22.4,16.5-4.4,3.8-8.6,7.6-7.6,10.6s6.4,2.5,15.9,7.6c5,2.7,7.4,4.1,8.2,6.5,3,8.7-16,22.1-18.8,24.1-9.2,6.4-20.4,11.4-21.8,9.4-2.1-3,20.5-19.5,17.1-25.9-2.5-4.8-16.7,1.2-20-4.1-3.6-5.8,9.1-20.3,15.9-28.2,13.1-15.2,21.4-19,20-24.1-1.5-5.4-12.9-9-18.8-5.3-5,3.1-4,10.1-5.9,14.7-3.6,8.8-20.8,16-80,9.4A26.59,26.59,0,0,1,399,963c-.9-1.5-6.1-10.4-2.9-21.2a27.19,27.19,0,0,1,10-14.1c-4-7.9-8-16.5-11.8-25.9-2.4-6.1-4.6-12-6.5-17.7-5.6,0-12.1-1-17.1-5.3-7.5-6.6-4.5-14.7-12.3-20.6-7.3-5.6-16-3.1-17.5-7.9-.7-2.3.7-5,2.2-6.4,3.8-3.6,10.6-1.8,18,.2a81.39,81.39,0,0,1,20.5,8.9,42.89,42.89,0,0,1-7.9-23C373,813.6,383,796.9,388.8,797.7Z" transform="translate(-187.9 -138.52)"/><path class="cls-2" d="M385.3,869.5c-6.9,3-4.3,23.3-1.8,41.8a331.61,331.61,0,0,0,9.4,45.3c-14,10.8-13.3,13.9-12.9,14.7,1.3,2.7,10.6,1.1,13.5.6,3.1-.5,7.5-1.3,10-2.9,7.1-4.7,3.4-19,1.2-41.8-3.2-33,.6-46.8-10-54.7C393.3,871.4,388.7,868,385.3,869.5Z" transform="translate(-187.9 -138.52)"/><path class="cls-6" d="M316.9,910.9a17.72,17.72,0,0,0,2.8-1.5c-.2-.1-.2,1.5-.2,1.9a20.28,20.28,0,0,0-.3,4.3,3.33,3.33,0,0,0,3.9,2.8,5.17,5.17,0,0,0,2.8-1.3,17.73,17.73,0,0,1,1.7-1.4,19,19,0,0,1,.3,2.5c.4,1.9,1.8,3.5,3.9,3.3,1.9-.2,1.9-3.2,0-3-1,.1-1.3-5.3-3-5.9a2.56,2.56,0,0,0-2.1.2c-1.5.7-3.7,3.9-4.4,1.1-.5-2.1,1.6-5.1-.3-6.9s-4.8.3-6.5,1.2a1.52,1.52,0,0,0,1.4,2.7Z" transform="translate(-187.9 -138.52)"/><path class="cls-6" d="M385.7,830.3a3.83,3.83,0,0,1,5.8.8c.8,1.2,2.7.1,1.9-1.1a6.2,6.2,0,0,0-9.3-1.3c-1,1,.6,2.6,1.6,1.6Z" transform="translate(-187.9 -138.52)"/><path class="cls-6" d="M407.1,829.6a4.93,4.93,0,0,1,6.7-.2c1.1,1,2.7-.6,1.6-1.6a7.16,7.16,0,0,0-9.9.2c-1,1,.6,2.6,1.6,1.6Z" transform="translate(-187.9 -138.52)"/><path class="cls-4" d="M389.6,841.3c-1.1,2.2-5.8,9.8-.7,10.4,2.1.2,4.1-1.7,5.3-3.1a22.74,22.74,0,0,0,3.6-6.9c.7-1.8-2.2-2.6-2.9-.8-1.1,2.8-2.3,5.4-4.7,7.4-.5.4-.8,1.1-.6.2a5.09,5.09,0,0,1,.7-1.7c.6-1.3,1.2-2.6,1.9-3.9.8-1.9-1.8-3.4-2.6-1.6Z" transform="translate(-187.9 -138.52)"/><path class="cls-4" d="M392.3,842.9a25.64,25.64,0,0,0,3.5-2.2c-.4.1-.8.1-1.2.2.1,0,.2.1.3.1-.3-.2-.6-.5-.9-.7,0-.6-.1-.6-.5.1a8.74,8.74,0,0,0-.8,1,20.28,20.28,0,0,0-1.3,1.8c-.9,1.4-1.7,2.8-2.5,4.3-.9,1.7,1.7,3.2,2.6,1.5s1.8-3.3,2.8-4.8c.8-1.2,2.5-2.5,2.6-4a1.93,1.93,0,0,0-1.8-2.1,2.19,2.19,0,0,0-1.7.7,13.07,13.07,0,0,1-2.8,1.7c-1.5.5,0,3.1,1.7,2.4Z" transform="translate(-187.9 -138.52)"/><path class="cls-6" d="M389.3,841.2a7,7,0,0,0,7-5.6c.2-1.4-1.9-2-2.2-.6a4.67,4.67,0,0,1-4.8,4c-1.5-.1-1.5,2.1,0,2.2Z" transform="translate(-187.9 -138.52)"/><path class="cls-6" d="M394.4,834.9a7.62,7.62,0,0,0,8,6.9c1.4-.1,1.4-2.4,0-2.3a5.33,5.33,0,0,1-5.8-4.6c-.1-1.4-2.3-1.4-2.2,0Z" transform="translate(-187.9 -138.52)"/></g><g id="color_chart" data-name="color chart"><path class="cls-3" d="M1002.1,646.4,902.9,766.6l155.7,38.7c1.7-21.5,2.1-65.4-21.8-111.3A198.07,198.07,0,0,0,1002.1,646.4Z" transform="translate(-187.9 -138.52)"/><path class="cls-4" d="M893.2,774.7q78.6,19.8,157.3,39.5a115,115,0,0,1-27.5,67Q958.2,828,893.2,774.7Z" transform="translate(-187.9 -138.52)"/></g><g id="chart"><ellipse class="cls-7" cx="697.6" cy="635.38" rx="174.3" ry="178.7"/><path class="cls-2" d="M887.7,770.1a1.16,1.16,0,0,1,1.6.4c.1-.4.1-.8.2-1.2-.1.2-.4.1-.5,0a1.43,1.43,0,0,0-1.8,1,1.51,1.51,0,0,0,1,1.8,3.25,3.25,0,0,0,3.4-.8,2.27,2.27,0,0,0-.2-3.3,4.08,4.08,0,0,0-5.7-.2,1.52,1.52,0,1,0,2,2.3Z" transform="translate(-187.9 -138.52)"/><path class="cls-2" d="M993.1,634.5A1646.39,1646.39,0,0,1,890.4,768.6c-1.2,1.5.9,3.6,2.1,2.1A1644.35,1644.35,0,0,0,995.7,636c1.1-1.6-1.5-3.1-2.6-1.5Z" transform="translate(-187.9 -138.52)"/><path class="cls-2" d="M888.9,772q84.6,15.15,168,35.8a1.5,1.5,0,0,0,.8-2.9q-83.4-20.55-168-35.8c-1.9-.3-2.7,2.6-.8,2.9Z" transform="translate(-187.9 -138.52)"/><path class="cls-2" d="M888.7,771.5q64,58.65,132,112.9c1.5,1.2,3.6-.9,2.1-2.1q-67.8-54.15-132-112.9c-1.4-1.3-3.6.8-2.1,2.1Z" transform="translate(-187.9 -138.52)"/><path class="cls-8" d="M885.6,595.6c3.7,16.5,6.2,40-2.9,64-20.7,54.8-80.8,57.5-103.6,102.2-12.4,24.3-15.5,64.5,23.7,134.5v35.3a174.62,174.62,0,0,1-36.7-27.3c-46.7-45.7-53.9-105.4-55.4-128.1.1-16.4,2.4-69.7,41.7-117.3,8.9-10.8,40.5-47.8,94.3-59.7A161.07,161.07,0,0,1,885.6,595.6Z" transform="translate(-187.9 -138.52)"/></g><g id="leg_r" data-name="leg r"><path class="cls-2" d="M589.6,876c6.9,17.4,13.8,34.7,20.6,52.1-4.1,9-10.4,22.3-19.1,38.2-11.4,20.8-16.8,27.8-15,29.9,2.6,3,19.5-4.5,85.1-53.6-4.1-11.4-8.3-22.9-12.4-34.6q-9-25.5-17.5-50.5Q610.6,866.8,589.6,876Z" transform="translate(-187.9 -138.52)"/><path class="cls-4" d="M774,571.2c11.1,18.9,3.2,48.2,2.1,52.1-6.1,22.7-19.9,24.9-70.5,72.8-31.7,30.1-40.8,42.3-47.5,55.7a142,142,0,0,0-13.7,47.1c4.1,24,8.2,47.9,12.3,71.9a173,173,0,0,1-44,20.6,176.65,176.65,0,0,1-35.1,6.9c-9.2-23.3-22.4-66.3-15.3-118.6,8.6-63.7,42.3-105.4,70.3-140C675.2,587.1,724.5,553,766.7,531c-1.4,7.5-2.2,18.3,2,29.7A56.74,56.74,0,0,0,774,571.2Z" transform="translate(-187.9 -138.52)"/><path class="cls-9" d="M757.4,544.1a358,358,0,0,1-41.1,79.7c-40.5,58.9-70.4,63.7-94.3,118.4-15.3,35-18.6,68.4-19.6,80.4a277.52,277.52,0,0,0,2.5,69,85.06,85.06,0,0,0,20.3-3.2,84,84,0,0,0,31.6-17.1c-1.7-8.1-4.2-20.1-7-34.8-3.8-20.4-5.7-30.7-5.7-38,0-21.5,9.1-37.7,16.5-50.6,3.5-6.1,13.7-23,49.4-55.7,37.7-34.5,53.4-40.5,63.3-65.8a79.22,79.22,0,0,0,5.7-31C778.1,569.1,763.3,550.7,757.4,544.1Z" transform="translate(-187.9 -138.52)"/><path class="cls-10" d="M778.9,603.6c-20.5,17.2-49.8,42.9-83.5,75.9-48.9,48-57.6,62-61.4,69-10.6,19.5-28.8,63.9-10.8,138,5.9-2.4,12-5.1,18.4-8.2,5.1-2.5,10-5.1,14.6-7.6q-6-35.1-12-70.3a108,108,0,0,1,7.6-36.7c1.4-3.5,5.5-13.2,15.8-27.2,8.2-11.2,16.1-18.8,31.6-33.5,12.4-11.8,24.4-24.2,37.3-35.4,23.2-20.1,33.6-25.6,39.2-41.1A57.69,57.69,0,0,0,778.9,603.6Z" transform="translate(-187.9 -138.52)"/></g><g id="leg_l" data-name="leg l"><path class="cls-2" d="M699.7,873.8l45.6,35.1c-20.2,51.2-20.2,64.5-16.1,66.8,6.8,3.9,29.1-20.2,41.8-37.9a175,175,0,0,0,21.7-41.2c-6.2-7.9-13.3-16.1-21.2-24.5A391.56,391.56,0,0,0,739.8,842C726.5,852.7,713.1,863.2,699.7,873.8Z" transform="translate(-187.9 -138.52)"/><path class="cls-4" d="M855.7,571.2c8.9,23.6,3.5,46.4,2.1,52.1-10.2,42.4-48.1,77.4-61.5,89.6-22.9,21-41.9,31.5-52.5,59.5a93.94,93.94,0,0,0-5.8,23.9q10.95,25.05,21.9,50c-4.8,10.3-15.3,29.3-36.5,43.8a103.66,103.66,0,0,1-25,12.5c-15.2-15.5-56.4-61.5-54.2-123,1.7-47.2,28.4-85.2,49-114.7s26-25.9,52.1-63.6c22.6-32.7,26.9-47.6,45.9-54.2s47.1-3,59.4,13.6C853,564.2,854.1,567.1,855.7,571.2Z" transform="translate(-187.9 -138.52)"/><path class="cls-4" d="M637.3,615.8" transform="translate(-187.9 -138.52)"/><path class="cls-11" d="M809.2,566.7a119.62,119.62,0,0,1-2.7,43.2c-16,61.9-74.6,67.3-102.8,134.3-5.5,13.1-18.3,44.8-8.2,81.5,7.8,28.6,26,47.2,36.3,56.2a51.35,51.35,0,0,0,16.4-13.7,52.35,52.35,0,0,0,10.3-23.3c-7.1-17.1-14.2-34.3-21.2-51.4a98.56,98.56,0,0,1,10.3-30.2c8.6-16.2,19-24.4,32.4-36.5,24.6-22.1,40.3-36.1,53.9-55.4,8.6-12.3,21.1-30.4,25.2-56.9a118,118,0,0,0-3.3-50.6C840.3,564.9,824.7,565.8,809.2,566.7Z" transform="translate(-187.9 -138.52)"/><path class="cls-12" d="M860.1,598.8a346.52,346.52,0,0,1-42.5,61.3c-40.4,46.5-67.8,56.2-86.6,92-8.1,15.4-15.5,40.8-6.4,81.6,11.5,4.6,23.1,9.2,34.6,13.9-7.3-17.2-14.5-34.3-21.8-51.5a85.44,85.44,0,0,1,9.9-34.1c6.3-11.6,13.3-17.7,28.7-31.7,25.5-23.2,38.3-34.8,43.5-40.6,11.9-13.1,24.9-27.8,33.1-50.5A122.34,122.34,0,0,0,860.1,598.8Z" transform="translate(-187.9 -138.52)"/></g><g id="hand_r" data-name="hand r"><path class="cls-13" d="M616.7,431.8a68.23,68.23,0,0,0-16-22.6c-10.8-9.9-25.9-17-28.3-14.1-1,1.2-.9,5.4,17.3,25.5" transform="translate(-187.9 -138.52)"/><path class="cls-13" d="M579,415.4c-3.9,2.4-10.8,7.5-14.5,16.3-1.4,3.4-3.2,7.8-1.9,12.9,2.3,8.8,12.9,12.5,13.8,12.9,4.3,1.5,5.4.4,8.5,2.2,5,2.9,4.8,6.8,8.5,10.4,7.6,7.3,23,4.4,23.7,1.3.4-1.7-4-3.3-3.6-6.4.2-1.9,2.1-2.7,3.4-3.9,7-6.4.3-25.1-.9-28.2a62.19,62.19,0,0,0-5.8-11.8" transform="translate(-187.9 -138.52)"/><path class="cls-2" d="M560.9,443.3c2.3,6,6.7,11.3,12.8,13.7s10.8-.8,10.9-7.4a1.5,1.5,0,0,0-3,0c-.1,7.7-7.7,4.9-11.5,1.8a20.2,20.2,0,0,1-6.3-8.9c-.7-1.8-3.6-1.1-2.9.8Z" transform="translate(-187.9 -138.52)"/><path class="cls-2" d="M568.4,435.1c3,5.6,7,11.8,13.2,14.1,5.6,2.1,8.9-1.3,9.5-6.6.2-1.9-2.8-1.9-3,0-.9,7.9-8.6,2.4-11.3-.4a36.1,36.1,0,0,1-5.8-8.6c-.9-1.7-3.5-.2-2.6,1.5Z" transform="translate(-187.9 -138.52)"/><path class="cls-2" d="M577.4,421.6a72.19,72.19,0,0,0,6.1,11.7c1.7,2.5,4.1,6.1,7.4,6.7,7.8,1.5,5.3-9.6,3.8-13.4-.7-1.8-3.6-1-2.9.8s2.2,5.2,1.6,7.1c-1.7,5.5-6.3-1.3-7.3-2.7a72.19,72.19,0,0,1-6.1-11.7c-.8-1.8-3.4-.3-2.6,1.5Z" transform="translate(-187.9 -138.52)"/><path class="cls-2" d="M578.9,417.1c3-1.5,6.7,1.2,8.8,3.2a21.09,21.09,0,0,1,4.6,7.2c.7,1.8,3.6,1,2.9-.8-2.5-6.2-9.9-16.1-17.8-12.2-1.7.8-.2,3.4,1.5,2.6Z" transform="translate(-187.9 -138.52)"/><path class="cls-13" d="M795.8,386.4c3.2,9.5-1.7,17.6-15.4,42-23,40.6-24.4,44.2-29.7,50.6-12.5,15-19.6,23.5-32.7,29-23.9,10-50.4,1.2-64.9-4.3a119.6,119.6,0,0,1-30-16.9c-4.4-3.6-7.8-6.4-10-8.1-4.6-3.7-6.7-5.3-8.5-8.5a18.89,18.89,0,0,1-2.2-6.7c-1.5-10.7,9.1-19.7,9.9-20.4-12.7,3-17.1,2.4-17.9.6-1.9-4,11.9-18.7,21.6-15.4,4.6,1.5,6.9,6.7,8.6,10.5a32.18,32.18,0,0,1,2.5,17.3A92,92,0,0,0,653,468.5a94.62,94.62,0,0,0,50,.6c5.1-8.2,13.4-21.6,23.5-38.3,27.6-45.8,34.9-60.3,47.6-60.5C783.6,370.2,793,378.1,795.8,386.4Z" transform="translate(-187.9 -138.52)"/><path class="cls-6" d="M611.4,445.7c-8.6-.4-9.8,10.7-10.9,17,1,.1,2,.3,2.9.4.1-4,1.9-7.3,3.8-10.7a1.5,1.5,0,0,0-2.6-1.5c-3.9,6.3-6.3,14.1-.9,20.3l2.1-2.1a6.89,6.89,0,0,1-2.4-5.1c-1,.1-2,.3-2.9.4a26.23,26.23,0,0,0,1.9,4.6c.9,1.7,3.5.2,2.6-1.5a13.36,13.36,0,0,1-1.6-3.9c-.4-1.6-3.1-1.3-2.9.4a11,11,0,0,0,3.3,7.2c1.4,1.4,3.4-.7,2.1-2.1-4.4-5.1-1.6-11.6,1.4-16.7-.9-.5-1.7-1-2.6-1.5-2.2,3.9-4.1,7.6-4.2,12.2-.1,1.7,2.7,2.1,2.9.4.8-4.6,1.5-15,8-14.8,1.9.1,1.9-2.9,0-3Z" transform="translate(-187.9 -138.52)"/><path class="cls-8" d="M780.5,374.4a430.35,430.35,0,0,1-32.6,68.3c-16.4,27.9-25,41.9-39.8,49.3-30.4,15.1-77.3,4.9-93.1-24a50.69,50.69,0,0,1-5.9-24.4c-3.8,1.3-9.7,2.7-15.4.5-12.8-5.1-14-24.2-20.8-24-4.5.2-7.8,8.7-9,11.8-1.1,2.8-2.9,7.4-1.8,12.2,1.6,7.1,9.1,12.7,18.5,14.5a32.29,32.29,0,0,1,9.9,7.2c3.3,3.6,4.2,6.4,7.7,8.1a14.1,14.1,0,0,0,8.6.9,205.8,205.8,0,0,0,21.7,15.4c20.6,12.6,45.5,27.8,73.7,22.6,13.3-2.4,22.4-8.5,28-12.2,9.1-6.1,18.9-15.3,37.5-48.8a549.8,549.8,0,0,0,26.7-55.2,16.49,16.49,0,0,0-.5-13.1C790.1,375.3,781,374.4,780.5,374.4Z" transform="translate(-187.9 -138.52)"/><path class="cls-14" d="M591.3,443.9c-1.4,1-.8,3-2.5,4.5a5.75,5.75,0,0,1-3.8,1,8.31,8.31,0,0,1-1.3,4.8c-1.4,2-3.3,2.4-3.2,3.2s3,.4,5.7,1.9a10.36,10.36,0,0,1,3.8,4.1c6.6-6.3,13.2-12.5,19.8-18.8a18.43,18.43,0,0,1-11.2,1C595.4,444.6,593,442.7,591.3,443.9Z" transform="translate(-187.9 -138.52)"/></g><g id="torso"><path class="cls-13" d="M795,366.8c-6.7,6.7-10.2,14.3-17,29.5-5.4,11.9-14.1,31.8-17,58.3-3.2,29.6,4.3,36.3-1.7,58.3A94.29,94.29,0,0,1,740,549.1a119.2,119.2,0,0,0,44.7,28.3c37.1,13,69.7,3.2,80.4-.6,8.9-24,17.7-48,26.6-71.9.1-20.3.9-37.6,1.7-51,2-32,5.3-56.5,7.4-71.4,2.4-17.5,4.9-32.2,6.8-43a440.91,440.91,0,0,0-54.4,6.2C809.6,353.7,799.3,362.5,795,366.8Z" transform="translate(-187.9 -138.52)"/><path class="cls-15" d="M848,346.4a152.36,152.36,0,0,1,11.6,49.7c3.1,51.6-21.8,92-40.7,122.6a337.13,337.13,0,0,1-41.6,54.1,105,105,0,0,0,32.2,10.7,107.5,107.5,0,0,0,55-5.8c8.4-24.2,16.7-48.3,25.1-72.5.5-16.5,1.4-33.6,2.7-51,3-40.6,7.9-78.7,13.9-114.1Z" transform="translate(-187.9 -138.52)"/><path class="cls-16" d="M865.9,343.3c7.2,18.6,14.7,45.7,13,78.3-4.8,90.7-76.6,145.6-89,154.8a111.81,111.81,0,0,0,30.4,6.3,110.6,110.6,0,0,0,43-5.8c9.2-24.2,18.5-48.3,27.7-72.5,0-22.1.8-45.7,2.7-70.7a892.9,892.9,0,0,1,12.1-93.1Z" transform="translate(-187.9 -138.52)"/></g><g id="hand_l" data-name="hand l"><path class="cls-13" d="M903.9,338.2c8.1,3,20,8.8,28.6,20.5,9.6,13.1,11.7,28.9,6.2,79-5.1,46.6-9.5,56.6-11.2,84.6a318.64,318.64,0,0,0,3.7,72.1l34.2-8.1c12.4,3.3,19.9,9.4,23.6,13.1s11.5,11.2,9.3,17.4c-1.4,4-6.5,6-8.7,6.8-4.3,1.7-7.9,1.5-11.8,1.2-8.3-.5-16.6-.8-24.9-1.2a176.92,176.92,0,0,0-18,0c10.1,8.7,14.4,14.3,13.1,16.8-1.8,3.3-13.8,1-36.1-6.8-1-8.1-2.6-20.4-5-35.4-6.2-39.2-10.7-53.2-13.7-74-3.1-21.5-2.1-40.9,0-79.6C894.8,417.2,897.7,381,903.9,338.2Z" transform="translate(-187.9 -138.52)"/><path class="cls-2" d="M950.3,610.3c7.7-3.2,15.7-1.4,23.1,1.9,6.3,2.7,12.5,6,17.4,10.8,1.4,1.3,3.5-.8,2.1-2.1-5.7-5.5-12.8-9.2-20.1-12.1-7.5-3.1-15.6-4.5-23.4-1.3-1.6.6-.8,3.5.9,2.8Z" transform="translate(-187.9 -138.52)"/><path class="cls-2" d="M960.1,601.1c13.3-2.6,29.1,5.3,36.4,16.6,1.1,1.6,3.7.1,2.6-1.5-8.2-12.5-25-20.8-39.8-17.9-1.9.3-1.1,3.2.8,2.8Z" transform="translate(-187.9 -138.52)"/><path class="cls-2" d="M971.6,594.2c5.3.2,9.9,2.5,14.5,5,1.7.9,3.2-1.7,1.5-2.6-5.1-2.7-10.2-5.2-16-5.4-1.9-.1-1.9,2.9,0,3Z" transform="translate(-187.9 -138.52)"/><path class="cls-17" d="M905.3,340.6A209.47,209.47,0,0,1,921,393.9c8.7,57.8-12.7,87.9-8.9,150.4a263.11,263.11,0,0,0,13,66.7,82.63,82.63,0,0,1,34.5-3.6c10.1,1.2,15.1,1.8,20.1,5.4s7.9,8.4,13,8.1c2-.1,4.7-1,5.8-3.1,2.7-4.9-4.7-13.3-7.2-16.1-3.6-4.1-11-11.1-24.6-15.2l-35.4,7.2a234.37,234.37,0,0,1-5.8-48.3c-.3-18,2.9-39.8,9.4-82.8,1.2-8,2.7-24.1,5.8-56.4,1-10.6,1.8-20.1-1.8-31.8-1.8-5.9-6.2-19.3-19.2-27.7A39.94,39.94,0,0,0,905.3,340.6Z" transform="translate(-187.9 -138.52)"/><path class="cls-14" d="M927.2,623a30.73,30.73,0,0,0,9.8,13c3.5,2.6,9.6,5.8,10.7,4.5,1.4-1.6-3.9-10.4-12.1-14.8A24.45,24.45,0,0,0,927.2,623Z" transform="translate(-187.9 -138.52)"/><path class="cls-18" d="M938.4,422.9a284.43,284.43,0,0,0-17,114.6A281.13,281.13,0,0,0,933,601.9a224.28,224.28,0,0,1-7.2-47.4c-1.2-29.9,4.2-46.7,9.8-101.6C937,440.2,937.9,429.7,938.4,422.9Z" transform="translate(-187.9 -138.52)"/><path class="cls-14" d="M958.6,598.8c-.2-1.2,9.8-5.8,19.7-3.6,13.3,3,19.5,17,20.6,19.7-4.7-5.3-12.3-12.2-23.3-14.8C966.3,598,958.7,599.8,958.6,598.8Z" transform="translate(-187.9 -138.52)"/></g><g id="head"><path class="cls-3" d="M758.2,317.7c-4.2,3.9-5.1,12.1-6.8,28.2-1.9,18.5-2.7,27.9,1.2,32.6,7.1,8.6,22.4,9.1,33,4.4,12.5-5.6,16.8-17.7,17.9-20.7,4.9-13.9,3.3-34.9-11.5-44.5C782,311.1,766.5,310,758.2,317.7Z" transform="translate(-187.9 -138.52)"/><path class="cls-13" d="M779.8,332.3c1.5,7.2,9.5,7.8,16.3,19.3a46,46,0,0,1,6,22.9,66.56,66.56,0,0,0,49.2-23.2c-2.5-4.1-6.2-10.1-10.6-17.3-19-30.5-21.8-32.9-25.6-33.9C799.7,296.4,776.9,318.9,779.8,332.3Z" transform="translate(-187.9 -138.52)"/><path class="cls-2" d="M810.9,320.2c-4.6,9.7-9.3,19.3-15.7,28l2.4-.3c-.6-.7-1.2-1.5-1.7-2.2a11,11,0,0,0-.2,1.8,30.68,30.68,0,0,0,6.4-7.5c-.9-.5-1.7-1-2.6-1.5a11.39,11.39,0,0,1-6.1,6.1l1.8,2.4a113.74,113.74,0,0,0,14.1-16.1c1.1-1.6-1.5-3.1-2.6-1.5a105.61,105.61,0,0,1-13.6,15.5c-1.3,1.2.4,3,1.8,2.4a14.05,14.05,0,0,0,7.2-7.2,1.5,1.5,0,0,0-2.6-1.5,35.33,35.33,0,0,1-5.9,6.9,1.38,1.38,0,0,0-.2,1.8,11.83,11.83,0,0,0,2.2,2.8,1.58,1.58,0,0,0,2.4-.3c6.4-8.6,11.1-18.3,15.7-28,.6-1.8-2-3.3-2.8-1.6Z" transform="translate(-187.9 -138.52)"/><path class="cls-13" d="M714,243.4c-4.6,8.5-3.5,17.1-1.3,33.9,2.6,19,6,34.9,10.1,45.4a3.64,3.64,0,0,0,3.9,2.3c2.2-.2,5.5-1.9,7.4-2.5A58.54,58.54,0,0,0,746.7,338a59.58,59.58,0,0,0,31.8,13.8c5.9-2.2,20.5-8.7,30.2-24.3a57.34,57.34,0,0,0,8-22.2,53.92,53.92,0,0,0-5.4-30.2,21.17,21.17,0,0,0,7.5-7.5c4.6-8.1,4.4-21.5-2.9-25.1-5.5-2.7-14.2.3-20.1,8a57.6,57.6,0,0,0-9.2-12.1c-1.1-1.1-9.2-9.3-18.4-13C750.2,218.3,723.4,226.1,714,243.4Z" transform="translate(-187.9 -138.52)"/><path class="cls-2" d="M740.4,331.7c6.9-1.8,10.9-7.6,14.4-13.3,1-1.6-1.6-3.1-2.6-1.5-3.1,5-6.6,10.3-12.6,12-1.9.4-1.1,3.3.8,2.8Z" transform="translate(-187.9 -138.52)"/><path class="cls-2" d="M749.5,318.2a6.63,6.63,0,0,1,4.9,2.4c1.3,1.5,3.4-.7,2.1-2.1a9.51,9.51,0,0,0-7-3.3,1.5,1.5,0,1,0,0,3Z" transform="translate(-187.9 -138.52)"/><path class="cls-2" d="M741.9,301.7v-.3a1.5,1.5,0,0,0-3,0v.3a1.54,1.54,0,0,0,1.5,1.5,1.61,1.61,0,0,0,1.5-1.5Z" transform="translate(-187.9 -138.52)"/><path class="cls-2" d="M748.6,293.7a1.5,1.5,0,0,0,0-3,1.5,1.5,0,0,0,0,3Z" transform="translate(-187.9 -138.52)"/><path class="cls-2" d="M747.7,301.3a1.5,1.5,0,0,0,0-3,1.5,1.5,0,0,0,0,3Z" transform="translate(-187.9 -138.52)"/><path class="cls-3" d="M709.7,277.5c-3.2-1.1-10-4-13.9-10.7-6.1-10.4-1.2-22.5,1.2-28.2,1.3-3.2,4.9-11.1,22.3-26.6,13.2-11.9,19.9-17.8,27.4-21.1,26.8-11.7,54.2-.5,59.2,1.6,7.4,3,12.8,6.7,23.5,13.9,13,8.8,21.3,14.5,27.8,24.3,7.9,12,3.1,15.1,9.9,28.6,10.8,21.4,25.7,18.8,34.6,38.6,1.5,3.3,9.8,21.7.4,37.8-7.7,13.1-23.4,17.8-35,17.5-21.5-.6-35-19-42.1-28.6-13.5-18.3-16.1-37.7-16.7-48.1,8.5-4.3,11.8-13.5,8.7-19.9-2.4-5.1-9.4-9.4-15.5-6.8-4.2,1.8-6.9,6.6-6.8,11.9A44.63,44.63,0,0,1,749,241a73.54,73.54,0,0,0-23.5,14.7A71.38,71.38,0,0,0,709.7,277.5Z" transform="translate(-187.9 -138.52)"/><path class="cls-11" d="M774.9,283.3a79.81,79.81,0,0,1,18.2,25.8,77.44,77.44,0,0,1,5.9,38.2c3.6-6.1,7.1-12.2,10.7-18.4,5.8,13,11.5,26,17.3,38.9a34.14,34.14,0,0,0,15.1-7.7,32.45,32.45,0,0,0,8.1-11c-8.4-6-24.9-19.6-34.5-43a97.61,97.61,0,0,1-7-29.4c8.1-4.4,11.5-13.2,8.8-19.8-1.9-4.8-7.8-10.2-14.3-8.4-5.5,1.5-9.3,7.4-8.4,14a47.66,47.66,0,0,1-45.5-20.6c2.7,17.7,9.5,27.3,15.2,32.8C768.1,278.4,769.6,278.4,774.9,283.3Z" transform="translate(-187.9 -138.52)"/><path class="cls-11" d="M808.9,288.1c-.7,0-.3,10.3-1.3,19.8a90.62,90.62,0,0,1-7.9,28.4,35.83,35.83,0,0,0,16.4-27.9,42.53,42.53,0,0,1-3.2-5.9C809.4,294.5,809.5,288.1,808.9,288.1Z" transform="translate(-187.9 -138.52)"/><path class="cls-15" d="M812.4,322.8a115.78,115.78,0,0,0,10.2,9.4c13.3,11.1,26.2,17.4,26.6,16.7s-12.2-5.8-21.8-19.6c-6-8.6-9.5-18.8-11-18.3-.7.2-.1,2.6-1.3,6.5A23.35,23.35,0,0,1,812.4,322.8Z" transform="translate(-187.9 -138.52)"/><path class="cls-19" d="M823.5,202.7a493.49,493.49,0,0,1,25.9,51.4c15.9,37.1,14.6,47.3,12.4,53.9-4.9,14.9-18.5,23.3-26.6,27.3,2,2.8,10.3,13.9,25.5,17,2.9.6,20.4,3.9,33.7-8.2,9.9-8.9,11.4-20.7,11.7-23.8,1.8-16.8-8.2-29.4-11.4-33-4.2-4.7-5.1-3.6-14.9-13.1-7.6-7.3-11.3-11-13.5-15.6-3.5-7.5-1.2-10.7-5.3-20.2a57,57,0,0,0-6.7-11.4C844.6,213.9,830.6,206.2,823.5,202.7Z" transform="translate(-187.9 -138.52)"/><path class="cls-20" d="M752.4,351.2a19.73,19.73,0,1,0,39.1-4.7,38.29,38.29,0,0,1,6.8,11.3,36.43,36.43,0,0,1,2.4,10.5c-1.5,2.5-9.3,14.9-23.9,17.3-2.5.4-16.7,2.5-23.4-6-3.2-4.2-3.5-9.3-3.7-13.4A37.42,37.42,0,0,1,752.4,351.2Z" transform="translate(-187.9 -138.52)"/><path class="cls-2" d="M733.6,285.2c1,2,1,4.9-.3,5.5s-3.8-1.2-4.7-3.4c-.7-1.9-.5-4.6.8-5.1S732.8,283.5,733.6,285.2Z" transform="translate(-187.9 -138.52)"/><path class="cls-2" d="M725.4,282.9a65.63,65.63,0,0,1,10.8-2.7c1.4-.2.8-2.4-.6-2.2a65.63,65.63,0,0,0-10.8,2.7,1.14,1.14,0,0,0,.6,2.2Z" transform="translate(-187.9 -138.52)"/></g></svg>