<svg id="Layer_1" data-name="Layer 1" xmlns="http://www.w3.org/2000/svg" viewBox="0 0 1454.32 994.78"><defs><style>.cls-1{fill:#a7adff;}.cls-2{fill:#e3e5fc;}.cls-3{fill:#fff;}.cls-4{fill:#4b369d;}.cls-5{fill:#fdc510;}.cls-6{fill:#f44e4e;}.cls-7{fill:#978cff;}.cls-8{fill:#eac2ab;}.cls-9{fill:#5a54ff;}.cls-10{fill:#d4a79a;}.cls-11{fill:#27197a;}.cls-12{fill:#d7384e;}</style></defs><g id="UI"><g id="Desktop"><path class="cls-1" d="M1582,861.29H665.72a45.09,45.09,0,0,1-45-45V148a45.09,45.09,0,0,1,45-45H1582a45.09,45.09,0,0,1,45,45V816.33A45.09,45.09,0,0,1,1582,861.29Z" transform="translate(-172.64 -103.05)"/><path class="cls-2" d="M1553.9,798H689.49a45.09,45.09,0,0,1-45-45V181a45.09,45.09,0,0,1,45-45H1553.9a45.09,45.09,0,0,1,45,45v572.1A45.09,45.09,0,0,1,1553.9,798Z" transform="translate(-172.64 -103.05)"/><path class="cls-2" d="M1177,826.7h-70.57a3.13,3.13,0,0,1-3.12-3.12h0a3.13,3.13,0,0,1,3.12-3.12H1177a3.13,3.13,0,0,1,3.12,3.12h0A3.12,3.12,0,0,1,1177,826.7Z" transform="translate(-172.64 -103.05)"/><circle class="cls-2" cx="501.81" cy="18.45" r="7.02"/><circle class="cls-3" cx="532.03" cy="18.45" r="7.02"/><circle class="cls-4" cx="562.53" cy="18.45" r="7.02"/><path class="cls-3" d="M907.61,511.06H736.5a8.38,8.38,0,0,1-8.35-8.35h0a8.38,8.38,0,0,1,8.35-8.35H907.61a8.38,8.38,0,0,1,8.35,8.35h0A8.38,8.38,0,0,1,907.61,511.06Z" transform="translate(-172.64 -103.05)"/><path class="cls-3" d="M907.61,549.29H736.5a8.38,8.38,0,0,1-8.35-8.35h0a8.38,8.38,0,0,1,8.35-8.35H907.61a8.38,8.38,0,0,1,8.35,8.35h0A8.38,8.38,0,0,1,907.61,549.29Z" transform="translate(-172.64 -103.05)"/><path class="cls-3" d="M907.61,587.51H736.5a8.38,8.38,0,0,1-8.35-8.35h0a8.38,8.38,0,0,1,8.35-8.35H907.61a8.38,8.38,0,0,1,8.35,8.35h0A8.37,8.37,0,0,1,907.61,587.51Z" transform="translate(-172.64 -103.05)"/><path class="cls-3" d="M907.61,630.61H736.5a8.38,8.38,0,0,1-8.35-8.35h0a8.38,8.38,0,0,1,8.35-8.35H907.61a8.38,8.38,0,0,1,8.35,8.35h0A8.38,8.38,0,0,1,907.61,630.61Z" transform="translate(-172.64 -103.05)"/><path class="cls-3" d="M907.61,668.83H736.5a8.38,8.38,0,0,1-8.35-8.35h0a8.38,8.38,0,0,1,8.35-8.35H907.61a8.38,8.38,0,0,1,8.35,8.35h0A8.37,8.37,0,0,1,907.61,668.83Z" transform="translate(-172.64 -103.05)"/><path class="cls-3" d="M907.61,707.06H736.5a8.38,8.38,0,0,1-8.35-8.35h0a8.38,8.38,0,0,1,8.35-8.35H907.61a8.38,8.38,0,0,1,8.35,8.35h0A8.38,8.38,0,0,1,907.61,707.06Z" transform="translate(-172.64 -103.05)"/><path class="cls-3" d="M1163.66,511.06H992.55a8.38,8.38,0,0,1-8.35-8.35h0a8.38,8.38,0,0,1,8.35-8.35h171.11a8.38,8.38,0,0,1,8.35,8.35h0A8.38,8.38,0,0,1,1163.66,511.06Z" transform="translate(-172.64 -103.05)"/><path class="cls-3" d="M1163.66,549.29H992.55a8.38,8.38,0,0,1-8.35-8.35h0a8.38,8.38,0,0,1,8.35-8.35h171.11a8.38,8.38,0,0,1,8.35,8.35h0A8.38,8.38,0,0,1,1163.66,549.29Z" transform="translate(-172.64 -103.05)"/><path class="cls-3" d="M1163.66,587.51H992.55a8.38,8.38,0,0,1-8.35-8.35h0a8.38,8.38,0,0,1,8.35-8.35h171.11a8.38,8.38,0,0,1,8.35,8.35h0A8.37,8.37,0,0,1,1163.66,587.51Z" transform="translate(-172.64 -103.05)"/><path class="cls-3" d="M1163.66,630.61H992.55a8.38,8.38,0,0,1-8.35-8.35h0a8.38,8.38,0,0,1,8.35-8.35h171.11a8.38,8.38,0,0,1,8.35,8.35h0A8.38,8.38,0,0,1,1163.66,630.61Z" transform="translate(-172.64 -103.05)"/><path class="cls-3" d="M1163.66,668.83H992.55a8.38,8.38,0,0,1-8.35-8.35h0a8.38,8.38,0,0,1,8.35-8.35h171.11a8.38,8.38,0,0,1,8.35,8.35h0A8.37,8.37,0,0,1,1163.66,668.83Z" transform="translate(-172.64 -103.05)"/><path class="cls-3" d="M1163.66,707.06H992.55a8.38,8.38,0,0,1-8.35-8.35h0a8.38,8.38,0,0,1,8.35-8.35h171.11a8.38,8.38,0,0,1,8.35,8.35h0A8.38,8.38,0,0,1,1163.66,707.06Z" transform="translate(-172.64 -103.05)"/><path class="cls-1" d="M1393.18,344.82c-19.7-4.93-24.63-64-44.33-64-43.28,3.93-58.28,61.28-82.65,104.28a38.1,38.1,0,0,0,37.35,31.29H1477a38.09,38.09,0,0,0,38-38V254a36.17,36.17,0,0,0-18.33,7C1462.14,290.64,1437.51,354.67,1393.18,344.82Z" transform="translate(-172.64 -103.05)"/><path class="cls-3" d="M1477.28,202.89H1303.86a38.09,38.09,0,0,0-38,38V378.38a37.92,37.92,0,0,0,.63,6.69c24.36-43,39.37-100.35,82.65-104.28,19.7,0,24.63,59.11,44.33,64,44.33,9.85,69-54.18,103.44-83.74a36.08,36.08,0,0,1,18.33-7V240.87A38.09,38.09,0,0,0,1477.28,202.89Z" transform="translate(-172.64 -103.05)"/><circle class="cls-1" cx="1242.56" cy="166.35" r="21.86"/><path class="cls-3" d="M773.12,420.73H1127a45.09,45.09,0,0,0,45-45V247.87a45.09,45.09,0,0,0-45-45H773.12a45.09,45.09,0,0,0-45,45v127.9A45.09,45.09,0,0,0,773.12,420.73Z" transform="translate(-172.64 -103.05)"/><path class="cls-3" d="M1310.85,584.3H1470a45.09,45.09,0,0,0,45-45h0a45.09,45.09,0,0,0-45-45H1310.85a45.09,45.09,0,0,0-45,45h0A45.1,45.1,0,0,0,1310.85,584.3Z" transform="translate(-172.64 -103.05)"/><path class="cls-3" d="M1310.85,697.1H1470a45.09,45.09,0,0,0,45-45h0a45.09,45.09,0,0,0-45-45H1310.85a45.09,45.09,0,0,0-45,45h0A45.09,45.09,0,0,0,1310.85,697.1Z" transform="translate(-172.64 -103.05)"/><ellipse class="cls-2" cx="969.09" cy="964.54" rx="330.95" ry="22.57"/></g><g id="Server"><path class="cls-1" d="M756.18,1005.67H587.56a17.22,17.22,0,0,1-17.17-17.17V982a17.22,17.22,0,0,1,17.17-17.17H756.18A17.22,17.22,0,0,1,773.35,982v6.47A17.23,17.23,0,0,1,756.18,1005.67Z" transform="translate(-172.64 -103.05)"/><path class="cls-1" d="M756.18,1050H587.56a17.22,17.22,0,0,1-17.17-17.17v-6.47a17.22,17.22,0,0,1,17.17-17.17H756.18a17.22,17.22,0,0,1,17.17,17.17v6.47A17.22,17.22,0,0,1,756.18,1050Z" transform="translate(-172.64 -103.05)"/><path class="cls-1" d="M756.18,1094.86H587.56a17.22,17.22,0,0,1-17.17-17.17v-6.47a17.22,17.22,0,0,1,17.17-17.17H756.18a17.22,17.22,0,0,1,17.17,17.17v6.47A17.23,17.23,0,0,1,756.18,1094.86Z" transform="translate(-172.64 -103.05)"/><circle class="cls-3" cx="414.3" cy="881.89" r="4.68"/><circle class="cls-3" cx="582.91" cy="881.89" r="4.68"/><circle class="cls-3" cx="415.24" cy="924.67" r="4.68"/><circle class="cls-3" cx="583.85" cy="924.67" r="4.68"/><circle class="cls-3" cx="415.24" cy="971.15" r="4.68"/><circle class="cls-3" cx="583.85" cy="971.15" r="4.68"/></g><path id="Paint" class="cls-5" d="M876.91,252l1.73-1.19c18.2-12.37,40-22.62,61.57-18.39,38.06,7.45,55.55,49.5,79.83,74.84,17.42,18.18,44.39,31.8,70.49,29.1,21.87-2.26,25.71-25.94,20.47-43.77-1.94-6.58-4.94-12.88-10.38-17.26-5-4-17.38-9.61-23.89-6.07,11.22-6.09,25.81-3.06,35.82,4.86,33.85,26.79,25.31,84.09-11,104.23-28.1,15.59-62.41,1.87-84.57-17.87-25-22.31-32.81-56.92-56.12-80.59-6.24-6.33-13.25-11.89-22.7-11.1-18.71,1.57-21.78,21.4-34.34,31.29-3.24,2.55-7.51,4.12-11.52,3.17-3-.7-5.42-2.64-8-4.21-11.81-7.17-45.43-5.91-28.36-28.17C861.71,263.35,869.15,257.37,876.91,252Z" transform="translate(-172.64 -103.05)"/><g id="Brush"><path class="cls-4" d="M674.8,460.39c-8.79,9.79-20.16,21.51-25.28,34a3.9,3.9,0,0,0-.26,3.17c6.6,12.7,105-79.45,115.44-89,22-20.15,42.47-35.61,61.53-58.73,3.66-4.44,7.41-9.23,8.33-15,.54-3.6-16.26,3.88-19.52,5.54-24.95,12.68-54.24,34.93-74.62,53.78C717.67,415.19,695.59,437.24,674.8,460.39Z" transform="translate(-172.64 -103.05)"/><path class="cls-6" d="M867.37,297.19a51.42,51.42,0,0,0-3.51-13.62c-4.27-10.27-12.05-20.06-23.49-22.29,18.56,11.69.78,34.47-12.58,43.7a56,56,0,0,1-10.85,5.84c-10,4.05-23.29,7.18-25.84,19.4C823.87,331.09,848.3,317.62,867.37,297.19Z" transform="translate(-172.64 -103.05)"/><path class="cls-1" d="M791.1,330.21c0,.11-.06.21-.08.32-3.72,19.58,8.92,39.27,30.5,35.68,30.05-5,49.44-39.51,45.85-69C848.3,317.62,823.87,331.09,791.1,330.21Z" transform="translate(-172.64 -103.05)"/></g></g><g id="Nature"><g id="Plant"><path class="cls-5" d="M281.4,1026.67c-5.93-6.6-11.75-13.23-13.55-21.86-.93-4.47.62-10.59,5.17-10.85,2.29-.13,4.3,1.38,6.33,2.45,7.81,4.14,7.86-5.17,5.71-10.1-3.78-8.69-9.56-17.36-8.28-26.75a2.93,2.93,0,0,1,.62-1.65,2.89,2.89,0,0,1,2.51-.54c6,.79,12.2,8.6,18.39,6,15.12-6.22,2-40.95,1-51.67-.2-2-.37-4.24.62-6,1.92-3.5,7.17-3.57,10.61-1.56,5.28,3.09,8.28,9.09,14,11.53,4.54,1.92,9.71-.28,13.05-3.52,10.05-9.74,12.39-25.65,20.31-36.95,6.48-9.25,24.5-23.32,34.59-10.8,4.62,5.73,1.86,14.09,0,21.2-1.76,6.59-3.2,14.34-2.53,21.15.5,5,2.63,10,6.72,13,7.95,5.63,22.89,5.81,14.67,19.21-2.52,4.1-6.43,7.14-9.44,10.9s-5.11,8.95-3.16,13.35c3.55,8,27.36,11,18.24,23.6-2.28,3.16-5.91,5-9.28,7-16.3,9.42-1.67,17.69-4.82,30.64-1.13,4.66-4.66,8.45-8.74,11-6.56,4-14.52,5.55-21.54,8.61-14.26,6.23-27,15.5-38.93,25.4-8.74,7.26-22.45,23.47-35.34,15.64-8-4.83-3-18.39-2.26-25.45C297.52,1045.78,290.14,1036.39,281.4,1026.67Z" transform="translate(-172.64 -103.05)"/><path class="cls-3" d="M304,1095.05a1.92,1.92,0,0,1-.66-.12,1.86,1.86,0,0,1-1.09-2.41l59.85-159.14a1.87,1.87,0,1,1,3.5,1.32l-59.85,159.14A1.89,1.89,0,0,1,304,1095.05Z" transform="translate(-172.64 -103.05)"/><path class="cls-3" d="M346.41,985a1.87,1.87,0,0,1-1-3.43l29.12-19.41a1.87,1.87,0,0,1,2.08,3.12l-29.12,19.41A2,2,0,0,1,346.41,985Z" transform="translate(-172.64 -103.05)"/><path class="cls-3" d="M325.3,1043a1.87,1.87,0,0,1-1-3.43l29.12-19.41a1.87,1.87,0,1,1,2.08,3.12l-29.12,19.41A1.89,1.89,0,0,1,325.3,1043Z" transform="translate(-172.64 -103.05)"/><path class="cls-3" d="M332.27,1014.49a1.87,1.87,0,0,1-1.58-.86l-18.53-28.92a1.88,1.88,0,0,1,3.16-2l18.53,28.92a1.87,1.87,0,0,1-.57,2.59A2,2,0,0,1,332.27,1014.49Z" transform="translate(-172.64 -103.05)"/><path class="cls-7" d="M265.91,1087.14c-25.13,2.85-49.44,0-59.48-25.93-3.61-9.35-8.9-13-18.3-15.68-4.57-1.29-9.36-2.77-12.61-6.24s-4.15-9.59-.63-12.78c2.81-2.55,7.08-2.3,10.85-1.91l18.76,2a4.87,4.87,0,0,0,2.63-.21c2.66-1.29,1-5.33-1-7.53q-11-12.35-22.72-24.09c-2.88-2.89-5.89-5.93-7.07-9.84s.21-8.93,4-10.35c5.31-2,11.53,3.78,16.54,1.14,3.59-1.89,4-6.9,3.09-10.84S197.24,957,198,953a9.54,9.54,0,0,1,17.6-3.17c2.16,3.66,2,8.89,5.57,11.23,3,2,7,.72,10-1.26s5.55-4.68,8.93-5.83c5.73-2,12.72,1.85,14.19,7.72s-1.91,12.59,1.12,17.81c2.82,4.86,9.64,5.52,15.15,4.41s11.05-3.4,16.57-2.31c1.9.37,3.89,1.31,4.66,3.08.84,1.94,0,4.18-1.07,6-3.15,5.53-7.93,10-10.93,15.62s-3.71,13.34.9,17.72c2.42,2.31,5.8,3.21,8.86,4.58s6.14,3.67,6.57,7c.73,5.61-6,8.85-9.44,13.32-4.5,5.8-3.39,13.95-3.56,21.29-.49,20.89-20.92,20.44-36.45,16.62" transform="translate(-172.64 -103.05)"/><path class="cls-3" d="M269.42,1091.38a1.86,1.86,0,0,1-1.75-1.21L233,998a1.86,1.86,0,0,1,1.09-2.41,1.88,1.88,0,0,1,2.41,1.09l34.66,92.15a1.86,1.86,0,0,1-1.09,2.41A1.68,1.68,0,0,1,269.42,1091.38Z" transform="translate(-172.64 -103.05)"/><path class="cls-3" d="M244.87,1027.66a1.89,1.89,0,0,1-1-.31L227,1016.11a1.87,1.87,0,1,1,2.08-3.12l16.86,11.24a1.87,1.87,0,0,1-1,3.43Z" transform="translate(-172.64 -103.05)"/><path class="cls-3" d="M257.09,1061.21a1.89,1.89,0,0,1-1-.31l-16.86-11.24a1.87,1.87,0,1,1,2.08-3.12l16.86,11.24a1.87,1.87,0,0,1-1,3.43Z" transform="translate(-172.64 -103.05)"/><path class="cls-3" d="M253.06,1044.73a1.88,1.88,0,0,1-1.58-2.89l10.73-16.75a1.88,1.88,0,0,1,3.16,2l-10.73,16.75A1.88,1.88,0,0,1,253.06,1044.73Z" transform="translate(-172.64 -103.05)"/></g></g><g id="Characters"><g id="Woman"><g id="Leg"><path id="Skin" class="cls-8" d="M499.64,1003.12l6.37,60.27-19.93,4.2-2.91-63.28S493.72,1000.46,499.64,1003.12Z" transform="translate(-172.64 -103.05)"/><path id="Shoe" class="cls-5" d="M582.14,1095.35s-14.93,3.31-42.73,2.28-58.68-3.44-63.81-8.15-4.85-39.9,4.34-38.87,11.28,14.72,28.81,4.66c15-8.62,24,11.79,47.57,19.6S589.47,1085.81,582.14,1095.35Z" transform="translate(-172.64 -103.05)"/><path id="Leg-2" data-name="Leg" class="cls-4" d="M552.23,1019.78c-.93-2.17-3.37-3.79-5.49-5.48-19.37-15.44-14.64-39-11.54-59.57,7.35-48.82-.52-98-3.46-146.86-2.86-47.66,1.91-95.49,12.8-142,4-16.88,9.42-43-16.69-38-12.37,2.34-24.58,1.88-36.91-.28-6.49-1.14.13-3.25-6.49-1.14-22.55,7.2-31,49.82-26.35,64.67,9.22,29.57,12.22,58,13.72,89.26,2.12,44.4,9.51,88.85,4.24,132.91-2.58,21.59-5.58,43.12-8.46,64.67-1.68,12.57-12.19,40.11-5.14,51.49,9.68,15.62,52.81,2.38,67.22,2C540.51,1031.21,555.39,1027.15,552.23,1019.78Z" transform="translate(-172.64 -103.05)"/></g><g id="Leg-3" data-name="Leg"><path id="Skin-2" data-name="Skin" class="cls-8" d="M622.93,873l-13.28,60-20.5-2.38,17.57-61.74S618.1,868.49,622.93,873Z" transform="translate(-172.64 -103.05)"/><path id="Shoe-2" data-name="Shoe" class="cls-5" d="M689.46,962s-15.1,3.49-43.27,2.71-59.49-2.93-64.74-7.66-5.29-40.38,4-39.43,11.57,14.81,29.23,4.45c15.13-8.87,24.4,11.72,48.39,19.41S696.8,952.29,689.46,962Z" transform="translate(-172.64 -103.05)"/><path id="Leg-4" data-name="Leg" class="cls-9" d="M697.34,683.7c-13.23-20-58.45-19.78-99.94-14.67l-51.49-3-7-19.52-82,25c2.59-.42,2.18,32.59,3.68,35.46,11.73,22.47,45.08,41,71.83,41.4,31.78.42,61.76-8.74,91.46-18.55C677.79,712,602.16,824.44,585,860s1.7,33.72,44.52,31.85,22.6.94,29.9-28.8S723.51,723.27,697.34,683.7Z" transform="translate(-172.64 -103.05)"/></g><g id="Head"><path id="Neck" class="cls-10" d="M535.46,416.18s-6.15,45.06-6.16,45.06c-10.88,3.2-22.28,9.31-33.74,9.29.52-8.36,8.7-17.92,12.46-25.81,4.56-9.57,7.77-19.48,7.27-30.21C514,386.47,535.46,416.18,535.46,416.18Z" transform="translate(-172.64 -103.05)"/><path id="Hair" class="cls-11" d="M589.73,322c1.87.62,7.49,21.86-2.5,35.6s-4.19,11.87-14,21.23-16.64,11.4-16.64,11.4l-11.24,4.21,1.25-23.11,11.16-36.85L593,322" transform="translate(-172.64 -103.05)"/><path id="Face" class="cls-8" d="M563.21,327c0,.05,17.69,12.06,8.3,40.79-10,30.75-24.53,56.5-33.82,53.83-25.7-7.37-33.34-26.58-41.1-43.17C487.08,358.07,513,312.48,513,312.48L534.79,303Z" transform="translate(-172.64 -103.05)"/><path id="Hair-2" data-name="Hair" class="cls-4" d="M603.25,320c2.89-7.17-.34-20.65-5.32-25.63a10,10,0,0,0-7-3.21c-2,0-4,.82-5.88.34-5.74-1.45-5.73-6.34-11-8.53-3.92-1.63-8.09,1.7-12.28,2.33-3.16.47-6.3-.63-9.37-1.54-8.63-2.57-16.42-7.45-25.34-9.28-7.52-1.54-15.51-1.34-22.69,1.78-7.49,3.26-13.21,9.91-16.63,17.86a27.27,27.27,0,0,0-2.11,15.26c-.74-4.2-8.51-.39-9.84,1.13-5.23,6-18.41,23.44-16.52,31,1.5,6-3.15,11.47-1.83,17.57,1.57,7.26,20.56,11.45,24,18.05,3.9,7.57,12.53,12,20.38,10.61-1.83-6.71-3.64-13.57-3.5-20.61s-6.52-39.42,28.5-43.41c13.92-1.59,29.49,11.2,43.17,12.88a46.25,46.25,0,0,0,19.45-1.91c4.88-1.53,10.06-8.19,13.08-13.13A9.61,9.61,0,0,0,603.25,320Z" transform="translate(-172.64 -103.05)"/></g><path id="Arm" class="cls-8" d="M751.7,418.21c-.85-.36-1.74.39-2.36,1.08L732.41,438a12.74,12.74,0,0,1-3.73,3.18,4.3,4.3,0,0,1-4.63-.35c-1.48-1.31-1.43-3.6-1.26-5.58.25-3,5.21-8.92.47-10.23-6.73,3.27-13.17,17.15-15.16,24.13-2.65,7.42,3.35,12.69-.7,19.09-7.52,11.89-14.84,23.87-23,35.36-4.26,6-8.64,11.95-13,17.85-2,2.67-10.29,17.36-13.19,17.66-9.64,13-19,26.54-29.34,39-4,4.75-34.22-22.64-34.22-22.64-26.53-20.51-31-36.69-31-36.69l-23.21,6s8.24,21,24.41,34.84c17.64,15.09,40.19,38.92,52.55,48.21s13.23,4.78,17.9.3c9.83-9.47,17.05-24,24.62-35.21,13.06-19.42,26-39,38.47-58.75,6-9.59,12.44-19.83,18-30.05,5.3-9.79,9.72-15.18,19.43-20.87,8.17-4.79,12.74-12.29,14.2-21.74,1-6.74.46-13.69,2.32-20.31C752.59,420.1,752.71,418.63,751.7,418.21Z" transform="translate(-172.64 -103.05)"/><g id="Body"><path class="cls-12" d="M544.83,548.71c-2.84-27.18,10.29-70.44-5.55-92.5a21.57,21.57,0,0,0-5.73-6c-29.8-18.7-50.42,10.36-59.94,35.93-8.26,22.17-7.24,42.57-7.85,65.7-1,39-10.1,76.9-21.68,113.95-4.13,13.22-5.23,28.61,6.46,30.62,15.79,2.71,19.19-16.74,34.25-21.76,13.76-4.59,24.88-1.77,39.92-.95,7.46.41,31.82-4.5,30.33-18.37-3.52-32.88-8.81-61.23-9-84.13C546,563.77,545.62,556.24,544.83,548.71Z" transform="translate(-172.64 -103.05)"/><path class="cls-6" d="M569.23,515.17S537,449,516.41,469.43s27.35,87.18,27.35,87.18L577,522.56Z" transform="translate(-172.64 -103.05)"/></g><path id="Hair-3" data-name="Hair" class="cls-4" d="M567.62,324c7.69-4.4,9.92-14.34,10.7-23.17.85-9.59.69-22.55-7.39-29.31a30.18,30.18,0,0,0-10.84-5.4c-19.11-5.75-42.22-4.15-60.8,2.9-19,7.19-33,23.6-39.72,42.44a86.56,86.56,0,0,0-5,29.61c.07,10.62,4.8,21.67-3.44,30.45a34.77,34.77,0,0,0,8.79-1.1c-10.49,2.7-27.39,3.28-27.82,18.3-.17,6,3.72,11.19,7,16.2s6.18,11.24,3.9,16.78c-2.87,7-12.84,9.74-14.13,17.2-1.53,8.86,6.84,12.92,10.21,19.82,4.25,8.7.18,18.82-.8,27.84-.87,8,6.51,11.68,11.33,16.46,14,13.84,13.78,29.58-1.49,44.87-.31.31-.19.91,0,1.29a1.83,1.83,0,0,0,1.18.69C469.1,555,494.74,536,499.29,516.92c2-8.57-3.18-16.59-.89-24.82,1.83-6.58,8.53-10.3,14.31-13.92,13.42-8.4,10.76-29.8,9-45.54-1.49-13.73,2.07-16.35-5.75-27.73a99.31,99.31,0,0,1-10-19.06c-3.59-8.86-7.77-2.93-7.46-12.48a33.87,33.87,0,0,1,14-26.34,36.91,36.91,0,0,1,14.95-6.37c5.67-1,11.45-2,15.86-6,4.12-3.73,9.81-12.18,16.19-11.61,8,.71,17.09-1.28,21.22-8.11" transform="translate(-172.64 -103.05)"/></g></g></svg>