<svg width="84" height="84" viewBox="0 0 84 84" fill="none" xmlns="http://www.w3.org/2000/svg">
<path d="M3 81C3.03834 77.2408 4.03579 73.5527 5.89902 70.2807C7.85921 66.8764 10.6842 64.0429 14.0917 62.0633C17.4992 60.0837 21.3699 59.0274 25.317 58.9998C33.2786 59.018 40.8149 63.3902 44.7349 70.2807C46.5972 73.5509 47.5946 77.2368 47.6339 80.994M59.9107 7.952V3M76.9219 14.0333L81 11.1889M42.8873 14.0333L38.8032 11.1889M25.3109 48.4799C26.8171 48.5146 28.315 48.2498 29.7167 47.701C31.1184 47.1523 32.3956 46.3307 33.4732 45.2845C34.5507 44.2383 35.407 42.9886 35.9916 41.6089C36.5762 40.2292 36.8773 38.7473 36.8773 37.2503C36.8773 35.7533 36.5762 34.2714 35.9916 32.8917C35.407 31.512 34.5507 30.2623 33.4732 29.2161C32.3956 28.1699 31.1184 27.3483 29.7167 26.7996C28.315 26.2508 26.8171 25.986 25.3109 26.0207C22.359 26.0888 19.551 27.3018 17.4875 29.4003C15.4239 31.4988 14.2686 34.3163 14.2686 37.2503C14.2686 40.1843 15.4239 43.0018 17.4875 45.1003C19.551 47.1989 22.359 48.4118 25.3109 48.4799ZM72.2665 30.1454C72.2562 28.511 71.9211 26.8948 71.2804 25.3895C70.6398 23.8842 69.7062 22.5194 68.5333 21.3736C67.3604 20.2278 65.9712 19.3235 64.4456 18.7126C62.92 18.1016 61.288 17.7962 59.6433 17.8137C57.9992 17.8644 56.3814 18.2373 54.8827 18.9109C53.384 19.5846 52.034 20.5458 50.9102 21.7393C49.7864 22.9328 48.911 24.3352 48.3341 25.8659C47.7573 27.3965 47.4904 29.0253 47.5489 30.6587C47.6681 32.8433 48.3631 34.9584 49.5641 36.792C50.7652 38.6257 52.4302 40.1134 54.3922 41.1062V47.1452C54.4033 47.5004 54.5526 47.8374 54.8089 48.0853C55.0651 48.3331 55.4082 48.4724 55.7658 48.4738H64.0374C64.396 48.474 64.7407 48.3354 64.9982 48.0874C65.2557 47.8394 65.406 47.5014 65.417 47.1452V40.9975C67.4388 39.9716 69.1435 38.4211 70.3504 36.5106C71.5574 34.6 72.2155 32.4006 72.2665 30.1454Z" stroke="#09385A" stroke-width="5" stroke-linecap="round" stroke-linejoin="round"/>
</svg>
