<svg width="78" height="78" viewBox="0 0 78 78" fill="none" xmlns="http://www.w3.org/2000/svg">
<path d="M46.3125 58.5H56.0625V68.25H46.3125V58.5ZM63.375 58.5H73.125V68.25H63.375V58.5ZM46.3125 41.4375H56.0625V51.1875H46.3125V41.4375ZM63.375 41.4375H73.125V51.1875H63.375V41.4375Z" fill="#09385A" fill-opacity="0.1"/>
<path d="M41.4375 58.5H9.75V24.375H68.25V36.5625H73.125V24.375C73.1237 23.0825 72.6097 21.8432 71.6957 20.9293C70.7818 20.0153 69.5425 19.5013 68.25 19.5H53.625V9.75C53.6237 8.45747 53.1097 7.21824 52.1957 6.30428C51.2818 5.39032 50.0425 4.87629 48.75 4.875H29.25C27.9575 4.87629 26.7182 5.39032 25.8043 6.30428C24.8903 7.21824 24.3763 8.45747 24.375 9.75V19.5H9.75C8.45747 19.5013 7.21824 20.0153 6.30428 20.9293C5.39032 21.8432 4.87629 23.0825 4.875 24.375V58.5C4.87629 59.7925 5.39032 61.0318 6.30428 61.9457C7.21824 62.8597 8.45747 63.3737 9.75 63.375H41.4375V58.5ZM29.25 9.75H48.75V19.5H29.25V9.75Z" fill="#09385A"/>
</svg>
