<svg width="71" height="70" viewBox="0 0 71 70" fill="none" xmlns="http://www.w3.org/2000/svg">
<rect x="0.5" width="70" height="70" rx="35" fill="#6AC75A" fill-opacity="0.31"/>
<path d="M43.125 46.375H41.5V42.3125C41.4987 41.2355 41.0703 40.2029 40.3087 39.4413C39.5471 38.6797 38.5145 38.2513 37.4375 38.25H32.5625C31.4855 38.2513 30.4529 38.6797 29.6913 39.4413C28.9297 40.2029 28.5013 41.2355 28.5 42.3125V46.375H26.875V42.3125C26.8767 40.8046 27.4765 39.359 28.5427 38.2927C29.609 37.2265 31.0546 36.6267 32.5625 36.625H37.4375C38.9454 36.6267 40.391 37.2265 41.4573 38.2927C42.5235 39.359 43.1233 40.8046 43.125 42.3125V46.375ZM39.875 26.875V30.125C39.875 31.0212 39.1462 31.75 38.25 31.75H37.4375C37.222 31.75 37.0153 31.8356 36.863 31.988C36.7106 32.1403 36.625 32.347 36.625 32.5625C36.625 32.778 36.7106 32.9847 36.863 33.137C37.0153 33.2894 37.222 33.375 37.4375 33.375H38.25C40.0424 33.375 41.5 31.9174 41.5 30.125V26.875H39.875ZM35 35C31.8637 35 29.3125 32.4487 29.3125 29.3125C29.3125 26.1762 31.8637 23.625 35 23.625C36.6161 23.625 38.1606 24.3156 39.2388 25.5206L38.0282 26.6044C37.6469 26.1787 37.1801 25.838 36.6584 25.6046C36.1366 25.3712 35.5716 25.2504 35 25.25C32.7599 25.25 30.9375 27.0724 30.9375 29.3125C30.9375 31.5526 32.7599 33.375 35 33.375V35Z" fill="#6AC75A"/>
</svg>
