<svg width="40" height="40" viewBox="0 0 40 40" fill="none" xmlns="http://www.w3.org/2000/svg">
<circle cx="20" cy="20" r="20" fill="black"/>
<circle cx="20" cy="20" r="13" fill="white"/>
<path d="M10.7143 7C8.66563 7 7 8.66563 7 10.7143V29.2857C7 31.3344 8.66563 33 10.7143 33H29.2857C31.3344 33 33 31.3344 33 29.2857V10.7143C33 8.66563 31.3344 7 29.2857 7H10.7143ZM27.9567 11.875L21.9326 18.758L29.0187 28.125H23.4705L19.1295 22.4433L14.1558 28.125H11.3991L17.8411 20.7603L11.0451 11.875H16.7326L20.6616 17.0692L25.2 11.875H27.9567ZM25.7629 26.4768L15.9027 13.4362H14.2603L24.2308 26.4768H25.7571H25.7629Z" fill="black"/>
</svg>
