<svg width="898" height="557" viewBox="0 0 898 557" fill="none" xmlns="http://www.w3.org/2000/svg">
<path d="M217.338 502.047L218.336 479.612C228.737 474.053 240.338 471.116 252.132 471.057C235.9 484.328 237.929 509.909 226.924 527.754C223.449 533.294 218.772 537.981 213.24 541.467C207.707 544.953 201.461 547.15 194.965 547.894L181.382 556.211C179.518 545.82 179.929 535.149 182.586 524.933C185.244 514.716 190.084 505.197 196.775 497.032C200.573 492.488 204.929 488.441 209.739 484.986C212.992 493.564 217.338 502.047 217.338 502.047Z" fill="#F2F2F2"/>
<path d="M796.922 36.5525H164.599C164.333 36.5467 164.081 36.4371 163.895 36.2473C163.709 36.0576 163.605 35.8026 163.605 35.5371C163.605 35.2717 163.709 35.0167 163.895 34.8269C164.081 34.6372 164.333 34.5276 164.599 34.5218H796.922C797.188 34.5276 797.44 34.6372 797.626 34.8269C797.811 35.0167 797.915 35.2717 797.915 35.5371C797.915 35.8026 797.811 36.0576 797.626 36.2473C797.44 36.4371 797.188 36.5467 796.922 36.5525Z" fill="#CACACA"/>
<path d="M186.953 22.3376C192.987 22.3376 197.878 17.3372 197.878 11.1688C197.878 5.00045 192.987 0 186.953 0C180.919 0 176.027 5.00045 176.027 11.1688C176.027 17.3372 180.919 22.3376 186.953 22.3376Z" fill="#89D0CF"/>
<path d="M224.695 22.3376C230.729 22.3376 235.62 17.3372 235.62 11.1688C235.62 5.00045 230.729 0 224.695 0C218.661 0 213.77 5.00045 213.77 11.1688C213.77 17.3372 218.661 22.3376 224.695 22.3376Z" fill="#89D0CF"/>
<path d="M262.437 22.3376C268.471 22.3376 273.362 17.3372 273.362 11.1688C273.362 5.00045 268.471 0 262.437 0C256.403 0 251.512 5.00045 251.512 11.1688C251.512 17.3372 256.403 22.3376 262.437 22.3376Z" fill="#89D0CF"/>
<path d="M774.304 2.76831H747.494C746.963 2.77886 746.457 2.99737 746.084 3.37692C745.712 3.75647 745.504 4.26679 745.504 4.79831C745.504 5.32983 745.712 5.84015 746.084 6.2197C746.457 6.59925 746.963 6.81776 747.494 6.82831H774.304C774.835 6.81776 775.341 6.59925 775.714 6.2197C776.086 5.84015 776.294 5.32983 776.294 4.79831C776.294 4.26679 776.086 3.75647 775.714 3.37692C775.341 2.99737 774.835 2.77886 774.304 2.76831V2.76831Z" fill="#89D0CF"/>
<path d="M774.304 10.3883H747.494C746.963 10.3989 746.457 10.6174 746.084 10.9969C745.712 11.3765 745.504 11.8868 745.504 12.4183C745.504 12.9498 745.712 13.4601 746.084 13.8397C746.457 14.2192 746.963 14.4378 747.494 14.4483H774.304C774.835 14.4378 775.341 14.2192 775.714 13.8397C776.086 13.4601 776.294 12.9498 776.294 12.4183C776.294 11.8868 776.086 11.3765 775.714 10.9969C775.341 10.6174 774.835 10.3989 774.304 10.3883V10.3883Z" fill="#89D0CF"/>
<path d="M774.304 17.9983H747.494C746.963 18.0088 746.457 18.2273 746.084 18.6069C745.712 18.9864 745.504 19.4968 745.504 20.0283C745.504 20.5598 745.712 21.0701 746.084 21.4497C746.457 21.8292 746.963 22.0477 747.494 22.0583H774.304C774.835 22.0477 775.341 21.8292 775.714 21.4497C776.086 21.0701 776.294 20.5598 776.294 20.0283C776.294 19.4968 776.086 18.9864 775.714 18.6069C775.341 18.2273 774.835 18.0088 774.304 17.9983Z" fill="#89D0CF"/>
<path d="M656.713 116.141H222.703C220.564 116.142 218.513 116.99 217 118.502C215.487 120.013 214.636 122.063 214.633 124.201V329.071C214.635 331.211 215.486 333.262 216.999 334.775C218.512 336.288 220.563 337.139 222.703 337.141H656.713C658.851 337.137 660.9 336.285 662.411 334.772C663.922 333.26 664.771 331.209 664.773 329.071V124.201C664.771 122.064 663.921 120.016 662.41 118.505C660.899 116.994 658.85 116.144 656.713 116.141V116.141Z" fill="#89D0CF"/>
<path d="M542.074 214.842C539.937 214.844 537.888 215.694 536.377 217.205C534.866 218.716 534.016 220.765 534.014 222.902V280.772C534.015 282.91 534.865 284.96 536.376 286.472C537.887 287.985 539.936 288.837 542.074 288.842H664.774V214.842H542.074Z" fill="#0D172B"/>
<path opacity="0.5" d="M871.088 288.837H542.078C539.939 288.835 537.889 287.984 536.377 286.472C534.865 284.96 534.014 282.91 534.012 280.771V222.903C534.014 220.765 534.865 218.715 536.377 217.202C537.889 215.69 539.94 214.84 542.078 214.837H871.088C873.227 214.84 875.277 215.69 876.789 217.202C878.302 218.715 879.152 220.765 879.155 222.903V280.771C879.152 282.91 878.302 284.96 876.789 286.472C875.277 287.984 873.227 288.835 871.088 288.837Z" fill="#0D172B"/>
<path d="M586.572 268.626C593.801 268.626 599.661 262.766 599.661 255.537C599.661 248.308 593.801 242.447 586.572 242.447C579.343 242.447 573.482 248.308 573.482 255.537C573.482 262.766 579.343 268.626 586.572 268.626Z" fill="white"/>
<path d="M860.894 251.734H624.38C623.346 251.734 622.355 251.323 621.624 250.592C620.893 249.861 620.482 248.87 620.482 247.836C620.482 246.802 620.893 245.811 621.624 245.08C622.355 244.349 623.346 243.938 624.38 243.938H860.894C861.928 243.938 862.919 244.349 863.65 245.08C864.381 245.811 864.792 246.802 864.792 247.836C864.792 248.87 864.381 249.861 863.65 250.592C862.919 251.323 861.928 251.734 860.894 251.734Z" fill="white"/>
<path d="M771.064 267.135H624.38C623.347 267.135 622.355 266.725 621.624 265.994C620.893 265.263 620.482 264.271 620.482 263.238C620.482 262.204 620.893 261.212 621.624 260.481C622.355 259.75 623.347 259.34 624.38 259.34H771.064C772.098 259.34 773.089 259.75 773.82 260.481C774.551 261.212 774.962 262.204 774.962 263.238C774.962 264.271 774.551 265.263 773.82 265.994C773.089 266.725 772.098 267.135 771.064 267.135V267.135Z" fill="white"/>
<path d="M151.406 545.537L162.734 545.536L168.123 501.843H151.404L151.406 545.537Z" fill="#FFB6B6"/>
<path d="M148.518 541.838L151.706 541.838L164.154 536.776L170.826 541.837H170.827C174.598 541.837 178.214 543.335 180.88 546.001C183.546 548.667 185.044 552.283 185.044 556.054V556.516L148.518 556.517L148.518 541.838Z" fill="#2F2E41"/>
<path d="M49.0508 530.809L59.1898 535.862L83.5038 499.161L68.5408 491.703L49.0508 530.809Z" fill="#FFB6B6"/>
<path d="M48.1141 526.21L50.9678 527.632L64.3672 528.654L68.0805 536.161L68.0813 536.161C71.4557 537.843 74.0237 540.797 75.2206 544.372C76.4174 547.948 76.1449 551.852 74.4632 555.227L74.2571 555.641L41.5664 539.348L48.1141 526.21Z" fill="#2F2E41"/>
<path d="M156.426 347.096L84.4 348.975L85.6527 384.049C85.6527 384.049 84.4 393.444 86.9053 395.949C89.4105 398.454 90.6632 398.454 89.4105 402.838C88.1579 407.223 84.9195 449.112 84.9195 449.112C84.9195 449.112 55.358 501.382 56.6107 502.634C57.8633 503.887 59.1159 502.634 57.8633 505.766C56.6107 508.898 55.358 507.645 56.6107 508.898C57.7202 510.094 58.7656 511.348 59.7422 512.655H80.1578C80.1578 512.655 81.2994 506.392 81.2994 505.766C81.2994 505.14 82.552 501.382 82.552 500.756C82.552 500.129 118.221 462.338 118.221 462.338L125.737 399.707L143.9 461.085C143.9 461.085 143.9 514.948 145.152 516.201C146.405 517.454 146.405 516.827 145.779 519.333C145.152 521.838 142.647 521.211 144.526 523.09C146.405 524.969 147.031 521.838 146.405 524.969L145.779 528.101L169.841 528.37C169.841 528.37 172.346 523.09 171.094 521.211C169.841 519.333 169.916 519.845 171.445 516.771C172.973 513.696 173.599 513.069 172.973 512.443C172.346 511.817 172.346 508.485 172.346 508.485C172.346 508.485 163.315 385.302 163.315 383.423C163.268 382.456 163.446 381.491 163.836 380.605V378.055L161.437 369.017L156.426 347.096Z" fill="#2F2E41"/>
<path d="M869.681 238.348C864.215 238.348 858.871 236.727 854.326 233.69C849.781 230.653 846.239 226.337 844.147 221.286C842.055 216.236 841.508 210.679 842.574 205.318C843.64 199.957 846.273 195.032 850.138 191.167C854.003 187.301 858.928 184.669 864.289 183.603C869.65 182.536 875.207 183.084 880.258 185.176C885.308 187.267 889.624 190.81 892.661 195.355C895.698 199.9 897.319 205.243 897.319 210.71C897.319 218.04 894.407 225.07 889.224 230.253C884.041 235.436 877.011 238.348 869.681 238.348V238.348Z" fill="#0D172B"/>
<path d="M880.585 207.984H872.406V199.805C872.406 199.081 872.119 198.388 871.608 197.877C871.096 197.365 870.403 197.078 869.68 197.078C868.957 197.078 868.263 197.365 867.752 197.877C867.241 198.388 866.953 199.081 866.953 199.805V207.984H858.774C858.416 207.983 858.061 208.053 857.73 208.19C857.398 208.326 857.097 208.527 856.843 208.78C856.59 209.033 856.388 209.334 856.251 209.665C856.114 209.996 856.043 210.351 856.043 210.71C856.043 211.068 856.114 211.423 856.251 211.754C856.388 212.085 856.59 212.386 856.843 212.639C857.097 212.893 857.398 213.093 857.73 213.23C858.061 213.367 858.416 213.437 858.774 213.436H866.953V221.615C866.953 222.338 867.241 223.032 867.752 223.543C868.263 224.054 868.957 224.342 869.68 224.342C870.403 224.342 871.096 224.054 871.608 223.543C872.119 223.032 872.406 222.338 872.406 221.615V213.436H880.585C881.308 213.436 882.002 213.149 882.513 212.638C883.024 212.126 883.311 211.433 883.311 210.71C883.311 209.987 883.024 209.293 882.513 208.782C882.002 208.271 881.308 207.984 880.585 207.984V207.984Z" fill="white"/>
<path d="M447.883 289.211H342.873C340.733 289.214 338.682 290.065 337.169 291.578C335.656 293.091 334.805 295.142 334.803 297.281V337.141H455.943V297.281C455.941 295.143 455.092 293.093 453.581 291.581C452.07 290.068 450.021 289.216 447.883 289.211V289.211Z" fill="#0D172B"/>
<path opacity="0.5" d="M447.879 401.211H342.869C340.73 401.209 338.68 400.358 337.168 398.846C335.656 397.334 334.805 395.284 334.803 393.145V297.278C334.805 295.139 335.656 293.089 337.168 291.577C338.68 290.064 340.731 289.214 342.869 289.211H447.879C450.018 289.214 452.068 290.064 453.58 291.577C455.092 293.089 455.943 295.139 455.946 297.278V393.145C455.943 395.284 455.093 397.334 453.58 398.846C452.068 400.358 450.018 401.209 447.879 401.211Z" fill="#0D172B"/>
<path d="M373.808 334.652C381.037 334.652 386.897 328.792 386.897 321.563C386.897 314.334 381.037 308.473 373.808 308.473C366.579 308.473 360.719 314.334 360.719 321.563C360.719 328.792 366.579 334.652 373.808 334.652Z" fill="white"/>
<path d="M426.131 354.547H364.617C363.583 354.547 362.591 354.137 361.86 353.406C361.129 352.675 360.719 351.683 360.719 350.649C360.719 349.616 361.129 348.624 361.86 347.893C362.591 347.162 363.583 346.752 364.617 346.752H426.131C427.164 346.752 428.156 347.162 428.887 347.893C429.618 348.624 430.028 349.616 430.028 350.649C430.028 351.683 429.618 352.675 428.887 353.406C428.156 354.137 427.164 354.547 426.131 354.547Z" fill="white"/>
<path d="M394.3 369.949H364.617C363.583 369.949 362.591 369.539 361.86 368.807C361.129 368.076 360.719 367.085 360.719 366.051C360.719 365.017 361.129 364.026 361.86 363.295C362.591 362.564 363.583 362.153 364.617 362.153H394.3C395.334 362.153 396.326 362.564 397.057 363.295C397.788 364.026 398.198 365.017 398.198 366.051C398.198 367.085 397.788 368.076 397.057 368.807C396.326 369.539 395.334 369.949 394.3 369.949V369.949Z" fill="white"/>
<path d="M340.681 429.348C335.215 429.348 329.871 427.727 325.326 424.69C320.781 421.653 317.239 417.337 315.147 412.286C313.055 407.236 312.508 401.679 313.574 396.318C314.64 390.957 317.273 386.032 321.138 382.167C325.003 378.302 329.928 375.669 335.289 374.603C340.65 373.536 346.207 374.084 351.258 376.176C356.308 378.267 360.624 381.81 363.661 386.355C366.698 390.9 368.319 396.244 368.319 401.71C368.319 409.04 365.407 416.07 360.224 421.253C355.041 426.436 348.011 429.348 340.681 429.348V429.348Z" fill="#0D172B"/>
<path d="M351.585 398.984H343.406V390.805C343.406 390.081 343.119 389.388 342.608 388.877C342.096 388.365 341.403 388.078 340.68 388.078C339.957 388.078 339.263 388.365 338.752 388.877C338.241 389.388 337.953 390.081 337.953 390.805V398.984H329.775C329.416 398.983 329.061 399.053 328.73 399.19C328.398 399.326 328.097 399.527 327.843 399.78C327.59 400.033 327.388 400.334 327.251 400.665C327.114 400.996 327.043 401.351 327.043 401.71C327.043 402.068 327.114 402.423 327.251 402.754C327.388 403.085 327.59 403.386 327.843 403.639C328.097 403.893 328.398 404.093 328.73 404.23C329.061 404.367 329.416 404.437 329.775 404.436H337.953V412.615C337.953 413.338 338.241 414.032 338.752 414.543C339.263 415.054 339.957 415.341 340.68 415.341C341.403 415.341 342.096 415.054 342.608 414.543C343.119 414.032 343.406 413.338 343.406 412.615V404.436H351.585C352.308 404.436 353.002 404.149 353.513 403.638C354.024 403.126 354.311 402.433 354.311 401.71C354.311 400.987 354.024 400.293 353.513 399.782C353.002 399.271 352.308 398.984 351.585 398.984Z" fill="white"/>
<path d="M327.887 228.266H222.877C220.738 228.264 218.688 227.413 217.176 225.901C215.664 224.389 214.813 222.339 214.811 220.2V124.332C214.813 122.194 215.664 120.144 217.176 118.632C218.688 117.119 220.738 116.269 222.877 116.266H327.887C330.026 116.269 332.076 117.119 333.588 118.632C335.1 120.144 335.951 122.194 335.953 124.332V220.2C335.951 222.339 335.1 224.389 333.588 225.901C332.076 227.413 330.026 228.264 327.887 228.266V228.266Z" fill="#0D172B"/>
<path d="M253.816 169.707C261.045 169.707 266.905 163.847 266.905 156.618C266.905 149.389 261.045 143.529 253.816 143.529C246.587 143.529 240.727 149.389 240.727 156.618C240.727 163.847 246.587 169.707 253.816 169.707Z" fill="#0D172B"/>
<path d="M306.138 185.602H244.624C243.591 185.602 242.599 185.192 241.868 184.461C241.137 183.73 240.727 182.738 240.727 181.705C240.727 180.671 241.137 179.679 241.868 178.949C242.599 178.218 243.591 177.807 244.624 177.807H306.138C307.172 177.807 308.164 178.218 308.895 178.949C309.626 179.679 310.036 180.671 310.036 181.705C310.036 182.738 309.626 183.73 308.895 184.461C308.164 185.192 307.172 185.602 306.138 185.602V185.602Z" fill="#0D172B"/>
<path d="M274.308 201.004H244.625C243.591 201.004 242.599 200.594 241.868 199.863C241.137 199.132 240.727 198.14 240.727 197.106C240.727 196.073 241.137 195.081 241.868 194.35C242.599 193.619 243.591 193.208 244.625 193.208H274.308C275.342 193.208 276.333 193.619 277.064 194.35C277.795 195.081 278.206 196.073 278.206 197.106C278.206 198.14 277.795 199.132 277.064 199.863C276.333 200.594 275.342 201.004 274.308 201.004V201.004Z" fill="#0D172B"/>
<path opacity="0.5" d="M327.887 228.266H222.877C220.738 228.264 218.688 227.413 217.176 225.901C215.664 224.389 214.813 222.339 214.811 220.2V124.332C214.813 122.194 215.664 120.144 217.176 118.632C218.688 117.119 220.738 116.269 222.877 116.266H327.887C330.026 116.269 332.076 117.119 333.588 118.632C335.1 120.144 335.951 122.194 335.953 124.332V220.2C335.951 222.339 335.1 224.389 333.588 225.901C332.076 227.413 330.026 228.264 327.887 228.266V228.266Z" fill="#0D172B"/>
<path d="M253.816 169.707C261.045 169.707 266.905 163.847 266.905 156.618C266.905 149.389 261.045 143.529 253.816 143.529C246.587 143.529 240.727 149.389 240.727 156.618C240.727 163.847 246.587 169.707 253.816 169.707Z" fill="white"/>
<path d="M306.138 185.602H244.624C243.591 185.602 242.599 185.192 241.868 184.461C241.137 183.73 240.727 182.738 240.727 181.705C240.727 180.671 241.137 179.679 241.868 178.949C242.599 178.218 243.591 177.807 244.624 177.807H306.138C307.172 177.807 308.164 178.218 308.895 178.949C309.626 179.679 310.036 180.671 310.036 181.705C310.036 182.738 309.626 183.73 308.895 184.461C308.164 185.192 307.172 185.602 306.138 185.602V185.602Z" fill="white"/>
<path d="M274.308 201.004H244.625C243.591 201.004 242.599 200.594 241.868 199.863C241.137 199.132 240.727 198.14 240.727 197.106C240.727 196.073 241.137 195.081 241.868 194.35C242.599 193.619 243.591 193.208 244.625 193.208H274.308C275.342 193.208 276.333 193.619 277.064 194.35C277.795 195.081 278.206 196.073 278.206 197.106C278.206 198.14 277.795 199.132 277.064 199.863C276.333 200.594 275.342 201.004 274.308 201.004V201.004Z" fill="white"/>
<path d="M225.043 136.951C236.641 136.951 246.043 127.549 246.043 115.951C246.043 104.354 236.641 94.9515 225.043 94.9515C213.445 94.9515 204.043 104.354 204.043 115.951C204.043 127.549 213.445 136.951 225.043 136.951Z" fill="#FF6584"/>
<path d="M282.67 555.785C282.671 555.942 282.64 556.097 282.58 556.241C282.521 556.386 282.433 556.517 282.323 556.628C282.212 556.738 282.081 556.826 281.936 556.886C281.791 556.945 281.636 556.976 281.48 556.975H1.19C0.874395 556.975 0.57171 556.85 0.348541 556.627C0.125373 556.404 0 556.101 0 555.785C0 555.47 0.125373 555.167 0.348541 554.944C0.57171 554.721 0.874395 554.595 1.19 554.595H281.48C281.636 554.595 281.791 554.625 281.936 554.685C282.081 554.745 282.212 554.832 282.323 554.943C282.433 555.053 282.521 555.185 282.58 555.329C282.64 555.474 282.671 555.629 282.67 555.785V555.785Z" fill="#CCCCCC"/>
<path d="M220.554 171.576C221.417 173.99 221.297 176.646 220.22 178.972C219.143 181.299 217.195 183.108 214.795 184.011C214.264 184.209 213.717 184.36 213.16 184.462L207.614 218.421L194.604 206.409L201.865 176.002C201.596 173.44 202.346 170.875 203.954 168.861C205.561 166.848 207.896 165.548 210.455 165.243C212.607 164.996 214.779 165.489 216.614 166.639C218.449 167.79 219.839 169.531 220.554 171.576L220.554 171.576Z" fill="#FFB6B6"/>
<path d="M124.541 248.524C124.541 248.524 134.638 235.183 171.28 235.548L192.078 227.992L196.831 184.422L213.467 188.383L211.09 242.251L175.442 262.848L128.703 272.354L124.541 248.524Z" fill="#89D0CF"/>
<path d="M119.175 220.73C131.186 220.73 140.923 210.994 140.923 198.983C140.923 186.972 131.186 177.235 119.175 177.235C107.164 177.235 97.4277 186.972 97.4277 198.983C97.4277 210.994 107.164 220.73 119.175 220.73Z" fill="#FFB6B6"/>
<path d="M82.3682 363.878C82.3297 363.878 82.2912 363.873 82.2541 363.862C81.8526 363.75 81.5354 363.662 82.9844 351.133L84.5483 341.229L83.0216 332.485L80.4535 329.917L84.5808 325.79L88.0443 315.952L82.0515 307.071L75.1759 270.755C73.9939 264.488 74.9124 258.007 77.7891 252.316C80.6657 246.624 85.3398 242.041 91.0865 239.277L99.0443 236.952L101.94 231.642C102.753 230.151 103.95 228.904 105.407 228.032C106.864 227.159 108.528 226.692 110.226 226.68L124.799 226.571C126.269 226.56 127.722 226.889 129.044 227.534C130.365 228.178 131.519 229.12 132.416 230.286L137.5 236.895L158.582 244.056L155.087 319.378C155.642 319.842 156.095 320.417 156.416 321.066C156.738 321.715 156.922 322.423 156.955 323.146C156.989 323.87 156.872 324.592 156.613 325.268C156.353 325.944 155.955 326.559 155.446 327.073C155.227 327.294 155.053 327.474 154.945 327.593C154.59 328.098 155.257 331.868 156.08 335.068L157.136 339.97C156.797 340.212 156.512 340.522 156.299 340.88C156.086 341.238 155.949 341.636 155.898 342.049C155.847 342.462 155.881 342.882 156 343.281C156.119 343.68 156.319 344.05 156.588 344.368L157.935 345.959C158.201 347.953 157.665 349.972 156.446 351.572C155.226 353.172 153.421 354.222 151.427 354.494C132.16 357.116 82.4689 363.878 82.3682 363.878Z" fill="#89D0CF"/>
<path d="M113.612 219.665C113.519 219.461 113.426 219.256 113.334 219.05C113.37 219.051 113.405 219.056 113.44 219.057L113.612 219.665Z" fill="#2F2E41"/>
<path d="M96.8235 178.224C97.8561 177.25 99.1982 176.67 100.615 176.585C102.022 176.63 103.448 177.9 103.156 179.277C105.739 174.703 109.851 171.186 114.769 169.342C119.687 167.497 125.098 167.444 130.051 169.192C133.546 170.425 136.974 172.892 137.777 176.51C137.855 177.46 138.138 178.382 138.607 179.212C139.013 179.656 139.541 179.971 140.124 180.119C140.707 180.266 141.321 180.24 141.889 180.044L141.924 180.033C142.118 179.967 142.329 179.96 142.527 180.015C142.725 180.069 142.903 180.181 143.037 180.338C143.17 180.494 143.254 180.687 143.277 180.891C143.3 181.095 143.261 181.302 143.165 181.484L142.176 183.328C143.423 183.606 144.719 183.579 145.952 183.248C146.157 183.194 146.374 183.205 146.572 183.279C146.771 183.354 146.941 183.487 147.061 183.662C147.18 183.837 147.242 184.045 147.239 184.257C147.236 184.469 147.167 184.674 147.042 184.846C145.399 187.094 143.253 188.928 140.776 190.201C138.299 191.475 135.559 192.152 132.774 192.18C128.822 192.156 124.83 190.794 120.985 191.703C119.497 192.054 118.107 192.734 116.916 193.693C115.726 194.652 114.765 195.865 114.104 197.244C113.444 198.623 113.1 200.132 113.099 201.66C113.098 203.189 113.439 204.699 114.097 206.078C112.916 204.786 110.632 205.092 109.423 206.359C108.867 207.037 108.456 207.822 108.215 208.666C107.974 209.51 107.909 210.394 108.024 211.264C108.346 213.928 109.137 216.514 110.36 218.902C105.687 218.758 101.171 217.184 97.4221 214.392C93.6728 211.599 90.8709 207.723 89.3948 203.288C87.9187 198.852 87.8395 194.07 89.168 189.588C90.4965 185.106 93.1687 181.139 96.8235 178.224L96.8235 178.224Z" fill="#2F2E41"/>
<path d="M90.8386 395.068C88.7594 393.569 87.3528 391.312 86.9221 388.785C86.4914 386.258 87.0712 383.663 88.5363 381.559C88.8613 381.095 89.2267 380.661 89.6284 380.261L74.9531 349.138L92.48 351.662L103.729 380.83C105.402 382.789 106.238 385.328 106.054 387.898C105.871 390.467 104.684 392.862 102.749 394.563C101.115 395.986 99.0467 396.811 96.8823 396.903C94.718 396.995 92.5867 396.348 90.8387 395.068H90.8386Z" fill="#FFB6B6"/>
<path d="M86.3945 378.074L63.0425 325.591L62.8086 284.139L70.1697 261.749C71.1683 258.711 72.7658 255.904 74.8678 253.494C76.9697 251.085 79.5333 249.121 82.4072 247.718C85.2811 246.316 88.4069 245.505 91.5999 245.331C94.7929 245.158 97.9882 245.626 100.997 246.709L101.159 246.767L101.227 246.925C101.499 247.56 107.673 262.832 89.36 294.248L85.6745 315.744L98.6067 365.018L86.3945 378.074Z" fill="#89D0CF"/>
</svg>
