<svg class="bo__logo" version="1.1" xmlns="http://www.w3.org/2000/svg" x="0" y="0" viewBox="0 0 836.6 662.3" xml:space="preserve"><path d="M140.3 397.9V280c0-20.7-10.1-39.1-26.1-50.3v-.6c16-11.8 26.1-30.2 26.1-50.9V73.4c0-38.5-31.4-69.9-70.5-69.9H0v464.8h69.9c39 0 70.4-31.4 70.4-70.4zm-52.7 0c0 10.1-7.7 17.8-17.8 17.8H52.7V255.8h17.2c10.1 0 17.8 7.7 17.8 17.2v124.9zm0-212.6c0 9.5-7.7 17.8-17.8 17.8H52.7V56.3h17.2c10.1 0 17.8 7.7 17.8 17.2v111.8zM783.9 3.6h52.7v464.8h-52.7zM640.6 255.8h34.9v212.5h52.7V3.6h-52.7v199.5h-34.9V3.6h-52.7v464.7h52.7zM265.8 471.9c39.1 0 70.5-31.4 70.5-70.5V69.9c0-38.5-31.4-69.9-70.5-69.9C227.3 0 196 31.4 196 69.9v331.5c0 39.1 31.3 70.5 69.8 70.5zm-17.1-402c0-9.5 7.7-17.2 17.2-17.2 10.1 0 17.8 7.7 17.8 17.2v331.5c0 9.5-7.7 17.8-17.8 17.8-9.5 0-17.2-8.3-17.2-17.8V69.9zM532.2 397.9V73.4c0-38.5-31.4-69.9-70.5-69.9h-69.9v464.8h69.9c39.2 0 70.5-31.4 70.5-70.4zm-52.7 0c0 10.1-7.7 17.8-17.8 17.8h-17.2V56.3h17.2c10.1 0 17.8 7.7 17.8 17.2v324.4zM376 565.9c0 3 2.3 5.2 5.2 5.2 2.9 0 5.2-2.3 5.2-5.2 0-2.9-2.3-5.2-5.2-5.2-2.9 0-5.2 2.3-5.2 5.2z"></path><path d="M438.7 587.1c-1.8 0-3.1 1.3-4.6 3.1-3.3 3.8-11.1 14.4-17 14.4-2 0-2.3-1-2.3-1.8 0-4.4 11.5-8.8 11.5-17.5 0-4.3-3.6-7.2-8.2-7.2-4.7 0-9.2 2.4-13.2 5.4 2.5-4.1 5-8 7.1-11.4.3-.5.7-1.5.7-2 0-1.6-1.5-2.8-2.8-2.8-1.5 0-2.9.8-3.9 2.3-.7 1.1-1.3 2.1-2 3.1-6.2 7.1-28.9 31.1-38.8 31.1-1.6 0-3.1-.8-3.1-2.8 0-3.5 2.2-7.3 4.9-10.8 2.8-3.6 6.3-7 8.5-9.5.8-.8 1-1.8 1-2.5 0-1.5-1.5-2.9-2.9-2.9-1 0-2.6.5-3.6 1.5-3.2 3.2-6.8 7.1-9.7 11.3-5.4 6.4-14.9 16.1-19.4 16.1-.7 0-2-.2-2-1.6 0-2.3 2.1-4.6 3.3-6.4 1.5-2.1 3.3-4.4 4.4-6.9.7-1.6 1.1-3.3 1.1-4.9 0-3.9-2.3-7.4-7-7.4-8.5 0-16.6 7.2-22.8 13.3 2.1-4.6 4.1-8.9 6.1-13.1 4.9-4.1 9.9-8.2 14.8-12.3 12.6-10.5 20.8-17.2 28.5-24.9 6.1-6.1 13.1-13.1 13.1-22.5 0-5.1-3.8-8-8.2-8-3.1 0-5.9.5-9.5 2.6-12 6.9-20.8 21-27.9 32.3-6 9.5-11.3 19.4-16.3 29.4-8 6.4-16 13-23.7 19.6v-1.5c0-5.1-.5-9.8-.5-14.3 0-.5.3-2.6.3-3.1-.2-2-1.6-2.8-2.9-2.8-1.5 0-2.8 1-3.8 2.3-6.9 9.2-22.8 29-33.1 29-1.8 0-2.1-.8-2.1-2 0-6.9 6.9-12.8 10.7-17 .5-.5 1-1.6 1-2.3 0-1.6-1-3.1-3.1-3.1-2.9 0-4.4 2.3-7.2 2.3-2.3-.2-2.8-1.8-2.8-3.6 0-1 .3-2 .3-2.9-.2-2-2-2.8-3.3-2.8-2 0-3.4 1.8-4.3 3.3-3.1 6-9.1 15.1-16.4 17.8.7-2.2 1.2-4.4 1.2-6.5 0-6.4-3.8-12-12.3-12-12.3 0-25.4 10.3-25.4 24.1 0 6.7 4.6 13 12.3 13 8.5 0 16-4.7 20.6-11 8.9-1 15.7-7.9 21.2-15.5 1.2 2 3.2 3.3 6.3 3.3.4 0 .7-.1 1.1-.1-.5.7-1.1 1.5-1.6 2.2-2.3 3.8-5.1 8.9-5.1 13.3 0 3.3 2.3 6.7 7 6.7 10.8 0 25.9-14.2 34.1-24.9.3 3 1 7.4 1 9.7 0 2-.3 3.9-1.3 5.7-.8 1.8-2.8 3.3-4.8 3.3s-3.1-2-5.1-2c-2.3 0-4.4 2-4.4 4.1 0 3.6 4.7 4.9 7.4 4.9 5.2 0 9-2 12.1-6.2.2-.3.3-.6.5-.8 6.6-5.7 13.2-11.3 19.8-16.9-2.8 6-5.5 12-8.2 18.1-.3.8-.3 1.5-.3 2 0 1.6 1.8 2.5 2.8 2.5 1.1 0 2.3-.5 3.3-1.6 6.9-7.4 13.8-15.9 22.3-21.5 1.5-1 3.8-2.5 5.9-2.5 1 0 2.3.2 2.3 1.8 0 1.5-.7 2.6-1.3 3.8-2.5 3.8-7.5 9.7-7.5 15.1 0 4.3 2.9 6.7 6.9 6.7 3.6 0 6.1-.8 8.8-2.5 2.9-1.8 5.3-3.6 7.6-5.7.3 5 4.2 7.9 8.9 7.9 1.8 0 4.1-.5 5.7-1.1 6.3-2.7 12.5-6.9 18.4-11.9-5.4 8.6-10.7 17.2-15.9 25.9-6.9 10.4-13.6 20.6-20.5 31.8-.5.8-.7 2.3-.7 2.9 0 1.6 1.6 2.8 2.9 2.8 2 0 3.8-.7 5.2-2.9 7.5-12.6 15.8-26.2 24-39.4 3.7-5.7 6.4-9.8 7.7-11.9 5.9-9.7 19.5-22.1 26.2-22.1 1.1 0 2.1.7 2.1 1.8 0 5.7-11.6 10.5-11.6 17.5 0 4.9 3.6 7 7.7 7 10.5 0 19.5-11.3 25.4-19 .8-1.1 1.1-2.1 1.1-2.9.1-1.8-1.2-2.6-2.7-2.6zm-233.2 17.2c-4.6 0-6.9-3.3-6.9-7.4 0-8.4 7.7-15.9 16.2-15.9 4.6 0 6.7 3.3 6.7 7.5 0 7.6-8.7 15.8-16 15.8zm149.6-77.7c4.8-5.6 11.8-10.3 15.6-10.3 1.6 0 2.6 1.6 2.6 3.1 0 7.4-10.5 16.1-15.7 21.1-8.1 7.9-17.5 15.7-27.3 23.7 7-13.5 14.4-25.4 24.8-37.6zM773.6 593.6c-.8 0-2 .3-2.9 1.1-5.3 4.5-11.1 8.2-17.1 11.6 5-9.6 8.7-17.9 11.3-23.7.2-.5.3-1.3.3-1.8 0-1.6-1.5-2.8-2.8-2.8-1.6 0-3.3.7-4.1 2.8-.1.2-.2.5-.3.7-.3.4-.6.8-1 1.3-2.7-3.9-6.6-5.7-11-5.7-10.2 0-20.6 7.3-24.8 16.4-3.6 5.1-9.1 11.8-15.1 11.8-1 0-2.5-.2-2.5-2 0-2.5 8-11 8-18.4 0-5.6-3.8-7.2-8-7.2-8 0-15.7 8.2-21.6 14.1 1.6-3.8 3.4-7.4 5.1-11.3.2-.5.3-1 .3-1.5 0-1.6-1.8-2.3-3.1-2.3s-3.1 1-3.8 2.1c-5.6 7.5-11 14.1-18.4 20-2.8 2.1-6.7 5.1-10.8 5.1-1.8 0-3.6-1-3.6-3.1 0-5.6 8.4-14.4 12.3-18.5 1.1-1.1 2-2.3 2-3.8s-1.5-2.6-2.9-2.6c-2.3 0-3.4 1.3-5.1 3.1-3.6 3.9-7.7 8.4-10.5 13.2-4.6 5.8-10.2 11.5-17.2 11.5-4.6 0-6.9-3.6-6.9-7.7 0-1.8.2-3.6.5-5.4 13.3-13.5 33.8-35.6 47-52.1 6.2-7.9 12.6-16.9 12.6-24.3 0-4.4-3.3-6.4-7.2-6.4-11.5 0-24.1 16.2-30.5 24.8-11.2 14.9-26.7 39.6-29.4 57.4-2.9 3.4-5.9 6.8-9.5 9.7-3.4 2.6-7.9 5.2-12.3 5.2-5.9 0-8.2-3.4-8.2-7.5 0-5.9 5.1-13.1 11.8-13.1 1.8 0 3.8.5 4.8 2.1.5 1 1.6 2 2.8 2 2.6 0 4.6-1.8 4.6-3.9 0-.5 0-1-.3-1.6-2-3.9-5.9-5.6-10-5.6-9.9 0-18.4 8.1-20.6 18.1-5.1 4.2-10.6 7.7-16.3 10.9 4.1-7.8 7.9-15.8 11.5-23.8.2-.5.2-1 .2-1.3 0-1.6-1-2.5-2.5-2.5-1 0-2.3.3-3.4 1.1-5.9 6.9-18.9 24.3-29.2 24.3-1.8 0-2.8-1.8-2.8-3.3 0-7.7 7-13.9 10.8-18 .8-1 1-1.6 1-2.3 0-1.5-1.3-2.8-2.8-2.8-1 0-2.1.3-3.1 1.3s-2 2-2.9 3c-9.3 8.6-23 23.2-37.6 23.2-12.6 0-21.8-8.5-21.8-23.4 0-34.3 30.5-67.9 64.8-67.9 9.5 0 16.1 4.1 16.1 13.1 0 12-10.8 19-21.1 22.8-1.8.7-3.6 2.6-3.6 4.1 0 1.6 1.3 3.6 3.4 3.6.5 0 1.1 0 1.6-.2 11.3-2.3 28-14.9 28-31.6 0-11.8-10-19.3-24.4-19.3-34.9 0-73.3 34.3-73.3 75.9 0 18 12.1 30.8 28.7 30.8 10.9 0 20.7-6.1 29.2-13.2-.1.9-.2 1.7-.2 2.6 0 6.1 4.1 8.5 8.9 8.5 3.3 0 6.9-1.1 10-3.1 4.1-2.5 7.5-5.6 11-8.7-.3.7-.8 1.3-1.2 2.1-1.3 2.5-3.2 6.2-5.4 10.4-4.9 2.5-9.8 5-14.6 7.6-7.9 4.4-15.9 9.2-22.8 15.1-5.6 4.9-11 11.3-11 19 .5 6.2 4.9 8.7 9.5 8.7 14.3 0 26.4-18.4 33.3-28.8 3.7-5.5 7-11.2 10.3-17 7.5-4 14.8-8.2 21.5-13.3 1.2 5.1 5.5 9 13.1 9 6.4 0 13.3-3.4 18-7.2 2.2-1.6 4.1-3.5 6-5.4 1 6.4 4.5 11.8 10.9 11.8 6.5 0 12.1-3.2 17.1-7.4.5 4.7 3.2 7.4 7.7 7.4 9.3 0 17.3-6 23.9-13.2-1.3 3-2.6 6-4.1 9.3-1.5 3.4 1.1 4.6 2.1 4.6 2.5 0 4.1-2 5.2-3.4 5.6-7.2 20.5-23.8 26.7-23.8 1.6 0 2.3 1.1 2.3 2.5 0 5.7-8 11.5-8 18.2 0 4.3 3.4 6.6 7.5 6.6 5.8 0 11.2-3.5 15.8-7.7.9 4.7 3.9 7.5 8.5 7.5 7 0 14.4-5 20.9-11.2-1.8 3.6-3.7 7.3-5.7 11.1-5 2.5-9.9 5-14.7 7.7-7.9 4.4-15.9 9.2-22.8 15.1-5.6 4.9-10.8 11.3-10.8 19 .5 6.2 4.8 8.7 9.3 8.7 15.6 0 29-22 34.4-30.3 3.5-5.4 6.6-10.7 9.4-15.7 9.2-4.9 18.3-10.1 26.2-17 1.3-1.1 2-2.3 2-3.3.2-1.1-.9-2.3-2.6-2.3zM512 655.4c-2.1 0-3.4-1.5-3.4-3.4 0-5.4 5.9-11.8 12-16.2 7.3-5.3 15.1-9.7 23.1-13.9-9.2 15.8-21.5 33.5-31.7 33.5zm131.5-112.8c10.8-15.2 22.6-27.4 26.7-27.4 5.9 0-4.8 14.8-8.2 18.9-11.9 14.3-25.4 30.9-38.8 44.8 5-13.4 13.8-27.2 20.3-36.3zm86.7 62.5c-2.3 0-3.4-1.6-3.4-4.6 0-2.1.6-4.1 1.6-6 3.1-5.9 10.1-10.5 15.9-10.5 3 0 6.3 1.6 8.1 4.9-6.1 7.2-15 16.2-22.2 16.2zm-23.9 50.3c-2.5 0-3.6-1.8-3.6-3.3 0-6.1 6.4-12.3 12-16.4 7.3-5.4 15.3-9.7 23.3-14-10.3 17.6-22.2 33.7-31.7 33.7zM236.6 528.4c0-1.6-.7-3.1-3.4-3.1-13 0-47.4 51.8-57.9 64.7-5.1 6.2-13 14.9-19.3 14.9-2.8 0-3.6-1.5-3.6-3.4 0-11.3 9.9-27.9 20.6-43.7 5.8-7.4 11.3-15 16.1-22.5.3-.7.5-1.1.5-1.8 0-2.5-2.1-3.8-3.9-3.8-1.3 0-3.1.7-4.4 2.5-5.5 7.7-11 15.6-16.2 23.6-8.4 10.4-17.3 20.3-26.8 29.5-7.7 7.4-19.5 17.5-26.1 17.5-1.5 0-2.5-1-2.5-2.6 0-5.4 4.9-12.8 6.1-14.8 7.5-11.6 17.5-23.6 24.6-33.1 7.9-10.7 14.9-20.7 14.9-33.4 0-8.2-6.4-12.1-13.3-12.1-19.8 0-49.8 21.8-54.9 47.1-.8 4.1 1.1 5.6 2.9 5.6 2.5 0 4.6-1.5 5.4-5.1 4.6-22.1 30.5-39.7 44.3-39.7 5.9 0 7.2 3.8 7.2 7.5 0 4.9-2.8 10.7-4.9 14.4-10.3 18.5-26.9 31.8-37.1 50.8-1.8 3.3-4.4 9.5-4.4 13.9 0 4.9 3 10.2 9.5 10.2 13 0 23.8-12.5 32.8-20.8 2-1.9 4-3.8 6-5.8-2.2 5-5.4 13.4-5.4 17.9 0 7.7 3.3 11.2 9.7 11.2 9 0 18.5-8.7 23.9-15.1 17.1-19.8 27.7-39 46.7-57.2 5.4-5 12.9-10.1 12.9-13.3z"></path><path d="M662.5 565.9c0 3 2.5 5.2 5.2 5.2 3 0 5.2-2.3 5.2-5.2 0-2.9-2.3-5.2-5.2-5.2-2.7 0-5.2 2.3-5.2 5.2z"></path></svg>