<svg width="512" height="506" viewBox="0 0 512 506" fill="none" xmlns="http://www.w3.org/2000/svg">
<path fill-rule="evenodd" clip-rule="evenodd" d="M93.338 2.06501C81.344 5.86701 70.756 16.574 67.016 28.685C65.038 35.089 65 37.693 65 168.55V301.888L67.342 304.611C70.555 308.346 75.445 308.346 78.658 304.611L81 301.888V191.944V82H256H431V191.865C431 301.499 431.004 301.736 433.073 304.365C436.009 308.099 441.999 308.087 444.945 304.343L447.035 301.686L446.767 166.593L446.5 31.5L444.264 26C439.77 14.943 429.514 5.47501 418.271 2.00201C411.901 0.0350088 409.096 0.00100888 255.645 0.0560089C103.604 0.111009 99.338 0.164009 93.338 2.06501ZM414.252 17.427C419.783 19.401 424.596 23.457 427.728 28.784C430.4 33.331 430.512 34.084 430.836 49.75L431.172 66H256H80.828L81.164 49.75C81.488 34.084 81.6 33.331 84.272 28.784C87.404 23.457 92.217 19.401 97.748 17.427C103.309 15.442 408.691 15.442 414.252 17.427ZM110.328 33.394C108.104 35.307 107.545 36.633 107.545 40C107.545 49.715 120.062 52.583 124.553 43.897C129.129 35.048 117.978 26.814 110.328 33.394ZM137.712 33.012C131.113 38.203 135.022 49 143.5 49C147.23 49 149.735 47.413 151.553 43.897C154.648 37.912 150.333 31 143.5 31C141.723 31 139.119 31.905 137.712 33.012ZM165.75 32.08C164.787 32.641 163.299 34.455 162.443 36.111C159.411 41.974 163.894 49 170.667 49C178.76 49 182.752 38.624 176.672 33.394C173.726 30.861 168.851 30.274 165.75 32.08ZM307 35C304.122 37.878 304.411 42.392 307.635 44.927C310.218 46.959 311.219 47 358.68 47H407.091L409.545 44.545C412.544 41.547 412.649 39.095 409.927 35.635L407.855 33H358.427C310.333 33 308.946 33.054 307 35ZM20.803 45.354C11.276 48.011 3.48199 55.782 0.962987 65.136C0.327987 67.496 0.0689865 126.438 0.237987 230.651L0.499987 392.5L3.44899 397.824C6.60999 403.53 11.489 407.973 17.662 410.764C21.201 412.365 28.683 412.522 113.75 412.78L206 413.06V438.664C206 455.396 205.593 465.628 204.824 468.193C203.258 473.418 196.847 480.537 191.069 483.465C182.322 487.897 175.546 489.115 156.5 489.676C137.12 490.247 134.769 490.846 132.93 495.684C131.737 498.822 132.465 501.424 135.267 504.034C137.34 505.966 139.44 506 256 506C372.56 506 374.66 505.966 376.733 504.034C379.535 501.424 380.263 498.822 379.07 495.684C377.231 490.846 374.88 490.247 355.5 489.676C330.612 488.943 320.457 485.87 312.303 476.607C307.212 470.823 306 466.53 306 454.283C306 439.659 304.212 436 297.066 436C290.134 436 288.221 442.286 289.811 459.84C290.904 471.903 293.478 479.225 299.095 486.25L302.094 490H256H209.906L212.905 486.25C221.122 475.974 222.927 466.389 222.973 432.771L223 413.042L356.75 412.771C481.229 412.519 490.766 412.38 494.338 410.764C500.511 407.973 505.39 403.53 508.551 397.824L511.5 392.5V228.5V64.5L509.298 60.384C503.462 49.475 495.972 45.032 482.079 44.24C477.194 43.962 472.016 44.03 470.573 44.392C464.141 46.007 461.753 53.54 466.314 57.826C468.303 59.694 469.786 60 476.847 60C486.67 60 491.191 61.633 493.988 66.19C496.004 69.475 496.017 70.4 495.76 190L495.5 310.5L492.784 315.649C491.291 318.481 488.366 322.209 486.284 323.933C478.421 330.448 494.386 330.048 253.456 329.761C42.105 329.509 34.378 329.435 31 327.638C26.114 325.039 21.211 320.215 18.662 315.5L16.5 311.5L16.234 190.421L15.969 69.342L18.269 65.921C21.218 61.535 25.413 60.127 35.75 60.056C45.596 59.989 48 58.439 48 52.155C48 45.97 45.586 44.545 34.647 44.272C29.425 44.142 23.484 44.606 20.803 45.354ZM109.45 106.401C105.43 108.159 101.225 113.265 100.49 117.279C100.166 119.051 100.035 137.375 100.2 158L100.5 195.5L102.901 198.867C104.222 200.718 107.147 203.071 109.401 204.095C113.336 205.882 119.195 205.957 256.038 205.978L398.576 206L403.034 203.75C405.957 202.275 408.269 200.123 409.748 197.5C411.996 193.514 412.003 193.359 411.752 154.322C411.509 116.518 411.428 115.047 409.438 112.384C408.304 110.866 406.134 108.696 404.615 107.562C401.859 105.504 401.572 105.5 257.177 105.284C138.424 105.106 111.954 105.307 109.45 106.401ZM397.5 155.5V191.5H256H114.5L114.237 156.506C114.092 137.259 114.191 120.945 114.457 120.252C114.843 119.247 143.385 119.044 256.22 119.247L397.5 119.5V155.5ZM109.379 228.424C107.663 229.178 104.963 231.493 103.379 233.568L100.5 237.341L100.21 269.313C99.921 301.134 99.93 301.296 102.134 303.643C104.635 306.305 108.652 306.705 111.559 304.582C113.388 303.245 113.529 301.383 114 272.332L114.5 241.5H168H221.5L222 271.647C222.462 299.488 222.646 301.954 224.405 303.897C226.835 306.58 231.39 306.61 234.039 303.961C236.02 301.98 236.07 300.995 235.789 269.532C235.513 238.619 235.406 237.017 233.438 234.383C232.304 232.865 230.134 230.696 228.616 229.562C225.912 227.543 224.683 227.495 169.177 227.276C122.978 227.094 111.923 227.306 109.379 228.424ZM285.5 228.412C281.822 230.046 278.486 233.568 277.067 237.315C276.395 239.088 276 251.58 276 271.065C276 300.667 276.086 302.086 278 304C280.614 306.614 285.178 306.565 287.595 303.897C289.354 301.954 289.538 299.488 290 271.647L290.5 241.5H344H397.5L397.765 271.452C398.023 300.579 398.09 301.467 400.19 303.702C403.161 306.865 407.303 306.701 409.967 303.315C412.029 300.693 412.072 299.897 411.789 268.986L411.5 237.341L408.618 233.564C403.48 226.831 405.114 226.996 343.782 227.039C299.947 227.07 287.879 227.354 285.5 228.412ZM31.576 344.486C36.972 345.854 62.354 345.997 258.576 345.763C474.294 345.506 479.606 345.455 484 343.57C486.475 342.509 490.188 340.591 492.25 339.308L496 336.975V362.34C496 387.099 495.946 387.785 493.715 391.102C492.41 393.044 489.945 395.012 487.965 395.694C482.942 397.424 29.058 397.424 24.035 395.694C22.055 395.012 19.59 393.044 18.285 391.102C16.055 387.786 16 387.097 16 362.393V337.083L20.75 340.014C23.363 341.627 28.234 343.639 31.576 344.486ZM235.114 364.75C233.955 365.712 232.727 367.944 232.386 369.71C231.867 372.396 232.262 373.416 234.806 375.96L237.846 379H256H274.154L277.077 376.077C278.685 374.469 280 372.422 280 371.527C280 369.056 277.278 364.321 275.455 363.621C274.565 363.28 265.598 363 255.529 363C239.563 363 236.952 363.224 235.114 364.75Z" fill="black"/>
</svg>
