<svg width="543" height="404" viewBox="0 0 543 404" fill="none" xmlns="http://www.w3.org/2000/svg">
<path d="M246.999 232.312C248.973 229.758 250.25 226.797 250.715 223.603C251.237 219.713 252.631 214.836 256.172 211.468C261.572 206.358 262.327 184.759 262.443 176.746C262.501 173.727 262.965 170.708 263.836 167.863C265.462 162.811 268.713 155.786 275.1 152.418C281.603 148.993 302.388 147.541 308.427 152.592C320.735 162.87 319.052 176.398 319.226 178.546C320.155 188.649 319.574 196.023 324.741 202.41C329.909 208.797 335.715 216.519 334.205 224.358C332.696 232.196 346.224 243.809 331.418 248.628C316.613 253.447 301.459 256.815 284.97 255.479C270.339 254.318 250.366 251.938 246.418 242.241C244.56 237.48 245.547 234.287 246.999 232.312Z" fill="#476D88"/>
<path d="M250.714 231.094C251.411 230.107 252.282 228.656 253.85 227.843C255.417 227.03 258.61 224.824 274.229 231.211C296.524 240.385 314.871 229.178 316.613 228.946C318.354 228.714 334.089 223.779 333.682 234.114C333.276 244.449 314.639 250.023 309.007 250.255C303.375 250.487 279.919 252.694 268.365 249.384C256.811 246.075 252.398 241.604 251.585 240.501C250.714 239.281 247.811 235.217 250.714 231.094Z" fill="#C1F4FF"/>
<path d="M252.224 306.112H253.327C255.301 306.17 256.985 304.544 256.985 302.57C256.985 302.512 256.985 302.512 256.985 302.454L256.869 297.228C256.869 296.648 256.462 296.125 255.94 295.893L255.591 295.777C254.836 295.487 254.43 294.616 254.778 293.861C254.895 293.57 255.069 293.338 255.301 293.222C255.533 293.048 255.824 292.932 256.056 292.816C258.494 291.887 263.662 288.925 277.248 287.532C284.679 286.777 288.453 286.545 290.427 286.487C291.24 286.429 291.879 285.79 291.879 284.919C291.879 284.803 291.879 284.687 291.821 284.571C291.647 283.874 290.95 283.409 290.195 283.526C285.434 284.106 268.481 286.138 262.907 287.474C259.655 288.287 256.52 289.622 253.617 291.364C252.514 292.061 251.759 293.222 251.643 294.558C251.585 295.022 251.353 295.428 251.005 295.661C250.424 296.067 249.843 296.357 249.205 296.59C248.276 296.88 248.276 300.073 248.508 302.744C248.566 304.544 250.192 306.054 252.224 306.112Z" fill="#455A64"/>
<path d="M334.495 306.111H333.682C331.534 306.17 329.734 304.428 329.734 302.279C329.734 302.221 329.734 302.163 329.734 302.105L329.85 297.17C329.85 296.589 330.199 296.067 330.779 295.834L331.128 295.718C331.883 295.428 332.289 294.557 331.941 293.802C331.824 293.57 331.65 293.338 331.418 293.163C331.186 292.989 330.896 292.873 330.663 292.757C328.225 291.828 323.115 288.867 309.645 287.473C302.33 286.719 298.556 286.486 296.64 286.428C295.827 286.37 295.188 285.731 295.188 284.861C295.188 284.744 295.188 284.628 295.247 284.512C295.421 283.815 296.117 283.351 296.872 283.467C301.633 284.048 318.413 286.08 323.87 287.415C327.122 288.228 330.199 289.564 333.044 291.305C334.147 292.002 334.902 293.163 335.018 294.499C335.076 294.963 335.308 295.37 335.656 295.602C336.179 295.95 336.76 296.299 337.398 296.531C338.327 296.821 338.269 300.073 338.095 302.744C338.037 304.544 336.469 306.053 334.495 306.111Z" fill="#455A64"/>
<path d="M291.183 257.86L291.067 301.813C291.067 302.394 290.602 302.858 290.021 302.858H289.789C289.209 302.858 288.744 303.323 288.744 303.903C288.744 303.903 288.744 303.903 288.744 303.962L288.918 311.394C288.976 313.193 290.428 314.703 292.286 314.703L294.608 314.761C296.524 314.819 298.15 313.252 298.15 311.336C298.15 311.277 298.15 311.219 298.15 311.103L297.86 303.903C297.86 303.323 297.395 302.916 296.815 302.916C296.234 302.916 295.769 302.452 295.769 301.871L295.886 256.815C295.886 256.234 295.421 255.77 294.84 255.77H292.17C291.589 255.77 291.125 256.234 291.125 256.815C291.125 256.815 291.125 256.815 291.125 256.873L291.183 257.86Z" fill="#455A64"/>
<path d="M291.24 289.738C291.24 289.738 255.708 304.022 250.134 308.783C244.56 313.544 243.631 316.505 243.863 317.783C243.863 317.899 244.096 318.015 244.328 318.073C245.721 318.479 246.65 319.757 246.592 321.15L246.476 328.64C246.476 329.802 245.489 330.731 244.386 330.731H240.38C239.219 330.731 238.29 329.802 238.231 328.64L238.115 321.208C238.057 319.641 239.219 318.247 240.786 318.015H240.844C240.844 318.015 242.238 312.383 244.386 310.467C246.534 308.551 250.308 304.254 265.171 297.751C280.035 291.248 291.182 287.184 291.182 287.184L291.24 289.738Z" fill="#455A64"/>
<path d="M295.711 289.212C295.711 289.677 296.001 290.141 296.408 290.315C301.285 292.406 329.618 304.657 334.495 309.012C339.779 313.773 340.65 316.734 340.417 318.011C340.359 318.302 339.604 318.418 338.85 318.476C338.211 318.534 337.747 319.056 337.747 319.695L337.863 327.65C337.863 329.508 339.43 331.017 341.288 331.017H342.275C344.133 331.017 345.643 329.508 345.701 327.65L345.817 319.753C345.817 319.173 345.411 318.65 344.83 318.592L343.959 318.476C343.495 318.418 343.146 318.069 343.03 317.605C342.624 316.037 341.462 312.263 339.837 310.754C337.805 308.837 334.205 304.541 320.154 298.038C309.355 293.102 300.704 289.561 297.279 288.167C296.698 287.935 296.001 288.167 295.769 288.748C295.769 288.922 295.769 289.038 295.711 289.212Z" fill="#455A64"/>
<path d="M101.035 322.947L101.616 221.918H114.97V323.528L101.035 322.947Z" fill="#455A64"/>
<path d="M409.335 220.117L409.916 324.107H421.528L421.76 220.582L409.335 220.117Z" fill="#455A64"/>
<path d="M60.3926 209.727V221.92L459.847 220.758V210.307L60.3926 209.727Z" fill="#455A64"/>
<path d="M60.3926 209.725L88.8421 201.016L427.333 201.596L459.847 210.306L60.3926 209.725Z" fill="#76929F"/>
<path d="M241.831 206.356L248.508 202.291L279.338 202.117L274.693 206.065L241.831 206.356Z" fill="#F8F8FF"/>
<path d="M88.2609 179.472C88.2609 179.472 83.2096 179.24 82.571 180.866C81.9323 182.492 83.7322 204.672 84.545 206.007C85.3579 207.342 93.3702 207.691 95.6345 207.691C95.6345 207.691 104.053 206.936 104.46 206.355C104.866 205.775 110.556 182.84 108.698 179.763C106.84 176.685 88.5512 179.53 88.5512 179.53" fill="#09385A"/>
<path d="M82.165 184.698C82.165 184.698 97.8413 185.917 99.6992 185.394C101.557 184.872 100.918 180.169 100.918 180.169L108.699 179.82C108.699 179.82 108.699 184.349 108.176 184.872C107.595 185.569 107.131 186.381 106.841 187.252C106.841 187.543 103.531 206.703 103.531 206.703C103.531 206.703 98.48 207.458 97.8413 207.4C97.0285 207.284 99.9315 191.491 99.9315 190.388C99.9315 189.285 99.9315 187.194 99.1186 187.194C98.3058 187.194 82.9779 187.659 82.8618 185.917C82.8037 185.51 82.5134 185.046 82.165 184.698Z" fill="#4A6F8A"/>
<path d="M88.3774 179.994C88.3774 179.994 84.0229 176.917 81.7005 176.627C79.3781 176.336 76.6493 176.046 74.3268 175.698C72.0044 175.349 69.0434 174.304 69.1014 172.911C69.1595 171.575 69.4498 170.878 70.7852 170.124C71.9464 169.369 73.2237 168.904 74.6171 168.73C75.6622 168.614 86.1131 171.343 90.4676 177.846L92.2094 179.994H88.3774Z" fill="#4A6F8A"/>
<path d="M73.2236 172.388C73.2236 172.388 77.2298 172.33 79.4361 173.027C81.1779 173.665 82.8036 174.42 84.4293 175.349L90.9901 179.936" fill="#09385A"/>
<path d="M73.2236 172.388C73.2236 172.388 77.2298 172.33 79.4361 173.027C81.1779 173.665 82.8036 174.42 84.4293 175.349L90.9901 179.936" stroke="white" stroke-width="0.223259" stroke-miterlimit="10" stroke-linecap="round"/>
<path d="M92.964 179.822C92.964 179.822 87.8547 172.912 85.8807 170.996C83.9066 169.022 81.5842 166.816 79.6682 164.784C77.7522 162.751 75.3718 159.848 76.3588 158.629C77.3458 157.41 78.1006 156.597 79.9585 156.887C81.41 157.061 82.8035 157.584 84.0227 158.397C85.0678 159.035 94.2994 167.861 95.6348 177.964L96.9702 179.996L92.964 179.822Z" fill="#4A6F8A"/>
<path d="M81.0039 160.949C81.0039 160.949 84.952 163.33 86.5196 165.594C87.9711 167.743 90.2935 171.517 90.2935 171.517L92.9063 178.774" stroke="white" stroke-width="0.223259" stroke-miterlimit="10" stroke-linecap="round"/>
<path d="M95.5184 180.112C95.5184 180.112 89.5963 167.222 88.4931 164.667C87.39 162.112 82.8613 158.28 81.8162 155.667C80.8292 153.055 80.1905 151.197 81.2356 149.745C82.2807 148.293 85.0095 147.132 86.7513 148.003C88.377 148.816 90.5252 151.255 91.4542 152.474C92.1509 153.461 97.028 170.938 96.6216 175.002L97.5505 180.17L95.5184 180.112Z" fill="#31C2E1"/>
<path d="M85.0098 152.82C85.0098 152.82 88.4353 157.233 89.4804 159.788C90.6416 162.691 91.8028 168.207 91.6286 167.336L95.1703 179.297" stroke="white" stroke-width="0.223259" stroke-miterlimit="10" stroke-linecap="round"/>
<path d="M92.2672 180.053C92.2672 180.053 87.0418 174.072 84.4872 172.911C81.9325 171.75 79.0295 170.472 76.5329 169.195C74.0363 167.918 71.0753 165.827 71.5397 164.55C72.0623 163.273 72.5848 162.75 74.3847 162.518C75.9523 162.228 77.578 162.286 79.1456 162.634C80.3068 162.924 91.2221 169.543 94.009 177.382L95.2864 180.111L92.2672 180.053Z" fill="#31C2E1"/>
<path d="M76.3594 165.711C76.3594 165.711 80.8881 167.221 83.1524 168.73C84.8362 170.008 86.4619 171.343 88.0295 172.853L93.0227 180.169" stroke="white" stroke-width="0.223259" stroke-miterlimit="10" stroke-linecap="round"/>
<path d="M105.911 180.168C105.911 180.168 110.672 177.265 113.169 176.974C115.665 176.684 118.568 176.452 121.123 176.103C123.678 175.755 126.813 174.768 126.755 173.49C126.697 172.213 126.407 171.574 124.897 170.82C123.62 170.123 122.226 169.658 120.775 169.484C119.672 169.368 108.292 171.981 103.589 178.194L101.673 180.226L105.911 180.168Z" fill="#4A6F8A"/>
<path d="M122.284 172.97C122.284 172.97 117.93 172.912 115.549 173.609C113.692 174.189 111.892 174.944 110.15 175.815L103.821 180.054" fill="#09385A"/>
<path d="M122.284 172.97C122.284 172.97 117.93 172.912 115.549 173.609C113.692 174.189 111.892 174.944 110.15 175.815L103.821 180.054" stroke="white" stroke-width="0.223259" stroke-miterlimit="10" stroke-linecap="round"/>
<path d="M100.918 180.052C100.918 180.052 106.434 173.433 108.582 171.575C110.73 169.717 113.227 167.569 115.317 165.653C117.407 163.737 119.962 160.95 118.917 159.788C117.872 158.627 117.059 157.872 115.027 158.104C113.459 158.221 112.008 158.743 110.672 159.556C109.569 160.195 99.5827 168.614 98.1312 178.252L96.6797 180.226L100.918 180.052Z" fill="#4A6F8A"/>
<path d="M113.865 161.996C113.865 161.996 109.569 164.261 107.885 166.409C106.318 168.441 103.763 172.099 103.763 172.099L100.918 179.008" stroke="white" stroke-width="0.223259" stroke-miterlimit="10" stroke-linecap="round"/>
<path d="M98.1892 180.341C98.1892 180.341 104.634 168.031 105.795 165.593C106.956 163.154 111.891 159.496 112.995 156.999C114.098 154.503 114.794 152.703 113.633 151.367C112.472 150.032 109.511 148.871 107.653 149.684C105.853 150.438 103.589 152.761 102.544 153.98C101.731 154.909 96.5054 171.631 96.9118 175.521L95.9248 180.457L98.1892 180.341Z" fill="#E9EDFC"/>
<path d="M97.5507 180.168C97.5507 180.168 98.0732 168.149 99.2925 164.259C100.105 161.646 100.918 157.292 102.021 154.853C103.124 152.414 101.441 149.163 100.338 147.769C99.2344 146.376 96.2734 146.666 94.3574 147.479C92.5575 148.234 91.5705 150.731 91.3382 152.066C91.1641 153.285 95.4025 167.743 94.938 173.085L95.2863 180.285L97.5507 180.168Z" fill="#4A6F8A"/>
<path d="M109.511 154.273C109.511 154.273 105.853 158.454 104.692 160.951C103.415 163.738 102.196 169.021 102.37 168.15L98.1895 179.879" stroke="white" stroke-width="0.223259" stroke-miterlimit="10" stroke-linecap="round"/>
<path d="M101.731 180.287C101.731 180.287 107.421 174.597 110.15 173.493C112.878 172.39 116.072 171.171 118.743 169.952C121.413 168.732 124.665 166.758 124.142 165.539C123.62 164.32 123.039 163.855 121.065 163.623C119.381 163.391 117.639 163.391 115.956 163.739C114.678 164.029 102.892 170.3 99.8729 177.79L98.4795 180.345L101.731 180.287Z" fill="#31C2E1"/>
<path d="M118.859 166.523C118.859 166.523 113.982 167.975 111.544 169.369C109.744 170.53 107.944 171.865 106.318 173.259L100.803 179.413" stroke="white" stroke-width="0.223259" stroke-miterlimit="10" stroke-linecap="round"/>
<path d="M96.3896 150.035C96.3896 150.035 97.3767 160.312 96.7961 163.099C96.5638 164.261 96.6799 171.518 96.6799 171.518L96.5058 179.589" stroke="white" stroke-width="0.223259" stroke-miterlimit="10" stroke-linecap="round"/>
<path d="M192.167 195.057V145.949H254.975V195.057H192.167Z" fill="#09385A" stroke="#31C2E1"/>
<path d="M222.207 174.711C224.323 174.711 226.039 172.995 226.039 170.879C226.039 168.763 224.323 167.047 222.207 167.047C220.091 167.047 218.375 168.763 218.375 170.879C218.375 172.995 220.091 174.711 222.207 174.711Z" fill="#F5F5FC"/>
<path d="M218.2 194.34C218.2 194.34 219.826 198.578 217.968 199.74C216.11 200.901 204.846 205.372 204.846 205.372C204.846 205.372 204.034 206.707 206.008 207.114C207.808 207.52 230.683 207.172 235.618 207.114C236.315 207.172 236.954 206.765 237.244 206.127C237.36 205.72 237.186 205.256 236.315 204.965C234.806 204.443 229.232 201.365 226.793 200.088C225.922 199.624 225.69 198.753 225.516 197.882C225.226 196.546 225.051 195.095 225.98 194.804C227.432 194.34 218.258 194.92 218.258 194.92" fill="#09385A"/>
<path d="M169.836 140.283L335.772 140.051L335.482 112.297L160.431 113.632L160.314 140.283H169.836Z" fill="#09385A"/>
<path opacity="0.3" d="M253.011 136.242V117.438L330.804 117.67V135.953L253.011 136.242Z" fill="#657580" stroke="#033153" stroke-width="0.297679"/>
<path opacity="0.3" d="M169.521 136.242V117.438L247.314 117.67V135.953L169.521 136.242Z" fill="#657580" stroke="#033153" stroke-width="0.297679"/>
<path d="M169.372 121.875H173.494V136.449L169.372 136.391V121.875Z" fill="url(#paint0_linear_245_1460)"/>
<path d="M173.552 124.43H176.281L176.397 136.391L173.494 136.449L173.552 124.43Z" fill="#657580"/>
<path d="M242.412 121.758H244.793V136.332L242.412 136.273V121.758Z" fill="#96D2DF"/>
<path d="M244.85 124.312H247.579L247.695 136.273L244.792 136.331L244.85 124.312Z" fill="#E8EDEB"/>
<path d="M176.513 122.57H179.242L179.358 136.389L176.455 136.447L176.513 122.57Z" fill="#657580"/>
<path d="M179.184 125.881L180.577 124.777L187.718 135.112L186.151 136.39L179.184 125.881Z" fill="url(#paint1_linear_245_1460)"/>
<path d="M212.395 136.334H229.522L229.406 134.359L212.395 134.476V136.334Z" fill="#09385A"/>
<path d="M215.239 134.416H232.367L232.309 132.5L215.239 132.616V134.416Z" fill="url(#paint2_linear_245_1460)"/>
<path d="M255.592 121.18H257.972L258.03 136.508L255.592 136.45V121.18Z" fill="#96D2DF"/>
<path d="M258.029 124.43H260.758L260.874 136.391L258.029 136.449V124.43Z" fill="#E8EDEB"/>
<path d="M325.729 121.703H328.109L328.167 136.219H325.729V121.703Z" fill="#96D2DF"/>
<path d="M328.108 124.023H330.953L331.069 136.1L328.166 136.159L328.108 124.023Z" fill="#E8EDEB"/>
<path d="M322.999 125.242H325.728L325.844 136.216L322.941 136.274L322.999 125.242Z" fill="#E8EDEB"/>
<path d="M252.805 122.57H255.592L255.65 136.447L252.805 136.505V122.57Z" fill="#E8EDEB"/>
<path d="M281.254 125.939L282.647 124.777L289.731 135.171L288.221 136.39L281.254 125.939Z" fill="#96D2DF"/>
<path d="M269.642 136.334H286.769L286.653 134.418L269.642 134.534V136.334Z" fill="#09385A"/>
<path d="M268.713 134.533H285.783L285.725 132.617L268.713 132.733V134.533Z" fill="#E8EDEB"/>
<path d="M335.657 110.843L335.482 88.6055H491.084L491.432 141.791L335.773 143.068L335.657 112.876" fill="#09385A"/>
<path d="M224.819 97.9536C224.819 97.9536 223.31 97.431 223.193 97.0826C223.077 96.7343 222.555 94.5859 223.542 94.5859H232.019C232.019 94.5859 233.412 96.8504 231.67 97.3149C229.928 97.7794 231.438 98.7084 231.902 98.7084C232.367 98.7084 233.528 98.7084 233.76 99.3471C233.993 99.9858 233.993 113.05 233.993 113.05H221.394V100.334C221.394 99.5793 221.974 98.9987 222.729 98.9406H222.787C224.18 98.9406 225.167 98.5923 224.819 97.9536Z" fill="#31C2E1"/>
<path d="M232.135 103.004H223.31V108.462H232.135V103.004Z" fill="white"/>
<path d="M239.219 97.9536C239.219 97.9536 237.709 97.431 237.593 97.0826C237.477 96.7343 236.954 94.5859 237.941 94.5859H246.418C246.418 94.5859 247.811 96.8504 246.07 97.3149C244.328 97.7794 245.837 98.7084 246.302 98.7084C246.766 98.7084 247.928 98.7084 248.16 99.3471C248.392 99.9858 248.392 113.05 248.392 113.05H235.793V100.334C235.793 99.5793 236.374 98.9987 237.128 98.9406H237.186C238.638 98.9406 239.625 98.5923 239.219 97.9536Z" fill="#09385A"/>
<path d="M246.534 103.004H237.709V108.462H246.534V103.004Z" fill="white"/>
<path d="M254.082 97.7817C254.082 97.7817 252.572 97.2591 252.456 96.9107C252.34 96.5624 251.817 94.4141 252.804 94.4141H261.281C261.281 94.4141 262.675 96.6785 260.933 97.143C259.191 97.6075 260.701 98.5365 261.165 98.5365C261.63 98.5365 262.791 98.5365 263.023 99.1752C263.255 99.8139 263.255 112.878 263.255 112.878H250.656V100.162C250.656 99.4074 251.237 98.8268 251.992 98.7688H252.05C253.443 98.7688 254.488 98.4204 254.082 97.7817Z" fill="#31C2E1"/>
<path d="M261.397 102.832H252.572V108.29H261.397V102.832Z" fill="white"/>
<path opacity="0.3" d="M412.877 94.0039H340.998V137.899H412.877V94.0039Z" fill="#657580"/>
<path d="M420.598 120.247C422.33 120.247 423.733 118.844 423.733 117.112C423.733 115.38 422.33 113.977 420.598 113.977C418.867 113.977 417.463 115.38 417.463 117.112C417.463 118.844 418.867 120.247 420.598 120.247Z" fill="#BAC5F4"/>
<path d="M389.013 122.864C389.013 122.864 387.504 122.341 387.388 121.993C387.272 121.644 386.749 119.496 387.736 119.496H396.213C396.213 119.496 397.606 121.761 395.865 122.225C394.123 122.69 395.632 123.619 396.097 123.619C396.561 123.619 397.723 123.619 397.955 124.257C398.187 124.896 398.187 137.96 398.187 137.96H385.588V125.244C385.588 124.489 386.169 123.909 386.923 123.851H386.981C388.375 123.851 389.362 123.502 389.013 122.864Z" fill="#31C2E1"/>
<path d="M396.271 127.914H387.446V133.372H396.271V127.914Z" fill="#F5F5FC"/>
<path d="M48.2623 330.554L46.7528 330.496L39.0308 330.554C39.0308 330.554 37.347 338.451 36.4181 341.76C36.36 341.992 36.1858 342.515 36.0697 342.921C35.9536 343.502 35.8955 344.083 35.8955 344.663C36.0697 347.683 37.1728 350.179 39.8436 351.573C42.7466 353.082 45.011 354.418 48.1462 351.573C51.2815 348.728 51.6879 346.928 50.4686 341.992C49.3655 336.999 48.9591 330.728 48.2623 330.554Z" fill="#455A64"/>
<path d="M80.5443 340.426C75.2028 338.742 71.6611 331.542 71.6611 331.542L62.6037 331.02C62.6037 331.02 62.0812 338.335 61.8489 342.051C61.5006 346.987 62.3715 349.193 65.6228 348.961C69.9193 348.613 87.3373 350.18 90.1242 348.438C93.6659 346.058 85.4794 341.993 80.5443 340.426Z" fill="#455A64"/>
<path d="M26.0254 200.203V211.061L39.147 330.67H48.4366C48.4366 330.67 51.6299 248.627 51.6299 245.782C51.6299 242.937 52.4428 234.054 52.4428 234.054C52.4428 234.054 64.1129 267.73 64.3451 270.575C64.5774 273.362 62.4292 331.425 62.4292 331.425L71.7188 331.773C71.7188 331.773 79.8472 292.523 79.8472 288.807C79.8472 285.091 82.6341 265.814 82.1696 262.098C81.7632 258.382 74.854 200.552 74.854 200.552L60.6293 200.203H26.0254Z" fill="url(#paint3_linear_245_1460)"/>
<path d="M86.2345 187.661L86.1183 187.487C86.1183 187.603 86.1764 187.719 86.2345 187.661ZM58.9461 177.152L53.7788 179.3L53.4885 186.5L59.2365 188.764C59.2365 188.706 65.5069 188.532 65.5069 188.474C65.565 188.184 68.0035 188.242 69.1067 188.997L88.5569 182.32L89.2536 177.675C89.2536 177.675 90.7051 183.539 84.2023 171.752L58.9461 177.152ZM82.1702 153.462L81.7638 151.14L80.7768 150.966L82.1702 153.462ZM46.231 90.987C43.8505 91.974 42.6893 95.4578 42.6893 95.4578C42.6893 95.4578 41.5281 94.7611 41.5281 96.7352C41.5281 98.7093 42.5151 103.18 43.2118 104.341C44.4311 106.257 45.5342 108.232 46.5793 110.322C47.5083 112.412 47.218 116.593 46.231 117.231C45.2439 117.87 27.5936 133.663 27.5936 133.663L13.0205 178.371V180.171L15.2268 180.926L17.5492 182.9C17.7814 182.958 20.6845 184.526 21.0909 184.816C23.4133 185.977 25.8518 186.848 28.4065 187.429C30.0322 187.777 37.3477 187.603 37.3477 187.603L44.7214 187.429L43.4441 178.023L32.5287 177.907L17.6073 177.152L32.761 142.372L80.4865 150.908C72.0097 135.579 62.4878 118.334 61.6169 116.535C60.9202 115.025 61.675 111.483 62.0814 109.625C62.4298 107.941 63.3007 105.851 64.0554 105.27C64.8102 104.69 66.2617 101.903 66.2617 100.742C66.2617 99.5802 66.6101 94.8772 65.6231 95.8642C65.3328 96.1546 64.1716 94.3546 63.7651 92.6127C63.1265 90.058 61.3266 88.258 59.2945 86.5742C59.2945 86.5742 48.7856 90.058 46.4051 91.045" fill="url(#paint4_linear_245_1460)"/>
<path d="M27.9997 124.082C25.6773 125.65 23.5291 127.74 22.7743 130.469C22.0195 133.198 16.4457 154.391 15.691 157.061C13.8911 163.622 12.7879 165.539 10.6397 173.203C8.02701 182.667 14.0653 184.119 20.2197 185.512C26.6643 186.964 26.7224 187.602 28.232 187.602C28.4642 187.602 36.1282 189.17 36.3604 184.815C36.5346 182.086 36.012 177.79 35.025 177.906C32.7026 178.254 25.0967 176.222 24.6903 175.99C24.1678 175.641 26.316 169.719 27.5933 166.061C28.5223 163.332 32.0059 152.068 32.7607 149.92C33.1671 148.758 30.7866 160.894 29.3351 172.738C29.2771 173.203 28.6965 177.79 28.8706 177.79C30.6124 177.79 35.3734 177.848 36.8249 178.022C43.5018 178.777 44.7791 181.97 44.3727 184.525C43.6179 188.996 27.3611 186.906 27.4772 187.486C27.4772 187.486 24.6903 200.086 26.2579 200.899C27.5933 201.595 45.8242 209.202 49.7142 210.653C50.1207 210.827 50.6432 210.595 50.7593 210.131C50.7593 210.131 50.7593 210.131 50.7593 210.073L53.2559 202.989C53.314 202.931 53.372 202.873 53.4882 202.931C53.5462 202.931 53.5462 202.989 53.5462 202.989L55.8686 210.769C55.9267 211.002 56.1009 211.118 56.217 211.234H57.2621L77.5251 206.879C77.5251 206.879 77.467 198.867 77.409 188.647C77.409 187.602 77.2348 183.828 76.48 184.525C75.7252 185.222 58.8297 187.428 56.9718 186.673C53.0817 185.048 54.0688 180.925 55.4622 179.241C57.0298 177.325 77.0025 176.338 77.0606 174.887C77.409 168.616 76.8864 152.184 76.5381 154.158C76.0155 157.236 64.3454 174.132 64.3454 177.093C64.3454 180.054 64.1132 187.428 64.1132 187.428L83.2731 185.919C83.2731 185.919 89.7177 183.712 90.2983 179.996C90.879 176.28 90.1822 174.654 89.95 169.08C89.7758 165.597 84.8407 144.52 83.4472 138.539C83.215 137.61 83.0989 136.739 83.0408 135.81C82.8666 133.314 81.8796 127.566 76.5381 125.069C69.9192 121.934 64.8099 119.437 63.4745 119.437C62.2553 119.437 58.8297 126.869 57.0879 128.959C56.3331 129.888 56.4492 130.353 55.4622 131.746C54.9397 132.501 53.9526 132.617 53.1979 132.094C53.0237 131.978 52.9076 131.804 52.7914 131.63C52.2108 130.817 51.7464 129.888 51.2819 129.017C50.5271 127.449 44.4308 118.508 44.4308 118.508C44.4308 118.508 30.3221 122.456 27.9997 124.082Z" fill="url(#paint5_linear_245_1460)"/>
<path d="M59.1781 86.6324C59.1781 86.6324 46.2307 91.4516 45.3017 92.1483C44.3727 92.8451 42.689 95.516 42.689 95.516C42.689 95.516 41.76 94.9934 41.5858 96.3869C41.5858 96.3869 40.2505 93.6579 40.0763 92.1483C39.9021 90.6387 40.0763 86.6904 42.5729 84.0776C45.0694 81.4648 50.0626 78.0391 53.1398 78.5036C56.217 78.9681 57.5524 79.3165 59.4684 81.2906C61.3844 83.2067 63.0681 83.7873 63.6487 84.0776C64.2293 84.3679 66.4356 85.9937 66.842 89.0129C67.1904 92.0322 66.2034 98.0707 66.2034 98.0707C66.2034 98.0707 66.4937 95.7482 65.5647 96.445C64.926 96.9675 63.939 94.8192 63.6487 93.5418C63.2423 92.2064 59.9329 86.9227 59.1781 86.6324Z" fill="url(#paint6_linear_245_1460)"/>
<g opacity="0.07">
<mask id="mask0_245_1460" style="mask-type:luminance" maskUnits="userSpaceOnUse" x="55" y="110" width="9" height="15">
<path d="M63.8224 110.613H55.2295V124.664H63.8224V110.613Z" fill="white"/>
</mask>
<g mask="url(#mask0_245_1460)">
<path d="M63.5318 119.613C63.4737 119.381 64.9252 120.484 63.1834 119.265C60.7449 117.465 61.9061 110.207 61.9061 110.207C60.9771 112.123 59.4095 113.575 57.4935 114.329C54.4163 115.491 53.4293 114.62 58.2483 117.407C62.9512 120.136 60.5126 121.065 60.1643 124.665" fill="black"/>
</g>
</g>
<g opacity="0.07">
<mask id="mask1_245_1460" style="mask-type:luminance" maskUnits="userSpaceOnUse" x="59" y="136" width="25" height="43">
<path d="M83.2148 136.625H59.2939V178.14H83.2148V136.625Z" fill="white"/>
</mask>
<g mask="url(#mask1_245_1460)">
<path d="M72.9966 145.277L79.4413 169.663C79.4413 169.663 79.3832 174.018 78.1059 174.657C76.8286 175.296 72.7644 175.702 71.8354 176.166C70.9064 176.631 61.0362 178.663 63.5908 175.179C64.1714 174.425 77.5253 169.722 71.5451 164.844C65.5649 159.967 66.61 153.116 69.513 148.413C72.416 143.709 71.7773 139.703 71.7773 139.703L72.9966 145.277Z" fill="black"/>
</g>
</g>
<g opacity="0.07">
<mask id="mask2_245_1460" style="mask-type:luminance" maskUnits="userSpaceOnUse" x="23" y="200" width="21" height="149">
<path d="M43.5014 200.438H23.9932V348.846H43.5014V200.438Z" fill="white"/>
</mask>
<g mask="url(#mask2_245_1460)">
<path d="M45.7658 209.495C45.7658 209.495 40.192 239.049 43.095 250.836C47.4495 268.719 41.179 292.931 41.179 304.544C41.179 312.092 44.1401 332.937 44.3723 341.472C44.4304 344.026 46.2883 348.962 44.8949 350.123C44.3143 350.646 40.7726 349.484 38.8566 348.555C37.8115 348.033 37.2309 346.988 37.347 345.943L38.5083 340.891L40.1339 334.214L28.58 226.159C28.58 226.159 24.8641 202.121 26.9543 202.005C29.0444 201.889 45.8238 209.495 45.7658 209.495Z" fill="black"/>
</g>
</g>
<path d="M40.4827 169.777L62.3133 172.506C62.7778 172.622 63.0681 173.029 63.01 173.551L62.3714 193.293C62.3133 193.931 61.9649 194.744 61.3843 194.57L39.6698 190.39C39.2634 190.273 38.9731 189.867 38.9731 189.461L38.915 187.312L41.2955 186.674C41.9342 186.499 42.5148 186.151 42.9793 185.803C43.0954 185.745 43.2115 185.628 43.2696 185.512L43.7921 184.758C43.9663 184.525 44.0243 184.235 43.9663 184.003C43.9082 183.538 43.734 182.958 43.676 182.609C43.6179 182.493 43.6179 182.377 43.5599 182.261L43.0373 181.1C42.8051 180.577 42.3987 180.171 41.8181 179.88L41.4697 179.706L39.1473 178.429L39.3795 170.706C39.3795 170.184 39.844 169.777 40.3665 169.777C40.4246 169.777 40.4246 169.777 40.4827 169.777Z" fill="white"/>
<path d="M306.801 205.836L355.281 203.804L362.481 170.012L313.246 170.418L305.872 205.778" fill="url(#paint7_linear_245_1460)"/>
<path d="M334.786 192.075C336.422 192.075 337.747 190.672 337.747 188.94C337.747 187.208 336.422 185.805 334.786 185.805C333.151 185.805 331.825 187.208 331.825 188.94C331.825 190.672 333.151 192.075 334.786 192.075Z" fill="#09385A"/>
<path d="M306.336 203.339L279.861 203.281C279.687 203.281 279.571 203.397 279.513 203.572L279.164 205.139C279.106 205.313 279.222 205.488 279.455 205.546C279.513 205.546 279.513 205.546 279.513 205.546L305.872 205.778C306.046 205.778 306.162 205.662 306.22 205.488L306.685 203.688C306.743 203.513 306.627 203.339 306.453 203.281C306.394 203.339 306.394 203.339 306.336 203.339Z" fill="url(#paint8_linear_245_1460)"/>
<path d="M312.432 169.489L361.668 169.141C361.726 169.141 361.784 169.199 361.842 169.257L362.48 170.012L313.419 170.418C313.303 170.418 313.245 170.476 313.187 170.592L306.801 205.604C306.801 205.72 306.684 205.778 306.568 205.778H306.162C306.046 205.778 305.93 205.662 305.93 205.546C305.93 205.546 305.93 205.546 305.93 205.488L312.026 169.837C312.026 169.663 312.2 169.489 312.432 169.489Z" fill="url(#paint9_linear_245_1460)"/>
<path d="M398.072 187.953L394.704 207.056C394.704 207.056 399.059 206.301 401.149 207.056L398.072 187.953Z" fill="url(#paint10_linear_245_1460)"/>
<path d="M398.071 187.953L401.149 207.056C401.149 207.056 414.096 205.43 424.024 206.94L420.483 188.011L398.071 187.953Z" fill="#FCFCFC"/>
<path d="M410.961 197.65L407.825 197.708L407.419 195.211H410.496L410.961 197.65Z" fill="#58CAEA"/>
<path d="M415.954 197.536L412.819 197.594L412.354 195.039H415.432L415.954 197.536Z" fill="#58CAEA"/>
<path d="M420.657 197.532L417.522 197.59L417.058 195.094H420.135L420.657 197.532Z" fill="#58CAEA"/>
<path d="M421.238 200.958L418.161 201.016L417.696 198.461H420.715L421.238 200.958Z" fill="#58CAEA"/>
<path d="M411.657 200.903L408.522 200.961L408.058 198.464L411.135 198.406L411.657 200.903Z" fill="#58CAEA"/>
<path d="M406.839 201.075L403.704 201.133L403.239 198.578H406.316L406.839 201.075Z" fill="#58CAEA"/>
<path d="M407.594 204.56L404.459 204.618L403.994 202.121H407.071L407.594 204.56Z" fill="#58CAEA"/>
<path d="M412.412 204.501L409.277 204.559L408.812 202.062L411.89 202.004L412.412 204.501Z" fill="#58CAEA"/>
<path d="M417.348 204.501L414.213 204.559L413.748 202.004H416.825L417.348 204.501Z" fill="#58CAEA"/>
<path d="M416.593 200.903L413.458 200.961L412.993 198.464L416.07 198.406L416.593 200.903Z" fill="url(#paint11_linear_245_1460)"/>
<path d="M398.071 187.953L398.942 193.411L421.528 193.295L420.483 188.011L398.071 187.953Z" fill="url(#paint12_linear_245_1460)"/>
<path d="M404.226 186.734L405.967 186.676L406.142 189.114H404.458L404.226 186.734Z" fill="url(#paint13_linear_245_1460)"/>
<path d="M414.967 186.851L416.418 186.793L416.592 189.057H415.141L414.967 186.851Z" fill="url(#paint14_linear_245_1460)"/>
<path d="M305.64 106.719H315.917C316.033 106.719 316.091 106.777 316.091 106.893C316.091 107.009 316.033 107.067 315.917 107.067H305.64C305.524 107.067 305.466 107.009 305.466 106.893C305.466 106.835 305.524 106.719 305.64 106.719Z" fill="#F4F4F4"/>
<path d="M305.64 107.359H315.917C316.033 107.359 316.091 107.417 316.091 107.534C316.091 107.65 316.033 107.708 315.917 107.708H305.64C305.524 107.708 305.466 107.65 305.466 107.534C305.466 107.417 305.524 107.359 305.64 107.359Z" fill="#F4F4F4"/>
<path d="M305.64 107.996H315.917C316.033 107.996 316.091 108.054 316.091 108.17C316.091 108.286 316.033 108.344 315.917 108.344H305.64C305.524 108.344 305.466 108.286 305.466 108.17C305.466 108.054 305.524 107.996 305.64 107.996Z" fill="#F4F4F4"/>
<path d="M307.962 109.969H317.31C317.426 109.969 317.484 110.027 317.484 110.143C317.484 110.259 317.426 110.317 317.31 110.317H307.962C307.846 110.317 307.788 110.259 307.788 110.143C307.788 110.027 307.904 109.969 307.962 109.969Z" fill="#F4F4F4"/>
<path d="M307.962 110.609H317.31C317.426 110.609 317.484 110.667 317.484 110.784C317.484 110.9 317.426 110.958 317.31 110.958H307.962C307.846 110.958 307.788 110.9 307.788 110.784C307.788 110.667 307.904 110.609 307.962 110.609Z" fill="#F4F4F4"/>
<path d="M307.962 111.191H317.31C317.426 111.191 317.484 111.249 317.484 111.366C317.484 111.482 317.426 111.54 317.31 111.54H307.962C307.846 111.54 307.788 111.482 307.788 111.366C307.788 111.308 307.904 111.191 307.962 111.191Z" fill="#F4F4F4"/>
<path d="M291.88 106.081C291.88 106.081 290.486 106.198 290.486 107.591C290.486 108.985 291.938 109.043 291.938 109.043L316.323 109.101V108.694H305.408C305.408 108.694 305.059 108.752 305.118 108.23V106.778C305.118 106.604 305.234 106.488 305.408 106.43C305.872 106.43 316.091 106.546 316.091 106.546V106.023L291.88 106.081Z" fill="url(#paint15_linear_245_1460)"/>
<path d="M292.866 109.042C292.866 109.042 291.356 109.217 291.356 110.726C291.356 112.062 292.402 112.352 292.692 112.41C292.75 112.41 292.808 112.41 292.808 112.41H317.658V111.888H308.02C308.02 111.888 307.381 111.888 307.497 111.249V109.971C307.497 109.971 307.439 109.507 307.962 109.507C308.426 109.507 317.542 109.623 317.542 109.623V108.984L292.866 109.042Z" fill="url(#paint16_linear_245_1460)"/>
<path d="M306.917 106.719H307.73C307.962 106.893 308.136 107.125 308.194 107.416C308.31 107.88 308.194 108.054 308.485 108.577C308.659 108.925 308.833 109.099 308.949 109.332C308.949 109.39 309.007 109.68 309.007 109.738L309.065 110.551L308.717 110.319L308.368 110.667C308.368 110.667 308.369 109.564 308.252 109.332C308.136 109.099 307.556 108.345 307.614 107.822C307.788 107.299 307.556 107.067 306.917 106.719Z" fill="#F8246A"/>
<path d="M320.328 91.625H322.186C322.651 91.625 322.999 91.9734 322.999 92.4379V112.063C322.999 112.528 322.651 112.876 322.186 112.876H320.328C319.864 112.876 319.516 112.528 319.516 112.063V92.4379C319.516 91.9734 319.864 91.625 320.328 91.625Z" fill="url(#paint17_linear_245_1460)"/>
<path d="M281.196 91.4492H283.054C283.519 91.4492 283.867 91.7976 283.867 92.2621V111.887C283.867 112.352 283.519 112.7 283.054 112.7H281.196C280.732 112.7 280.383 112.352 280.383 111.887V92.2621C280.325 91.8557 280.732 91.4492 281.196 91.4492Z" fill="url(#paint18_linear_245_1460)"/>
<path d="M326.948 100.041L328.283 99.2863C328.69 99.0541 329.212 99.1702 329.386 99.5767L335.947 110.899C336.179 111.305 336.063 111.828 335.657 112.002L334.321 112.757C333.915 112.989 333.392 112.873 333.218 112.467L326.657 101.144C326.425 100.796 326.541 100.273 326.948 100.041Z" fill="url(#paint19_linear_245_1460)"/>
<path d="M323.813 94.6445H325.671C326.135 94.6445 326.484 94.9929 326.484 95.4574V112.063C326.484 112.528 326.135 112.876 325.671 112.876H323.813C323.348 112.876 323 112.528 323 112.063V95.4574C323 94.9929 323.348 94.6445 323.813 94.6445Z" fill="url(#paint20_linear_245_1460)"/>
<path d="M284.738 92.2031H286.596C287.06 92.2031 287.408 92.5515 287.408 93.016V111.886C287.408 112.351 287.06 112.699 286.596 112.699H284.738C284.273 112.699 283.925 112.351 283.925 111.886V93.016C283.925 92.6096 284.273 92.2031 284.738 92.2031Z" fill="url(#paint21_linear_245_1460)"/>
<path d="M464.16 349.888C464.16 349.888 467.818 330.089 448.6 319.463C429.382 308.838 428.511 308.954 424.737 307.793C422.531 307.038 420.325 308.605 422.821 311.799C425.318 314.992 423.924 315.805 428.976 317.199C434.027 318.592 434.782 324.747 437.336 326.257C439.833 327.766 442.039 328.173 449.761 331.54C456.786 334.559 462.709 343.095 462.709 346.114C462.709 349.133 469.56 350.12 469.56 350.12L464.16 349.888Z" fill="url(#paint22_linear_245_1460)"/>
<path d="M463.464 347.101C463.464 347.101 468.341 328.87 451.561 318.999C434.782 309.128 428.86 309.245 425.55 308.083C423.634 307.386 428.86 309.767 431.066 312.67C433.272 315.573 432.692 314.935 436.64 317.141C441.226 319.638 443.084 322.134 445.813 322.599C449.703 323.354 448.542 327.418 455.277 330.437C461.373 333.224 462.128 340.598 462.128 343.385C462.128 346.172 468.108 347.101 468.108 347.101H463.464Z" fill="url(#paint23_linear_245_1460)"/>
<path d="M480.417 344.43L482.333 342.63C483.262 341.818 484.365 341.179 485.585 340.83C491.507 339.263 510.202 333.398 517.924 319.289C517.982 319.173 517.924 318.999 517.808 318.941H517.75C517.692 318.941 517.692 318.883 517.634 318.883C515.079 318.709 501.783 318.476 484.017 333.631C483.727 333.863 483.378 334.211 483.146 334.502C482.682 335.14 481.985 336.185 481.636 336.766C481.172 337.579 482.101 338.972 480.882 340.134C479.662 341.295 476.934 344.372 476.934 344.372L479.14 345.998L480.417 344.43Z" fill="url(#paint24_linear_245_1460)"/>
<path d="M470.257 343.266C470.257 343.266 475.366 297.687 461.431 283.346C448.6 270.166 448.426 282.301 448.484 284.333C448.484 284.507 448.542 284.681 448.6 284.855C451.619 290.488 452.664 296.991 451.561 303.261C450.226 309.88 459.69 309.01 460.502 315.513C461.315 322.016 464.625 332.002 464.276 336.647C463.928 341.234 463.928 345.705 463.928 345.705L469.037 345.879L470.257 343.266Z" fill="url(#paint25_linear_245_1460)"/>
<path d="M470.198 343.442C470.256 343.326 470.256 343.21 470.314 343.152C470.605 340.191 474.901 297.224 461.489 283.347C448.774 270.225 448.6 282.128 448.658 284.276C448.716 284.509 448.832 284.799 448.948 284.973C449.877 286.366 454.057 292.289 457.831 291.65C468.108 289.792 459.051 302.218 464.624 308.837C469.095 314.062 467.585 332.12 467.295 336.765C467.063 339.378 466.656 341.932 466.018 344.487C465.902 345.126 466.308 345.765 466.947 345.881C467.005 345.881 467.005 345.881 467.063 345.881C467.179 345.881 467.237 345.939 467.295 345.939H468.224C468.805 345.997 469.269 345.707 469.559 345.184L470.198 343.442Z" fill="url(#paint26_linear_245_1460)"/>
<path d="M475.249 346.055C475.249 346.055 476.178 333.397 483.552 325.733C485.584 323.642 488.197 322.133 491.1 321.494C493.306 320.971 496.906 319.23 500.041 313.307C500.041 313.307 505.963 304.888 511.943 302.333C517.865 299.779 511.943 299.488 511.943 299.488C511.943 299.488 494.932 302.74 484.074 312.669C483.378 313.307 482.681 313.888 481.868 314.352C479.023 316.268 471.243 323.584 471.591 344.777L475.249 346.055Z" fill="url(#paint27_linear_245_1460)"/>
<path d="M489.997 345.067C489.997 345.067 490.23 343.557 488.197 343.557C486.398 343.615 456.439 343.383 456.439 343.383C456.439 343.383 455.045 343.383 455.161 344.428C455.277 345.473 459.806 370.44 460.212 371.021C460.387 371.311 460.735 371.601 461.083 371.659C461.664 371.833 482.682 371.717 482.682 371.717C483.204 371.659 483.553 371.253 483.611 370.73C483.553 370.788 490.055 345.357 489.997 345.067Z" fill="url(#paint28_linear_245_1460)"/>
<defs>
<linearGradient id="paint0_linear_245_1460" x1="170.902" y1="131.02" x2="172.679" y2="131.031" gradientUnits="userSpaceOnUse">
<stop stop-color="#31C2E1"/>
<stop offset="1" stop-color="#09385A"/>
</linearGradient>
<linearGradient id="paint1_linear_245_1460" x1="182.351" y1="132.064" x2="186.03" y2="132.124" gradientUnits="userSpaceOnUse">
<stop stop-color="#31C2E1"/>
<stop offset="1" stop-color="#09385A"/>
</linearGradient>
<linearGradient id="paint2_linear_245_1460" x1="223.803" y1="132.5" x2="223.803" y2="134.416" gradientUnits="userSpaceOnUse">
<stop offset="0.86" stop-color="#31C2E1"/>
<stop offset="1" stop-color="#09385A"/>
</linearGradient>
<linearGradient id="paint3_linear_245_1460" x1="26.0506" y1="265.945" x2="82.2589" y2="265.945" gradientUnits="userSpaceOnUse">
<stop stop-color="#09385A"/>
<stop offset="1" stop-color="#336284"/>
</linearGradient>
<linearGradient id="paint4_linear_245_1460" x1="13.0199" y1="137.751" x2="89.3228" y2="137.751" gradientUnits="userSpaceOnUse">
<stop offset="0.41" stop-color="#FFD9C0"/>
</linearGradient>
<linearGradient id="paint5_linear_245_1460" x1="9.99351" y1="164.989" x2="90.6459" y2="164.989" gradientUnits="userSpaceOnUse">
<stop stop-color="#31C2E1"/>
<stop offset="1" stop-color="#199AB6"/>
</linearGradient>
<linearGradient id="paint6_linear_245_1460" x1="40.0673" y1="88.2219" x2="66.916" y2="88.2219" gradientUnits="userSpaceOnUse">
<stop stop-color="#20616F"/>
<stop offset="1" stop-color="#0B2D36"/>
</linearGradient>
<linearGradient id="paint7_linear_245_1460" x1="305.889" y1="187.921" x2="362.483" y2="187.921" gradientUnits="userSpaceOnUse">
<stop stop-color="#7FE3F8"/>
<stop offset="1" stop-color="#31C2E1"/>
</linearGradient>
<linearGradient id="paint8_linear_245_1460" x1="279.169" y1="204.551" x2="306.705" y2="204.551" gradientUnits="userSpaceOnUse">
<stop stop-color="#8DE3F5"/>
<stop offset="1" stop-color="#357E8E"/>
</linearGradient>
<linearGradient id="paint9_linear_245_1460" x1="305.904" y1="187.48" x2="362.498" y2="187.48" gradientUnits="userSpaceOnUse">
<stop stop-color="#49A4B7"/>
<stop offset="1" stop-color="#09385A"/>
</linearGradient>
<linearGradient id="paint10_linear_245_1460" x1="394.702" y1="197.51" x2="401.149" y2="197.51" gradientUnits="userSpaceOnUse">
<stop stop-color="#31C2E1"/>
<stop offset="1" stop-color="#238AA0"/>
</linearGradient>
<linearGradient id="paint11_linear_245_1460" x1="413.015" y1="199.715" x2="416.544" y2="199.633" gradientUnits="userSpaceOnUse">
<stop stop-color="#31C2E1"/>
<stop offset="1" stop-color="#31C2E1"/>
</linearGradient>
<linearGradient id="paint12_linear_245_1460" x1="398.096" y1="190.671" x2="421.505" y2="190.671" gradientUnits="userSpaceOnUse">
<stop stop-color="#31C2E1"/>
<stop offset="1" stop-color="#58CAEA"/>
</linearGradient>
<linearGradient id="paint13_linear_245_1460" x1="404.249" y1="187.895" x2="406.152" y2="187.895" gradientUnits="userSpaceOnUse">
<stop stop-color="#09385A"/>
<stop offset="1" stop-color="#4C4CBF"/>
</linearGradient>
<linearGradient id="paint14_linear_245_1460" x1="414.946" y1="187.923" x2="416.59" y2="187.923" gradientUnits="userSpaceOnUse">
<stop stop-color="#09385A"/>
<stop offset="1" stop-color="#4C4CBF"/>
</linearGradient>
<linearGradient id="paint15_linear_245_1460" x1="290.463" y1="107.536" x2="316.276" y2="107.536" gradientUnits="userSpaceOnUse">
<stop stop-color="#31C2E1"/>
<stop offset="1" stop-color="#5CD4EE"/>
</linearGradient>
<linearGradient id="paint16_linear_245_1460" x1="291.371" y1="110.681" x2="317.748" y2="110.681" gradientUnits="userSpaceOnUse">
<stop stop-color="#31C2E1"/>
<stop offset="1" stop-color="#1994AE"/>
</linearGradient>
<linearGradient id="paint17_linear_245_1460" x1="315.873" y1="108.978" x2="330.268" y2="91.018" gradientUnits="userSpaceOnUse">
<stop stop-color="#31C2E1"/>
<stop offset="1" stop-color="#5CD4EE"/>
</linearGradient>
<linearGradient id="paint18_linear_245_1460" x1="276.707" y1="108.839" x2="291.101" y2="90.8787" gradientUnits="userSpaceOnUse">
<stop stop-color="#31C2E1"/>
<stop offset="1" stop-color="#5CD4EE"/>
</linearGradient>
<linearGradient id="paint19_linear_245_1460" x1="329.641" y1="112.429" x2="330.566" y2="95.3251" gradientUnits="userSpaceOnUse">
<stop stop-color="#31C2E1"/>
<stop offset="1" stop-color="#5CD4EE"/>
</linearGradient>
<linearGradient id="paint20_linear_245_1460" x1="320.066" y1="109.615" x2="332.585" y2="93.9954" gradientUnits="userSpaceOnUse">
<stop stop-color="#31C2E1"/>
<stop offset="1" stop-color="#09385A"/>
</linearGradient>
<linearGradient id="paint21_linear_245_1460" x1="280.439" y1="108.997" x2="294.365" y2="91.6225" gradientUnits="userSpaceOnUse">
<stop stop-color="#31C2E1"/>
<stop offset="1" stop-color="#167F95"/>
</linearGradient>
<linearGradient id="paint22_linear_245_1460" x1="421.7" y1="328.821" x2="469.533" y2="328.821" gradientUnits="userSpaceOnUse">
<stop stop-color="#31C2E1"/>
<stop offset="1" stop-color="#09385A"/>
</linearGradient>
<linearGradient id="paint23_linear_245_1460" x1="439.623" y1="313.714" x2="466.803" y2="347.036" gradientUnits="userSpaceOnUse">
<stop stop-color="#31C2E1"/>
<stop offset="1" stop-color="#09385A"/>
</linearGradient>
<linearGradient id="paint24_linear_245_1460" x1="470.919" y1="351.395" x2="508.286" y2="322.484" gradientUnits="userSpaceOnUse">
<stop stop-color="#09385A"/>
<stop offset="1" stop-color="#31C2E1"/>
</linearGradient>
<linearGradient id="paint25_linear_245_1460" x1="480.312" y1="336.709" x2="448.217" y2="296.08" gradientUnits="userSpaceOnUse">
<stop stop-color="#09385A"/>
<stop offset="1" stop-color="#31C2E1"/>
</linearGradient>
<linearGradient id="paint26_linear_245_1460" x1="448.625" y1="311.532" x2="479.307" y2="334.513" gradientUnits="userSpaceOnUse">
<stop stop-color="#5BD3ED"/>
<stop offset="1" stop-color="#09385A"/>
</linearGradient>
<linearGradient id="paint27_linear_245_1460" x1="469.27" y1="348.425" x2="493.732" y2="313.05" gradientUnits="userSpaceOnUse">
<stop stop-color="#09385A"/>
<stop offset="1" stop-color="#31C2E1"/>
</linearGradient>
<linearGradient id="paint28_linear_245_1460" x1="455.169" y1="357.567" x2="490.02" y2="357.567" gradientUnits="userSpaceOnUse">
<stop offset="0.000688093" stop-color="#09385A"/>
<stop offset="0.9992" stop-color="#2273AE"/>
</linearGradient>
</defs>
</svg>
