<svg width="496" height="496" viewBox="0 0 496 496" fill="none" stroke="currentColor" stroke-width="2" stroke-linecap="round" stroke-linejoin="round" xmlns="http://www.w3.org/2000/svg">
<path fill-rule="evenodd" clip-rule="evenodd" d="M58.189 1.529C39.999 5.478 22.908 18.439 14.1 34.963C10.169 42.339 7.923 51.085 3.369 76.746C-0.169 96.681 -0.323 98.373 0.877 104.182C1.58 107.588 3.291 112.615 4.679 115.354C7.701 121.317 15.63 129.947 20.492 132.566C23.86 134.38 25.061 136 23.037 136C22.507 136 19.202 138.686 15.693 141.969C4.569 152.375 0 163.945 0 181.71V192H55.02H110.041L108.045 195.912C102.969 205.862 98.507 221.136 97.21 233L96.5 239.5L75.781 239.77L55.061 240.04L53.078 236.154C46.502 223.263 33.263 217.456 19.544 221.444C8.523 224.648 0 236.229 0 248C0 259.771 8.523 271.352 19.544 274.556C33.263 278.544 46.502 272.737 53.078 259.846L55.061 255.96L75.781 256.23L96.5 256.5L97.21 263C99.269 281.84 106.799 301.169 118.342 317.242L123.901 324.984L119.424 328.403L114.946 331.822L109.348 328.451C98.028 321.634 92.7 320.5 72 320.5C56.546 320.5 52.594 320.808 48 322.372C29.229 328.762 16.624 341.379 10.409 360C9.188 363.656 8.56 368.518 8.536 374.5C8.504 382.583 8.793 384.029 11.379 388.695C13.137 391.867 18.093 397.437 24.106 403C30.78 409.173 34.586 413.537 35.914 416.538C36.991 418.974 38.989 422.437 40.353 424.233C43.562 428.46 43 432.759 39.131 433.579C20.79 437.464 6.269 451.353 1.531 469.542C0.636 472.977 0 479.697 0 485.71V496H72H144V485.71C144 470.634 140.747 460.199 133.033 450.527C126.783 442.691 115.398 435.843 104.869 433.586C101 432.756 100.439 428.459 103.647 424.233C105.011 422.437 107.009 418.974 108.086 416.538C109.414 413.537 113.22 409.173 119.894 403C125.907 397.437 130.863 391.867 132.621 388.695C135.207 384.029 135.496 382.583 135.464 374.5C135.424 364.596 133.698 357.973 128.89 349.265C127.301 346.386 126 343.875 126 343.685C126 343.495 128.066 341.855 130.591 340.042L135.182 336.745L137.841 338.868C161.239 357.543 183.318 366.304 210.5 367.699C222.425 368.311 234.56 367.07 245.986 364.07C252.587 362.337 253.185 362.32 253.765 363.846C254.111 364.756 258.08 374.71 262.586 385.966L270.778 406.431L264.065 412.646C256.649 419.512 251.958 427.225 249.531 436.542C240.618 470.761 273.239 503.382 307.458 494.469C333.068 487.798 348.985 461.56 342.508 436.693C336.635 414.146 316.284 399.077 293.155 400.151L285.634 400.5L276.817 378.531C271.968 366.448 268 356.509 268 356.444C268 356.38 271.951 353.989 276.78 351.13C290.572 342.966 307.024 327.951 314.04 317.123L315.581 314.746L319.873 316.935C323.114 318.589 324.007 319.539 323.516 320.813C321.026 327.272 320.028 335.947 320.015 351.25L320 368H408H496V351.16C496 331.907 494.368 323.227 488.775 312.723C484.581 304.848 474.153 294.42 466.279 290.226C462.898 288.426 455.284 285.689 449.36 284.144L438.588 281.334L437.351 276.484L436.114 271.633L442.061 265.276C447.636 259.316 451.725 252.79 453.513 247C453.937 245.625 457.396 241.165 461.199 237.088C469.75 227.922 476.095 215.495 478.576 203.052C480.93 191.253 480.146 175.008 476.782 165.88C470.233 148.107 458.323 136.609 440 130.372C435.17 128.728 431.272 128.5 408 128.5C384.728 128.5 380.83 128.728 376 130.372C366.79 133.507 359.053 138.12 352.99 144.089C342.026 154.884 337.056 166.607 336.259 183.552C335.251 204.965 341.416 222.74 354.843 237.133C358.623 241.185 362.063 245.625 362.487 247C364.275 252.79 368.364 259.316 373.939 265.276L379.886 271.633L378.649 276.484L377.412 281.334L366.554 284.166C353.667 287.527 345.078 292.058 337.415 299.54L331.856 304.967L327.928 302.963C325.768 301.861 324 300.805 324 300.617C324 300.429 325.274 297.176 326.831 293.388C337.791 266.726 338.733 236.911 329.488 209.369C322.401 188.258 307.233 167.05 289.515 153.479C285.382 150.313 282 147.448 282 147.111C282 146.775 288.703 134.575 296.896 120C306.594 102.746 312.264 93.629 313.146 93.871C313.89 94.074 317.768 94.727 321.763 95.321C345.282 98.82 368.295 83.162 374.469 59.458C380.987 34.435 365.143 8.221 339.458 1.531C314.435 -4.987 288.221 10.857 281.531 36.542C277.538 51.872 281.948 68.72 293.016 80.423L297.828 85.512L283.016 111.972C274.869 126.525 267.753 138.582 267.203 138.766C266.653 138.949 263.408 137.963 259.992 136.575C256.576 135.187 248.993 132.825 243.14 131.325C233.78 128.928 230.575 128.595 216.5 128.563C199.183 128.522 189.787 129.973 176.5 134.74C164.351 139.098 148.22 148.035 141.377 154.198C139.26 156.105 139.248 156.099 136.673 151.705C134.115 147.34 122.757 136 120.943 136C118.938 136 120.153 134.372 123.508 132.566C128.717 129.76 136.767 120.752 139.606 114.549C144.716 103.387 144.754 100.124 140.071 73.967C134.006 40.096 130.731 32.022 117.776 19.012C102.665 3.835 79.233 -3.04 58.189 1.529ZM83.54 17.53C99.929 21.739 112.236 32.59 118.088 47.99C121.017 55.698 128.211 95.728 127.525 100.505C126.763 105.818 121.852 114.249 117.652 117.452C114.911 119.543 103.311 125 101.608 125C101.37 125 100.872 123.202 100.501 121.004C99.91 117.507 100.213 116.519 102.929 113.09C104.636 110.935 107.244 106.546 108.726 103.336C111.119 98.152 111.465 96.031 111.823 84.348C112.515 61.774 110.057 58.048 86.79 46.395L72 38.987L57.21 46.395C33.943 58.048 31.485 61.774 32.177 84.348C32.535 96.031 32.881 98.152 35.274 103.336C36.756 106.546 39.364 110.935 41.071 113.09C43.787 116.519 44.09 117.507 43.499 121.004C43.128 123.202 42.63 125 42.392 125C40.689 125 29.089 119.543 26.348 117.452C22.148 114.249 17.237 105.818 16.475 100.505C15.789 95.728 22.983 55.698 25.912 47.99C34.75 24.731 59.871 11.453 83.54 17.53ZM343.052 20.109C349.814 23.713 352.868 26.894 356.765 34.393C359.02 38.733 359.422 40.777 359.441 48C359.461 55.784 359.176 57.031 356.065 62.801C352.281 69.819 349.143 72.849 341.607 76.765C337.252 79.028 335.249 79.419 328 79.419C320.751 79.419 318.748 79.028 314.393 76.765C306.857 72.849 303.719 69.819 299.935 62.801C296.82 57.024 296.54 55.794 296.57 48C296.607 37.97 298.98 31.97 305.476 25.479C315.459 15.504 330.405 13.367 343.052 20.109ZM82.975 62.487C88.992 65.505 94.385 68.851 94.958 69.922C96.392 72.602 96.271 90.35 94.784 95.384C92.245 103.978 81.245 112 72 112C62.755 112 51.755 103.978 49.216 95.384C47.729 90.351 47.607 72.602 49.042 69.922C49.793 68.518 69.145 57.558 71.767 57.052C71.913 57.023 76.957 59.469 82.975 62.487ZM72 127.462C75.575 127.44 80.062 127.215 81.97 126.962C85.362 126.51 85.462 126.599 86.386 130.865C87.298 135.071 87.064 135.77 79.943 150.115C75.879 158.302 72.304 165 72 165C71.696 165 68.132 158.324 64.081 150.164C57.404 136.713 56.784 134.963 57.449 131.421C58.455 126.056 58.751 125.77 62.345 126.691C64.08 127.136 68.425 127.483 72 127.462ZM230.636 145.082C244.983 147.078 262.963 154.063 274.909 162.281C281.445 166.778 294.367 179.383 299.668 186.433C322.273 216.498 326.101 258.753 309.301 292.777L304.5 302.5L304.236 269.75C304.091 251.738 303.856 237 303.713 237C303.57 237 292.776 240.566 279.727 244.924L256 252.849V232.668V212.487L228 184.5L200 156.513L172 184.5L144 212.487V267.43V322.374L140.896 319.437C135.64 314.464 129.083 305.382 124.416 296.609C108.365 266.436 107.927 232.051 123.205 201.5C128.751 190.409 134.385 182.857 144.145 173.429C153.772 164.129 158.51 160.727 169.56 155.178C188.574 145.631 209.596 142.156 230.636 145.082ZM441.165 148.235C450.262 152.733 455.933 158.527 460.335 167.82C463.415 174.32 463.498 174.863 463.444 188C463.395 199.691 463.074 202.304 461.049 207.5C459.762 210.8 458.1 214.388 457.355 215.473C456.089 217.316 456 217.232 456 214.19C456 209.974 453.881 205.074 450.852 202.285C449.529 201.067 445.247 198.751 441.337 197.139C431.438 193.057 423.718 187.893 415.25 179.687L408 172.662L400.75 179.687C392.282 187.893 384.562 193.057 374.663 197.139C370.753 198.751 366.471 201.067 365.148 202.285C362.119 205.074 360 209.974 360 214.19C360 217.232 359.911 217.316 358.645 215.473C357.9 214.388 356.238 210.8 354.951 207.5C352.926 202.304 352.605 199.691 352.556 188C352.502 174.863 352.585 174.32 355.665 167.82C357.405 164.147 360.667 159.147 362.912 156.711C367.304 151.947 376.34 146.61 382.618 145.073C384.753 144.55 397.1 144.208 410.056 144.311L433.612 144.5L441.165 148.235ZM51.261 160.5L58.992 176H37.368H15.744L16.417 171.792C18.113 161.19 26.297 150.942 36.063 147.192C39.053 146.044 41.957 145.081 42.515 145.052C43.073 145.023 47.009 151.975 51.261 160.5ZM106.871 146.859C115.371 150.089 122.028 156.555 125.748 165.197C126.787 167.61 126.572 168.315 123.704 171.895L120.5 175.897L102.754 175.948L85.008 176L92.739 160.5C96.991 151.975 100.809 145 101.224 145C101.639 145 104.18 145.837 106.871 146.859ZM214.5 194L228.473 208H200H171.527L185.5 194C193.185 186.3 199.71 180 200 180C200.29 180 206.815 186.3 214.5 194ZM414.749 200.423C420.262 204.662 428.115 209.015 436.366 212.406L440.232 213.995L439.828 227.247C439.439 240.037 439.307 240.72 436.046 246.801C432.285 253.814 429.151 256.845 421.607 260.765C417.252 263.028 415.249 263.419 408 263.419C400.751 263.419 398.748 263.028 394.393 260.765C386.849 256.845 383.715 253.814 379.954 246.801C376.694 240.722 376.561 240.035 376.172 227.264L375.769 214.028L380.635 211.953C389.959 207.975 396.124 204.509 401.295 200.337C404.158 198.027 407.062 196.106 407.749 196.068C408.435 196.031 411.585 197.99 414.749 200.423ZM239.774 241.165L239.5 258.329L219.018 265.165C198.55 271.996 198.53 272 187.268 272H176V280V288H184H192V296V304H184H176V312V320H184H192V334.519V349.038L189.25 348.381C184.051 347.138 173.859 343.035 166.935 339.396L160 335.752V279.876V224H200.024H240.047L239.774 241.165ZM36.407 239.945C39.033 242.572 39.5 243.787 39.5 248C39.5 252.27 39.045 253.417 36.231 256.231C33.417 259.045 32.27 259.5 28 259.5C23.73 259.5 22.583 259.045 19.769 256.231C16.966 253.428 16.5 252.262 16.5 248.061C16.5 242.921 19.049 238.858 23.5 236.903C27.239 235.261 33.105 236.643 36.407 239.945ZM176 248V256H184H192V248V240H184H176V248ZM208 248V256H216H224V248V240H216H208V248ZM283.122 327C280.39 329.475 276.77 332.313 275.077 333.307L272 335.113V299.76V264.406L279.75 261.892L287.5 259.377L287.795 290.938L288.089 322.5L283.122 327ZM255.762 307.155L255.5 344.31L250.5 345.996C247.75 346.924 244.262 347.987 242.75 348.36L240 349.038V312.102V275.167L247.25 272.662C251.238 271.285 254.843 270.122 255.262 270.079C255.681 270.036 255.906 286.72 255.762 307.155ZM408 279.952C411.025 279.952 415.19 279.56 417.255 279.08C421.476 278.1 421.567 278.169 422.471 283.008C423.068 286.205 422.523 287.301 416.004 296C412.089 301.225 408.487 305.5 408 305.5C407.513 305.5 403.911 301.225 399.996 296C393.477 287.301 392.932 286.205 393.529 283.008C394.433 278.169 394.524 278.1 398.745 279.08C400.81 279.56 404.975 279.952 408 279.952ZM224 316.5V352H215.987H207.973L208.237 318.835L208.5 285.67L215 283.413C218.575 282.172 222.063 281.121 222.75 281.078C223.728 281.017 224 288.725 224 316.5ZM390.393 309.856L400 322.713V337.356V352H367.872H335.743L336.188 341.19C336.579 331.708 337.017 329.561 339.752 323.716C343.48 315.749 350.143 308.328 356.844 304.682C360.639 302.616 376.255 297.517 380.143 297.073C380.496 297.033 385.108 302.785 390.393 309.856ZM444.906 299.525C450.079 300.911 456.502 303.237 459.18 304.694C465.858 308.329 472.524 315.758 476.248 323.716C478.983 329.561 479.421 331.708 479.812 341.19L480.257 352H448.128H416V337.356V322.713L425.607 309.856C430.892 302.785 435.279 297.001 435.357 297.003C435.436 297.004 439.733 298.139 444.906 299.525ZM97.162 340.235C106.274 344.739 111.96 350.553 116.279 359.782C118.83 365.233 119.397 367.725 119.443 373.69C119.499 380.782 119.41 381.046 115.75 384.711L112 388.467V383.738V379.01L92 369L72 358.99L52 369L32 379.01V383.738V388.467L28.25 384.711C24.59 381.046 24.501 380.782 24.557 373.69C24.659 360.594 32.77 347.599 44.866 341.152C53.334 336.639 56.715 336.077 74.053 336.3L89.606 336.5L97.162 340.235ZM84.015 383.008L96 389.015V396.142C96 400.061 95.453 405.12 94.784 407.384C93.161 412.877 84.877 421.161 79.384 422.784C70.008 425.554 62.533 423.601 55.466 416.534C49.573 410.641 48 406.344 48 396.142V389.016L59.75 383.06C66.213 379.784 71.619 377.08 71.765 377.052C71.911 377.023 77.424 379.703 84.015 383.008ZM311.052 420.109C317.814 423.713 320.868 426.894 324.765 434.393C327.02 438.733 327.422 440.777 327.441 448C327.461 455.784 327.176 457.031 324.065 462.801C320.281 469.819 317.143 472.849 309.607 476.765C305.252 479.028 303.249 479.419 296 479.419C288.751 479.419 286.748 479.028 282.393 476.765C274.857 472.849 271.719 469.819 267.935 462.801C264.82 457.024 264.54 455.794 264.57 448C264.607 437.97 266.98 431.97 273.476 425.479C283.459 415.504 298.405 413.367 311.052 420.109ZM72 440C74.51 440 78.912 439.391 81.782 438.646C86.148 437.514 87 437.513 87 438.638C87 440.219 72.781 469 72 469C71.219 469 57 440.219 57 438.638C57 437.513 57.852 437.514 62.218 438.646C65.088 439.391 69.49 440 72 440ZM51.261 464.5L58.992 480H37.368H15.744L16.417 475.792C18.1 465.266 26.436 454.893 36.242 451.125C39.134 450.014 41.957 449.081 42.515 449.052C43.073 449.023 47.009 455.975 51.261 464.5ZM107.653 451.143C117.688 454.898 125.857 465.002 127.583 475.792L128.256 480H106.632H85.008L92.739 464.5C96.991 455.975 100.797 449 101.198 449C101.598 449 104.503 449.964 107.653 451.143Z" fill="#3fc7e3"/>
</svg>
