<svg width="156" height="82" viewBox="0 0 156 82" fill="none" xmlns="http://www.w3.org/2000/svg">
<g clip-path="url(#clip0_245_184)">
<path d="M40.938 -0.0234375H48.1012V44.1893H40.938V-0.0234375Z" fill="#17313B"/>
<path d="M73.0165 30.1761C73.0165 37.0259 67.4105 37.6487 65.5418 37.6487C61.1816 37.6487 60.5587 33.601 60.5587 31.4215V14.2969H53.3955V31.1102C53.3955 35.1578 54.6413 38.8941 57.1328 41.0736C59.3129 43.2531 62.1159 44.1871 65.5418 44.1871C68.0334 44.1871 71.1478 43.5644 73.0165 41.6963V44.1871H80.1797V14.2969H73.0165V30.1761Z" fill="#17313B"/>
<path d="M94.1946 3.39844H87.0314V14.2959H81.7368V21.1458H87.0314V44.1862H94.1946V21.1458H99.4891V14.2959H94.1946V3.39844Z" fill="#17313B"/>
<path d="M121.914 35.1633C120.356 36.4087 118.176 37.3428 115.996 37.3428C111.013 37.3428 107.587 33.6065 107.587 28.6248C107.587 23.6431 111.013 20.2182 115.996 20.2182C118.176 20.2182 120.356 20.8409 121.914 22.3977L122.848 23.3317L127.831 18.6614L126.585 17.7273C123.782 15.2365 120.045 13.6797 115.996 13.6797C107.276 13.6797 100.735 20.2182 100.735 28.9362C100.735 37.6542 107.276 44.1927 115.996 44.1927C120.045 44.1927 123.782 42.6359 126.585 40.145L127.831 39.211L122.848 34.2292L121.914 35.1633Z" fill="#17313B"/>
<path d="M153.058 16.7898C150.878 14.6103 148.698 13.6763 145.272 13.6763C142.78 13.6763 140.289 14.299 138.42 16.1671V-0.0234375H131.257V44.1893H138.42V27.6873C138.42 20.8375 143.092 20.2148 144.96 20.2148C149.321 20.2148 149.009 24.2624 149.009 26.4419V43.8779H156.172V26.7533C156.172 22.7056 155.238 18.9693 153.058 16.7898Z" fill="#17313B"/>
<path d="M115.684 33.9166C118.436 33.9166 120.667 31.6862 120.667 28.9348C120.667 26.1835 118.436 23.9531 115.684 23.9531C112.932 23.9531 110.701 26.1835 110.701 28.9348C110.701 31.6862 112.932 33.9166 115.684 33.9166Z" fill="#EF4335"/>
<path d="M30.9717 33.2894C28.4801 35.7803 24.7428 37.3371 20.694 37.3371C12.9079 37.3371 7.30196 31.1099 7.30196 22.7033C7.30196 14.2966 12.9079 8.0695 21.0055 8.0695C24.7428 8.0695 28.4801 9.62628 31.2831 12.4285L32.2175 13.3626L36.8891 8.69221L35.9548 7.75814C31.906 3.7105 26.6115 1.531 21.0055 1.531C9.17062 1.21964 0.450195 10.5604 0.450195 22.7033C0.450195 34.8462 9.17062 44.1869 20.694 44.1869C26.3 44.1869 31.906 42.0074 35.6434 37.9598L36.5777 37.0257L31.906 32.3553L30.9717 33.2894Z" fill="#17313B"/>
</g>
<path d="M12.3646 59.0579L14.8102 64.636C14.9022 64.8459 15.0489 65.0273 15.2349 65.1612C15.4209 65.2952 15.6394 65.3767 15.8677 65.3973L21.8256 65.9315C22.4997 66.0296 22.7686 66.8564 22.2798 67.3324L17.7919 71.1027C17.4285 71.4079 17.2631 71.8876 17.3631 72.3509L18.6677 78.4578C18.7821 79.1283 18.079 79.6407 17.4757 79.3227L12.2755 76.2774C12.0794 76.1623 11.8561 76.1016 11.6287 76.1016C11.4013 76.1016 11.178 76.1623 10.9818 76.2774L5.78161 79.3209C5.18019 79.637 4.4752 79.1265 4.58967 78.456L5.89427 72.3491C5.99238 71.8858 5.82885 71.4061 5.46546 71.1008L0.975684 67.3342C0.488732 66.86 0.757646 66.0314 1.42993 65.9333L7.38783 65.3991C7.6161 65.3785 7.83465 65.297 8.02066 65.1631C8.20667 65.0291 8.35332 64.8477 8.44531 64.6378L10.891 59.0597C11.1944 58.4492 12.0629 58.4492 12.3646 59.0579Z" fill="#EEC718"/>
<path d="M12.1867 64.9658L11.7725 60.8558C11.7561 60.6268 11.7089 60.2344 12.0759 60.2344C12.3666 60.2344 12.5247 60.8394 12.5247 60.8394L13.7675 64.1391C14.2363 65.3946 14.0437 65.8252 13.5913 66.0796C13.0716 66.3703 12.3048 66.1432 12.1867 64.9658Z" fill="#FAFA00"/>
<path d="M17.3122 70.7393L20.8772 67.9575C21.0534 67.8104 21.3714 67.576 21.117 67.3089C20.9153 67.0981 20.3702 67.4015 20.3702 67.4015L17.2505 68.6207C16.3202 68.9423 15.7024 69.4184 15.6479 70.018C15.577 70.8175 16.2947 71.4334 17.3122 70.7393Z" fill="#F4B400"/>
<path d="M41.2356 59.0579L43.6813 64.636C43.7733 64.8459 43.92 65.0273 44.106 65.1612C44.292 65.2952 44.5105 65.3767 44.7388 65.3973L50.6967 65.9315C51.3708 66.0296 51.6397 66.8564 51.1509 67.3324L46.663 71.1027C46.2996 71.4079 46.1342 71.8876 46.2342 72.3509L47.5388 78.4578C47.6532 79.1283 46.9501 79.6407 46.3468 79.3227L41.1466 76.2774C40.9505 76.1623 40.7272 76.1016 40.4998 76.1016C40.2724 76.1016 40.0491 76.1623 39.8529 76.2774L34.6527 79.3209C34.0513 79.637 33.3463 79.1265 33.4608 78.456L34.7654 72.3491C34.8635 71.8858 34.6999 71.4061 34.3366 71.1008L29.8468 67.3342C29.3598 66.86 29.6287 66.0314 30.301 65.9333L36.2589 65.3991C36.4872 65.3785 36.7057 65.297 36.8918 65.1631C37.0778 65.0291 37.2244 64.8477 37.3164 64.6378L39.7621 59.0597C40.0655 58.4492 40.934 58.4492 41.2356 59.0579Z" fill="#EEC718"/>
<path d="M41.0578 64.9658L40.6436 60.8558C40.6272 60.6268 40.58 60.2344 40.947 60.2344C41.2377 60.2344 41.3958 60.8394 41.3958 60.8394L42.6386 64.1391C43.1074 65.3946 42.9148 65.8252 42.4624 66.0796C41.9427 66.3703 41.1759 66.1432 41.0578 64.9658Z" fill="#FAFA00"/>
<path d="M46.1833 70.7393L49.7483 67.9575C49.9245 67.8104 50.2425 67.576 49.9881 67.3089C49.7864 67.0981 49.2413 67.4015 49.2413 67.4015L46.1216 68.6207C45.1913 68.9423 44.5735 69.4184 44.519 70.018C44.4481 70.8175 45.1658 71.4334 46.1833 70.7393Z" fill="#F4B400"/>
<path d="M70.1072 59.0579L72.5529 64.636C72.6449 64.8459 72.7915 65.0273 72.9776 65.1612C73.1636 65.2952 73.3821 65.3767 73.6104 65.3973L79.5683 65.9315C80.2424 66.0296 80.5113 66.8564 80.0225 67.3324L75.5346 71.1027C75.1712 71.4079 75.0058 71.8876 75.1058 72.3509L76.4104 78.4578C76.5248 79.1283 75.8217 79.6407 75.2184 79.3227L70.0182 76.2774C69.8221 76.1623 69.5988 76.1016 69.3714 76.1016C69.1439 76.1016 68.9206 76.1623 68.7245 76.2774L63.5243 79.3209C62.9229 79.637 62.2179 79.1265 62.3323 78.456L63.6369 72.3491C63.7351 71.8858 63.5715 71.4061 63.2081 71.1008L58.7184 67.3342C58.2314 66.86 58.5003 66.0314 59.1726 65.9333L65.1305 65.3991C65.3588 65.3785 65.5773 65.297 65.7633 65.1631C65.9493 65.0291 66.096 64.8477 66.188 64.6378L68.6337 59.0597C68.9371 58.4492 69.8056 58.4492 70.1072 59.0579Z" fill="#EEC718"/>
<path d="M69.9294 64.9658L69.5151 60.8558C69.4988 60.6268 69.4516 60.2344 69.8186 60.2344C70.1093 60.2344 70.2674 60.8394 70.2674 60.8394L71.5102 64.1391C71.979 65.3946 71.7864 65.8252 71.334 66.0796C70.8143 66.3703 70.0475 66.1432 69.9294 64.9658Z" fill="#FAFA00"/>
<path d="M75.0549 70.7393L78.6198 67.9575C78.7961 67.8104 79.1141 67.576 78.8597 67.3089C78.658 67.0981 78.1129 67.4015 78.1129 67.4015L74.9931 68.6207C74.0628 68.9423 73.4451 69.4184 73.3906 70.018C73.3197 70.8175 74.0374 71.4334 75.0549 70.7393Z" fill="#F4B400"/>
<g clip-path="url(#clip1_245_184)">
<path d="M98.9783 59.0579L101.424 64.636C101.516 64.8459 101.663 65.0273 101.849 65.1612C102.035 65.2952 102.253 65.3767 102.481 65.3973L108.439 65.9315C109.113 66.0296 109.382 66.8564 108.894 67.3324L104.406 71.1027C104.042 71.4079 103.877 71.8876 103.977 72.3509L105.281 78.4578C105.396 79.1283 104.693 79.6407 104.09 79.3227L98.8893 76.2774C98.6932 76.1623 98.4699 76.1016 98.2424 76.1016C98.015 76.1016 97.7917 76.1623 97.5956 76.2774L92.3954 79.3209C91.794 79.637 91.089 79.1265 91.2034 78.456L92.508 72.3491C92.6062 71.8858 92.4426 71.4061 92.0792 71.1008L87.5895 67.3342C87.1025 66.86 87.3714 66.0314 88.0437 65.9333L94.0016 65.3991C94.2299 65.3785 94.4484 65.297 94.6344 65.1631C94.8204 65.0291 94.9671 64.8477 95.0591 64.6378L97.5047 59.0597C97.8082 58.4492 98.6767 58.4492 98.9783 59.0579Z" fill="#EEC718"/>
<path d="M98.8005 64.9658L98.3862 60.8558C98.3699 60.6268 98.3226 60.2344 98.6897 60.2344C98.9804 60.2344 99.1385 60.8394 99.1385 60.8394L100.381 64.1391C100.85 65.3946 100.657 65.8252 100.205 66.0796C99.6854 66.3703 98.9186 66.1432 98.8005 64.9658Z" fill="#FAFA00"/>
<path d="M103.926 70.7393L107.491 67.9575C107.667 67.8104 107.985 67.576 107.731 67.3089C107.529 67.0981 106.984 67.4015 106.984 67.4015L103.864 68.6207C102.934 68.9423 102.316 69.4184 102.262 70.018C102.191 70.8175 102.909 71.4334 103.926 70.7393Z" fill="#F4B400"/>
</g>
<path d="M127.672 64.9658L127.258 60.8558C127.241 60.6268 127.194 60.2344 127.561 60.2344C127.852 60.2344 128.01 60.8394 128.01 60.8394L129.253 64.1391C129.722 65.3946 129.529 65.8252 129.077 66.0796C128.557 66.3703 127.79 66.1432 127.672 64.9658Z" fill="#FAFA00"/>
<path d="M132.798 70.7393L136.363 67.9575C136.539 67.8104 136.857 67.576 136.602 67.3089C136.401 67.0981 135.856 67.4015 135.856 67.4015L132.736 68.6207C131.806 68.9423 131.188 69.4184 131.133 70.018C131.062 70.8175 131.78 71.4334 132.798 70.7393Z" fill="#F4B400"/>
<path d="M127.743 58.4822C128.047 59.1255 130.211 64.3771 130.211 64.3771C130.303 64.599 130.451 64.7907 130.639 64.9322C130.827 65.0737 131.047 65.1599 131.278 65.1817L137.29 65.7462C137.97 65.8499 138.241 66.7236 137.748 67.2266L133.219 71.211C132.853 71.5336 132.686 72.0405 132.787 72.5301L134.103 78.9838C134.219 79.6924 133.509 80.2338 132.9 79.8978L127.653 76.6796C127.455 76.558 127.23 76.4938 127 76.4938C126.771 76.4938 126.545 76.558 126.348 76.6796L121.1 79.8959C120.493 80.23 119.782 79.6904 119.898 78.9819L121.214 72.5282C121.313 72.0386 121.148 71.5317 120.781 71.2091L116.251 67.2286C115.76 66.7274 116.031 65.8518 116.709 65.7481L122.721 65.1836C122.951 65.1618 123.172 65.0756 123.36 64.9341C123.547 64.7926 123.695 64.6009 123.788 64.379L126.256 58.4841C126.562 57.8389 127.438 57.8389 127.743 58.4822Z" fill="#EEC718"/>
<rect x="127" y="57" width="12" height="25" fill="#EAF9FC"/>
<path d="M130.026 64.4533L130.211 64.3771L130.026 64.4532L130.026 64.4531L130.025 64.4523L130.024 64.4495L130.019 64.4382L130.001 64.3942L129.932 64.2265L129.683 63.6229C129.475 63.1205 129.196 62.4441 128.906 61.7476C128.326 60.3507 127.712 58.8837 127.562 58.5677C127.331 58.0791 126.674 58.0764 126.438 58.5659L123.973 64.4562C123.866 64.71 123.697 64.9304 123.48 65.0938C123.263 65.2572 123.008 65.3573 122.74 65.3827L122.74 65.3827L116.734 65.9467C116.235 66.0274 116.011 66.6905 116.389 67.0835L120.913 71.0588L120.913 71.0589C121.336 71.4305 121.523 72.0107 121.41 72.5679L121.41 72.5682L120.094 79.0178C120.006 79.5792 120.559 79.9615 121 79.7228L126.243 76.5092C126.243 76.5092 126.243 76.5092 126.243 76.5091C126.472 76.3684 126.733 76.2938 127 76.2938C127.267 76.2938 127.529 76.3684 127.758 76.5091L130.026 64.4533ZM130.026 64.4533L130.026 64.4543C130.132 64.7081 130.302 64.9285 130.519 65.0919C130.735 65.2553 130.991 65.3554 131.259 65.3808L131.259 65.3808L137.265 65.9447M130.026 64.4533L137.265 65.9447M137.265 65.9447C137.766 66.0255 137.99 66.6868 137.61 67.0817L133.087 71.0608C132.665 71.432 132.476 72.012 132.591 72.5701L137.265 65.9447ZM133.001 79.7248L127.758 76.5092L132.591 72.5705L133.906 79.0197C133.995 79.5821 133.442 79.9647 133.001 79.7248Z" stroke="#EEC718" stroke-width="0.4"/>
<defs>
<clipPath id="clip0_245_184">
<rect width="156" height="44" fill="white"/>
</clipPath>
<clipPath id="clip1_245_184">
<rect width="23.2574" height="23.2574" fill="white" transform="translate(86.6138 57.7422)"/>
</clipPath>
</defs>
</svg>
