<svg width="118" height="32" viewBox="0 0 118 32" fill="none" xmlns="http://www.w3.org/2000/svg">
<g clip-path="url(#clip0_245_2901)">
<path d="M30.4551 0.765625H35.7838V31.2418H30.4551V0.765625ZM54.4345 21.5199C54.4345 26.184 50.1487 26.5558 48.8738 26.5558C45.6887 26.5558 45.109 23.8276 45.109 22.1819V10.518H39.7803V22.1575C39.7803 25.0466 40.7715 27.4311 42.5087 29.0207C44.0434 30.4263 46.3428 31.1943 48.8339 31.1943C50.6004 31.1943 53.1022 30.6908 54.4345 29.5778V31.2418H59.7632V10.518H54.4345V21.5199ZM70.4208 3.20372H65.0919V10.518H61.0953V15.3942H65.0919V31.2418H70.4208V15.3942H74.4173V10.518H70.4208V3.20372ZM91.1988 25.0454C90.0386 25.9999 88.5065 26.529 86.8253 26.529C83.1192 26.529 80.3974 24.0385 80.3974 20.619C80.3974 17.1996 83.0326 14.8139 86.8253 14.8139C88.4771 14.8139 90.0385 15.3174 91.2282 16.2719L92.0367 16.9083L95.6297 13.6217L94.7304 12.8793C92.6162 11.1324 89.8094 10.1523 86.8239 10.1523C80.163 10.1523 75.3258 14.5506 75.3258 20.5934C75.3258 26.6107 80.2789 31.1662 86.8239 31.1662C89.8654 31.1662 92.7015 30.1861 94.789 28.4112L95.6577 27.6688L92.0088 24.3847L91.1988 25.0454ZM114.649 12.3246C113.115 10.9203 111.316 10.1523 108.825 10.1523C107.059 10.1523 105.058 10.6558 103.725 11.7675V0.765625H98.3966V31.2418H103.725V19.8254C103.725 15.1614 107.346 14.7908 108.621 14.7908C111.806 14.7908 111.719 17.5202 111.719 19.1635V31.2418H117.047V19.1891C117.047 16.2999 116.388 13.9155 114.649 12.3246Z" fill="white"/>
<path d="M86.6497 17.1406C87.6714 17.1406 88.6513 17.5121 89.3738 18.1733C90.0964 18.8343 90.5023 19.7311 90.5023 20.6661C90.5023 21.6011 90.0964 22.4979 89.3738 23.1591C88.6513 23.8202 87.6714 24.1916 86.6497 24.1916C85.6278 24.1916 84.6478 23.8202 83.9253 23.1591C83.2028 22.4979 82.7969 21.6011 82.7969 20.6661C82.7969 19.7311 83.2028 18.8343 83.9253 18.1733C84.6478 17.5121 85.6278 17.1406 86.6497 17.1406Z" fill="white"/>
<path d="M22.9949 23.5857C20.9686 25.4935 18.2163 26.5273 15.3202 26.5273C9.38394 26.5273 5.06765 22.2606 5.06765 16.4043C5.06765 10.5211 9.38394 6.25444 15.3202 6.25444C18.1883 6.25444 20.91 7.28698 22.967 9.16919L23.7768 9.91159L27.3392 6.65185L26.5573 5.90945C23.6036 3.12637 19.6071 1.61719 15.3202 1.61719C6.57434 1.61719 0 7.97696 0 16.4299C0 24.8572 6.60366 31.1914 15.3202 31.1914C19.6365 31.1914 23.633 29.6554 26.5865 26.8723L27.3686 26.1299L23.8355 22.8177L22.9949 23.5857Z" fill="white"/>
</g>
<defs>
<clipPath id="clip0_245_2901">
<rect width="118" height="32" fill="white"/>
</clipPath>
</defs>
</svg>
