<svg width="201" height="32" viewBox="0 0 201 32" fill="none" xmlns="http://www.w3.org/2000/svg">
<path d="M26.6602 7.19531H33.7153C39.3937 7.19531 43.3514 10.9976 43.3514 15.8984V15.9829C43.3514 20.8837 39.4797 24.6859 33.7153 24.6859H26.6602V7.19531ZM33.7153 21.1371C36.9847 21.1371 39.1355 19.0248 39.1355 15.9829V15.8984C39.1355 12.8565 36.9847 10.6596 33.7153 10.6596H30.7039V21.1371H33.7153Z" fill="white"/>
<path d="M46.793 7.19531H60.4728V10.5751H50.8367V14.124H59.3544V17.5039H50.8367V21.1371H60.6449V24.5169H46.8789L46.793 7.19531Z" fill="white"/>
<path d="M62.8789 22.0622L65.288 19.3584C66.9227 20.6257 68.6435 21.4707 70.7084 21.4707C72.3431 21.4707 73.2895 20.7947 73.2895 19.8654V19.7808C73.2895 18.7668 72.6012 18.2599 69.6759 17.5839C66.0624 16.6545 63.6533 15.725 63.6533 12.2607V12.1762C63.6533 9.0499 66.2344 6.9375 70.0201 6.9375C72.6012 6.9375 74.9242 7.69796 76.731 9.13439L74.6661 12.0917C73.1173 10.9933 71.4826 10.4018 69.934 10.4018C68.3854 10.4018 67.611 11.0778 67.611 11.9227V11.8383C67.611 12.9367 68.3854 13.3592 71.4826 14.1196C75.1823 15.0491 77.1611 16.3166 77.1611 19.2738V19.3584C77.1611 22.8226 74.408 24.7661 70.5362 24.7661C67.7832 24.7661 65.0299 23.8366 62.8789 22.0622Z" fill="white"/>
<path d="M80.7773 7.19531H84.735V24.6015H80.7773V7.19531Z" fill="white"/>
<path d="M88.5195 15.9004C88.5195 10.9152 92.4772 6.85938 97.9836 6.85938C101.253 6.85938 103.146 7.70433 105.039 9.30975L102.544 12.2671C101.167 11.1687 99.9624 10.4927 97.8116 10.4927C94.8863 10.4927 92.6492 12.9431 92.6492 15.9004V15.9849C92.6492 19.1957 94.8863 21.5617 98.1557 21.5617C99.6183 21.5617 100.909 21.2237 101.941 20.4632V18.0127H97.8976V14.7175H105.727V22.2377C103.834 23.7586 101.339 25.0259 97.9836 25.0259C92.3052 24.7725 88.5195 21.0546 88.5195 15.9004Z" fill="white"/>
<path d="M109.512 7.19531H113.211L121.643 17.8418V7.19531H125.515V24.6015H122.159L113.383 13.5325V24.6015H109.512V7.19531Z" fill="white"/>
<path d="M129.91 7.1875H138.17C140.493 7.1875 142.214 7.86346 143.418 8.96192C144.451 9.97586 144.967 11.3278 144.967 12.9332V13.0177C144.967 15.8061 143.418 17.5804 141.095 18.4254L145.483 24.5936H140.837L136.965 19.0169H136.879H133.782V24.5936H129.738V7.1875H129.91ZM137.912 15.5525C139.891 15.5525 140.923 14.5386 140.923 13.1022V13.0177C140.923 11.4123 139.805 10.5673 137.826 10.5673H133.868V15.5525H137.912Z" fill="white"/>
<path d="M148.324 17.0784V7.10793H152.282V16.9094C152.282 19.7822 153.744 21.1342 156.153 21.1342C158.562 21.1342 160.026 19.6978 160.026 16.9094V7.02344H163.983V16.825C163.983 22.0637 160.885 24.683 156.067 24.683C151.249 24.683 148.324 22.1481 148.324 17.0784Z" fill="white"/>
<path d="M166.82 22.0623L169.229 19.3583C170.865 20.6258 172.585 21.4708 174.65 21.4708C176.284 21.4708 177.231 20.7948 177.231 19.8653V19.7809C177.231 18.7669 176.542 18.2599 173.617 17.584C170.004 16.6545 167.595 15.7251 167.595 12.2607V12.1762C167.595 9.04988 170.176 6.9375 173.961 6.9375C176.542 6.9375 178.865 7.69796 180.672 9.13438L178.607 12.0917C177.059 10.9933 175.425 10.4018 173.875 10.4018C172.327 10.4018 171.552 11.0778 171.552 11.9227V11.8382C171.552 12.9367 172.327 13.3592 175.425 14.1196C179.124 15.0491 181.102 16.3165 181.102 19.2739V19.3583C181.102 22.8227 178.349 24.7661 174.478 24.7661C171.81 24.7661 168.971 23.8366 166.82 22.0623Z" fill="white"/>
<path d="M184.543 7.1875H188.5V14.1161H195.813V7.1875H199.771V24.5936H195.813V17.665H188.5V24.5936H184.543V7.1875Z" fill="white"/>
<path d="M9.28767 19.7797C9.23104 19.7241 9.23104 19.7797 9.28767 19.7797L9.00451 19.6128L8.94788 19.5572L2.26529 14.8854C2.26529 14.8854 2.20865 14.8854 2.20865 14.8298L2.09539 14.7186L2.03875 14.6629H1.92549L0 13.3281L3.79436 13.8843C3.96424 13.8843 4.02087 13.9399 4.19077 13.9955C4.24741 13.9955 4.36067 14.0511 4.36067 14.0511C4.53057 14.1068 4.5872 14.1624 4.70047 14.218C4.81374 14.2736 4.87037 14.3292 4.98362 14.3849C5.04025 14.4405 5.15352 14.4961 5.15352 14.5517C5.21015 14.6073 5.26678 14.6073 5.32342 14.6629C5.43668 14.7186 5.49331 14.7742 5.49331 14.8298C5.66321 14.9967 5.77648 15.1635 5.94638 15.2747L8.94788 19.446L9.00451 19.5016L9.28767 19.7797Z" fill="white"/>
<path d="M9.28377 26.2313L9.0006 25.7864L8.94397 25.7308L0.0527344 13.3281L1.97823 14.6629L2.31801 14.8854L9.0006 19.5572H9.05723L9.28377 19.7241C9.28377 19.7241 9.3404 19.7241 9.3404 19.7797L9.62356 19.5572L18.628 13.3281L9.56693 25.7864L9.5103 25.842L9.28377 26.2313Z" fill="white"/>
<path d="M9.29454 17.6689L9.01138 17.224L8.95475 17.1683L6.74609 14.165L8.95475 14.6099H9.01138L9.29454 14.6656L9.57769 14.6099L11.7297 14.1094L9.57769 17.224V17.2796L9.29454 17.6689Z" fill="white"/>
<path d="M18.6899 13.2812L15.8584 13.6706L14.7824 13.8374C13.9329 13.9487 13.14 14.3936 12.6303 15.1166L9.62885 19.3436L9.57221 19.3992L9.28906 19.7886L9.62885 19.4548L9.68548 19.3992L9.28906 19.7886L16.9343 14.4492L18.6899 13.2812Z" fill="white"/>
<path d="M10.7042 4.49199C10.7042 6.93916 6.40021 8.21836 6.40021 10.8324C6.34357 11.4442 6.51347 12.056 6.79664 12.6121C6.79664 12.6121 5.1543 11.0549 5.1543 9.38633C5.1543 7.71781 6.74 5.21503 6.74 5.21503C6.74 6.32738 7.19305 6.66108 7.64611 6.7167H7.70275C8.21244 6.7167 8.49559 6.32738 8.49559 5.7712C8.49559 5.21503 7.87265 4.65885 7.87265 3.5465C7.87265 2.48977 9.23182 0.765625 9.23182 0.765625C10.1946 1.87798 10.7042 3.15718 10.7042 4.49199Z" fill="white"/>
<path d="M9.51722 13.3906C8.15805 13.3906 7.13867 12.3339 7.13867 11.0547V10.9991C7.13867 8.16256 11.1595 7.88448 11.1595 4.04688C11.2728 4.21373 12.3488 5.65978 12.3488 7.21707C12.3488 9.16368 10.48 9.66423 10.48 10.6097C10.48 10.9991 10.6499 11.2771 11.2162 11.2771C11.2728 11.2771 11.3294 11.2771 11.3861 11.2215C12.4621 10.7766 13.1983 9.77547 13.2549 8.6075C13.2549 8.66312 13.8213 13.3906 9.51722 13.3906Z" fill="white"/>
<path d="M11.2711 11.2771C11.3277 11.2771 11.3844 11.2771 11.441 11.2215C10.8747 11.3884 8.7793 11.8889 8.7793 10.4429C8.7793 8.66312 11.8941 8.2738 11.8941 6.77213C11.8941 5.82664 11.6675 4.88113 11.1578 4.04688C11.2711 4.21373 12.3471 5.65978 12.3471 7.21707C12.3471 9.16368 10.4783 9.66423 10.4783 10.6097C10.5349 10.9991 10.7614 11.2771 11.2711 11.2771Z" fill="white"/>
<path d="M9.57197 5.49311C9.57197 6.88354 7.75975 6.77231 7.64648 6.7167H7.81638C8.32608 6.7167 8.60923 6.32738 8.60923 5.7712C8.60923 5.21503 7.98628 4.65885 7.98628 3.5465C7.98628 2.48977 9.34546 0.765625 9.34546 0.765625C8.89239 1.48865 8.66586 2.26729 8.60923 3.04594C8.60923 4.32514 9.57197 4.43638 9.57197 5.49311Z" fill="white"/>
<path d="M8.43535 29.789L7.18945 28.9547H8.71851L9.22821 27.4531L9.68126 28.9547H11.2103L9.96442 29.789L10.4175 31.2351L9.17157 30.3452L7.86903 31.2351L8.43535 29.789Z" fill="white"/>
<path d="M14.9568 29.789L13.7109 28.9547H15.24L15.7497 27.4531L16.2028 28.9547H17.7318L16.4859 29.789L16.939 31.2351L15.6931 30.3452L14.3905 31.2351L14.9568 29.789Z" fill="white"/>
<path d="M1.98223 29.789L0.736328 28.9547H2.26539L2.77509 27.4531L3.22814 28.9547H4.75721L3.5113 29.789L3.96435 31.2351L2.71846 30.3452L1.47255 31.2351L1.98223 29.789Z" fill="white"/>
</svg>
