<svg width="841" height="589" viewBox="0 0 841 589" fill="none" xmlns="http://www.w3.org/2000/svg">
<path d="M735.707 504.18H105.293L218.458 437.32H624.274L735.707 504.18Z" fill="#EBEBEB"/>
<path d="M466.738 177.323H353.32V111.708C353.32 107.265 356.92 103.664 361.36 103.664H458.698C463.138 103.664 466.738 107.265 466.738 111.708V177.323Z" fill="white" stroke="#66B0F0" stroke-width="6" stroke-miterlimit="10"/>
<path d="M458.177 173.048H362.353C359.83 173.048 357.778 170.995 357.778 168.471V112.23C357.778 109.705 359.83 107.652 362.353 107.652H458.177C460.7 107.652 462.752 109.705 462.752 112.23V168.488C462.752 171.012 460.7 173.048 458.177 173.048Z" fill="#09385A"/>
<path d="M486.619 192.722C490.959 195.549 489.95 201.086 484.819 201.086H330.311C325.988 201.086 324.508 195.246 328.747 192.57L486.619 192.722Z" fill="#66B0F0" stroke="#66B0F0" stroke-width="6" stroke-miterlimit="10"/>
<path d="M484.819 197.229H330.311C327.552 197.229 326.459 193.981 328.746 192.567L353.354 177.32H466.418L486.602 192.718C488.621 194.25 487.443 197.229 484.819 197.229Z" fill="white" stroke="#66B0F0" stroke-width="6" stroke-miterlimit="10"/>
<path d="M466.99 192.634H348.14C346.02 192.634 345.179 190.127 346.929 189.05L364.018 177.32H452.827L468.352 189.168C469.917 190.346 469.008 192.634 466.99 192.634Z" fill="#09385A" stroke="#66B0F0" stroke-width="6" stroke-miterlimit="10"/>
<path d="M445.141 177.32L460.682 192.634" stroke="#66B0F0" stroke-width="6" stroke-miterlimit="10"/>
<path d="M436.898 177.32L450.59 192.634" stroke="#66B0F0" stroke-width="6" stroke-miterlimit="10"/>
<path d="M429.195 177.32L441.07 192.634" stroke="#66B0F0" stroke-width="6" stroke-miterlimit="10"/>
<path d="M420.583 177.32L430.625 192.634" stroke="#66B0F0" stroke-width="6" stroke-miterlimit="10"/>
<path d="M413.435 177.32L418.329 192.634" stroke="#66B0F0" stroke-width="6" stroke-miterlimit="10"/>
<path d="M371.234 177.32L355.692 192.634" stroke="#66B0F0" stroke-width="6" stroke-miterlimit="10"/>
<path d="M379.476 177.32L365.784 192.634" stroke="#66B0F0" stroke-width="6" stroke-miterlimit="10"/>
<path d="M387.18 177.32L375.305 192.634" stroke="#66B0F0" stroke-width="6" stroke-miterlimit="10"/>
<path d="M395.792 177.32L385.75 192.634" stroke="#66B0F0" stroke-width="6" stroke-miterlimit="10"/>
<path d="M402.94 177.32L398.045 192.634" stroke="#66B0F0" stroke-width="6" stroke-miterlimit="10"/>
<path d="M407.783 192.819V177.32" stroke="#66B0F0" stroke-width="6" stroke-miterlimit="10"/>
<path d="M355.692 183.043H460.346" stroke="#66B0F0" stroke-width="6" stroke-miterlimit="10"/>
<path d="M450.204 173.048H365.111L366.642 162.193C367.584 155.513 372.378 150.026 378.853 148.175L399.592 143.867H415.723L436.462 148.175C442.954 150.01 447.748 155.513 448.673 162.193L450.204 173.048Z" fill="#31C2E1"/>
<path d="M413.401 156.266L407.262 150.056C407.127 149.922 407.127 149.703 407.262 149.585C407.397 149.451 407.615 149.451 407.733 149.585L413.368 155.29L422.114 145.378C422.232 145.243 422.45 145.227 422.585 145.344C422.72 145.462 422.736 145.681 422.619 145.816L413.401 156.266Z" fill="white"/>
<path d="M401.997 156.268L392.78 145.817C392.662 145.683 392.662 145.464 392.813 145.346C392.948 145.228 393.167 145.228 393.284 145.38L402.031 155.292L407.666 149.587C407.8 149.452 408.002 149.452 408.136 149.587C408.271 149.722 408.271 149.924 408.136 150.058L401.997 156.268Z" fill="white"/>
<path d="M407.8 160.323C406.993 160.323 406.337 159.666 406.337 158.859C406.337 158.051 406.993 157.395 407.8 157.395C408.608 157.395 409.264 158.051 409.264 158.859C409.264 159.666 408.608 160.323 407.8 160.323ZM407.8 158.068C407.363 158.068 407.01 158.421 407.01 158.859C407.01 159.296 407.363 159.65 407.8 159.65C408.238 159.65 408.591 159.296 408.591 158.859C408.591 158.421 408.238 158.068 407.8 158.068Z" fill="white"/>
<path d="M407.8 168.569C406.993 168.569 406.337 167.912 406.337 167.105C406.337 166.297 406.993 165.641 407.8 165.641C408.608 165.641 409.264 166.297 409.264 167.105C409.264 167.912 408.608 168.569 407.8 168.569ZM407.8 166.314C407.363 166.314 407.01 166.667 407.01 167.105C407.01 167.542 407.363 167.896 407.8 167.896C408.238 167.896 408.591 167.542 408.591 167.105C408.591 166.667 408.238 166.314 407.8 166.314Z" fill="white"/>
<path d="M399.491 172.695H372.007L364.674 150.919L392.158 143.043L399.491 172.695Z" fill="white" stroke="#66B0F0" stroke-width="4" stroke-miterlimit="10"/>
<path d="M373.437 153.747H372.916C371.587 153.747 370.511 152.67 370.511 151.341V143.785C370.511 143.246 370.948 142.809 371.486 142.809H373.757C374.295 142.809 374.733 143.246 374.733 143.785V152.435C374.749 153.158 374.161 153.747 373.437 153.747Z" fill="white"/>
<path d="M373.437 153.747H372.916C371.587 153.747 370.511 152.67 370.511 151.341V143.785C370.511 143.246 370.948 142.809 371.486 142.809H373.757C374.295 142.809 374.733 143.246 374.733 143.785V152.435C374.749 153.158 374.161 153.747 373.437 153.747Z" stroke="#66B0F0" stroke-width="4" stroke-miterlimit="10" stroke-linecap="round"/>
<path d="M384.505 153.747H385.027C386.356 153.747 387.432 152.67 387.432 151.341V143.785C387.432 143.246 386.995 142.809 386.456 142.809H384.169C383.631 142.809 383.193 143.246 383.193 143.785V152.435C383.193 153.158 383.782 153.747 384.505 153.747Z" fill="white"/>
<path d="M377.659 154.621H376.448C375.506 154.621 374.749 153.864 374.749 152.921V143.8C374.749 143.262 375.186 142.824 375.725 142.824H377.995C378.534 142.824 378.971 143.262 378.971 143.8V153.308C378.971 154.032 378.382 154.621 377.659 154.621Z" fill="white"/>
<path d="M381.898 154.959H380.889C379.829 154.959 378.972 154.101 378.972 153.04V143.785C378.972 143.246 379.409 142.809 379.947 142.809H382.218C382.756 142.809 383.193 143.246 383.193 143.785V153.646C383.193 154.37 382.605 154.959 381.898 154.959Z" fill="white"/>
<path d="M384.505 153.747H385.027C386.356 153.747 387.432 152.67 387.432 151.341V143.785C387.432 143.246 386.995 142.809 386.456 142.809H384.169C383.631 142.809 383.193 143.246 383.193 143.785V152.435C383.193 153.158 383.782 153.747 384.505 153.747Z" stroke="#66B0F0" stroke-width="4" stroke-miterlimit="10" stroke-linecap="round"/>
<path d="M377.659 154.621H376.448C375.506 154.621 374.749 153.864 374.749 152.921V143.8C374.749 143.262 375.186 142.824 375.725 142.824H377.995C378.534 142.824 378.971 143.262 378.971 143.8V153.308C378.971 154.032 378.382 154.621 377.659 154.621Z" stroke="#66B0F0" stroke-width="4" stroke-miterlimit="10" stroke-linecap="round"/>
<path d="M381.898 154.959H380.889C379.829 154.959 378.972 154.101 378.972 153.04V143.785C378.972 143.246 379.409 142.809 379.947 142.809H382.218C382.756 142.809 383.193 143.246 383.193 143.785V153.646C383.193 154.37 382.605 154.959 381.898 154.959Z" stroke="#66B0F0" stroke-width="4" stroke-miterlimit="10" stroke-linecap="round"/>
<path d="M415.74 133.973V146.258C415.74 148.378 412.124 150.111 407.666 150.111C403.209 150.111 399.593 148.378 399.593 146.258V133.973H415.74Z" fill="white"/>
<path d="M415.74 133.973C415.74 143.245 409.802 146.005 404.1 145.517C404.083 145.517 404.067 145.517 404.05 145.517C401.527 145.281 399.609 143.127 399.609 140.603V133.989H415.74V133.973Z" fill="#66B0F0"/>
<path d="M419.49 130.808V131.43C419.49 132.81 418.38 133.921 417.001 133.921H415.723L415.74 134.207C415.74 138.179 412.527 141.393 408.557 141.393H406.791C402.822 141.393 399.609 138.179 399.609 134.207L399.626 133.921H398.348C396.969 133.921 395.858 132.81 395.858 131.43V130.808C395.858 129.428 396.969 128.317 398.348 128.317H399.979L400.164 125.271C400.164 124.8 400.232 124.346 400.366 123.925C405.177 125.12 410.811 122.023 412.325 121.098C414.007 121.737 415.201 123.353 415.201 125.254L415.386 128.3H417.018C418.38 128.317 419.49 129.428 419.49 130.808Z" fill="white"/>
<path d="M417.119 128.317H415.37L415.185 125.272C415.185 123.37 413.991 121.754 412.309 121.115C410.795 122.024 405.16 125.12 400.35 123.942C400.215 124.363 400.148 124.817 400.148 125.288L399.963 128.334H398.87C398.87 128.334 396.632 117.497 398.836 115.511C400.467 114.047 415.404 117.244 417.052 119.516C417.977 120.812 417.119 128.317 417.119 128.317Z" fill="#E57281"/>
<path d="M412.914 127.661C412.863 127.661 412.796 127.644 412.745 127.593C412.729 127.576 411.635 126.685 409.886 126.685C409.752 126.685 409.634 126.567 409.634 126.432C409.634 126.297 409.752 126.18 409.886 126.18C411.82 126.18 413.015 127.156 413.065 127.206C413.166 127.29 413.183 127.459 413.099 127.56C413.065 127.627 412.981 127.661 412.914 127.661Z" fill="#66B0F0"/>
<path d="M406.523 132.876C406.489 132.876 406.455 132.876 406.439 132.859C406.304 132.809 406.237 132.657 406.287 132.54C406.758 131.294 406.64 129.729 405.984 128.349C405.598 127.508 405.043 126.902 404.555 126.734C403.478 126.364 401.964 126.885 401.948 126.885C401.813 126.936 401.679 126.868 401.628 126.734C401.578 126.599 401.645 126.465 401.779 126.414C401.847 126.397 403.461 125.842 404.706 126.263C405.328 126.481 405.968 127.171 406.422 128.147C407.128 129.645 407.246 131.362 406.741 132.742C406.725 132.809 406.624 132.876 406.523 132.876Z" fill="#66B0F0"/>
<path d="M409.836 135.553C409.853 135.688 409.735 135.806 409.6 135.823H409.583C409.449 135.823 409.348 135.722 409.331 135.587C409.314 135.419 409.281 135.251 409.23 135.099C408.507 135.453 407.851 135.57 407.313 135.57C406.253 135.57 405.614 135.133 405.58 135.099C405.463 135.015 405.446 134.864 405.513 134.746C405.597 134.628 405.748 134.611 405.866 134.678C405.9 134.695 406.438 135.065 407.313 135.065C407.784 135.065 408.356 134.964 409.012 134.645C408.911 134.476 408.81 134.375 408.81 134.375C408.709 134.275 408.726 134.106 408.827 134.022C408.927 133.938 409.096 133.938 409.18 134.039C409.213 134.089 409.785 134.729 409.836 135.553Z" fill="#66B0F0"/>
<path d="M410.744 130.743C410.976 130.729 411.14 130.341 411.111 129.877C411.083 129.414 410.871 129.049 410.639 129.064C410.408 129.078 410.243 129.466 410.272 129.93C410.301 130.393 410.512 130.758 410.744 130.743Z" fill="#66B0F0"/>
<path d="M403.877 130.674C404.09 130.66 404.242 130.304 404.215 129.877C404.188 129.45 403.994 129.115 403.781 129.128C403.567 129.142 403.416 129.498 403.443 129.925C403.469 130.352 403.664 130.687 403.877 130.674Z" fill="#66B0F0"/>
<path d="M399.172 131.614C399.038 131.614 398.92 131.496 398.92 131.362C398.92 130.621 398.314 130.032 397.591 130.032C397.457 130.032 397.339 129.914 397.339 129.78C397.339 129.645 397.457 129.527 397.591 129.527C398.6 129.527 399.425 130.352 399.425 131.362C399.425 131.513 399.307 131.614 399.172 131.614Z" fill="#66B0F0"/>
<path d="M416.093 131.614C415.959 131.614 415.841 131.496 415.841 131.362C415.841 130.352 416.665 129.527 417.674 129.527C417.809 129.527 417.926 129.645 417.926 129.78C417.926 129.914 417.809 130.032 417.674 130.032C416.934 130.032 416.345 130.638 416.345 131.362C416.345 131.513 416.245 131.614 416.093 131.614Z" fill="#66B0F0"/>
<path d="M720.569 504.183L648.529 265.857C647.1 261.111 642.71 257.863 637.748 257.863H200.512C195.499 257.863 191.093 261.178 189.696 266.008L120.953 504.183" stroke="#66B0F0" stroke-width="6" stroke-miterlimit="10"/>
<path d="M320.287 177.32H511.531" stroke="#66B0F0" stroke-width="6" stroke-miterlimit="10"/>
<path d="M386.658 213.535H431.837V252.359H386.658C386.658 252.359 386.658 212.071 386.658 213.535Z" fill="#31C2E1"/>
<path d="M555.598 393.923L534.59 341.586H568.415L555.598 393.923Z" fill="#09385A"/>
<path d="M497.956 271.73C502.464 263.198 511.328 257.863 520.966 257.863H546.986L564.664 271.73H497.956Z" fill="#09385A"/>
<path d="M596.605 333.003H531.058L555.733 392.93C554.017 390.136 543.74 393.048 532.857 399.729C522.109 406.325 514.843 414.268 516.323 417.163L463.139 324.572C449.346 301.214 466.166 271.73 493.28 271.73H640.169L640.489 272.74C650.076 302.527 627.874 333.003 596.605 333.003Z" fill="#09385A"/>
<path d="M642.709 288.911C642.473 294.381 641.262 299.665 639.21 304.562L562.175 271.746H638.638L640.421 276.963C641.666 280.093 642.356 284.485 642.709 288.911Z" fill="#E6E6E6"/>
<path d="M555.75 392.928C557.465 395.721 549.964 403.345 539.098 410.026C528.215 416.707 518.107 420.056 516.391 417.262C514.675 414.468 521.992 406.576 532.875 399.895C543.74 393.214 554.017 390.134 555.75 392.928Z" fill="#66B0F0"/>
<path d="M531.613 399.93L483.777 315.316C480.026 308.618 484.853 300.338 492.54 300.338H585.706C598.254 300.338 607.623 288.777 605.032 276.492" stroke="white" stroke-width="6" stroke-miterlimit="10" stroke-linecap="round"/>
<path d="M515.836 417.453C514.12 414.659 521.538 405.774 532.875 399.16C545.607 391.739 553.849 389.534 556.305 393.472" stroke="white" stroke-width="6" stroke-miterlimit="10" stroke-linecap="round"/>
<path d="M556.675 393.84L525.424 319.289" stroke="white" stroke-width="6" stroke-miterlimit="10" stroke-linecap="round"/>
<path d="M491.447 271.176H567.692" stroke="white" stroke-width="6" stroke-miterlimit="10"/>
<path d="M534.573 421.121L530.031 414.928L523.774 406.412C526.331 404.258 529.409 402.02 532.857 399.9C539.72 395.693 546.33 392.899 550.72 392.125L553.764 398.2L557.566 405.773C554.875 415.348 534.573 421.121 534.573 421.121Z" fill="#E57281"/>
<path d="M553.781 398.2C550.955 401.65 545.64 406.009 539.097 410.031C535.952 411.966 532.874 413.615 530.048 414.928L523.791 406.412C526.348 404.258 529.426 402.02 532.874 399.9C539.736 395.693 546.347 392.899 550.737 392.125L553.781 398.2Z" fill="#31C2E1"/>
<path d="M578.355 439.138L532.201 472.307C528.282 475.033 522.193 477.305 523.001 467.444C524.127 453.846 527.138 433.618 534.573 421.098C534.892 421.014 554.874 415.241 557.566 405.75L578.607 420.711C584.663 425.423 584.528 434.611 578.355 439.138Z" fill="white" stroke="#09385A" stroke-width="6" stroke-miterlimit="10"/>
<path d="M532.437 425.489C536.103 426.179 556.691 418.876 559.887 407.617L532.437 425.489Z" fill="#31C2E1"/>
<path d="M532.437 425.489C536.103 426.179 556.691 418.876 559.887 407.617" stroke="#31C2E1" stroke-width="6" stroke-miterlimit="10" stroke-linecap="round"/>
<path d="M527.474 468.891C527.474 468.891 557.599 427.021 579.028 429.377C602.357 431.918 508.401 493.309 527.474 468.891Z" fill="#31C2E1"/>
<path d="M526.617 474.597C524.279 474.749 521.807 472.023 525.221 467.647C525.221 467.647 556.574 424.229 578.894 426.686C582.342 427.057 583.502 429.867 582.695 432.29" stroke="#09385A" stroke-width="6" stroke-miterlimit="10" stroke-linecap="round"/>
<path d="M642.877 292.328C632.213 289.804 605.671 283.157 575.395 276.156C561.166 272.875 549.257 263.181 543.118 249.92L515.55 190.246L532.235 163.792C537.365 155.647 546.112 150.464 555.716 149.875L572.132 148.865C588.683 147.855 601.971 158.188 607.017 173.99L640.405 271.73C644.071 280.885 642.877 292.328 642.877 292.328Z" fill="white" stroke="#31C2E1" stroke-width="6" stroke-miterlimit="10"/>
<path d="M530.065 193.594C530.065 193.594 538.845 207.393 558.844 210.439" stroke="#31C2E1" stroke-width="6" stroke-miterlimit="10"/>
<path d="M541.907 168.489C540.999 167.513 539.401 167.782 538.846 168.977C538.224 170.323 539.351 171.821 540.814 171.602C542.311 171.384 542.933 169.583 541.907 168.489Z" fill="#D4FFC0" stroke="#31C2E1" stroke-width="6" stroke-miterlimit="10" stroke-linejoin="round"/>
<path d="M583.806 197.247C582.897 196.271 581.299 196.54 580.744 197.735C580.122 199.081 581.249 200.579 582.712 200.36C584.209 200.141 584.832 198.341 583.806 197.247Z" fill="#D4FFC0" stroke="#31C2E1" stroke-width="6" stroke-miterlimit="10" stroke-linejoin="round"/>
<path d="M597.076 209.028C596.168 208.052 594.57 208.321 594.015 209.516C593.393 210.863 594.519 212.36 595.983 212.142C597.463 211.94 598.085 210.139 597.076 209.028Z" fill="#D4FFC0" stroke="#31C2E1" stroke-width="6" stroke-miterlimit="10" stroke-linejoin="round"/>
<path d="M622.525 275.684C621.617 274.708 620.019 274.978 619.464 276.173C618.842 277.519 619.969 279.017 621.432 278.798C622.912 278.579 623.535 276.795 622.525 275.684Z" fill="#D4FFC0" stroke="#31C2E1" stroke-width="6" stroke-miterlimit="10" stroke-linejoin="round"/>
<path d="M608.278 243.829C607.37 242.853 605.772 243.122 605.217 244.317C604.595 245.663 605.722 247.161 607.185 246.942C608.682 246.724 609.304 244.923 608.278 243.829Z" fill="#D4FFC0" stroke="#31C2E1" stroke-width="6" stroke-miterlimit="10" stroke-linejoin="round"/>
<path d="M614.182 220.908C612.87 221.077 612.147 222.541 612.803 223.685C613.543 224.981 615.41 224.931 616.082 223.601C616.772 222.255 615.662 220.707 614.182 220.908Z" fill="#D4FFC0" stroke="#31C2E1" stroke-width="6" stroke-miterlimit="10" stroke-linejoin="round"/>
<path d="M624.93 254.901C623.618 255.069 622.895 256.533 623.551 257.677C624.291 258.973 626.158 258.923 626.83 257.593C627.52 256.247 626.427 254.699 624.93 254.901Z" fill="#D4FFC0" stroke="#31C2E1" stroke-width="6" stroke-miterlimit="10" stroke-linejoin="round"/>
<path d="M580.357 218.231C579.449 217.255 577.851 217.525 577.296 218.719C576.674 220.066 577.801 221.563 579.264 221.345C580.744 221.126 581.367 219.342 580.357 218.231Z" fill="#D4FFC0" stroke="#31C2E1" stroke-width="6" stroke-miterlimit="10" stroke-linejoin="round"/>
<path d="M571.09 237.298C570.181 236.322 568.584 236.591 568.029 237.786C567.406 239.132 568.533 240.63 569.996 240.411C571.493 240.192 572.116 238.392 571.09 237.298Z" fill="#D4FFC0" stroke="#31C2E1" stroke-width="6" stroke-miterlimit="10" stroke-linejoin="round"/>
<path d="M554.505 230.636C555.481 229.728 555.212 228.129 554.017 227.574C552.672 226.951 551.175 228.078 551.393 229.542C551.612 231.023 553.395 231.646 554.505 230.636Z" fill="#D4FFC0" stroke="#31C2E1" stroke-width="6" stroke-miterlimit="10" stroke-linejoin="round"/>
<path d="M569.222 263.449C570.198 262.54 569.928 260.941 568.734 260.386C567.389 259.763 565.892 260.891 566.11 262.355C566.329 263.853 568.129 264.475 569.222 263.449Z" fill="#D4FFC0" stroke="#31C2E1" stroke-width="6" stroke-miterlimit="10" stroke-linejoin="round"/>
<path d="M593.998 235.296C594.974 234.388 594.705 232.789 593.511 232.234C592.165 231.611 590.668 232.739 590.887 234.203C591.105 235.684 592.905 236.323 593.998 235.296Z" fill="#D4FFC0" stroke="#31C2E1" stroke-width="6" stroke-miterlimit="10" stroke-linejoin="round"/>
<path d="M602.458 270.535C603.434 269.626 603.165 268.027 601.971 267.472C600.625 266.849 599.128 267.977 599.347 269.441C599.548 270.939 601.348 271.561 602.458 270.535Z" fill="#D4FFC0" stroke="#31C2E1" stroke-width="6" stroke-miterlimit="10" stroke-linejoin="round"/>
<path d="M551.729 199.165C550.821 198.189 549.223 198.458 548.668 199.653C548.046 200.999 549.173 202.497 550.636 202.278C552.133 202.059 552.755 200.259 551.729 199.165Z" fill="#D4FFC0" stroke="#31C2E1" stroke-width="6" stroke-miterlimit="10" stroke-linejoin="round"/>
<path d="M554.74 155.513C553.832 154.537 552.234 154.806 551.679 156.001C551.057 157.347 552.184 158.845 553.647 158.626C555.144 158.407 555.766 156.606 554.74 155.513Z" fill="#D4FFC0" stroke="#31C2E1" stroke-width="6" stroke-miterlimit="10" stroke-linejoin="round"/>
<path d="M583.806 155.513C582.897 154.537 581.299 154.806 580.744 156.001C580.122 157.347 581.249 158.845 582.712 158.626C584.209 158.407 584.832 156.606 583.806 155.513Z" fill="#D4FFC0" stroke="#31C2E1" stroke-width="6" stroke-miterlimit="10" stroke-linejoin="round"/>
<path d="M583.856 174.362C582.628 174.85 582.275 176.431 583.2 177.391C584.226 178.451 586.026 177.963 586.362 176.516C586.698 175.051 585.252 173.806 583.856 174.362Z" fill="#D4FFC0" stroke="#31C2E1" stroke-width="6" stroke-miterlimit="10" stroke-linejoin="round"/>
<path d="M567.338 163.624C566.06 163.994 565.572 165.525 566.38 166.569C567.305 167.73 569.138 167.41 569.609 166.013C570.097 164.583 568.768 163.203 567.338 163.624Z" fill="#D4FFC0" stroke="#31C2E1" stroke-width="6" stroke-miterlimit="10" stroke-linejoin="round"/>
<path d="M564.899 210.239C563.587 210.391 562.847 211.838 563.486 212.999C564.21 214.295 566.077 214.278 566.766 212.965C567.473 211.636 566.396 210.071 564.899 210.239Z" fill="#D4FFC0" stroke="#31C2E1" stroke-width="6" stroke-miterlimit="10" stroke-linejoin="round"/>
<path d="M550.485 245.294C549.173 245.445 548.433 246.892 549.072 248.054C549.796 249.349 551.663 249.333 552.352 248.02C553.059 246.691 551.982 245.125 550.485 245.294Z" fill="#D4FFC0" stroke="#31C2E1" stroke-width="6" stroke-miterlimit="10" stroke-linejoin="round"/>
<path d="M555.329 177.524C554.05 177.895 553.563 179.426 554.37 180.469C555.295 181.631 557.128 181.311 557.599 179.914C558.087 178.501 556.775 177.121 555.329 177.524Z" fill="#D4FFC0" stroke="#31C2E1" stroke-width="6" stroke-miterlimit="10" stroke-linejoin="round"/>
<path d="M569.255 186.948C567.977 187.318 567.489 188.85 568.297 189.893C569.222 191.054 571.055 190.734 571.526 189.338C572.014 187.907 570.702 186.527 569.255 186.948Z" fill="#D4FFC0" stroke="#31C2E1" stroke-width="6" stroke-miterlimit="10" stroke-linejoin="round"/>
<path d="M539.098 186.544C539.939 185.517 539.485 183.969 538.206 183.582C536.793 183.144 535.448 184.457 535.868 185.87C536.289 187.318 538.139 187.705 539.098 186.544Z" fill="#D4FFC0" stroke="#31C2E1" stroke-width="6" stroke-miterlimit="10" stroke-linejoin="round"/>
<path d="M602.862 186.594C603.703 185.568 603.249 184.02 601.971 183.632C600.558 183.195 599.212 184.508 599.633 185.921C600.037 187.368 601.904 187.755 602.862 186.594Z" fill="#D4FFC0" stroke="#31C2E1" stroke-width="6" stroke-miterlimit="10" stroke-linejoin="round"/>
<path d="M586.682 254.817C587.523 253.79 587.069 252.242 585.79 251.855C584.377 251.418 583.032 252.73 583.452 254.144C583.856 255.574 585.723 255.961 586.682 254.817Z" fill="#D4FFC0" stroke="#31C2E1" stroke-width="6" stroke-miterlimit="10" stroke-linejoin="round"/>
<path d="M573.259 148.308C572.889 148.324 572.519 148.341 572.132 148.358L555.716 149.368C551.528 149.62 547.525 150.748 543.892 152.616L538.846 137.504L561.334 121.012L573.259 148.308Z" fill="#E57281"/>
<path d="M543.824 152.381C548.5 150.261 552.234 146.491 554.354 141.813L562.528 123.722L561.334 120.996L538.846 137.488L543.824 152.381Z" fill="#73325A"/>
<path d="M562.781 122.529C562.781 124.094 562.142 125.508 561.116 126.534C560.09 127.561 558.677 128.2 557.113 128.2H552.168C550.217 135.79 542.664 140.99 534.54 139.56L530.823 138.903C526.753 138.18 523.977 134.376 524.549 130.287L528.906 108.46C529.662 103.799 534.456 100.955 538.913 102.554L546.129 105.448C550.031 106.794 552.655 110.463 552.655 114.586V116.69L557.113 116.858C560.241 116.858 562.781 119.399 562.781 122.529Z" fill="#E57281"/>
<path d="M554.405 123.624C554.405 121.453 556.155 119.703 558.324 119.703" stroke="#73325A" stroke-width="5" stroke-miterlimit="10" stroke-linecap="round"/>
<path d="M531.328 113.055C531.328 113.055 534.86 113.055 537.383 116.437" stroke="#73325A" stroke-width="5" stroke-miterlimit="10" stroke-linecap="round"/>
<path d="M533.676 119.353C533.854 118.375 533.627 117.514 533.17 117.431C532.713 117.348 532.199 118.074 532.021 119.053C531.843 120.031 532.07 120.892 532.527 120.975C532.984 121.058 533.498 120.332 533.676 119.353Z" fill="#73325A"/>
<path d="M557.112 116.857C560.241 116.857 562.781 119.398 562.781 122.528C562.781 122.545 562.781 122.579 562.781 122.612C565.304 118.725 571.493 108.83 571.493 105.481C571.493 100.987 565.892 96.4942 560.089 98.5473C560.476 98.2612 560.88 97.9583 561.301 97.6386C563.538 95.8884 564.715 94.5758 564.9 93.6334C564.967 93.2968 564.917 92.9939 564.749 92.7583C564.076 91.7991 563.336 91.3784 562.545 91.513C561.385 91.6981 560.19 93.1285 558.996 95.7538C558.458 96.9486 558.037 98.1266 557.802 98.8503C557.331 96.0399 555.06 86.7337 545.305 88.1641C541.941 88.6521 540.36 90.0489 539.922 91.5803C537.13 89.3926 533.396 87.6761 530.301 89.3084C524.952 92.1188 525.608 96.7298 528.703 99.9946C525.777 99.9441 523.725 100.802 523.725 103.276C523.725 105.548 526.063 106.642 529.275 107.079C532.488 107.517 536.609 107.281 540.175 106.877C542.714 106.591 545.002 106.238 546.465 105.986C545.49 107.988 545.103 109.705 545.187 111.152C545.338 114.147 547.508 115.914 550.569 116.537C551.225 116.672 551.932 116.756 552.655 116.79L557.112 116.857ZM562.646 92.1861C562.697 92.1693 562.747 92.1693 562.814 92.1693C563.285 92.1693 563.739 92.5059 564.194 93.1454C564.227 93.2127 564.278 93.3136 564.244 93.4988C563.975 94.8619 560.527 97.4535 558.525 98.8166C559.316 96.4942 560.981 92.4722 562.646 92.1861Z" fill="#4E4E4E"/>
<path d="M543.69 97.1669C542.529 97.1669 541.352 96.5442 540.494 95.4504C539.535 94.2387 539.215 92.741 539.619 91.4452C539.67 91.2769 539.838 91.1759 540.006 91.2096C540.073 91.2096 540.141 91.2264 540.191 91.2769C542.731 93.0944 544.766 95.686 544.463 96.7125C544.396 96.9818 544.177 97.1501 543.891 97.1669C543.824 97.1669 543.757 97.1669 543.69 97.1669ZM540.157 92.0847C540.006 93.0607 540.309 94.1377 541.015 95.0297C541.772 95.9889 542.815 96.5442 543.824 96.4769C543.858 96.0394 542.731 94.0368 540.157 92.0847Z" fill="white"/>
<path d="M510.487 245.761H402.839C400.182 245.761 398.584 242.833 399.997 240.595L414.327 218.078C416.194 215.15 419.407 213.383 422.872 213.383H495.736L510.487 245.761Z" fill="#E57281"/>
<path d="M425.243 213.401L433.821 199.265C434.326 198.424 435.251 197.902 436.227 197.902C438.43 197.902 439.776 200.309 438.632 202.194L431.82 213.401H425.243Z" fill="#FE5244"/>
<path d="M510.486 245.761H486.282C486.232 245.711 486.165 245.643 486.114 245.593C480.227 239.534 477.721 230.346 481.035 221.494L484.483 213.383H495.735L510.486 245.761Z" fill="#73325A"/>
<path d="M418.044 230.648H404.554C403.646 230.648 402.805 231.136 402.351 231.927L400.921 234.418C399.962 236.101 401.173 238.204 403.124 238.204H413.973C415.857 238.204 417.606 237.228 418.599 235.613L419.759 233.711C420.567 232.365 419.608 230.648 418.044 230.648Z" fill="#E57281"/>
<path d="M414.562 238.207H401.073C400.164 238.207 399.323 238.695 398.869 239.486L397.44 241.977C396.481 243.659 397.692 245.763 399.643 245.763H410.492C412.376 245.763 414.125 244.787 415.117 243.171L416.278 241.27C417.102 239.924 416.127 238.207 414.562 238.207Z" fill="#E57281"/>
<path d="M421.895 222.992H408.406C407.497 222.992 406.656 223.48 406.202 224.271L404.773 226.762C403.814 228.445 405.025 230.548 406.976 230.548H417.825C419.709 230.548 421.458 229.572 422.45 227.957L423.611 226.055C424.435 224.709 423.46 222.992 421.895 222.992Z" fill="#E57281"/>
<path d="M418.044 230.648H404.554C403.646 230.648 402.805 231.136 402.351 231.927L400.921 234.418C399.962 236.101 401.173 238.204 403.124 238.204H413.973C415.857 238.204 417.606 237.228 418.599 235.613L419.759 233.711C420.567 232.365 419.608 230.648 418.044 230.648Z" stroke="#73325A" stroke-width="5" stroke-miterlimit="10" stroke-linecap="round"/>
<path d="M414.562 238.207H401.073C400.164 238.207 399.323 238.695 398.869 239.486L397.44 241.977C396.481 243.659 397.692 245.763 399.643 245.763H410.492C412.376 245.763 414.125 244.787 415.117 243.171L416.278 241.27C417.102 239.924 416.127 238.207 414.562 238.207Z" stroke="#73325A" stroke-width="5" stroke-miterlimit="10" stroke-linecap="round"/>
<path d="M421.895 222.992H408.406C407.497 222.992 406.656 223.48 406.202 224.271L404.773 226.762C403.814 228.445 405.025 230.548 406.976 230.548H417.825C419.709 230.548 421.458 229.572 422.45 227.957L423.611 226.055C424.435 224.709 423.46 222.992 421.895 222.992Z" stroke="#73325A" stroke-width="5" stroke-miterlimit="10" stroke-linecap="round"/>
<path d="M441.423 234.25C437.37 234.25 433.468 232.786 430.406 230.11L425.293 225.634H420.584L419.372 226.93C417.203 229.252 414.528 230.582 411.349 230.582H409.095C407.918 230.582 407.195 229.269 407.834 228.276L413.502 219.391H441.44V234.25H441.423Z" fill="#E57281"/>
<path d="M413.502 219.391L407.834 228.276C407.195 229.269 407.918 230.582 409.095 230.582H411.349C414.528 230.582 417.203 229.269 419.372 226.93L420.584 225.634H425.293L430.406 230.11C433.451 232.769 437.37 234.25 441.423 234.25" stroke="#73325A" stroke-width="5" stroke-miterlimit="10" stroke-linecap="round"/>
<path d="M554.993 214.293L529.309 243.002C523.91 249.044 516.189 252.494 508.082 252.494C492.069 252.494 480.985 236.507 486.603 221.496L517.114 149.772L506.804 144C505.34 142.856 504.634 140.988 504.954 139.17L506.703 127.373C507.241 124.748 509.915 122.695 512.523 122.089L524.599 119.363C525.625 119.127 526.567 120.002 526.399 121.029L524.65 130.133C523.96 134.576 526.954 138.413 531.395 139.17C535.028 139.793 537.584 143.445 537.248 147.113L529.023 198.44C529.006 198.474 537.433 211.617 554.993 214.293Z" fill="#E57281"/>
<path d="M535.297 159.312L525.373 223.783" stroke="#73325A" stroke-width="5" stroke-miterlimit="10" stroke-linecap="round"/>
<path d="M514.726 128.23L514.592 132.404C514.541 134.12 515.567 135.635 517.047 136.056L532.505 139.186" stroke="#73325A" stroke-width="5" stroke-miterlimit="10" stroke-linecap="round"/>
<path d="M543.017 140.532L530.655 138.883C526.584 138.159 523.809 134.356 524.381 130.267L525.979 121.129C526.13 120.271 525.356 119.547 524.515 119.749L511.9 122.694" stroke="#73325A" stroke-width="5" stroke-miterlimit="10" stroke-linecap="round"/>
<path d="M536.188 235.26L569.627 198.035" stroke="#31C2E1" stroke-width="6" stroke-miterlimit="10"/>
<path d="M517.468 149.789H523.372" stroke="#73325A" stroke-width="5" stroke-miterlimit="10" stroke-linecap="round"/>
<path d="M514.743 129.34V130.687C514.743 132.285 515.904 133.598 517.333 133.598H519.184C519.991 133.598 520.63 132.874 520.63 131.966L520.748 123.181C520.765 121.818 519.318 120.977 518.141 121.263" stroke="#73325A" stroke-width="5" stroke-miterlimit="10" stroke-linecap="round"/>
<path d="M520.747 129.344V130.69C520.747 132.289 521.908 133.601 523.337 133.601H524.515" stroke="#73325A" stroke-width="5" stroke-miterlimit="10" stroke-linecap="round"/>
<path d="M632.448 341.586L651.976 504.184" stroke="#66B0F0" stroke-width="6" stroke-miterlimit="10"/>
<path d="M547.81 341.586L528.282 504.184" stroke="#66B0F0" stroke-width="6" stroke-miterlimit="10"/>
<path d="M534.977 448.344H645.265" stroke="#66B0F0" stroke-width="6" stroke-miterlimit="10"/>
<path d="M536.558 342.09H642.692C644.105 342.09 645.248 340.946 645.248 339.532V336.066C645.248 334.652 644.105 333.508 642.692 333.508H536.558C535.145 333.508 534.001 334.652 534.001 336.066V339.532C534.001 340.946 535.145 342.09 536.558 342.09Z" fill="white" stroke="#09385A" stroke-width="6" stroke-miterlimit="10"/>
<path d="M359.948 219.043L343.7 252.498H294.603L314.332 219.043H359.948Z" fill="white" stroke="#3FB1B5" stroke-width="5" stroke-miterlimit="10"/>
<path d="M349.184 227.206C349.184 227.206 347.047 223.554 341.917 224.496C338.082 225.186 333.541 228.35 330.749 226.65C327.957 224.951 325.484 222.83 321.868 223.84C318.252 224.85 315.577 226.785 315.577 226.785" stroke="#3FB1B5" stroke-width="5" stroke-miterlimit="10"/>
<path d="M347.501 232.42C347.501 232.42 345.365 228.769 340.235 229.711C336.4 230.401 331.858 233.565 329.066 231.865C326.274 230.165 323.802 228.045 320.185 229.055C316.569 230.064 313.895 232 313.895 232" stroke="#3FB1B5" stroke-width="5" stroke-miterlimit="10"/>
<path d="M378.417 369.183C378.417 373.676 365.953 377.311 350.344 377.311C334.735 377.311 322.642 373.676 322.642 369.183C322.642 364.69 334.735 361.055 350.344 361.055C365.953 361.055 378.417 364.706 378.417 369.183Z" fill="#31C2E1"/>
<path d="M371.234 363.714V421.772L369.468 413.392C367.567 404.371 359.611 397.926 350.394 397.926C347.619 397.926 344.894 398.515 342.421 399.626C342.337 399.659 342.253 399.71 342.152 399.744L335.677 376.116L332.077 362.973C337.005 361.778 343.38 361.055 350.344 361.055C358.619 361.055 366.07 362.081 371.234 363.714Z" fill="#A0505A"/>
<path d="M371.234 363.713V374.651C366.07 376.284 358.619 377.31 350.344 377.31C344.978 377.31 339.966 376.873 335.677 376.132L332.077 362.989C337.005 361.794 343.38 361.071 350.344 361.071C358.619 361.054 366.07 362.08 371.234 363.713Z" fill="#73325A"/>
<path d="M369.989 420.074C370.444 420.208 374.716 421.403 378.5 421.403C380.552 421.403 382.453 421.05 383.53 419.973C384.455 419.047 384.673 417.701 384.186 416.001C383.748 414.487 382.907 413.544 381.679 413.208C379.426 412.602 376.297 414.285 373.824 416.052C377.676 411.373 381.478 405.433 380.065 401.546C379.56 400.166 378.416 399.24 376.987 399.072C375.792 398.937 374.682 399.358 374.161 400.149C371.739 403.834 369.754 418.963 369.67 419.603L369.989 420.074ZM374.867 400.62C375.17 400.166 375.809 399.896 376.549 399.896C376.667 399.896 376.785 399.896 376.903 399.913C377.441 399.98 378.736 400.283 379.291 401.832C379.661 402.858 379.796 404.743 378.299 407.907C376.886 410.902 374.329 414.419 370.696 418.408C371.234 414.571 372.95 403.531 374.867 400.62ZM382.941 419.384C381.831 420.494 379.308 420.831 375.624 420.36C373.69 420.107 371.89 419.704 370.931 419.451C371.655 418.812 373 417.65 374.565 416.573C377.558 414.503 379.947 413.612 381.478 414.032C382.403 414.285 383.025 415.008 383.395 416.237C383.799 417.65 383.647 418.677 382.941 419.384Z" fill="#09385A"/>
<path d="M335.845 404.458L331.96 408.817C327.553 413.764 326.83 420.967 330.177 426.689L347.283 456.038C350.63 461.776 356.769 465.293 363.396 465.293H370.478C375.608 465.293 379.426 460.581 378.366 455.566L369.452 413.411C367.551 404.391 359.595 397.945 350.378 397.945C344.844 397.929 339.546 400.301 335.845 404.458Z" fill="white" stroke="#3FB1B5" stroke-width="5" stroke-miterlimit="10"/>
<path d="M349.083 417.147L371.168 459.959C372.21 461.894 373.506 463.14 374.986 463.931C373.707 464.789 372.16 465.31 370.478 465.31H363.397C356.753 465.31 350.614 461.776 347.283 456.055L330.177 426.689C329.488 425.494 328.966 424.249 328.613 422.953C326.191 413.95 336.434 406.882 344.121 412.166C345.87 413.361 347.586 414.976 349.083 417.147Z" fill="#3FB1B5"/>
<path d="M349.133 417.245H328.747C328.848 416.925 328.966 416.622 329.1 416.336H348.477C348.679 416.605 348.881 416.874 349.082 417.161L349.133 417.245Z" fill="white"/>
<path d="M352.127 423.034H328.646C328.646 423 328.629 422.966 328.629 422.95C328.562 422.68 328.495 422.394 328.444 422.125H351.673L352.127 423.034Z" fill="white"/>
<path d="M355.121 428.84H331.439L330.9 427.914H354.65L355.121 428.84Z" fill="white"/>
<path d="M358.115 434.644H334.819L334.281 433.719H357.644L358.115 434.644Z" fill="white"/>
<path d="M361.109 440.432H338.2L337.662 439.523H360.638L361.109 440.432Z" fill="white"/>
<path d="M364.103 446.238H341.581L341.043 445.312H363.615L364.103 446.238Z" fill="white"/>
<path d="M367.097 452.043H344.962L344.424 451.117H366.609L367.097 452.043Z" fill="white"/>
<path d="M370.074 457.838H348.477C348.258 457.536 348.04 457.233 347.838 456.93H369.603L370.074 457.838Z" fill="white"/>
<path d="M374.497 463.643H355.726C355.121 463.374 354.532 463.071 353.96 462.734H373.286C373.673 463.071 374.077 463.374 374.497 463.643Z" fill="white"/>
<path d="M309.522 367.987C309.371 372.429 296.772 376.031 281.264 376.031C265.756 376.031 253.158 372.446 253.007 367.987V333H309.522V367.987Z" fill="#73325A"/>
<path d="M305.771 373.789L305.687 377.946L304.88 418.519V417.341C304.88 406.925 296.436 398.477 286.024 398.477H284.881C279.566 398.477 274.772 400.546 271.223 403.879L268.75 387.151L267.22 376.801C271.357 377.491 276.151 377.878 281.248 377.878C291.743 377.862 300.877 376.212 305.771 373.789Z" fill="#A0505A"/>
<path d="M305.771 373.789L305.687 377.946C299.43 382.388 280.104 387.858 268.767 387.134L267.236 376.785C271.374 377.458 276.168 377.862 281.264 377.862C291.743 377.862 300.876 376.212 305.771 373.789Z" fill="#73325A"/>
<path d="M286.882 465.841H290.01C298.219 465.841 304.879 459.177 304.879 450.965V417.341C304.879 406.925 296.436 398.477 286.024 398.477H284.88C272.77 398.477 263.435 409.163 265.066 421.178L269.019 450.258C270.247 459.177 277.866 465.841 286.882 465.841Z" fill="white" stroke="#3FB1B5" stroke-width="5" stroke-miterlimit="10"/>
<path d="M300.203 461.789C297.546 464.296 293.946 465.845 290.01 465.845H286.882C277.866 465.845 270.247 459.181 269.036 450.261L265.083 421.182C265.016 420.626 264.948 420.071 264.932 419.532C265.941 413.087 271.508 408.156 278.236 408.156C281.55 408.156 284.611 409.368 286.983 411.387C289.354 413.407 291.019 416.251 291.541 419.532L296.738 455.024C297.125 457.666 298.37 460.022 300.203 461.789Z" fill="#3FB1B5"/>
<path d="M289.976 415.034H266.479C266.647 414.714 266.849 414.411 267.05 414.125H289.421C289.623 414.411 289.808 414.714 289.976 415.034Z" fill="white"/>
<path d="M291.726 420.823H265.032C264.999 420.52 264.965 420.217 264.948 419.914H291.591L291.726 420.823Z" fill="white"/>
<path d="M292.584 426.627H265.823L265.688 425.719H292.449L292.584 426.627Z" fill="white"/>
<path d="M293.424 432.433H266.613L266.479 431.508H293.29L293.424 432.433Z" fill="white"/>
<path d="M294.282 438.221H267.404L267.27 437.312H294.148L294.282 438.221Z" fill="white"/>
<path d="M295.123 444.034H268.177L268.06 443.125H294.988L295.123 444.034Z" fill="white"/>
<path d="M295.981 449.832H268.968L268.851 448.906H295.847L295.981 449.832Z" fill="white"/>
<path d="M296.839 455.627H270.633C270.482 455.325 270.347 455.022 270.229 454.719H296.687L296.738 455.022C296.771 455.224 296.805 455.426 296.839 455.627Z" fill="white"/>
<path d="M299.85 461.432H275.074C274.738 461.146 274.401 460.826 274.099 460.523H299.076C299.312 460.843 299.581 461.146 299.85 461.432Z" fill="white"/>
<path d="M321.75 186.141V214.48C320.522 211.266 310.8 211.72 300.102 215.776C290.935 219.259 284.056 224.038 283.047 227.354V187.47C283.047 175.606 289.388 165.004 299.127 159.215C311.775 161.419 321.75 172.442 321.75 186.141Z" fill="#09385A"/>
<path d="M282.307 160.492C273.695 166.483 268.212 176.429 268.212 187.468V220.368H220.325L226.935 191.894C229.744 179.761 238.524 170.084 249.962 165.961L282.307 160.492Z" fill="#09385A"/>
<path d="M379.157 301.316V367.368C379.157 362.875 365.953 359.24 350.344 359.24C334.735 359.24 322.087 362.875 322.087 367.368V335.713C322.087 334.232 320.875 333.021 319.395 333.021H233.546C207.727 333.021 188.637 308.973 194.473 283.814L215.195 194.488C218.492 180.234 230.031 169.38 244.445 166.923L249.962 165.98C238.525 170.103 229.745 179.78 226.936 191.913L220.326 220.387H268.212V187.47C268.212 176.431 273.712 166.468 282.307 160.494L289.876 159.215C291.44 158.946 292.971 158.828 294.502 158.828C294.704 158.828 294.889 158.828 295.09 158.828C295.275 158.828 295.46 158.845 295.629 158.845C295.662 158.845 295.696 158.845 295.73 158.845C295.864 158.845 296.016 158.862 296.15 158.862C296.167 158.862 296.201 158.862 296.217 158.862C296.301 158.862 296.386 158.879 296.453 158.879C296.604 158.895 296.739 158.895 296.89 158.912C297.058 158.929 297.243 158.946 297.412 158.963C297.58 158.98 297.731 158.996 297.899 159.013C297.933 159.013 297.967 159.03 298.017 159.03C298.185 159.047 298.37 159.081 298.539 159.097C298.555 159.097 298.572 159.097 298.572 159.097C298.757 159.131 298.942 159.148 299.127 159.182C289.388 164.971 283.047 175.573 283.047 187.437V268.298H346.19C364.389 268.332 379.157 283.09 379.157 301.316Z" fill="#31C2E1"/>
<path d="M283.4 159.754C274.789 165.745 268.195 176.431 268.195 187.471V220.37H220.309L226.919 191.896C229.728 179.763 237.768 169.902 249.222 165.779" stroke="white" stroke-width="6" stroke-miterlimit="10" stroke-linecap="round"/>
<path d="M322.087 325.565C322.087 316.191 325.4 307.121 331.439 299.969" stroke="white" stroke-width="6" stroke-miterlimit="10" stroke-linecap="round"/>
<path d="M252.132 322.217C252.048 322.217 251.964 322.2 251.897 322.149L249.677 320.938C249.424 320.803 249.34 320.5 249.475 320.248C249.609 319.995 249.912 319.911 250.164 320.046L252.385 321.258C252.637 321.392 252.721 321.695 252.586 321.947C252.486 322.116 252.317 322.217 252.132 322.217ZM254.353 321.645C254.168 321.645 253.999 321.544 253.915 321.375C253.781 321.123 253.865 320.82 254.117 320.685L256.337 319.474C256.59 319.339 256.892 319.44 257.027 319.676C257.162 319.928 257.077 320.231 256.825 320.366L254.605 321.577C254.521 321.611 254.437 321.645 254.353 321.645ZM247.692 319.81C247.608 319.81 247.524 319.793 247.456 319.743L245.236 318.531C244.984 318.397 244.9 318.094 245.034 317.841C245.169 317.589 245.472 317.505 245.724 317.639L247.944 318.851C248.196 318.986 248.281 319.289 248.146 319.541C248.045 319.709 247.877 319.81 247.692 319.81ZM258.776 319.221C258.591 319.221 258.423 319.12 258.339 318.952C258.204 318.7 258.288 318.397 258.541 318.262L260.761 317.05C261.148 316.848 261.501 316.613 261.854 316.36C262.073 316.192 262.393 316.243 262.561 316.461C262.729 316.68 262.678 317 262.46 317.168C262.073 317.454 261.669 317.707 261.249 317.942L259.029 319.154C258.944 319.204 258.86 319.221 258.776 319.221ZM243.302 317.32C243.201 317.32 243.1 317.286 242.999 317.219C242.293 316.697 241.637 316.091 241.082 315.401C240.897 315.182 240.93 314.863 241.149 314.694C241.368 314.509 241.687 314.543 241.855 314.762C242.36 315.384 242.949 315.923 243.588 316.394C243.806 316.562 243.857 316.882 243.706 317.101C243.621 317.252 243.47 317.32 243.302 317.32ZM263.974 315.553C263.856 315.553 263.755 315.519 263.654 315.435C263.435 315.267 263.402 314.947 263.587 314.728C264.091 314.105 264.512 313.432 264.848 312.692C264.966 312.439 265.269 312.322 265.521 312.439C265.773 312.557 265.891 312.86 265.773 313.112C265.403 313.92 264.932 314.678 264.377 315.351C264.26 315.485 264.125 315.553 263.974 315.553ZM240.14 313.466C239.955 313.466 239.77 313.365 239.686 313.18C239.315 312.372 239.046 311.531 238.878 310.656C238.828 310.386 239.013 310.117 239.282 310.067C239.551 310.016 239.82 310.201 239.871 310.47C240.022 311.261 240.257 312.019 240.594 312.742C240.712 312.995 240.594 313.298 240.342 313.415C240.274 313.449 240.207 313.466 240.14 313.466ZM266.059 311.009C266.026 311.009 265.992 311.009 265.975 311.009C265.706 310.958 265.521 310.689 265.572 310.42C265.672 309.865 265.723 309.309 265.723 308.754V307.997C265.723 307.71 265.942 307.492 266.227 307.492C266.513 307.492 266.732 307.71 266.732 307.997V308.754C266.732 309.377 266.682 309.999 266.564 310.605C266.513 310.841 266.295 311.009 266.059 311.009ZM239.215 308.552C238.929 308.552 238.71 308.333 238.71 308.047V305.523C238.71 305.237 238.929 305.018 239.215 305.018C239.501 305.018 239.719 305.237 239.719 305.523V308.047C239.719 308.316 239.484 308.552 239.215 308.552ZM266.211 305.977C265.925 305.977 265.706 305.758 265.706 305.472V302.948C265.706 302.662 265.925 302.443 266.211 302.443C266.497 302.443 266.715 302.662 266.715 302.948V305.472C266.715 305.758 266.497 305.977 266.211 305.977ZM239.215 303.503C238.929 303.503 238.71 303.285 238.71 302.999V300.474C238.71 300.188 238.929 299.969 239.215 299.969C239.501 299.969 239.719 300.188 239.719 300.474V302.999C239.719 303.268 239.484 303.503 239.215 303.503ZM266.211 300.929C265.925 300.929 265.706 300.71 265.706 300.424V297.899C265.706 297.613 265.925 297.395 266.211 297.395C266.497 297.395 266.715 297.613 266.715 297.899V300.424C266.715 300.71 266.497 300.929 266.211 300.929ZM239.215 298.455C238.929 298.455 238.71 298.236 238.71 297.95V295.426C238.71 295.14 238.929 294.921 239.215 294.921C239.501 294.921 239.719 295.14 239.719 295.426V297.95C239.719 298.219 239.484 298.455 239.215 298.455ZM266.211 295.88C265.925 295.88 265.706 295.661 265.706 295.375V292.851C265.706 292.565 265.925 292.346 266.211 292.346C266.497 292.346 266.715 292.565 266.715 292.851V295.375C266.715 295.661 266.497 295.88 266.211 295.88ZM239.215 293.406C238.929 293.406 238.71 293.187 238.71 292.901V290.73H240.072C240.358 290.73 240.577 290.949 240.577 291.235C240.577 291.521 240.358 291.74 240.072 291.74H239.719V292.901C239.719 293.171 239.484 293.406 239.215 293.406ZM265.302 291.74H262.779C262.493 291.74 262.275 291.521 262.275 291.235C262.275 290.949 262.493 290.73 262.779 290.73H265.302C265.588 290.73 265.807 290.949 265.807 291.235C265.807 291.521 265.588 291.74 265.302 291.74ZM260.256 291.74H257.733C257.447 291.74 257.229 291.521 257.229 291.235C257.229 290.949 257.447 290.73 257.733 290.73H260.256C260.542 290.73 260.761 290.949 260.761 291.235C260.761 291.521 260.542 291.74 260.256 291.74ZM255.21 291.74H252.687C252.401 291.74 252.183 291.521 252.183 291.235C252.183 290.949 252.401 290.73 252.687 290.73H255.21C255.496 290.73 255.715 290.949 255.715 291.235C255.715 291.521 255.496 291.74 255.21 291.74ZM250.164 291.74H247.641C247.355 291.74 247.137 291.521 247.137 291.235C247.137 290.949 247.355 290.73 247.641 290.73H250.164C250.45 290.73 250.669 290.949 250.669 291.235C250.669 291.521 250.45 291.74 250.164 291.74ZM245.118 291.74H242.595C242.309 291.74 242.091 291.521 242.091 291.235C242.091 290.949 242.309 290.73 242.595 290.73H245.118C245.404 290.73 245.623 290.949 245.623 291.235C245.623 291.521 245.404 291.74 245.118 291.74Z" fill="white"/>
<path d="M204.531 319.423C204.346 319.423 204.178 319.322 204.094 319.154C203.959 318.902 204.043 318.599 204.296 318.464L206.348 317.336C206.398 317.303 206.449 317.286 206.499 317.252C206.735 317.118 207.054 317.202 207.189 317.437C207.323 317.673 207.239 317.993 207.004 318.127C206.953 318.161 206.903 318.195 206.836 318.212L204.783 319.339C204.699 319.406 204.615 319.423 204.531 319.423ZM208.787 316.731C208.652 316.731 208.518 316.68 208.417 316.562C208.232 316.36 208.248 316.041 208.45 315.856C209.039 315.317 209.56 314.694 210.015 314.038C210.166 313.802 210.485 313.752 210.721 313.903C210.956 314.055 211.007 314.375 210.856 314.61C210.368 315.334 209.779 316.007 209.14 316.613C209.022 316.697 208.904 316.731 208.787 316.731ZM211.596 312.591C211.528 312.591 211.478 312.574 211.411 312.557C211.158 312.456 211.024 312.17 211.125 311.901C211.411 311.144 211.612 310.369 211.73 309.578C211.764 309.309 212.016 309.107 212.302 309.141C212.571 309.175 212.773 309.427 212.739 309.713C212.622 310.588 212.403 311.446 212.083 312.271C211.982 312.473 211.797 312.591 211.596 312.591ZM212.319 307.643C212.033 307.643 211.814 307.424 211.814 307.138V304.614C211.814 304.328 212.033 304.109 212.319 304.109C212.605 304.109 212.823 304.328 212.823 304.614V307.138C212.823 307.408 212.605 307.643 212.319 307.643ZM212.319 302.595C212.033 302.595 211.814 302.376 211.814 302.09V299.565C211.814 299.279 212.033 299.061 212.319 299.061C212.605 299.061 212.823 299.279 212.823 299.565V302.09C212.823 302.359 212.605 302.595 212.319 302.595ZM212.319 297.546C212.033 297.546 211.814 297.327 211.814 297.041V294.517C211.814 294.231 212.033 294.012 212.319 294.012C212.605 294.012 212.823 294.231 212.823 294.517V297.041C212.823 297.31 212.605 297.546 212.319 297.546ZM212.319 292.497C212.033 292.497 211.814 292.279 211.814 291.993V291.74H210.553C210.267 291.74 210.048 291.521 210.048 291.235C210.048 290.949 210.267 290.73 210.553 290.73H212.823V291.993C212.823 292.262 212.605 292.497 212.319 292.497ZM208.03 291.74H205.507C205.221 291.74 205.002 291.521 205.002 291.235C205.002 290.949 205.221 290.73 205.507 290.73H208.03C208.316 290.73 208.534 290.949 208.534 291.235C208.534 291.521 208.299 291.74 208.03 291.74ZM202.984 291.74H200.461C200.175 291.74 199.956 291.521 199.956 291.235C199.956 290.949 200.175 290.73 200.461 290.73H202.984C203.27 290.73 203.488 290.949 203.488 291.235C203.488 291.521 203.253 291.74 202.984 291.74ZM197.938 291.74H195.415C195.129 291.74 194.91 291.521 194.91 291.235C194.91 290.949 195.129 290.73 195.415 290.73H197.938C198.224 290.73 198.442 290.949 198.442 291.235C198.442 291.521 198.207 291.74 197.938 291.74Z" fill="white"/>
<path d="M321.75 214.481C322.978 217.695 315.207 223.4 304.526 227.456C293.846 231.512 284.275 232.134 283.047 228.903C281.819 225.672 289.405 219.85 300.103 215.794C310.8 211.738 320.522 211.25 321.75 214.481Z" fill="#31C2E1"/>
<path d="M327.722 318.89V320.674C327.167 320.539 326.578 320.472 325.989 320.472H323.819C320.607 320.472 317.865 318.419 316.822 315.558L322.978 314.733C325.485 314.397 327.722 316.349 327.722 318.89Z" fill="#73325A"/>
<path d="M333.406 327.889V341.587C333.406 344.784 330.816 347.376 327.62 347.376H321.178C319.58 347.376 318.134 346.737 317.091 345.676C316.048 344.633 315.392 343.186 315.392 341.587H319.58C320.959 341.587 322.07 340.476 322.07 339.096V335.512C322.07 334.132 320.959 333.021 319.58 333.021H298.168C289.809 333.021 283.03 326.239 283.03 317.876V227.371C284.039 224.056 290.919 219.26 300.086 215.793C306.343 213.421 312.28 212.276 316.368 212.377V313.046C316.368 317.152 319.698 320.484 323.802 320.484H325.972C330.076 320.467 333.406 323.782 333.406 327.889Z" fill="#A0505A"/>
<path d="M316.368 212.362V221.516C313.323 223.569 309.202 225.673 304.509 227.44C293.812 231.496 284.258 232.118 283.03 228.887V227.356C284.039 224.041 290.919 219.244 300.086 215.778C306.36 213.405 312.28 212.261 316.368 212.362Z" fill="#73325A"/>
<path d="M288.396 144.188L282.072 160.494L249.475 166.334L257.986 144.188H288.396Z" fill="#A0505A"/>
<path d="M288.396 144.188L284.981 153.006L252.653 158.054L257.985 144.188H288.396Z" fill="#73325A"/>
<path d="M307.504 111C307.504 113.205 303.686 115.645 299.279 117.698C293.274 120.509 286.193 122.646 286.193 122.646L281.416 131.649C287.908 135.099 290.448 141.292 291.458 145.617C292.097 148.377 292.097 150.346 292.097 150.346H246.313C246.313 150.346 234.286 111.371 263.267 102.048C280.995 96.3428 307.504 105.767 307.504 111Z" fill="#4E4E4E" stroke="#09385A" stroke-width="6" stroke-miterlimit="10" stroke-linecap="round"/>
<path d="M259.029 107.602C265.318 107.602 270.416 102.501 270.416 96.2094C270.416 89.9172 265.318 84.8164 259.029 84.8164C252.74 84.8164 247.642 89.9172 247.642 96.2094C247.642 102.501 252.74 107.602 259.029 107.602Z" fill="white" stroke="#09385A" stroke-width="6" stroke-miterlimit="10" stroke-linecap="round"/>
<path d="M291.441 145.614C290.499 141.525 288.144 135.702 282.341 132.185H280.844C279.465 132.185 278.204 131.63 277.295 130.721C276.387 129.812 275.832 128.55 275.832 127.17C275.832 124.394 278.069 122.155 280.844 122.155L287.186 122.29H287.354C287.471 122.256 287.589 122.206 287.724 122.172C289.439 121.802 294.872 120.489 299.38 118.234L299.901 121.348L301.583 131.327C302.727 138.176 298.034 144.487 291.441 145.614Z" fill="#A0505A"/>
<path d="M299.885 121.332C294.368 123.57 287.169 122.274 287.169 122.274C287.169 122.274 293.947 120.928 299.363 118.219L299.885 121.332Z" fill="#73325A"/>
<path d="M284.746 128.131C284.746 126.212 283.199 124.664 281.281 124.664" stroke="#73325A" stroke-width="5" stroke-miterlimit="10" stroke-linecap="round"/>
<path d="M302.559 341.586L322.087 504.184" stroke="#66B0F0" stroke-width="6" stroke-miterlimit="10"/>
<path d="M217.903 341.586L198.392 504.184" stroke="#66B0F0" stroke-width="6" stroke-miterlimit="10"/>
<path d="M205.086 448.344H315.375" stroke="#66B0F0" stroke-width="6" stroke-miterlimit="10"/>
<path d="M200.932 341.583H319.529C320.942 341.583 322.086 340.438 322.086 339.025V335.558C322.086 334.144 320.942 333 319.529 333H200.932C199.519 333 198.375 334.144 198.375 335.558V339.025C198.392 340.438 199.536 341.583 200.932 341.583Z" fill="white" stroke="#09385A" stroke-width="6" stroke-miterlimit="10"/>
</svg>
