<svg width="432" height="512" viewBox="0 0 432 512" fill="none" stroke="currentColor" stroke-width="2" stroke-linecap="round" stroke-linejoin="round" xmlns="http://www.w3.org/2000/svg">
<path fill-rule="evenodd" clip-rule="evenodd" d="M153.02 1.75201C151.106 2.71301 148.518 5.02901 147.27 6.89801C145.013 10.276 145 10.507 145.004 46.898C145.007 81.657 145.108 83.664 146.995 86.759C153.095 96.765 167.276 96.292 172.771 85.9C175.091 81.513 175.092 81.493 174.796 46.006C174.517 12.574 174.383 10.305 172.5 7.15501C168.649 0.713013 159.911 -1.70999 153.02 1.75201ZM73.415 49.421C67.247 52.107 63.49 59.807 65.026 66.615C65.666 69.453 68.297 72.783 76.182 80.735C87.547 92.197 90.173 94 95.5 94C103.306 94 109.122 88.57 109.777 80.671C110.373 73.488 109.134 71.418 97.276 59.797C85.006 47.771 81.103 46.074 73.415 49.421ZM234.5 49.421C229.578 51.623 210.366 71.937 209.525 75.828C207.15 86.827 216.257 95.675 227.736 93.522C230.689 92.968 233.648 90.692 241.857 82.66C247.569 77.072 252.862 71.052 253.621 69.282C258.916 56.926 246.515 44.045 234.5 49.421ZM339.773 53.555C326.821 56.695 328.667 55.038 244.858 138.726C182.605 200.889 166.099 216.864 165.654 215.377C165.344 214.345 163.044 204.5 160.542 193.5C154.695 167.797 151.092 159.956 140.094 149.006C131.467 140.416 122.059 135.15 110.5 132.44C100.905 130.191 85.99 130.912 76.5 134.085C68.328 136.816 56.027 144.847 51.597 150.343L48.5 154.185L48.235 250.313L47.97 346.44L24.575 369.97C4.85097 389.808 1.07298 394.076 0.493976 397.172C-1.05602 405.459 -2.20802 404.086 51.846 458.353C80.796 487.417 103.879 509.804 105.718 510.603C108.379 511.758 121.794 511.997 183.218 511.983C266.529 511.963 265.304 512.053 280 504.898C288.495 500.762 288.541 500.719 356.083 433.13C418.13 371.04 423.925 364.959 426.824 358.897C435.731 340.268 432.244 319.155 417.881 304.741C412.776 299.618 401.809 293.003 398.417 293.001C397.706 293 397.339 289.307 397.348 282.25C397.366 268.26 394.866 261.105 386.17 250.255C382.151 245.242 372.449 238.514 366.792 236.82L362.779 235.617L363.435 228.962C364.239 220.799 362.262 210.423 358.478 202.957C355.153 196.395 346.998 187.648 341.014 184.226C338.531 182.806 336.303 181.49 336.062 181.301C335.821 181.112 347.794 168.704 362.668 153.729C392.683 123.51 394.819 120.564 397.132 106.21C400.275 86.7 389.547 66.279 371.509 57.434C360.46 52.017 350.926 50.851 339.773 53.555ZM358.03 84.25C365.75 88.15 369.195 95.771 366.999 104.091C365.946 108.078 359.445 114.907 299.018 175.5C228.067 246.645 228.865 245.742 225.492 258.693C218.765 284.519 236.214 311.126 263.126 316.08L269.751 317.3L270.31 322.71C270.971 329.12 275.698 339.706 280.536 345.609C287.132 353.659 303.094 362 311.902 362C314.432 362 314.66 362.388 315.697 368.443C317.873 381.142 325.325 392.746 335.637 399.49C338.862 401.599 341.705 403.494 341.956 403.701C342.206 403.909 326.231 420.275 306.456 440.071C277.686 468.871 269.401 476.607 265 478.782L259.5 481.5L188.531 481.776L117.561 482.052L77.281 441.781C55.126 419.631 37 401.053 37 400.495C37 399.937 45.58 390.935 56.067 380.49C66.554 370.046 75.779 360.285 76.567 358.8C77.782 356.51 78 341.646 78 261.16V166.22L82.75 163.88C89.702 160.455 103.42 160.476 110.423 163.923C116.341 166.836 122.171 172.455 124.974 177.948C126.105 180.165 130.622 197.535 135.011 216.548C139.401 235.561 143.513 252.103 144.151 253.308C144.788 254.514 149.627 260.043 154.905 265.596C170.813 282.333 175.875 293.212 176.74 312.519C177.108 320.717 176.819 325.197 175.612 330.019C173.258 339.423 166.91 351.571 160.589 358.765C152.464 368.014 151.785 376.231 158.614 382.672C165.398 389.071 173.824 388.112 181.538 380.063C191.492 369.676 199.152 356.218 203.613 341.282C207.328 328.842 208.017 309.483 205.225 295.99C201.846 279.656 193.453 262.956 182.834 251.436L178.63 246.875L259.065 166.425C311.082 114.398 340.913 85.273 343.5 83.988C348.695 81.408 352.542 81.478 358.03 84.25ZM324.03 209.25C331.673 213.111 335.162 220.932 332.947 229.235C331.966 232.913 328.278 237.03 306.155 259.138C278.412 286.863 277.069 287.837 268.383 286.535C260.674 285.379 254 277.706 254 270C254 263.365 256.854 259.72 281.286 235.147C310.577 205.686 313.487 203.924 324.03 209.25ZM357.282 265.371C364.189 268.314 368.615 276.349 367.503 283.926C366.869 288.25 365.73 289.611 346.666 308.826C335.575 320.005 325.285 329.793 323.8 330.576C320.301 332.421 312.675 332.4 309.069 330.536C300.491 326.1 297.107 314.931 301.78 306.476C303.571 303.235 340.249 267.337 343.5 265.643C347.246 263.692 353.07 263.577 357.282 265.371ZM391.316 322.12C395.195 324.109 399.933 329.267 401.083 332.753C401.742 334.748 401.919 338.08 401.512 340.825C400.864 345.195 399.867 346.461 386.209 360.244C369.368 377.238 366.056 379.23 358.14 377.119C348.016 374.419 342.433 363.883 346.065 354.33C347.441 350.71 373.572 324.189 377.5 322.425C381.186 320.77 388.374 320.611 391.316 322.12Z" fill="#eb8ed0"/>
</svg>
