<svg width="512" height="512" viewBox="0 0 512 512" fill="#3fc7e3" stroke="currentColor" stroke-width="2" stroke-linecap="round" stroke-linejoin="round" xmlns="http://www.w3.org/2000/svg">
<path d="M242.688 23.552H269.312L283.648 26.624L296.96 31.744L311.296 39.936L322.56 48.128L329.728 55.296L338.944 67.584L342.016 74.752L349.184 92.16L351.232 102.4H398.336L407.552 106.496L414.72 114.688L415.744 117.76L441.344 118.784L451.584 121.856L460.8 126.976L470.016 135.168L476.16 145.408L480.256 156.672V422.912H500.736L504.832 427.008V441.344L500.736 454.656L494.592 465.92L489.472 471.04L479.232 479.232L466.944 485.376L459.776 487.424L449.536 488.448H62.464L48.128 486.4L35.84 481.28L26.624 474.112L21.504 468.992L16.384 463.872L9.21597 449.536L7.16797 441.344V427.008L11.264 422.912H31.744V156.672L35.84 145.408L41.984 135.168L52.224 125.952L65.536 119.808L70.656 118.784L96.256 117.76L100.352 110.592L107.52 104.448L113.664 102.4H160.768L162.816 92.16L168.96 76.8L172.032 71.68L175.104 64.512L186.368 51.2L193.536 45.056L208.896 34.816L222.208 28.672L236.544 24.576L242.688 23.552ZM254.976 39.936L239.616 41.984L226.304 46.08L214.016 52.224L210.944 54.272V56.32L206.848 58.368L196.608 67.584L187.392 80.896L183.296 88.064L179.2 99.328L177.152 108.544V131.072L180.224 144.384L188.416 161.792L195.584 171.008L201.728 178.176L207.872 182.272L210.944 183.296V185.344L226.304 193.536L239.616 197.632L244.736 198.656H267.264L283.648 194.56L301.056 185.344V183.296L305.152 182.272L306.176 179.2L310.272 177.152L319.488 167.936L327.68 153.6L332.8 140.288L334.848 131.072V108.544L330.752 93.184L323.584 78.848L313.344 65.536L303.104 56.32H301.056V54.272L290.816 48.128L273.408 41.984L254.976 39.936ZM117.76 120.832L113.664 124.928L112.64 126.976V150.528H163.84L161.792 140.288L159.744 120.832H117.76ZM352.256 120.832L350.208 139.264L348.16 150.528H399.36V126.976L397.312 121.856L395.264 120.832H352.256ZM73.728 136.192L63.488 140.288L55.296 147.456L49.152 159.744L48.128 167.936V422.912H63.488L64.512 154.624L67.584 151.552L95.232 150.528V136.192H73.728ZM416.768 136.192V150.528L444.416 151.552L447.488 154.624L448.512 422.912H463.872V167.936L461.824 156.672L455.68 146.432L446.464 139.264L438.272 136.192H416.768ZM80.896 167.936V422.912L211.968 423.936L215.04 427.008L216.064 438.272H295.936L296.96 427.008L300.032 423.936L431.104 422.912V167.936H416.768L415.744 390.144L411.648 398.336L404.48 404.48L399.36 406.528L393.216 407.552H118.784L109.568 405.504L103.424 401.408L98.304 395.264L96.256 390.144L95.232 167.936H80.896ZM112.64 167.936V382.976L115.712 389.12L118.784 390.144H392.192L397.312 387.072L399.36 382.976V167.936H338.944L335.872 175.104L326.656 186.368L319.488 193.536L306.176 202.752L291.84 209.92L270.336 215.04H241.664L220.16 209.92L203.776 201.728L190.464 191.488L183.296 184.32L174.08 172.032L173.056 167.936H112.64ZM26.624 440.32L29.696 449.536L35.84 457.728L39.936 462.848L52.224 468.992L62.464 471.04H449.536L459.776 468.992L470.016 463.872L479.232 454.656L485.376 442.368V440.32H312.32L311.296 451.584L308.224 454.656L305.152 455.68H206.848L201.728 453.632L200.704 451.584L199.68 440.32H26.624Z"/>
<path d="M235.52 310.272H276.48L280.576 314.368V371.712L276.48 375.808L273.408 376.832H238.592L232.448 373.76L231.424 371.712V314.368L235.52 310.272ZM248.832 328.704V358.4H263.168V328.704H248.832Z"/>
<path d="M300.032 310.272H339.968L344.064 314.368V371.712L339.968 375.808L336.896 376.832H303.104L296.96 373.76L295.936 371.712V314.368L300.032 310.272ZM312.32 328.704V358.4H327.68V328.704H312.32Z"/>
<path d="M300.032 230.4H339.968L344.064 234.496V291.84L339.968 295.936H300.032L295.936 291.84V234.496L300.032 230.4ZM312.32 248.832V278.528H327.68V248.832H312.32Z"/>
<path d="M172.032 230.4H211.968L216.064 234.496V291.84L211.968 295.936H172.032L167.936 291.84V234.496L172.032 230.4ZM184.32 248.832V278.528H199.68V248.832H184.32Z"/>
<path d="M263.168 83.968L268.288 84.992L278.528 89.088L279.552 94.208L264.192 124.928L254.976 142.336L250.88 152.576L248.832 156.672L243.712 155.648L231.424 149.504L233.472 143.36L253.952 103.424L263.168 83.968Z"/>
<path d="M217.088 89.0879L221.184 91.1359L230.4 100.352L229.376 104.448L214.016 119.808L220.16 126.976L230.4 136.192L229.376 140.288L219.136 150.528L215.04 149.504L207.872 141.312L191.488 124.928V115.712L198.656 107.52L217.088 89.0879Z"/>
<path d="M292.864 89.0879L296.96 91.1359L319.488 113.664L320.512 115.712V124.928L296.96 148.48L295.936 150.528L291.84 149.504L281.6 139.264L282.624 135.168L297.984 120.832L291.84 113.664L281.6 103.424L282.624 99.3279L292.864 89.0879Z"/>
<path d="M359.424 310.272H376.832V375.808L375.808 376.832H359.424V310.272Z"/>
<path d="M135.168 310.272H152.576V376.832H136.192L135.168 375.808V310.272Z"/>
<path d="M359.424 230.4H376.832V295.936H359.424V230.4Z"/>
<path d="M263.168 230.4H280.576V295.936H263.168V230.4Z"/>
<path d="M231.424 230.4H248.832V295.936H231.424V230.4Z"/>
<path d="M135.168 230.4H152.576V295.936H135.168V230.4Z"/>
<path d="M199.68 310.272H216.064V376.832H199.68V310.272Z"/>
<path d="M167.936 310.272H184.32V376.832H167.936V310.272Z"/>
</svg>
