<svg width="512" height="512" viewBox="0 0 512 512" fill="#4c6fff" stroke="currentColor" stroke-width="2" stroke-linecap="round" stroke-linejoin="round" xmlns="http://www.w3.org/2000/svg">
<g clip-path="url(#clip0_45_78)">
<path d="M67.584 214.016H147.456L158.72 215.04L175.104 221.184L186.368 228.352L197.632 238.592L206.848 251.904L210.944 260.096L215.04 278.528V312.32H333.824L338.944 314.368L344.064 318.464L347.136 324.608V385.024L343.04 392.192L337.92 396.288L334.848 397.312L292.864 398.336L267.264 423.936L259.072 429.056L254.976 430.08H246.784L239.616 427.008L234.496 423.936L230.4 415.744V397.312H214.016L212.992 406.528L209.92 414.72L204.8 423.936L194.56 434.176L188.416 438.272H186.368L194.56 456.704L198.656 472.064L199.68 482.304V512H15.36V478.208L18.432 461.824L24.576 446.464L27.648 439.296L18.432 432.128L10.24 423.936L8.192 418.816H6.144L2.048 409.6L0 399.36V276.48L3.072 262.144L10.24 247.808L18.432 237.568L25.6 230.4L39.936 221.184L51.2 216.064L67.584 214.016ZM65.536 232.448L52.224 236.544L44.032 240.64L34.816 247.808L25.6 259.072L20.48 270.336L17.408 282.624V393.216L21.504 406.528L28.672 415.744L36.864 422.912L40.96 424.96L47.104 417.792L50.176 414.72L46.08 409.6L37.888 395.264L33.792 381.952V312.32L37.888 301.056L48.128 288.768L60.416 282.624L67.584 280.576L65.536 263.168H82.944L83.968 273.408L90.112 284.672L98.304 291.84L107.52 295.936L112.64 296.96L163.84 297.984L174.08 303.104L178.176 308.224L181.248 315.392V380.928L177.152 395.264L169.984 407.552L165.888 412.672L163.84 414.72L173.056 423.936L178.176 422.912L188.416 413.696L194.56 403.456L197.632 391.168V284.672L193.536 268.288L188.416 258.048L185.344 253.952H183.296L181.248 248.832L172.032 241.664L157.696 234.496L148.48 232.448H65.536ZM69.632 297.984L60.416 302.08L53.248 310.272L50.176 318.464V376.832L53.248 387.072L60.416 398.336L68.608 405.504L79.872 410.624L82.944 411.648H131.072L142.336 407.552L152.576 400.384L158.72 392.192L163.84 380.928L164.864 373.76V321.536L161.792 316.416L157.696 314.368L106.496 313.344L93.184 309.248L87.04 305.152L78.848 297.984H69.632ZM215.04 331.776V378.88H248.832V409.6L249.856 411.648L253.952 410.624L268.288 395.264L276.48 387.072L284.672 379.904L329.728 378.88V331.776H215.04ZM64.512 427.008L51.2 439.296L44.032 449.536L39.936 456.704L34.816 476.16V494.592H84.992L77.824 483.328L71.68 470.016L67.584 456.704L66.56 450.56L65.536 427.008H64.512ZM149.504 428.032L148.48 448.512L145.408 463.872L139.264 479.232L130.048 493.568V494.592H180.224V477.184L176.128 461.824L171.008 449.536L159.744 435.2L151.552 428.032H149.504ZM82.944 429.056V444.416H130.048L131.072 441.344V429.056H82.944ZM88.064 463.872L94.208 476.16L101.376 485.376L106.496 490.496L110.592 488.448L117.76 480.256L125.952 466.944V463.872H88.064Z"/>
<path d="M372.736 0H436.224L452.608 3.072L466.944 9.216V11.264L472.064 13.312L483.328 21.504L491.52 29.696L501.76 44.032L507.904 56.32L509.952 62.464L512 75.776V107.52L510.976 120.832L512 123.904V140.288L508.928 150.528L500.736 159.744L488.448 165.888L479.232 167.936L474.112 183.296L467.968 192.512L464.896 197.632L462.848 200.704L467.968 205.824L475.136 214.016L480.256 219.136L488.448 233.472L493.568 246.784L496.64 263.168V297.984H312.32V266.24L315.392 248.832L319.488 236.544L327.68 221.184L331.776 215.04L336.896 209.92L346.112 200.704L338.944 189.44L332.8 177.152L330.752 171.008V166.912L321.536 165.888L315.392 163.84L314.368 187.392L309.248 195.584L304.128 198.656L300.032 199.68H281.6V217.088L277.504 225.28L268.288 231.424L258.048 232.448L249.856 229.376L241.664 222.208L231.424 211.968L226.304 207.872V205.824L222.208 203.776L219.136 200.704L178.176 199.68L173.056 197.632L167.936 193.536L164.864 187.392V126.976L167.936 120.832L174.08 115.712L177.152 114.688H299.008L296.96 104.448V77.824L301.056 57.344L308.224 43.008L316.416 31.744L323.584 23.552L336.896 13.312L353.28 4.096L359.424 2.048L372.736 0ZM378.88 17.408L362.496 21.504L346.112 29.696L333.824 40.96L326.656 49.152L318.464 65.536L315.392 76.8L314.368 83.968V96.256L315.392 101.376L322.56 99.328L330.752 98.304L334.848 87.04L343.04 76.8L351.232 70.656L364.544 65.536L362.496 48.128L379.904 49.152L382.976 62.464L389.12 71.68L398.336 78.848L407.552 81.92L459.776 82.944L466.944 86.016L473.088 90.112L478.208 98.304L490.496 100.352L493.568 101.376L494.592 100.352V81.92L490.496 65.536L482.304 49.152L474.112 38.912L462.848 29.696L446.464 21.504L430.08 17.408H378.88ZM367.616 82.944L358.4 87.04L353.28 91.136L348.16 100.352L347.136 105.472V159.744L350.208 172.032L357.376 183.296L365.568 190.464L375.808 195.584L384 197.632H424.96L438.272 193.536L448.512 186.368L455.68 178.176L459.776 169.984L461.824 161.792V105.472L457.728 100.352L409.6 99.328L398.336 97.28L388.096 93.184H386.048V91.136L377.856 84.992L375.808 82.944H367.616ZM479.232 116.736V147.456L485.376 146.432L492.544 140.288L494.592 135.168L493.568 125.952L488.448 119.808L482.304 116.736H479.232ZM327.68 116.736L319.488 120.832L315.392 125.952L314.368 134.144L318.464 142.336L323.584 146.432L329.728 147.456V116.736H327.68ZM182.272 133.12V180.224L227.328 181.248L252.928 206.848L259.072 214.016L263.168 211.968V180.224H296.96V133.12H182.272ZM376.832 214.016L377.856 219.136L381.952 215.04L376.832 214.016ZM430.08 214.016L427.008 216.064L431.104 219.136L432.128 214.016H430.08ZM357.376 216.064L346.112 227.328L338.944 238.592L332.8 257.024L331.776 263.168V279.552H373.76L386.048 243.712V239.616L381.952 241.664L371.712 252.928L367.616 256H365.568L358.4 216.064H357.376ZM450.56 216.064L444.416 252.928V257.024L439.296 253.952L430.08 245.76L424.96 239.616H423.936L424.96 248.832L435.2 278.528L436.224 279.552H477.184V261.12L474.112 248.832L467.968 234.496L457.728 221.184L451.584 216.064H450.56ZM403.456 220.16L398.336 226.304L401.408 230.4H407.552L410.624 225.28L405.504 220.16H403.456ZM403.456 248.832L398.336 261.12L393.216 276.48V279.552H416.768L406.528 248.832H403.456Z"/>
<path d="M269.312 9.21606L273.408 11.2641L295.936 33.7921L301.056 39.9361L299.008 44.0321L287.744 56.3201L271.36 72.7041L267.264 71.6801L258.048 62.4641V57.3441L263.168 52.2241L264.192 51.2001H243.712L219.136 54.2721L195.584 60.4161L176.128 67.5841L159.744 75.7761L147.456 82.9441L139.264 87.0401L126.976 96.2561L121.856 101.376L100.352 122.88L93.184 131.072L83.968 144.384L77.824 155.648L67.584 175.104L60.416 194.56L58.368 201.728L47.104 199.68L40.96 197.632L41.984 189.44L47.104 173.056L55.296 154.624L65.536 136.192L69.632 130.048H71.68L73.728 124.928L86.016 109.568L93.184 101.376L107.52 87.0401L113.664 82.9441L132.096 68.6081L147.456 59.3921L173.056 47.1041L192.512 40.9601L219.136 34.8161L234.496 32.7681L265.216 31.7441L258.048 24.5761L259.072 19.4561L269.312 9.21606Z"/>
<path d="M453.632 311.296L465.92 314.368L471.04 316.416L468.992 325.632L463.872 342.016L453.632 363.52L442.368 381.952H440.32L438.272 386.048L430.08 397.312L420.864 408.576L405.504 423.936L399.36 428.032L385.024 439.296L374.784 446.464L360.448 454.656L338.944 464.896L319.488 471.04L292.864 477.184L276.48 479.232L246.784 480.256L253.952 487.424V492.544L243.712 502.784L239.616 501.76L215.04 477.184L210.944 472.064L212.992 467.968L222.208 457.728L240.64 439.296L244.736 440.32L253.952 449.536V454.656L248.832 458.752L247.808 460.8H268.288L292.864 457.728L316.416 451.584L335.872 444.416L352.256 436.224L364.544 429.056L373.76 423.936L384 415.744H386.048L387.072 412.672L395.264 405.504L411.648 389.12L418.816 380.928L428.032 367.616L434.176 356.352L444.416 336.896L451.584 317.44L453.632 311.296Z"/>
<path d="M131.072 362.496H149.504V370.688L145.408 380.928L137.216 390.144L125.952 396.288L120.832 397.312H81.9199V378.88L119.808 377.856L126.976 373.76L129.024 370.688L131.072 362.496Z"/>
<path d="M429.056 147.456H446.464V156.672L442.368 166.912L436.224 174.08L425.984 180.224L419.84 182.272H378.88V164.864L414.72 163.84L421.888 160.768L427.008 154.624L429.056 147.456Z"/>
<path d="M263.168 345.088H281.6V364.544H263.168V345.088Z"/>
<path d="M230.4 345.088H247.808L248.832 346.112V364.544H230.4V345.088Z"/>
<path d="M263.168 147.456H281.6V166.912H264.192L263.168 165.888V147.456Z"/>
<path d="M230.4 147.456H248.832V165.888L247.808 166.912H230.4V147.456Z"/>
<path d="M296.96 345.088H314.368V364.544H296.96V345.088Z"/>
<path d="M197.632 147.456H215.04V166.912H197.632V147.456Z"/>
<path d="M368.64 114.688H374.784L379.904 117.76L380.928 119.808V128L376.832 132.096L369.664 133.12L364.544 130.048L362.496 126.976V119.808L366.592 115.712L368.64 114.688Z"/>
<path d="M136.192 329.728H144.384L149.504 334.848V342.016L144.384 347.136H136.192L131.072 342.016V334.848L136.192 329.728Z"/>
<path d="M70.6561 329.728H78.8481L82.9441 332.8V344.064L78.8481 347.136H69.6321L65.5361 343.04V333.824L70.6561 329.728Z"/>
<path d="M434.176 114.688L443.392 115.712L446.464 119.808V128L442.368 132.096L436.224 133.12L431.104 131.072L429.056 129.024V118.784L434.176 114.688Z"/>
</g>
<defs>
<clipPath id="clip0_45_78">
<rect width="512" height="512"/>
</clipPath>
</defs>
</svg>
