<svg width="204" height="32" viewBox="0 0 204 32" fill="none" xmlns="http://www.w3.org/2000/svg">
<g clip-path="url(#clip0_245_2912)">
<path d="M12.512 11.4578C12.512 11.4578 10.812 11.2876 10.812 12.7858V19.494H21.9641V21.503C21.9641 21.503 21.9979 22.4906 20.9441 22.4906H10.812V31.2078H22.9841C22.9841 31.2078 30.3619 30.084 30.43 22.4906V11.4578H12.512ZM30.09 0.765625H8.12599C0.170001 2.63846 0 9.17637 0 9.17637V31.2418H8.432V11.1514C8.432 9.44878 10.132 9.14233 10.132 9.14233H30.056L30.09 0.765625ZM59.092 24.9083C58.5139 25.2828 58.0721 25.5892 57.7661 25.7595C56.678 26.4406 55.6579 26.9514 54.706 27.3599C53.3119 27.9388 52.0879 28.2113 50.9659 28.2113C47.158 28.2113 43.9961 27.0535 41.4799 24.7039C38.93 22.3543 37.6721 19.3919 37.6721 15.8504C37.6721 12.4113 38.794 9.44879 41.106 6.89492C43.384 4.3751 46.172 3.11519 49.436 3.11519C50.796 3.11519 52.2581 3.35354 53.754 3.83026C55.7261 4.4432 57.2899 5.39663 58.5821 6.58845L56.406 9.00611C55.488 8.08672 54.264 7.43974 52.8701 7.03112C51.816 6.72465 50.66 6.55439 49.368 6.55439C47.09 6.55439 45.1519 7.47379 43.5881 9.31258C42.0581 11.1854 41.2759 13.3647 41.2759 15.9527C41.2759 18.5066 42.16 20.6177 43.9279 22.2862C45.696 23.9548 47.94 24.806 50.66 24.806C51.782 24.806 52.938 24.4315 54.1279 23.7505C55.114 23.0014 55.6241 22.6268 55.6241 22.6268V17.3147H48.246L49.3001 14.0117H59.092V24.9083ZM81.294 18.4385C81.294 20.9922 80.376 23.2057 78.5741 25.0785C76.7719 26.9514 74.5279 27.9048 71.842 27.9048C69.36 27.9048 67.218 26.9854 65.348 25.1466C63.4781 23.3078 62.5601 21.0945 62.5601 18.4724C62.5601 15.8846 63.444 13.6712 65.2121 11.7643C66.9799 9.8574 69.156 8.93801 71.6719 8.93801C74.494 8.93801 76.7719 9.8574 78.5741 11.6621C80.376 13.4328 81.294 15.7143 81.294 18.4385ZM77.86 18.5066C77.86 16.7699 77.2819 15.3057 76.126 14.1139C74.97 12.888 73.542 12.3091 71.808 12.3091C70.2101 12.3091 68.85 12.9221 67.6939 14.182C66.572 15.4078 65.994 16.838 65.994 18.4385C65.994 20.1069 66.572 21.5371 67.6939 22.7289C68.8159 23.9207 70.2439 24.5337 71.9441 24.5337C73.542 24.5337 74.9021 23.9548 76.0579 22.763C77.2819 21.5371 77.86 20.1069 77.86 18.5066ZM103.224 18.4385C103.224 20.9922 102.306 23.2057 100.504 25.0785C98.7019 26.9514 96.4579 27.9048 93.772 27.9048C91.29 27.9048 89.148 26.9854 87.2779 25.1466C85.4081 23.3078 84.4901 21.0945 84.4901 18.4724C84.4901 15.8846 85.374 13.6712 87.1421 11.7643C88.91 9.8574 91.086 8.93801 93.6019 8.93801C96.424 8.93801 98.7019 9.8574 100.504 11.6621C102.306 13.4328 103.224 15.7143 103.224 18.4385ZM99.756 18.5066C99.756 16.7699 99.1781 15.3057 98.022 14.1139C96.866 12.888 95.438 12.3091 93.7039 12.3091C92.106 12.3091 90.7459 12.9221 89.59 14.182C88.468 15.4078 87.8899 16.838 87.8899 18.4385C87.8899 20.1069 88.468 21.5371 89.59 22.7289C90.7121 23.9207 92.1401 24.5337 93.84 24.5337C95.438 24.5337 96.798 23.9548 97.9541 22.763C99.1781 21.5371 99.756 20.1069 99.756 18.5066ZM123.488 27.394L120.326 27.8707V24.806L119.646 25.5892C119.034 26.1681 118.354 26.6108 117.64 26.9854C116.552 27.4961 115.396 27.7345 114.206 27.7345C111.724 27.7345 109.616 26.8151 107.916 25.0104C106.216 23.2057 105.332 20.9922 105.332 18.4724C105.332 15.8504 106.182 13.6031 107.882 11.7643C109.582 9.89146 111.622 8.97206 114.104 8.97206C115.532 8.97206 116.756 9.21043 117.776 9.65309C118.524 9.99362 119.136 10.4363 119.68 10.9811C119.85 11.2195 120.02 11.4578 120.224 11.6962V3.62595L123.59 3.14924L123.488 27.394ZM120.53 18.6768C120.53 16.872 119.918 15.3396 118.694 14.1139C117.47 12.8539 116.076 12.241 114.478 12.241C112.71 12.241 111.316 12.8199 110.228 14.0117C109.208 15.1354 108.698 16.5316 108.698 18.166C108.698 20.0048 109.242 21.5371 110.296 22.7289C111.35 23.9207 112.676 24.4996 114.342 24.4996C115.94 24.4996 117.368 23.9548 118.626 22.8312C119.884 21.7073 120.53 20.3112 120.53 18.6768ZM141.304 6.96302H131.852V13.3988H139.196V16.7018H131.852V27.3599L128.18 27.9048V3.62595H140.59L141.304 6.96302ZM148.886 5.09018L146.608 7.95051L144.432 5.09018L146.71 2.2639L148.886 5.09018ZM148.206 27.394L144.84 27.8707V9.89146L148.206 9.38068V27.394ZM163.438 9.17637L161.839 12.8539C161.635 12.8199 161.431 12.8199 161.194 12.8199C160.855 12.8199 160.548 12.8539 160.207 12.888C159.868 12.922 159.528 13.0583 159.154 13.2626C158.441 13.569 157.829 14.2501 157.318 15.2376C156.739 16.3953 156.434 17.6552 156.434 18.9492V27.3599L153.068 27.9048V9.89146L156.197 9.31258V13.0583C156.605 12.4113 157.013 11.7643 157.421 11.0833C157.997 10.4022 158.678 9.9255 159.425 9.61903C159.833 9.44878 160.548 9.34664 161.669 9.24448C162.758 9.17638 163.37 9.14233 163.438 9.17637ZM188.599 27.394L185.232 27.8707V15.544C185.232 14.4203 184.994 13.569 184.483 13.0583C183.974 12.5475 183.226 12.2751 182.239 12.2751C181.049 12.2751 180.166 12.7518 179.554 13.7393C179.146 14.4203 178.908 15.1354 178.908 15.8504V27.3259L175.541 27.9388V15.5781C175.541 14.4884 175.303 13.6712 174.794 13.0923C174.283 12.5134 173.638 12.241 172.788 12.241H172.447C171.259 12.241 170.407 12.7177 169.865 13.7393C169.457 14.4884 169.253 15.4419 169.253 16.5997V27.2918L165.749 27.9048V9.82335L168.912 9.27852V11.594C169.253 11.0492 169.627 10.6065 169.932 10.3001C170.851 9.44878 171.905 9.04017 173.093 9.04017C174.42 9.04017 175.406 9.24448 176.086 9.68715C176.664 10.0617 177.209 10.7768 177.785 11.7984C178.942 9.95956 180.574 9.04017 182.75 9.04017C184.824 9.04017 186.353 9.68715 187.373 11.0152C188.189 12.1048 188.599 13.7052 188.599 15.7823V27.394ZM204 21.9457C204 23.6142 203.422 24.9764 202.265 26.0319C201.11 27.1216 199.648 27.6324 197.88 27.6324C196.553 27.6324 195.365 27.3259 194.275 26.7129C193.188 26.1 192.372 25.3849 191.861 24.5677L194.242 22.4564C194.412 22.7289 194.582 22.9332 194.719 23.0695C195.602 23.9888 196.656 24.4315 197.88 24.4315C198.73 24.4315 199.409 24.1931 199.886 23.7505C200.395 23.3078 200.633 22.6949 200.633 21.8776C200.633 20.9582 200.057 20.3454 198.9 20.0048C196.622 19.3238 195.365 18.9151 195.194 18.847C194.141 18.3022 193.392 17.7233 192.917 17.0763C192.372 16.3272 192.101 15.3396 192.101 14.0798C192.101 12.5134 192.677 11.2535 193.8 10.1979C194.921 9.17637 196.282 8.6656 197.846 8.6656C199.037 8.6656 200.124 8.93801 201.144 9.48284C202.164 10.0277 202.877 10.6065 203.321 11.2535L201.314 13.4328C201.007 13.1264 200.669 12.8539 200.328 12.6156C199.512 12.0367 198.73 11.7643 198.017 11.7643C197.302 11.7643 196.723 11.9346 196.282 12.241C195.737 12.6156 195.466 13.1945 195.466 13.9436C195.466 14.6587 195.703 15.2035 196.248 15.544C196.69 15.8164 197.642 16.1229 199.171 16.4635C200.669 16.838 201.857 17.4509 202.673 18.3362C203.626 19.2897 204 20.4475 204 21.9457Z" fill="white"/>
</g>
<defs>
<clipPath id="clip0_245_2912">
<rect width="204" height="32" fill="white"/>
</clipPath>
</defs>
</svg>
