<svg width="122" height="57" viewBox="0 0 122 57" fill="none" xmlns="http://www.w3.org/2000/svg">
<g clip-path="url(#clip0_22_700)">
<path d="M118.199 24.4463L121.584 26.7009C120.486 28.3175 117.858 31.0913 113.316 31.0913C107.675 31.0913 103.475 26.7306 103.475 21.1832C103.475 15.2802 107.72 11.2754 112.841 11.2754C117.992 11.2754 120.515 15.369 121.332 17.579L121.777 18.7063L108.507 24.1942C109.516 26.1818 111.09 27.1904 113.316 27.1904C115.543 27.1904 117.086 26.0928 118.199 24.4463ZM107.794 20.8721L116.656 17.1935C116.166 15.9625 114.711 15.0875 112.974 15.0875C110.763 15.0875 107.69 17.0454 107.794 20.8721Z" fill="#FF302F"/>
<path d="M97.0781 1.17383H101.353V30.1857H97.0781V1.17383Z" fill="#20B15A"/>
<path d="M90.3386 12.0457H94.4651V29.6664C94.4651 36.9786 90.1456 39.9895 85.0392 39.9895C80.23 39.9895 77.3356 36.7562 76.2519 34.131L80.037 32.5586C80.7197 34.1752 82.3674 36.0888 85.0392 36.0888C88.3196 36.0888 90.3386 34.0567 90.3386 30.2598V28.836H90.1901C89.2103 30.0224 87.3401 31.0902 84.9651 31.0902C80.0072 31.0902 75.4648 26.7741 75.4648 21.2121C75.4648 15.6202 80.0072 11.2598 84.9651 11.2598C87.3253 11.2598 89.2103 12.3129 90.1901 13.4698H90.3386V12.0457ZM90.6353 21.2121C90.6353 17.7117 88.3049 15.1605 85.3361 15.1605C82.3376 15.1605 79.8142 17.7117 79.8142 21.2121C79.8142 24.6679 82.3376 27.1745 85.3361 27.1745C88.3051 27.1895 90.6355 24.6679 90.6355 21.2121" fill="#3686F7"/>
<path d="M51.9972 21.1375C51.9972 26.8479 47.5442 31.0453 42.0816 31.0453C36.6193 31.0453 32.166 26.8332 32.166 21.1375C32.166 15.3975 36.6193 11.2148 42.0816 11.2148C47.5442 11.2148 51.9972 15.3975 51.9972 21.1375ZM47.6629 21.1375C47.6629 17.5779 45.0799 15.1303 42.0816 15.1303C39.0833 15.1303 36.5003 17.5779 36.5003 21.1375C36.5003 24.6675 39.0833 27.1446 42.0816 27.1446C45.0801 27.1446 47.6629 24.6675 47.6629 21.1375Z" fill="#FF302F"/>
<path d="M73.6535 21.1832C73.6535 26.8937 69.2002 31.0911 63.7379 31.0911C58.2753 31.0911 53.8223 26.8935 53.8223 21.1832C53.8223 15.4432 58.2753 11.2754 63.7379 11.2754C69.2002 11.2754 73.6535 15.4285 73.6535 21.1832ZM69.3041 21.1832C69.3041 17.6237 66.7214 15.1761 63.7228 15.1761C60.7246 15.1761 58.1416 17.6237 58.1416 21.1832C58.1416 24.7132 60.7246 27.1904 63.7228 27.1904C66.7362 27.1904 69.3041 24.6985 69.3041 21.1832Z" fill="#FFBA40"/>
<path d="M15.8676 26.7439C9.64798 26.7439 4.77942 21.7305 4.77942 15.5158C4.77942 9.30126 9.64798 4.28793 15.8676 4.28793C19.2224 4.28793 21.6714 5.60793 23.4824 7.29888L26.4661 4.31769C23.9427 1.90007 20.5732 0.0605469 15.8676 0.0605469C7.34738 0.060785 0.177734 7.00245 0.177734 15.5158C0.177734 24.0296 7.34738 30.971 15.8676 30.971C20.4693 30.971 23.9427 29.4582 26.6591 26.6401C29.4496 23.8515 30.3105 19.9358 30.3105 16.7617C30.3105 15.7679 30.1919 14.7446 30.0582 13.9882H15.8676V18.1115H25.9762C25.6793 20.6925 24.863 22.4575 23.6606 23.6586C22.2059 25.1272 19.9053 26.7439 15.8676 26.7439Z" fill="#3686F7"/>
</g>
<path d="M77.99 54V52.36H75.18V51.58L77.7 47.64H79.07V51.47H79.87V52.36H79.07V54H77.99ZM76.32 51.47H77.99V50.03C77.99 49.8433 77.9933 49.6233 78 49.37C78.0133 49.1167 78.0267 48.8967 78.04 48.71H78C77.92 48.8767 77.8367 49.04 77.75 49.2C77.6633 49.36 77.5733 49.5267 77.48 49.7L76.32 51.47ZM81.507 54.12C81.2936 54.12 81.1136 54.0467 80.967 53.9C80.827 53.7533 80.757 53.5667 80.757 53.34C80.757 53.1133 80.827 52.9267 80.967 52.78C81.1136 52.6333 81.2936 52.56 81.507 52.56C81.7203 52.56 81.897 52.6333 82.037 52.78C82.177 52.9267 82.247 53.1133 82.247 53.34C82.247 53.5667 82.177 53.7533 82.037 53.9C81.897 54.0467 81.7203 54.12 81.507 54.12ZM83.6209 54V53.06H85.0409V48.88H83.8709V48.16C84.1909 48.1 84.4642 48.03 84.6909 47.95C84.9242 47.8633 85.1409 47.76 85.3409 47.64H86.2009V53.06H87.4509V54H83.6209ZM90.8398 54V47.46H93.0498C93.3898 47.46 93.7064 47.4933 93.9998 47.56C94.2931 47.6267 94.5464 47.7367 94.7598 47.89C94.9731 48.0367 95.1398 48.2333 95.2598 48.48C95.3864 48.7267 95.4498 49.0333 95.4498 49.4C95.4498 49.9 95.3298 50.3033 95.0898 50.61C94.8564 50.9167 94.5431 51.1367 94.1498 51.27L95.7098 54H94.4098L92.9998 51.44H91.9998V54H90.8398ZM91.9998 50.52H92.9298C93.3764 50.52 93.7164 50.4267 93.9498 50.24C94.1898 50.0533 94.3098 49.7733 94.3098 49.4C94.3098 49.02 94.1898 48.7567 93.9498 48.61C93.7164 48.4633 93.3764 48.39 92.9298 48.39H91.9998V50.52ZM98.6601 54.12C98.3201 54.12 98.0034 54.0633 97.7101 53.95C97.4167 53.83 97.1601 53.66 96.9401 53.44C96.7201 53.22 96.5467 52.9533 96.4201 52.64C96.3001 52.32 96.2401 51.9567 96.2401 51.55C96.2401 51.15 96.3034 50.79 96.4301 50.47C96.5567 50.15 96.7234 49.88 96.9301 49.66C97.1434 49.44 97.3867 49.27 97.6601 49.15C97.9334 49.03 98.2134 48.97 98.5001 48.97C98.8334 48.97 99.1267 49.0267 99.3801 49.14C99.6334 49.2533 99.8434 49.4133 100.01 49.62C100.183 49.8267 100.313 50.0733 100.4 50.36C100.487 50.6467 100.53 50.96 100.53 51.3C100.53 51.4133 100.523 51.52 100.51 51.62C100.503 51.72 100.493 51.8 100.48 51.86H97.3601C97.4134 52.3 97.5667 52.64 97.8201 52.88C98.0801 53.1133 98.4101 53.23 98.8101 53.23C99.0234 53.23 99.2201 53.2 99.4001 53.14C99.5867 53.0733 99.7701 52.9833 99.9501 52.87L100.34 53.59C100.107 53.7433 99.8467 53.87 99.5601 53.97C99.2734 54.07 98.9734 54.12 98.6601 54.12ZM97.3501 51.08H99.5301C99.5301 50.7 99.4467 50.4033 99.2801 50.19C99.1201 49.97 98.8701 49.86 98.5301 49.86C98.2367 49.86 97.9801 49.9633 97.7601 50.17C97.5401 50.3767 97.4034 50.68 97.3501 51.08ZM102.728 54L101.018 49.09H102.188L102.968 51.64C103.035 51.88 103.102 52.1233 103.168 52.37C103.242 52.6167 103.312 52.8667 103.378 53.12H103.418C103.492 52.8667 103.562 52.6167 103.628 52.37C103.695 52.1233 103.765 51.88 103.838 51.64L104.618 49.09H105.728L104.058 54H102.728ZM106.58 54V49.09H107.73V54H106.58ZM107.16 48.23C106.953 48.23 106.783 48.17 106.65 48.05C106.516 47.93 106.45 47.7733 106.45 47.58C106.45 47.3867 106.516 47.23 106.65 47.11C106.783 46.9833 106.953 46.92 107.16 46.92C107.366 46.92 107.536 46.9833 107.67 47.11C107.803 47.23 107.87 47.3867 107.87 47.58C107.87 47.7733 107.803 47.93 107.67 48.05C107.536 48.17 107.366 48.23 107.16 48.23ZM111.297 54.12C110.957 54.12 110.64 54.0633 110.347 53.95C110.053 53.83 109.797 53.66 109.577 53.44C109.357 53.22 109.183 52.9533 109.057 52.64C108.937 52.32 108.877 51.9567 108.877 51.55C108.877 51.15 108.94 50.79 109.067 50.47C109.193 50.15 109.36 49.88 109.567 49.66C109.78 49.44 110.023 49.27 110.297 49.15C110.57 49.03 110.85 48.97 111.137 48.97C111.47 48.97 111.763 49.0267 112.017 49.14C112.27 49.2533 112.48 49.4133 112.647 49.62C112.82 49.8267 112.95 50.0733 113.037 50.36C113.123 50.6467 113.167 50.96 113.167 51.3C113.167 51.4133 113.16 51.52 113.147 51.62C113.14 51.72 113.13 51.8 113.117 51.86H109.997C110.05 52.3 110.203 52.64 110.457 52.88C110.717 53.1133 111.047 53.23 111.447 53.23C111.66 53.23 111.857 53.2 112.037 53.14C112.223 53.0733 112.407 52.9833 112.587 52.87L112.977 53.59C112.743 53.7433 112.483 53.87 112.197 53.97C111.91 54.07 111.61 54.12 111.297 54.12ZM109.987 51.08H112.167C112.167 50.7 112.083 50.4033 111.917 50.19C111.757 49.97 111.507 49.86 111.167 49.86C110.873 49.86 110.617 49.9633 110.397 50.17C110.177 50.3767 110.04 50.68 109.987 51.08ZM115.075 54L113.775 49.09H114.935L115.525 51.64C115.578 51.8733 115.622 52.1067 115.655 52.34C115.695 52.5733 115.738 52.81 115.785 53.05H115.825C115.872 52.81 115.918 52.5733 115.965 52.34C116.018 52.1067 116.075 51.8733 116.135 51.64L116.775 49.09H117.825L118.475 51.64C118.535 51.8733 118.592 52.1067 118.645 52.34C118.698 52.5733 118.752 52.81 118.805 53.05H118.845C118.892 52.81 118.935 52.5733 118.975 52.34C119.015 52.1067 119.058 51.8733 119.105 51.64L119.695 49.09H120.775L119.525 54H118.155L117.585 51.71C117.532 51.4767 117.482 51.2467 117.435 51.02C117.388 50.7867 117.338 50.54 117.285 50.28H117.245C117.198 50.54 117.152 50.7867 117.105 51.02C117.058 51.2533 117.008 51.4867 116.955 51.72L116.395 54H115.075Z" fill="#657580"/>
<path d="M5.59016 46.2192L6.76495 48.8987C6.80914 48.9995 6.87959 49.0867 6.96894 49.151C7.05829 49.2153 7.16327 49.2545 7.27292 49.2644L10.1348 49.521C10.4587 49.5681 10.5878 49.9653 10.353 50.1939L8.19722 52.005C8.02266 52.1516 7.94324 52.382 7.99124 52.6046L8.61791 55.5381C8.6729 55.8602 8.33512 56.1063 8.04535 55.9536L5.54739 54.4907C5.45318 54.4354 5.34592 54.4063 5.23668 54.4063C5.12743 54.4063 5.02017 54.4354 4.92596 54.4907L2.428 55.9527C2.1391 56.1045 1.80045 55.8593 1.85544 55.5372L2.48211 52.6037C2.52924 52.3812 2.45069 52.1508 2.27613 52.0041L0.119433 50.1948C-0.114478 49.967 0.0146966 49.569 0.337634 49.5219L3.19955 49.2653C3.30921 49.2554 3.41419 49.2162 3.50354 49.1519C3.59289 49.0875 3.66334 49.0004 3.70753 48.8996L4.88232 46.2201C5.02808 45.9268 5.44528 45.9268 5.59016 46.2192Z" fill="#EEC718"/>
<path d="M19.4593 46.2192L20.6341 48.8987C20.6783 48.9995 20.7487 49.0867 20.8381 49.151C20.9274 49.2153 21.0324 49.2545 21.1421 49.2644L24.004 49.521C24.3278 49.5681 24.457 49.9653 24.2222 50.1939L22.0664 52.005C21.8918 52.1516 21.8124 52.382 21.8604 52.6046L22.4871 55.5381C22.542 55.8602 22.2043 56.1063 21.9145 55.9536L19.4165 54.4907C19.3223 54.4354 19.2151 54.4063 19.1058 54.4063C18.9966 54.4063 18.8893 54.4354 18.7951 54.4907L16.2971 55.9527C16.0082 56.1045 15.6696 55.8593 15.7246 55.5372L16.3513 52.6037C16.3984 52.3812 16.3198 52.1508 16.1453 52.0041L13.9886 50.1948C13.7547 49.967 13.8838 49.569 14.2068 49.5219L17.0687 49.2653C17.1783 49.2554 17.2833 49.2162 17.3727 49.1519C17.462 49.0875 17.5325 49.0004 17.5767 48.8996L18.7515 46.2201C18.8972 45.9268 19.3144 45.9268 19.4593 46.2192Z" fill="#EEC718"/>
<path d="M33.3265 46.2192L34.5013 48.8987C34.5455 48.9995 34.6159 49.0867 34.7053 49.151C34.7946 49.2153 34.8996 49.2545 35.0093 49.2644L37.8712 49.521C38.195 49.5681 38.3242 49.9653 38.0894 50.1939L35.9335 52.005C35.759 52.1516 35.6796 52.382 35.7276 52.6046L36.3542 55.5381C36.4092 55.8602 36.0715 56.1063 35.7817 55.9536L33.2837 54.4907C33.1895 54.4354 33.0822 54.4063 32.973 54.4063C32.8638 54.4063 32.7565 54.4354 32.6623 54.4907L30.1643 55.9527C29.8754 56.1045 29.5368 55.8593 29.5918 55.5372L30.2184 52.6037C30.2656 52.3812 30.187 52.1508 30.0125 52.0041L27.8558 50.1948C27.6218 49.967 27.751 49.569 28.074 49.5219L30.9359 49.2653C31.0455 49.2554 31.1505 49.2162 31.2399 49.1519C31.3292 49.0875 31.3997 49.0004 31.4439 48.8996L32.6186 46.2201C32.7644 45.9268 33.1816 45.9268 33.3265 46.2192Z" fill="#EEC718"/>
<path d="M47.1956 46.2192L48.3704 48.8987C48.4146 48.9995 48.4851 49.0867 48.5744 49.151C48.6638 49.2153 48.7687 49.2545 48.8784 49.2644L51.7403 49.521C52.0641 49.5681 52.1933 49.9653 51.9585 50.1939L49.8027 52.005C49.6281 52.1516 49.5487 52.382 49.5967 52.6046L50.2234 55.5381C50.2784 55.8602 49.9406 56.1063 49.6508 55.9536L47.1529 54.4907C47.0586 54.4354 46.9514 54.4063 46.8421 54.4063C46.7329 54.4063 46.6256 54.4354 46.5314 54.4907L44.0335 55.9527C43.7446 56.1045 43.4059 55.8593 43.4609 55.5372L44.0876 52.6037C44.1347 52.3812 44.0562 52.1508 43.8816 52.0041L41.7249 50.1948C41.491 49.967 41.6202 49.569 41.9431 49.5219L44.805 49.2653C44.9147 49.2554 45.0197 49.2162 45.109 49.1519C45.1984 49.0875 45.2688 49.0004 45.313 48.8996L46.4878 46.2201C46.6335 45.9268 47.0507 45.9268 47.1956 46.2192Z" fill="#EEC718"/>
<path d="M61.0648 46.2192L62.2396 48.8987C62.2838 48.9995 62.3542 49.0867 62.4436 49.151C62.5329 49.2153 62.6379 49.2545 62.7475 49.2644L65.6095 49.521C65.9333 49.5681 66.0624 49.9653 65.8277 50.1939L63.6718 52.005C63.4973 52.1516 63.4178 52.382 63.4658 52.6046L64.0925 55.5381C64.1475 55.8602 63.8097 56.1063 63.52 55.9536L61.022 54.4907C60.9278 54.4354 60.8205 54.4063 60.7113 54.4063C60.602 54.4063 60.4948 54.4354 60.4006 54.4907L57.9026 55.9527C57.6137 56.1045 57.2751 55.8593 57.33 55.5372L57.9567 52.6037C58.0039 52.3812 57.9253 52.1508 57.7507 52.0041L55.594 50.1948C55.3601 49.967 55.4893 49.569 55.8122 49.5219L58.6742 49.2653C58.7838 49.2554 58.8888 49.2162 58.9781 49.1519C59.0675 49.0875 59.1379 49.0004 59.1821 48.8996L60.3569 46.2201C60.5027 45.9268 60.9199 45.9268 61.0648 46.2192Z" fill="#DDE1DE"/>
<defs>
<clipPath id="clip0_22_700">
<rect width="122" height="40" fill="white"/>
</clipPath>
</defs>
</svg>
