<svg width="71" height="70" viewBox="0 0 71 70" fill="none" xmlns="http://www.w3.org/2000/svg">
<rect x="0.5" width="70" height="70" rx="35" fill="#4C6FFF" fill-opacity="0.18"/>
<path d="M44.7099 38.8881C44.0737 40.3926 43.0787 41.7183 41.8118 42.7494C40.5449 43.7805 39.0447 44.4855 37.4424 44.8029C35.84 45.1202 34.1843 45.0402 32.6201 44.5699C31.0558 44.0995 29.6305 43.2531 28.4689 42.1047C27.3073 40.9563 26.4447 39.5408 25.9565 37.982C25.4684 36.4232 25.3695 34.7686 25.6685 33.1627C25.9675 31.5569 26.6554 30.0488 27.672 28.7702C28.6885 27.4916 30.0028 26.4814 31.4999 25.8281" stroke="#4C6FFF" stroke-width="2" stroke-linecap="round" stroke-linejoin="round"/>
<path d="M45.5 35C45.5 33.6868 45.2413 32.3864 44.7388 31.1732C44.2362 29.9599 43.4997 28.8575 42.5711 27.9289C41.6425 27.0003 40.5401 26.2637 39.3268 25.7612C38.1136 25.2587 36.8132 25 35.5 25V35H45.5Z" stroke="#4C6FFF" stroke-width="2" stroke-linecap="round" stroke-linejoin="round"/>
</svg>
