<svg width="71" height="70" viewBox="0 0 71 70" fill="none" xmlns="http://www.w3.org/2000/svg">
<rect x="0.133789" width="70" height="70" rx="35" fill="#FFC0EC" fill-opacity="0.27"/>
<path d="M34.9998 23.8594C41.1539 23.8594 46.1426 28.8481 46.1426 35.0022C46.1426 41.1563 41.1539 46.1451 34.9998 46.1451C28.8457 46.1451 23.8569 41.1563 23.8569 35.0022C23.8569 28.8481 28.8457 23.8594 34.9998 23.8594ZM34.9998 25.7165C29.8713 25.7165 25.7141 29.8737 25.7141 35.0022C25.7141 40.1307 29.8713 44.2879 34.9998 44.2879C40.1283 44.2879 44.2855 40.1307 44.2855 35.0022C44.2855 29.8737 40.1283 25.7165 34.9998 25.7165ZM35.2658 28.635V29.8826C37.1118 30.0307 38.4485 31.138 38.5075 32.8141H36.9716C36.8755 31.8836 36.2111 31.3446 35.2658 31.2267V34.3058L35.6205 34.394C37.5626 34.8448 38.6259 35.6425 38.6259 37.215C38.6259 39.0243 37.149 40.0504 35.2658 40.1837V41.4238H34.4315V40.1837C32.5558 40.043 31.0719 38.9872 31.0204 37.215H32.5488C32.6816 38.0791 33.2429 38.7142 34.4315 38.84V35.6197L34.1288 35.5454C32.2531 35.1104 31.2419 34.2687 31.2419 32.7695C31.2419 31.1152 32.5706 30.0228 34.4315 29.8821V28.6346L35.2658 28.635ZM35.2658 35.8119V38.847C36.5287 38.7509 37.0603 38.1529 37.0603 37.3627C37.0603 36.6022 36.6471 36.1518 35.2658 35.8119ZM34.4315 31.2267C33.3683 31.3594 32.807 31.9723 32.807 32.6446C32.807 33.3164 33.2504 33.8109 34.432 34.1066L34.4315 31.2267Z" fill="#EB8CCF"/>
</svg>
