<svg width="71" height="70" viewBox="0 0 71 70" fill="none" xmlns="http://www.w3.org/2000/svg">
<rect x="0.133789" width="70" height="70" rx="35" fill="#61DCDF" fill-opacity="0.29"/>
<g clip-path="url(#clip0_216_2424)">
<path d="M42.961 30.1241C42.5846 28.2808 41.58 26.6252 40.1188 25.4399C38.6577 24.2547 36.8304 23.6133 34.949 23.6252C33.0676 23.6371 31.2487 24.3015 29.8026 25.5051C28.3565 26.7087 27.373 28.3769 27.0198 30.2249C25.5202 30.4918 24.1751 31.3109 23.2496 32.5207C22.3242 33.7305 21.8857 35.2431 22.0205 36.7603C22.1553 38.2774 22.8537 39.689 23.978 40.7167C25.1023 41.7443 26.5708 42.3134 28.0939 42.3116H28.5002V40.6866H28.0939C26.9341 40.6897 25.8187 40.2413 24.9835 39.4365C24.1484 38.6317 23.6592 37.5335 23.6194 36.3744C23.5796 35.2153 23.9924 34.0861 24.7703 33.2259C25.5482 32.3657 26.6303 31.8419 27.7876 31.7654L28.4677 31.7191L28.5408 31.0423C28.7049 29.5305 29.3943 28.1242 30.4889 27.0685C31.5835 26.0129 33.0138 25.3748 34.5306 25.2655C36.0474 25.1563 37.5544 25.5827 38.789 26.4706C40.0235 27.3585 40.9074 28.6515 41.2865 30.1241H42.961Z" fill="#31C2E1"/>
<path d="M44.75 31.75H36.625C36.1942 31.7504 35.7811 31.9218 35.4764 32.2264C35.1718 32.5311 35.0004 32.9442 35 33.375V36.625H31.75C31.3192 36.6254 30.9061 36.7968 30.6014 37.1014C30.2968 37.4061 30.1254 37.8192 30.125 38.25V46.375H46.375V33.375C46.3746 32.9442 46.2032 32.5311 45.8986 32.2264C45.5939 31.9218 45.1808 31.7504 44.75 31.75ZM31.75 44.75V38.25H35V44.75H31.75ZM44.75 44.75H36.625V33.375H44.75V44.75Z" fill="#31C2E1"/>
<path d="M38.25 35H39.875V38.25H38.25V35ZM41.5 35H43.125V38.25H41.5V35ZM38.25 39.875H39.875V43.125H38.25V39.875ZM41.5 39.875H43.125V43.125H41.5V39.875Z" fill="#31C2E1"/>
</g>
<defs>
<clipPath id="clip0_216_2424">
<rect width="26" height="26" fill="white" transform="translate(22 22)"/>
</clipPath>
</defs>
</svg>
