<svg width="71" height="70" viewBox="0 0 71 70" fill="none" xmlns="http://www.w3.org/2000/svg">
<rect x="0.133789" width="70" height="70" rx="35" fill="#6AC75A" fill-opacity="0.31"/>
<path d="M43.1338 30H27.1338C26.0292 30 25.1338 30.8954 25.1338 32V42C25.1338 43.1046 26.0292 44 27.1338 44H43.1338C44.2384 44 45.1338 43.1046 45.1338 42V32C45.1338 30.8954 44.2384 30 43.1338 30Z" stroke="#6AC75A" stroke-width="2" stroke-linecap="round" stroke-linejoin="round"/>
<path d="M39.1338 44V28C39.1338 27.4696 38.9231 26.9609 38.548 26.5858C38.1729 26.2107 37.6642 26 37.1338 26H33.1338C32.6034 26 32.0946 26.2107 31.7196 26.5858C31.3445 26.9609 31.1338 27.4696 31.1338 28V44" stroke="#6AC75A" stroke-width="2" stroke-linecap="round" stroke-linejoin="round"/>
</svg>
