<svg width="71" height="70" viewBox="0 0 71 70" fill="none" xmlns="http://www.w3.org/2000/svg">
<rect x="0.5" width="70" height="70" rx="35" fill="#FFC0EC" fill-opacity="0.27"/>
<path d="M31.3436 31.2057H26.4686C26.1813 31.2057 25.9057 31.0916 25.7026 30.8884C25.4994 30.6853 25.3853 30.4097 25.3853 30.1224V25.2474C25.3853 24.9601 25.4994 24.6845 25.7026 24.4814C25.9057 24.2782 26.1813 24.1641 26.4686 24.1641C26.7559 24.1641 27.0315 24.2782 27.2346 24.4814C27.4378 24.6845 27.5519 24.9601 27.5519 25.2474V29.0391H31.3436C31.6309 29.0391 31.9065 29.1532 32.1096 29.3564C32.3128 29.5595 32.4269 29.8351 32.4269 30.1224C32.4269 30.4097 32.3128 30.6853 32.1096 30.8884C31.9065 31.0916 31.6309 31.2057 31.3436 31.2057Z" fill="#EB8CCF"/>
<path d="M44.7501 36.0871C44.4628 36.0871 44.1872 35.9729 43.9841 35.7698C43.7809 35.5666 43.6668 35.291 43.6668 35.0037C43.6676 33.0966 43.0389 31.2424 41.8783 29.7291C40.7177 28.2157 39.09 27.1278 37.2478 26.634C35.4057 26.1403 33.4521 26.2684 31.6902 26.9984C29.9283 27.7284 28.4565 29.0196 27.5034 30.6715C27.3595 30.9202 27.1227 31.1015 26.845 31.1755C26.5674 31.2496 26.2717 31.2103 26.0231 31.0664C25.7744 30.9224 25.5931 30.6856 25.519 30.4079C25.445 30.1303 25.4842 29.8347 25.6282 29.586C26.8201 27.5214 28.6601 25.9079 30.8626 24.9958C33.0652 24.0837 35.5072 23.9239 37.8098 24.5413C40.1124 25.1587 42.1469 26.5188 43.5977 28.4105C45.0484 30.3022 45.8343 32.6198 45.8334 35.0037C45.8334 35.291 45.7193 35.5666 45.5161 35.7698C45.313 35.9729 45.0374 36.0871 44.7501 36.0871ZM43.5314 45.8371C43.244 45.8371 42.9685 45.7229 42.7653 45.5198C42.5622 45.3166 42.448 45.041 42.448 44.7537V40.9621H38.6563C38.369 40.9621 38.0935 40.8479 37.8903 40.6448C37.6872 40.4416 37.573 40.166 37.573 39.8787C37.573 39.5914 37.6872 39.3159 37.8903 39.1127C38.0935 38.9095 38.369 38.7954 38.6563 38.7954H43.5314C43.8187 38.7954 44.0942 38.9095 44.2974 39.1127C44.5005 39.3159 44.6147 39.5914 44.6147 39.8787V44.7537C44.6147 45.041 44.5005 45.3166 44.2974 45.5198C44.0942 45.7229 43.8187 45.8371 43.5314 45.8371Z" fill="#EB8CCF"/>
<path d="M34.9998 45.8307C32.1277 45.8273 29.3742 44.6848 27.3433 42.6539C25.3124 40.623 24.1699 37.8695 24.1665 34.9974C24.1665 34.7101 24.2806 34.4345 24.4838 34.2314C24.687 34.0282 24.9625 33.9141 25.2498 33.9141C25.5372 33.9141 25.8127 34.0282 26.0159 34.2314C26.219 34.4345 26.3332 34.7101 26.3332 34.9974C26.3323 36.9046 26.961 38.7587 28.1217 40.272C29.2823 41.7854 30.91 42.8733 32.7521 43.3671C34.5942 43.8608 36.5478 43.7328 38.3098 43.0027C40.0717 42.2727 41.5434 40.9816 42.4965 39.3296C42.5678 39.2065 42.6626 39.0986 42.7756 39.0121C42.8885 38.9257 43.0174 38.8623 43.1549 38.8256C43.2924 38.7889 43.4357 38.7797 43.5768 38.7984C43.7178 38.8172 43.8538 38.8635 43.9769 38.9348C44.1 39.006 44.2079 39.1009 44.2944 39.2138C44.3809 39.3268 44.4442 39.4557 44.4809 39.5932C44.5176 39.7306 44.5268 39.874 44.5081 40.015C44.4894 40.1561 44.443 40.292 44.3718 40.4151C43.419 42.058 42.0523 43.4225 40.408 44.3727C38.7636 45.3229 36.899 45.8256 34.9998 45.8307Z" fill="#EB8CCF"/>
</svg>
