<svg width="71" height="70" viewBox="0 0 71 70" fill="none" xmlns="http://www.w3.org/2000/svg">
<rect x="0.5" width="70" height="70" rx="35" fill="#61DCDF" fill-opacity="0.29"/>
<path d="M46.375 45.2375L44.1 42.9625C44.5063 42.3125 44.75 41.5 44.75 40.6875C44.75 38.4125 42.9625 36.625 40.6875 36.625C38.4125 36.625 36.625 38.4125 36.625 40.6875C36.625 42.9625 38.4125 44.75 40.6875 44.75C41.5 44.75 42.3125 44.5063 42.9625 44.1L45.2375 46.375L46.375 45.2375ZM38.25 40.6875C38.25 39.3062 39.3062 38.25 40.6875 38.25C42.0688 38.25 43.125 39.3062 43.125 40.6875C43.125 42.0688 42.0688 43.125 40.6875 43.125C39.3062 43.125 38.25 42.0688 38.25 40.6875ZM28.5 35H36.625V36.625H28.5V35ZM28.5 30.125H38.25V31.75H28.5V30.125Z" fill="#31C2E1"/>
<path d="M33.375 44.5063L29.15 42.2312C26.7125 41.0125 25.25 38.4937 25.25 35.8125V25.25H41.5V34.1875H43.125V25.25C43.125 24.3562 42.3937 23.625 41.5 23.625H25.25C24.3562 23.625 23.625 24.3562 23.625 25.25V35.8125C23.625 39.1438 25.4125 42.15 28.3375 43.6938L33.375 46.375V44.5063Z" fill="#31C2E1"/>
</svg>
