<svg width="40" height="40" viewBox="0 0 40 40" fill="none" xmlns="http://www.w3.org/2000/svg">
<circle cx="20" cy="20" r="20" fill="#D03B9C"/>
<path fill-rule="evenodd" clip-rule="evenodd" d="M19.9993 11.6641C17.736 11.6641 17.4527 11.6741 16.5635 11.7141C15.6768 11.7549 15.071 11.8957 14.541 12.1016C13.9848 12.3106 13.4808 12.6385 13.0643 13.0624C12.6405 13.4789 12.3126 13.9828 12.1035 14.5391C11.8977 15.0691 11.7568 15.6749 11.716 16.5616C11.6752 17.4507 11.666 17.7341 11.666 19.9974C11.666 22.2607 11.6752 22.5441 11.716 23.4332C11.7568 24.3199 11.8977 24.9257 12.1035 25.4557C12.3126 26.012 12.6405 26.5159 13.0643 26.9324C13.4808 27.3562 13.9848 27.6841 14.541 27.8932C15.071 28.0991 15.6768 28.2399 16.5635 28.2807C17.4527 28.3207 17.736 28.3307 19.9993 28.3307C22.2627 28.3307 22.546 28.3207 23.4352 28.2807C24.3218 28.2399 24.9277 28.0991 25.4577 27.8932C26.0139 27.6842 26.5179 27.3563 26.9343 26.9324C27.3582 26.5159 27.6861 26.012 27.8952 25.4557C28.101 24.9257 28.2418 24.3199 28.2827 23.4332C28.3227 22.5441 28.3327 22.2607 28.3327 19.9974C28.3327 17.7341 28.3227 17.4507 28.2827 16.5616C28.2418 15.6749 28.101 15.0691 27.8952 14.5391C27.6861 13.9828 27.3582 13.4789 26.9343 13.0624C26.5179 12.6385 26.0139 12.3106 25.4577 12.1016C24.9277 11.8957 24.3218 11.7549 23.4352 11.7141C22.546 11.6741 22.2627 11.6641 19.9993 11.6641ZM19.9993 13.1657C22.2243 13.1657 22.4877 13.1741 23.366 13.2141C24.1793 13.2516 24.6202 13.3866 24.9143 13.5007C25.3027 13.6524 25.581 13.8332 25.8727 14.1241C26.1643 14.4157 26.3443 14.6941 26.496 15.0824C26.6093 15.3766 26.746 15.8174 26.7827 16.6299C26.8227 17.5091 26.831 17.7716 26.831 19.9974C26.831 22.2224 26.8227 22.4857 26.7827 23.3641C26.7452 24.1774 26.6093 24.6182 26.496 24.9124C26.3624 25.2744 26.1494 25.6018 25.8727 25.8707C25.581 26.1624 25.3027 26.3424 24.9143 26.4941C24.6202 26.6074 24.1793 26.7441 23.3668 26.7807C22.4885 26.8207 22.2252 26.8291 19.9993 26.8291C17.7743 26.8291 17.5102 26.8207 16.6327 26.7807C15.8193 26.7432 15.3785 26.6074 15.0843 26.4941C14.7223 26.3605 14.3949 26.1475 14.126 25.8707C13.8492 25.6019 13.6362 25.2744 13.5027 24.9124C13.3885 24.6182 13.2527 24.1774 13.216 23.3649C13.176 22.4857 13.1677 22.2232 13.1677 19.9974C13.1677 17.7724 13.176 17.5091 13.216 16.6307C13.2535 15.8174 13.3885 15.3766 13.5027 15.0824C13.6543 14.6941 13.8352 14.4157 14.126 14.1241C14.4177 13.8324 14.696 13.6524 15.0843 13.5007C15.3785 13.3866 15.8193 13.2507 16.6318 13.2141C17.511 13.1741 17.7735 13.1657 19.9993 13.1657ZM19.9993 22.7749C19.2627 22.7749 18.5562 22.4823 18.0354 21.9614C17.5145 21.4405 17.2218 20.734 17.2218 19.9974C17.2218 19.2608 17.5145 18.5543 18.0354 18.0334C18.5562 17.5125 19.2627 17.2199 19.9993 17.2199C20.736 17.2199 21.4425 17.5125 21.9633 18.0334C22.4842 18.5543 22.7768 19.2608 22.7768 19.9974C22.7768 20.734 22.4842 21.4405 21.9633 21.9614C21.4425 22.4823 20.736 22.7749 19.9993 22.7749ZM19.9993 15.7182C19.4374 15.7182 18.881 15.8289 18.3618 16.044C17.8426 16.259 17.3709 16.5742 16.9735 16.9716C16.5762 17.3689 16.261 17.8407 16.0459 18.3598C15.8309 18.879 15.7202 19.4354 15.7202 19.9974C15.7202 20.5593 15.8309 21.1158 16.0459 21.635C16.261 22.1541 16.5762 22.6259 16.9735 23.0232C17.3709 23.4206 17.8426 23.7358 18.3618 23.9508C18.881 24.1659 19.4374 24.2766 19.9993 24.2766C21.1343 24.2766 22.2227 23.8257 23.0252 23.0232C23.8277 22.2207 24.2785 21.1323 24.2785 19.9974C24.2785 18.8625 23.8277 17.7741 23.0252 16.9716C22.2227 16.1691 21.1343 15.7182 19.9993 15.7182ZM25.4477 15.5491C25.4477 15.6804 25.4218 15.8104 25.3716 15.9317C25.3213 16.0531 25.2476 16.1633 25.1548 16.2562C25.0619 16.349 24.9517 16.4227 24.8304 16.4729C24.709 16.5232 24.579 16.5491 24.4477 16.5491C24.3164 16.5491 24.1863 16.5232 24.065 16.4729C23.9437 16.4227 23.8334 16.349 23.7406 16.2562C23.6477 16.1633 23.5741 16.0531 23.5238 15.9317C23.4735 15.8104 23.4477 15.6804 23.4477 15.5491C23.4477 15.2838 23.553 15.0295 23.7406 14.842C23.9281 14.6544 24.1825 14.5491 24.4477 14.5491C24.7129 14.5491 24.9673 14.6544 25.1548 14.842C25.3423 15.0295 25.4477 15.2838 25.4477 15.5491Z" fill="white"/>
</svg>
