<svg width="75" height="75" viewBox="0 0 75 75" fill="none" xmlns="http://www.w3.org/2000/svg">
<path d="M69.7266 34.7168H60.7764C59.5093 23.9941 51.0059 15.4907 40.2832 14.2236V5.27344C40.2832 4.95117 40.0195 4.6875 39.6973 4.6875H35.3027C34.9805 4.6875 34.7168 4.95117 34.7168 5.27344V14.2236C23.9941 15.4907 15.4907 23.9941 14.2236 34.7168H5.27344C4.95117 34.7168 4.6875 34.9805 4.6875 35.3027V39.6973C4.6875 40.0195 4.95117 40.2832 5.27344 40.2832H14.2236C15.4907 51.0059 23.9941 59.5093 34.7168 60.7764V69.7266C34.7168 70.0488 34.9805 70.3125 35.3027 70.3125H39.6973C40.0195 70.3125 40.2832 70.0488 40.2832 69.7266V60.7764C51.0059 59.5093 59.5093 51.0059 60.7764 40.2832H69.7266C70.0488 40.2832 70.3125 40.0195 70.3125 39.6973V35.3027C70.3125 34.9805 70.0488 34.7168 69.7266 34.7168ZM37.5 55.3711C27.627 55.3711 19.6289 47.373 19.6289 37.5C19.6289 27.627 27.627 19.6289 37.5 19.6289C47.373 19.6289 55.3711 27.627 55.3711 37.5C55.3711 47.373 47.373 55.3711 37.5 55.3711Z" fill="#738E7A"/>
<path d="M37.5 28.7109C35.1489 28.7109 32.9517 29.6191 31.2891 31.2891C29.6265 32.9517 28.7109 35.1489 28.7109 37.5C28.7109 39.8511 29.6265 42.0483 31.2891 43.7109C32.9517 45.3662 35.1562 46.2891 37.5 46.2891C39.8438 46.2891 42.0483 45.3735 43.7109 43.7109C45.3662 42.0483 46.2891 39.8438 46.2891 37.5C46.2891 35.1562 45.3735 32.9517 43.7109 31.2891C42.0483 29.6191 39.8511 28.7109 37.5 28.7109Z" fill="#738E7A"/>
</svg>
