<svg width="484" height="512" viewBox="0 0 484 512" fill="none" stroke="currentColor" stroke-width="2" stroke-linecap="round" stroke-linejoin="round" xmlns="http://www.w3.org/2000/svg">
<path fill-rule="evenodd" clip-rule="evenodd" d="M234.5 1.90201C232.3 2.92301 229.475 4.74301 228.222 5.94401C226.97 7.14601 221.448 17.115 215.951 28.097C208.652 42.682 205.357 48.282 203.729 48.869C202.503 49.31 192.372 50.96 181.216 52.534C166.652 54.588 159.895 55.976 157.257 57.456C151.787 60.525 148.009 66.515 147.317 73.218C146.409 82.016 148.653 85.461 166.051 101.983C174.301 109.816 181.454 116.98 181.948 117.902C182.534 118.998 181.642 126.499 179.375 139.54C175.299 162.983 175.287 169.065 179.304 174.333C183.8 180.226 187.686 182.385 194.59 182.825C200.765 183.218 200.77 183.216 221.633 172.43L242.5 161.643L262 171.98C278.63 180.795 282.338 182.384 287.194 182.774C297.041 183.566 304.93 178.182 308.015 168.563C309.138 165.066 308.849 162.086 305.429 141.835L301.58 119.044L318.631 101.772C333.714 86.494 335.816 83.962 336.834 79.837C338.225 74.203 337.542 69.877 334.388 64.337C330.332 57.213 327.433 56.12 302.659 52.372C290.472 50.528 280.165 49.015 279.755 49.01C279.345 49.004 274.33 39.663 268.61 28.25C262.891 16.837 257.145 6.50901 255.842 5.29801C250.173 0.0290079 241.503 -1.35099 234.5 1.90201ZM244.476 15.629C245.378 15.975 250.14 24.595 255.058 34.785C259.976 44.975 265.151 54.821 266.558 56.665C270.792 62.215 274.792 63.516 298 66.891C316.392 69.565 319.753 70.321 321.25 72.119C322.212 73.276 323.009 74.734 323.021 75.361C323.032 75.987 315.607 83.759 306.519 92.631C289.48 109.267 287 112.706 287 119.693C287 121.76 288.588 132.58 290.529 143.737C294.384 165.896 294.269 168.022 289.215 167.974C287.722 167.96 278.4 163.676 268.5 158.454C248.911 148.12 244.539 146.493 239.091 147.503C237.116 147.87 226.961 152.651 216.525 158.129C204.439 164.474 196.67 167.982 195.126 167.795C190.329 167.212 190.274 165.568 194.245 141.766C197.452 122.552 197.808 118.883 196.843 115C195.867 111.073 193.579 108.35 178.862 93.605C162.035 76.745 160.036 73.875 163.261 71.198C163.955 70.622 173.967 68.759 185.511 67.058C197.055 65.357 207.878 63.515 209.562 62.967C215.365 61.076 219.53 55.261 228.52 36.5C238.934 14.768 239.682 13.79 244.476 15.629ZM239.315 55.016C236.81 56.015 235 58.924 235 61.951C235 63.105 233.036 65.922 230.598 68.267C225.637 73.037 223.418 79.085 224.504 84.875C226.004 92.868 229.851 96.717 239.771 100.147C245.98 102.295 248.186 104.259 247.292 106.847C245.862 110.985 239.863 112.28 235 109.5C231.172 107.312 226.678 107.65 224.174 110.314C219.682 115.096 222.15 120.41 230.601 124.148C233.994 125.649 235 126.629 235 128.436C235 135.045 243.23 137.759 247.658 132.611C248.946 131.114 250.017 128.676 250.038 127.194C250.066 125.21 251.109 123.786 253.998 121.788C259.184 118.202 262.143 112.281 262.143 105.488C262.143 96.3 257.662 90.807 246.993 86.917C239.821 84.302 238.426 82.942 239.966 80.064C241.253 77.658 243.698 77.457 246.441 79.532C249.623 81.938 254.548 81.39 256.927 78.365C258.067 76.916 259 75.137 259 74.412C259 71.539 256.597 68.098 253.382 66.367C251.104 65.14 250 63.822 250 62.328C250 59.705 246.331 55.373 243.5 54.654C242.4 54.374 240.517 54.537 239.315 55.016ZM78.5 90.403C74.055 92.365 72.806 94.161 65.171 109.583L58.199 123.666L42.349 125.938C24.669 128.473 20.556 130.201 17.656 136.312C15.76 140.308 15.476 148.099 17.109 151.316C17.718 152.517 23.335 158.675 29.591 165L40.964 176.5L38.492 191C35.453 208.823 35.446 209.638 38.303 215.04C40.932 220.012 47.295 224 52.598 224C54.733 224 60.94 221.376 70.337 216.5C78.288 212.375 85.237 209 85.781 209C86.324 209 92.783 212.239 100.134 216.198C111.676 222.413 114.19 223.396 118.557 223.399C128.083 223.404 135.042 216.607 134.953 207.382C134.928 204.697 133.855 196.65 132.569 189.5L130.231 176.5L142.483 164C152.435 153.846 154.861 150.799 155.409 147.765C156.685 140.715 152.97 132.587 147.081 129.542C145.572 128.762 137.354 127.131 128.817 125.918L113.296 123.713L106.898 110.687C99.973 96.588 97.306 92.727 92.931 90.464C89.444 88.661 82.513 88.631 78.5 90.403ZM392 89.722C387.073 91.573 384.536 94.952 377.45 109.099C373.346 117.295 369.576 124 369.074 124C364.673 124 338.772 128.511 336.189 129.727C331.084 132.13 328 137.424 328 143.782C328 146.706 328.659 150.374 329.464 151.931C330.27 153.488 335.941 159.503 342.066 165.297L353.204 175.832L350.518 191.894C348.935 201.36 348.106 209.207 348.5 211.002C349.887 217.315 358.415 223.923 365.246 223.978C366.756 223.99 374.72 220.52 382.943 216.266L397.894 208.531L412.803 216.266C421.003 220.52 428.564 223.997 429.606 223.994C433.758 223.982 439.114 221.758 442.357 218.7C447.851 213.518 448.282 210.056 445.445 193.881C444.1 186.216 443 178.967 443 177.771C443 176.336 447.046 171.505 454.909 163.549C464.689 153.655 466.947 150.812 467.539 147.654C468.821 140.803 465.01 132.608 459.127 129.566C457.644 128.799 449.701 127.193 441.475 125.996C433.25 124.8 426.18 123.611 425.764 123.354C425.348 123.097 421.598 116.154 417.43 107.926C410.654 94.55 409.44 92.755 405.966 90.983C402.266 89.095 395.333 88.469 392 89.722ZM92.868 116.549C100.033 131.372 102.111 134.489 106.259 136.634C107.965 137.516 116.253 139.233 124.676 140.448C133.1 141.664 140.309 142.975 140.697 143.363C141.084 143.751 135.948 149.566 129.281 156.284C113.877 171.81 114.118 171.061 117.744 192.161C119.23 200.811 120.16 208.173 119.811 208.523C119.461 208.872 112.683 205.748 104.747 201.579C85.718 191.582 85.91 191.583 66.689 201.52C58.425 205.793 51.88 208.616 51.535 208.056C51.2 207.515 52.134 200.065 53.611 191.5C57.235 170.479 57.397 170.965 41.673 155.831C27.451 142.144 27.143 143.126 46.5 140.468C60.836 138.5 64.182 137.565 67.775 134.519C69.285 133.24 73.609 125.92 77.471 118.105C81.306 110.347 84.974 104 85.622 104C86.271 104 89.531 109.647 92.868 116.549ZM406.444 118.887C415.837 137.642 415.485 137.39 436.52 140.426C445.029 141.653 452.309 142.975 452.696 143.363C453.084 143.751 448.185 149.34 441.809 155.784C435.434 162.228 429.718 168.483 429.109 169.684C427.467 172.919 427.755 180.278 430 192.5C431.966 203.203 432.492 209 431.495 209C431.217 209 424.44 205.572 416.435 201.381C397.774 191.613 397.299 191.619 378.05 201.85C370.652 205.782 364.25 208.65 363.823 208.223C363.397 207.797 364.158 200.935 365.514 192.974C366.871 185.013 367.985 177.245 367.99 175.71C368.008 170.686 364.23 165.363 353.545 155.355C347.759 149.935 343.019 144.946 343.012 144.269C343.006 143.592 344.012 142.821 345.25 142.556C347.544 142.064 374.496 138 375.463 138C375.755 138 377.715 136.446 379.817 134.546C382.599 132.033 385.366 127.403 389.978 117.546C393.473 110.078 396.916 104 397.652 104C398.387 104 402.343 110.699 406.444 118.887ZM223.763 207.033C214.724 208.555 201.036 213.995 196.75 217.769C194.35 219.883 194.487 225.487 197 228C199.78 230.78 202.438 230.521 211.574 226.584C225.883 220.415 238.16 219.49 246.852 223.924C250.648 225.861 254 230.183 254 233.141C254 233.824 251.909 239.941 249.352 246.736C243.123 263.293 242.083 264.238 217.822 275.366C206.533 280.544 201.295 283.981 193.027 291.635C186.574 297.61 186.733 297.644 185.066 289.946C182.999 280.405 182.8 269.776 184.525 261C187.394 246.396 187.394 246.394 185.098 244.098C182.085 241.085 176.711 241.281 174.181 244.497C168.408 251.836 166.692 278.357 170.881 295.498C172.091 300.446 174.187 306.913 175.54 309.868C176.893 312.824 178 316.263 178 317.511C178 321.28 182.68 338.064 185.684 345.067C190.24 355.69 195.942 364.607 202.686 371.657L209 378.256V392.016V405.776L184.25 416.01C154.993 428.106 153.07 429.038 148.084 433.543C145.979 435.444 143.637 436.969 142.879 436.93C142.12 436.892 135.425 434.294 128 431.158L114.5 425.455L114.211 417.342L113.923 409.229L119.225 401.839C125.679 392.844 130.955 382.221 135.126 369.822C140.426 354.068 140.318 334.944 134.847 320.321C130.098 307.629 118.578 297.12 104.62 292.749C94.512 289.583 75.386 289.639 66.171 292.861C59.456 295.21 52.3 299.287 50.282 301.914C48.459 304.287 48.752 307.414 51.073 310.365C53.826 313.866 57.249 313.758 64.658 309.937C72.807 305.734 82.776 304.269 93.039 305.764C113.586 308.759 123.981 321.945 123.973 345C123.97 355.448 122.225 363.126 117.213 374.752C109.845 391.842 98.038 406.174 89.129 408.843C85.494 409.932 84.458 409.849 80.741 408.166C74.333 405.266 68.64 399.775 62.625 390.695C52.633 375.611 48.003 361.773 47.387 345.153C46.926 332.727 46.18 330.334 42.471 329.403C38.08 328.301 34.991 329.779 33.31 333.786C31.002 339.285 32.051 355.844 35.445 367.5C38.64 378.474 46.406 394.412 52.491 402.48L57 408.461L56.998 416.98L56.995 425.5L36.748 433.8C15.528 442.498 10.667 445.339 5.89 451.835C0.73 458.851 0 462.565 0 481.788C0 498.663 0.0940001 499.484 2.486 503.566C4.143 506.394 6.415 508.506 9.302 509.904L13.631 512H242H470.369L474.698 509.904C477.585 508.506 479.857 506.394 481.514 503.566C483.906 499.484 484 498.663 484 481.788C484 462.565 483.27 458.851 478.11 451.835C473.333 445.339 468.472 442.498 447.252 433.8L427.005 425.5L427.002 417.93C427 410.719 427.166 410.166 430.508 406.261C439.13 396.189 447.565 379.016 450.517 365.524C451.242 362.211 452.816 355.9 454.014 351.5C456.801 341.266 457.049 326.307 454.586 317C452.178 307.895 446.795 297.375 441.377 291.18C436.906 286.07 436.765 285.707 436.522 278.708C436.013 264.077 427.673 251.409 414.176 244.768C408.157 241.806 406.687 241.5 398.465 241.5C389.991 241.5 388.895 241.748 381.763 245.272C368.449 251.853 361.064 262.887 360.192 277.5C359.729 285.267 359.587 285.645 355.304 290.5C349.571 296.998 342.344 311.639 340.495 320.5C337.887 333.003 338.869 345.289 343.452 357.466C344.701 360.785 346.713 367.072 347.923 371.438C350.938 382.317 356.285 392.923 363.777 402.882L370.082 411.265L369.791 418.361L369.5 425.456L356 431.158C341.585 437.247 339.552 437.763 338.3 435.653C337.86 434.912 335.328 432.662 332.673 430.653C324.453 424.432 317 426.157 317 434.282C317 437.049 317.611 438.332 319.583 439.703C325.533 443.843 329.247 447.553 331.296 451.405C333.291 455.157 333.503 457.237 333.824 476.25L334.175 497H292.087H250V478.108V459.217L252.75 458.541C261.219 456.459 263.947 450.844 263.978 435.438L264 424.376L267.081 422.098L270.163 419.82L280.018 423.91C285.439 426.159 290.741 428 291.802 428C295.041 428 299 424.171 299 421.038C299 416.656 296.264 414.36 286 410.125L276.5 406.206L276.222 391.973L275.944 377.74L281.275 372.12C293.721 358.999 302.331 340.884 306.015 320.069C306.641 316.533 308.465 311.041 310.068 307.866C311.67 304.691 314.19 298.135 315.666 293.297C317.982 285.708 318.353 282.715 318.372 271.5C318.397 256.534 316.944 251.436 309.579 240.66C301.719 229.158 290.715 223.725 275.535 223.851L267.328 223.919L264.173 219.443C256.812 209 240.972 204.135 223.763 207.033ZM287.539 240.878C293.812 243.728 299.673 251.114 302.16 259.302C303.909 265.059 304.173 267.776 303.674 274.887C303.139 282.503 300.53 293.715 298.546 296.926C298.095 297.655 295.894 296.276 292.372 293.057C289.362 290.306 282.297 284.702 276.673 280.603C266.914 273.49 260 266.03 260 262.61C260 260.658 266.906 241.948 268.253 240.25C269.826 238.268 282.717 238.688 287.539 240.878ZM405.5 257.102C410.521 258.471 419.476 267.336 420.486 271.938C420.874 273.701 421.014 275.319 420.798 275.535C420.583 275.75 418.178 275.2 415.453 274.312C408.238 271.959 389.32 271.964 381.643 274.32C378.421 275.309 375.562 275.896 375.29 275.623C375.018 275.351 375.912 272.689 377.277 269.707C382.179 259 393.658 253.873 405.5 257.102ZM252.914 280.042C254.7 282.265 262.088 288.524 269.331 293.951C276.574 299.378 284.649 306.023 287.276 308.72L292.052 313.622L290.585 320.595C285.618 344.207 273.403 363.27 258.621 370.476C234.021 382.468 208.468 366.693 197.108 332.5C195.463 327.55 193.807 321.129 193.428 318.231L192.737 312.961L200.674 305.141C209.211 296.729 218.029 291.009 230.086 286.062C234.259 284.35 240.109 281.398 243.086 279.5C246.064 277.603 248.762 276.04 249.083 276.026C249.403 276.012 251.127 277.819 252.914 280.042ZM415.493 290.051C432.609 296.547 444.494 320.286 441 341L439.786 348.197L435.82 344.348C431.146 339.812 424.588 330.827 420 322.672C416.576 316.586 413.397 314.426 409.618 315.617C408.453 315.984 404.031 319.773 399.791 324.037C386.516 337.386 369.567 348.807 360.382 350.591C357.54 351.144 357.158 350.901 356.057 347.849C353.907 341.888 353.593 330.131 355.393 323C361.476 298.9 377.5 286.396 401 287.41C406.666 287.655 411.498 288.535 415.493 290.051ZM413.5 340.752C416.615 345.683 429.824 359.597 433.746 362.079L435.992 363.5L433.101 371.777C429.339 382.551 424.962 389.794 417.181 398.125C410.947 404.799 402.765 410.01 398.554 409.99C392.125 409.96 380.053 400.751 372.997 390.495C368.828 384.437 362.966 371.938 362.708 368.56C362.518 366.068 363.044 365.629 368.688 363.563C378.357 360.022 388.795 353.571 399.586 344.466C405.039 339.865 409.725 336.079 410 336.052C410.275 336.026 411.85 338.14 413.5 340.752ZM242.5 389.145C247.535 389.136 253.592 388.483 256.25 387.662L261 386.196V396.943C261 408.746 260.903 408.963 254 412.606C248.392 415.564 235.872 415.226 229.479 411.943L224.5 409.385L224.219 397.781L223.938 386.177L228.719 387.669C231.492 388.534 237.28 389.154 242.5 389.145ZM219.959 423.556C227.452 428.18 233.72 430 242.159 430H249V436.961V443.923L245.185 444.95C241.335 445.987 238.193 448.67 236.125 452.684C235.396 454.099 235 462.291 235 475.934V497H193H151V477.366C151 454.646 151.691 451.252 157.481 445.522C160.851 442.187 165.698 439.812 187.5 430.81C201.8 424.906 213.657 420.058 213.849 420.037C214.041 420.017 216.791 421.6 219.959 423.556ZM81.614 424.139C85.753 425.015 87.782 424.914 92.267 423.611C95.315 422.725 98.095 422 98.446 422C98.797 422 98.953 425.441 98.792 429.646C98.529 436.547 98.247 437.482 95.903 439.227C94.306 440.417 91.035 441.351 87.403 441.654C82.556 442.057 80.695 441.73 77 439.823L72.5 437.5L72.206 429.622C71.914 421.826 71.935 421.75 74.206 422.4C75.468 422.761 78.801 423.544 81.614 424.139ZM393.25 424.242C397.833 425.305 400.662 424.988 409.852 422.381L412.203 421.714L411.477 430.607C411.077 435.498 409.902 442.267 408.866 445.65C406.774 452.477 399.386 464.357 397.831 463.395C395.925 462.217 390.285 452.463 388.061 446.5C386.618 442.63 385.622 437.157 385.255 431.083C384.713 422.113 384.777 421.701 386.593 422.403C387.642 422.809 390.637 423.636 393.25 424.242ZM377.284 459.625C378.727 462.444 382.397 467.844 385.441 471.625L390.975 478.5L390.987 487.75L391 497H370.098H349.196L348.785 475.25C348.559 463.288 348.178 452.9 347.937 452.168C347.642 451.267 351.226 449.291 359 446.068L370.5 441.3L372.58 447.9C373.725 451.53 375.841 456.806 377.284 459.625ZM454.716 453.15C462.101 456.229 467.449 460.923 468.523 465.268C468.826 466.496 468.945 474.025 468.787 482L468.5 496.5L437.25 496.764L406 497.028V487.189C406 477.893 406.143 477.214 408.589 474.924C415.227 468.708 422.52 454.724 425.605 442.292C425.805 441.488 429.512 442.597 436.703 445.612C442.641 448.103 450.747 451.495 454.716 453.15ZM57 460.5C57 470.675 56.812 479 56.583 479C56.354 479 53.581 475.288 50.42 470.75C47.26 466.212 42.726 459.748 40.345 456.384L36.016 450.269L45.758 446.186C51.116 443.941 55.838 442.08 56.25 442.052C56.662 442.023 57 450.325 57 460.5ZM126.789 446.763L135.078 450.233L133.375 452.866C131.727 455.417 115.099 479.075 114.364 479.917C114.164 480.146 114 471.678 114 461.099V441.865L116.25 442.579C117.488 442.972 122.23 444.855 126.789 446.763ZM85.5 456.5C89.35 456.5 93.963 456.127 95.75 455.671L99 454.841V475.921V497H85.5H72V475.921V454.841L75.25 455.671C77.037 456.127 81.65 456.5 85.5 456.5ZM36.326 476.756L50.151 496.5L33.864 496.776C24.906 496.927 16.997 496.829 16.288 496.557C14.596 495.908 14.452 466.932 16.125 463.684C17.401 461.206 21.057 456.997 21.924 457.006C22.241 457.009 28.721 465.897 36.326 476.756ZM273.455 469.455C272.105 470.805 271 473.075 271 474.5C271 475.925 272.105 478.195 273.455 479.545C275.861 481.952 276.229 482 292.32 482C307.408 482 308.943 481.833 311.365 479.927C314.667 477.33 314.978 471.978 312 469C310.156 467.156 308.667 467 292.955 467C276.19 467 275.869 467.04 273.455 469.455ZM136 486.5V497H128.451H120.901L128.141 486.5C132.123 480.725 135.52 476 135.69 476C135.861 476 136 480.725 136 486.5Z" fill="#72ca63"/>
</svg>
