<svg width="77" height="74" viewBox="0 0 77 74" fill="none" xmlns="http://www.w3.org/2000/svg">
<mask id="mask0_22_1261" style="mask-type:luminance" maskUnits="userSpaceOnUse" x="0" y="0" width="79" height="74">
<path d="M47.0143 66.1094H7.89048C6.59344 66.1094 5.34953 65.5942 4.43239 64.677C3.51525 63.7599 3 62.516 3 61.2189V22.0951C3 16.907 5.06098 11.9313 8.72955 8.26275C12.3981 4.59418 17.3738 2.5332 22.5619 2.5332H47.0143C52.2024 2.5332 57.1781 4.59418 60.8466 8.26275C64.5152 11.9313 66.5762 16.907 66.5762 22.0951V31.8761" stroke="white" stroke-width="5" stroke-linecap="round"/>
<path d="M12.7812 26.9854H47.0146H12.7812ZM12.7812 41.6568H37.2336H12.7812Z" fill="#09385A"/>
<path d="M12.7812 26.9854H47.0146M12.7812 41.6568H37.2336" stroke="#C0C0C0" stroke-opacity="0.25" stroke-width="5" stroke-linecap="round" stroke-linejoin="round"/>
<path d="M56.7946 61.2191C62.1965 61.2191 66.5756 56.84 66.5756 51.4382C66.5756 46.0363 62.1965 41.6572 56.7946 41.6572C51.3928 41.6572 47.0137 46.0363 47.0137 51.4382C47.0137 56.84 51.3928 61.2191 56.7946 61.2191Z" stroke="white" stroke-width="5"/>
<path d="M69.0215 63.6641L76.3572 70.9998L69.0215 63.6641Z" fill="#09385A"/>
<path d="M69.0215 63.6641L76.3572 70.9998" stroke="white" stroke-width="5" stroke-linecap="round"/>
</mask>
<g mask="url(#mask0_22_1261)">
<path d="M-2.47656 -0.205078H76.201V74.6031H-2.47656V-0.205078Z" fill="#09385A"/>
</g>
</svg>
