<svg width="84" height="84" viewBox="0 0 84 84" fill="none" xmlns="http://www.w3.org/2000/svg">
<rect width="84" height="84" rx="10" fill="#31C2E1" fill-opacity="0.19"/>
<g clip-path="url(#clip0_245_1357)">
<g clip-path="url(#clip1_245_1357)">
<g clip-path="url(#clip2_245_1357)">
<path d="M58.1936 52.6429V49.7354C58.1924 48.7732 57.8097 47.8508 57.1294 47.1705C56.449 46.4902 55.5266 46.1075 54.5645 46.1063H48.4547C49.1265 44.867 49.6684 43.5616 50.0718 42.2109L52.8298 40.0037C53.2585 39.6615 53.5719 39.196 53.7278 38.67C53.8836 38.144 53.8743 37.5829 53.7012 37.0623C53.5281 36.5418 53.1994 36.0869 52.7596 35.759C52.3199 35.4311 51.7901 35.246 51.2418 35.2287L52.8589 30.7824C53.2715 29.6477 53.4045 28.4302 53.2467 27.2332C53.0888 26.0361 52.6448 24.8948 51.9521 23.9058C51.2595 22.9168 50.3387 22.1094 49.2677 21.5519C48.1967 20.9944 47.0071 20.7032 45.7997 20.7031H39.6376C35.0267 20.702 30.5086 21.9978 26.5992 24.4425C26.4817 24.5152 26.3875 24.62 26.3275 24.7445C26.2675 24.869 26.2444 25.008 26.2607 25.1452C26.277 25.2824 26.3321 25.4121 26.4196 25.519C26.5071 25.626 26.6233 25.7057 26.7545 25.7489L28.5044 26.3296C28.7453 26.4099 28.9672 26.5386 29.1565 26.7078C29.3458 26.877 29.4986 27.083 29.6054 27.3134C29.7123 27.5437 29.7709 27.7934 29.7778 28.0472C29.7847 28.301 29.7396 28.5536 29.6454 28.7893C29.4715 29.224 29.3916 29.6905 29.411 30.1583C29.4304 30.626 29.5486 31.0843 29.7579 31.5031L31.629 35.2417C31.0937 35.2843 30.5836 35.4869 30.165 35.8232C29.7463 36.1594 29.4384 36.6137 29.2812 37.1272C29.1241 37.6407 29.125 38.1895 29.2837 38.7025C29.4425 39.2155 29.7519 39.6688 30.1716 40.0037L32.9297 42.2109C33.3326 43.5616 33.874 44.867 34.5453 46.1063H28.4355C27.4734 46.1075 26.551 46.4902 25.8706 47.1705C25.1903 47.8508 24.8076 48.7732 24.8064 49.7354V52.6429C23.0886 53.3606 21.6211 54.5696 20.5881 56.1184C19.5551 57.6672 19.0026 59.4866 19 61.3483V64.9773C19 65.1698 19.0765 65.3544 19.2126 65.4905C19.3487 65.6266 19.5333 65.7031 19.7258 65.7031H63.2742C63.4667 65.7031 63.6513 65.6266 63.7874 65.4905C63.9235 65.3544 64 65.1698 64 64.9773V61.3483C63.9974 59.4866 63.4449 57.6672 62.4119 56.1184C61.3789 54.5696 59.9114 53.3606 58.1936 52.6429ZM42.9516 35.2192C42.7591 35.2192 42.5745 35.2957 42.4384 35.4318C42.3023 35.5679 42.2258 35.7525 42.2258 35.945V36.6708H40.7742V35.945C40.7742 35.7525 40.6977 35.5679 40.5616 35.4318C40.4255 35.2957 40.2409 35.2192 40.0484 35.2192H33.5161V34.1559L38.0466 31.1358C39.0215 30.4846 40.1679 30.1375 41.3403 30.1386C43.0177 30.1367 44.6448 29.5658 45.9557 28.5193L47.1417 27.5707L48.3865 29.4389C49.1031 30.5113 49.4851 31.7723 49.4839 33.0621V35.2192H42.9516ZM46.5806 36.6708V38.8483C46.5806 39.0408 46.5042 39.2254 46.3681 39.3615C46.2319 39.4976 46.0473 39.5741 45.8548 39.5741H44.4032C44.2107 39.5741 44.0261 39.4976 43.89 39.3615C43.7539 39.2254 43.6774 39.0408 43.6774 38.8483V36.6708H46.5806ZM39.3226 36.6708V38.8483C39.3226 39.0408 39.2461 39.2254 39.11 39.3615C38.9739 39.4976 38.7893 39.5741 38.5968 39.5741H37.1452C36.9527 39.5741 36.7681 39.4976 36.6319 39.3615C36.4958 39.2254 36.4194 39.0408 36.4194 38.8483V36.6708H39.3226ZM52.3871 37.9047C52.3875 38.0899 52.346 38.2727 52.2658 38.4396C52.1857 38.6065 52.0688 38.7532 51.924 38.8686L50.6081 39.921C50.8 38.8478 50.9055 37.7609 50.9239 36.6708H51.1532C51.3153 36.6708 51.4757 36.7028 51.6254 36.7648C51.7751 36.8268 51.9111 36.9177 52.0257 37.0322C52.1403 37.1468 52.2312 37.2828 52.2932 37.4325C52.3552 37.5822 52.3871 37.7427 52.3871 37.9047ZM30.9925 29.3286C31.1602 28.9093 31.2404 28.4601 31.2283 28.0086C31.2162 27.5571 31.1119 27.1129 30.922 26.7031C30.732 26.2934 30.4604 25.9268 30.1236 25.6258C29.7869 25.3248 29.3923 25.0957 28.9639 24.9527L28.7418 24.8801C32.0946 23.0901 35.8369 22.1541 39.6376 22.1547H45.7997C46.7735 22.1549 47.7329 22.3898 48.5967 22.8394C49.4605 23.289 50.2032 23.9401 50.762 24.7377C51.3208 25.5352 51.6792 26.4557 51.8068 27.4211C51.9344 28.3865 51.8275 29.3684 51.4951 30.2838L50.8644 32.0184C50.7067 30.8065 50.2721 29.6472 49.5942 28.6304L47.9103 26.1039C47.8545 26.0202 47.7818 25.949 47.6969 25.8949C47.6121 25.8408 47.5169 25.8049 47.4175 25.7896C47.3181 25.7746 47.2167 25.7802 47.1195 25.806C47.0224 25.8319 46.9316 25.8774 46.8528 25.9398L45.0492 27.3864C43.9954 28.2266 42.6881 28.6851 41.3403 28.687C39.8811 28.6857 38.4544 29.1176 37.241 29.9281L32.3875 33.1637C32.3425 33.1943 32.3011 33.2298 32.2641 33.2697L31.0564 30.8535C30.9387 30.6183 30.8721 30.3607 30.8611 30.0979C30.8501 29.8351 30.8949 29.5729 30.9925 29.3286ZM31.0767 38.87C30.8764 38.7106 30.7306 38.4927 30.6596 38.2467C30.5887 38.0006 30.596 37.7386 30.6807 37.4969C30.7653 37.2553 30.923 37.0459 31.1319 36.8979C31.3409 36.7499 31.5907 36.6705 31.8468 36.6708H32.0747C32.0929 37.7614 32.1985 38.8488 32.3904 39.9225L31.0767 38.87ZM33.5277 36.6708H34.9677V38.8483C34.9677 39.4258 35.1971 39.9796 35.6055 40.3879C36.0138 40.7963 36.5677 41.0257 37.1452 41.0257H38.5968C39.1743 41.0257 39.7281 40.7963 40.1364 40.3879C40.5448 39.9796 40.7742 39.4258 40.7742 38.8483V38.1225H42.2258V38.8483C42.2258 39.4258 42.4552 39.9796 42.8636 40.3879C43.2719 40.7963 43.8257 41.0257 44.4032 41.0257H45.8548C46.4323 41.0257 46.9862 40.7963 47.3945 40.3879C47.8029 39.9796 48.0323 39.4258 48.0323 38.8483V36.6708H49.4723C49.4159 39.9976 48.4871 43.2512 46.7788 46.1063H36.2212C34.5129 43.2512 33.5841 39.9976 33.5277 36.6708ZM28.4355 47.5579H54.5645C55.142 47.5579 55.6958 47.7873 56.1042 48.1957C56.5125 48.604 56.7419 49.1579 56.7419 49.7354V64.2515H26.2581V49.7354C26.2581 49.1579 26.4875 48.604 26.8958 48.1957C27.3042 47.7873 27.858 47.5579 28.4355 47.5579ZM20.4516 61.3483C20.4536 59.8776 20.8611 58.436 21.6295 57.1819C22.3978 55.9279 23.4971 54.9101 24.8064 54.2404V64.2515H20.4516V61.3483ZM62.5484 64.2515H58.1936V54.2404C59.5029 54.9102 60.6021 55.928 61.3704 57.182C62.1387 58.436 62.5463 59.8776 62.5484 61.3483V64.2515Z" fill="#09385A"/>
<path d="M41.5009 62.0721C42.0751 62.0721 42.6364 61.9018 43.1138 61.5828C43.5913 61.2638 43.9634 60.8104 44.1831 60.2799C44.4029 59.7494 44.4604 59.1656 44.3483 58.6025C44.2363 58.0393 43.9598 57.522 43.5538 57.116C43.1478 56.7099 42.6305 56.4334 42.0673 56.3214C41.5041 56.2094 40.9204 56.2669 40.3899 56.4866C39.8594 56.7063 39.406 57.0785 39.087 57.5559C38.7679 58.0333 38.5977 58.5946 38.5977 59.1688C38.5977 59.9388 38.9036 60.6773 39.448 61.2217C39.9925 61.7662 40.7309 62.0721 41.5009 62.0721ZM41.5009 57.7172C41.788 57.7172 42.0687 57.8024 42.3074 57.9619C42.5461 58.1214 42.7321 58.3481 42.842 58.6133C42.9519 58.8786 42.9806 59.1705 42.9246 59.452C42.8686 59.7336 42.7304 59.9923 42.5273 60.1953C42.3243 60.3983 42.0657 60.5366 41.7841 60.5926C41.5025 60.6486 41.2106 60.6198 40.9454 60.51C40.6801 60.4001 40.4534 60.214 40.2939 59.9753C40.1344 59.7366 40.0493 59.4559 40.0493 59.1688C40.0493 58.7839 40.2022 58.4146 40.4745 58.1424C40.7467 57.8702 41.1159 57.7172 41.5009 57.7172Z" fill="#09385A"/>
<path d="M36.6313 55.3327L37.6576 54.3065L35.2675 51.9164L37.6576 49.5263L36.6313 48.5L33.7281 51.4032C33.592 51.5393 33.5156 51.7239 33.5156 51.9164C33.5156 52.1088 33.592 52.2934 33.7281 52.4295L36.6313 55.3327Z" fill="#09385A"/>
<path d="M46.3681 55.3327L49.2713 52.4295C49.4074 52.2934 49.4838 52.1088 49.4838 51.9164C49.4838 51.7239 49.4074 51.5393 49.2713 51.4032L46.3681 48.5L45.3418 49.5263L47.7319 51.9164L45.3418 54.3065L46.3681 55.3327Z" fill="#09385A"/>
<path d="M43.0982 48.5703L38.7422 54.376L39.9034 55.2471L44.2593 49.4415L43.0982 48.5703Z" fill="#09385A"/>
</g>
</g>
</g>
<defs>
<clipPath id="clip0_245_1357">
<rect width="45" height="45" fill="white" transform="translate(19 20.7031)"/>
</clipPath>
<clipPath id="clip1_245_1357">
<rect width="45" height="45" fill="white" transform="translate(19 20.7031)"/>
</clipPath>
<clipPath id="clip2_245_1357">
<rect width="45" height="45" fill="white" transform="translate(19 20.7031)"/>
</clipPath>
</defs>
</svg>
