<svg width="513" height="512" viewBox="0 0 513 512" fill="none" stroke="currentColor" stroke-width="2" stroke-linecap="round" stroke-linejoin="round" xmlns="http://www.w3.org/2000/svg">
<path fill-rule="evenodd" clip-rule="evenodd" d="M221.578 14.02C219.996 21.731 218.209 28.645 217.606 29.383C217.004 30.122 214.036 31.499 211.011 32.443C207.986 33.387 201.371 36.109 196.31 38.493L187.11 42.826L174.31 34.445L161.511 26.063L139.601 47.944L117.691 69.826L121.851 79.485C124.139 84.797 126.011 89.495 126.011 89.925C126.011 90.355 122.748 90.983 118.761 91.32C102.596 92.688 88.106 100.631 78.295 113.5C68.239 126.69 65.608 137.015 66.316 160.5C66.628 170.856 67.33 178.118 68.307 181.086C71.496 190.776 76.264 198.474 83.65 205.863C87.699 209.912 91.011 213.982 91.011 214.907C91.011 216.221 88.515 217.197 79.572 219.378L68.134 222.168L47.449 210.084L26.764 198H13.382H0L0.255 283.665L0.511 369.33L40.511 382.685L80.511 396.04L88.968 395.77C97.07 395.511 97.451 395.395 98.013 393C98.337 391.625 99.043 390.5 99.584 390.5C100.124 390.5 105.745 393.582 112.075 397.349C123.551 404.177 123.588 404.211 124.748 409.097C127.104 419.012 135.815 427.493 144.895 428.711C148.553 429.202 148.81 429.464 149.313 433.217C150.515 442.175 159.013 450.92 168.761 453.23C173.408 454.33 174.011 454.768 174.011 457.04C174.011 458.452 175.205 462.004 176.665 464.933C179.762 471.149 185.575 475.747 193.203 478.015C198.101 479.471 198.344 479.715 199.519 484.342C201.253 491.171 205.618 496.79 211.955 500.352C218.832 504.218 228.109 504.604 234.511 501.29L238.511 499.22L243.01 503.217C249.169 508.688 254.334 511.128 261.043 511.737C274.026 512.914 285.262 504.777 288.297 491.999C289.405 487.334 289.595 487.14 293.626 486.535C302.647 485.182 311.072 476.541 313.228 466.43C314.057 462.542 314.499 461.997 316.842 461.978C326.017 461.903 337.915 449.969 337.989 440.769C338.006 438.607 338.584 437.916 340.761 437.45C347.019 436.111 351.993 433.719 355.397 430.414C360.188 425.761 362.062 421.908 362.742 415.313L363.306 409.851L437.659 372.678L512.011 335.506V275.253V215H502.427H492.843L479.383 222.104L465.922 229.208L461.217 227.231C458.629 226.144 448.523 223.298 438.761 220.906C424.604 217.438 421.011 216.221 421.011 214.892C421.011 213.976 424.323 209.912 428.372 205.863C435.764 198.469 440.542 190.749 443.708 181.086C444.646 178.224 445.395 170.862 445.701 161.5C446.3 143.223 444.882 135.219 438.9 123.086C429.612 104.248 409.193 91 389.447 91H385.156L389.753 80.422L394.35 69.845L372.431 47.954L350.511 26.063L337.712 34.445L324.912 42.826L315.712 38.493C310.651 36.109 304.036 33.387 301.011 32.443C297.986 31.499 295.018 30.122 294.416 29.383C293.813 28.645 292.026 21.731 290.444 14.02L287.568 0H256.011H224.454L221.578 14.02ZM277.039 30.271C278.514 37.296 279.898 43.175 280.116 43.337C280.333 43.499 285.011 44.929 290.511 46.515C296.016 48.102 306.081 52.212 312.904 55.658C327.022 62.788 324.632 62.96 338.223 53.844C343.014 50.63 347.508 48 348.208 48C350.044 48 374.018 72.177 373.975 73.985C373.955 74.818 372.005 80 369.641 85.5C365.696 94.679 364.98 95.697 360.927 97.894C358.498 99.211 354.319 102.096 351.641 104.305C347.375 107.823 346.655 108.115 345.837 106.653C343.274 102.074 332.075 89.331 326.33 84.457C310.446 70.982 293.418 62.926 273.63 59.526C236.174 53.09 196.948 67.905 173.162 97.472C169.839 101.604 166.69 105.751 166.166 106.688C165.306 108.224 164.85 108.102 161.51 105.446C159.474 103.826 155.286 100.9 152.204 98.944C146.912 95.587 146.36 94.839 142.305 85.539C139.943 80.122 138.011 74.979 138.011 74.11C138.011 72.216 161.916 48 163.784 48C164.501 48 169.008 50.63 173.799 53.844C187.39 62.96 185 62.788 199.118 55.658C205.941 52.212 216.006 48.102 221.511 46.515C227.011 44.929 231.676 43.511 231.878 43.365C232.08 43.219 233.333 38.014 234.663 31.8C235.993 25.585 237.323 19.702 237.62 18.728C238.115 17.103 239.668 16.978 256.259 17.228L274.359 17.5L277.039 30.271ZM273.011 76.175C297.383 80.771 319.102 95.769 333.366 117.855L336.179 122.211L333.345 130.855C330.678 138.992 330.512 140.5 330.534 156.5C330.561 175.997 331.809 182.341 337.708 192.966C339.703 196.56 344.413 202.54 348.174 206.256C351.934 209.972 355.011 213.808 355.011 214.78C355.011 216.234 352.076 217.276 338.511 220.643L322.011 224.739L305.511 220.643C291.771 217.233 289.011 216.246 289.011 214.74C289.011 213.745 291.824 210.299 295.261 207.083C302.588 200.226 308.195 191.279 311.293 181.5C313.223 175.409 313.511 172.291 313.508 157.5C313.505 143.855 313.142 139.316 311.668 134.5C305.175 113.289 288.598 97.165 268.398 92.415C259.429 90.306 245.884 90.993 237.288 93.993C220.395 99.889 206.511 114.08 200.911 131.172C198.738 137.808 198.511 140.201 198.511 156.5C198.511 172.319 198.78 175.348 200.729 181.5C203.827 191.279 209.434 200.226 216.761 207.083C220.199 210.299 223.011 213.745 223.011 214.74C223.011 216.246 220.251 217.233 206.511 220.643L190.011 224.739L173.511 220.643C160.397 217.388 157.011 216.205 157.011 214.877C157.011 213.959 160.084 210.123 163.839 206.353C167.594 202.584 172.304 196.56 174.304 192.966C180.211 182.355 181.474 175.974 181.42 157C181.377 141.422 181.21 140.02 178.435 131.908L175.496 123.317L178.504 118.342C198.021 86.06 235.872 69.171 273.011 76.175ZM137.793 110.225C147.931 113.954 157.819 123.877 162.139 134.656C164.281 140 164.483 141.998 164.496 158L164.511 175.5L161.12 182.439C157.384 190.083 150.821 197.295 144.233 200.996L139.956 203.399L140.233 216.389L140.511 229.378L153.993 232.754C161.408 234.611 167.641 236.296 167.844 236.499C168.047 236.702 167.094 238.361 165.726 240.184C160.308 247.409 157.304 256.369 156.746 266.973L156.511 271.446L144.511 274.177C137.911 275.678 132.286 276.929 132.011 276.956C131.736 276.983 131.653 273.059 131.826 268.238L132.141 259.47L110.667 246.985C98.856 240.118 89.714 234.217 90.352 233.87C90.989 233.524 94.998 232.429 99.261 231.437L107.011 229.634V216.421V203.208L102.064 200.034C95.281 195.681 90.369 189.974 86.649 182.123C83.581 175.647 83.504 175.128 83.177 158.761C82.902 144.982 83.147 141.092 84.564 136.761C87.107 128.984 90.559 123.595 96.347 118.362C107.922 107.899 123.276 104.884 137.793 110.225ZM268.478 109.685C282.032 114.399 292.812 126.669 295.993 141C296.757 144.443 297.08 151.923 296.856 161C296.527 174.35 296.279 175.97 293.728 181.43C290.067 189.264 284.961 195.349 278.383 199.717L273.011 203.283V216.413V229.543L296.761 235.416C322.028 241.665 328.162 244.014 332.418 249.072C337.834 255.508 338.349 257.984 338.433 278L338.511 296.5L334.776 296.809C332.366 297.009 321.72 294.471 304.77 289.657C290.321 285.553 276.252 281.889 273.505 281.514C270.758 281.14 259.286 277.972 248.011 274.475C222.939 266.7 221.547 266.343 211.311 265.08C203.601 264.129 191.203 264.691 177.727 266.603L172.942 267.281L173.639 262.891C175.114 253.59 179.415 247.327 186.891 243.596C189.432 242.327 202.199 238.647 215.261 235.416L239.011 229.543V216.376V203.208L234.064 200.034C227.281 195.681 222.369 189.974 218.649 182.123L215.511 175.5V156.948V138.396L219.277 130.777C228.525 112.064 249.486 103.078 268.478 109.685ZM400.499 109.748C410.876 113.016 419.23 120.618 424.776 131.838L428.511 139.396V157.448V175.5L425.373 182.123C421.653 189.974 416.741 195.681 409.958 200.034L405.011 203.208V216.389V229.57L425.011 234.5C440.178 238.238 444.708 239.703 443.761 240.56C442.437 241.757 356.518 287 355.568 287C355.262 287 355.006 281.038 354.999 273.75C354.984 256.646 353.057 249.218 346.292 240.184C344.926 238.361 343.975 236.702 344.178 236.499C344.381 236.296 350.614 234.611 358.029 232.754L371.511 229.378L371.789 216.389L372.066 203.399L367.789 200.996C361.178 197.282 354.627 190.067 350.938 182.439C347.675 175.691 347.572 175.089 347.183 160.548C346.588 138.306 349.245 129.48 359.57 119.4C370.863 108.374 385.315 104.966 400.499 109.748ZM52.269 232.065C68.332 241.451 81.567 249.223 81.679 249.335C81.976 249.631 52.303 368.042 51.808 368.536C51.579 368.766 43.656 366.384 34.201 363.245L17.011 357.536V286.268V215H20.037C22.145 215 31.917 220.174 52.269 232.065ZM495.011 279.253V325.507L425.729 360.143L356.447 394.78L319.979 361.887C278.12 324.132 275.76 322.5 263.032 322.5C253.714 322.5 251.368 323.437 233.087 334.454C213.137 346.478 211.594 347.2 207.506 346.433C200.264 345.074 196.33 336.958 199.378 329.664C200.783 326.301 202.579 325.223 227.695 312.659C255.68 298.659 262.484 296.244 270.306 297.532C272.619 297.912 287.005 301.773 302.275 306.112C321.249 311.503 331.696 313.993 335.275 313.978C340.224 313.957 344.699 311.744 417.011 273.557C459.086 251.338 493.848 233.123 494.261 233.079C494.674 233.036 495.011 253.814 495.011 279.253ZM115.308 268.99C115.895 269.508 85.682 378.394 84.582 379.724C84.126 380.274 68.011 374.489 68.011 373.774C68.011 372.923 95.769 261.353 96.497 259.28C96.778 258.479 99.946 259.817 105.718 263.173C110.554 265.985 114.87 268.602 115.308 268.99ZM213.511 281.987C220.391 283.105 237.011 288.013 237.011 288.927C237.011 289.263 227.47 294.255 215.809 300.019C185.858 314.826 182.559 318.243 182.528 334.5C182.508 345.082 184.105 349.201 190.731 355.653C195.757 360.548 202.186 363.004 209.939 362.99C216.7 362.978 220.51 361.288 239.511 349.873C247.211 345.247 254.77 340.908 256.308 340.231C259.907 338.647 266.15 338.656 269.702 340.25C273.9 342.134 343.244 404.53 345.284 408.26C348.628 414.372 344.372 421 337.102 421C333.637 421 331.261 419.298 309.908 401.524C297.04 390.812 286.286 382.062 286.011 382.08C285.396 382.121 276.011 393.608 276.011 394.32C276.011 394.601 285.574 402.767 297.261 412.466C318.757 430.304 321.996 433.624 322.006 437.827C322.014 441.397 316.835 446 312.81 446C308.587 446 308.786 446.142 283.035 424.671L261.559 406.764L256.309 412.632C253.422 415.859 251.049 418.736 251.035 419.024C251.022 419.312 260.734 427.63 272.618 437.508C284.502 447.386 294.852 456.363 295.618 457.457C297.861 460.658 297.345 465.338 294.45 468.057C290.869 471.422 285.252 471.172 280.274 467.426C272.763 461.775 260.011 450.764 260.011 449.929C260.011 449.459 258.139 447.275 255.85 445.076C251.933 441.312 244.904 438 240.833 438C239.504 438 239.011 437.242 239.011 435.196C239.011 433.654 237.817 429.996 236.357 427.067C233.26 420.851 227.447 416.253 219.819 413.985C214.949 412.537 214.673 412.265 213.536 407.788C212.882 405.213 211.146 401.291 209.678 399.073C206.844 394.791 198.052 389.025 194.332 389.009C191.284 388.996 189.397 386.778 188.641 382.317C186.96 372.396 175.359 363.627 164.057 363.734C155.062 363.818 150.117 366.601 138.729 377.99L128.769 387.949L116.858 380.826C110.306 376.909 104.724 373.345 104.454 372.907C103.996 372.166 125.263 296.414 126.189 295.488C126.575 295.103 182.255 282.684 188.011 281.7C192.91 280.862 207.609 281.027 213.511 281.987ZM168.327 381.163C171.702 382.961 172.945 385.153 172.979 389.372C173.008 392.888 172.251 394.025 164.761 401.715C160.224 406.373 155.241 410.847 153.688 411.656C147.79 414.729 140.811 410.252 140.811 403.394C140.811 399.952 141.662 398.79 150.757 389.815C161.156 379.553 163.311 378.492 168.327 381.163ZM194.81 407.028C197.34 409.384 198.47 413.049 197.655 416.25C197.34 417.488 192.85 422.707 187.677 427.85C179.215 436.263 177.903 437.2 174.581 437.2C168.176 437.2 164.029 431.506 166.026 425.455C166.668 423.508 170.688 418.741 176.021 413.599C184.073 405.837 185.316 405 188.788 405C191.269 405 193.406 405.719 194.81 407.028ZM220.522 433.195C225.141 438.685 223.674 442.112 211.726 453.75C203.954 461.32 202.923 462 199.222 462C195.946 462 194.703 461.422 192.6 458.923C188.002 453.459 188.861 450.924 198.761 440.748C210.756 428.418 215.203 426.874 220.522 433.195ZM244.676 457.169C249.941 462.082 248.581 466.558 238.735 476.729C228.119 487.696 223.87 489.277 218.088 484.411C215.612 482.328 215.011 481.054 215.011 477.888C215.011 474.329 215.779 473.153 223.044 465.585C234.373 453.785 239.086 451.952 244.676 457.169ZM270.239 481.5C271.189 482.6 271.977 485.046 271.989 486.936C272.042 495.097 263.131 497.74 255.208 491.913C252.9 490.216 251.011 488.5 251.011 488.101C251.011 487.701 252.353 486.089 253.992 484.518C255.632 482.947 258.179 479.923 259.652 477.797L262.33 473.932L265.421 476.716C267.12 478.247 269.288 480.4 270.239 481.5Z" fill="#4c6fff"/>
</svg>
