<svg width="205" height="32" viewBox="0 0 205 32" fill="none" xmlns="http://www.w3.org/2000/svg">
<g clip-path="url(#clip0_245_2950)">
<path d="M14.1988 8.03647V31.1412H5.84011V7.94642C4.76001 7.94642 2.70731 7.94642 1.65676 7.94642C-0.116545 7.94642 0.00163469 8.29035 0.00163469 6.55296C0.00163469 5.10199 0.00163469 2.43842 0.00163469 0.848533C0.622291 0.822807 1.13816 0.781644 1.65672 0.781644C8.28242 0.7765 14.9081 0.820235 21.5339 0.76621C28.3449 0.712184 33.3774 4.40648 35.6746 10.429C38.0417 16.6419 36.5908 22.2399 32.3296 27.218C30.1908 29.716 27.1708 30.8892 23.866 31.149C21.5151 31.3342 19.1319 31.185 16.5228 31.185C16.5228 28.9494 16.4961 26.7446 16.5658 24.5425C16.5713 24.3444 17.1892 24.0228 17.5359 24.0022C19.011 23.9225 20.4914 23.9714 21.9664 23.9095C25.6259 23.7604 27.6947 22.1011 28.3879 18.6949C28.8554 16.3924 28.7372 14.1233 27.9366 11.8594C27.1359 9.6032 25.4728 8.28345 23.1647 8.09049C20.2468 7.84866 17.2913 8.03132 14.2015 8.03132L14.1988 8.03647Z" fill="white"/>
<path d="M46.1956 23.4297V7.65522H40.8965V5.46094H53.9274V7.65522H48.6283V23.4297H46.1956Z" fill="white"/>
<path d="M60.0556 23.5717C59.076 23.5717 58.2249 23.4661 57.5024 23.2547C56.7958 23.0434 56.2097 22.694 55.744 22.2064C55.2783 21.7024 54.9332 21.0198 54.7083 20.1584C54.4835 19.297 54.3711 18.2079 54.3711 16.8913C54.3711 15.526 54.4835 14.4126 54.7083 13.5511C54.9332 12.6734 55.2783 11.9907 55.744 11.5031C56.2097 11.0155 56.8039 10.6823 57.5264 10.5035C58.2491 10.3085 59.0921 10.2109 60.0556 10.2109C61.0191 10.2109 61.862 10.3085 62.5847 10.5035C63.3073 10.6986 63.9015 11.0399 64.3671 11.5275C64.8328 12.0151 65.178 12.6978 65.4029 13.5755C65.6276 14.437 65.74 15.5423 65.74 16.8913C65.74 18.2242 65.6276 19.3294 65.4029 20.2071C65.178 21.0685 64.8328 21.7431 64.3671 22.2307C63.9175 22.7184 63.3314 23.0678 62.6087 23.2791C61.8862 23.4742 61.0351 23.5717 60.0556 23.5717ZM60.0556 21.5725C60.5855 21.5725 61.0512 21.5237 61.4526 21.4262C61.8701 21.3287 62.2154 21.1255 62.4883 20.8167C62.7613 20.4916 62.9701 20.0121 63.1147 19.3782C63.2591 18.7443 63.3314 17.9072 63.3314 16.8669C63.3314 15.8266 63.2591 14.9977 63.1147 14.3801C62.9701 13.7462 62.7613 13.2748 62.4883 12.966C62.2154 12.6572 61.8701 12.454 61.4526 12.3565C61.0512 12.2427 60.5855 12.1858 60.0556 12.1858C59.5096 12.1858 59.0278 12.2427 58.6103 12.3565C58.2089 12.454 57.8717 12.6572 57.5988 12.966C57.3418 13.2748 57.141 13.7462 56.9965 14.3801C56.8681 14.9977 56.8039 15.8266 56.8039 16.8669C56.8039 17.9072 56.8681 18.7443 56.9965 19.3782C57.141 20.0121 57.3418 20.4916 57.5988 20.8167C57.8717 21.1255 58.2089 21.3287 58.6103 21.4262C59.0278 21.5237 59.5096 21.5725 60.0556 21.5725Z" fill="white"/>
<path d="M68.6836 29.2037V10.3816H70.6586L71.0922 11.6982C71.3974 11.4706 71.7586 11.2431 72.1761 11.0155C72.6096 10.788 73.0753 10.601 73.5731 10.4547C74.087 10.2922 74.6009 10.2109 75.1148 10.2109C75.9337 10.2109 76.6322 10.3816 77.2102 10.7229C77.8044 11.0643 78.2862 11.5438 78.6555 12.1614C79.0248 12.7628 79.2897 13.4699 79.4504 14.2826C79.6271 15.0953 79.7153 15.9648 79.7153 16.8913C79.7153 18.3379 79.5547 19.5651 79.2336 20.5728C78.9285 21.5644 78.4387 22.3202 77.7643 22.8403C77.1059 23.3442 76.2227 23.5961 75.1148 23.5961C74.4403 23.5961 73.7498 23.4986 73.0432 23.3035C72.3367 23.0922 71.6864 22.8159 71.0922 22.4746V29.2037H68.6836ZM74.3921 21.5481C74.9381 21.5481 75.4279 21.4099 75.8615 21.1336C76.2951 20.8573 76.6402 20.3859 76.8972 19.7195C77.1701 19.0368 77.3066 18.0941 77.3066 16.8913C77.3066 15.7535 77.1701 14.8433 76.8972 14.1607C76.6241 13.4617 76.2709 12.966 75.8373 12.6734C75.4038 12.3646 74.9301 12.2102 74.4163 12.2102C73.7417 12.2102 73.1235 12.3158 72.5615 12.5271C72.0156 12.7384 71.5257 12.9579 71.0922 13.1854V20.6216C71.59 20.8979 72.1199 21.1255 72.682 21.3043C73.26 21.4669 73.8302 21.5481 74.3921 21.5481Z" fill="white"/>
<path d="M82.7285 23.4297V5.46094H89.9064C91.0143 5.46094 91.9457 5.66412 92.7004 6.07046C93.4552 6.47682 94.0653 7.07008 94.531 7.85027C94.9967 8.61422 95.334 9.55694 95.5427 10.6785C95.7515 11.7837 95.8559 13.0434 95.8559 14.4575C95.8559 16.3755 95.631 18.0008 95.1813 19.3337C94.7478 20.6666 94.0895 21.6823 93.2063 22.3813C92.3231 23.0803 91.2232 23.4297 89.9064 23.4297H82.7285ZM85.1613 21.2354H89.6896C90.5728 21.2354 91.2874 20.9672 91.8333 20.4308C92.3793 19.8782 92.7807 19.098 93.0377 18.0903C93.2946 17.0663 93.4231 15.8553 93.4231 14.4575C93.4231 13.1735 93.3509 12.1007 93.2063 11.2392C93.0617 10.3615 92.837 9.6626 92.5318 9.14246C92.2267 8.60608 91.8333 8.22412 91.3517 7.99656C90.886 7.76901 90.3319 7.65522 89.6896 7.65522H85.1613V21.2354Z" fill="white"/>
<path d="M103.711 23.5717C102.346 23.5717 101.254 23.3686 100.435 22.9622C99.6324 22.5558 99.0543 21.8731 98.7011 20.9142C98.3639 19.9389 98.1953 18.598 98.1953 16.8913C98.1953 15.1521 98.3639 13.8031 98.7011 12.8441C99.0543 11.8688 99.6324 11.1862 100.435 10.7961C101.238 10.406 102.322 10.2109 103.687 10.2109C104.875 10.2109 105.831 10.341 106.553 10.601C107.292 10.8448 107.83 11.2918 108.167 11.942C108.52 12.5759 108.697 13.4617 108.697 14.5995C108.697 15.396 108.536 16.0299 108.215 16.5012C107.91 16.9725 107.469 17.3139 106.891 17.5252C106.329 17.7366 105.654 17.8422 104.867 17.8422H100.604C100.62 18.785 100.724 19.5408 100.917 20.1096C101.126 20.6623 101.487 21.0685 102.001 21.3287C102.531 21.5725 103.302 21.6944 104.313 21.6944H108.336V23.1572C107.645 23.2547 106.939 23.3442 106.216 23.4254C105.494 23.5229 104.659 23.5717 103.711 23.5717ZM100.58 16.3062H104.651C105.293 16.3062 105.767 16.1843 106.072 15.9405C106.377 15.6967 106.529 15.2497 106.529 14.5995C106.529 13.9494 106.433 13.4374 106.24 13.0635C106.064 12.6897 105.767 12.4215 105.349 12.2589C104.932 12.0964 104.378 12.0151 103.687 12.0151C102.9 12.0151 102.274 12.137 101.808 12.3808C101.359 12.6247 101.037 13.0554 100.845 13.673C100.668 14.2907 100.58 15.1684 100.58 16.3062Z" fill="white"/>
<path d="M114.796 23.4266L110.123 10.3828H112.604L116.241 21.1592L119.95 10.3828H122.431L117.59 23.4266H114.796Z" fill="white"/>
<path d="M129.137 23.5717C127.772 23.5717 126.68 23.3686 125.861 22.9622C125.058 22.5558 124.48 21.8731 124.127 20.9142C123.79 19.9389 123.621 18.598 123.621 16.8913C123.621 15.1521 123.79 13.8031 124.127 12.8441C124.48 11.8688 125.058 11.1862 125.861 10.7961C126.664 10.406 127.748 10.2109 129.113 10.2109C130.301 10.2109 131.257 10.341 131.979 10.601C132.718 10.8448 133.256 11.2918 133.593 11.942C133.946 12.5759 134.123 13.4617 134.123 14.5995C134.123 15.396 133.962 16.0299 133.641 16.5012C133.336 16.9725 132.894 17.3139 132.316 17.5252C131.754 17.7366 131.08 17.8422 130.293 17.8422H126.03C126.046 18.785 126.15 19.5408 126.343 20.1096C126.552 20.6623 126.913 21.0685 127.427 21.3287C127.957 21.5725 128.727 21.6944 129.739 21.6944H133.762V23.1572C133.071 23.2547 132.364 23.3442 131.642 23.4254C130.919 23.5229 130.084 23.5717 129.137 23.5717ZM126.006 16.3062H130.076C130.719 16.3062 131.192 16.1843 131.497 15.9405C131.803 15.6967 131.955 15.2497 131.955 14.5995C131.955 13.9494 131.859 13.4374 131.666 13.0635C131.489 12.6897 131.192 12.4215 130.775 12.2589C130.357 12.0964 129.803 12.0151 129.113 12.0151C128.326 12.0151 127.7 12.137 127.234 12.3808C126.784 12.6247 126.463 13.0554 126.271 13.673C126.094 14.2907 126.006 15.1684 126.006 16.3062Z" fill="white"/>
<path d="M140.651 23.4552C139.865 23.4552 139.198 23.317 138.652 23.0407C138.122 22.7644 137.721 22.3256 137.448 21.7241C137.191 21.1065 137.062 20.2776 137.062 19.2373V4.82812H139.471V18.9203C139.471 19.603 139.535 20.1313 139.664 20.5051C139.808 20.8627 140.001 21.1146 140.242 21.2609C140.499 21.4072 140.796 21.5047 141.133 21.5535L142.337 21.6997V23.4552H140.651Z" fill="white"/>
<path d="M149.536 23.5717C148.557 23.5717 147.706 23.4661 146.983 23.2547C146.276 23.0434 145.69 22.694 145.225 22.2064C144.759 21.7024 144.414 21.0198 144.189 20.1584C143.964 19.297 143.852 18.2079 143.852 16.8913C143.852 15.526 143.964 14.4126 144.189 13.5511C144.414 12.6734 144.759 11.9907 145.225 11.5031C145.69 11.0155 146.284 10.6823 147.007 10.5035C147.73 10.3085 148.573 10.2109 149.536 10.2109C150.5 10.2109 151.343 10.3085 152.065 10.5035C152.788 10.6986 153.382 11.0399 153.847 11.5275C154.314 12.0151 154.659 12.6978 154.883 13.5755C155.108 14.437 155.221 15.5423 155.221 16.8913C155.221 18.2242 155.108 19.3294 154.883 20.2071C154.659 21.0685 154.314 21.7431 153.847 22.2307C153.399 22.7184 152.812 23.0678 152.089 23.2791C151.367 23.4742 150.516 23.5717 149.536 23.5717ZM149.536 21.5725C150.066 21.5725 150.532 21.5237 150.933 21.4262C151.351 21.3287 151.696 21.1255 151.969 20.8167C152.242 20.4916 152.451 20.0121 152.595 19.3782C152.74 18.7443 152.812 17.9072 152.812 16.8669C152.812 15.8266 152.74 14.9977 152.595 14.3801C152.451 13.7462 152.242 13.2748 151.969 12.966C151.696 12.6572 151.351 12.454 150.933 12.3565C150.532 12.2427 150.066 12.1858 149.536 12.1858C148.99 12.1858 148.508 12.2427 148.091 12.3565C147.689 12.454 147.352 12.6572 147.079 12.966C146.822 13.2748 146.622 13.7462 146.477 14.3801C146.349 14.9977 146.284 15.8266 146.284 16.8669C146.284 17.9072 146.349 18.7443 146.477 19.3782C146.622 20.0121 146.822 20.4916 147.079 20.8167C147.352 21.1255 147.689 21.3287 148.091 21.4262C148.508 21.5237 148.99 21.5725 149.536 21.5725Z" fill="white"/>
<path d="M158.162 29.2037V10.3816H160.137L160.572 11.6982C160.876 11.4706 161.239 11.2431 161.655 11.0155C162.089 10.788 162.554 10.601 163.053 10.4547C163.566 10.2922 164.08 10.2109 164.594 10.2109C165.414 10.2109 166.111 10.3816 166.689 10.7229C167.283 11.0643 167.765 11.5438 168.135 12.1614C168.504 12.7628 168.769 13.4699 168.929 14.2826C169.107 15.0953 169.194 15.9648 169.194 16.8913C169.194 18.3379 169.035 19.5651 168.713 20.5728C168.408 21.5644 167.918 22.3202 167.243 22.8403C166.585 23.3442 165.701 23.5961 164.594 23.5961C163.919 23.5961 163.229 23.4986 162.522 23.3035C161.815 23.0922 161.165 22.8159 160.572 22.4746V29.2037H158.162ZM163.872 21.5481C164.418 21.5481 164.907 21.4099 165.34 21.1336C165.775 20.8573 166.119 20.3859 166.376 19.7195C166.65 19.0368 166.786 18.0941 166.786 16.8913C166.786 15.7535 166.65 14.8433 166.376 14.1607C166.104 13.4617 165.75 12.966 165.317 12.6734C164.883 12.3646 164.41 12.2102 163.896 12.2102C163.221 12.2102 162.603 12.3158 162.04 12.5271C161.494 12.7384 161.005 12.9579 160.572 13.1854V20.6216C161.069 20.8979 161.6 21.1255 162.161 21.3043C162.739 21.4669 163.31 21.5481 163.872 21.5481Z" fill="white"/>
<path d="M177.218 23.5717C175.852 23.5717 174.761 23.3686 173.941 22.9622C173.139 22.5558 172.561 21.8731 172.208 20.9142C171.869 19.9389 171.701 18.598 171.701 16.8913C171.701 15.1521 171.869 13.8031 172.208 12.8441C172.561 11.8688 173.139 11.1862 173.941 10.7961C174.744 10.406 175.829 10.2109 177.193 10.2109C178.382 10.2109 179.337 10.341 180.06 10.601C180.798 10.8448 181.336 11.2918 181.673 11.942C182.026 12.5759 182.204 13.4617 182.204 14.5995C182.204 15.396 182.043 16.0299 181.722 16.5012C181.416 16.9725 180.975 17.3139 180.397 17.5252C179.835 17.7366 179.161 17.8422 178.373 17.8422H174.111C174.126 18.785 174.23 19.5408 174.423 20.1096C174.632 20.6623 174.993 21.0685 175.507 21.3287C176.037 21.5725 176.808 21.6944 177.819 21.6944H181.843V23.1572C181.151 23.2547 180.444 23.3442 179.722 23.4254C179 23.5229 178.165 23.5717 177.218 23.5717ZM174.086 16.3062H178.157C178.8 16.3062 179.272 16.1843 179.578 15.9405C179.883 15.6967 180.036 15.2497 180.036 14.5995C180.036 13.9494 179.939 13.4374 179.747 13.0635C179.569 12.6897 179.272 12.4215 178.855 12.2589C178.437 12.0964 177.883 12.0151 177.193 12.0151C176.407 12.0151 175.78 12.137 175.315 12.3808C174.865 12.6247 174.544 13.0554 174.351 13.673C174.175 14.2907 174.086 15.1684 174.086 16.3062Z" fill="white"/>
<path d="M185.143 23.4254V10.3816H186.998L187.552 12.5759C188.098 11.9095 188.707 11.3487 189.382 10.8936C190.056 10.4385 190.843 10.2109 191.742 10.2109C191.952 10.2109 192.152 10.2272 192.345 10.2597C192.538 10.276 192.723 10.3085 192.899 10.3572V12.8685C192.674 12.836 192.442 12.8116 192.2 12.7953C191.96 12.7628 191.71 12.7466 191.453 12.7466C190.907 12.7466 190.418 12.8116 189.985 12.9416C189.55 13.0716 189.134 13.2748 188.732 13.5511C188.346 13.8112 187.953 14.1363 187.552 14.5264V23.4254H185.143Z" fill="white"/>
<path d="M199.668 23.5776C199.331 23.5776 198.93 23.5695 198.464 23.5532C197.999 23.5369 197.517 23.5045 197.019 23.4557C196.538 23.4233 196.088 23.3826 195.67 23.3338C195.268 23.2851 194.948 23.2282 194.706 23.1631V21.7003H200.127C200.592 21.7003 200.992 21.6678 201.331 21.6028C201.667 21.5216 201.924 21.359 202.102 21.1151C202.294 20.8713 202.391 20.5137 202.391 20.0424V19.506C202.391 19.0184 202.23 18.6364 201.909 18.3601C201.588 18.0838 201.057 17.9456 200.319 17.9456H198.439C197.685 17.9456 197.01 17.8481 196.417 17.6531C195.838 17.4417 195.381 17.0923 195.043 16.6047C194.723 16.1171 194.562 15.4588 194.562 14.6298V13.9228C194.562 13.0938 194.714 12.4111 195.02 11.8748C195.341 11.3384 195.846 10.9402 196.538 10.6801C197.228 10.4038 198.142 10.2656 199.284 10.2656C199.764 10.2656 200.295 10.29 200.873 10.3388C201.467 10.3713 202.045 10.42 202.606 10.4851C203.169 10.5501 203.619 10.6232 203.956 10.7045V12.1673H198.849C198.142 12.1673 197.596 12.2892 197.212 12.5331C196.842 12.7769 196.657 13.2401 196.657 13.9228V14.4104C196.657 14.833 196.746 15.1581 196.923 15.3856C197.099 15.6131 197.348 15.7594 197.67 15.8245C198.006 15.8895 198.399 15.922 198.849 15.922H200.777C201.996 15.922 202.92 16.2146 203.546 16.7997C204.173 17.3686 204.485 18.1731 204.485 19.2134V20.2131C204.485 21.0908 204.285 21.7734 203.884 22.2611C203.482 22.7487 202.92 23.09 202.198 23.2851C201.491 23.4801 200.648 23.5776 199.668 23.5776Z" fill="white"/>
</g>
<defs>
<clipPath id="clip0_245_2950">
<rect width="205" height="32" fill="white"/>
</clipPath>
</defs>
</svg>
