<svg width="84" height="84" viewBox="0 0 84 84" fill="none" xmlns="http://www.w3.org/2000/svg">
<rect width="84" height="84" rx="10" fill="#31C2E1" fill-opacity="0.19"/>
<path d="M51 39V36H54V39H51ZM51 42V39H48V42H51ZM51 36V33H48V36H51ZM48 28.26V30H51C50.055 29.31 49.065 28.725 48 28.26ZM51 30V33H54C53.13 31.875 52.125 30.87 51 30ZM54 33V36H55.74C55.275 34.935 54.69 33.945 54 33ZM57 42C57 40.98 56.895 39.975 56.7 39H54V42H57ZM48 33V30H45V33H48ZM48 48H51V45H48V48ZM51 51H54V48H51V51ZM48 54H51V51H48V54ZM45 56.7C46.05 56.49 47.04 56.16 48 55.74V54H45V56.7ZM51 45H54V42H51V45ZM48 36H45V39H48V36ZM54 48H55.74C56.16 47.04 56.49 46.05 56.7 45H54V48ZM48 42H45V45H48V42ZM42 51V48H45V45H42V42H45V39H42V36H45V33H42V30H45V27.3C44.025 27.105 43.035 27 42 27C33.75 27 27 33.75 27 42C27 50.25 33.75 57 42 57V54H45V51H42ZM45 51H48V48H45V51Z" fill="#09385A"/>
</svg>
