<svg id="outline_II" data-name="outline II" xmlns="http://www.w3.org/2000/svg" viewBox="0 0 1328.5 638.59"><defs><style>.cls-1,.cls-2,.cls-7{fill:none;stroke-linecap:round;stroke-linejoin:round;stroke-width:6px;}.cls-1{stroke:#31c2e1;}.cls-2{stroke:#09385a;}.cls-3{fill:#31c2e1;}.cls-4{fill:#fe7624;}.cls-5{fill:#09385a;}.cls-6{fill:#2e186a;}.cls-7{stroke:#2e186a;}</style></defs><g id="graphs_statistics" data-name="graphs statistics"><g id="flower"><g id="leaves"><g id="leaf_IV" data-name="leaf IV"><path class="cls-1" d="M478.11,521.65c-28.65-26.75-35.5-26.36-42.85-64.83-9.39-49.08-59.2-68.91-84.31-40.44s5.08,83,14.78,94.87c7.4,9.08,4.07,53.93,16.17,97.19" transform="translate(-266.62 -246.86)"/></g><g id="leaf_II" data-name="leaf II"><path class="cls-1" d="M487,656.76c-14-15.13-29.82-27.06-47.5-33-63.92-21.44-64.23-7.58-91.42-39.6s-71.49-26.11-77.85,5,38.16,58.56,50.13,63.29,36.09,61.85,80.11,85.93,65.76-23.3,82.51,9.78" transform="translate(-266.62 -246.86)"/></g><path class="cls-1" d="M588.64,351.6c-5.9-4.45-13.93-7.41-24.56-8.43-52.81-5-63.71,48.44-65.41,93.72s6.71,61.55-19.06,85.66,16.17,56.7,12.6,80.6c-2.79,18.63-18.47,61.66,20.42,146.92" transform="translate(-266.62 -246.86)"/><path class="cls-1" d="M588.64,750.07V596.8c-34.49,36-45.24,101.05-48.95,153.27Z" transform="translate(-266.62 -246.86)"/></g><path id="pot" class="cls-2" d="M587.72,750.07H466.8a14.07,14.07,0,0,0-14,17L478.6,882.44" transform="translate(-266.62 -246.86)"/></g><g id="whiteboard"><rect id="shape" class="cls-1" x="322.02" y="3" width="763.33" height="631.36"/><g id="graph"><rect class="cls-2" x="756.06" y="474.86" width="42.82" height="66.77"/><rect class="cls-2" x="823.2" y="446.76" width="42.82" height="94.88"/><rect class="cls-2" x="890.34" y="402.33" width="42.82" height="139.31"/><rect class="cls-3" x="957.48" y="363.96" width="42.82" height="177.68"/><path id="arrow" class="cls-3" d="M1281.37,519.63a3,3,0,0,0-2.44-.7l-28,4.46a3,3,0,0,0,.94,5.93l18.27-2.91-54.58,63.42-22.35-21.44a3,3,0,0,0-2.22-.84,3,3,0,0,0-2.13,1l-73.16,85-21.25-15.91a3,3,0,0,0-3.87.23l-65.73,63a3,3,0,1,0,4.15,4.33L1092.87,644l21.45,16.06a3,3,0,0,0,4.08-.44l72.92-84.73,22.35,21.44a3,3,0,0,0,4.35-.2l58.28-67.72-.38,23.7a3,3,0,0,0,3,3h0a3,3,0,0,0,3-3l.49-30.28A3,3,0,0,0,1281.37,519.63Z" transform="translate(-266.62 -246.86)"/></g><g id="layout_II" data-name="layout II"><g id="lines"><line class="cls-2" x1="399.08" y1="472.49" x2="583.09" y2="472.49"/><line class="cls-2" x1="399.08" y1="500.49" x2="534.52" y2="500.49"/><line class="cls-2" x1="395.08" y1="531.92" x2="491.09" y2="531.92"/><line class="cls-2" x1="604.23" y1="472.49" x2="683.67" y2="472.49"/></g><g id="oragne_bar" data-name="oragne bar"><polygon class="cls-3" points="486.31 411.38 507.51 431.33 507.51 391.02 486.31 411.38"/><polygon class="cls-3" points="455.8 432.37 477.6 411.43 455.8 390.92 455.8 432.37"/><polygon class="cls-3" points="563.9 383.98 514.89 383.98 539.65 407.27 563.9 383.98"/><path class="cls-3" d="M748.6,662.4l-24.85,23.87H774s0,0,0,0Z" transform="translate(-266.62 -246.86)"/><polygon class="cls-3" points="513.51 432.37 535.32 411.43 513.51 390.92 513.51 432.37"/><polygon class="cls-3" points="395.08 388.1 395.08 435.25 419.88 411.43 395.08 388.1"/><path class="cls-3" d="M690.88,662.4,666,686.27h50.22l0,0Z" transform="translate(-266.62 -246.86)"/><polygon class="cls-3" points="448.47 383.98 399.46 383.98 424.22 407.27 448.47 383.98"/><polygon class="cls-3" points="565.23 431.33 565.23 391.02 544.03 411.38 565.23 431.33"/><polygon class="cls-3" points="428.59 411.38 449.8 431.33 449.8 391.02 428.59 411.38"/><path class="cls-3" d="M806.31,662.4l-24.85,23.87h50.23s0,0,0,0Z" transform="translate(-266.62 -246.86)"/><polygon class="cls-3" points="506.18 383.98 457.18 383.98 481.94 407.27 506.18 383.98"/><polygon class="cls-3" points="622.95 383.98 571.23 383.98 571.23 439.41 571.23 439.41 622.95 439.41 622.95 439.41 622.95 383.98"/><polygon class="cls-3" points="683.67 383.98 628.95 383.98 628.95 439.41 628.95 439.41 683.67 439.41 683.67 383.98"/><path class="cls-4" d="M831.69,686.27c0,.05.11.08.17.13s0-.09,0-.13Z" transform="translate(-266.62 -246.86)"/></g></g><g id="layout"><rect class="cls-2" x="941.5" y="180.5" width="31" height="31"/><rect class="cls-2" x="860.14" y="124.32" width="118.54" height="35.72"/><line class="cls-2" x1="860.14" y1="211.53" x2="920.43" y2="211.53"/><line class="cls-2" x1="860.14" y1="196.88" x2="920.43" y2="196.88"/><line class="cls-2" x1="860.14" y1="182.22" x2="920.43" y2="182.22"/></g><g id="lines-2" data-name="lines"><line class="cls-2" x1="762.94" y1="295.31" x2="927.64" y2="295.31"/><line class="cls-2" x1="762.94" y1="309.47" x2="860.14" y2="309.47"/></g><g id="circle_graph" data-name="circle graph"><path class="cls-3" d="M860.6,456.82l113-57.33a126.66,126.66,0,0,1,13.72,57.33c0,69.5-57.19,126.69-126.68,126.69a126.78,126.78,0,0,1-99.12-47.79Z" transform="translate(-266.62 -246.86)"/><line class="cls-2" x1="691.08" y1="113.23" x2="795.72" y2="113.23"/><line class="cls-2" x1="795.72" y1="127.34" x2="739.93" y2="127.34"/><line class="cls-2" x1="795.72" y1="141.55" x2="758.64" y2="141.55"/><line class="cls-2" x1="663.73" y1="225.51" x2="798.87" y2="225.51"/><line class="cls-2" x1="798.87" y1="236.6" x2="773.58" y2="236.6"/><line class="cls-2" x1="517.17" y1="101.55" x2="436.61" y2="101.55"/><line class="cls-2" x1="436.61" y1="112.98" x2="452.77" y2="112.98"/><path class="cls-1" d="M741.45,538.09l95.48-75.74-121.88,1.36A121.27,121.27,0,0,0,741.45,538.09Z" transform="translate(-266.62 -246.86)"/><path class="cls-1" d="M728.43,407.47a121.52,121.52,0,0,0-8.23,44.09c0,.55,0,1.09,0,1.63L842,451.56Z" transform="translate(-266.62 -246.86)"/><path class="cls-1" d="M925.31,334.27,865.24,440l108.94-54.14A122.34,122.34,0,0,0,925.31,334.27Z" transform="translate(-266.62 -246.86)"/><path class="cls-5" d="M911.22,337.14a121.26,121.26,0,0,0-59.75-16.07h-2a121.83,121.83,0,0,0-112.2,77.33L850.7,442.86Z" transform="translate(-266.62 -246.86)"/><line class="cls-2" x1="471.17" y1="237.05" x2="390.61" y2="237.05"/><line class="cls-2" x1="390.61" y1="248.48" x2="419.71" y2="248.48"/></g></g><g id="man"><g id="hand_II" data-name="hand II"><path class="cls-2" d="M1267.61,829.93a198.09,198.09,0,0,0-21,2.46c-13.61,2.38-36.71,6.34-39,9.84-3.68,5.58,4.56,9.28,13.33,9" transform="translate(-266.62 -246.86)"/><path class="cls-2" d="M1232.36,860.26C1219,863.59,1212.61,863,1216,856c2.38-4.85,34.53-21.48,40.84-23.35s61.25-9.8,61.25-9.8l14.1,58.4h-79.59c-19.26,1.23-13.71-9.71-5.84-12.55s22.39-9.6,24.56-9.06c0,0-20.75,5.92-30,11.7-6.57,2.63-14-1.93-14.74-4s5.35-7.81,15.44-12.94a210.46,210.46,0,0,1,23.15-9.61" transform="translate(-266.62 -246.86)"/></g><path id="body" class="cls-5" d="M1559,665.11a67.51,67.51,0,0,0-36.71-62.42l-37.75-20.26L1480.46,601a37.52,37.52,0,0,1-44.74,28.52l-4.88-1.08a37.52,37.52,0,0,1-28.51-44.75l6.26-28.28c-7.19-5-12.92-11.83-15.63-20.65-.18-.58-.34-1.16-.49-1.75l-37.62-20.19-.15,291.74,102-20.92-4.93-68.5a3,3,0,0,1,6-.43l5.11,71.13a3,3,0,0,1-2.39,3.15L1354.7,810.67v.77L1296.77,822c11.36,2.16,24,58.67,24,58.67h205.38A35.87,35.87,0,0,0,1562,844.2Z" transform="translate(-266.62 -246.86)"/><g id="head"><path id="neck" class="cls-2" d="M1493.31,540l-12.85,61a37.52,37.52,0,0,1-44.74,28.52l-4.88-1.08a37.52,37.52,0,0,1-28.51-44.75l6.26-28.28" transform="translate(-266.62 -246.86)"/><path id="face" class="cls-2" d="M1521.44,490.81s32-62.3-30.74-95.61c-5.84-3.1-46.21-23.51-65.6,9.16-12.95,21.81-22.37,47-28.29,67.07,0,.12-11.75,37.68-3.85,63.32s41.24,34.51,61.92,30,25.6-8.78,34.45-19.3,32-54.52,32-54.52Z" transform="translate(-266.62 -246.86)"/><path id="hair_II" data-name="hair II" class="cls-5" d="M1396.81,471.43c5.92-20,15.34-45.26,28.29-67.07.6-1,1.22-2,1.85-2.87-10.55-8.22-27.59,8.74-39.35,43.59-6.09,18-22.75,27.1-22.75,27.1,12.72,11.14,24.18,6.3,31.74,0C1396.73,471.71,1396.81,471.44,1396.81,471.43Z" transform="translate(-266.62 -246.86)"/><polyline id="nose" class="cls-2" points="1159.85 213.02 1146.35 246.97 1157.49 251.05"/><ellipse id="eye_II" data-name="eye II" class="cls-6" cx="1414.15" cy="456.2" rx="5.45" ry="3.53" transform="translate(170.73 1329.08) rotate(-66.78)"/><ellipse id="eye" class="cls-6" cx="1444.86" cy="470.08" rx="5.45" ry="3.53" transform="translate(407.81 1532.81) rotate(-77.55)"/><path id="brow_II" data-name="brow II" class="cls-2" d="M1472,459.88A16.16,16.16,0,0,0,1459.63,449" transform="translate(-266.62 -246.86)"/><path id="brow" class="cls-2" d="M1430.14,435s-9.81-9-17.18-3.7" transform="translate(-266.62 -246.86)"/><path id="cap" class="cls-3" d="M1588.41,472.38l-33.86-17.17c4.25-25.24,1.63-64.25-45.7-86.25-74-34.37-101,39.72-101,39.72l169.49,85.54a12.24,12.24,0,0,0,11.08-21.84Z" transform="translate(-266.62 -246.86)"/><path id="mouth" class="cls-2" d="M1441.31,515.3s-8.63,9.79-23.86,1.94" transform="translate(-266.62 -246.86)"/><path id="hair" class="cls-5" d="M1550.55,480.7,1479,444.62c-8.3,25.86-18.71,77.83,25.58,91.46,0,0,34.63,11.47,44.57.1,0,0-23.76-17.44-18.36-31.67,0,0,24.32,36,52.85,16.87C1583.68,521.38,1549.92,510.56,1550.55,480.7Z" transform="translate(-266.62 -246.86)"/></g></g><line id="line" class="cls-7" x1="98.56" y1="634.36" x2="1317.06" y2="634.36"/></g></svg>