<svg id="solid_III" data-name="solid III" xmlns="http://www.w3.org/2000/svg" viewBox="0 0 1122.54 933.37"><defs><style>.cls-1,.cls-10,.cls-9{fill:none;}.cls-1,.cls-4{stroke:#09385a;}.cls-1,.cls-4,.cls-9{stroke-linecap:round;}.cls-1,.cls-10,.cls-4,.cls-9{stroke-linejoin:round;stroke-width:6px;}.cls-2,.cls-3{fill:#31c2e1;}.cls-2{opacity:0.56;}.cls-4,.cls-8{fill:#fff;}.cls-5{fill:#09385a;}.cls-6{fill:#2e186a;}.cls-7{fill:#0a6aa5;}.cls-10,.cls-9{stroke:#fff;}</style></defs><g id="eCommerce"><g id="flower"><path class="cls-1" d="M1373.16,569.84s-88.58,70.86-49.24,231.83" transform="translate(-354.02 -53.27)"/><path class="cls-2" d="M1340.48,761.51a9.18,9.18,0,0,1-3.1-7.93c6.35-58,32.5-117.71,73.28-139.62,41.91-22.51,70.51,40,12.4,98-43.72,43.7-67.07,50.81-76,51.65a8.85,8.85,0,0,1-6.63-2.15Z" transform="translate(-354.02 -53.27)"/><path class="cls-1" d="M1299.23,799.86s-12.59-45.53-50.87-48.84" transform="translate(-354.02 -53.27)"/><path class="cls-1" d="M1444.66,619.13S1371.3,692.62,1342,759.38" transform="translate(-354.02 -53.27)"/><path class="cls-1" d="M1431.66,698.86S1401.5,697.81,1369,712" transform="translate(-354.02 -53.27)"/><path class="cls-1" d="M1396.5,626.39s-36.73,65.8-34,94.08" transform="translate(-354.02 -53.27)"/><path class="cls-1" d="M1394.86,734.8s-27.5-1-45.42,10.1" transform="translate(-354.02 -53.27)"/><path class="cls-2" d="M1288.68,708.46c-3.14,2.17-6.72,2.54-9.55,1-54.71-30.11-100.85-86.28-101.59-146.94-.76-62.35,76.58-75.43,104.5,21.17,21,72.69,16,105.37,12.23,117.09a15.07,15.07,0,0,1-5.59,7.69Z" transform="translate(-354.02 -53.27)"/><path class="cls-1" d="M1285.16,710.28s-22.29-151.92-86.34-186.53" transform="translate(-354.02 -53.27)"/><path class="cls-1" d="M1180.71,571.87c14,6.32,64,29.66,83,50.58" transform="translate(-354.02 -53.27)"/><path class="cls-1" d="M1278.85,583c2,21.41,4,58.69-4.88,70.39" transform="translate(-354.02 -53.27)"/><path class="cls-1" d="M1276.94,676.57s-49.29-16.91-71.45-34.84" transform="translate(-354.02 -53.27)"/><ellipse class="cls-3" cx="1249.53" cy="734.82" rx="15.37" ry="5.01" transform="translate(-0.62 1820.95) rotate(-82.27)"/><ellipse class="cls-3" cx="1236.62" cy="741.14" rx="4.63" ry="14.03" transform="translate(-476.04 1170.18) rotate(-50.48)"/><ellipse class="cls-3" cx="1260.98" cy="742.6" rx="15.24" ry="5.05" transform="translate(-554.65 617) rotate(-27.66)"/><ellipse class="cls-3" cx="1235.17" cy="756.76" rx="14" ry="4.64" transform="translate(-565.74 633.79) rotate(-28.74)"/><ellipse class="cls-3" cx="1253.32" cy="762.87" rx="4.61" ry="14.1" transform="translate(-557.6 535.75) rotate(-24.52)"/><ellipse class="cls-3" cx="1376.4" cy="557.11" rx="20.36" ry="9.91" transform="matrix(0.5, -0.87, 0.87, 0.5, -145.1, 1421.36)"/><ellipse class="cls-3" cx="1385.16" cy="574.22" rx="20.18" ry="10" transform="translate(-365.39 -25.03) rotate(-1.16)"/><ellipse class="cls-3" cx="1354.07" cy="560.5" rx="8.86" ry="18.16" transform="translate(-421.11 864.99) rotate(-36.62)"/><ellipse class="cls-3" cx="1364.12" cy="587.33" rx="18.2" ry="8.84" transform="translate(-81.99 1540.6) rotate(-65.96)"/><ellipse class="cls-3" cx="1357.2" cy="574.6" rx="16.27" ry="8.06" transform="translate(-407.79 95.52) rotate(-6.15)"/><path class="cls-4" d="M1405.94,809.84l-37,167.61H1251.4l-37-167.61c-2.11-9.58,3.87-19,12.08-19h167.39C1402.08,790.86,1408.06,800.26,1405.94,809.84Z" transform="translate(-354.02 -53.27)"/></g><g id="woman"><path id="body" class="cls-3" d="M1195.16,500.24a56.64,56.64,0,0,0-44.48-47c-19.29-4-38.85-8.14-44.35-9.51l-.73,3-123.13-9.47-1.33-17.38-51.89.48c-58.59,5.38-102.44,99-124.1,155.9l-12,31.6,91.41-34.74c-.29,17.14,1.35,34.28,5.65,50.37,22,82.57-21.55,107.62-21.55,107.62L845.05,839.4l-29-2V982.33l309.16-.63-4.82-249.79Zm-74.74,139V638l.15,1.2Z" transform="translate(-354.02 -53.27)"/><polygon class="cls-5" points="769.8 805.55 464.92 808.48 462.06 929.06 771.21 929.06 769.8 805.55"/><line class="cls-1" x1="563.89" y1="450.77" x2="545.62" y2="487.95"/><path class="cls-4" d="M1097.75,420.06c10.87,2.79,23.61-8.81,28.64-26.17,2.72-9.41,2.62-18.61.25-25.6" transform="translate(-354.02 -53.27)"/><path class="cls-4" d="M945.77,395c10.86,2.8,23.61-8.81,28.63-26.17,2.72-9.41,2.62-18.6.26-25.6" transform="translate(-354.02 -53.27)"/><path class="cls-5" d="M1133.59,239.15c-21.27-20.39-25.11-113.37,46.53-166.16,72.53-53.43,118.13,16.62,127.93,34.79s12.89,65.05-48.51,101S1157.89,262.44,1133.59,239.15Z" transform="translate(-354.02 -53.27)"/><path class="cls-3" d="M1094.26,275l1.34,1.13a20.26,20.26,0,0,0,27.63-1.9l20.27-21.81a18.08,18.08,0,0,0-1.33-26.39l-1.34-1.13a20.23,20.23,0,0,0-27.62,1.9l-20.28,21.81A18.09,18.09,0,0,0,1094.26,275Z" transform="translate(-354.02 -53.27)"/><ellipse class="cls-5" cx="1026.46" cy="274.67" rx="66.69" ry="40.49" transform="translate(-257.47 735.54) rotate(-43.92)"/><path class="cls-5" d="M1041.91,303c21.19,29.62,49.69,43.75,73.76,43.16,25.57-.64,44.2-56,23-85.62s-79-49-99-35.57S1020.71,273.41,1041.91,303Z" transform="translate(-354.02 -53.27)"/><ellipse class="cls-4" cx="1116.89" cy="345.79" rx="21.92" ry="20.84" transform="matrix(0.95, -0.31, 0.31, 0.95, -406.17, 311.57)"/><ellipse class="cls-4" cx="968.56" cy="319.55" rx="21.92" ry="20.84" transform="translate(-405.37 264.09) rotate(-18.14)"/><path class="cls-4" d="M1014.76,394.64,1005,424.2l-26.63-1.74c-2.59,3.66-24.52,73.76,42.47,83.62,44,6.47,74.66-25.66,96-57l-36.59-7.86L1104.36,357Z" transform="translate(-354.02 -53.27)"/><ellipse class="cls-4" cx="1042.42" cy="328.11" rx="88.98" ry="69.22" transform="translate(57.91 1167.47) rotate(-72.24)"/><path class="cls-1" d="M1033.5,348.25l-13-2.12a2.12,2.12,0,0,1-1.62-2.89l14-34.44" transform="translate(-354.02 -53.27)"/><path class="cls-1" d="M1077,296.85s-10.24-11.87-21-4.46" transform="translate(-354.02 -53.27)"/><path class="cls-1" d="M1024.61,286.76s-14.09-7.46-21.52,3.08" transform="translate(-354.02 -53.27)"/><ellipse class="cls-6" cx="1057.1" cy="323.93" rx="7.88" ry="5.28" transform="translate(279.52 1291.93) rotate(-84.51)"/><ellipse class="cls-6" cx="1008.06" cy="319.48" rx="7.91" ry="5.26" transform="matrix(0.2, -0.98, 0.98, 0.2, 140.06, 1190.37)"/><path class="cls-5" d="M1096.16,249.37s-27.61,11.42-26,28.94l-117.68-7.7S940.29,181.29,1081.05,224Z" transform="translate(-354.02 -53.27)"/><path class="cls-5" d="M1088,253.34s-9.32,58.53,28.48,74.54l.66-51.83Z" transform="translate(-354.02 -53.27)"/><path class="cls-4" d="M963.78,331.28c-10.94-3.17-23.93,8.51-29,26.07s-.33,34.37,10.62,37.53l.38.1" transform="translate(-354.02 -53.27)"/><path class="cls-4" d="M1115.77,356.36c-11-3.17-23.94,8.5-29,26.07s-.32,34.36,10.62,37.53l.38.1" transform="translate(-354.02 -53.27)"/><path class="cls-1" d="M1027.63,373.73s27.45,4.48,34.17-17.64" transform="translate(-354.02 -53.27)"/></g><g id="computer"><polygon class="cls-7" points="362.49 810.3 330.72 926.93 521.75 926.93 490.82 809.32 362.49 810.3"/><path class="cls-7" d="M1030,867.89H547.44a9.6,9.6,0,0,1-9.57-9.57L540.6,547c0-5.27,1.57-15.11,6.84-15.11H1030a9.59,9.59,0,0,1,9.57,9.57V858.32A9.6,9.6,0,0,1,1030,867.89Z" transform="translate(-354.02 -53.27)"/><rect id="screen" class="cls-8" x="239" y="510" width="370.56" height="256.86" rx="11"/><rect class="cls-5" x="302.01" y="587.28" width="242.93" height="166.12" rx="9.24"/><circle class="cls-9" cx="423.62" cy="866.01" r="23.08"/><line class="cls-9" x1="474.66" y1="815.02" x2="500.19" y2="923.76"/><rect id="screen-2" data-name="screen" class="cls-9" x="210.18" y="499.73" width="428.19" height="286.4" rx="11"/><line id="line" class="cls-9" x1="662.43" y1="481.29" x2="662.43" y2="811.66"/><g id="marquise"><path class="cls-1" d="M925.59,573.65H512.24l55.2-19.32a32,32,0,0,1,10.61-1.81H984.32Z" transform="translate(-354.02 -53.27)"/><path class="cls-3" d="M554.4,573.58H512.24s-.07,29.59-.07,30c0,11,9.48,19.87,21.18,19.87s21.18-8.9,21.18-19.87C554.53,602.85,554.4,573.58,554.4,573.58Z" transform="translate(-354.02 -53.27)"/><path class="cls-4" d="M595.64,573.58H553.47s-.06,29.59-.06,30c0,11,9.48,19.87,21.17,19.87s21.18-8.9,21.18-19.87C595.76,602.85,595.64,573.58,595.64,573.58Z" transform="translate(-354.02 -53.27)"/><path class="cls-3" d="M636.87,573.58H594.7s-.06,29.59-.06,30c0,11,9.48,19.87,21.18,19.87S637,614.54,637,603.57C637,602.85,636.87,573.58,636.87,573.58Z" transform="translate(-354.02 -53.27)"/><path class="cls-4" d="M678.1,573.58H635.93s-.06,29.59-.06,30c0,11,9.48,19.87,21.18,19.87s21.18-8.9,21.18-19.87C678.23,602.85,678.1,573.58,678.1,573.58Z" transform="translate(-354.02 -53.27)"/><path class="cls-3" d="M719.33,573.58H677.17s-.06,29.59-.06,30c0,11,9.48,19.87,21.17,19.87s21.18-8.9,21.18-19.87C719.46,602.85,719.33,573.58,719.33,573.58Z" transform="translate(-354.02 -53.27)"/><path class="cls-4" d="M760.57,573.58H718.4s-.06,29.59-.06,30c0,11,9.48,19.87,21.18,19.87s21.17-8.9,21.17-19.87C760.69,602.85,760.57,573.58,760.57,573.58Z" transform="translate(-354.02 -53.27)"/><path class="cls-3" d="M801.8,573.58H759.63s-.06,29.59-.06,30c0,11,9.48,19.87,21.18,19.87s21.18-8.9,21.18-19.87C801.93,602.85,801.8,573.58,801.8,573.58Z" transform="translate(-354.02 -53.27)"/><path class="cls-4" d="M843,573.58H800.87s-.06,29.59-.06,30c0,11,9.48,19.87,21.17,19.87s21.18-8.9,21.18-19.87C843.16,602.85,843,573.58,843,573.58Z" transform="translate(-354.02 -53.27)"/><path class="cls-3" d="M884.27,573.58H842.1s-.06,29.59-.06,30c0,11,9.48,19.87,21.18,19.87s21.17-8.9,21.17-19.87C884.39,602.85,884.27,573.58,884.27,573.58Z" transform="translate(-354.02 -53.27)"/><path class="cls-4" d="M925.5,573.58H883.33s-.06,29.59-.06,30c0,11,9.48,19.87,21.18,19.87s21.18-8.9,21.18-19.87C925.63,602.85,925.5,573.58,925.5,573.58Z" transform="translate(-354.02 -53.27)"/><line class="cls-1" x1="200.96" y1="520.39" x2="259.22" y2="499.26"/><line class="cls-1" x1="240.62" y1="520.39" x2="298.88" y2="499.26"/><line class="cls-1" x1="282.38" y1="520.39" x2="340.64" y2="499.26"/><line class="cls-1" x1="323.72" y1="520.39" x2="381.98" y2="499.26"/><line class="cls-1" x1="365.06" y1="520.39" x2="423.32" y2="499.26"/><line class="cls-1" x1="407.24" y1="520.39" x2="465.5" y2="499.26"/><line class="cls-1" x1="447.74" y1="520.39" x2="506" y2="499.26"/><line class="cls-1" x1="490.13" y1="520.39" x2="548.39" y2="499.26"/><line class="cls-1" x1="528.53" y1="520.39" x2="586.79" y2="499.26"/></g><rect id="shelf" class="cls-3" x="122.15" y="734.53" width="423.12" height="18.93" rx="4.66"/><g id="parcel"><rect class="cls-2" x="498.81" y="661.69" width="317.65" height="126.29" rx="17.64" transform="translate(961.24 1396.41) rotate(-180)"/><line class="cls-10" x1="336.63" y1="608.78" x2="336.63" y2="733.5"/><rect class="cls-8" x="518.86" y="726.06" width="74.38" height="35.25" rx="6.64" transform="translate(758.08 1434.1) rotate(-180)"/></g><rect id="kayboard" class="cls-3" x="33.84" y="907.23" width="340.8" height="21.83" rx="5.64"/><rect id="mouse" class="cls-3" x="606.6" y="907.23" width="112.12" height="21.83" rx="5.64"/></g><g id="arm"><path class="cls-1" d="M928.21,700.06,912.5,661.59c-4.77-8,2.44-15,10.25-9a39.84,39.84,0,0,1,10.38,11.56c10.38,17.17,33.38,53.23,32.14,51.83S928.21,700.06,928.21,700.06Z" transform="translate(-354.02 -53.27)"/><path class="cls-1" d="M1050.15,686.38,967.3,704.66l-40.63-20.75-54.21-16.52c-6.63-1.94-11.53,6.43-6.43,11.1,2.66,2.44,43.46,16.14,43.46,16.14l-51.93-5.83a6.08,6.08,0,0,0-5.44,9.81c3.41,4.22,9.52,4.55,17.69,6.39,5,1.12,37.05,4.92,37.05,4.92l-45.78,3.17c-11.31,1.27-11,17.48,10.57,14.76,11.18-1.41,24.82-1.33,34.29-3.94l-31,8.9c-10.15,6.23.32,17.72,44,4.53,26.57,21.37,40.51,25.36,64.45,11.29.13-.08,80.31-13.17,80.31-13.17Z" transform="translate(-354.02 -53.27)"/><path class="cls-3" d="M1107,520.77,1192.82,489l43.81,207.11A42,42,0,0,1,1204,742.65l-221,31.23a12.84,12.84,0,0,1-13.6-10.31l-.15-67.87a12.84,12.84,0,0,1,11.1-15.25l144.62-14.33Z" transform="translate(-354.02 -53.27)"/><path class="cls-1" d="M1053.13,668.75l66.07-11.57s28.7-.36,30.8,18.22" transform="translate(-354.02 -53.27)"/><path class="cls-1" d="M1103.88,546.86l15.76,109.87s21.54-17.06,37.59,3.47" transform="translate(-354.02 -53.27)"/></g><g id="mug"><path id="mug-2" data-name="mug" class="cls-7" d="M1175.71,858.78a35.6,35.6,0,0,0-39.16,43.87,34.78,34.78,0,0,0,7.55,14.58,35.45,35.45,0,0,0,26.46,12.34v20.07a31.76,31.76,0,0,0,31.76,31.76h53.58a31.76,31.76,0,0,0,31.77-31.76V871.11a12.33,12.33,0,0,0-12.33-12.33Zm-17.51,50.14a19.67,19.67,0,0,1,11.41-34.5l1,0v39.31A19.55,19.55,0,0,1,1158.2,908.92Z" transform="translate(-354.02 -53.27)"/><path id="dollar_sign" data-name="dollar sign" class="cls-8" d="M1232.4,938.65v4.25a3.3,3.3,0,0,1-3.31,3.3h0a3.29,3.29,0,0,1-3.29-3.31v-4.45a26.1,26.1,0,0,1-9.1-3.24,3.7,3.7,0,0,1-1.47-4.86l0-.09a3.82,3.82,0,0,1,5.35-1.55,20.36,20.36,0,0,0,9.29,2.89c2.8,0,4.56-1.05,4.56-3.05,0-6.2-18.51-2.52-18.5-14.93,0-5.35,3.81-9.05,9.87-10.2v-4.1a3.32,3.32,0,0,1,3.31-3.3h0a3.31,3.31,0,0,1,3.3,3.31v3.85a28.69,28.69,0,0,1,7.82,2,3.77,3.77,0,0,1,1.89,5.13l-.08.16a3.81,3.81,0,0,1-5,1.84,22.31,22.31,0,0,0-7.92-2c-2.3,0-3.85.85-3.85,2.55,0,6,18.51,2.62,18.5,15.28C1243.81,934.31,1239,937.9,1232.4,938.65Z" transform="translate(-354.02 -53.27)"/></g><line id="line-2" data-name="line" class="cls-1" x1="1119.54" y1="924.1" x2="3" y2="930.37"/></g></svg>