<svg id="ILLUSTRATION" xmlns="http://www.w3.org/2000/svg" viewBox="0 0 425.65 419.88"><defs><style>.cls-1{fill:#09385a;}.cls-2{fill:#31c2e1;}.cls-3{fill:#d2dcff;}.cls-4{fill:#6277d7;}.cls-5{fill:#f9f9f9;}.cls-6{fill:#ffd9e8;}.cls-7{fill:#fcbeb7;}.cls-8{fill:#311643;}.cls-9{fill:#f49795;}.cls-10{fill:none;}.cls-11{fill:#fff;}.cls-12{fill:#f9afab;}.cls-13{fill:#4a5ea3;}.cls-14{fill:#4a62d3;}.cls-15{fill:#2f3d6c;}</style></defs><polygon class="cls-1" points="58.87 334.95 48.63 419.88 45.27 419.88 55.51 334.95 58.87 334.95"/><polygon class="cls-1" points="13.6 334.95 12.45 344.5 3.36 419.88 0 419.88 9.14 344.13 10.24 334.95 13.6 334.95"/><polygon class="cls-1" points="58.87 419.88 55.51 419.88 54.09 408.13 52.41 394.2 46.89 348.4 45.27 334.95 48.63 334.95 50.3 348.78 54.09 380.28 55.77 394.2 58.87 419.88"/><polygon class="cls-1" points="104.14 419.88 100.78 419.88 92.83 353.96 92.83 353.96 90.53 334.95 93.89 334.95 96.23 354.33 104.14 419.88"/><rect class="cls-1" x="10.41" y="278.18" width="3.36" height="51.37"/><rect class="cls-1" x="56.06" y="278.18" width="3.36" height="51.37"/><path class="cls-2" d="M1640.45,1953.32h-46.16a2.7,2.7,0,0,1,2.7,2.7h0a2.7,2.7,0,0,1-2.7,2.7h46.16a2.7,2.7,0,0,0,2.7-2.7h0A2.7,2.7,0,0,0,1640.45,1953.32Z" transform="translate(-1545.15 -1623.77)"/><path class="cls-2" d="M1597,1956h0a2.7,2.7,0,0,0-2.7-2.7h-39.85a2.7,2.7,0,0,0-2.7,2.7h0a2.7,2.7,0,0,0,2.7,2.7h39.85A2.7,2.7,0,0,0,1597,1956Z" transform="translate(-1545.15 -1623.77)"/><rect class="cls-1" x="3.9" y="239.52" width="62.03" height="38.66" rx="3.76"/><path class="cls-2" d="M1558.75,1958.72l-1.15,9.55-3.32-.37,1.11-9.18Z" transform="translate(-1545.15 -1623.77)"/><path class="cls-2" d="M1593.77,1958.72l1.67,13.83-3.41-.38-1.62-13.45Z" transform="translate(-1545.15 -1623.77)"/><path class="cls-2" d="M1641.38,1978.1l-3.41-.37h0l-2.29-19H1639Z" transform="translate(-1545.15 -1623.77)"/><polygon class="cls-2" points="10.41 278.18 13.77 278.18 13.77 285.28 10.41 284.91 10.41 278.18"/><polygon class="cls-2" points="59.42 278.18 59.42 290.33 56.06 289.96 56.06 278.18 59.42 278.18"/><rect class="cls-3" x="9.54" y="52.43" width="47.15" height="57.34"/><rect class="cls-1" x="11.7" y="54.24" width="42.83" height="53.72"/><polygon class="cls-2" points="11.7 93.72 25.63 79.78 32.59 86.74 45.67 73.65 54.52 82.5 54.52 107.95 11.7 107.95 11.7 93.72"/><circle class="cls-2" cx="24.51" cy="68.23" r="3.74"/><rect class="cls-2" x="148.86" width="172.23" height="164.74" rx="7.96"/><rect class="cls-1" x="169.83" y="19.07" width="78.94" height="4.78" rx="2.39"/><rect class="cls-1" x="169.83" y="30.99" width="55.1" height="4.78" rx="2.39"/><rect class="cls-4" x="169.83" y="51.89" width="16.67" height="3.41" rx="1.71"/><rect class="cls-1" x="239.36" y="103.62" width="44.37" height="10.31" rx="1.71"/><rect class="cls-1" x="239.36" y="122.36" width="60.87" height="10.31" rx="1.71"/><path class="cls-1" d="M1740.48,1767.57a3.18,3.18,0,0,1,3.18-3.19,22.47,22.47,0,1,1,22.47-22.47,3.19,3.19,0,0,1,6.37,0,28.84,28.84,0,1,0-28.84,28.84A3.18,3.18,0,0,1,1740.48,1767.57Z" transform="translate(-1545.15 -1623.77)"/><path class="cls-5" d="M1769.32,1738.73a3.19,3.19,0,0,0-3.19,3.18,22.5,22.5,0,0,1-22.47,22.47,3.19,3.19,0,0,0,0,6.37,28.88,28.88,0,0,0,28.84-28.84A3.19,3.19,0,0,0,1769.32,1738.73Z" transform="translate(-1545.15 -1623.77)"/><rect class="cls-2" x="355.28" y="54.12" width="70.37" height="70.37" rx="2.59"/><rect class="cls-1" x="380.38" y="54.12" width="20.16" height="35.18"/><path class="cls-4" d="M1911.81,1894.72v-1.39a.78.78,0,0,0-.78-.77H1879a2.93,2.93,0,0,0-2.93,2.93h0v2.36h0a2.93,2.93,0,0,0,2.93,2.93H1911a.78.78,0,0,0,.78-.78v-1.38a.77.77,0,0,0-.78-.77h-30.9a1.17,1.17,0,0,1-1.17-1.18h0a1.17,1.17,0,0,1,1.17-1.18H1911A.78.78,0,0,0,1911.81,1894.72Z" transform="translate(-1545.15 -1623.77)"/><path class="cls-2" d="M1910.42,1895.49v2.36h-30.29a1.17,1.17,0,0,1-1.17-1.18h0a1.17,1.17,0,0,1,1.17-1.18Z" transform="translate(-1545.15 -1623.77)"/><path class="cls-2" d="M1909.52,1886.5v-1.38a.78.78,0,0,0-.78-.78h-27.49a2.93,2.93,0,0,0-2.93,2.93h0v2.36h0a2.93,2.93,0,0,0,2.93,2.93h27.49a.78.78,0,0,0,.78-.77v-1.39a.78.78,0,0,0-.78-.77h-26.31a1.18,1.18,0,0,1-1.18-1.18h0a1.18,1.18,0,0,1,1.18-1.18h26.31A.77.77,0,0,0,1909.52,1886.5Z" transform="translate(-1545.15 -1623.77)"/><path class="cls-6" d="M1908.5,1887.27v2.36h-26.07a1.18,1.18,0,0,1-1.18-1.18h0a1.18,1.18,0,0,1,1.18-1.18Z" transform="translate(-1545.15 -1623.77)"/><polygon class="cls-1" points="341.06 282.43 324.07 419.86 320.69 419.86 337.69 282.43 341.06 282.43"/><polygon class="cls-1" points="385.73 419.86 382.35 419.86 367.81 302.29 365.36 282.43 368.73 282.43 371.15 302.01 385.73 419.86"/><polygon class="cls-1" points="171.82 282.43 167.28 319.2 154.83 419.86 151.45 419.86 163.87 319.49 168.45 282.43 171.82 282.43"/><polygon class="cls-1" points="216.49 419.86 213.11 419.86 200.32 316.41 196.11 282.43 199.49 282.43 203.66 316.13 216.49 419.86"/><polygon class="cls-2" points="168.45 282.43 171.82 282.43 167.28 319.2 163.87 319.49 168.45 282.43"/><polygon class="cls-2" points="199.49 282.43 203.66 316.13 200.32 316.41 196.11 282.43 199.49 282.43"/><polygon class="cls-2" points="371.15 302.01 367.81 302.29 365.36 282.43 368.73 282.43 371.15 302.01"/><path class="cls-1" d="M205.56,277H378.13a2.26,2.26,0,0,1,2.26,2.26v.91a2.26,2.26,0,0,1-2.26,2.26H205.56a0,0,0,0,1,0,0V277a0,0,0,0,1,0,0Z"/><path class="cls-2" d="M159.9,277h45.66a0,0,0,0,1,0,0v5.42a0,0,0,0,1,0,0H159.9a2.26,2.26,0,0,1-2.26-2.26v-.91A2.26,2.26,0,0,1,159.9,277Z"/><path class="cls-5" d="M1750.67,1887.59h15.14A1.24,1.24,0,0,1,1767,1889l-1.28,10.7a1.23,1.23,0,0,1-1.23,1.1H1752a1.25,1.25,0,0,1-1.24-1.1l-1.28-10.7A1.25,1.25,0,0,1,1750.67,1887.59Z" transform="translate(-1545.15 -1623.77)"/><polygon class="cls-5" points="218.29 259.46 218.29 254.59 215.38 260.12 215.38 251.14 213.09 256.8 210.81 251.14 210.81 260.12 207.9 254.59 207.9 259.46 203.66 252.64 205.53 263.82 213.09 263.82 220.66 263.82 222.53 252.64 218.29 259.46"/><polygon class="cls-1" points="327.45 263.12 232.75 263.12 243.31 206.2 338.01 206.2 327.45 263.12"/><polygon class="cls-5" points="279.64 237.98 290.27 237.98 304.27 277.01 285.69 277.01 279.64 237.98"/><rect class="cls-5" x="246.6" y="274.5" width="33.7" height="2.51" rx="1.04"/><polygon class="cls-5" points="279.64 237.98 279.64 263.12 283.54 263.12 279.64 237.98"/><path class="cls-7" d="M1677.12,1740.88c-13.09,2.18-29.4-2.69-31.45-5.79-4.74,7.22-7.14,7-7.14,7v5.42l-1.08-1.07c-.32-.75-.85-1.49-1.63-1.49-4.31,0-4.61,12,2.64,12.68.14.47.29.91.44,1.31v19.19h16.36v-7.55a12.11,12.11,0,0,0,3.13.48c6.45,0,17.44-9.49,18.69-24.62C1677.15,1743.57,1677.12,1740.88,1677.12,1740.88Z" transform="translate(-1545.15 -1623.77)"/><path class="cls-8" d="M1657.26,1720.34c-11.29,0-13.54,6-13.54,6-4.82,0-12.19,8.8-7.75,18.58l0,0,2.54,2.54v-5.42s2.4.23,7.14-7c2,3.1,18.36,8,31.45,5.79,0,0,0,2.69,0,5.55h0C1682,1732.29,1672.15,1720.34,1657.26,1720.34Z" transform="translate(-1545.15 -1623.77)"/><path class="cls-8" d="M1652.4,1750.56a.9.9,0,0,1-.9-.9V1748a.91.91,0,0,1,1.81,0v1.69A.9.9,0,0,1,1652.4,1750.56Z" transform="translate(-1545.15 -1623.77)"/><path class="cls-8" d="M1669.14,1750.56a.9.9,0,0,1-.9-.9V1748a.91.91,0,0,1,1.81,0v1.69A.9.9,0,0,1,1669.14,1750.56Z" transform="translate(-1545.15 -1623.77)"/><path class="cls-8" d="M1659,1761.1a5.15,5.15,0,0,1-3.37-1.16,4.55,4.55,0,0,1-1.2-1.49.41.41,0,1,1,.75-.34h0a4.23,4.23,0,0,0,4.52,2.12.41.41,0,0,1,.46.36.42.42,0,0,1-.37.46A7.29,7.29,0,0,1,1659,1761.1Z" transform="translate(-1545.15 -1623.77)"/><circle class="cls-9" cx="101.27" cy="129.81" r="4.46"/><path class="cls-9" d="M1676.61,1749.87a31.51,31.51,0,0,1-2.71,8.17,4.46,4.46,0,1,1,2.71-8.17Z" transform="translate(-1545.15 -1623.77)"/><circle class="cls-10" cx="107.26" cy="122.56" r="5.5"/><circle class="cls-10" cx="1669.14" cy="1746.33" r="5.5" transform="translate(-1803.32 -1333.85) rotate(-9.22)"/><path class="cls-11" d="M1669.14,1740a6.33,6.33,0,0,0-6.29,5.64,4.87,4.87,0,0,0-4.16,0,6.35,6.35,0,1,0,0,.91,4.16,4.16,0,0,1,4.1,0,6.33,6.33,0,1,0,6.32-6.56Zm-16.74,11.82a5.5,5.5,0,1,1,5.5-5.5A5.5,5.5,0,0,1,1652.4,1751.83Zm16.74,0a5.5,5.5,0,1,1,5.5-5.5A5.5,5.5,0,0,1,1669.14,1751.83Z" transform="translate(-1545.15 -1623.77)"/><path class="cls-12" d="M1655.26,1778.12v-7.55a36.5,36.5,0,0,1-11.07-5.88Z" transform="translate(-1545.15 -1623.77)"/><polygon class="cls-4" points="149.23 398.06 131.9 398.06 102.76 269.92 72.91 398.06 55.58 398.06 71.73 254.31 135.75 254.31 149.23 398.06"/><path class="cls-1" d="M1678.42,2028.79V2041a2.58,2.58,0,0,0,2.59,2.58h34.73a.59.59,0,0,0,.6-.59v-2.36a2.69,2.69,0,0,0-1.52-2.42l-19.58-9.46Z" transform="translate(-1545.15 -1623.77)"/><path class="cls-1" d="M1616.17,2028.79V2041a2.57,2.57,0,0,1-2.58,2.58h-34.74a.58.58,0,0,1-.59-.59v-2.36a2.7,2.7,0,0,1,1.51-2.42l19.59-9.46Z" transform="translate(-1545.15 -1623.77)"/><polygon class="cls-7" points="131.9 398.06 133.2 405.02 150.09 405.02 149.23 398.06 131.9 398.06"/><polygon class="cls-7" points="55.58 398.06 54.21 405.02 71.03 405.02 72.91 398.06 55.58 398.06"/><polyline class="cls-13" points="71.38 257.39 136.38 261.06 135.75 254.31 71.73 254.31"/><path class="cls-7" d="M1619.93,1810.37" transform="translate(-1545.15 -1623.77)"/><line class="cls-7" x1="56.69" y1="178.55" x2="71.46" y2="189.91"/><path class="cls-2" d="M1676.65,1816.12l4.25,62h-64l3.92-44.14-.87-23.56-3.32,3.31-14.78-11.36,7.94-12.93A19.65,19.65,0,0,1,1618,1782l18.21-8.84.66-.32,2.08-1s9.5,6.23,16.34,0l3.64,1.37.75.28,19.29,7.28a12.39,12.39,0,0,1,6.86,6.33l8.19,17.41Z" transform="translate(-1545.15 -1623.77)"/><path class="cls-11" d="M1658.88,1773.18a18.67,18.67,0,0,1-22.06-.36l-.66.32a19.34,19.34,0,0,0,23.47.32Z" transform="translate(-1545.15 -1623.77)"/><path class="cls-14" d="M1617.15,1784.09a5.5,5.5,0,0,1-7.32,5.19,19.74,19.74,0,0,1,7.09-6.77A5.49,5.49,0,0,1,1617.15,1784.09Z" transform="translate(-1545.15 -1623.77)"/><circle class="cls-13" cx="75.33" cy="311.48" r="8.29"/><circle class="cls-13" cx="130.67" cy="311.48" r="8.29"/><rect class="cls-1" x="1588.71" y="1840.74" width="57.45" height="37.29" rx="1.62" transform="translate(-1993.29 -1108.55) rotate(-15.93)"/><rect class="cls-1" x="107.44" y="163.01" width="15.68" height="27.85" rx="0.84"/><path class="cls-7" d="M1705.64,1832.07,1694,1804.48l-8.91,6-12.51-11-2.55-8.76a.64.64,0,0,0-.54-.54,1.9,1.9,0,0,0-2.14,2.1l.44,3.84-4.64.62a8.72,8.72,0,0,1-3.73-.33l-4.32-1.35a2.42,2.42,0,0,0-3.06,1.63h0l-1.67-.39a1.55,1.55,0,0,0-1.84,1.11v0a1.55,1.55,0,0,0,.78,1.75h0a2.52,2.52,0,0,0,1.77,3h0a2.86,2.86,0,0,0,1.57,3.32l3.27,1.49a8.25,8.25,0,0,0,3.92.74l7.42-.6,25.21,33h0a7.82,7.82,0,0,0,9.29,2.06h0A7.82,7.82,0,0,0,1705.64,1832.07Z" transform="translate(-1545.15 -1623.77)"/><path class="cls-14" d="M1686,1787.48a5.33,5.33,0,0,1-7-6.71,12.45,12.45,0,0,1,6.76,6.3Z" transform="translate(-1545.15 -1623.77)"/><polygon class="cls-12" points="141.51 188.06 155.02 195.36 158.07 202.58 141.51 188.06"/><polygon class="cls-15" points="71.7 255.17 52.57 221.85 56.62 220.69 71.7 255.17"/><circle class="cls-12" cx="152.82" cy="212" r="5.25"/><path class="cls-12" d="M1598.24,1820.83a5.57,5.57,0,0,1-4.5,5.47l-.94-2.18a7.59,7.59,0,0,1,.39-6.76l1.07-1.86A5.56,5.56,0,0,1,1598.24,1820.83Z" transform="translate(-1545.15 -1623.77)"/><path class="cls-7" d="M1631.11,1872.91l-6.52-2.91a1.79,1.79,0,0,1-1-1l-1-2.6,3.29.81,1,2.25a1.54,1.54,0,0,0,2,.77l-1.37-4.14a2.81,2.81,0,0,0-1.38-1.5l-6.88-3.39-11.86-38.47,9.07-9-14.78-11.36-8.64,15a7.59,7.59,0,0,0-.39,6.76l24,54.82,4.76.22a1.53,1.53,0,0,0,1.4-.75l.52-.87,2.5.21a1.55,1.55,0,0,0,1.38-.63l.59-.79.35.09a2.15,2.15,0,0,0,2.44-1.06l1.74.58A2.48,2.48,0,0,0,1631.11,1872.91Z" transform="translate(-1545.15 -1623.77)"/><path class="cls-7" d="M1729.25,1810.37" transform="translate(-1545.15 -1623.77)"/><rect class="cls-1" x="364.93" y="372.6" width="47.26" height="47.26"/><rect class="cls-2" x="338.89" y="372.6" width="26.03" height="47.26"/><rect class="cls-1" x="338.89" y="380.68" width="26.03" height="1.38"/><rect class="cls-11" x="364.93" y="380.68" width="47.26" height="1.38"/><rect class="cls-11" x="379.26" y="387.6" width="18.59" height="1.23" rx="0.6"/></svg>