<svg id="illustrations" xmlns="http://www.w3.org/2000/svg" viewBox="0 0 638.54 665.8"><defs><style>.cls-1{fill:#110580;}.cls-2{fill:#09385a;}.cls-3{fill:#32378f;}.cls-4{fill:#f5f5fa;}.cls-5{fill:#fff;}.cls-6{fill:#e8e8f7;}.cls-7{fill:#c5c6e3;}.cls-8{fill:#66a896;}.cls-9{fill:#ff5856;}.cls-10{fill:#30c3e2;}.cls-11{fill:#b7b7c4;}.cls-12{fill:#735639;}.cls-13{fill:#fcb58a;}.cls-14{fill:#e3996d;}.cls-15{fill:#e8d4c1;}.cls-16{fill:#ba9c7e;}.cls-17{fill:#4c7378;}.cls-18{fill:#689399;}.cls-19{fill:#57848a;}.cls-20{fill:#dec7b2;}.cls-21{fill:#ebdbcd;}.cls-22{fill:#f0a173;}.cls-23{fill:#31c2e1;}.cls-24{fill:#ab8868;}.cls-25{fill:#d7d7e6;}.cls-26{fill:#8a6645;}.cls-27{fill:#c49c77;}.cls-28{fill:#787ccb;}.cls-29{fill:#e0e0e0;}.cls-30{fill:#dcdced;}</style></defs><g id="book-right-and-wrong-by-oblik-studio"><path class="cls-1" d="M3406.35,2847.28a.53.53,0,0,1-.24-.2.67.67,0,0,1-.1-.3.56.56,0,0,1,.17-.4.52.52,0,0,1,.39-.17h2.73v-2.74a.63.63,0,0,1,0-.24.59.59,0,0,1,.12-.2.72.72,0,0,1,.19-.14.79.79,0,0,1,.22,0,.86.86,0,0,1,.23,0,.94.94,0,0,1,.19.14.82.82,0,0,1,.12.2.63.63,0,0,1,0,.24v3.86h-3.86A.5.5,0,0,1,3406.35,2847.28Z" transform="translate(-3238.52 -2677.07)"/><path class="cls-1" d="M3350.23,2847.24a.47.47,0,0,1-.24-.2.54.54,0,0,1-.1-.3.46.46,0,0,1,0-.21.52.52,0,0,1,.12-.19.49.49,0,0,1,.18-.14.57.57,0,0,1,.22,0h7a.54.54,0,0,1,.39.17.54.54,0,0,1,.17.4.52.52,0,0,1,0,.21,1,1,0,0,1-.12.19l-.19.13a.76.76,0,0,1-.21,0h-7A.54.54,0,0,1,3350.23,2847.24Zm14,0a.57.57,0,0,1-.32-.63.56.56,0,0,1,.54-.45h7a.52.52,0,0,1,.36.19.58.58,0,0,1,.15.38.56.56,0,0,1-.15.37.5.5,0,0,1-.36.18h-7a.53.53,0,0,1-.22,0Zm14,0a.57.57,0,0,1-.27-.26.52.52,0,0,1-.05-.37.63.63,0,0,1,.19-.32.56.56,0,0,1,.35-.13h7a.66.66,0,0,1,.24,0,.47.47,0,0,1,.2.12.64.64,0,0,1,.13.19.56.56,0,0,1,0,.23.59.59,0,0,1,0,.22.53.53,0,0,1-.13.19.82.82,0,0,1-.2.12.65.65,0,0,1-.24,0h-7a.55.55,0,0,1-.22,0Zm14,0a.57.57,0,0,1-.32-.63.56.56,0,0,1,.19-.32.58.58,0,0,1,.35-.13h7a.52.52,0,0,1,.39.17.56.56,0,0,1,0,.8.55.55,0,0,1-.39.16h-7a.82.82,0,0,1-.22,0Z" transform="translate(-3238.52 -2677.07)"/><path class="cls-1" d="M3339.58,2847.28v-3.86a.58.58,0,0,1,.16-.4.59.59,0,0,1,.4-.16.55.55,0,0,1,.39.16.54.54,0,0,1,.17.4v2.74h2.74a.56.56,0,0,1,.4.17.58.58,0,0,1,.16.4.55.55,0,0,1-.56.55Z" transform="translate(-3238.52 -2677.07)"/><path class="cls-1" d="M3339.92,2837.4a.63.63,0,0,1-.23-.2.57.57,0,0,1-.1-.3v-6.54a.55.55,0,0,1,.16-.39.57.57,0,0,1,.4-.18.51.51,0,0,1,.21.06.52.52,0,0,1,.19.11.76.76,0,0,1,.12.19.78.78,0,0,1,0,.21v6.54a.65.65,0,0,1-.08.26.58.58,0,0,1-.19.19.54.54,0,0,1-.25.09.5.5,0,0,1-.27,0Zm0-13.09a.49.49,0,0,1-.23-.2.63.63,0,0,1-.1-.29v-6.56a.62.62,0,0,1,.18-.36.59.59,0,0,1,.38-.14.57.57,0,0,1,.38.14.57.57,0,0,1,.18.36v6.55a.57.57,0,0,1-.16.39.55.55,0,0,1-.4.16.42.42,0,0,1-.22-.05Zm0-13.07a.5.5,0,0,1-.24-.19.55.55,0,0,1-.09-.3v-6.56a.57.57,0,0,1,.16-.39.58.58,0,0,1,.8,0,.57.57,0,0,1,.16.39v6.56a.44.44,0,0,1-.08.25.5.5,0,0,1-.18.2.62.62,0,0,1-.26.09.58.58,0,0,1-.26-.05Z" transform="translate(-3238.52 -2677.07)"/><path class="cls-1" d="M3340,2798.17a.52.52,0,0,1-.24-.2.59.59,0,0,1-.1-.29v-3.89h3.86a.78.78,0,0,1,.21,0,.7.7,0,0,1,.31.31.52.52,0,0,1,0,.21.54.54,0,0,1,0,.22.46.46,0,0,1-.13.18.44.44,0,0,1-.18.12.54.54,0,0,1-.21.05h-2.74v2.74a.57.57,0,0,1,0,.22.52.52,0,0,1-.12.18.57.57,0,0,1-.18.12.52.52,0,0,1-.21,0A.46.46,0,0,1,3340,2798.17Z" transform="translate(-3238.52 -2677.07)"/><path class="cls-1" d="M3350.26,2794.87a.57.57,0,0,1-.32-.63.63.63,0,0,1,.19-.32.55.55,0,0,1,.35-.12h7a.5.5,0,0,1,.36.18.54.54,0,0,1,.15.38.55.55,0,0,1-.15.38.54.54,0,0,1-.36.18h-7A.59.59,0,0,1,3350.26,2794.87Zm14,0a.57.57,0,0,1-.32-.63.7.7,0,0,1,.19-.32.57.57,0,0,1,.35-.12h7a.6.6,0,0,1,.23,0,.82.82,0,0,1,.2.12.5.5,0,0,1,.13.19.46.46,0,0,1,0,.23.44.44,0,0,1,0,.22.43.43,0,0,1-.13.19.47.47,0,0,1-.2.12.46.46,0,0,1-.23,0h-7a.57.57,0,0,1-.22,0Zm14,0a.52.52,0,0,1-.24-.2.53.53,0,0,1-.09-.3.52.52,0,0,1,0-.21.57.57,0,0,1,.12-.18.44.44,0,0,1,.18-.12.54.54,0,0,1,.22,0h7a.5.5,0,0,1,.36.18.54.54,0,0,1,.15.38.55.55,0,0,1-.15.38.54.54,0,0,1-.36.18h-7a.54.54,0,0,1-.22-.05Zm14,0a.52.52,0,0,1-.24-.2.63.63,0,0,1-.1-.3.58.58,0,0,1,.56-.56h7a.58.58,0,0,1,.56.56.54.54,0,0,1-.17.4.52.52,0,0,1-.39.17h-7a.57.57,0,0,1-.22,0Z" transform="translate(-3238.52 -2677.07)"/><path class="cls-1" d="M3409.67,2798.21a.54.54,0,0,1-.34-.49V2795h-2.73a.65.65,0,0,1-.24,0,.82.82,0,0,1-.2-.12.64.64,0,0,1-.13-.19.59.59,0,0,1-.05-.23.64.64,0,0,1,.05-.23.8.8,0,0,1,.13-.19.56.56,0,0,1,.2-.11.5.5,0,0,1,.24,0h3.85v3.87a.61.61,0,0,1-.08.26.5.5,0,0,1-.19.19.54.54,0,0,1-.25.09.65.65,0,0,1-.27-.05Z" transform="translate(-3238.52 -2677.07)"/><path class="cls-1" d="M3409.67,2837.44a.59.59,0,0,1-.24-.2.63.63,0,0,1-.1-.3v-6.55a.58.58,0,0,1,.17-.41.59.59,0,0,1,.4-.16.55.55,0,0,1,.39.16.58.58,0,0,1,.17.41v6.53a.64.64,0,0,1-.07.27.72.72,0,0,1-.19.2.48.48,0,0,1-.26.07.5.5,0,0,1-.27,0Zm0-13.08a.47.47,0,0,1-.24-.2.51.51,0,0,1-.1-.3v-6.52a.47.47,0,0,1,0-.24.49.49,0,0,1,.11-.2,1.33,1.33,0,0,1,.19-.14.59.59,0,0,1,.23-.05.64.64,0,0,1,.23.05.86.86,0,0,1,.18.14.41.41,0,0,1,.12.2.47.47,0,0,1,0,.24v6.53a.57.57,0,0,1-.16.39.6.6,0,0,1-.4.17A.44.44,0,0,1,3409.67,2824.36Zm0-13.07a.59.59,0,0,1-.24-.2.67.67,0,0,1-.1-.3v-6.55a.58.58,0,0,1,.19-.37.51.51,0,0,1,.37-.15.54.54,0,0,1,.38.15.53.53,0,0,1,.18.37v6.52a.62.62,0,0,1,0,.23.94.94,0,0,1-.12.18.44.44,0,0,1-.18.12.54.54,0,0,1-.22,0A.57.57,0,0,1,3409.67,2811.29Z" transform="translate(-3238.52 -2677.07)"/><path class="cls-2" d="M3532.05,2721.08h-76.8a11.63,11.63,0,0,0-11.62,11.66h0a11.63,11.63,0,0,0-11.62-11.66h-76.8a1.52,1.52,0,0,0-1.52,1.52v96.79a1.56,1.56,0,0,0,.44,1.08,1.5,1.5,0,0,0,1.08.44h79.25a9.92,9.92,0,0,0,3.68,3.87,10.1,10.1,0,0,0,5.14,1.43h.77a10,10,0,0,0,5.13-1.43,10.13,10.13,0,0,0,3.7-3.85h79.21a1.49,1.49,0,0,0,1.07-.45,1.53,1.53,0,0,0,.45-1.08v-96.76a1.5,1.5,0,0,0-.1-.59,1.6,1.6,0,0,0-.33-.51,1.43,1.43,0,0,0-.5-.34A1.52,1.52,0,0,0,3532.05,2721.08Z" transform="translate(-3238.52 -2677.07)"/><path class="cls-3" d="M3526.28,2725.05h-72.16a10.52,10.52,0,0,0-10.5,10.53h0a10.5,10.5,0,0,0-6.48-9.73,10.4,10.4,0,0,0-4-.8H3361a1.34,1.34,0,0,0-.52.1,1.37,1.37,0,0,0-.45.3,1.34,1.34,0,0,0-.29.45,1.32,1.32,0,0,0-.11.53v87.41a1.35,1.35,0,0,0,.1.53,1.19,1.19,0,0,0,.3.45,1.05,1.05,0,0,0,.45.3,1.17,1.17,0,0,0,.52.12h74.36a9.08,9.08,0,0,0,8,4.76h.7a9,9,0,0,0,4.63-1.29,9.1,9.1,0,0,0,3.33-3.47h74.36a1.37,1.37,0,0,0,1.37-1.38v-87.43a1.32,1.32,0,0,0-.1-.53,1.37,1.37,0,0,0-.3-.45,1.43,1.43,0,0,0-.44-.3A1.39,1.39,0,0,0,3526.28,2725.05Z" transform="translate(-3238.52 -2677.07)"/><path class="cls-4" d="M3454.84,2710.78H3524a1.47,1.47,0,0,1,1.47,1.47v99.17a1.47,1.47,0,0,1-1.47,1.47h-74.77a5.38,5.38,0,0,1-2.14-.43,5.57,5.57,0,0,1-1.82-1.21,5.74,5.74,0,0,1-1.21-1.82,5.64,5.64,0,0,1-.42-2.15V2722a11.22,11.22,0,0,1,11.21-11.25Z" transform="translate(-3238.52 -2677.07)"/><path class="cls-5" d="M3438,2812.89h-74.74a1.44,1.44,0,0,1-1-.43,1.46,1.46,0,0,1-.43-1v-99.17a1.46,1.46,0,0,1,.43-1,1.44,1.44,0,0,1,1-.43h69.13a11.22,11.22,0,0,1,11.21,11.25v85.25a5.64,5.64,0,0,1-.42,2.15,5.66,5.66,0,0,1-3,3A5.44,5.44,0,0,1,3438,2812.89Z" transform="translate(-3238.52 -2677.07)"/><path class="cls-6" d="M3378.05,2759.76a5.71,5.71,0,1,0-5.69-5.71A5.7,5.7,0,0,0,3378.05,2759.76Z" transform="translate(-3238.52 -2677.07)"/><path class="cls-6" d="M3429,2750.19H3390a1.2,1.2,0,0,0,0,2.39H3429a1.2,1.2,0,1,0,0-2.39Z" transform="translate(-3238.52 -2677.07)"/><path class="cls-6" d="M3416.91,2755.71h-27a1.2,1.2,0,0,0,0,2.4h27a1.2,1.2,0,0,0,0-2.4Z" transform="translate(-3238.52 -2677.07)"/><path class="cls-6" d="M3378.05,2798.65a5.71,5.71,0,1,0-5.69-5.71A5.7,5.7,0,0,0,3378.05,2798.65Z" transform="translate(-3238.52 -2677.07)"/><path class="cls-6" d="M3429,2794.6H3390a1.2,1.2,0,0,0,0,2.39H3429a1.2,1.2,0,1,0,0-2.39Z" transform="translate(-3238.52 -2677.07)"/><path class="cls-6" d="M3416.91,2789.08h-27a1.2,1.2,0,0,0,0,2.39h27a1.2,1.2,0,0,0,0-2.39Z" transform="translate(-3238.52 -2677.07)"/><path class="cls-6" d="M3378.05,2779.21a5.71,5.71,0,1,0-5.69-5.71A5.7,5.7,0,0,0,3378.05,2779.21Z" transform="translate(-3238.52 -2677.07)"/><path class="cls-6" d="M3429,2775.16H3390a1.2,1.2,0,0,0,0,2.39H3429a1.2,1.2,0,1,0,0-2.39Z" transform="translate(-3238.52 -2677.07)"/><path class="cls-6" d="M3423,2769.64h-33a1.2,1.2,0,0,0,0,2.39h33a1.2,1.2,0,1,0,0-2.39Z" transform="translate(-3238.52 -2677.07)"/><path class="cls-7" d="M3461.17,2759.76a5.71,5.71,0,1,0-5.69-5.71A5.71,5.71,0,0,0,3461.17,2759.76Z" transform="translate(-3238.52 -2677.07)"/><path class="cls-7" d="M3512.13,2775.2h-39.05a1.2,1.2,0,0,0,0,2.4h39.05a1.2,1.2,0,0,0,0-2.4Z" transform="translate(-3238.52 -2677.07)"/><path class="cls-7" d="M3500,2769.68h-27a1.2,1.2,0,0,0,0,2.4h27a1.2,1.2,0,0,0,0-2.4Z" transform="translate(-3238.52 -2677.07)"/><path class="cls-7" d="M3461.17,2798.65a5.71,5.71,0,1,0-5.69-5.71A5.71,5.71,0,0,0,3461.17,2798.65Z" transform="translate(-3238.52 -2677.07)"/><path class="cls-7" d="M3512.13,2750.19h-39.05a1.2,1.2,0,0,0,0,2.39h39.05a1.2,1.2,0,1,0,0-2.39Z" transform="translate(-3238.52 -2677.07)"/><path class="cls-7" d="M3500,2755.71h-27a1.2,1.2,0,0,0,0,2.4h27a1.2,1.2,0,0,0,0-2.4Z" transform="translate(-3238.52 -2677.07)"/><path class="cls-7" d="M3461.17,2779.21a5.71,5.71,0,1,0-5.69-5.71A5.71,5.71,0,0,0,3461.17,2779.21Z" transform="translate(-3238.52 -2677.07)"/><path class="cls-7" d="M3512.13,2789.17h-39.05a1.2,1.2,0,0,0,0,2.4h39.05a1.2,1.2,0,0,0,0-2.4Z" transform="translate(-3238.52 -2677.07)"/><path class="cls-7" d="M3506.08,2794.69h-33a1.2,1.2,0,0,0,0,2.4h33a1.2,1.2,0,1,0,0-2.4Z" transform="translate(-3238.52 -2677.07)"/><path class="cls-8" d="M3408.64,2720.51a100.62,100.62,0,0,0-7.81,10.24,8.31,8.31,0,0,0-5.17-3.3c-1.16-.21-2.66-.21-3.42.54l-.41.38c-.86.82-1.28,2.27.12,3.14a12.51,12.51,0,0,1,2.93,2,16.11,16.11,0,0,1,2.48,4.29c1.11,2.53,5.58,2.64,6.56.3a133.86,133.86,0,0,1,8.09-16C3413,2720.47,3410,2719,3408.64,2720.51Z" transform="translate(-3238.52 -2677.07)"/><path class="cls-9" d="M3491.44,2719.82a39.93,39.93,0,0,0-13.5,13.13,6.3,6.3,0,0,0-.39,4.78c.28,1,1,2.34,2,1.2a88.55,88.55,0,0,1,12.84-12.31c1.56-1.17.86-7.92-.95-6.8Z" transform="translate(-3238.52 -2677.07)"/><path class="cls-9" d="M3476.69,2727.46c5.16,3.92,10.71,6.75,14.63,12,.93,1.24,1.79-.19,2.06-1a7.55,7.55,0,0,0-.26-5.11c-2.84-6.12-9.19-10.63-15.83-12.63-2.44-.73-2,5.76-.6,6.8Z" transform="translate(-3238.52 -2677.07)"/><path class="cls-1" d="M3429.91,2699.44h-.18a.44.44,0,0,1-.3-.54,12.2,12.2,0,0,1,1-2.49.44.44,0,0,1,.26-.22.42.42,0,0,1,.33,0,.4.4,0,0,1,.21.25.44.44,0,0,1,0,.34,10.66,10.66,0,0,0-.93,2.3.54.54,0,0,1-.13.22A.52.52,0,0,1,3429.91,2699.44Z" transform="translate(-3238.52 -2677.07)"/><path class="cls-1" d="M3502.38,2716.48h-.16l-.63-.14c-1.46-.34-3-.69-4.56-1.11a.43.43,0,0,1-.24-.2.43.43,0,0,1,.46-.64c1.58.41,3.08.76,4.54,1.09l.63.15a.44.44,0,0,1,.27.19.44.44,0,0,1-.07.56A.43.43,0,0,1,3502.38,2716.48Zm-10.27-2.79h-.21a40.64,40.64,0,0,1-4.94-2.13.47.47,0,0,1-.19-.25.45.45,0,0,1,0-.32.43.43,0,0,1,.23-.21.44.44,0,0,1,.32,0,38.52,38.52,0,0,0,4.82,2,.6.6,0,0,1,.15.09.5.5,0,0,1,.1.14.42.42,0,0,1,0,.16.47.47,0,0,1,0,.17.36.36,0,0,1-.13.19.54.54,0,0,1-.2.1Zm-9.37-5a.32.32,0,0,1-.17,0,.35.35,0,0,1-.16-.08,25.55,25.55,0,0,1-3.92-3.72.41.41,0,0,1-.11-.32.51.51,0,0,1,.15-.3.47.47,0,0,1,.32-.1.42.42,0,0,1,.3.15,25.29,25.29,0,0,0,3.79,3.6.37.37,0,0,1,.12.13.3.3,0,0,1,.05.16.32.32,0,0,1,0,.17.28.28,0,0,1-.08.15.34.34,0,0,1-.12.12A.33.33,0,0,1,3482.74,2708.74Zm-6.87-8.06a.39.39,0,0,1-.26,0,.55.55,0,0,1-.19-.18,24.66,24.66,0,0,1-2-5,.47.47,0,0,1,0-.17.44.44,0,0,1,.06-.16.28.28,0,0,1,.11-.13.36.36,0,0,1,.15-.08.43.43,0,0,1,.33,0,.46.46,0,0,1,.21.26,23.57,23.57,0,0,0,1.95,4.84.42.42,0,0,1,0,.33.45.45,0,0,1-.21.26A.47.47,0,0,1,3475.87,2700.68Zm2.11-6a22.48,22.48,0,0,1-2.95.19.44.44,0,0,1,0-.88,19.21,19.21,0,0,0,2.83-.18,16.59,16.59,0,0,0,2.31-.47.47.47,0,0,1,.17,0,.52.52,0,0,1,.16.06.33.33,0,0,1,.13.11.41.41,0,0,1,.07.15.52.52,0,0,1,0,.17.49.49,0,0,1-.06.17.33.33,0,0,1-.11.13.35.35,0,0,1-.15.07,18.38,18.38,0,0,1-2.43.5Zm-8.17-.43h-.14c-1.53-.32-3.13-.76-5.18-1.4a.47.47,0,0,1-.2-.22.44.44,0,0,1,0-.3.41.41,0,0,1,.18-.23.4.4,0,0,1,.28-.07c2,.63,3.6,1,5.1,1.37a.38.38,0,0,1,.26.16.43.43,0,0,1,.1.29.5.5,0,0,1-.12.28.47.47,0,0,1-.27.14Zm15.33-2.32a.47.47,0,0,1-.23,0,.49.49,0,0,1-.18-.14.47.47,0,0,1-.08-.33.48.48,0,0,1,.17-.29,10.64,10.64,0,0,0,2-1.86,8.1,8.1,0,0,0,1.23-2,.47.47,0,0,1,.25-.23.42.42,0,0,1,.33,0,.43.43,0,0,1,.24.24.45.45,0,0,1,0,.34,9.79,9.79,0,0,1-1.36,2.23,12.23,12.23,0,0,1-2.13,2,.43.43,0,0,1-.22.09Zm-12-1.49h0a.33.33,0,0,1-.17,0,.42.42,0,0,1-.14-.09.45.45,0,0,1-.1-.14.47.47,0,0,1,0-.17,15.73,15.73,0,0,1,.8-5.4.39.39,0,0,1,.22-.25.42.42,0,0,1,.33,0,.45.45,0,0,1,.25.22.5.5,0,0,1,0,.34,15,15,0,0,0-.76,5.15.47.47,0,0,1-.12.28.4.4,0,0,1-.26.14Zm-13.48.75h-.2l-1.78-.56c-1.16-.35-2.24-.64-3.3-.88a.45.45,0,0,1-.27-.2.48.48,0,0,1-.06-.33.46.46,0,0,1,.07-.16.37.37,0,0,1,.13-.12.38.38,0,0,1,.16-.06.5.5,0,0,1,.17,0c1.07.25,2.17.55,3.35.9l1.8.56a.4.4,0,0,1,.23.17.43.43,0,0,1,.07.29.41.41,0,0,1-.11.26.43.43,0,0,1-.26.13Zm-25.35,1.72a.41.41,0,0,1-.22,0,.46.46,0,0,1-.18-.13.53.53,0,0,1-.08-.15.47.47,0,0,1,0-.17,1,1,0,0,1,.05-.16.47.47,0,0,1,.11-.13,17.44,17.44,0,0,1,4.66-2.81.47.47,0,0,1,.17,0,.51.51,0,0,1,.17,0,.71.71,0,0,1,.14.1.42.42,0,0,1,.09.14.45.45,0,0,1,0,.34.47.47,0,0,1-.24.24,16.63,16.63,0,0,0-4.43,2.66.47.47,0,0,1-.25.11Zm15-4h-.1a26.78,26.78,0,0,0-5.22,0,.45.45,0,0,1-.29-.1.46.46,0,0,1-.15-.27.52.52,0,0,1,.06-.3.45.45,0,0,1,.25-.18,25.65,25.65,0,0,1,5.4,0,.42.42,0,0,1,.3.15.46.46,0,0,1,.1.32.41.41,0,0,1-.13.25.37.37,0,0,1-.25.12Zm39.92-6.24a.45.45,0,0,1-.32-.07.46.46,0,0,1-.17-.28,5.77,5.77,0,0,0-2-3.5,6.36,6.36,0,0,0-.69-.46.48.48,0,0,1-.14-.25.47.47,0,0,1,0-.28.43.43,0,0,1,.21-.19.42.42,0,0,1,.27,0,7.54,7.54,0,0,1,.8.55,6.55,6.55,0,0,1,2.32,4,.46.46,0,0,1-.08.32.39.39,0,0,1-.28.18Zm-12.59-2a.47.47,0,0,1-.2,0,.45.45,0,0,1-.17-.11.34.34,0,0,1-.09-.14.47.47,0,0,1,0-.17.55.55,0,0,1,0-.17.42.42,0,0,1,.09-.14,11,11,0,0,1,4.69-2.82.47.47,0,0,1,.17,0,.39.39,0,0,1,.29.17.35.35,0,0,1,.07.15.47.47,0,0,1,0,.17.75.75,0,0,1,0,.16.37.37,0,0,1-.12.13.28.28,0,0,1-.15.08,9.93,9.93,0,0,0-4.32,2.59.46.46,0,0,1-.26.15Z" transform="translate(-3238.52 -2677.07)"/><path class="cls-1" d="M3509.88,2719a.41.41,0,0,1-.3-.08,9.57,9.57,0,0,0-2.22-1l-.16-.08a.36.36,0,0,1-.11-.14.34.34,0,0,1-.05-.17.37.37,0,0,1,0-.18.38.38,0,0,1,.09-.15.49.49,0,0,1,.14-.11.58.58,0,0,1,.18,0,.33.33,0,0,1,.17,0,10.15,10.15,0,0,1,2.43,1.13.49.49,0,0,1,.13.12.44.44,0,0,1,.06.16.48.48,0,0,1,0,.17.46.46,0,0,1-.07.16.44.44,0,0,1-.13.14A.36.36,0,0,1,3509.88,2719Z" transform="translate(-3238.52 -2677.07)"/></g><path class="cls-10" d="M3442.82,2802.74a6.3,6.3,0,0,0-8.93-.62,6.39,6.39,0,0,0-.65,9l29.64,34.37a6.29,6.29,0,0,0,8.92.62,6.37,6.37,0,0,0,.65-9Z" transform="translate(-3238.52 -2677.07)"/><path class="cls-10" d="M3397,2759.27a31.53,31.53,0,0,0-9.22,33.62,31.15,31.15,0,0,0,57.49,4,31.46,31.46,0,0,0-4.27-34.56,31.09,31.09,0,0,0-44-3.06Zm36.93,42.82a25.25,25.25,0,0,1-41.77-20.92,25.53,25.53,0,0,1,17.27-22.35,25.16,25.16,0,0,1,27.1,7.41,25.52,25.52,0,0,1-2.6,35.86Z" transform="translate(-3238.52 -2677.07)"/><path class="cls-11" d="M3698.9,3249.74h-61.28a3.65,3.65,0,0,1-3.65-3.66v-2.87a3.65,3.65,0,0,1,3.65-3.66h61.28a3.66,3.66,0,0,1,3.66,3.66v2.87A3.73,3.73,0,0,1,3698.9,3249.74Z" transform="translate(-3238.52 -2677.07)"/><path class="cls-12" d="M3677.67,3077.07h-18.88v162.48h18.88Z" transform="translate(-3238.52 -2677.07)"/><path class="cls-2" d="M3684.73,2800.66l16.46-1.57,3.33,32.4a40.56,40.56,0,0,1-9.47,1.83c-4.9.26-9.47,0-9.47,0Z" transform="translate(-3238.52 -2677.07)"/><path class="cls-2" d="M3622.34,2752.64c-5.42,11.24-17.38,59.91-17.38,59.91a2.42,2.42,0,0,0,1,2.87c3.14,2.16,10.52,9,24.89,13.59,7,2.23,24.11,5.1,32,4.51a4.17,4.17,0,0,0,2.48-1.37l8-111.59C3639.52,2718.87,3625.54,2746,3622.34,2752.64Z" transform="translate(-3238.52 -2677.07)"/><path class="cls-5" d="M3635.47,2815.43c-5.49,0-9.87-7.71-9.87-17.51s4.32-17.51,9.87-17.51,9.86,7.71,9.86,17.51S3641,2815.43,3635.47,2815.43Zm0-32.6c-4,0-7.45,6.92-7.45,15.15s3.4,15.16,7.45,15.16,7.45-6.93,7.45-15.16S3639.52,2782.83,3635.47,2782.83Z" transform="translate(-3238.52 -2677.07)"/><path class="cls-13" d="M3673.43,2818.82c28,0,50.76-21.44,50.76-47.88s-22.73-47.89-50.76-47.89-50.76,21.44-50.76,47.89S3645.39,2818.82,3673.43,2818.82Z" transform="translate(-3238.52 -2677.07)"/><path class="cls-14" d="M3695.84,2813.85c-.79-18.94-1.77-43-1.77-43.77,0,0-10.71-2.87-16.85-8.62A21.39,21.39,0,0,1,3673,2756a20.7,20.7,0,0,0,4.51,8.55c5.49,6.34,13.85,10.85,13.85,10.85-.06.65.66,21.95-.39,40.37A50.93,50.93,0,0,0,3695.84,2813.85Z" transform="translate(-3238.52 -2677.07)"/><path class="cls-15" d="M3809.19,3125.22c-27.11,0-49.06,1-49.2,2.15.14,1.18,22.09,2.16,49.2,2.16s49.06-1,49.19-2.16C3858.25,3126.13,3836.3,3125.22,3809.19,3125.22Zm1.11,3.72c-20.32,0-36.78-.72-36.78-1.63s16.46-1.63,36.78-1.63,36.78.72,36.78,1.63S3830.62,3128.94,3810.3,3128.94Z" transform="translate(-3238.52 -2677.07)"/><path class="cls-15" d="M3809.19,3125.22c-27.18,0-49.2,1-49.2,2.15s22,2.16,49.2,2.16,49.19-1,49.19-2.16S3836.37,3125.22,3809.19,3125.22Zm1.11,3.72c-20.32,0-36.78-.72-36.78-1.63s16.46-1.63,36.78-1.63,36.78.72,36.78,1.63S3830.62,3128.94,3810.3,3128.94Z" transform="translate(-3238.52 -2677.07)"/><path class="cls-16" d="M3810.3,3128.94c20.31,0,36.78-.73,36.78-1.63s-16.47-1.63-36.78-1.63-36.78.73-36.78,1.63S3790,3128.94,3810.3,3128.94Z" transform="translate(-3238.52 -2677.07)"/><path class="cls-17" d="M3837.34,2940a337.41,337.41,0,0,0-22.28,78,347.66,347.66,0,0,0-3.33,81.08,338.58,338.58,0,0,0,6.6,45.07c.59,2.68,4.71,1.57,4.12-1.11a337.63,337.63,0,0,1,4.24-159.14,330.67,330.67,0,0,1,14.77-42.79,2.11,2.11,0,0,0-1.51-2.62A2.19,2.19,0,0,0,3837.34,2940Z" transform="translate(-3238.52 -2677.07)"/><path class="cls-17" d="M3838.72,3053a205.16,205.16,0,0,0-18.82,93.42c.13,2.75,4.38,2.75,4.25,0a201.12,201.12,0,0,1,10.52-72,188.91,188.91,0,0,1,7.71-19.28C3843.55,3052.7,3839.9,3050.55,3838.72,3053Z" transform="translate(-3238.52 -2677.07)"/><path class="cls-17" d="M3785.14,2945.63a534.67,534.67,0,0,1,15,70.75c3.52,23.85,5.81,47.89,7.64,71.86,1.05,13.59,2,27.25,2.81,40.9.2,2.75,4.44,2.75,4.25,0-1.57-24.24-3.2-48.54-5.56-72.71s-5.55-48.22-10.32-72c-2.68-13.45-5.88-26.78-9.73-40C3788.47,2941.84,3784.42,2943,3785.14,2945.63Z" transform="translate(-3238.52 -2677.07)"/><path class="cls-17" d="M3760.25,3015.27c5.82,5.94,9.41,13.52,12.54,21.1a267.88,267.88,0,0,1,9.15,25.61,288.6,288.6,0,0,1,12.68,82.84c0,2.74,4.24,2.74,4.24,0a297,297,0,0,0-5.55-54.88,287.17,287.17,0,0,0-15.75-52.85c-3.59-8.89-7.51-17.84-14.37-24.76C3761.3,3010.3,3758.29,3013.31,3760.25,3015.27Z" transform="translate(-3238.52 -2677.07)"/><path class="cls-17" d="M3789.59,3099.67a26.54,26.54,0,0,0-10.33-7.77c-3.26-1.31-5.88-1.31-6.66-.46s-.59,3.4.52,6.53a35.59,35.59,0,0,0,5.82,10.33,33.07,33.07,0,0,0,9.08,7.7c2.87,1.7,5.36,2.42,6.07,2,.92-.58,1.44-3.13.85-6.59A25.19,25.19,0,0,0,3789.59,3099.67Z" transform="translate(-3238.52 -2677.07)"/><path class="cls-18" d="M3803.05,3070.86c2.61-12.8.2-24-2.22-24.43s-8.63,9.08-11.18,21.69.07,23.91,1.77,24.3C3793.58,3093,3800.43,3083.67,3803.05,3070.86Z" transform="translate(-3238.52 -2677.07)"/><path class="cls-17" d="M3791.52,3092.31c2.65-2.7-3.71-13.25-14.21-23.57s-21.17-16.49-23.83-13.79,3.71,13.26,14.21,23.58S3788.86,3095,3791.52,3092.31Z" transform="translate(-3238.52 -2677.07)"/><path class="cls-19" d="M3811,3107.58a87.82,87.82,0,0,0,2.15-15.22,70.69,70.69,0,0,0-.32-12.54c-.85-7.19-2.55-11.5-3.73-11.5s-2.94,4.18-4.9,10.78c-1,3.26-2.09,7.18-3.13,11.43s-2.29,8.95-3.4,13.92-2.16,9.66-3,14-1.57,8.36-2.15,11.75c-1.11,6.8-1.37,11.37-.59,11.77,1,.45,4.44-2.68,8.36-8.69a78.39,78.39,0,0,0,5.88-11.11A84.93,84.93,0,0,0,3811,3107.58Z" transform="translate(-3238.52 -2677.07)"/><path class="cls-19" d="M3838.85,3112.93a108.28,108.28,0,0,0,8.75-19.46c1.77-5.36,2.22-9.09,1.18-9.81s-4.31,1.25-8.49,5.1a75.16,75.16,0,0,0-13.4,17.31,72,72,0,0,0-7.77,20.52,35,35,0,0,0-.85,6.86,4.1,4.1,0,0,0,.19,2.09,1.54,1.54,0,0,0,.33.52,1.5,1.5,0,0,0,.66.46,1.12,1.12,0,0,0,1-.13c.4-.26.66-.72.53-1s-.33-.2-.39-.2-.14.07-.2.14.06,0,0,0a.19.19,0,0,1-.13-.07.88.88,0,0,1-.13-.19v.32l.26-.2h.06a2.56,2.56,0,0,1,.92.07h.26a.24.24,0,0,0,.2-.07,32.91,32.91,0,0,0,4.83-4.83A102.75,102.75,0,0,0,3838.85,3112.93Z" transform="translate(-3238.52 -2677.07)"/><path class="cls-17" d="M3828,3080.53a89.8,89.8,0,0,0-5.62-22.74c-2.28-5.61-4.51-9-5.75-8.82s-2.28,4.05-2.87,10.06a117.11,117.11,0,0,0,.52,23,120.48,120.48,0,0,0,2.09,12.35c.85,3.79,1.76,7,2.42,9.8s1.24,5,1.7,6.66.78,2.75,1.24,2.81,1.5-.52,2.55-2.09a24.57,24.57,0,0,0,2.94-7.25,54.56,54.56,0,0,0,1.3-10.91A88.72,88.72,0,0,0,3828,3080.53Z" transform="translate(-3238.52 -2677.07)"/><path class="cls-18" d="M3771.49,3036.69a55.75,55.75,0,0,0-15.61-10.64c-4.57-2-7.9-2.49-8.69-1.51s.46,4.05,3.07,8.1a82.07,82.07,0,0,0,11.7,13.92,77.33,77.33,0,0,0,14.63,10.91c4.25,2.42,7.45,3.46,8.1,2.87.85-.72.2-4.05-2-8.55A52.76,52.76,0,0,0,3771.49,3036.69Z" transform="translate(-3238.52 -2677.07)"/><path class="cls-17" d="M3763.59,3002c-6.27-11.17-15.49-17.64-17.58-16.34s-.46,12.22,5.62,23.07,15.16,17.57,16.79,16.79C3770.38,3024.48,3769.86,3013.18,3763.59,3002Z" transform="translate(-3238.52 -2677.07)"/><path class="cls-19" d="M3786.91,3023.37a48.85,48.85,0,0,0-6.53-18.49c-2.75-4.38-5.42-6.6-6.53-6.14s-1.7,3.72-1.77,8.56a120.46,120.46,0,0,0,1.24,18,115.51,115.51,0,0,0,4,17.64c1.5,4.63,3,7.71,3.85,7.71,1.11.06,3-2.81,4.51-7.71A46.55,46.55,0,0,0,3786.91,3023.37Z" transform="translate(-3238.52 -2677.07)"/><path class="cls-18" d="M3856.88,3065.31a94.7,94.7,0,0,0,15.16-12.74c3.59-3.79,5.55-6.79,4.9-7.9s-4.18-1-9.35.45a64.75,64.75,0,0,0-18.48,8.83,62.78,62.78,0,0,0-14.77,14.24c-3.14,4.37-4.44,7.71-3.92,8.42.72.85,4.25.13,9.08-1.83A88.43,88.43,0,0,0,3856.88,3065.31Z" transform="translate(-3238.52 -2677.07)"/><path class="cls-17" d="M3860.67,3031.93a90.84,90.84,0,0,0,7.84-24.89c1-6.73.58-11.11-.53-11.5s-4,2.94-7.57,8.43a202.1,202.1,0,0,0-12.09,22,179,179,0,0,0-9.28,23.39c-2,6.27-2.74,10.59-2,11.11s4.58-1.9,9.21-6.86A91.65,91.65,0,0,0,3860.67,3031.93Z" transform="translate(-3238.52 -2677.07)"/><path class="cls-18" d="M3848.64,3034c3-16.18,2.31-29.86-1.41-30.54s-9.14,11.9-12.09,28.09-2.31,29.85,1.41,30.53S3845.69,3050.17,3848.64,3034Z" transform="translate(-3238.52 -2677.07)"/><path class="cls-18" d="M3852.83,2925a127.29,127.29,0,0,0,7.84-21.17c1.5-5.74,1.76-9.67.72-10.32s-4.32,1.7-8.37,6.21a82.18,82.18,0,0,0-12.6,19.4,79,79,0,0,0-6.73,22.15c-.85,6-.53,10,.32,10.32,1,.39,3.92-2.35,7.45-7.12A124.62,124.62,0,0,0,3852.83,2925Z" transform="translate(-3238.52 -2677.07)"/><path class="cls-17" d="M3842.31,2925a116.67,116.67,0,0,0-.46-21.36c-.72-5.56-1.89-9.22-3.07-9.41s-3.4,2.94-5.49,8.29a74.72,74.72,0,0,0-4.63,21.5,70.82,70.82,0,0,0,2,21.95c1.44,5.55,3.27,9,4.19,9,1.11,0,2.74-3.46,4.18-8.88A111.64,111.64,0,0,0,3842.31,2925Z" transform="translate(-3238.52 -2677.07)"/><path class="cls-18" d="M3852.18,2964.24a80,80,0,0,0,6.14-11.95,68.22,68.22,0,0,0,3.26-10.58c1.31-6.21,1-10.33-.13-10.78s-4,2.41-7.77,7.18c-1.83,2.35-4,5.23-6.21,8.43s-4.57,6.66-6.92,10.45-4.51,7.39-6.4,10.78-3.53,6.54-4.84,9.28c-2.61,5.49-4,9.34-3.27,9.93s4.64-.78,9.74-4.57A59,59,0,0,0,3844,2975,71.66,71.66,0,0,0,3852.18,2964.24Z" transform="translate(-3238.52 -2677.07)"/><path class="cls-17" d="M3821.4,2959c-.78-4.11-1.56-8-2.35-11.43-.33-1.76-.78-3.4-1.11-5-.2-.79-.39-1.51-.52-2.29s-.33-1.44-.46-2.09c-1.24-5.36-2.22-9.08-3.53-9.28-1.11-.2-3.52,3-5.16,9.08-.19.72-.39,1.57-.59,2.35s-.26,1.7-.39,2.55a54.38,54.38,0,0,0-.46,5.69,68,68,0,0,0,1.05,12.8,81,81,0,0,0,7.45,21.36c2.68,5.16,5,8.3,5.81,8.17,1.11-.2,2.16-4,2.35-9.93A101.51,101.51,0,0,0,3821.4,2959Z" transform="translate(-3238.52 -2677.07)"/><path class="cls-19" d="M3841.07,3003.44a67,67,0,0,0,9.67-18.81c1.63-5.29,1.83-9,.72-9.61s-4.12,1.37-8.1,5a108.21,108.21,0,0,0-13.46,15.36,95.18,95.18,0,0,0-10.26,17.7c-2.22,5-3.07,8.49-2.42,9.08.85.72,4.32-.59,8.82-3.72A65,65,0,0,0,3841.07,3003.44Z" transform="translate(-3238.52 -2677.07)"/><path class="cls-17" d="M3788,2932.82A69.68,69.68,0,0,0,3775,2914.2c-4.12-4.18-7.38-6.21-8.43-5.62s-.65,4.44,1,10a141.62,141.62,0,0,0,8,20.05c1.77,3.73,3.53,7.12,5.16,10.26.79,1.57,1.64,3.07,2.42,4.44s1.5,2.75,2.15,3.92c2.75,4.84,4.77,8,5.69,7.91s2.42-3.86,2.42-9.93a32.61,32.61,0,0,0-.33-4.9,47.63,47.63,0,0,0-1-5.56A54.79,54.79,0,0,0,3788,2932.82Z" transform="translate(-3238.52 -2677.07)"/><path class="cls-17" d="M3787.63,2962.55c-9.61-12.09-21.17-18.56-23-16.92s2.94,13.72,12.28,25.48,20.58,18.68,22,17.64C3800.76,2987.5,3797.23,2974.63,3787.63,2962.55Z" transform="translate(-3238.52 -2677.07)"/><path class="cls-18" d="M3792.85,2989.66a48.21,48.21,0,0,0-11.17-8.76c-3.4-1.89-6.07-2.61-7.06-1.89s-.91,3.59.4,7.38a35.47,35.47,0,0,0,20.51,21c3.79,1.37,6.66,1.5,7.25.85.72-.85.07-3.6-1.63-7.06A46.17,46.17,0,0,0,3792.85,2989.66Z" transform="translate(-3238.52 -2677.07)"/><path class="cls-18" d="M3800.3,3026.05a184,184,0,0,0-12.8-20.25c-3.73-5-6.67-8-7.65-7.65s-.78,4.25.72,10.19a96.75,96.75,0,0,0,9,22.28,99.76,99.76,0,0,0,14.44,19.93c4.44,4.7,7.9,7.25,8.55,6.92.86-.45,0-4.24-2.15-10A174.19,174.19,0,0,0,3800.3,3026.05Z" transform="translate(-3238.52 -2677.07)"/><path class="cls-17" d="M3821,3037.22a35.75,35.75,0,0,0-3.14-15.22c-1.76-3.73-3.86-5.82-5.1-5.62s-2.48,2.74-3.53,6.46a56.55,56.55,0,0,0-1.95,14.12,54.83,54.83,0,0,0,1.69,14.17c1,3.79,2.22,6.4,3.14,6.54,1.11.19,3.2-1.77,5.16-5.43A33,33,0,0,0,3821,3037.22Z" transform="translate(-3238.52 -2677.07)"/><path class="cls-18" d="M3826.3,3058.91a39.43,39.43,0,0,0,3.6-16.92c-.2-4.58-1.38-7.45-2.55-7.71s-3.33,1.89-5.82,5.36a84.37,84.37,0,0,0-7.71,13.58,75.69,75.69,0,0,0-5,14.83c-1,4.19-1.17,7.26-.45,7.78s3.85-.33,7.44-3.2A38.64,38.64,0,0,0,3826.3,3058.91Z" transform="translate(-3238.52 -2677.07)"/><path class="cls-18" d="M3808.47,2952.87a94.23,94.23,0,0,0-2.55-25.08c-1.57-6.4-3.53-10.19-4.77-10.13s-2.68,4.05-3.92,10.39a153.75,153.75,0,0,0-2.55,24.5,150,150,0,0,0,1.37,24.63c1,6.4,2.23,10.45,3.14,10.58,1.11.13,3.27-3.59,5.23-9.86A92.73,92.73,0,0,0,3808.47,2952.87Z" transform="translate(-3238.52 -2677.07)"/><path class="cls-20" d="M3858.38,3127.38c-.13,1.17-22.08,2.15-49.19,2.15s-49.07-1-49.2-2.15v.45l8.3,87.74,1.37,14.7c.07,2.61,17.71,4.71,39.46,4.71s39.46-2.1,39.46-4.71l.26-3.07V3227l.66-6.8,8.75-92.38A.61.61,0,0,0,3858.38,3127.38Z" transform="translate(-3238.52 -2677.07)"/><path class="cls-21" d="M3852.24,3192.58l.39-3.92a1,1,0,0,1-.46.13l-44.23,16.46c-8.49,3.14-17,6.34-25.41,9.47a1.78,1.78,0,0,0-.78,2.94c7.84,7.91,19.6,8.17,29.79,10.91a32.29,32.29,0,0,1,9.14,3.79h5.62c-6.53-6.33-16.46-7.84-25.35-9.73-5.09-1.11-10.32-2.48-14.5-5.62,14.7-5.49,29.33-10.91,44-16.4Q3841.37,3196.7,3852.24,3192.58Z" transform="translate(-3238.52 -2677.07)"/><path class="cls-21" d="M3813.82,3157.62c14.24-4,28.55-7.9,42.79-11.82l.66-7.06q-45.57,1-91.14,4.12c-1.57.13-3.14.2-4.7.33l.32,3.53c26.27-1.83,52.59-3.21,78.86-4l15.15-.39c-13.26,3.66-26.52,7.25-39.78,11-16.66,4.64-33.26,9.61-48.93,16.92l-2.94,1.38.39,3.78c.78-.39,1.63-.78,2.42-1.17C3781.94,3167,3797.88,3162.07,3813.82,3157.62Z" transform="translate(-3238.52 -2677.07)"/><path class="cls-21" d="M3777.37,3188c16.72-.26,33.19-3.79,49.46-7.38,9-2,18-4,27-5.62l.33-3.59c-22.15,3.92-44,10.51-66.38,12.54a129.71,129.71,0,0,1-22.47.13l.33,3.59C3769.6,3187.93,3773.45,3188.06,3777.37,3188Z" transform="translate(-3238.52 -2677.07)"/><path class="cls-15" d="M3847.15,3127.31c0,.92-16.47,1.64-36.79,1.64s-36.78-.72-36.78-1.64h-13.45v.07c.13,1.17,22.08,2.15,49.19,2.15s49.06-1,49.19-2.15v-.07Z" transform="translate(-3238.52 -2677.07)"/><path class="cls-22" d="M3611,2884.61c-5.3,19.54-10.46,39.46-19.54,57.62-2.42,4.84-6.79,17.12-13.65,16.66a19,19,0,0,1-15.36-10.65c-2.87-5.75-11-7.38-16.33-4.31-5.88,3.46-7.19,10.59-4.31,16.33,5.36,10.78,15.81,18.17,27.31,21.17,15.35,4,27.5-2.29,36.06-15,15-22.35,21.89-49.85,28.88-75.46C3638.15,2876.05,3615.09,2869.72,3611,2884.61Z" transform="translate(-3238.52 -2677.07)"/><path class="cls-14" d="M3615.67,3150.51c1.57,9.27,3.53,18.49,5.82,27.63,4.11,16.14,30.44,9.28,26.33-6.86-2.36-9.14-4.25-18.36-5.82-27.63-1.17-6.86-10.26-10.72-16.79-9C3617.44,3136.66,3614.5,3143.58,3615.67,3150.51Z" transform="translate(-3238.52 -2677.07)"/><path class="cls-14" d="M3708.9,2960.85s7.84,19.47,7.84,21.23-36.26,6.86-51.09,6c-11.43-.65-37.44-4.77-35.93-7.25S3639,2959,3639,2959s19,4.77,34.24,4.32S3708.9,2960.85,3708.9,2960.85Z" transform="translate(-3238.52 -2677.07)"/><path class="cls-2" d="M3629.66,2980.84s10.51,3.46,16.59,4.31c25.93,3.73,42.73,1.57,42.73,1.57s-77,42.14-79.51,47.63,21.75,24.5,28.87,45.86c6.34,19,10.59,66.31,11.44,76.5a2.88,2.88,0,0,1-1.7,2.88,66.15,66.15,0,0,1-15.49,4.63c-11.49,2.1-18.94,4.19-19.14,1.57s-42.92-81.86-44.49-84.47-26.06-40.83-27.11-50.57C3538.78,3001.49,3629.66,2980.84,3629.66,2980.84Z" transform="translate(-3238.52 -2677.07)"/><path class="cls-23" d="M3656.44,2840s-20.77,4.18-30,11.89c-8.23,6.93-23.25,36.19-26.39,42.47a1.87,1.87,0,0,0,.33,2.15c2,2,7,6.66,11.56,9,5.88,3.07,17.64,5.42,17.64,5.42l2.68-17.77s-6.47,11.76-2.16,24.43a107.35,107.35,0,0,1,4.77,22.09c.2,2.74-.39,18.29-.39,18.29a204.24,204.24,0,0,0,32.86,5.29c17,1.17,45.93-4.31,45.93-4.31s-1.44-36.07-.52-42.6a49.54,49.54,0,0,0-2-22.6l5,19.86s17.12,2.15,20.38.46,8.56-6.28,10.91-8.3a2.52,2.52,0,0,0,.79-2.48c-1.64-6.67-9.08-34.11-21.43-47.76-6.34-7-29.59-14.24-35-14.24S3656.44,2840,3656.44,2840Z" transform="translate(-3238.52 -2677.07)"/><path class="cls-2" d="M3708.64,2724.15c10.9,0,19.73-8.3,19.73-18.55s-8.83-18.55-19.73-18.55-19.73,8.3-19.73,18.55S3697.74,2724.15,3708.64,2724.15Z" transform="translate(-3238.52 -2677.07)"/><path class="cls-2" d="M3621.42,3179.84s9.87,1.82,14.25.39c6.72-2.22,13.32-7.38,13.32-7.38s8.36,9,10.65,11.1,5.23,3.59,7.52,7.64,2.48,15.36-13.14,25.94c-5.62,3.86-12.67,28.55-26.52,33.45-9.28,3.27-16.66,4.31-22.93,1.44s-8-9.93,4.83-19.47,9.93-20.64,11.3-27.64S3621.42,3179.84,3621.42,3179.84Z" transform="translate(-3238.52 -2677.07)"/><path class="cls-13" d="M3516.63,3171.8c-1.3,10.32-2.67,20.65-4,31-.92,6.92,6.92,12.87,13.65,12.87,8.1,0,12.74-5.95,13.66-12.87,1.3-10.32,2.68-20.65,4-31,.92-6.92-6.92-12.87-13.65-12.87C3522.19,3158.93,3517.55,3164.88,3516.63,3171.8Z" transform="translate(-3238.52 -2677.07)"/><path class="cls-13" d="M3577.33,2937.92c7.84,1.57,13.85,6.66,19.53,12.08,4,3.86,9.67-2.54,5.62-6.46-6.8-6.47-14.24-12.28-23.52-14.11C3573.54,2928.32,3571.84,2936.81,3577.33,2937.92Z" transform="translate(-3238.52 -2677.07)"/><path class="cls-13" d="M3688.26,2813.4l-31.82-.2s2.35,30.32,2.35,30.51c0,5.36,7.13,9.67,15.95,9.67s15.94-4.31,15.94-9.67C3690.61,2843.58,3688.26,2813.4,3688.26,2813.4Z" transform="translate(-3238.52 -2677.07)"/><path class="cls-14" d="M3673.43,2818.76a54.37,54.37,0,0,1-16.79-2.68l.39,6.07c3.59,1.7,9.28,2.94,15,3.33,5,.33,12.16.53,17-.91l-.52-7.9A55.16,55.16,0,0,1,3673.43,2818.76Z" transform="translate(-3238.52 -2677.07)"/><path class="cls-2" d="M3717.2,2982s13.92,15.29,16.4,26,4.11,27,.52,36.46-14.9,23.19-35.48,24.43c-34,2-104.78-10.32-107.92-10.32s-1.9,20.71-12.54,49.65c-9.54,25.74-26.53,68.53-30.12,77.48a2.77,2.77,0,0,1-2.48,1.77,108.91,108.91,0,0,1-21.5-1.05,34.1,34.1,0,0,1-13.39-5.22,3.79,3.79,0,0,1-1.63-3.53c1.11-9.93,5.88-51.22,8.82-68.14,3.13-17.84,5.42-86.57,16.79-100.48,9.93-12.15,13.52-13.46,24.69-17,10.06-3.13,117.53-4.11,117.53-4.11Z" transform="translate(-3238.52 -2677.07)"/><path class="cls-2" d="M3510.1,3207.73c-3.27,6.08-9.73,14.51-15,18-12.47,8.37-28.35,19.67-30.7,22s-7.71,12.48.46,17.9c5.88,3.86,22.86,5.36,44.29-5.23,16.14-8,24.17-9.66,30.05-11.89,9.8-3.59,7.58-14.3,5.56-19.53-1.57-4.11-2-4.9-3.14-15.55-.26-2.28-1.18-11.56-1.18-11.56a44,44,0,0,1-17.37,1.7,17.25,17.25,0,0,1-10.39-5.29S3511.28,3205.58,3510.1,3207.73Z" transform="translate(-3238.52 -2677.07)"/><path class="cls-24" d="M3728.5,3081.25H3608a3.65,3.65,0,0,1-3.65-3.66v-12A3.65,3.65,0,0,1,3608,3062H3728.5a3.65,3.65,0,0,1,3.66,3.66v12A3.65,3.65,0,0,1,3728.5,3081.25Z" transform="translate(-3238.52 -2677.07)"/><path class="cls-25" d="M3485,2891.79l64.42,6.41a5.91,5.91,0,0,1,4,2.28l68.59,85.13c.79,1,.13,2.61-.91,2.48l-67.42-7.45a4.61,4.61,0,0,1-3.2-1.89l-66.12-85.13C3483.77,2892.9,3484.23,2891.66,3485,2891.79Z" transform="translate(-3238.52 -2677.07)"/><path class="cls-13" d="M3720.2,2908.71l.78,3.73c.07.52.59,3.33.4,2.22s.26,2.09.32,2.81c.14,1.31.2,2.61.27,3.92.06,2.41,0,4.83-.13,7.31-.07.72-.14,1.51-.2,2.23,0-.2.26-1.83.06-.4s-.52,2.94-.91,4.38c-.26,1.11-.65,2.16-1,3.2-.72,2.42.2.07-.65,1.77-.53,1-1,2-1.57,2.94-.33.52-2.55,3.72-1.37,2.22-3.66,4.57-6.41,6.59-12,9.14-22.09,10.13-51.22,2.09-74.09-3.33-10.13-2.42-20.25-5-30.18-8.17-14.7-4.63-21,18.43-6.34,23.07,24.7,7.84,50.7,13.91,76.5,16.26,29.6,2.68,62.39-7,72.85-37.63,4.57-13.45,3.52-28.35.52-42C3740,2887.29,3716.93,2893.69,3720.2,2908.71Z" transform="translate(-3238.52 -2677.07)"/><path class="cls-23" d="M3712.89,2901.4c2.15-1.44,26.06-18.49,26.06-18.49l8.49,22.34s-2.41,4.25-12,9.08a36.21,36.21,0,0,1-18.75,3.73Z" transform="translate(-3238.52 -2677.07)"/><path class="cls-23" d="M3698.25,2987.7c.65,6,1.24,12.09,1.9,18.1.58,5.42,1.37,10.91,1.57,16.4.12,4.57-.46,9.47-3.86,12.87-3,3-7.32,4-11.43,4.37a122.23,122.23,0,0,1-14.7-.19l-17.84-.79c-12-.52-24-1-36-1.5-5.82-.26-11.63-.52-17.45-.72a103.12,103.12,0,0,0-14.17.2c-9.15.91-18.1,3.92-23.92,11.43-6,7.78-7.77,17.77-9.79,27.11-2.55,11.83-5.1,23.59-7.65,35.41s-5.1,23.59-7.64,35.41c-2.16,9.87-4.12,19.86-6.67,29.6-.39,1.5-.78,3.07-1.24,4.57-.65,2.22,2.75,3.14,3.4.91,2.48-8.42,4.25-17,6.08-25.54,2.54-11.82,5.09-23.58,7.64-35.41s5.16-23.78,7.71-35.67c1.17-5.49,2.28-11,3.59-16.4a56.56,56.56,0,0,1,4.7-13.65,24.12,24.12,0,0,1,9.22-9.93,33.14,33.14,0,0,1,12.87-4.12c10.19-1.37,20.84-.19,31.09.26,12,.53,24,1,36,1.51l18.16.78c5,.2,10.19.65,15.23.39,4.24-.19,8.68-.91,12.41-3.2a15.82,15.82,0,0,0,7.31-10.52c1-4.9.46-9.93-.06-14.83-.65-6-1.24-12.08-1.89-18.09-.33-2.94-.59-5.82-.92-8.76C3701.52,2985.48,3698,2985.41,3698.25,2987.7Z" transform="translate(-3238.52 -2677.07)"/><path class="cls-26" d="M3334.17,3265a6.38,6.38,0,0,1-3.92-8L3409,2998.81a6.36,6.36,0,0,1,8.1-4l8.23,2.94a6.32,6.32,0,0,1,3.79,8.17l-86.89,255.38A6.39,6.39,0,0,1,3334.17,3265Z" transform="translate(-3238.52 -2677.07)"/><path class="cls-26" d="M3742.62,3265a6.4,6.4,0,0,0,3.92-8l-78.73-258.25a6.34,6.34,0,0,0-8.1-4l-8.23,2.94a6.32,6.32,0,0,0-3.79,8.17l86.95,255.31A6.2,6.2,0,0,0,3742.62,3265Z" transform="translate(-3238.52 -2677.07)"/><path class="cls-27" d="M3755.55,3007.69H3321.3a6.41,6.41,0,0,1-6.41-6.4v-14.05a6.42,6.42,0,0,1,6.41-6.4h434.25a6.42,6.42,0,0,1,6.4,6.4v14.05A6.45,6.45,0,0,1,3755.55,3007.69Z" transform="translate(-3238.52 -2677.07)"/><path class="cls-2" d="M3373,3231.38c-39.92-5-57.82,20.71-57.88,20.78s1.89,1.37,1.89-4l-.91-8.1s-3.4,1-4.71,1.57c-4.05,1.7-7.7,6.46-8.82,6.4s-4.83-3.46-10.77-5.1-12.94-.06-13.6-.52-.39-2.48-1.3-5.16a28.61,28.61,0,0,0-4-6.73c-.13.13-9.08,17.25-11,20.71s-5.1,8.82-5.56,20.32c-.65,15.36,9.67,9.14,9.67,9.14l-7.18-6.66h-13.33c-3.85,0-7,3.79-7,8.37s3.14,8.36,7,8.36h174l.14-14.38C3419.62,3276.27,3420.53,3237.33,3373,3231.38Z" transform="translate(-3238.52 -2677.07)"/><path class="cls-2" d="M3411.12,3297.31H3266a8.37,8.37,0,0,1,0-16.73h145.1a8.37,8.37,0,0,1,0,16.73Z" transform="translate(-3238.52 -2677.07)"/><path class="cls-23" d="M3387.41,3252.09c-8.89-1.63-18.29-1-26.2,3.66a30,30,0,0,0-12.54,14.57,20,20,0,0,0-1.5,6.73c-5.36-.32-11.11-.32-16.08,1.76a10.23,10.23,0,0,0-5.88,5.62,10.53,10.53,0,0,0,.13,8,7.53,7.53,0,0,0,7,4.71,1,1,0,0,0,0-2c-5.1-.06-6.86-5.94-5.23-10,2-5,8.56-5.88,13.2-6.14a66.29,66.29,0,0,1,8,.13,1,1,0,0,0,1-1c-.26-4.7,2.09-9.67,5-13.46a29,29,0,0,1,17.12-10.71,39.79,39.79,0,0,1,15.68.06C3388.13,3254.19,3388.65,3252.29,3387.41,3252.09Z" transform="translate(-3238.52 -2677.07)"/><path class="cls-2" d="M3401.39,3295.22c6.53,1.49,13.39,1.77,20,3,3.86.71,12,2.54,4.9,5.74-8.89,4.05-21,1.31-30.38,1.85-10.39.63-21.75,3.31-28.68,11.68s-4.38,26.85,9.6,25.28c8.37-1,12-9.47,6.67-16.07-.26-.31-.52-.65-.78-1,.84,1.49,1.69,2.94,2.61,4.43-.59-1.63-1.57.46.26-.38,2.16-1.05,4-2.42,6.27-3.22,4.84-1.62,9.93-2.08,14.9-2.6,10.32-1,23.45-.85,31.68-8.16s9.41-20.26-.13-27.06c-9.15-6.45-26.78-5.74-37-2.42C3397.34,3287.77,3396.82,3294.11,3401.39,3295.22Z" transform="translate(-3238.52 -2677.07)"/><path class="cls-28" d="M3267.92,3260.13a6.18,6.18,0,0,0,4.7,4.7,7,7,0,0,0,6.67-2c.65-.79-.46-1.9-1.11-1.11a5.35,5.35,0,0,1-5.1,1.63,4.6,4.6,0,0,1-3.59-3.59A.81.81,0,0,0,3267.92,3260.13Z" transform="translate(-3238.52 -2677.07)"/><path class="cls-28" d="M3290.19,3265.42c0,2.35,2.22,4.12,4.38,4.51a9,9,0,0,0,7.12-2.35c.79-.66-.33-1.77-1.11-1.11a7.18,7.18,0,0,1-5.49,2c-1.5-.2-3.33-1.31-3.33-3A.79.79,0,0,0,3290.19,3265.42Z" transform="translate(-3238.52 -2677.07)"/><path class="cls-28" d="M3283,3275.61a10.21,10.21,0,0,0-5.17-2.22.89.89,0,0,0-.84.46,1,1,0,0,0,0,1,.58.58,0,0,1,.13.26c-.07-.26,0,.07.06.13a2.64,2.64,0,0,1,.13.46c0,.07.07.13.07.26v.07a1.33,1.33,0,0,0,.06.45c.07.72.07,1.38.13,2.09v.26a1,1,0,0,0,1.05.59h.06a1.54,1.54,0,0,0,.46-.26l.13-.13a1.54,1.54,0,0,1,.46-.26c.06-.06.19-.06.26-.13s.07-.07.13-.07a4.22,4.22,0,0,0,.52-.19,6.78,6.78,0,0,0,2.22-1.24A1.07,1.07,0,0,0,3283,3275.61Zm-2.81,2.88h0C3280.33,3278.42,3280.2,3278.49,3280.14,3278.49Z" transform="translate(-3238.52 -2677.07)"/><path class="cls-29" d="M3634.62,2884.67s-3.92,11.37-4.83,15.42a58.73,58.73,0,0,0-1.05,10.71l-3.85-.84a71.05,71.05,0,0,1,3.46-12.55C3629.66,2894.08,3634.62,2884.67,3634.62,2884.67Z" transform="translate(-3238.52 -2677.07)"/><path class="cls-29" d="M3710.73,2891.92s1.5,11,1.77,13.4a110.14,110.14,0,0,1,.39,12.41l3.85.26a104.26,104.26,0,0,0-2.61-15.42C3713.34,2899.63,3710.73,2891.92,3710.73,2891.92Z" transform="translate(-3238.52 -2677.07)"/><path class="cls-5" d="M3699.23,2821.37c-5.48,0-9.86-7.71-9.86-17.51s4.31-17.51,9.86-17.51,9.87,7.71,9.87,17.51S3704.79,2821.37,3699.23,2821.37Zm0-32.6c-4.05,0-7.44,6.92-7.44,15.15s3.39,15.16,7.44,15.16,7.45-6.92,7.45-15.16S3703.28,2788.77,3699.23,2788.77Z" transform="translate(-3238.52 -2677.07)"/><path class="cls-2" d="M3742,2825c4.31-2,4-4.11,2.94-7.84l-21.23-59.78c-6.34-21.16-27-36.71-51.49-36.71-15.94,0-25.08,6.73-25.08,6.73s10.32,2.48,17.9,9.6,3.07,15.88,12.22,24.5c6.14,5.75,16.85,8.62,16.85,8.62,0,.85,1.7,41.55,2.42,58.8.26,6.08,3.72,5.49,15.87,3.79C3728.5,2830.38,3734.84,2828.29,3742,2825Z" transform="translate(-3238.52 -2677.07)"/><path class="cls-29" d="M3665.78,2755.45a16.29,16.29,0,0,0-14.44,8.75,16,16,0,0,0-7.38-1.76,16.85,16.85,0,0,0-2.55.2,16.25,16.25,0,1,0,.72,4.7,12.8,12.8,0,0,0-.19-2.22,13.92,13.92,0,0,1,8.42,1.44,15.32,15.32,0,0,0-.91,5.22,16.33,16.33,0,1,0,16.33-16.33Zm-40,25.68a13.79,13.79,0,1,1,13.78-13.79A13.8,13.8,0,0,1,3625.8,2781.13Zm40,4.44a13.79,13.79,0,1,1,13.79-13.79A13.79,13.79,0,0,1,3665.78,2785.57Z" transform="translate(-3238.52 -2677.07)"/><path class="cls-13" d="M3585.17,2965.36l-13-1.31c-8.16-.85-14.5-6.92-14-13.59l.2-2.28c.52-6.6,7.64-11.37,15.81-10.52l13,1.3c8.17.85,14.5,6.93,14,13.59l-.2,2.29C3600.45,2961.51,3593.33,2966.21,3585.17,2965.36Z" transform="translate(-3238.52 -2677.07)"/><path class="cls-2" d="M3445,2980.84h-10.91a14,14,0,0,1-13.91-13.2l-1.77-32.07a2.14,2.14,0,0,1,2.09-2.22h38a2.14,2.14,0,0,1,2.1,2.22l-1.77,32.07A13.86,13.86,0,0,1,3445,2980.84Z" transform="translate(-3238.52 -2677.07)"/><path class="cls-9" d="M3460.32,2940.6l-.26,4.9a9.86,9.86,0,0,1-1.18,19.47l-.26,4.9a14.73,14.73,0,0,0,1.7-29.27Z" transform="translate(-3238.52 -2677.07)"/><path class="cls-30" d="M3442.42,2925.83s-9.34-8.62-9-15c.46-9.67,9.15-13.33,5.82-22.47-1.57-4.31-8.1-18.36-8.1-18.36s10.78,10.65,14.57,17.25c3.46,5.94,3.07,15.42-.72,19.92C3436.8,2917.08,3442.42,2925.83,3442.42,2925.83Z" transform="translate(-3238.52 -2677.07)"/></svg>