<svg id="outline" xmlns="http://www.w3.org/2000/svg" xmlns:xlink="http://www.w3.org/1999/xlink" viewBox="0 0 1250.35 801.66"><defs><style>.cls-1,.cls-2,.cls-4{fill:none;}.cls-1,.cls-2,.cls-6{stroke:#09385a;}.cls-1,.cls-2,.cls-4,.cls-6{stroke-linecap:round;stroke-linejoin:round;}.cls-1,.cls-4,.cls-6{stroke-width:6px;}.cls-2{stroke-width:8px;}.cls-3{fill:#09385a;}.cls-4{stroke:#2e186a;}.cls-5{fill:#31c2e1;}.cls-6{fill:#fff;}.cls-7{fill:#2e186a;}</style></defs><g id="FAQ"><path id="chair" class="cls-1" d="M388.82,944.62V589.43A139.08,139.08,0,0,1,527.9,450.35H636.83" transform="translate(-332.92 -145.96)"/><g id="man"><g id="hoodie"><path class="cls-2" d="M793.69,634.79s11.87,35.56,13.61,52.76" transform="translate(-332.92 -145.96)"/><path class="cls-2" d="M939.85,621.93A524.19,524.19,0,0,0,941,689.06" transform="translate(-332.92 -145.96)"/><path class="cls-1" d="M1051.59,509c4.19,4.27,5.74,63.34,43.12,62.66" transform="translate(-332.92 -145.96)"/><path id="shape" class="cls-3" d="M647.4,527.22c-16.39,7.23-40,21.28-59,50.37,26.78-11,118.93,71.41,184.25,52.71C742.28,627.09,677.19,579.35,647.4,527.22Z" transform="translate(-332.92 -145.96)"/><path class="cls-1" d="M700.61,395.75c-79.26,37.73-80.34,90.76-53.4,136.87-14.15,2.23-48.37,21.49-120.79,123.76C422.16,803.59,427.16,941,630,944.45" transform="translate(-332.92 -145.96)"/><path class="cls-1" d="M1017.49,723.25l0-.58c238.93,22.7,232-81.37,207-186l-62.68-207.54c-9.24-20.18-17.52-11.54-21-17.85-8-14.74-11.24-21.22-11.24-21.22-29.36,24.88-88,14-88,14s-.49,5.37-.9,21.79-18.71,14-16.56,35.82L1051.59,509l-76.4-16.29c-4.89-26.75-17.36-67.34-47.32-93" transform="translate(-332.92 -145.96)"/><line class="cls-4" x1="695.73" y1="797.95" x2="694.49" y2="712.42"/><path id="shape-2" data-name="shape" class="cls-3" d="M1010.83,500.34c-12.07-5-28.15-6.87-38.69-8.57a139.59,139.59,0,0,1,2.61,30.47c-2.28,52.68-22.89,73.24-27.8,92.64C1010.3,591.53,1015.24,529.75,1010.83,500.34Z" transform="translate(-332.92 -145.96)"/></g><g id="shirt"><path class="cls-5" d="M915.87,808.26c-1.33,11.15-3.89,15.82-29.94,29.22-6.66,3.43-20.66,10.85-39.44,20.25,3.89,48.1,6,83.47,6,83.47l78.11,1.09s-2.16-80.39-3.85-162.07C922.42,789,916.68,801.49,915.87,808.26Z" transform="translate(-332.92 -145.96)"/><path class="cls-5" d="M925,622.38c1-43.1-15.5-85.36-31.45-113.65-2.57,39.35-10.94,84.95-19.9,99.82-42-29.13-73.5-45.83-98.67-59.13-15.92-25.65-29.34-48.52-35.15-65.11.08-2.51.16-5.06.24-7.62l-2.73.27c7,23.07,22.09,55.87,53.35,99.93a208.34,208.34,0,0,1,17.51,23.62h0c7.47,11.69,14.3,44.76,20.25,86,34.77-4.82,61.71-5.77,66.6,1.64l30.21,5.78C924.15,636.34,924.48,645.92,925,622.38Z" transform="translate(-332.92 -145.96)"/></g><g id="hand_II" data-name="hand II"><g id="hand_II-2" data-name="hand II"><line class="cls-1" x1="632.3" y1="622.22" x2="585.83" y2="631.73"/><path class="cls-1" d="M1020.36,834.92c3.9,15,12.52,43.86,19.05,43.46,9.2-.57,4.28-58.18,3-75.86-.63-9.07-7-38.25-12.19-53-6.8-19.29-37.74-78.06-100.68-56.62L884.1,704" transform="translate(-332.92 -145.96)"/><path class="cls-1" d="M967.73,756.47c-1,10.22-7,31.74.84,45.87" transform="translate(-332.92 -145.96)"/><path class="cls-1" d="M1028.65,801.4s-4.91,41.78-18.87,45-14.85-8.56-14.85-8.56" transform="translate(-332.92 -145.96)"/><path class="cls-1" d="M1011.91,800s-7.55,36.82-21.71,39S976,829.36,976,829.36" transform="translate(-332.92 -145.96)"/><path class="cls-1" d="M991.24,797.7s-9.8,44.14-25.51,27.41-14.07-25.27-14.07-25.27,7.57-12.13,19.68,7.24" transform="translate(-332.92 -145.96)"/></g><path id="welt_II" data-name="welt II" class="cls-3" d="M916.5,801.24c-35.35-28.69-47.34-100.92-32.4-116.72.6-5,12.08,3.45,19,4.22,16.7,1.86,23.9,2.36,23.9,2.36-6.77,20.83.77,46,8.52,63.91a195.65,195.65,0,0,0,11.52,23c-1.33.67-6.7,3.32-19.47,8.92C920.21,790.2,918.66,795.72,916.5,801.24Z" transform="translate(-332.92 -145.96)"/><path class="cls-1" d="M636.83,692.78c15.62-5.18,57.64-12.33,70.46,17.27" transform="translate(-332.92 -145.96)"/><path id="lines" class="cls-1" d="M636.83,726.64s242.55-62.3,258.24-38.52l36.82,82.35s-14.69,26.65-16,37.79-3.89,15.82-29.94,29.22-162.2,91.62-259.79,107" transform="translate(-332.92 -145.96)"/></g><g id="head"><path id="neck" class="cls-1" d="M741.65,428.6c-.52,15.6-1.23,36.72-1.82,55.71,5.81,16.59,19.23,39.46,35.15,65.11,25.17,13.3,56.64,30,98.67,59.13,9-14.87,17.33-60.47,19.9-99.82" transform="translate(-332.92 -145.96)"/><path id="ear" class="cls-1" d="M728.86,355.37c-7.54.66-35.72,5.16-29.75,35,4.75,23.72,26.43,21.62,39.42,18" transform="translate(-332.92 -145.96)"/><path id="face" class="cls-1" d="M927.3,299.52c5.34,40.73,2.87,84.45-1.3,117" transform="translate(-332.92 -145.96)"/><path id="face-2" data-name="face" class="cls-4" d="M926,416.48c-1.76,13.7-3.82,25.4-5.72,34.06" transform="translate(-332.92 -145.96)"/><path id="beard" class="cls-1" d="M751,362.53c6.3,6.37,23.22,43.16,27.35,60.31,0,0,41.88-14.41,101.87-15.29,0,0,32.71.67,45.75,4.63,0,0-2.83,60.73-29.35,92.18S814.06,527,787.76,508.09,757.11,480.17,751,459.94s-22.17-95.65-22.17-95.65Z" transform="translate(-332.92 -145.96)"/><path id="mouth" class="cls-6" d="M863.78,460.06s16.35-3.26,23,3.25" transform="translate(-332.92 -145.96)"/><polyline id="nose" class="cls-1" points="551.65 238.2 557.73 291.12 539.08 286.35"/><ellipse id="eye" class="cls-7" cx="571.18" cy="244.12" rx="5.42" ry="8.39"/><ellipse id="eye_II" data-name="eye II" class="cls-7" cx="518.99" cy="243.2" rx="5.42" ry="8.39"/><path id="brow_II" data-name="brow II" class="cls-1" d="M828.41,345.36a24.84,24.84,0,0,1,23.52-9.25" transform="translate(-332.92 -145.96)"/><path id="brow" class="cls-1" d="M901.71,335.23s15-3.9,18.79,8.39" transform="translate(-332.92 -145.96)"/><path id="hair" class="cls-3" d="M961.77,290.94c-1.31-3.86.18-8.56,3-13.29l-.73-.82-3.39,9.51s-10.6,4.57-14.11-9c-1.08-4.15,1.37-9.21,5.28-14.23l-.12-.12c-14.74,3.42-43.57,9-46.17,3.19-3.67-8.2,48.34-30,64.18-36.94,8.12-3.56,36.21-11.27,51.35-13.46a131.69,131.69,0,0,1,30.23-.4,44.25,44.25,0,0,0-5.17-26.94c-4.92-9.06-15.17-22.53-24.28-27.36-90.3-47.89-134.34,33-134.34,33s-12.72-34.78-53.86-36a61.29,61.29,0,0,0-45.08,18c-33.7,33.77-11.24,72-11.24,72s-15.69-8-36.85,2.21c-25.28,12.23-38,40.86-31.42,68.17,7,29,19.86,56.61,19.86,56.61,82.15,12.72,103.16-67.95,91-78.36,18.23,13.48,51,22.51,106.52,16.92,12.71-1.28,28.33-6.26,44.17-13.86C967.53,299.43,964,297.4,961.77,290.94Z" transform="translate(-332.92 -145.96)"/></g><g id="hand"><g id="hand-2" data-name="hand"><polyline class="cls-1" points="705.88 137.23 718.95 189.84 793.2 167.89"/><path class="cls-1" d="M951.65,263c-14.74,3.42-43.57,9-46.17,3.19-3.67-8.2,48.34-30,64.18-36.94,8.12-3.56,36.21-11.27,51.35-13.46,19.75-2.85,91.55-4.67,101.5,59.42l10.63,39.63-70.61,20.93" transform="translate(-332.92 -145.96)"/><path class="cls-1" d="M1058.79,273.08c-8.37,5.52-39.79,20.38-55.55,20" transform="translate(-332.92 -145.96)"/><path class="cls-1" d="M976.86,240.7S943,263.84,946.49,277.38s14.11,9,14.11,9" transform="translate(-332.92 -145.96)"/><path class="cls-1" d="M985.68,254.52s-28.41,23.18-23.91,36.42,14.74,7.89,14.74,7.89" transform="translate(-332.92 -145.96)"/><path class="cls-1" d="M997,271.36s-33.72,28.43-12.15,34.44,28.2.72,28.2.72,7.06-12-15.16-13.73" transform="translate(-332.92 -145.96)"/></g><path id="welt" class="cls-3" d="M1031.64,341.57c14.18,18.81,110.32,4.64,126.14-19.66-7.58-10.4-13.62-4.47-17-10.61-8-14.74-11.24-21.22-11.24-21.22-16.71,14.16-42.9,16.74-62.37,16.34a194.57,194.57,0,0,1-25.68-1.93c-.12,1.48-.53,7.46-.87,21.4C1040.44,334,1035.93,337.48,1031.64,341.57Z" transform="translate(-332.92 -145.96)"/></g></g><path id="laptop" class="cls-3" d="M1556.3,665.32H1167.49a11,11,0,0,0-10.71,8.47l-54,228.82H961.79S954,943,999.53,943h496.38a11,11,0,0,0,10.71-8.47L1567,678.85A11,11,0,0,0,1556.3,665.32Z" transform="translate(-332.92 -145.96)"/><line id="line" class="cls-1" x1="3" y1="798.49" x2="1247.35" y2="798.49"/></g><image width="728" height="512" transform="translate(877.47 562.66) scale(0.36)" xlink:href="../../New%20C%20Drive%2012%202021/2021%20New%20Projects/Tech.%20Post%20Linkedin/58482f67cef1014c0b5e4a81.png"/></svg>