<svg id="Layer_1" data-name="Layer 1" xmlns="http://www.w3.org/2000/svg" viewBox="0 0 944.98 693.04"><defs><style>.cls-1{fill:#a5dee5;}.cls-2{fill:#09385a;}.cls-3{fill:#fff;}.cls-4{fill:#31c2e1;}.cls-5{fill:#f3ead6;}</style></defs><ellipse class="cls-1" cx="451.97" cy="649.38" rx="283.04" ry="43.67"/><rect class="cls-2" x="345.92" y="689.78" width="11.55" height="92.2" rx="4.02" transform="translate(-491.37 592.15) rotate(-65.14)"/><path class="cls-3" d="M312.21,688.64l38,10,51.33,23.79-8.76,18.92a7.2,7.2,0,0,1-9.55,3.5l-67.57-31.3Z" transform="translate(-27.51 -153.48)"/><path d="M386.24,747.52a9.12,9.12,0,0,1-3.85-.85L313.83,714.9l-4-29,41.24,10.89,53.15,24.62-9.61,20.74A9.2,9.2,0,0,1,386.24,747.52ZM317.5,712.19,384.07,743a5.19,5.19,0,0,0,6.89-2.53l7.93-17.11-49.36-22.87-34.93-9.19Z" transform="translate(-27.51 -153.48)"/><path class="cls-2" d="M321,728l-43.22-20a6.61,6.61,0,0,1-3.22-8.77h0a27.12,27.12,0,0,1,36-13.2h0a27.11,27.11,0,0,1,13.2,36Z" transform="translate(-27.51 -153.48)"/><path class="cls-2" d="M661.17,306.39,639,307.74a38.27,38.27,0,0,1-40.52-35.87l-1.25-20.61a34,34,0,0,1,31.9-36l17.28-1.05a47.26,47.26,0,0,1,50,44.3l.46,7.6A38.06,38.06,0,0,1,661.17,306.39Z" transform="translate(-27.51 -153.48)"/><path d="M282.63,805.54a2,2,0,0,1-2-1.66L227,495.83l-81.8,307.85a2,2,0,0,1-3.87-1L227.8,477.19l56.8,326a2,2,0,0,1-1.63,2.32A2,2,0,0,1,282.63,805.54Z" transform="translate(-27.51 -153.48)"/><rect class="cls-2" x="152.87" y="305.19" width="422.55" height="27.84" rx="8.79"/><rect class="cls-3" x="447.99" y="15.16" width="109.62" height="37.78" rx="18.89"/><path d="M566.24,208.41H494.39a20.89,20.89,0,1,1,0-41.77h71.85a20.89,20.89,0,1,1,0,41.77Zm-71.85-37.77a16.89,16.89,0,1,0,0,33.77h71.85a16.89,16.89,0,1,0,0-33.77Z" transform="translate(-27.51 -153.48)"/><path class="cls-4" d="M506.69,196.63l-5.12-2.7a.53.53,0,0,0-.49,0l-5.12,2.7a.53.53,0,0,1-.76-.56l1-5.7a.55.55,0,0,0-.16-.47l-4.14-4a.52.52,0,0,1,.29-.89l5.73-.84a.5.5,0,0,0,.39-.28l2.57-5.19a.52.52,0,0,1,.94,0l7.45,10.07c.07.16-4.67-4.62-4.49-4.6l5.72.84a.52.52,0,0,1,.29.89l-4.14,4a.54.54,0,0,0-.15.47l1,5.7A.53.53,0,0,1,506.69,196.63Z" transform="translate(-27.51 -153.48)"/><path class="cls-4" d="M535.68,196.63l-5.12-2.7a.53.53,0,0,0-.49,0l-5.12,2.7a.53.53,0,0,1-.77-.56l1-5.7c0-.17,4.86,4.54,4.74,4.42l-9-8.93a.52.52,0,0,1,.29-.89l5.73-.84a.5.5,0,0,0,.39-.28l2.56-5.19a.53.53,0,0,1,.95,0l2.56,5.19a.5.5,0,0,0,.39.28l5.73.84a.52.52,0,0,1,.29.89l-4.14,4a.52.52,0,0,0-.15.47l1,5.7A.53.53,0,0,1,535.68,196.63Z" transform="translate(-27.51 -153.48)"/><path class="cls-4" d="M564.67,196.63l-5.12-2.7a.53.53,0,0,0-.49,0l-5.12,2.7a.53.53,0,0,1-.77-.56l5.87-.81c0-.17-4.92-5.24-5-5.36l-4.14-4a.52.52,0,0,1,.29-.89l5.72-.84a.53.53,0,0,0,.4-.28l2.56-5.19a.52.52,0,0,1,.94,0l2.56,5.19a.53.53,0,0,0,.4.28l5.73.84a.52.52,0,0,1,.29.89l-4.15,4a.54.54,0,0,0-.15.47l1,5.7A.53.53,0,0,1,564.67,196.63Z" transform="translate(-27.51 -153.48)"/><rect class="cls-2" x="214.77" y="72.65" width="292.94" height="195.73" rx="19.22"/><rect class="cls-3" x="234.16" y="89.53" width="254.16" height="165.89" rx="14.65"/><rect class="cls-4" x="304.9" y="117.26" width="84.34" height="115.65" rx="10.26"/><rect class="cls-4" x="255.24" y="114.11" width="31.11" height="31.11" rx="4.29"/><rect class="cls-2" x="255.24" y="159.85" width="31.11" height="31.11" rx="5.12"/><rect class="cls-4" x="260.13" y="210.47" width="31.11" height="31.11" rx="5.18"/><path d="M500.08,275H433.31a2,2,0,1,1,0-4h66.77a2,2,0,0,1,0,4Z" transform="translate(-27.51 -153.48)"/><path d="M500.08,293.45H433.31a2,2,0,0,1,0-4h66.77a2,2,0,0,1,0,4Z" transform="translate(-27.51 -153.48)"/><path d="M479.34,311.92h-46a2,2,0,0,1,0-4h46a2,2,0,0,1,0,4Z" transform="translate(-27.51 -153.48)"/><rect class="cls-4" x="403.87" y="172.37" width="45.56" height="17.74" rx="8.87"/><circle class="cls-2" cx="467.95" cy="181.24" r="8.33"/><polygon class="cls-2" points="363.88 305.19 294.2 305.19 322.73 268.38 395.27 268.38 363.88 305.19"/><path d="M692.7,587.66a2.05,2.05,0,0,1-.49-.06,2,2,0,0,1-1.45-2.43l26.32-104a2,2,0,1,1,3.88,1l-26.32,104A2,2,0,0,1,692.7,587.66Z" transform="translate(-27.51 -153.48)"/><path d="M548.15,801.13a1.23,1.23,0,0,1-.27,0,2,2,0,0,1-1.72-2.25l26.93-198.81a2,2,0,1,1,4,.53L550.13,799.4A2,2,0,0,1,548.15,801.13Z" transform="translate(-27.51 -153.48)"/><rect class="cls-2" x="673.45" y="401.73" width="119.61" height="43.64" rx="13.99" transform="translate(130.34 891.33) rotate(-77.21)"/><path d="M694.11,801.13a2,2,0,0,1-2-1.72L664,600.59a2,2,0,1,1,4-.56l28.1,198.82a2,2,0,0,1-1.7,2.26A1.32,1.32,0,0,1,694.11,801.13Z" transform="translate(-27.51 -153.48)"/><path d="M684.8,735.23H557.07a2,2,0,0,1,0-4H684.8a2,2,0,0,1,0,4Z" transform="translate(-27.51 -153.48)"/><rect class="cls-4" x="520.64" y="399.91" width="148.7" height="46.92" rx="13.82"/><circle class="cls-2" cx="673.02" cy="66.57" r="29.65"/><circle class="cls-2" cx="727.46" cy="39.8" r="39.8"/><path class="cls-3" d="M681.16,276.17a13,13,0,0,0-13-13,13.68,13.68,0,0,0-1.82.14l-2.49-34.12-48.53,5.21a20.3,20.3,0,0,0-18.14,20.19v5.49a33.52,33.52,0,0,1-5.11,18l-.09.13,0,.05a4.69,4.69,0,0,0,1.84,6.8l3.39,1.66v12.86a17.7,17.7,0,0,0,20.43,17.49l12.46-1.94,2.51,21.32,39.67-4.68L669.58,309h.12l-1.45-19.85A13,13,0,0,0,681.16,276.17Z" transform="translate(-27.51 -153.48)"/><path class="cls-2" d="M630.85,338.72l-2.51-21.24-10.4,1.62a19.7,19.7,0,0,1-22.74-19.47V288l-2.27-1.11a6.64,6.64,0,0,1-3.49-4.19,6.85,6.85,0,0,1,.85-5.5l.11-.17a31.4,31.4,0,0,0,4.8-16.95v-5.49a22.26,22.26,0,0,1,19.92-22.18L665.71,227l2.5,34.19A15,15,0,0,1,670.39,291l1.43,19.71h0l2.7,22.88Zm1-25.84,2.52,21.4,35.7-4.21-2.68-22.73.2,0-1.47-20.15h2.14a11,11,0,0,0-.06-22,11.38,11.38,0,0,0-1.54.12l-2.12.3L662,231.42l-46.48,5a18.27,18.27,0,0,0-16.35,18.2v5.49a35.39,35.39,0,0,1-5.43,19.1l-.1.16a2.84,2.84,0,0,0-.37,2.29,2.61,2.61,0,0,0,1.39,1.67l4.51,2.2v14.11a15.71,15.71,0,0,0,18.12,15.52Z" transform="translate(-27.51 -153.48)"/><path class="cls-2" d="M610,301.67a8.92,8.92,0,0,1-1.52-.13,10.1,10.1,0,0,1-5.16-2.56,2,2,0,0,1,2.7-3,6.31,6.31,0,0,0,3.11,1.57c3.7.61,6.61-3,6.64-3a2,2,0,0,1,3.15,2.46C618.71,297.24,615.18,301.67,610,301.67Z" transform="translate(-27.51 -153.48)"/><circle class="cls-2" cx="590.68" cy="117.93" r="3.15"/><path class="cls-2" d="M666.84,282.92a5.38,5.38,0,1,1,5.38-5.38A5.39,5.39,0,0,1,666.84,282.92Zm0-6.76a1.38,1.38,0,1,0,1.38,1.38A1.38,1.38,0,0,0,666.84,276.16Z" transform="translate(-27.51 -153.48)"/><path class="cls-4" d="M634.64,331.1l60.86-2.76A34.56,34.56,0,0,1,720.36,337c8.77,8,15.63,22.69,6.08,49.39L713,411.43l-76-9.2-13.13,25.54-47.7,5.45c-1.18.13-4.83-6.15-5.34-6.94a47,47,0,0,1-7.24-19.19c-2.5-19.52,12-35.2,23.23-49.47C598.74,342.4,614.58,332,634.64,331.1Z" transform="translate(-27.51 -153.48)"/><path class="cls-2" d="M663.58,280.42a2,2,0,0,1-2-1.61,7.85,7.85,0,0,1,2.48-7.42,8.18,8.18,0,0,1,7.26-1.65,2,2,0,0,1-1.07,3.86,4.1,4.1,0,0,0-3.54.79,3.84,3.84,0,0,0-1.21,3.63,2,2,0,0,1-1.56,2.36A2.85,2.85,0,0,1,663.58,280.42Z" transform="translate(-27.51 -153.48)"/><path class="cls-2" d="M615.34,234.42s-.65,40.29,51.41,28.85l-2.88-34.06Z" transform="translate(-27.51 -153.48)"/><path class="cls-2" d="M618.92,288.91c-8.26,0-15-7.79-15-17.38s6.73-17.38,15-17.38,15,7.8,15,17.38S627.19,288.91,618.92,288.91Zm0-30.76c-6.06,0-11,6-11,13.38s4.93,13.38,11,13.38,11-6,11-13.38S625,258.15,618.92,258.15Z" transform="translate(-27.51 -153.48)"/><path class="cls-2" d="M687.44,499.39H611V448.65h70.63a142.48,142.48,0,0,1,5.85,50.74Z" transform="translate(-27.51 -153.48)"/><path class="cls-5" d="M494.73,458.67H455.35a14.14,14.14,0,0,1-13.61-18.06h0a13.62,13.62,0,0,1,13.09-9.81h40.41a13.62,13.62,0,0,1,12.9,9.23h0A14.12,14.12,0,0,1,494.73,458.67Z" transform="translate(-27.51 -153.48)"/><path class="cls-3" d="M635.82,402.23l-12.94,25.54-74.53,7.42a14.43,14.43,0,0,1-8.08-1.55L508,416.88s-11.27-6.31-27.56.49L453,429.82a6,6,0,0,0-3.6,6v.06a3.61,3.61,0,0,0,4.55,3L483,430.73,469.42,443a13,13,0,0,0-4,6.79c-.92,4.27.19,10.06,11.25,12.7,0,0,5.09,8.55,13.75,4,.05,0,1.28,1.09,1.38,1.16a27.81,27.81,0,0,0,4.32,2.73,37.49,37.49,0,0,0,15.3,3.89c3.3.16,6.4-1.28,6.83-4.86l2.78.29q13,1.33,25.89,3.82l65.73,12.71c18,2.55,30.88-1.3,37.45-3.9,19.2-7.59,31.64-21.09,41.62-38.24l19-32.71Z" transform="translate(-27.51 -153.48)"/><path d="M624.37,489.13a85.77,85.77,0,0,1-12-.87l-.1,0L546.5,475.53c-8.48-1.64-17.13-2.91-25.71-3.8l-1.08-.11c-1.22,3.07-4.4,4.9-8.43,4.7a39.63,39.63,0,0,1-16.12-4.11,31,31,0,0,1-4.63-2.92l-.39-.34-.07-.06c-7,2.93-12.38-1.31-14.69-4.61-12.47-3.27-12.86-10.69-12-14.87a14.82,14.82,0,0,1,4.66-7.85l7.32-6.62-20.94,5.85a5.61,5.61,0,0,1-7.07-4.61A8,8,0,0,1,452.1,428l27.55-12.47c17.05-7.12,28.87-.69,29.37-.41l32.17,16.72a12.39,12.39,0,0,0,7,1.34l73.43-7.31,13.08-25.81L714,409.81l-20.57,35.34c-11.48,19.71-25,32.13-42.61,39.09A71.54,71.54,0,0,1,624.37,489.13Zm-11.43-4.83c13.1,1.85,25.35.58,36.39-3.78,16.94-6.7,29.47-18.23,40.62-37.38L707.47,413,637,404.39l-12.8,25.26-75.62,7.53a16.4,16.4,0,0,1-9.2-1.77l-32.23-16.75c-.48-.26-10.76-5.76-25.87.56l-27.46,12.42a4,4,0,0,0-2.45,3.92,1.64,1.64,0,0,0,2.05,1.38l37.27-10.42-19.89,18a10.87,10.87,0,0,0-3.44,5.72c-1.09,5.05,2.19,8.53,9.76,10.33l.82.2.43.73c.43.7,4.38,6.79,11.11,3.25,1.26-.66,2.09.08,3.35,1.2l.23.21a27.05,27.05,0,0,0,4,2.49,35.67,35.67,0,0,0,14.48,3.66c1.31.06,4.39-.1,4.74-3.1l.24-2,4.74.49c8.69.89,17.46,2.18,26.06,3.85Zm-121.62-16h0Z" transform="translate(-27.51 -153.48)"/><rect class="cls-2" x="406.49" y="634.68" width="92.2" height="11.55" rx="4.02"/><path class="cls-3" d="M424.41,767.67l38.68-6.9h56.58v20.86a7.19,7.19,0,0,1-7.19,7.19H438Z" transform="translate(-27.51 -153.48)"/><path d="M512.48,790.82H436.93L421.1,766.23l42-7.46h58.58v22.86A9.2,9.2,0,0,1,512.48,790.82Zm-73.37-4h73.37a5.2,5.2,0,0,0,5.19-5.19V762.77h-54.4l-35.56,6.34Z" transform="translate(-27.51 -153.48)"/><path class="cls-2" d="M376.43,721.32l-23.25-17a33.78,33.78,0,0,1-7.39-47.2l101.3-138.92a49.54,49.54,0,0,1,69.23-10.84h0a49.54,49.54,0,0,1,10.84,69.23L427.48,713.33A36.54,36.54,0,0,1,376.43,721.32Z" transform="translate(-27.51 -153.48)"/><path class="cls-2" d="M618.14,570.5h-177V535.72a50.46,50.46,0,0,1,50.46-50.45H687.44V501.2A69.3,69.3,0,0,1,618.14,570.5Z" transform="translate(-27.51 -153.48)"/><path class="cls-2" d="M503.74,765.66H475a33.79,33.79,0,0,1-33.79-33.78V566.23h99.1V729.12A36.53,36.53,0,0,1,503.74,765.66Z" transform="translate(-27.51 -153.48)"/><path class="cls-3" d="M388.31,722a2,2,0,0,1-1.63-3.15l52.86-75a2,2,0,0,1,3.27,2.31l-52.86,75A2,2,0,0,1,388.31,722Z" transform="translate(-27.51 -153.48)"/><path class="cls-3" d="M508.9,767.29a2,2,0,0,1-2-2V562.11a28.4,28.4,0,0,1,28.37-28.38h77.78a30.85,30.85,0,0,0,30.82-30.82V485.27a2,2,0,1,1,4,0v17.64a34.86,34.86,0,0,1-34.82,34.82H535.27a24.4,24.4,0,0,0-24.37,24.38V765.29A2,2,0,0,1,508.9,767.29Z" transform="translate(-27.51 -153.48)"/><path d="M476.63,464.53a2,2,0,0,1-1.92-1.44c-4.64-15.89,12.39-25.71,12.57-25.81a2,2,0,1,1,2,3.48h0a29.55,29.55,0,0,0-6.94,5.94c-4,4.82-5.3,9.95-3.75,15.27a2,2,0,0,1-1.36,2.48A2.23,2.23,0,0,1,476.63,464.53Z" transform="translate(-27.51 -153.48)"/><path d="M490.38,468.54a2,2,0,0,1-1.65-.88,12.59,12.59,0,0,1-2.12-10.34c2-8.42,12.17-14.15,12.61-14.39a2,2,0,1,1,1.94,3.49c-.16.1-9.08,5.16-10.66,11.83a8.67,8.67,0,0,0,1.53,7.16,2,2,0,0,1-1.65,3.13Z" transform="translate(-27.51 -153.48)"/><path d="M518.21,471.46a2,2,0,0,1-2-1.76c-.39-3.2-6.9-7-10-8.31l-2.76-1.18,9.58-9.27a2,2,0,0,1,2.78,2.87l-5.37,5.2c3.51,1.88,9.17,5.6,9.73,10.21a2,2,0,0,1-1.74,2.22Z" transform="translate(-27.51 -153.48)"/><path class="cls-2" d="M448.91,799.72H401.28a6.61,6.61,0,0,1-6.61-6.61h0A27.13,27.13,0,0,1,421.79,766h0a27.12,27.12,0,0,1,27.12,27.12Z" transform="translate(-27.51 -153.48)"/><path class="cls-2" d="M631.92,270.67a2,2,0,0,1-.22-4l31.54-3.49a2,2,0,0,1,.44,4l-31.54,3.48Z" transform="translate(-27.51 -153.48)"/><path class="cls-2" d="M630.34,313.13l1.41,12,20.88-13.77a.76.76,0,0,0-.53-1.39Z" transform="translate(-27.51 -153.48)"/><path d="M635.82,404.23a2,2,0,0,1-.8-.16,2,2,0,0,1-1-2.63l8.2-18.88a2,2,0,1,1,3.67,1.59L637.65,403A2,2,0,0,1,635.82,404.23Z" transform="translate(-27.51 -153.48)"/><path class="cls-3" d="M441.78,692.61a2,2,0,0,1-2-2V527.89a2,2,0,0,1,4,0V690.61A2,2,0,0,1,441.78,692.61Z" transform="translate(-27.51 -153.48)"/><rect class="cls-3" x="716.85" y="114.75" width="226.13" height="155.32" rx="22.12"/><path d="M948.37,425.55H766.48a24.15,24.15,0,0,1-24.12-24.12V290.35a24.15,24.15,0,0,1,24.12-24.12H948.37a24.15,24.15,0,0,1,24.12,24.12V401.43A24.15,24.15,0,0,1,948.37,425.55ZM766.48,270.23a20.14,20.14,0,0,0-20.12,20.12V401.43a20.14,20.14,0,0,0,20.12,20.12H948.37a20.15,20.15,0,0,0,20.12-20.12V290.35a20.14,20.14,0,0,0-20.12-20.12Z" transform="translate(-27.51 -153.48)"/><path class="cls-4" d="M874.41,318.27a6.75,6.75,0,0,1-13.5,0c0-3.73,7.91-1.87,11.63-1.87S874.41,314.54,874.41,318.27Z" transform="translate(-27.51 -153.48)"/><circle class="cls-4" cx="863.53" cy="164.79" r="6.75"/><circle class="cls-4" cx="886.92" cy="164.79" r="6.75"/><circle class="cls-4" cx="910.31" cy="164.79" r="6.75"/><circle class="cls-4" cx="774.91" cy="184.65" r="13.11"/><path class="cls-4" d="M801.27,357.94a25.82,25.82,0,0,0-21.95,11.94,37.3,37.3,0,0,0,44.62,1.25A25.75,25.75,0,0,0,801.27,357.94Z" transform="translate(-27.51 -153.48)"/><path d="M944.57,345.49h-85a2,2,0,1,1,0-4h85a2,2,0,0,1,0,4Z" transform="translate(-27.51 -153.48)"/><path d="M944.57,361.2h-85a2,2,0,0,1,0-4h85a2,2,0,0,1,0,4Z" transform="translate(-27.51 -153.48)"/><path d="M913,376.92H859.61a2,2,0,0,1,0-4H913a2,2,0,0,1,0,4Z" transform="translate(-27.51 -153.48)"/><path d="M801.63,378.86a35.27,35.27,0,1,1,35.27-35.27A35.31,35.31,0,0,1,801.63,378.86Zm0-66.53a31.27,31.27,0,1,0,31.27,31.26A31.3,31.3,0,0,0,801.63,312.33Z" transform="translate(-27.51 -153.48)"/><rect class="cls-3" x="735.08" y="331.79" width="96.3" height="96.3" rx="15.16"/><path d="M843.73,583.57h-66a17.18,17.18,0,0,1-17.17-17.16v-66a17.18,17.18,0,0,1,17.17-17.16h66a17.18,17.18,0,0,1,17.17,17.16v66A17.18,17.18,0,0,1,843.73,583.57Zm-66-96.3a13.18,13.18,0,0,0-13.17,13.16v66a13.18,13.18,0,0,0,13.17,13.16h66a13.18,13.18,0,0,0,13.17-13.16v-66a13.18,13.18,0,0,0-13.17-13.16Z" transform="translate(-27.51 -153.48)"/><path class="cls-4" d="M795.35,556.21V533.58a2.22,2.22,0,0,1,1.14-2c3.16-1.77,11.85-7.66,12.86-19.59.37-4.31,2.26-6.34,4.25-6.83,2.3-.56,4.67,1.84,5,2.16,5.41,5.64-.24,18.57-.76,19.73l7.15-.19a10.65,10.65,0,0,1,10.92,10.39l.25,10.24a10.64,10.64,0,0,1-10.64,10.9H797.58A2.23,2.23,0,0,1,795.35,556.21Z" transform="translate(-27.51 -153.48)"/><rect class="cls-2" x="758.94" y="375.22" width="11.6" height="31.72" rx="2.46"/><circle class="cls-4" cx="204.35" cy="52.34" r="23.99"/><ellipse class="cls-4" cx="203.04" cy="259.53" rx="46.93" ry="34.08" transform="translate(-148.71 164.76) rotate(-62.23)"/><ellipse class="cls-4" cx="176.29" cy="351.17" rx="63.4" ry="51.53" transform="translate(-223.02 324.84) rotate(-82.22)"/><circle class="cls-4" cx="22.18" cy="130.96" r="22.18"/><ellipse class="cls-4" cx="64.33" cy="335.34" rx="31.07" ry="40.41" transform="translate(-102.29 -129.97) rotate(-13.18)"/><ellipse class="cls-4" cx="85.11" cy="418.47" rx="44.57" ry="54.85" transform="translate(-97.27 -132.97) rotate(-9.77)"/><path d="M123.22,571.36a2,2,0,0,1-2-1.75c-11.83-93.69-44.37-175.07-44.7-175.88a2,2,0,1,1,3.71-1.49c.33.81,33.06,82.65,45,176.87a2,2,0,0,1-1.73,2.24Z" transform="translate(-27.51 -153.48)"/><path d="M147.38,572.39a2,2,0,0,1-2-2c-.25-94,13-169.37,24.15-216.09,12.1-50.67,24.45-79.53,24.57-79.82a2,2,0,0,1,3.67,1.59c-.12.28-12.36,28.9-24.38,79.28-11.09,46.48-24.26,121.53-24,215a2,2,0,0,1-2,2Z" transform="translate(-27.51 -153.48)"/><rect class="cls-4" x="53.35" y="416.91" width="105.58" height="245.74" rx="27.57"/><path d="M86,803a2,2,0,0,1-1.84-1.21,2,2,0,0,1,1-2.63,128.82,128.82,0,0,1,99.33-1.28,2,2,0,0,1-1.49,3.71,124.86,124.86,0,0,0-96.26,1.24A2,2,0,0,1,86,803Z" transform="translate(-27.51 -153.48)"/><path d="M171.8,611.16H97a2,2,0,0,1,0-4H171.8a2,2,0,1,1,0,4Z" transform="translate(-27.51 -153.48)"/><path d="M152.61,792.55a2,2,0,0,1-2-2V609.75a2,2,0,0,1,4,0v180.8A2,2,0,0,1,152.61,792.55Z" transform="translate(-27.51 -153.48)"/><path d="M116.14,792.55a2,2,0,0,1-2-2V609.75a2,2,0,0,1,4,0v180.8A2,2,0,0,1,116.14,792.55Z" transform="translate(-27.51 -153.48)"/></svg>