<?xml version="1.0" encoding="utf-8"?>
<!-- Generator: Adobe Illustrator 25.4.1, SVG Export Plug-In . SVG Version: 6.00 Build 0)  -->
<svg version="1.1" xmlns="http://www.w3.org/2000/svg" xmlns:xlink="http://www.w3.org/1999/xlink" x="0px" y="0px"
	 viewBox="0 0 500 500" style="enable-background:new 0 0 500 500;" xml:space="preserve">
<style type="text/css">
	.st0{display:none;}
	.st1{fill:none;stroke:#263238;stroke-miterlimit:10;}
	.st2{fill:#263238;}
	.st3{fill:#263238;stroke:#263238;stroke-miterlimit:10;}
	.st4{fill:#253A58;}
	.st5{fill:#FFFFFF;stroke:#263238;stroke-miterlimit:10;}
	.st6{fill:#263238;stroke:#263238;stroke-linecap:round;stroke-linejoin:round;stroke-miterlimit:10;}
	.st7{fill:#FFFFFF;stroke:#263238;stroke-linecap:round;stroke-linejoin:round;stroke-miterlimit:10;}
	.st8{fill:none;stroke:#263238;stroke-linecap:round;stroke-linejoin:round;stroke-miterlimit:10;}
	.st9{fill:#72C0DE;}
	.st10{fill:#808080;stroke:#545454;stroke-linecap:round;stroke-linejoin:round;stroke-miterlimit:10;}
	.st11{fill:none;stroke:#263238;stroke-width:2;stroke-miterlimit:10;}
	.st12{fill:none;stroke:#263238;stroke-width:3;stroke-miterlimit:10;}
</style>
<g id="Background_Simple" class="st0">
</g>
<g id="Floor">
	<line class="st1" x1="6.1" y1="461.9" x2="483.2" y2="461.9"/>
</g>
<g id="Plants">
	<g>
		<path class="st2" d="M426.6,413.8c1.9,0.5,6.5-0.3,6.5-0.3c0,0-1.3-2.7-1.4-2.9c-1.2-1.8-4.7-4.7-7.2-3.9
			c-1.8,0.5-2.7,2.5-2.1,4.1C423,412.4,425,413.4,426.6,413.8z"/>
		<path class="st2" d="M454.9,461c0,0.1,0.1,0.2,0.1,0.3l1.8,0.4c-0.1-0.4-0.2-0.8-0.4-1.2c-0.4-1.1-0.8-2.3-1.2-3.6
			c0.3-0.2,1.9-1.1,3.4-2.1c1.5,1.2,5,2.3,5.5,2.4c-0.3,1.2-0.7,2.3-1,3.4c-0.2,0.7-0.5,1.4-0.7,2.1l1.7-0.3c0.2-0.5,0.3-1,0.5-1.5
			c0.4-1.2,0.7-2.4,1.1-3.7c0.5,0,4.6,0.2,6.4-0.5c1.6-0.6,3.6-1.9,4.2-3.6c0.6-1.7-0.3-3.5-2.1-3.8c-2.5-0.4-6,2.8-7.2,4.8
			c-0.1,0.1-0.7,1.5-1.1,2.3c0.1-0.5,0.3-1,0.4-1.6c0.3-1.1,0.5-2.2,0.8-3.3c0.1-0.6,0.2-1.1,0.3-1.7c0.1-0.6,0.2-1.2,0.3-1.8
			c0.2-1.4,0.3-2.8,0.4-4.2c1,0.2,4.4,0.8,6.1,0.4c1.7-0.4,3.8-1.3,4.6-3c0.8-1.6,0.3-3.5-1.5-4.1c-2.4-0.8-6.3,2-7.8,3.8
			c-0.1,0.1-1,1.5-1.5,2.3c0.1-0.9,0.1-1.7,0.1-2.6c0.1-2.5,0-5.1,0-7.6c0-0.8,0-1.6,0-2.3c0.3,0.1,4.4,0.9,6.3,0.4
			c1.7-0.4,3.8-1.3,4.7-3c0.8-1.6,0.3-3.5-1.5-4.1c-2.4-0.8-6.3,2-7.8,3.8c-0.1,0.1-1.4,2.2-1.7,2.7c0-1.7,0-3.4,0.1-5.1
			c0.1-2.3,0.4-4.6,0.8-6.8c0.2,0,4.4,0.9,6.4,0.4c1.7-0.4,3.8-1.3,4.7-3c0.8-1.6,0.3-3.5-1.5-4.1c-2.4-0.8-6.3,2-7.8,3.8
			c-0.1,0.1-1.5,2.3-1.8,2.7c0-0.1,0-0.3,0.1-0.4c0.5-2.3,1.2-4.6,2.1-6.6c0.5-1.2,1-2.3,1.5-3.4c0.8,0.2,4.3,1.3,6.1,1.1
			c1.7-0.2,3.9-0.9,4.9-2.5c1-1.5,0.7-3.5-1-4.3c-2.3-1-6.5,1.3-8.1,2.9c-0.1,0.1-0.9,1.1-1.5,1.8c0.2-0.5,0.5-1,0.7-1.5
			c0.9-1.7,1.9-3.3,2.7-4.6c0.5-0.8,0.9-1.5,1.4-2.1c0.9-0.2,4.6-0.8,6.1-1.8c1.5-0.9,3.1-2.5,3.3-4.3c0.2-1.7-1.1-3.3-2.9-3.2
			c-2.6,0.1-5.3,4-6,6.2c-0.1,0.2-0.7,3.2-0.7,3.2c0,0,0,0,0.1,0c-0.4,0.6-0.9,1.3-1.4,2c-0.9,1.3-1.9,2.9-2.8,4.6
			c-1,1.7-2,3.6-2.8,5.7c-0.9,2.1-1.7,4.3-2.2,6.7c0,0,0,0.1,0,0.1c-0.1-0.7-0.3-2.8-0.3-2.9c-0.5-2.2-2.9-5.9-5.5-6
			c-1.9,0-3.3,1.6-3.2,3.3c0,1.8,1.5,3.3,2.9,4.2c1.6,1,5.7,1.6,6.1,1.6c-0.5,2.3-0.8,4.6-1,7c-0.1,1.4-0.2,2.7-0.2,4.1
			c-0.1-0.6-0.1-1.2-0.2-1.3c-0.5-2.2-2.9-5.9-5.5-6c-1.9,0-3.3,1.6-3.2,3.3c0,1.8,1.5,3.3,2.9,4.2c1.4,0.9,4.9,1.5,5.9,1.6
			c0,0.5,0,1.1,0,1.6c-0.1,2.5-0.1,5.1-0.2,7.6c0,0.9-0.1,1.7-0.2,2.6c-0.1-0.6-0.1-1-0.1-1.1c-0.5-2.2-2.9-5.9-5.5-6
			c-1.9,0-3.3,1.6-3.2,3.3c0,1.8,1.5,3.3,2.9,4.2c1.4,0.9,4.6,1.4,5.7,1.6c-0.1,0.9-0.2,1.8-0.3,2.6c-0.1,0.6-0.2,1.2-0.3,1.7
			c-0.1,0.6-0.3,1.2-0.4,1.7c-0.3,1.1-0.6,2.2-0.9,3.3c-0.2,0.7-0.4,1.4-0.6,2.1c0.1-0.9,0.1-2.6,0.1-2.7c-0.1-1.5-0.9-3.8-2.2-5.3
			c0-0.2-0.1-0.4-0.1-0.6c-0.5-1.7-2.2-2.7-4-1.9c-2.4,1-3.6,5.5-3.5,7.7c0,0.1,0.2,1.5,0.4,2.4c-0.2-0.5-0.3-1-0.5-1.5
			c-0.4-1-0.8-2-1.2-3.1c-0.2-0.5-0.5-1-0.7-1.6c-0.2-0.5-0.5-1.1-0.8-1.6c-0.6-1.2-1.3-2.4-2.1-3.6c0.9-0.4,4.3-1.7,5.6-3
			c1.3-1.2,2.5-3.1,2.4-4.9c-0.2-1.7-1.8-3-3.6-2.5c-2.5,0.7-4.4,5-4.6,7.2c0,0.1,0,1.8,0,2.6c-0.4-0.7-0.9-1.4-1.4-2.1
			c-1.4-2-2.8-4.1-4.3-6.1c-0.4-0.6-0.9-1.2-1.3-1.9c0.3-0.1,4.3-1.7,5.8-3.1c1.3-1.2,2.5-3.1,2.4-4.9c-0.2-1.7-1.8-3-3.6-2.5
			c-2.5,0.7-4.4,5-4.6,7.2c0,0.2,0,2.5,0,3.1c-1-1.4-1.9-2.7-2.8-4.1c-1.2-1.9-2.3-3.9-3.2-5.9c0.2-0.1,4.3-1.7,5.8-3.1
			c1.3-1.2,2.5-3.1,2.4-4.9c-0.2-1.7-1.8-3-3.6-2.5c-2.5,0.7-4.4,5-4.6,7.2c0,0.2,0,2.7,0,3.1c-0.1-0.1-0.1-0.2-0.2-0.4
			c-0.9-2.1-1.5-4.3-2-6.4c-0.3-1.2-0.5-2.4-0.6-3.5c0.8-0.2,4.5-1.3,5.9-2.4c1.4-1.1,2.9-2.8,2.9-4.6c0-1.7-1.4-3.2-3.3-2.9
			c-2.6,0.4-4.9,4.5-5.4,6.7c0,0.1-0.2,1.4-0.2,2.3c-0.1-0.5-0.1-1.1-0.2-1.6c-0.2-1.9-0.2-3.6-0.3-5.2c0-0.9,0-1.7,0-2.4
			c0.7-0.6,3.5-3.1,4.3-4.7c0.8-1.6,1.3-3.7,0.4-5.2c-0.8-1.5-2.8-2.1-4.4-1c-2.2,1.5-2.3,6-1.7,8.2c0.1,0.2,1.2,3,1.3,2.9
			c0,0,0,0,0,0c0,0.7-0.1,1.5-0.1,2.3c0,1.5,0,3.3,0.2,5.2c0.1,1.9,0.4,3.9,0.8,6.1c0.4,2.1,1,4.3,1.9,6.5c0,0,0,0,0,0.1
			c-0.5-0.6-1.8-2-2-2.1c-1.7-1.4-5.9-3.2-8.2-1.9c-1.6,1-1.9,3-0.9,4.4c1,1.4,3.2,1.8,5,1.8c2,0,5.9-1.8,6.2-1.9
			c0.9,2.1,1.9,4.1,3.1,6.2c0.7,1.2,1.4,2.3,2.2,3.4c-0.4-0.5-0.8-0.9-0.9-0.9c-1.7-1.4-5.9-3.2-8.2-1.9c-1.6,1-1.9,3-0.9,4.4
			c1,1.4,3.2,1.8,5,1.8c1.8,0,5.1-1.5,6-1.9c0.3,0.4,0.6,0.9,0.9,1.3c1.4,2.1,2.8,4.1,4.1,6.2c0.5,0.7,0.9,1.5,1.3,2.2
			c-0.4-0.4-0.7-0.8-0.8-0.8c-1.7-1.4-5.9-3.2-8.2-1.9c-1.6,1-1.9,3-0.9,4.4c1,1.4,3.2,1.8,5,1.8c1.7,0,4.8-1.3,5.9-1.8
			c0.4,0.8,0.8,1.5,1.2,2.3c0.2,0.5,0.5,1,0.7,1.6c0.2,0.5,0.4,1.1,0.7,1.6c0.4,1,0.8,2.1,1.1,3.1c0.2,0.7,0.5,1.4,0.7,2
			c-0.5-0.7-1.4-2.1-1.5-2.2c-1.4-1.7-5.2-4.1-7.7-3.1c-1.8,0.7-2.4,2.7-1.6,4.2c0.8,1.6,2.9,2.3,4.6,2.5c1.9,0.3,5.8-0.9,6.3-1
			C454.2,458.9,454.5,459.9,454.9,461z"/>
		<path class="st2" d="M472.7,407.6c0,0,0.5-3,0.5-3.2c0.1-2.2-1.1-6.6-3.5-7.3c-1.8-0.5-3.5,0.7-4,2.4c-0.5,1.7,0.5,3.6,1.6,4.9
			C468.6,405.9,472.7,407.6,472.7,407.6z"/>
	</g>
	<g>
		<path class="st2" d="M11.3,434.7c1.1,0.3,3.7-0.2,3.7-0.2c0,0-0.7-1.5-0.8-1.6c-0.7-1.1-2.7-2.7-4.1-2.2c-1,0.3-1.5,1.4-1.2,2.3
			C9.3,433.9,10.4,434.5,11.3,434.7z"/>
		<path class="st2" d="M27.4,461.7c0,0.1,0,0.1,0,0.2l1,0.2c-0.1-0.2-0.1-0.4-0.2-0.7c-0.2-0.6-0.4-1.3-0.7-2
			c0.2-0.1,1.1-0.6,1.9-1.2c0.8,0.7,2.9,1.3,3.1,1.4c-0.2,0.7-0.4,1.3-0.6,1.9c-0.1,0.4-0.3,0.8-0.4,1.2l1-0.2
			c0.1-0.3,0.2-0.6,0.3-0.8c0.2-0.7,0.4-1.4,0.6-2.1c0.3,0,2.6,0.1,3.6-0.3c0.9-0.4,2-1.1,2.4-2c0.3-1-0.2-2-1.2-2.2
			c-1.4-0.2-3.4,1.6-4.1,2.8c0,0.1-0.4,0.8-0.6,1.3c0.1-0.3,0.2-0.6,0.2-0.9c0.2-0.6,0.3-1.2,0.5-1.9c0.1-0.3,0.1-0.7,0.2-1
			c0.1-0.3,0.1-0.7,0.2-1c0.1-0.8,0.2-1.6,0.2-2.4c0.6,0.1,2.5,0.4,3.5,0.2c1-0.2,2.2-0.8,2.7-1.7c0.5-0.9,0.2-2-0.8-2.3
			c-1.4-0.4-3.6,1.1-4.5,2.2c-0.1,0.1-0.6,0.9-0.9,1.3c0-0.5,0.1-1,0.1-1.5c0-1.4,0-2.9,0-4.3c0-0.4,0-0.9,0-1.3
			c0.2,0,2.5,0.5,3.6,0.2c1-0.2,2.2-0.8,2.7-1.7c0.5-0.9,0.2-2-0.8-2.3c-1.4-0.4-3.6,1.1-4.5,2.2c-0.1,0.1-0.8,1.2-1,1.5
			c0-1,0-1.9,0.1-2.9c0.1-1.3,0.2-2.6,0.5-3.9c0.1,0,2.5,0.5,3.6,0.3c1-0.2,2.2-0.8,2.7-1.7c0.5-0.9,0.2-2-0.8-2.3
			c-1.4-0.4-3.6,1.1-4.5,2.2c-0.1,0.1-0.9,1.3-1,1.6c0-0.1,0-0.2,0-0.2c0.3-1.3,0.7-2.6,1.2-3.8c0.3-0.7,0.6-1.3,0.9-1.9
			c0.4,0.1,2.5,0.7,3.5,0.6c1-0.1,2.2-0.5,2.8-1.4c0.6-0.9,0.4-2-0.6-2.4c-1.3-0.6-3.7,0.7-4.6,1.7c-0.1,0.1-0.5,0.6-0.9,1.1
			c0.1-0.3,0.3-0.6,0.4-0.8c0.5-1,1.1-1.9,1.6-2.6c0.3-0.4,0.5-0.8,0.8-1.2c0.5-0.1,2.6-0.5,3.5-1c0.9-0.5,1.8-1.4,1.9-2.5
			c0.1-1-0.6-1.9-1.7-1.8c-1.5,0.1-3,2.3-3.4,3.5c0,0.1-0.4,1.8-0.4,1.8c0,0,0,0,0,0c-0.2,0.3-0.5,0.7-0.8,1.1
			c-0.5,0.8-1.1,1.6-1.6,2.6c-0.6,1-1.1,2.1-1.6,3.2c-0.5,1.2-1,2.5-1.3,3.8c0,0,0,0,0,0c0-0.4-0.2-1.6-0.2-1.7
			c-0.3-1.2-1.6-3.4-3.1-3.4c-1.1,0-1.9,0.9-1.9,1.9c0,1,0.9,1.9,1.7,2.4c0.9,0.6,3.3,0.9,3.5,0.9c-0.3,1.3-0.5,2.6-0.6,4
			c-0.1,0.8-0.1,1.6-0.1,2.4c0-0.4-0.1-0.7-0.1-0.7c-0.3-1.2-1.6-3.4-3.1-3.4c-1.1,0-1.9,0.9-1.9,1.9c0,1,0.9,1.9,1.7,2.4
			c0.8,0.5,2.8,0.8,3.4,0.9c0,0.3,0,0.6,0,0.9c0,1.5-0.1,2.9-0.1,4.3c0,0.5-0.1,1-0.1,1.5c0-0.3-0.1-0.6-0.1-0.6
			c-0.3-1.2-1.6-3.4-3.1-3.4c-1.1,0-1.9,0.9-1.9,1.9c0,1,0.9,1.9,1.7,2.4c0.8,0.5,2.6,0.8,3.3,0.9c-0.1,0.5-0.1,1-0.2,1.5
			c-0.1,0.3-0.1,0.7-0.2,1c-0.1,0.3-0.1,0.7-0.2,1c-0.2,0.6-0.3,1.3-0.5,1.9c-0.1,0.4-0.2,0.8-0.4,1.2c0-0.5,0.1-1.5,0.1-1.6
			c-0.1-0.8-0.5-2.2-1.2-3c0-0.1,0-0.2-0.1-0.4c-0.3-0.9-1.3-1.5-2.3-1.1c-1.4,0.6-2,3.1-2,4.4c0,0.1,0.1,0.9,0.2,1.4
			c-0.1-0.3-0.2-0.6-0.3-0.9c-0.2-0.6-0.4-1.2-0.7-1.8c-0.1-0.3-0.3-0.6-0.4-0.9c-0.1-0.3-0.3-0.6-0.4-0.9c-0.4-0.7-0.8-1.4-1.2-2.1
			c0.5-0.2,2.4-1,3.2-1.7c0.7-0.7,1.5-1.8,1.3-2.8c-0.1-1-1-1.7-2.1-1.4c-1.5,0.4-2.5,2.8-2.6,4.1c0,0.1,0,1,0,1.5
			c-0.3-0.4-0.5-0.8-0.8-1.2c-0.8-1.2-1.6-2.3-2.5-3.5c-0.3-0.4-0.5-0.7-0.8-1.1c0.2-0.1,2.5-1,3.3-1.7c0.7-0.7,1.5-1.8,1.3-2.8
			c-0.1-1-1-1.7-2.1-1.4c-1.5,0.4-2.5,2.8-2.6,4.1c0,0.1,0,1.4,0,1.8c-0.6-0.8-1.1-1.6-1.6-2.4c-0.7-1.1-1.3-2.2-1.8-3.4
			c0.1,0,2.5-0.9,3.3-1.8c0.7-0.7,1.5-1.8,1.3-2.8c-0.1-1-1-1.7-2.1-1.4c-1.5,0.4-2.5,2.8-2.6,4.1c0,0.1,0,1.5,0,1.8
			c0-0.1-0.1-0.1-0.1-0.2c-0.5-1.2-0.9-2.5-1.1-3.7c-0.2-0.7-0.3-1.4-0.4-2c0.5-0.1,2.6-0.7,3.4-1.4c0.8-0.6,1.6-1.6,1.6-2.6
			c0-1-0.8-1.8-1.9-1.6c-1.5,0.2-2.8,2.6-3.1,3.8c0,0.1-0.1,0.8-0.1,1.3c0-0.3-0.1-0.6-0.1-0.9c-0.1-1.1-0.1-2.1-0.2-2.9
			c0-0.5,0-1,0-1.4c0.4-0.3,2-1.8,2.4-2.7c0.4-0.9,0.7-2.1,0.3-3c-0.5-0.9-1.6-1.2-2.5-0.6c-1.2,0.9-1.3,3.4-1,4.7
			c0,0.1,0.7,1.7,0.7,1.7c0,0,0,0,0,0c0,0.4,0,0.8,0,1.3c0,0.9,0,1.9,0.1,3c0.1,1.1,0.2,2.3,0.4,3.5c0.2,1.2,0.6,2.5,1.1,3.7
			c0,0,0,0,0,0c-0.3-0.3-1.1-1.2-1.1-1.2c-1-0.8-3.4-1.8-4.7-1.1c-0.9,0.6-1.1,1.7-0.5,2.5c0.6,0.8,1.8,1,2.8,1c1.1,0,3.4-1,3.5-1.1
			c0.5,1.2,1.1,2.4,1.8,3.5c0.4,0.7,0.8,1.3,1.2,2c-0.2-0.3-0.5-0.5-0.5-0.5c-1-0.8-3.4-1.8-4.7-1.1c-0.9,0.6-1.1,1.7-0.5,2.5
			c0.6,0.8,1.8,1,2.8,1c1,0,2.9-0.8,3.4-1.1c0.2,0.2,0.3,0.5,0.5,0.7c0.8,1.2,1.6,2.3,2.4,3.5c0.3,0.4,0.5,0.8,0.8,1.2
			c-0.2-0.2-0.4-0.4-0.4-0.5c-1-0.8-3.4-1.8-4.7-1.1c-0.9,0.6-1.1,1.7-0.5,2.5c0.6,0.8,1.8,1,2.8,1c1,0,2.7-0.8,3.4-1
			c0.2,0.4,0.5,0.9,0.7,1.3c0.1,0.3,0.3,0.6,0.4,0.9c0.1,0.3,0.2,0.6,0.4,0.9c0.2,0.6,0.4,1.2,0.6,1.8c0.1,0.4,0.3,0.8,0.4,1.2
			c-0.3-0.4-0.8-1.2-0.8-1.3c-0.8-1-3-2.3-4.4-1.8c-1,0.4-1.4,1.6-0.9,2.4c0.5,0.9,1.6,1.3,2.6,1.4c1.1,0.1,3.3-0.5,3.6-0.6
			C27.1,460.5,27.3,461.1,27.4,461.7z"/>
		<path class="st2" d="M37.6,431.2c0,0,0.3-1.7,0.3-1.8c0.1-1.3-0.6-3.7-2-4.2c-1-0.3-2,0.4-2.3,1.4c-0.3,1,0.3,2.1,0.9,2.8
			C35.3,430.2,37.6,431.2,37.6,431.2z"/>
	</g>
</g>
<g id="Graphics">
	<g>
		
			<ellipse transform="matrix(0.8281 -0.5606 0.5606 0.8281 -62.9651 45.5967)" class="st1" cx="42.9" cy="125.5" rx="16.2" ry="16.2"/>
		<path class="st1" d="M48.6,123.6c0,3.2-2.6,5.8-5.8,5.8c-3.2,0-5.8-2.6-5.8-5.8c0-3.2,2.6-5.8,5.8-5.8
			C46,117.9,48.6,120.4,48.6,123.6z"/>
		<path class="st1" d="M42.9,141.7c3.7,0,7-1.2,9.8-3.3c-0.8-4.7-4.8-8.3-9.8-8.3s-9,3.6-9.8,8.3C35.8,140.4,39.2,141.7,42.9,141.7z
			"/>
	</g>
	<g>
		<circle class="st1" cx="42.9" cy="166.2" r="16.2"/>
		<path class="st1" d="M48.6,164.3c0,3.2-2.6,5.8-5.8,5.8c-3.2,0-5.8-2.6-5.8-5.8c0-3.2,2.6-5.8,5.8-5.8
			C46,158.6,48.6,161.2,48.6,164.3z"/>
		<path class="st1" d="M42.9,182.4c3.7,0,7-1.2,9.8-3.3c-0.8-4.7-4.8-8.3-9.8-8.3s-9,3.6-9.8,8.3C35.8,181.2,39.2,182.4,42.9,182.4z
			"/>
	</g>
	<g>
		<circle class="st1" cx="42.9" cy="206.9" r="16.2"/>
		<path class="st1" d="M48.6,205.1c0,3.2-2.6,5.8-5.8,5.8c-3.2,0-5.8-2.6-5.8-5.8c0-3.2,2.6-5.8,5.8-5.8
			C46,199.3,48.6,201.9,48.6,205.1z"/>
		<path class="st1" d="M42.9,223.1c3.7,0,7-1.2,9.8-3.3c-0.8-4.7-4.8-8.3-9.8-8.3s-9,3.6-9.8,8.3C35.8,221.9,39.2,223.1,42.9,223.1z
			"/>
	</g>
	<g>
		
			<ellipse transform="matrix(0.8281 -0.5606 0.5606 0.8281 -131.4713 66.6061)" class="st1" cx="42.9" cy="247.7" rx="16.2" ry="16.2"/>
		<path class="st1" d="M48.6,245.8c0,3.2-2.6,5.8-5.8,5.8c-3.2,0-5.8-2.6-5.8-5.8c0-3.2,2.6-5.8,5.8-5.8
			C46,240.1,48.6,242.6,48.6,245.8z"/>
		<path class="st1" d="M42.9,263.9c3.7,0,7-1.2,9.8-3.3c-0.8-4.7-4.8-8.3-9.8-8.3s-9,3.6-9.8,8.3C35.8,262.6,39.2,263.9,42.9,263.9z
			"/>
	</g>
	<g>
		<g>
			<rect x="390.1" y="91.4" class="st1" width="69.4" height="4.7"/>
			<rect x="390.1" y="100.7" class="st1" width="34.4" height="4.7"/>
			<rect x="390.1" y="110.1" class="st1" width="47" height="4.7"/>
			<rect x="390.1" y="119.4" class="st1" width="29" height="4.7"/>
			<rect x="390.1" y="128.8" class="st1" width="53.2" height="4.7"/>
			<rect x="390.1" y="138.1" class="st1" width="36.9" height="4.7"/>
			<rect x="390.1" y="147.5" class="st1" width="41.4" height="4.7"/>
		</g>
		<line class="st1" x1="390.7" y1="82.5" x2="425.6" y2="82.5"/>
		<line class="st1" x1="390.7" y1="76.6" x2="425.6" y2="76.6"/>
	</g>
	<g>
		<polyline class="st1" points="168.1,103 207.6,34.6 217.3,34.6 		"/>
		<g>
			<line class="st1" x1="226.4" y1="35.1" x2="250.7" y2="35.1"/>
			<line class="st1" x1="226.4" y1="41.2" x2="250.7" y2="41.2"/>
			<line class="st1" x1="226.4" y1="47.3" x2="250.7" y2="47.3"/>
		</g>
	</g>
</g>
<g id="Character_2">
	<g>
		<path class="st3" d="M399.7,203.4c0,0-10,1.9-12,7.2c-2,5.3,1,6.7,1,6.7s-8.2,4.4-6.6,9.6c1.6,5.2,7.3,7.7,7.3,7.7
			s2.3,1.6,1.9,2.6c-0.4,1-1.9,0.7-1.9,0.7s2.9,2.7,7.2,3.7c4.3,1,11.2,2.3,17.2,1c6-1.3,10.6-4.2,10.6-4.2s-4,0.3-2.3-2.4
			c1.7-2.7,8.7-3.9,7.9-11.9c-0.9-8-3.3-7-5.2-10.5c-1.9-3.4,0.6-5.9-5.2-9.9c-5.7-4-15.8-7-18.9-5.9
			C397.5,199.1,399.7,203.4,399.7,203.4z"/>
		<g>
			<path class="st4" d="M381.2,294.5c0,0-10.3,13.2-11.8,32.2c-1.5,19,12,59.5,12.3,61.1c0.3,1.6,1.8,15.9,7,27.7
				c5.2,11.8,8.6,29.8,8.6,29.8s-0.8,3.7-0.8,4.2c0,0.5-6.6,6.8-8.9,8.1c-2.3,1.3-7.1,1.8-7,4.1c0.2,2.3,11,2.6,14.6,2.4
				c3.6-0.2,11.7-1.3,12.8-1.3c1.1,0,6.3,0.3,6.2-2.9c-0.2-3.2-4.6-17-4.6-17s-3.1-21.1-3.1-27.7c0-6.6-0.3-22.4-0.3-22.4
				s12,25.6,14.6,32.6c2.6,7,5.2,17,5.5,18.2c0.3,1.1,1.1,13.6,4.7,17.8c3.6,4.2,5.8,3.8,8,3.9c2.4,0.1,5.6-2.1,3.6-8
				c-1.9-5.8-6.8-9.9-7.8-15.7c-1-5.8-1.5-20.4-1.5-35.3c0-14.9-5.8-29.8-5.8-29.8s4.4-25.3,2.3-44.7c-2.1-19.5-9.9-33.9-9.9-33.9
				l-0.5-2.1l-37-3.6L381.2,294.5z"/>
			<g>
				<path class="st1" d="M403.8,379.4c-1.4-5.9-3.2-14.5-3.5-19.2c-0.4-7.5-0.2-28.2-0.2-28.2"/>
				<path class="st1" d="M405.3,385.7c0,0-0.3-1.3-0.9-3.5"/>
				<path class="st1" d="M388.7,322.6c2.2,3.2,5.4,7.2,8.3,8.4"/>
				<path class="st1" d="M386.1,318.5c0,0,0.4,0.8,1.2,1.9"/>
				<line class="st1" x1="402.9" y1="329" x2="411.6" y2="317.7"/>
			</g>
			<path class="st5" d="M412.7,453.8c-1.1,0.1-2.2,0.3-4.5,0.2c-5.6-0.2-11.7-4.5-11.7-4.5c0,0.5-6.6,6.8-8.9,8.1
				c-2.3,1.3-7.1,1.8-7,4.1c0.2,2.3,11,2.6,14.6,2.4c3.6-0.2,11.7-1.3,12.8-1.3c1.1,0,6.3,0.3,6.2-2.9
				C414.1,458.8,413.6,455.5,412.7,453.8z"/>
			<path class="st5" d="M436,445.1c-1,1.7-2.4,3.9-4.4,4c-2.4,0.2-4.2-1.8-4.9-2.9c0.5,4.2,1.7,12,4.3,15.2c3.6,4.2,5.8,3.8,8,3.9
				c2.4,0.1,5.6-2.1,3.6-8C441.1,452.7,437.8,449.2,436,445.1z"/>
		</g>
		<path class="st5" d="M397,233c0,0,0.6,8.3,0.1,9.7c-0.4,1.4-5.4,1.6-6.3,1.3c-0.9-0.3-6.7-1.4-9.6,0c-2.9,1.4-6.6,7.7-7.3,9
			c-0.7,1.3-2.9,3.2-2.9,3.2s-5.2-19.9-5.2-21.5c0-1.6,1-6.3-2.3-12.5s-5.9-10.2-8.3-12c-2.4-1.9-4.9-2-5-0.6
			c-0.1,1.4,1,2.3,1.9,3.3c0.9,1,3,5.4,3,5.4s-5.3,8.7-5.4,10.7c-0.1,2-0.4,2.4,1,4c1.4,1.6,6.3,4,6.3,4s-0.3,6.7,0.7,12.7
			c1,6-1.6,14.6,2.1,22.1c3.7,7.4,9,9.2,9.9,8.5c0.9-0.7,10.2-7.2,10.2-7.2s1.1,14.3,1.3,14.9s-0.7,4.7,0,6.3
			c0.7,1.6,3.2,4.7,16.3,5.4c13.2,0.7,21.8-1,22.5-2.1c0.7-1.1,0.4-3.2,0.4-4.2c0-1,2.1-16.3,2.1-16.3s4.7,11.3,5.3,12.9
			s1.7,5.9,1.7,5.9s-0.4,11,1.4,16c1.9,5,4,9.9,4,9.9l2.6,16.4c0,0-1.4,2.9-1.1,4.9c0.3,2,0.8,6.7,0.8,7.5c0,0.7,0,2.9,1.1,3.2
			c1.1,0.3,2.1-2.7,2.1-2.7s0.7,5.6,0.6,6.4c-0.1,0.9,1.3,3.6,2.6,0.7c0.5-1.1,0.9-2.9,1.1-3.4c0.3-0.6,1.7-3.6,2.1-5.7
			c0.4-2.1,0.6-4.5-1-9.5c-0.4-1.2-1.6-3.7-1.6-4.2c0-0.4,0.7-19.7-0.1-27.1c-0.9-7.4-3.3-14-3.3-14s-3.4-22.5-3.4-23.3
			c0-0.9,0.6-11.3-3.2-16.3c-3.7-5-10.3-6-14.3-7c-4-1-8.3-2.6-9-3c-0.7-0.4-0.9-9.9-0.9-9.9L397,233z"/>
		<path class="st5" d="M373.1,278.1c3-2.1,6.8-4.8,6.8-4.8s1.1,14.3,1.3,14.9c0.1,0.6-0.7,4.7,0,6.3c0.7,1.6,3.2,4.7,16.3,5.4
			c13.2,0.7,21.8-1,22.5-2.1c0.7-1.1,0.4-3.2,0.4-4.2c0-1,2.1-16.3,2.1-16.3s3.8,9.1,5,12.1c2.9-0.3,7.6-1.3,12.1-4
			c-1-6.4-2.1-14-2.1-14.5c0-0.9,0.6-11.3-3.2-16.3c-3.7-5-10.3-6-14.3-7c-4-1-8.3-2.6-9-3c-0.7-0.4-0.9-9.9-0.9-9.9L397,233
			c0,0,0.6,8.3,0.1,9.7c-0.4,1.4-5.4,1.6-6.3,1.3c-0.9-0.3-6.7-1.4-9.6,0c-2.9,1.4-6.6,7.7-7.3,9c-0.7,1.3-2.9,3.2-2.9,3.2
			s4.3,5.7,4.2,11.9C375.1,272.6,374,276.2,373.1,278.1z"/>
		<path class="st5" d="M418.8,247.3c-3.6-1-7-2.3-7.6-2.6c-0.7-0.4-0.9-9.9-0.9-9.9L397,233c0,0,0.6,8.3,0.1,9.7
			c-0.4,1.3-4.5,1.5-5.9,1.4c0,3.2,1.1,10.4,9.7,12.1C408.2,257.7,415,251.5,418.8,247.3z"/>
		<polygon class="st3" points="403.3,238.5 397.6,238.9 397,233 		"/>
		<path class="st1" d="M400.8,256.2c0,0-3,11.9-2.6,15"/>
		<path class="st1" d="M380.7,258.5c0.8-1.8,1.5-3,1.5-3"/>
		<path class="st1" d="M379.9,273.3c0,0-1.3-2.7-1-7.9c0.1-1.8,0.5-3.6,1.1-5.1"/>
		<line class="st1" x1="422.6" y1="277.3" x2="424.3" y2="267.7"/>
		<g>
			<path class="st5" d="M402.3,204.8l-9.2,6.3c0,0-0.3,3.7-0.3,7.7c0,4-1.1,7.4,0.9,11.2s6.3,8.5,9.6,8.5c3.3,0,7.4-1.9,10-3.9
				c2.6-2,3.9-5.9,3.9-5.9s3.6-1.4,3.3-3.7c-0.3-2.3-0.7-3.9-1.3-4c-0.6-0.1-1.9-0.4-1.9-0.4l-1.9-7.7
				C415.4,212.9,404.8,208.4,402.3,204.8z"/>
			<path class="st1" d="M403.1,214.4v2.1c0,0-3.2,2.6-1.9,3.6c1.3,1,2,0.4,2.6,0.3"/>
			<path class="st1" d="M399.4,225.2c0,0,3.4,3.7,8.6-0.3"/>
			<path class="st1" d="M396,213.1c0,0,1.9-1.9,5.4-1"/>
			<path class="st1" d="M405.7,212c0,0,3.3-1.4,5.9,1.1"/>
			<path class="st2" d="M399.8,215.9c0,0.7-0.4,1.2-0.9,1.2c-0.5,0-0.9-0.5-0.9-1.2c0-0.7,0.4-1.2,0.9-1.2
				C399.4,214.7,399.8,215.3,399.8,215.9z"/>
			<path class="st2" d="M409.6,215.9c0,0.7-0.4,1.2-0.9,1.2c-0.5,0-0.9-0.5-0.9-1.2c0-0.7,0.4-1.2,0.9-1.2
				C409.2,214.7,409.6,215.3,409.6,215.9z"/>
			<path class="st5" d="M392.7,220.7c0,0-2.9-1.6-3,1.3c-0.1,2.9,2.4,5,2.4,5L392.7,220.7z"/>
		</g>
		<path class="st5" d="M355.1,218.4c0,0-2.8-0.8-4,1.6c-1.2,2.4,0.8,5,2.3,5.9c1.5,0.9,2.7,0.7,2.8-1.1c0.1-1.8-1.6-4.1-1.6-4.1
			L355.1,218.4z"/>
		<path class="st5" d="M350.6,221.7c0,0-2.6,2-2.3,3.6c0.3,1.6,3.4,3.8,5,3.6c1.6-0.1,1.1-2.3,1.1-2.3S351.3,223.7,350.6,221.7z"/>
		<path class="st5" d="M349.1,227.1c0,0-2,1.5-0.9,3.4c1.1,1.9,3.9,2.4,4.9,1.3c0.9-1.1,0.3-2.8,0.3-2.8S349.2,228,349.1,227.1z"/>
		<path class="st5" d="M361,233.4c0,0-1.2-2-1.1-4.6c0.1-2.6,2.4-5.8,2.4-5.8s-0.4-0.9-0.7-2.2c-0.3-1.2-1.9-5.7-0.4-7.6
			c1.5-1.9,2.7,1.2,3.6,4.1c0.9,2.8,1.6,4.3,1.6,4.3s1.1,3.2,0.5,5.8c-0.5,2.6-2,7.2-2,7.2"/>
	</g>
</g>
<g id="Profile_3">
	<g>
		<g>
			<g>
				<line class="st5" x1="240.3" y1="365" x2="319.7" y2="365"/>
				<rect x="230.6" y="361.6" class="st4" width="5.3" height="5.3"/>
			</g>
			<g>
				<line class="st5" x1="240.3" y1="376.6" x2="319.7" y2="376.6"/>
				<rect x="230.6" y="373.2" class="st4" width="5.3" height="5.3"/>
			</g>
			<g>
				<line class="st5" x1="240.3" y1="388.2" x2="319.7" y2="388.2"/>
				<rect x="230.6" y="384.8" class="st4" width="5.3" height="5.3"/>
			</g>
			<g>
				<line class="st5" x1="240.3" y1="399.8" x2="319.7" y2="399.8"/>
				<rect x="230.6" y="396.4" class="st4" width="5.3" height="5.3"/>
			</g>
		</g>
		<rect x="169.2" y="300.4" class="st1" width="195" height="121"/>
		<rect x="169.2" y="300.4" class="st1" width="195" height="9.7"/>
		<line class="st1" x1="220.3" y1="310.8" x2="220.3" y2="420.3"/>
		<g>
			<circle class="st1" cx="246.4" cy="335.7" r="16.8"/>
			<path class="st1" d="M252.4,333.8c0,3.3-2.7,6-6,6c-3.3,0-6-2.7-6-6c0-3.3,2.7-6,6-6C249.7,327.8,252.4,330.5,252.4,333.8z"/>
			<path class="st1" d="M246.4,352.6c3.8,0,7.3-1.3,10.1-3.4c-0.8-4.9-5-8.6-10.1-8.6c-5.1,0-9.3,3.7-10.1,8.6
				C239.1,351.3,242.6,352.6,246.4,352.6z"/>
		</g>
		<g>
			<circle class="st1" cx="195.2" cy="334.5" r="8.1"/>
			<path class="st1" d="M198.1,333.6c0,1.6-1.3,2.9-2.9,2.9s-2.9-1.3-2.9-2.9s1.3-2.9,2.9-2.9S198.1,332,198.1,333.6z"/>
			<path class="st1" d="M195.2,342.6c1.8,0,3.5-0.6,4.9-1.6c-0.4-2.3-2.4-4.1-4.9-4.1c-2.5,0-4.5,1.8-4.9,4.1
				C191.7,342,193.4,342.6,195.2,342.6z"/>
		</g>
		<g>
			<circle class="st1" cx="195.2" cy="368.4" r="8.1"/>
			<path class="st1" d="M198.1,367.5c0,1.6-1.3,2.9-2.9,2.9s-2.9-1.3-2.9-2.9s1.3-2.9,2.9-2.9S198.1,365.9,198.1,367.5z"/>
			<path class="st1" d="M195.2,376.5c1.8,0,3.5-0.6,4.9-1.6c-0.4-2.3-2.4-4.1-4.9-4.1c-2.5,0-4.5,1.8-4.9,4.1
				C191.7,375.9,193.4,376.5,195.2,376.5z"/>
		</g>
		<g>
			<circle class="st1" cx="195.2" cy="402.3" r="8.1"/>
			<path class="st1" d="M198.1,401.4c0,1.6-1.3,2.9-2.9,2.9s-2.9-1.3-2.9-2.9c0-1.6,1.3-2.9,2.9-2.9S198.1,399.8,198.1,401.4z"/>
			<path class="st1" d="M195.2,410.4c1.8,0,3.5-0.6,4.9-1.6c-0.4-2.3-2.4-4.1-4.9-4.1c-2.5,0-4.5,1.8-4.9,4.1
				C191.7,409.8,193.4,410.4,195.2,410.4z"/>
		</g>
		<line class="st1" x1="272.3" y1="326.1" x2="314.9" y2="326.1"/>
		<line class="st1" x1="272.3" y1="335.9" x2="314.9" y2="335.9"/>
		<line class="st1" x1="272.3" y1="345.7" x2="314.9" y2="345.7"/>
	</g>
</g>
<g id="Profile_2">
	<g>
		<rect x="233.5" y="68.8" class="st1" width="134" height="197.5"/>
		<circle class="st5" cx="297.1" cy="130.8" r="42.9"/>
		<line class="st5" x1="252.6" y1="187.6" x2="343.1" y2="187.6"/>
		<line class="st5" x1="252.6" y1="196.8" x2="343.1" y2="196.8"/>
		<g>
			<g>
				<line class="st5" x1="263.6" y1="212.3" x2="343.1" y2="212.3"/>
				<rect x="254" y="208.9" class="st4" width="5.3" height="5.3"/>
			</g>
			<g>
				<line class="st5" x1="263.6" y1="223.9" x2="343.1" y2="223.9"/>
				<rect x="254" y="220.5" class="st4" width="5.3" height="5.3"/>
			</g>
			<g>
				<line class="st5" x1="263.6" y1="235.5" x2="343.1" y2="235.5"/>
				<rect x="254" y="232.1" class="st4" width="5.3" height="5.3"/>
			</g>
			<g>
				<line class="st5" x1="263.6" y1="247.1" x2="343.1" y2="247.1"/>
				<rect x="254" y="243.7" class="st4" width="5.3" height="5.3"/>
			</g>
		</g>
		<g>
			<path class="st6" d="M287.6,102.4c0,0,5.6-9.6,18-9.2c12.4,0.4,15.4,14,15,18c-0.4,4-1.8,6.6-1.8,6.6l-5.4-4.6
				c0,0,5.5,5,8.5,13.1c3,8,1.6,18.4-2.2,20.8c-3.8,2.4-6.4,1.4-6.4,1.4l0.4-5.4c0,0-3.6,6.4-9.6,7.6c-6,1.2-23.2,2-25.8-1
				s-3.2-6.4-3.2-6.4l-0.4,5.2c0,0-5.4-4-5.6-8.6c-0.2-4.6,2.6-11,4-14.4c1.4-3.4,2.4-5.2,2.8-10.4c0.4-5.2-0.2-8,3.4-11.4
				C282.8,100.2,287.6,102.4,287.6,102.4z"/>
			<g>
				<path class="st7" d="M279.2,157c-3.3,1.4-8.7,2.7-12.3,4.3c7.8,7.7,18.4,12.4,30.2,12.4c11.7,0,22.3-4.7,30.1-12.3
					c-0.9-0.5-2.3-1-4.4-1.6c-6.4-1.8-15.5-7-16.6-8.8c-1.1-1.8-2.1-8-2.1-8l-14.8-2c0,0,0.7,7.8,0.7,9.2S284.2,154.9,279.2,157z"/>
				<path class="st7" d="M285.4,123.8c0,0,1.2-9,4-13.8c2.8-4.8,8.8-3.4,11.2-1.8c2.4,1.6,6.2,10.2,8.4,15.8
					c2.2,5.6,3.2,8.8,3.2,8.8s-3.5,7.3-8.2,10.2c-5,3.1-10.5,3-14.8-2c-2.4-2.8-3.6-5.8-3.6-5.8s-5-1.6-6.2-5.8
					c-1.2-4.2-0.2-6.4,1.8-7C283.2,121.8,285.4,123.8,285.4,123.8z"/>
				<path class="st8" d="M301,120.8c0,0-0.2,3,1.4,5.2c1.6,2.2,0.2,4.6-2.6,4"/>
				<path class="st8" d="M302.4,133.6c0,0-6.8,3.2-10-3.2"/>
				<path class="st2" d="M293.6,124c0,0.9,0.4,1.6,0.8,1.6s0.8-0.7,0.8-1.6c0-0.9-0.4-1.6-0.8-1.6S293.6,123.1,293.6,124z"/>
				<path class="st2" d="M303.4,124c0,0.9,0.4,1.6,0.8,1.6c0.4,0,0.8-0.7,0.8-1.6c0-0.9-0.4-1.6-0.8-1.6
					C303.8,122.4,303.4,123.1,303.4,124z"/>
				<path class="st8" d="M296,117c0,0-2.2-1.6-4.6,0.6"/>
				<path class="st8" d="M301.8,117.4c0,0,1.6-1.8,3.8-0.8"/>
			</g>
			<path class="st9" d="M313.3,155.9l-15.5,14.7l-15.1-15.2c-1.1,0.6-2.3,1.1-3.4,1.6c-3.3,1.4-8.7,2.7-12.3,4.3
				c7.8,7.7,18.4,12.4,30.2,12.4c11.7,0,22.3-4.7,30.1-12.3c-0.9-0.5-2.3-1-4.4-1.6C319.8,159,316.3,157.5,313.3,155.9z"/>
		</g>
	</g>
</g>
<g id="Profile_1">
	<g>
		<g>
			<rect x="79.1" y="68.8" class="st1" width="134" height="197.5"/>
			<line class="st5" x1="98.3" y1="187.6" x2="188.7" y2="187.6"/>
			<line class="st5" x1="98.3" y1="196.8" x2="188.7" y2="196.8"/>
			<g>
				<line class="st5" x1="109.3" y1="212.3" x2="188.7" y2="212.3"/>
				<rect x="99.6" y="208.9" class="st4" width="5.3" height="5.3"/>
			</g>
			<g>
				<line class="st5" x1="109.3" y1="223.9" x2="188.7" y2="223.9"/>
				<rect x="99.6" y="220.5" class="st4" width="5.3" height="5.3"/>
			</g>
			<g>
				<line class="st5" x1="109.3" y1="235.5" x2="188.7" y2="235.5"/>
				<rect x="99.6" y="232.1" class="st4" width="5.3" height="5.3"/>
			</g>
			<g>
				<line class="st5" x1="109.3" y1="247.1" x2="188.7" y2="247.1"/>
				<rect x="99.6" y="243.7" class="st4" width="5.3" height="5.3"/>
			</g>
		</g>
		<g>
			<circle class="st5" cx="142.7" cy="130.8" r="42.9"/>
			<path class="st6" d="M120.4,149.7l-10.7,8.6c7.9,9.5,19.7,15.5,33,15.5c13,0,24.6-5.8,32.5-14.9L159,148.3L120.4,149.7z"/>
			<g>
				<g>
					<path class="st9" d="M133.8,137.6c0,0-9.4,1.2-12.1,5.1c-2.6,3.8-4.5,7.5-2.6,9.8c1.9,2.3,7.3,7.2,10.5,9.3s8.1,9.3,8.1,9.3
						s0.7-5.3,0.7-9.1c0-3.8-3.3-8-4-11.5c-0.7-3.5,5.1-9.1,9.1-7.3c4,1.7,7.2,7,7,9.4c-0.2,2.4,0.7,5.4,1.6,9.6
						c0.9,4.2,1.6,7.8,1.6,7.8s5.9-6,7.9-12.5c1.9-6.5,1-13.1-6.1-17.5C148.2,135.5,133.8,137.6,133.8,137.6z"/>
					<path class="st9" d="M158.4,142.2c-0.9-0.9-1.9-1.7-3.1-2.4c-7.2-4.4-21.5-2.3-21.5-2.3s-9.4,1.2-12.1,5.1
						c-0.3,0.4-0.6,0.9-0.9,1.3c-0.3,1.9,0,4.2,1.6,6.7c3.9,6.2,12,9.2,15.9,11c-0.1-3.8-3.3-7.9-4-11.3c-0.7-3.5,5.1-9.1,9.1-7.3
						c4,1.7,7.2,7,7,9.4c-0.2,2.4,0.7,5.4,1.6,9.6c0.1,0.2,0.1,0.5,0.1,0.8c0.3-0.3,0.6-0.6,0.9-0.9c4.5-5.1,5.9-10.7,5.9-15.6
						C159,144.8,158.8,143.5,158.4,142.2z"/>
				</g>
				<g>
					<path class="st7" d="M132.3,130.7c0,0,1,12.6,1.4,16.1s2.3,12.4,8.2,14.2c5.9,1.7,9.4-5.1,8.6-10.1c-0.9-5.1-2.4-9.8-2.4-11.5
						c0-1.7-0.2-2.3-0.2-2.3L132.3,130.7z"/>
					<path class="st6" d="M147.8,137l-15.6-6.3c0,0,0.8,9.6,1.2,14.3L148,139C148,137.5,147.8,137,147.8,137z"/>
				</g>
				<g>
					<g>
						<path class="st7" d="M151.5,107.2c0,0,2.8,15.4,2.8,18.2c0,2.8-2.6,10.9-3.7,12.8c-1.2,1.9-7,3-9.3,2.1
							c-2.3-0.9-8.8-7-10.2-9.5c-1.4-2.6-1.9-4.9-1.9-4.9s-3.3,1.4-5.8-2.3c-2.6-3.7-1.2-7.2,1.4-7.4l2.3,0.7c0,0-4.2-7.2-2.8-10.5
							c1.4-3.3,18.2-4.4,21.6-4.4C149.4,101.8,151.5,107.2,151.5,107.2z"/>
						<path class="st6" d="M138.8,111l-3.7,1.6c-0.5,0.2-0.8,0.9-0.5,1.4l0.1,0.2c0.3,0.5,0.9,0.7,1.4,0.4l3.6-1.9
							c0.5-0.3,0.7-0.9,0.4-1.4l0,0C139.8,110.9,139.2,110.8,138.8,111z"/>
						<path class="st6" d="M145.7,110.2L145.7,110.2c-0.1,0.5,0.1,1,0.6,1.1l2.9,0.6c0.5,0.1,1-0.3,1-0.8l0,0c0-0.4-0.3-0.7-0.6-0.8
							l-2.8-0.7C146.2,109.5,145.8,109.7,145.7,110.2z"/>
						<path class="st10" d="M153.3,130.5c0,0-0.5-5.3-1.5-6.1c-1.1-0.8-8.9-0.2-8.9-0.2s-8-2.3-8.2-0.5c-0.1,1.3,0.2,8.4,0.6,11.8
							c2.2,2.2,4.8,4.2,6,4.7c2.3,0.9,8.1-0.2,9.3-2.1C151.3,137,152.5,133.6,153.3,130.5C153.3,130.5,153.3,130.5,153.3,130.5z
							 M151.5,131.4c-0.9,3-2.9,4.9-3.8,4.4c-0.9-0.5-1.7-3.3-2.4-3.6c-0.8-0.3-1.4,1.2-2.3,2.6c-0.9,1.4-3.3,1.8-4.4,0.9
							c-1.1-0.9-2.3-9.3-2.3-10.3c0-1.1,11.1,0.6,11.1,0.6s2.7-0.3,3.5-0.2C151.6,125.9,152.4,128.3,151.5,131.4z"/>
						<path class="st8" d="M138.1,126.1c0,0,4.4,3,9.1,2"/>
						<path class="st7" d="M144.8,113.3c0,0,2.1,9.3,2.3,10c0.2,0.8-1.5,3.2-3.3,1.8c-1.8-1.4-2.1-2.7-2.1-2.7"/>
						<path class="st2" d="M140.1,117.8c0.2,0.8,0.2,1.5-0.2,1.7c-0.4,0.1-0.9-0.4-1.1-1.3c-0.2-0.8-0.2-1.5,0.2-1.7
							C139.4,116.5,139.8,117,140.1,117.8z"/>
						<path class="st2" d="M149.1,116.6c0.1,0.8-0.1,1.5-0.5,1.6c-0.4,0-0.8-0.6-0.9-1.4c-0.1-0.8,0.1-1.5,0.5-1.6
							C148.6,115.1,149,115.7,149.1,116.6z"/>
					</g>
					<path class="st6" d="M123.3,97.2c0,0-6.1,6.1-3.7,11.2c2.3,5.1,8.1,14.7,8.1,14.7h1.2l-0.2-4c0,0,3.7-1.4,3-4.7
						c-0.7-3.3-2.3-5.4-2.3-5.4s4,3,8.6,2.3c4.7-0.7,6.7-6.3,8.4-4.4c1.6,1.9,4.2,3,9.1,0.5c4.9-2.6,8-11.2,2.7-14.7
						c-5.4-3.5-10.3-0.4-13.1,0.3c-2.8,0.7-4.9-4-11.2-2.1C127.5,92.8,123.3,97.2,123.3,97.2z"/>
				</g>
			</g>
		</g>
	</g>
</g>
<g id="Character_1">
	<g>
		<g>
			
				<ellipse transform="matrix(0.9872 -0.1595 0.1595 0.9872 -32.9188 31.871)" class="st11" cx="182.1" cy="221.1" rx="14.6" ry="14.6"/>
			<line class="st12" x1="190.3" y1="233.9" x2="206.1" y2="254.9"/>
		</g>
		<g>
			<path class="st5" d="M164.8,210.1c0,0,1,2.9,0.8,5.9c-0.2,2.9,0.2,7.2,1,7.9c0.8,0.7,3.1,2.3,2.5,3.6c-0.7,1.3-2.1,2-2.1,2
				s-0.8,4.3-2.5,7.4c-1.6,3.1-2.8,5.2-4.7,5.4s-3.1-0.3-3.1-0.3l-2.1,2.1l-16.2-3.4l0.5-7.2c0,0-4.9-8.3-4.9-16.9
				c0-8.5,8.7-13.4,13.7-13.7C152.7,202.4,162.1,204.6,164.8,210.1z"/>
			<path class="st3" d="M169,206c0,0,0.3,2.1-1.3,4.6c-1.6,2.5-6.1,3.3-6.1,3.3s-0.2,3.6-1.1,5.1c-1,1.5-3.3,2.6-3.3,2.6
				s-3.3,0.3-2.3,3.9c1,3.6,1.8,4.1,0.2,7c-1.6,2.9-11.3,6.9-14.6,4.6c-3.3-2.3-5.7-3.4-7.7-10.3c-2-6.9-3.9-16.5,1.6-23.1
				c5.6-6.5,18.2-4.9,18.2-4.9s-3.3-3.1,1.3-2.9c4.6,0.2,7.7,3.4,7.7,3.4s0.5-3.3,2.9-2.5C167.1,197.7,168.7,204.2,169,206z"/>
			<path class="st5" d="M158.6,224c0,0-2.8-5.2-4.9-3.3c-2.1,2,0,12.4,3.6,10.5"/>
			<line class="st1" x1="157.2" y1="221.6" x2="170.5" y2="221.6"/>
			<path class="st1" d="M165,218.3c0.8-0.3,1.7-0.4,2.7-0.2c1.5,0.4,2.6,1.6,3,3.1c0.4,1.8-0.3,3.4-1.6,4.3"/>
		</g>
		<path class="st5" d="M158.2,248.8c0,0,0-3.7-4.8-6.4c-4.8-2.7-14.4-6.4-18.7-5.9c-4.3,0.5-6.9,6.6-6.9,6.6s17.1,1.6,21.3,2.5
			C153.1,246.5,158.2,248.8,158.2,248.8z"/>
		<g>
			<path class="st5" d="M86.4,272.5c0,0-5.5,6.4-12.8,15.5c-7.3,9.1-13.3,18.5-13.3,18.5s-6.9,5.9-7.8,8.5
				c-0.9,2.5-3.2,9.8-4.1,11.9c-0.9,2.1,3.2-0.7,3.9-2.3c0.7-1.6,1.4-2.7,1.4-2.7l5.9-2.7c0,0-1.8,4.6,0,5.3c1.8,0.7,2.1-2.5,4.1-5
				c2.1-2.5,3.9-4.3,4.1-7.3c0.2-3,0-6.2,0-6.2l29.3-19L86.4,272.5z"/>
			<path class="st1" d="M53.7,321.9l2.7-4.1c0,0,1.9-0.5,3.7-1.6c1.8-1.1,2.6-2.4,2.6-2.4"/>
		</g>
		<path class="st5" d="M185.7,263.6l7.4-15.6c0,0,1.3-6,1.8-6.9c0.5-0.9,3.6-5.7,4.7-5.9c1.1-0.1,2.3,0.4,2.4,1.4
			c0.1,1-0.4,1.8-0.4,1.8s1.7,0.8,2.9,2.4c1.3,1.7,1.3,2.9,1.5,4c0.3,1,1.1,1.1,0.1,3.3c-1,2.2-2.7,2.8-3.6,3.4s-3.1,1.7-3.1,1.7
			s-0.1,14.7-1.9,20.4c-1.8,5.7-3.1,7.7-3.1,7.7s-3.1-10.5-4.9-12.5C188,266.8,185.7,263.6,185.7,263.6z"/>
		<path class="st4" d="M96.4,306.1c0,0-9.7,25.1-11.4,31c-1.7,5.9-5.6,17.7-7.3,32.9c-1,8.9,0.1,18.5,0.1,18.5s-3.3,6.4-7,16.2
			c-3.6,9.8-15.9,58.1-15.9,58.1s2.2,3.3,7.2,2.5c5-0.8,5-0.8,5-0.8s1.7,0.3,3.6-0.3c2-0.6,6.4-0.3,6.7-2.2c0.3-2-1.1-2.5-2.8-4.5
			c-1.7-2-4.2-8.1-4.2-8.1s13.9-24.4,19-33.3c5-8.9,12-25.6,12.3-28.1c0.3-2.5,14.2-39.4,14.2-39.4h3.1l22,36.8
			c0,0-0.8,14.8,1.7,23.4c2.5,8.6,8.4,41.2,8.4,41.2l-0.6,5.9c0,0,1.1,2.8,1.1,3.6c0,0.8,0,3.1,0,3.1s0.8,2,6.4,2
			c2.5,0,10.9-0.8,12.3-1.1c1.4-0.3,12-0.6,12.3-2c0.3-1.4,0.6-2.5-1.1-3.1c-1.7-0.6-13.7-6.1-13.7-6.1v-5c0,0-2.2-1.7-2.8-3.3
			c-0.6-1.7,0.6-46.5,0-54.3c-0.6-7.8,0.3-7.8-2-14.8c-2.2-7-11.1-55.8-11.1-55.8l-4.5-7.8l-47.4-9.8L96.4,306.1z"/>
		<g>
			<path class="st5" d="M183.1,264.1c0,0,0.9-3,4.8-1.6s9.8,12.6,8.5,18.5s-5,8-8.2,7.8c-3.2-0.2-7.1-4.1-6.2-4.6
				C182.8,283.7,183.1,264.1,183.1,264.1z"/>
			<path class="st5" d="M98.5,261.3c0,0-1.6,0-3.9-0.2c-2.3-0.2-5.5,3.7-7.3,5.9c-1.8,2.3-4.1,3.7-2.5,8.5c1.6,4.8,5.9,11,12.3,11.4
				s10.1-3,10.1-3L98.5,261.3z"/>
			<path class="st9" d="M127.8,243.1c0,0-3.7-0.5-11.4,3.9c-7.8,4.3-24.5,17.8-25.6,20.1c-1.1,2.3,2.1,12.6,6.2,14.4
				s7.8,0.5,7.8,0.5l-8.2,24.2c0,0,9.1-0.5,24.5,2.3c15.3,2.7,31.1,10.5,31.1,10.5s1.1-0.2,1.4-3.2c0.2-3,1.1-4.8,1.8-6.2
				c0.7-1.4,9.4-30.9,9.4-30.9s17.1,7.5,21.7,7.5c4.6,0,6.2-8.2,4.3-14.4c-1.8-6.2-5.7-8-5.7-8s-5.3-1.6-9.6-5.3
				c-4.3-3.7-17.1-9.8-17.1-9.8S139.9,241,127.8,243.1z"/>
			<polyline class="st1" points="157.9,273.9 164.6,278.7 155.9,276.6 			"/>
			<line class="st1" x1="112.4" y1="257.7" x2="113.6" y2="254"/>
			<line class="st1" x1="104.7" y1="281.9" x2="111.3" y2="261.3"/>
		</g>
	</g>
</g>
</svg>
