<svg width="996" height="801" viewBox="0 0 996 801" fill="none" xmlns="http://www.w3.org/2000/svg">
<path opacity="0.1" d="M285.941 691.818H148.144V512.232H259.583L285.941 539.801V691.818Z" fill="#16276F"/>
<path opacity="0.1" d="M259.583 512.232V539.391L285.941 539.801L259.583 512.232Z" fill="#16276F"/>
<path d="M226.454 583.212V591.702C226.454 593.548 225.72 595.318 224.415 596.623C223.11 597.928 221.34 598.661 219.494 598.661H134.814C132.968 598.661 131.198 599.394 129.893 600.699C128.587 602.005 127.854 603.775 127.854 605.621V718.99C127.854 720.836 128.587 722.606 129.893 723.911C131.198 725.217 132.968 725.95 134.814 725.95H299.271C301.117 725.95 302.887 725.217 304.192 723.911C305.498 722.606 306.231 720.836 306.231 718.99V583.212C306.231 581.366 305.498 579.596 304.192 578.29C302.887 576.985 301.117 576.252 299.271 576.252H233.414C231.568 576.252 229.798 576.985 228.493 578.29C227.187 579.596 226.454 581.366 226.454 583.212Z" fill="white"/>
<path opacity="0.05" d="M226.454 583.212V591.702C226.454 593.548 225.72 595.318 224.415 596.623C223.11 597.928 221.34 598.661 219.494 598.661H134.814C132.968 598.661 131.198 599.394 129.893 600.699C128.587 602.005 127.854 603.775 127.854 605.621V718.99C127.854 720.836 128.587 722.606 129.893 723.911C131.198 725.217 132.968 725.95 134.814 725.95H299.271C301.117 725.95 302.887 725.217 304.192 723.911C305.498 722.606 306.231 720.836 306.231 718.99V583.212C306.231 581.366 305.498 579.596 304.192 578.29C302.887 576.985 301.117 576.252 299.271 576.252H233.414C231.568 576.252 229.798 576.985 228.493 578.29C227.187 579.596 226.454 581.366 226.454 583.212Z" fill="#16276F"/>
<path opacity="0.1" d="M461.929 256.341H324.133V76.7548H435.572L461.929 104.324V256.341Z" fill="#16276F"/>
<path opacity="0.1" d="M435.572 76.7548V103.914L461.929 104.324L435.572 76.7548Z" fill="#16276F"/>
<path d="M402.443 147.735V156.224C402.443 157.138 402.263 158.043 401.913 158.887C401.563 159.732 401.051 160.499 400.404 161.145C399.758 161.792 398.991 162.304 398.146 162.654C397.302 163.004 396.397 163.184 395.483 163.184H310.8C308.954 163.184 307.184 163.918 305.879 165.223C304.574 166.528 303.841 168.298 303.841 170.144V283.509C303.841 285.355 304.574 287.125 305.879 288.43C307.184 289.735 308.954 290.469 310.8 290.469H475.26C477.106 290.469 478.876 289.736 480.181 288.43C481.487 287.125 482.22 285.355 482.22 283.509V147.735C482.22 145.889 481.487 144.119 480.181 142.813C478.876 141.508 477.106 140.775 475.26 140.775H409.4C407.555 140.776 405.785 141.509 404.48 142.814C403.176 144.12 402.443 145.889 402.443 147.735Z" fill="white"/>
<path opacity="0.05" d="M402.443 147.735V156.224C402.443 157.138 402.263 158.043 401.913 158.887C401.563 159.732 401.051 160.499 400.404 161.145C399.758 161.792 398.991 162.304 398.146 162.654C397.302 163.004 396.397 163.184 395.483 163.184H310.8C308.954 163.184 307.184 163.918 305.879 165.223C304.574 166.528 303.841 168.298 303.841 170.144V283.509C303.841 285.355 304.574 287.125 305.879 288.43C307.184 289.735 308.954 290.469 310.8 290.469H475.26C477.106 290.469 478.876 289.736 480.181 288.43C481.487 287.125 482.22 285.355 482.22 283.509V147.735C482.22 145.889 481.487 144.119 480.181 142.813C478.876 141.508 477.106 140.775 475.26 140.775H409.4C407.555 140.776 405.785 141.509 404.48 142.814C403.176 144.12 402.443 145.889 402.443 147.735Z" fill="#16276F"/>
<path opacity="0.1" d="M973.96 641.603H836.164V462.018H947.603L973.96 489.586V641.603Z" fill="#16276F"/>
<path opacity="0.1" d="M947.603 462.018V489.177L973.96 489.586L947.603 462.018Z" fill="#16276F"/>
<path d="M914.474 532.997V541.487C914.474 542.401 914.294 543.306 913.944 544.15C913.594 544.995 913.082 545.762 912.435 546.408C911.789 547.055 911.022 547.567 910.177 547.917C909.333 548.267 908.428 548.447 907.514 548.447H822.833C820.987 548.447 819.217 549.18 817.912 550.485C816.606 551.791 815.873 553.561 815.873 555.407V668.771C815.873 670.617 816.606 672.387 817.912 673.692C819.217 674.998 820.987 675.731 822.833 675.731H987.291C989.137 675.731 990.907 674.998 992.212 673.692C993.518 672.387 994.251 670.617 994.251 668.771V532.997C994.251 531.151 993.517 529.381 992.212 528.076C990.907 526.771 989.137 526.038 987.291 526.038H921.434C919.588 526.038 917.818 526.771 916.513 528.076C915.208 529.381 914.474 531.151 914.474 532.997V532.997Z" fill="white"/>
<path opacity="0.05" d="M914.474 532.997V541.487C914.474 542.401 914.294 543.306 913.944 544.15C913.594 544.995 913.082 545.762 912.435 546.408C911.789 547.055 911.022 547.567 910.177 547.917C909.333 548.267 908.428 548.447 907.514 548.447H822.833C820.987 548.447 819.217 549.18 817.912 550.485C816.606 551.791 815.873 553.561 815.873 555.407V668.771C815.873 670.617 816.606 672.387 817.912 673.692C819.217 674.998 820.987 675.731 822.833 675.731H987.291C989.137 675.731 990.907 674.998 992.212 673.692C993.518 672.387 994.251 670.617 994.251 668.771V532.997C994.251 531.151 993.517 529.381 992.212 528.076C990.907 526.771 989.137 526.038 987.291 526.038H921.434C919.588 526.038 917.818 526.771 916.513 528.076C915.208 529.381 914.474 531.151 914.474 532.997V532.997Z" fill="#16276F"/>
<path d="M948.219 108.199C951.777 86.4628 947.536 64.1689 936.247 45.2568C930.047 34.7699 921.827 25.6183 912.063 18.3325C902.299 11.0468 891.186 5.77191 879.368 2.81385C873.32 1.29986 867.135 0.395343 860.907 0.113848V0.0258484H829.151V4.32585C806.404 11.4978 787.33 27.2221 775.951 48.1838C768.358 43.1919 759.466 40.5421 750.379 40.5639C748.948 40.5639 747.457 40.6348 746.039 40.7708H724.58L717.568 54.0028L717.414 54.1528C717.207 54.3528 717.002 54.5528 716.803 54.7528C709.552 62.2143 704.942 71.8431 703.675 82.1698C666.744 84.8158 637.244 115.86 636.358 153.203C635.863 172.525 643.056 191.254 656.358 205.278C662.9 212.22 670.759 217.79 679.476 221.664C688.193 225.538 697.593 227.638 707.13 227.843L935.292 227.872C968.441 227.872 995.41 200.712 995.41 167.326C995.408 138.413 976.052 114.233 948.219 108.199Z" fill="#16276F"/>
<path d="M911.776 226.907C944.387 226.907 970.93 200.186 970.93 167.327C971.047 153.615 966.388 140.289 957.752 129.638C949.115 118.986 937.04 111.673 923.6 108.954C927.436 87.1665 923.284 64.7264 911.907 45.7538C903.649 31.7978 891.82 20.2957 877.637 12.4327C863.455 4.56965 847.433 0.62998 831.222 1.01955C815.01 1.40913 799.196 6.11387 785.407 14.6491C771.619 23.1842 760.356 35.2412 752.778 49.5778C743.864 43.4535 733.07 40.6813 722.308 41.752C711.546 42.8227 701.511 47.6673 693.978 55.4278C686.683 62.9323 682.123 72.6713 681.03 83.0798C644.478 85.2798 614.694 115.896 613.809 153.226C613.318 172.293 620.415 190.775 633.541 204.613C639.993 211.46 647.743 216.956 656.34 220.778C664.936 224.601 674.208 226.674 683.614 226.878L911.776 226.907Z" fill="white"/>
<path d="M911.776 227.907L683.614 227.878C674.072 227.673 664.666 225.572 655.945 221.696C647.223 217.82 639.36 212.247 632.814 205.302C619.506 191.272 612.31 172.533 612.807 153.202C613.693 115.85 643.191 84.8018 680.128 82.1378C681.401 71.8131 686.013 62.1871 693.262 54.7258C700.826 46.9343 710.864 42.0152 721.656 40.8111C732.449 39.607 743.324 42.1929 752.419 48.1258C760.211 33.8118 771.657 21.8184 785.593 13.3672C799.528 4.91604 815.454 0.308901 831.748 0.0149994C848.043 -0.278902 864.125 3.75094 878.356 11.6941C892.586 19.6373 904.458 31.2101 912.761 45.2338C924.05 64.1432 928.293 86.4333 924.743 108.168C952.577 114.216 971.928 138.403 971.928 167.323C971.93 200.731 944.945 227.907 911.776 227.907ZM726.862 42.5248C720.861 42.504 714.917 43.6982 709.389 46.0355C703.861 48.3728 698.864 51.8048 694.698 56.1248C687.56 63.4711 683.096 73.0027 682.024 83.1898L681.936 84.0328L681.09 84.0838C644.79 86.2678 615.676 116.651 614.809 153.254C614.326 172.057 621.324 190.284 634.268 203.932C640.63 210.682 648.271 216.099 656.747 219.868C665.223 223.636 674.363 225.681 683.637 225.883L911.776 225.912C943.842 225.912 969.93 199.633 969.93 167.332C969.93 139.05 950.796 115.449 923.401 109.939L922.446 109.747L922.613 108.787C926.363 87.2344 922.259 65.0517 911.046 46.2678C902.88 32.4626 891.181 21.0843 877.154 13.3057C863.127 5.52703 847.28 1.62933 831.245 2.01424C815.211 2.39914 799.569 7.05275 785.931 15.4955C772.293 23.9382 761.154 35.8647 753.66 50.0458L753.131 51.0358L752.208 50.3978C744.76 45.2502 735.916 42.5031 726.862 42.5248V42.5248Z" fill="#16276F"/>
<path d="M771.891 159.39H671.418V799.661H771.891V159.39Z" fill="#01203D"/>
<path d="M772.89 800.662H670.417V158.39H772.89V800.662ZM672.417 798.662H770.89V160.39H672.417V798.662Z" fill="#16276F"/>
<path d="M357.577 799.662H671.417L671.417 159.391H357.577L357.577 799.662Z" fill="white"/>
<path d="M672.417 800.662H356.578V158.39H672.417V800.662ZM358.578 798.662H670.417V160.39H358.578V798.662Z" fill="#16276F"/>
<path d="M648.134 185.142H380.86V245.112H648.134V185.142Z" fill="#36ABFF"/>
<g opacity="0.5">
<path opacity="0.5" d="M648.134 185.142H380.86V245.112H648.134V185.142Z" fill="white"/>
</g>
<path d="M648.135 246.112H380.861C380.596 246.112 380.341 246.006 380.154 245.819C379.966 245.631 379.861 245.377 379.861 245.112V185.142C379.861 184.877 379.966 184.622 380.154 184.435C380.341 184.247 380.596 184.142 380.861 184.142H648.135C648.4 184.142 648.655 184.247 648.842 184.435C649.03 184.622 649.135 184.877 649.135 185.142V245.112C649.135 245.377 649.03 245.631 648.842 245.819C648.655 246.006 648.4 246.112 648.135 246.112ZM381.861 244.112H647.135V186.142H381.861V244.112Z" fill="#16276F"/>
<path d="M411.154 227.43C417.949 227.43 423.457 221.922 423.457 215.127C423.457 208.332 417.949 202.824 411.154 202.824C404.359 202.824 398.851 208.332 398.851 215.127C398.851 221.922 404.359 227.43 411.154 227.43Z" fill="white"/>
<path d="M411.155 228.43C408.525 228.43 405.953 227.65 403.766 226.188C401.579 224.727 399.874 222.65 398.867 220.22C397.861 217.789 397.597 215.115 398.111 212.535C398.624 209.955 399.89 207.585 401.75 205.725C403.611 203.865 405.98 202.599 408.56 202.085C411.14 201.572 413.814 201.836 416.245 202.842C418.675 203.849 420.752 205.554 422.214 207.741C423.675 209.928 424.455 212.499 424.455 215.13C424.45 218.656 423.047 222.036 420.554 224.529C418.061 227.022 414.681 228.425 411.155 228.43V228.43ZM411.155 203.83C408.92 203.83 406.735 204.493 404.877 205.734C403.019 206.976 401.57 208.741 400.715 210.806C399.86 212.87 399.636 215.142 400.072 217.334C400.508 219.526 401.584 221.54 403.165 223.12C404.745 224.7 406.758 225.777 408.95 226.213C411.142 226.649 413.415 226.425 415.479 225.57C417.544 224.714 419.309 223.266 420.551 221.408C421.792 219.55 422.455 217.365 422.455 215.13C422.452 212.133 421.261 209.26 419.143 207.141C417.024 205.021 414.152 203.829 411.155 203.825V203.83Z" fill="#16276F"/>
<path d="M592.31 214.89H439.332C439.067 214.89 438.812 214.784 438.625 214.597C438.437 214.409 438.332 214.155 438.332 213.89C438.332 213.625 438.437 213.37 438.625 213.183C438.812 212.995 439.067 212.89 439.332 212.89H592.31C592.575 212.89 592.83 212.995 593.017 213.183C593.205 213.37 593.31 213.625 593.31 213.89C593.31 214.155 593.205 214.409 593.017 214.597C592.83 214.784 592.575 214.89 592.31 214.89Z" fill="#16276F"/>
<path d="M614.8 214.89H611.626C611.361 214.89 611.106 214.784 610.919 214.597C610.731 214.409 610.626 214.155 610.626 213.89C610.626 213.625 610.731 213.37 610.919 213.183C611.106 212.995 611.361 212.89 611.626 212.89H614.8C615.065 212.89 615.32 212.995 615.507 213.183C615.695 213.37 615.8 213.625 615.8 213.89C615.8 214.155 615.695 214.409 615.507 214.597C615.32 214.784 615.065 214.89 614.8 214.89Z" fill="#16276F"/>
<path d="M603.657 214.89H600.482C600.217 214.89 599.962 214.784 599.775 214.597C599.587 214.409 599.482 214.155 599.482 213.89C599.482 213.625 599.587 213.37 599.775 213.183C599.962 212.995 600.217 212.89 600.482 212.89H603.657C603.922 212.89 604.177 212.995 604.364 213.183C604.552 213.37 604.657 213.625 604.657 213.89C604.657 214.155 604.552 214.409 604.364 214.597C604.177 214.784 603.922 214.89 603.657 214.89Z" fill="#16276F"/>
<path d="M626.705 214.89H623.53C623.265 214.89 623.01 214.784 622.823 214.597C622.635 214.409 622.53 214.155 622.53 213.89C622.53 213.625 622.635 213.37 622.823 213.183C623.01 212.995 623.265 212.89 623.53 212.89H626.705C626.97 212.89 627.225 212.995 627.412 213.183C627.6 213.37 627.705 213.625 627.705 213.89C627.705 214.155 627.6 214.409 627.412 214.597C627.225 214.784 626.97 214.89 626.705 214.89V214.89Z" fill="#16276F"/>
<path d="M648.134 268.395H380.86V328.365H648.134V268.395Z" fill="#36ABFF"/>
<g opacity="0.5">
<path opacity="0.5" d="M648.134 268.395H380.86V328.365H648.134V268.395Z" fill="white"/>
</g>
<path d="M648.135 329.365H380.861C380.596 329.365 380.341 329.259 380.154 329.072C379.966 328.884 379.861 328.63 379.861 328.365V268.39C379.861 268.125 379.966 267.87 380.154 267.683C380.341 267.495 380.596 267.39 380.861 267.39H648.135C648.4 267.39 648.655 267.495 648.842 267.683C649.03 267.87 649.135 268.125 649.135 268.39V328.36C649.136 328.492 649.11 328.622 649.06 328.744C649.01 328.866 648.937 328.977 648.844 329.07C648.751 329.164 648.641 329.238 648.519 329.288C648.397 329.339 648.267 329.365 648.135 329.365V329.365ZM381.861 327.365H647.135V269.39H381.861V327.365Z" fill="#16276F"/>
<path d="M411.154 310.683C417.949 310.683 423.457 305.175 423.457 298.38C423.457 291.585 417.949 286.077 411.154 286.077C404.359 286.077 398.851 291.585 398.851 298.38C398.851 305.175 404.359 310.683 411.154 310.683Z" fill="white"/>
<path d="M411.155 311.683C408.525 311.683 405.953 310.903 403.766 309.441C401.579 307.98 399.874 305.903 398.867 303.473C397.861 301.042 397.597 298.368 398.111 295.788C398.624 293.208 399.89 290.838 401.75 288.978C403.611 287.118 405.98 285.852 408.56 285.338C411.14 284.825 413.814 285.089 416.245 286.095C418.675 287.102 420.752 288.807 422.214 290.994C423.675 293.181 424.455 295.752 424.455 298.383C424.45 301.909 423.047 305.289 420.554 307.782C418.061 310.275 414.681 311.678 411.155 311.683V311.683ZM411.155 287.083C408.92 287.083 406.735 287.746 404.877 288.987C403.019 290.229 401.57 291.994 400.715 294.059C399.86 296.123 399.636 298.395 400.072 300.587C400.508 302.779 401.584 304.793 403.165 306.373C404.745 307.953 406.758 309.03 408.95 309.466C411.142 309.902 413.415 309.678 415.479 308.823C417.544 307.967 419.309 306.519 420.551 304.661C421.792 302.802 422.455 300.618 422.455 298.383C422.452 295.386 421.261 292.513 419.143 290.394C417.024 288.274 414.152 287.082 411.155 287.078V287.083Z" fill="#16276F"/>
<path d="M592.31 298.145H439.332C439.067 298.145 438.812 298.039 438.625 297.852C438.437 297.664 438.332 297.41 438.332 297.145C438.332 296.88 438.437 296.625 438.625 296.438C438.812 296.25 439.067 296.145 439.332 296.145H592.31C592.575 296.145 592.83 296.25 593.017 296.438C593.205 296.625 593.31 296.88 593.31 297.145C593.31 297.41 593.205 297.664 593.017 297.852C592.83 298.039 592.575 298.145 592.31 298.145Z" fill="#16276F"/>
<path d="M614.8 298.145H611.626C611.361 298.145 611.106 298.039 610.919 297.852C610.731 297.664 610.626 297.41 610.626 297.145C610.626 296.88 610.731 296.625 610.919 296.438C611.106 296.25 611.361 296.145 611.626 296.145H614.8C615.065 296.145 615.32 296.25 615.507 296.438C615.695 296.625 615.8 296.88 615.8 297.145C615.8 297.41 615.695 297.664 615.507 297.852C615.32 298.039 615.065 298.145 614.8 298.145Z" fill="#16276F"/>
<path d="M603.657 298.145H600.482C600.217 298.145 599.962 298.039 599.775 297.852C599.587 297.664 599.482 297.41 599.482 297.145C599.482 296.88 599.587 296.625 599.775 296.438C599.962 296.25 600.217 296.145 600.482 296.145H603.657C603.922 296.145 604.177 296.25 604.364 296.438C604.552 296.625 604.657 296.88 604.657 297.145C604.657 297.41 604.552 297.664 604.364 297.852C604.177 298.039 603.922 298.145 603.657 298.145Z" fill="#16276F"/>
<path d="M626.705 298.145H623.53C623.265 298.145 623.01 298.039 622.823 297.852C622.635 297.664 622.53 297.41 622.53 297.145C622.53 296.88 622.635 296.625 622.823 296.438C623.01 296.25 623.265 296.145 623.53 296.145H626.705C626.97 296.145 627.225 296.25 627.412 296.438C627.6 296.625 627.705 296.88 627.705 297.145C627.705 297.41 627.6 297.664 627.412 297.852C627.225 298.039 626.97 298.145 626.705 298.145V298.145Z" fill="#16276F"/>
<path d="M648.134 351.648H380.86V411.618H648.134V351.648Z" fill="#36ABFF"/>
<g opacity="0.5">
<path opacity="0.5" d="M648.134 351.648H380.86V411.618H648.134V351.648Z" fill="white"/>
</g>
<path d="M648.135 412.618H380.861C380.596 412.618 380.341 412.512 380.154 412.325C379.966 412.137 379.861 411.883 379.861 411.618V351.648C379.861 351.383 379.966 351.128 380.154 350.941C380.341 350.753 380.596 350.648 380.861 350.648H648.135C648.4 350.648 648.655 350.753 648.842 350.941C649.03 351.128 649.135 351.383 649.135 351.648V411.618C649.135 411.883 649.03 412.137 648.842 412.325C648.655 412.512 648.4 412.618 648.135 412.618V412.618ZM381.861 410.618H647.135V352.648H381.861V410.618Z" fill="#16276F"/>
<path d="M411.154 393.936C417.949 393.936 423.457 388.428 423.457 381.633C423.457 374.838 417.949 369.33 411.154 369.33C404.359 369.33 398.851 374.838 398.851 381.633C398.851 388.428 404.359 393.936 411.154 393.936Z" fill="white"/>
<path d="M411.155 394.936C408.525 394.936 405.953 394.156 403.766 392.694C401.579 391.233 399.874 389.156 398.867 386.726C397.861 384.295 397.597 381.621 398.111 379.041C398.624 376.461 399.89 374.091 401.75 372.231C403.611 370.371 405.98 369.105 408.56 368.591C411.14 368.078 413.814 368.342 416.245 369.348C418.675 370.355 420.752 372.06 422.214 374.247C423.675 376.434 424.455 379.005 424.455 381.636C424.45 385.162 423.047 388.542 420.554 391.035C418.061 393.528 414.681 394.931 411.155 394.936V394.936ZM411.155 370.331C408.92 370.331 406.735 370.994 404.877 372.235C403.019 373.477 401.57 375.242 400.715 377.307C399.86 379.371 399.636 381.643 400.072 383.835C400.508 386.027 401.584 388.041 403.165 389.621C404.745 391.201 406.758 392.278 408.95 392.714C411.142 393.15 413.415 392.926 415.479 392.071C417.544 391.215 419.309 389.767 420.551 387.909C421.792 386.051 422.455 383.866 422.455 381.631C422.451 378.635 421.259 375.763 419.141 373.645C417.023 371.527 414.151 370.335 411.155 370.331Z" fill="#16276F"/>
<path d="M592.31 381.398H439.332C439.067 381.398 438.812 381.292 438.625 381.105C438.437 380.917 438.332 380.663 438.332 380.398C438.332 380.133 438.437 379.878 438.625 379.691C438.812 379.503 439.067 379.398 439.332 379.398H592.31C592.575 379.398 592.83 379.503 593.017 379.691C593.205 379.878 593.31 380.133 593.31 380.398C593.31 380.663 593.205 380.917 593.017 381.105C592.83 381.292 592.575 381.398 592.31 381.398Z" fill="#16276F"/>
<path d="M614.8 381.398H611.626C611.361 381.398 611.106 381.292 610.919 381.105C610.731 380.917 610.626 380.663 610.626 380.398C610.626 380.133 610.731 379.878 610.919 379.691C611.106 379.503 611.361 379.398 611.626 379.398H614.8C615.065 379.398 615.32 379.503 615.507 379.691C615.695 379.878 615.8 380.133 615.8 380.398C615.8 380.663 615.695 380.917 615.507 381.105C615.32 381.292 615.065 381.398 614.8 381.398Z" fill="#16276F"/>
<path d="M603.657 381.398H600.482C600.217 381.398 599.962 381.292 599.775 381.105C599.587 380.917 599.482 380.663 599.482 380.398C599.482 380.133 599.587 379.878 599.775 379.691C599.962 379.503 600.217 379.398 600.482 379.398H603.657C603.922 379.398 604.177 379.503 604.364 379.691C604.552 379.878 604.657 380.133 604.657 380.398C604.657 380.663 604.552 380.917 604.364 381.105C604.177 381.292 603.922 381.398 603.657 381.398Z" fill="#16276F"/>
<path d="M626.705 381.398H623.53C623.265 381.398 623.01 381.292 622.823 381.105C622.635 380.917 622.53 380.663 622.53 380.398C622.53 380.133 622.635 379.878 622.823 379.691C623.01 379.503 623.265 379.398 623.53 379.398H626.705C626.97 379.398 627.225 379.503 627.412 379.691C627.6 379.878 627.705 380.133 627.705 380.398C627.705 380.663 627.6 380.917 627.412 381.105C627.225 381.292 626.97 381.398 626.705 381.398V381.398Z" fill="#16276F"/>
<path d="M648.135 495.871H380.861C380.596 495.871 380.341 495.765 380.154 495.578C379.966 495.39 379.861 495.136 379.861 494.871V434.901C379.861 434.636 379.966 434.381 380.154 434.194C380.341 434.006 380.596 433.901 380.861 433.901H648.135C648.4 433.901 648.655 434.006 648.842 434.194C649.03 434.381 649.135 434.636 649.135 434.901V494.871C649.135 495.136 649.03 495.39 648.842 495.578C648.655 495.765 648.4 495.871 648.135 495.871ZM381.861 493.871H647.135V435.901H381.861V493.871Z" fill="#16276F"/>
<path d="M545.602 434.901H268.328V494.871H545.602V434.901Z" fill="#36ABFF"/>
<g opacity="0.5">
<path opacity="0.5" d="M545.602 434.901H268.328V494.871H545.602V434.901Z" fill="white"/>
</g>
<path d="M545.6 495.871H268.328C268.063 495.871 267.808 495.765 267.621 495.578C267.433 495.39 267.328 495.136 267.328 494.871V434.901C267.328 434.636 267.433 434.381 267.621 434.194C267.808 434.006 268.063 433.901 268.328 433.901H545.6C545.865 433.901 546.12 434.006 546.307 434.194C546.495 434.381 546.6 434.636 546.6 434.901V494.871C546.6 495.136 546.495 495.39 546.307 495.578C546.12 495.765 545.865 495.871 545.6 495.871ZM269.326 493.871H544.6V435.901H269.328L269.326 493.871Z" fill="#16276F"/>
<path d="M298.622 477.189C305.417 477.189 310.925 471.681 310.925 464.886C310.925 458.091 305.417 452.583 298.622 452.583C291.827 452.583 286.319 458.091 286.319 464.886C286.319 471.681 291.827 477.189 298.622 477.189Z" fill="white"/>
<path d="M298.622 478.19C295.992 478.19 293.42 477.41 291.233 475.948C289.046 474.487 287.341 472.41 286.334 469.98C285.328 467.549 285.064 464.875 285.578 462.295C286.091 459.715 287.357 457.345 289.217 455.485C291.078 453.625 293.447 452.359 296.027 451.845C298.607 451.332 301.281 451.596 303.712 452.602C306.142 453.609 308.219 455.314 309.681 457.501C311.142 459.688 311.922 462.259 311.922 464.89C311.917 468.416 310.514 471.796 308.021 474.289C305.528 476.782 302.148 478.185 298.622 478.19V478.19ZM298.622 453.59C296.387 453.59 294.202 454.253 292.344 455.494C290.486 456.736 289.037 458.501 288.182 460.566C287.327 462.63 287.103 464.902 287.539 467.094C287.975 469.286 289.051 471.3 290.632 472.88C292.212 474.461 294.225 475.537 296.417 475.973C298.609 476.409 300.882 476.185 302.946 475.33C305.011 474.474 306.776 473.026 308.018 471.168C309.259 469.31 309.922 467.125 309.922 464.89C309.92 461.893 308.729 459.019 306.61 456.899C304.492 454.78 301.619 453.587 298.622 453.583V453.59Z" fill="#16276F"/>
<path d="M489.777 464.651H326.8C326.535 464.651 326.28 464.545 326.093 464.358C325.905 464.17 325.8 463.916 325.8 463.651C325.8 463.386 325.905 463.131 326.093 462.944C326.28 462.756 326.535 462.651 326.8 462.651H489.777C490.042 462.651 490.297 462.756 490.484 462.944C490.672 463.131 490.777 463.386 490.777 463.651C490.777 463.916 490.672 464.17 490.484 464.358C490.297 464.545 490.042 464.651 489.777 464.651Z" fill="#16276F"/>
<path d="M512.266 464.651H509.091C508.826 464.651 508.571 464.545 508.384 464.358C508.196 464.17 508.091 463.916 508.091 463.651C508.091 463.386 508.196 463.131 508.384 462.944C508.571 462.756 508.826 462.651 509.091 462.651H512.266C512.531 462.651 512.786 462.756 512.973 462.944C513.161 463.131 513.266 463.386 513.266 463.651C513.266 463.916 513.161 464.17 512.973 464.358C512.786 464.545 512.531 464.651 512.266 464.651Z" fill="#16276F"/>
<path d="M501.124 464.651H497.95C497.685 464.651 497.43 464.545 497.243 464.358C497.055 464.17 496.95 463.916 496.95 463.651C496.95 463.386 497.055 463.131 497.243 462.944C497.43 462.756 497.685 462.651 497.95 462.651H501.124C501.389 462.651 501.644 462.756 501.831 462.944C502.019 463.131 502.124 463.386 502.124 463.651C502.124 463.916 502.019 464.17 501.831 464.358C501.644 464.545 501.389 464.651 501.124 464.651V464.651Z" fill="#16276F"/>
<path d="M524.172 464.651H521C520.735 464.651 520.48 464.545 520.293 464.358C520.105 464.17 520 463.916 520 463.651C520 463.386 520.105 463.131 520.293 462.944C520.48 462.756 520.735 462.651 521 462.651H524.175C524.44 462.651 524.695 462.756 524.882 462.944C525.07 463.131 525.175 463.386 525.175 463.651C525.175 463.916 525.07 464.17 524.882 464.358C524.695 464.545 524.44 464.651 524.175 464.651H524.172Z" fill="#16276F"/>
<path d="M648.134 518.154H380.86V578.124H648.134V518.154Z" fill="#36ABFF"/>
<g opacity="0.5">
<path opacity="0.5" d="M648.134 518.154H380.86V578.124H648.134V518.154Z" fill="white"/>
</g>
<path d="M648.135 579.124H380.861C380.596 579.124 380.341 579.018 380.154 578.831C379.966 578.643 379.861 578.389 379.861 578.124V518.154C379.861 517.889 379.966 517.634 380.154 517.447C380.341 517.259 380.596 517.154 380.861 517.154H648.135C648.4 517.154 648.655 517.259 648.842 517.447C649.03 517.634 649.135 517.889 649.135 518.154V578.124C649.135 578.389 649.03 578.643 648.842 578.831C648.655 579.018 648.4 579.124 648.135 579.124ZM381.861 577.124H647.135V519.154H381.861V577.124Z" fill="#16276F"/>
<path d="M411.154 560.442C417.949 560.442 423.457 554.934 423.457 548.139C423.457 541.344 417.949 535.836 411.154 535.836C404.359 535.836 398.851 541.344 398.851 548.139C398.851 554.934 404.359 560.442 411.154 560.442Z" fill="white"/>
<path d="M411.155 561.441C408.525 561.441 405.953 560.661 403.766 559.199C401.579 557.738 399.874 555.661 398.867 553.231C397.861 550.8 397.597 548.126 398.111 545.546C398.624 542.966 399.89 540.596 401.75 538.736C403.611 536.876 405.98 535.61 408.56 535.096C411.14 534.583 413.814 534.847 416.245 535.853C418.675 536.86 420.752 538.565 422.214 540.752C423.675 542.939 424.455 545.51 424.455 548.141C424.45 551.667 423.047 555.047 420.554 557.54C418.061 560.033 414.681 561.436 411.155 561.441V561.441ZM411.155 536.836C408.92 536.836 406.735 537.499 404.877 538.74C403.019 539.982 401.57 541.747 400.715 543.812C399.86 545.876 399.636 548.148 400.072 550.34C400.508 552.532 401.584 554.546 403.165 556.126C404.745 557.706 406.758 558.783 408.95 559.219C411.142 559.655 413.415 559.431 415.479 558.576C417.544 557.72 419.309 556.272 420.551 554.414C421.792 552.556 422.455 550.371 422.455 548.136C422.451 545.14 421.259 542.268 419.141 540.15C417.023 538.032 414.151 536.84 411.155 536.836V536.836Z" fill="#16276F"/>
<path d="M592.31 547.904H439.332C439.067 547.904 438.812 547.798 438.625 547.611C438.437 547.423 438.332 547.169 438.332 546.904C438.332 546.639 438.437 546.384 438.625 546.197C438.812 546.009 439.067 545.904 439.332 545.904H592.31C592.575 545.904 592.83 546.009 593.017 546.197C593.205 546.384 593.31 546.639 593.31 546.904C593.31 547.169 593.205 547.423 593.017 547.611C592.83 547.798 592.575 547.904 592.31 547.904Z" fill="#16276F"/>
<path d="M614.8 547.904H611.626C611.361 547.904 611.106 547.798 610.919 547.611C610.731 547.423 610.626 547.169 610.626 546.904C610.626 546.639 610.731 546.384 610.919 546.197C611.106 546.009 611.361 545.904 611.626 545.904H614.8C615.065 545.904 615.32 546.009 615.507 546.197C615.695 546.384 615.8 546.639 615.8 546.904C615.8 547.169 615.695 547.423 615.507 547.611C615.32 547.798 615.065 547.904 614.8 547.904Z" fill="#16276F"/>
<path d="M603.657 547.904H600.482C600.217 547.904 599.962 547.798 599.775 547.611C599.587 547.423 599.482 547.169 599.482 546.904C599.482 546.639 599.587 546.384 599.775 546.197C599.962 546.009 600.217 545.904 600.482 545.904H603.657C603.922 545.904 604.177 546.009 604.364 546.197C604.552 546.384 604.657 546.639 604.657 546.904C604.657 547.169 604.552 547.423 604.364 547.611C604.177 547.798 603.922 547.904 603.657 547.904Z" fill="#16276F"/>
<path d="M626.705 547.904H623.53C623.265 547.904 623.01 547.798 622.823 547.611C622.635 547.423 622.53 547.169 622.53 546.904C622.53 546.639 622.635 546.384 622.823 546.197C623.01 546.009 623.265 545.904 623.53 545.904H626.705C626.97 545.904 627.225 546.009 627.412 546.197C627.6 546.384 627.705 546.639 627.705 546.904C627.705 547.169 627.6 547.423 627.412 547.611C627.225 547.798 626.97 547.904 626.705 547.904V547.904Z" fill="#16276F"/>
<path d="M648.134 601.407H380.86V661.377H648.134V601.407Z" fill="#36ABFF"/>
<g opacity="0.5">
<path opacity="0.5" d="M648.134 601.407H380.86V661.377H648.134V601.407Z" fill="white"/>
</g>
<path d="M648.135 662.377H380.861C380.596 662.377 380.341 662.271 380.154 662.084C379.966 661.896 379.861 661.642 379.861 661.377V601.407C379.861 601.142 379.966 600.887 380.154 600.7C380.341 600.512 380.596 600.407 380.861 600.407H648.135C648.4 600.407 648.655 600.512 648.842 600.7C649.03 600.887 649.135 601.142 649.135 601.407V661.377C649.135 661.642 649.03 661.896 648.842 662.084C648.655 662.271 648.4 662.377 648.135 662.377ZM381.861 660.377H647.135V602.407H381.861V660.377Z" fill="#16276F"/>
<path d="M411.154 643.695C417.949 643.695 423.457 638.187 423.457 631.392C423.457 624.597 417.949 619.089 411.154 619.089C404.359 619.089 398.851 624.597 398.851 631.392C398.851 638.187 404.359 643.695 411.154 643.695Z" fill="white"/>
<path d="M411.155 644.69C408.525 644.69 405.953 643.91 403.766 642.448C401.579 640.987 399.874 638.91 398.867 636.48C397.861 634.049 397.597 631.375 398.111 628.795C398.624 626.215 399.89 623.845 401.75 621.985C403.611 620.125 405.98 618.859 408.56 618.345C411.14 617.832 413.814 618.096 416.245 619.102C418.675 620.109 420.752 621.814 422.214 624.001C423.675 626.188 424.455 628.759 424.455 631.39C424.45 634.916 423.047 638.296 420.554 640.789C418.061 643.282 414.681 644.685 411.155 644.69V644.69ZM411.155 620.09C408.92 620.09 406.735 620.753 404.877 621.994C403.019 623.236 401.57 625.001 400.715 627.066C399.86 629.13 399.636 631.402 400.072 633.594C400.508 635.786 401.584 637.8 403.165 639.38C404.745 640.96 406.758 642.037 408.95 642.473C411.142 642.909 413.415 642.685 415.479 641.83C417.544 640.974 419.309 639.526 420.551 637.668C421.792 635.809 422.455 633.625 422.455 631.39C422.451 628.394 421.259 625.522 419.141 623.404C417.023 621.286 414.151 620.094 411.155 620.09V620.09Z" fill="#16276F"/>
<path d="M592.31 631.157H439.332C439.067 631.157 438.812 631.051 438.625 630.864C438.437 630.676 438.332 630.422 438.332 630.157C438.332 629.892 438.437 629.637 438.625 629.45C438.812 629.262 439.067 629.157 439.332 629.157H592.31C592.575 629.157 592.83 629.262 593.017 629.45C593.205 629.637 593.31 629.892 593.31 630.157C593.31 630.422 593.205 630.676 593.017 630.864C592.83 631.051 592.575 631.157 592.31 631.157Z" fill="#16276F"/>
<path d="M614.8 631.157H611.626C611.361 631.157 611.106 631.051 610.919 630.864C610.731 630.676 610.626 630.422 610.626 630.157C610.626 629.892 610.731 629.637 610.919 629.45C611.106 629.262 611.361 629.157 611.626 629.157H614.8C615.065 629.157 615.32 629.262 615.507 629.45C615.695 629.637 615.8 629.892 615.8 630.157C615.8 630.422 615.695 630.676 615.507 630.864C615.32 631.051 615.065 631.157 614.8 631.157Z" fill="#16276F"/>
<path d="M603.657 631.157H600.482C600.217 631.157 599.962 631.051 599.775 630.864C599.587 630.676 599.482 630.422 599.482 630.157C599.482 629.892 599.587 629.637 599.775 629.45C599.962 629.262 600.217 629.157 600.482 629.157H603.657C603.922 629.157 604.177 629.262 604.364 629.45C604.552 629.637 604.657 629.892 604.657 630.157C604.657 630.422 604.552 630.676 604.364 630.864C604.177 631.051 603.922 631.157 603.657 631.157Z" fill="#16276F"/>
<path d="M626.705 631.157H623.53C623.265 631.157 623.01 631.051 622.823 630.864C622.635 630.676 622.53 630.422 622.53 630.157C622.53 629.892 622.635 629.637 622.823 629.45C623.01 629.262 623.265 629.157 623.53 629.157H626.705C626.97 629.157 627.225 629.262 627.412 629.45C627.6 629.637 627.705 629.892 627.705 630.157C627.705 630.422 627.6 630.676 627.412 630.864C627.225 631.051 626.97 631.157 626.705 631.157V631.157Z" fill="#16276F"/>
<path d="M648.134 684.66H380.86V744.63H648.134V684.66Z" fill="#36ABFF"/>
<g opacity="0.5">
<path opacity="0.5" d="M648.134 684.66H380.86V744.63H648.134V684.66Z" fill="white"/>
</g>
<path d="M648.135 745.63H380.861C380.596 745.63 380.341 745.525 380.154 745.337C379.966 745.149 379.861 744.895 379.861 744.63V684.66C379.861 684.395 379.966 684.14 380.154 683.953C380.341 683.765 380.596 683.66 380.861 683.66H648.135C648.4 683.66 648.655 683.765 648.842 683.953C649.03 684.14 649.135 684.395 649.135 684.66V744.63C649.135 744.895 649.03 745.149 648.842 745.337C648.655 745.525 648.4 745.63 648.135 745.63ZM381.861 743.63H647.135V685.66H381.861V743.63Z" fill="#16276F"/>
<path d="M411.154 726.948C417.949 726.948 423.457 721.44 423.457 714.645C423.457 707.85 417.949 702.342 411.154 702.342C404.359 702.342 398.851 707.85 398.851 714.645C398.851 721.44 404.359 726.948 411.154 726.948Z" fill="white"/>
<path d="M411.155 727.947C408.525 727.947 405.953 727.167 403.766 725.705C401.579 724.244 399.874 722.167 398.867 719.737C397.861 717.306 397.597 714.632 398.111 712.052C398.624 709.472 399.89 707.102 401.75 705.242C403.611 703.382 405.98 702.116 408.56 701.602C411.14 701.089 413.814 701.353 416.245 702.359C418.675 703.366 420.752 705.071 422.214 707.258C423.675 709.445 424.455 712.016 424.455 714.647C424.45 718.173 423.047 721.553 420.554 724.046C418.061 726.539 414.681 727.942 411.155 727.947V727.947ZM411.155 703.342C408.92 703.342 406.735 704.005 404.877 705.246C403.019 706.488 401.57 708.253 400.715 710.318C399.86 712.382 399.636 714.654 400.072 716.846C400.508 719.038 401.584 721.052 403.165 722.632C404.745 724.213 406.758 725.289 408.95 725.725C411.142 726.161 413.415 725.937 415.479 725.082C417.544 724.226 419.309 722.778 420.551 720.92C421.792 719.062 422.455 716.877 422.455 714.642C422.451 711.646 421.259 708.774 419.141 706.656C417.023 704.538 414.151 703.346 411.155 703.342V703.342Z" fill="#16276F"/>
<path d="M592.31 714.41H439.332C439.067 714.41 438.812 714.305 438.625 714.117C438.437 713.929 438.332 713.675 438.332 713.41C438.332 713.145 438.437 712.89 438.625 712.703C438.812 712.515 439.067 712.41 439.332 712.41H592.31C592.575 712.41 592.83 712.515 593.017 712.703C593.205 712.89 593.31 713.145 593.31 713.41C593.31 713.675 593.205 713.929 593.017 714.117C592.83 714.305 592.575 714.41 592.31 714.41Z" fill="#16276F"/>
<path d="M614.8 714.41H611.626C611.361 714.41 611.106 714.305 610.919 714.117C610.731 713.929 610.626 713.675 610.626 713.41C610.626 713.145 610.731 712.89 610.919 712.703C611.106 712.515 611.361 712.41 611.626 712.41H614.8C615.065 712.41 615.32 712.515 615.507 712.703C615.695 712.89 615.8 713.145 615.8 713.41C615.8 713.675 615.695 713.929 615.507 714.117C615.32 714.305 615.065 714.41 614.8 714.41Z" fill="#16276F"/>
<path d="M603.657 714.41H600.482C600.217 714.41 599.962 714.305 599.775 714.117C599.587 713.929 599.482 713.675 599.482 713.41C599.482 713.145 599.587 712.89 599.775 712.703C599.962 712.515 600.217 712.41 600.482 712.41H603.657C603.922 712.41 604.177 712.515 604.364 712.703C604.552 712.89 604.657 713.145 604.657 713.41C604.657 713.675 604.552 713.929 604.364 714.117C604.177 714.305 603.922 714.41 603.657 714.41Z" fill="#16276F"/>
<path d="M626.705 714.41H623.53C623.265 714.41 623.01 714.305 622.823 714.117C622.635 713.929 622.53 713.675 622.53 713.41C622.53 713.145 622.635 712.89 622.823 712.703C623.01 712.515 623.265 712.41 623.53 712.41H626.705C626.97 712.41 627.225 712.515 627.412 712.703C627.6 712.89 627.705 713.145 627.705 713.41C627.705 713.675 627.6 713.929 627.412 714.117C627.225 714.305 626.97 714.41 626.705 714.41V714.41Z" fill="#16276F"/>
<path d="M77.339 747.112C77.339 747.112 66.154 763.644 78.357 777.39C90.56 791.136 77.41 798.66 77.41 798.66L27.826 749.078L52.6 724.305L77.339 747.112Z" fill="#36ABFF"/>
<path d="M79.975 407.073C79.975 407.073 80.195 401.182 80.149 414.546C80.071 436.738 82.183 495.385 80.699 570.971C79.513 631.392 37.453 735.071 37.453 735.071L75.388 762.3C75.388 762.3 132.451 669.746 141.507 578.121C146.143 531.221 155.626 405.045 155.626 405.045L79.975 407.073Z" fill="#01203D"/>
<path d="M197.033 764.578C197.033 764.578 200.814 784.178 219.164 785.268C237.514 786.358 233.534 800.978 233.534 800.978H163.412V765.944L197.033 764.578Z" fill="#36ABFF"/>
<path d="M205.946 410.944C205.946 410.944 211.702 581.315 211.104 589.644L205.691 775.798L160.375 776.635L153.067 582.912C153.067 582.912 148.278 529.473 135.367 479.852C128.76 454.384 124.783 428.305 123.5 402.025V402.025L205.946 410.944Z" fill="#01203D"/>
<path d="M146.163 531.736L149.942 473.949C149.942 473.949 153.823 497.973 153.823 518.68C153.823 528.802 151.738 568.874 151.738 568.874L146.163 531.736Z" fill="#0A0A0A"/>
<path d="M79.474 407.068L79.324 407.076C79.324 407.076 79.433 404.17 79.474 407.068Z" fill="#333333"/>
<path d="M79.664 407.068L79.513 407.076C79.513 407.076 79.622 404.17 79.664 407.068Z" fill="#333333"/>
<path d="M109.337 191.844C109.337 191.844 105.686 211.299 100.423 217.886C85.272 236.851 78.838 259.454 90.118 273.012C101.398 286.57 182.509 296.438 191.965 269.483C199.926 246.79 189.122 242.956 188.719 223.403C188.537 214.555 187.355 195.903 187.355 195.903" fill="#0A0A0A"/>
<path d="M175.137 259.203C174.996 259.184 173.431 285.154 143.262 282.89C122.375 281.325 114.928 259.166 114.45 259.166C116.701 258.687 120.494 257.991 121.494 257.457C124.783 255.69 128.852 253.857 129.912 247.465C130.523 243.784 129.486 224.951 129.805 221.227L161.866 228.382C161.418 236.249 158.282 254.482 169.272 257.712C171.1 258.245 173.07 258.736 175.137 259.203Z" fill="#E98862"/>
<path opacity="0.52" d="M162.315 250.259C161.813 248.64 161.49 246.972 161.351 245.283C160.998 241.429 161.068 237.548 161.56 233.71C155.044 232.83 148.905 230.141 143.841 225.947C143.246 228.147 139.972 237.752 140.878 239.847C142.592 243.79 150.644 250.259 162.315 250.259Z" fill="#033563"/>
<path d="M156.625 243.984C143.925 243.698 128.29 236.737 126.925 219.621L125.693 204.177C124.327 187.061 132.21 172.468 148.325 171.183C164.441 169.897 177.594 182.811 178.959 199.927L179.505 206.764C180.028 213.331 179.277 244.495 156.625 243.984Z" fill="#E98862"/>
<path d="M174.178 210.425C175.278 210.425 176.169 209.533 176.169 208.434C176.169 207.334 175.278 206.443 174.178 206.443C173.078 206.443 172.187 207.334 172.187 208.434C172.187 209.533 173.078 210.425 174.178 210.425Z" fill="#033563"/>
<path d="M154.049 210.55C155.149 210.55 156.04 209.658 156.04 208.559C156.04 207.459 155.149 206.568 154.049 206.568C152.949 206.568 152.058 207.459 152.058 208.559C152.058 209.658 152.949 210.55 154.049 210.55Z" fill="#033563"/>
<path opacity="0.52" d="M164.128 221.266H164.16C164.813 221.209 165.463 221.116 166.106 220.988C167.067 220.788 168.336 220.426 168.268 219.57C168.191 218.595 164.68 208.285 164.279 207.113C164.262 207.061 164.236 207.014 164.2 206.973C164.165 206.932 164.122 206.898 164.073 206.874C164.025 206.849 163.972 206.835 163.918 206.831C163.864 206.828 163.81 206.835 163.759 206.853C163.708 206.87 163.66 206.898 163.62 206.934C163.579 206.969 163.547 207.013 163.523 207.062C163.5 207.111 163.486 207.164 163.483 207.218C163.481 207.272 163.489 207.326 163.507 207.377C165.007 211.767 167.407 218.977 167.455 219.635C167.318 219.922 165.715 220.322 164.095 220.452C163.989 220.459 163.89 220.507 163.819 220.587C163.748 220.666 163.711 220.769 163.715 220.875C163.72 220.981 163.765 221.082 163.842 221.155C163.919 221.228 164.022 221.268 164.128 221.267V221.266Z" fill="#033563"/>
<path opacity="0.52" d="M161.009 228.256C163.621 228.199 166.183 227.529 168.489 226.301C168.537 226.277 168.579 226.243 168.614 226.203C168.649 226.162 168.676 226.115 168.692 226.064C168.709 226.013 168.715 225.959 168.711 225.906C168.707 225.852 168.693 225.8 168.668 225.752C168.644 225.705 168.611 225.662 168.57 225.627C168.53 225.592 168.482 225.566 168.431 225.549C168.329 225.515 168.217 225.524 168.12 225.573C163.144 228.101 158.471 228.093 154.607 225.55C154.529 225.495 154.449 225.446 154.365 225.401C154.269 225.359 154.159 225.355 154.061 225.392C153.962 225.428 153.881 225.501 153.835 225.596C153.789 225.691 153.781 225.8 153.813 225.9C153.845 226 153.915 226.084 154.008 226.134C154.038 226.151 154.089 226.185 154.159 226.234C156.19 227.574 158.575 228.278 161.009 228.256V228.256Z" fill="#033563"/>
<path d="M112.489 208.09L126.926 207.021C138.116 203.839 143.36 185.627 143.36 185.627C143.36 185.627 155.015 199.727 187.355 195.909C187.355 195.909 185.773 151.209 137.765 158.982C122.286 161.482 109.865 175.475 109.022 195.869C108.434 210.159 112.489 208.09 112.489 208.09Z" fill="#0A0A0A"/>
<path d="M128.341 224.755C123.441 225.146 119.056 220.224 118.665 215.326C118.274 210.428 122.029 207.411 126.926 207.02L129.712 210.1L132.552 224.419L128.341 224.755Z" fill="#E98862"/>
<path d="M168.036 199.402C169.534 198.649 171.207 198.312 172.879 198.429C173.703 198.48 174.514 198.655 175.285 198.949C176.05 199.235 176.775 199.617 177.444 200.085C177.54 200.145 177.608 200.24 177.634 200.35C177.66 200.46 177.641 200.576 177.581 200.672C177.521 200.768 177.426 200.836 177.316 200.862C177.206 200.888 177.09 200.869 176.994 200.809L176.965 200.792C176.343 200.397 175.673 200.083 174.972 199.856C174.279 199.628 173.556 199.506 172.827 199.494C171.382 199.46 169.954 199.808 168.687 200.504L168.646 200.528C168.499 200.604 168.328 200.621 168.169 200.575C168.01 200.528 167.875 200.422 167.793 200.278C167.711 200.134 167.688 199.964 167.728 199.803C167.768 199.642 167.869 199.504 168.01 199.416L168.036 199.402Z" fill="#033563"/>
<path d="M155.09 201.013C153.731 200.521 152.266 200.397 150.843 200.654C150.125 200.778 149.429 201.01 148.78 201.342C148.123 201.675 147.51 202.089 146.955 202.574L146.93 202.595C146.844 202.669 146.733 202.706 146.62 202.697C146.508 202.689 146.403 202.636 146.329 202.551C146.255 202.465 146.218 202.354 146.227 202.241C146.235 202.128 146.287 202.024 146.373 201.95C146.962 201.384 147.62 200.895 148.331 200.494C149.049 200.085 149.824 199.787 150.631 199.609C152.265 199.237 153.97 199.311 155.565 199.825C155.648 199.849 155.725 199.889 155.791 199.943C155.858 199.998 155.913 200.065 155.953 200.141C155.993 200.217 156.018 200.3 156.025 200.386C156.032 200.472 156.022 200.558 155.995 200.64C155.968 200.721 155.925 200.797 155.868 200.862C155.812 200.926 155.743 200.979 155.665 201.016C155.588 201.053 155.503 201.075 155.417 201.079C155.332 201.083 155.246 201.07 155.165 201.04L155.139 201.031L155.09 201.013Z" fill="#033563"/>
<path opacity="0.52" d="M161.146 232.123C161.618 232.12 162.09 232.077 162.555 231.995C162.653 231.968 162.737 231.905 162.791 231.82C162.845 231.734 162.865 231.631 162.848 231.531C162.83 231.431 162.776 231.342 162.696 231.279C162.616 231.217 162.516 231.187 162.415 231.195C161.687 231.38 160.927 231.407 160.187 231.276C159.447 231.144 158.744 230.855 158.124 230.43C158.084 230.394 158.037 230.367 157.986 230.35C157.935 230.333 157.882 230.326 157.828 230.33C157.72 230.337 157.619 230.386 157.548 230.468C157.477 230.549 157.441 230.656 157.448 230.764C157.455 230.872 157.505 230.972 157.586 231.044C158.612 231.804 159.87 232.186 161.146 232.123V232.123Z" fill="#033563"/>
<path d="M126.976 206.844L126.876 206.437C145.508 201.937 143.02 183.856 142.993 183.674L143.406 183.612C143.436 183.797 145.986 202.248 126.976 206.844Z" fill="#033563"/>
<path opacity="0.1" d="M151.267 221.128C153.362 221.128 155.06 219.882 155.06 218.346C155.06 216.809 153.362 215.564 151.267 215.564C149.172 215.564 147.474 216.809 147.474 218.346C147.474 219.882 149.172 221.128 151.267 221.128Z" fill="#033563"/>
<path opacity="0.1" d="M173.814 217.681C173.814 219.216 175.514 220.461 177.614 220.464C177.976 220.464 178.337 220.426 178.691 220.352C179.003 218.559 179.216 216.825 179.355 215.212C178.798 215 178.207 214.894 177.612 214.899C175.514 214.896 173.816 216.141 173.814 217.681Z" fill="#033563"/>
<path d="M212.621 316.377C211.671 327.541 207.049 397.192 206.135 410.944H80.216C79.504 398.544 76.31 344.309 73.616 320.055C71.041 296.912 65.989 285.325 69.692 278.483C75.743 267.3 92.278 260.838 103.552 259.312C110.437 258.38 120.792 257.712 120.792 257.712C120.792 257.712 121.668 275.448 142.574 276.435C171.033 277.778 169.133 257.712 169.274 257.712C173.884 257.712 200.222 260.63 206.665 264.449C224.221 274.847 214.639 292.718 212.621 316.377Z" fill="#36ABFF"/>
<path d="M308.331 336.79C308.476 336.39 308.701 336.025 308.992 335.715C309.283 335.406 309.634 335.158 310.024 334.989C310.413 334.819 310.833 334.731 311.258 334.729C311.683 334.727 312.104 334.812 312.495 334.978C313.241 335.326 313.827 335.944 314.135 336.707C314.443 337.471 314.449 338.323 314.152 339.091L312.711 343.063L321.764 333.832C322.889 332.651 325.025 331.921 326.264 333.27C327.34 334.295 329.827 334.61 330.231 336.531C330.245 336.541 330.22 354.115 329.176 355.21C324.748 359.86 314.045 360.759 308.076 358.398L298.676 354.682L308.331 336.79Z" fill="#E98862"/>
<g opacity="0.1">
<path opacity="0.1" d="M308.331 336.79C308.476 336.39 308.701 336.025 308.992 335.715C309.283 335.406 309.634 335.158 310.024 334.989C310.413 334.819 310.833 334.731 311.258 334.729C311.683 334.727 312.104 334.812 312.495 334.978C313.241 335.326 313.827 335.944 314.135 336.707C314.443 337.471 314.449 338.323 314.152 339.091L312.711 343.063L321.764 333.832C322.889 332.651 325.025 331.921 326.264 333.27C327.34 334.295 329.827 334.61 330.231 336.531C330.245 336.541 330.22 354.115 329.176 355.21C324.748 359.86 314.045 360.759 308.076 358.398L298.676 354.682L308.331 336.79Z" fill="#033563"/>
</g>
<path d="M256.684 296.39L256.809 302.68C256.834 303.333 256.708 303.984 256.438 304.58C256.169 305.175 255.765 305.701 255.258 306.113C254.751 306.526 254.155 306.815 253.516 306.958C252.878 307.101 252.216 307.093 251.581 306.936L186.719 295.99C186.084 295.832 185.422 295.825 184.783 295.967C184.145 296.11 183.549 296.4 183.042 296.812C182.535 297.225 182.13 297.751 181.861 298.347C181.592 298.943 181.465 299.593 181.491 300.247L175.5 383.29C175.604 384.76 176.195 386.153 177.179 387.249C178.163 388.346 179.484 389.084 180.934 389.346L307.034 411.546C307.669 411.703 308.332 411.711 308.97 411.568C309.608 411.425 310.204 411.136 310.712 410.723C311.219 410.31 311.623 409.785 311.892 409.189C312.162 408.593 312.288 407.942 312.263 407.289L314.852 306.702C314.748 305.232 314.157 303.839 313.173 302.742C312.189 301.645 310.868 300.908 309.418 300.646L261.91 292.135C261.276 291.978 260.613 291.97 259.975 292.113C259.338 292.256 258.742 292.545 258.235 292.958C257.728 293.371 257.324 293.895 257.055 294.491C256.786 295.087 256.659 295.737 256.684 296.39V296.39Z" fill="#01203D"/>
<path d="M307.942 412.617C307.583 412.617 307.225 412.586 306.871 412.526L180.76 390.326C179.085 390.016 177.561 389.158 176.428 387.887C175.295 386.616 174.616 385.004 174.5 383.305L180.494 300.172C180.469 299.417 180.613 298.666 180.915 297.974C181.217 297.282 181.67 296.667 182.24 296.172C182.88 295.647 183.629 295.269 184.431 295.066C185.234 294.862 186.072 294.839 186.885 294.996L251.748 305.94C252.271 306.052 252.812 306.046 253.332 305.922C253.853 305.797 254.338 305.558 254.754 305.222C255.108 304.906 255.387 304.514 255.57 304.076C255.752 303.638 255.834 303.164 255.809 302.69L255.684 296.4C255.652 295.631 255.792 294.865 256.095 294.158C256.397 293.45 256.855 292.82 257.433 292.313C258.074 291.788 258.822 291.41 259.625 291.207C260.428 291.004 261.266 290.98 262.079 291.137L309.597 299.651C311.279 299.945 312.812 300.798 313.947 302.072C315.083 303.347 315.755 304.968 315.854 306.672L313.264 407.303C313.292 408.064 313.15 408.822 312.848 409.521C312.545 410.22 312.091 410.843 311.517 411.344C310.517 412.184 309.248 412.636 307.942 412.617V412.617ZM185.792 296.908C184.973 296.888 184.175 297.167 183.546 297.691C183.192 298.007 182.914 298.399 182.731 298.838C182.548 299.276 182.466 299.75 182.491 300.224L176.5 383.358C176.611 384.581 177.122 385.733 177.953 386.637C178.784 387.541 179.89 388.146 181.1 388.358L307.21 410.558C307.732 410.669 308.272 410.661 308.791 410.537C309.31 410.412 309.795 410.173 310.21 409.838C310.564 409.521 310.842 409.13 311.025 408.692C311.207 408.253 311.289 407.78 311.264 407.306L313.854 306.674C313.752 305.443 313.245 304.281 312.413 303.368C311.581 302.456 310.47 301.845 309.254 301.63L261.736 293.116C261.214 293.006 260.674 293.014 260.155 293.138C259.636 293.263 259.151 293.501 258.736 293.836C258.382 294.152 258.104 294.544 257.921 294.983C257.738 295.421 257.656 295.895 257.68 296.369L257.805 302.658C257.838 303.426 257.698 304.193 257.395 304.9C257.093 305.607 256.635 306.238 256.057 306.745C255.417 307.271 254.669 307.649 253.866 307.852C253.063 308.055 252.225 308.079 251.412 307.921L186.549 296.976C186.299 296.932 186.046 296.909 185.792 296.908Z" fill="#16276F"/>
<path d="M295.441 390.622L192.644 377.534L209.702 243.562L292.836 254.147L309.88 277.217L295.441 390.622Z" fill="white"/>
<path d="M295.441 391.623C295.399 391.623 295.357 391.62 295.315 391.615L192.515 378.526C192.252 378.492 192.013 378.356 191.85 378.146C191.688 377.937 191.616 377.671 191.649 377.408L208.706 243.435C208.74 243.172 208.877 242.933 209.086 242.77C209.297 242.61 209.562 242.538 209.825 242.57L292.959 253.156C293.093 253.173 293.223 253.218 293.339 253.287C293.456 253.355 293.558 253.447 293.638 253.556L310.682 276.626C310.834 276.833 310.902 277.091 310.87 277.346L296.43 390.752C296.399 390.993 296.282 391.215 296.099 391.376C295.916 391.537 295.681 391.626 295.438 391.626L295.441 391.623ZM193.762 376.669L294.576 389.505L308.837 277.49L292.286 255.09L210.567 244.683L193.762 376.669Z" fill="#16276F"/>
<path d="M292.836 254.147L290.256 274.408L309.88 277.217L292.836 254.147Z" fill="white"/>
<path d="M309.88 278.217C309.833 278.217 309.786 278.214 309.739 278.207L290.115 275.398C289.855 275.361 289.62 275.223 289.461 275.014C289.302 274.805 289.231 274.542 289.264 274.282L291.844 254.021C291.868 253.822 291.952 253.635 292.084 253.484C292.216 253.333 292.391 253.225 292.585 253.175C292.779 253.124 292.984 253.134 293.173 253.201C293.361 253.268 293.526 253.391 293.644 253.553L310.688 276.623C310.798 276.772 310.864 276.948 310.88 277.133C310.896 277.317 310.86 277.502 310.776 277.668C310.693 277.833 310.565 277.972 310.407 278.069C310.25 278.166 310.068 278.217 309.883 278.217H309.88ZM291.373 273.557L307.656 275.887L293.513 256.747L291.373 273.557Z" fill="#16276F"/>
<path d="M291.369 391.518L194.287 355.275L241.522 228.751L320.034 258.061L331.353 284.417L291.369 391.518Z" fill="#36ABFF"/>
<g opacity="0.43">
<path opacity="0.43" d="M291.369 391.518L194.287 355.275L241.522 228.751L320.034 258.061L331.353 284.417L291.369 391.518Z" fill="white"/>
</g>
<path d="M291.37 392.518C291.251 392.518 291.132 392.497 291.02 392.455L193.937 356.212C193.689 356.119 193.487 355.931 193.377 355.69C193.267 355.449 193.257 355.174 193.35 354.926L240.585 228.401C240.631 228.278 240.701 228.165 240.79 228.069C240.88 227.973 240.987 227.895 241.107 227.841C241.226 227.786 241.356 227.756 241.487 227.751C241.618 227.747 241.749 227.768 241.872 227.814L320.384 257.125C320.511 257.172 320.627 257.244 320.725 257.337C320.823 257.431 320.901 257.543 320.954 257.667L332.272 284.022C332.374 284.258 332.38 284.525 332.29 284.766L292.306 391.866C292.235 392.057 292.107 392.222 291.94 392.338C291.773 392.455 291.574 392.518 291.37 392.518ZM195.57 354.688L290.78 390.232L330.273 284.443L319.282 258.848L242.106 230.037L195.57 354.688Z" fill="#16276F"/>
<path d="M320.034 258.061L312.891 277.196L331.353 284.417L320.034 258.061Z" fill="white"/>
<path d="M331.353 285.417C331.228 285.417 331.105 285.393 330.989 285.348L312.527 278.128C312.282 278.032 312.085 277.844 311.978 277.604C311.871 277.364 311.863 277.092 311.955 276.846L319.098 257.712C319.168 257.525 319.292 257.363 319.454 257.247C319.617 257.131 319.81 257.066 320.01 257.061H320.035C320.231 257.061 320.422 257.118 320.585 257.226C320.749 257.334 320.877 257.487 320.954 257.667L332.272 284.022C332.339 284.174 332.366 284.341 332.352 284.506C332.338 284.672 332.283 284.832 332.191 284.971C332.1 285.11 331.976 285.224 331.829 285.302C331.683 285.381 331.519 285.422 331.353 285.422V285.417ZM314.172 276.624L329.491 282.615L320.1 260.747L314.172 276.624Z" fill="#16276F"/>
<path d="M312.834 295.473C312.715 295.473 312.597 295.452 312.485 295.41L240.639 268.567C240.396 268.47 240.201 268.282 240.095 268.043C239.989 267.804 239.981 267.533 240.073 267.288C240.164 267.043 240.348 266.844 240.585 266.733C240.821 266.621 241.092 266.608 241.339 266.694L313.185 293.537C313.404 293.619 313.587 293.776 313.703 293.979C313.818 294.183 313.859 294.42 313.817 294.651C313.775 294.881 313.654 295.089 313.475 295.24C313.295 295.39 313.069 295.472 312.835 295.473H312.834Z" fill="#16276F"/>
<path d="M307.512 308.717C307.393 308.716 307.275 308.695 307.163 308.653L235.317 281.81C235.074 281.713 234.879 281.525 234.773 281.286C234.667 281.047 234.659 280.776 234.751 280.531C234.842 280.286 235.026 280.087 235.263 279.976C235.499 279.865 235.77 279.851 236.017 279.937L307.863 306.78C308.083 306.862 308.267 307.018 308.383 307.222C308.499 307.426 308.539 307.664 308.498 307.895C308.456 308.125 308.335 308.334 308.155 308.484C307.975 308.635 307.747 308.717 307.513 308.717H307.512Z" fill="#16276F"/>
<path d="M302.521 322.017C302.402 322.017 302.283 321.996 302.171 321.954L230.326 295.111C230.2 295.067 230.085 294.998 229.986 294.909C229.887 294.82 229.807 294.712 229.75 294.591C229.694 294.471 229.662 294.34 229.657 294.207C229.651 294.074 229.672 293.941 229.719 293.817C229.766 293.692 229.837 293.578 229.928 293.481C230.019 293.384 230.129 293.306 230.251 293.252C230.373 293.199 230.504 293.169 230.637 293.167C230.77 293.164 230.902 293.189 231.026 293.238L302.872 320.081C303.091 320.163 303.274 320.32 303.39 320.523C303.505 320.727 303.546 320.964 303.504 321.195C303.462 321.425 303.341 321.633 303.162 321.784C302.982 321.934 302.756 322.016 302.522 322.017H302.521Z" fill="#16276F"/>
<path d="M271.608 296.39L270.508 302.68C270.269 304.047 269.497 305.264 268.361 306.062C267.226 306.86 265.819 307.175 264.452 306.936L201.72 295.99C201.043 295.872 200.349 295.888 199.678 296.038C199.007 296.188 198.373 296.469 197.81 296.864C197.248 297.259 196.769 297.761 196.401 298.342C196.032 298.922 195.782 299.57 195.664 300.247L181.013 384.232C180.774 385.599 181.089 387.006 181.887 388.141C182.685 389.277 183.902 390.049 185.269 390.288L307.106 411.54C308.474 411.778 309.88 411.464 311.016 410.665C312.151 409.867 312.923 408.65 313.162 407.283L316.809 386.377L328.709 318.142L330.709 306.696C330.827 306.019 330.811 305.325 330.661 304.654C330.511 303.983 330.23 303.348 329.835 302.786C329.44 302.224 328.937 301.745 328.357 301.376C327.776 301.008 327.129 300.758 326.452 300.64L277.662 292.129C276.985 292.011 276.291 292.028 275.62 292.178C274.949 292.328 274.315 292.61 273.752 293.005C273.19 293.401 272.711 293.903 272.343 294.484C271.976 295.065 271.726 295.712 271.608 296.39V296.39Z" fill="white"/>
<path d="M308.008 412.618C307.648 412.618 307.289 412.587 306.935 412.525L185.1 391.27C183.472 390.984 182.025 390.063 181.074 388.711C180.124 387.359 179.749 385.685 180.031 384.057L194.682 300.072C194.966 298.443 195.886 296.994 197.239 296.043C198.591 295.092 200.266 294.718 201.895 295.002L264.629 305.946C265.177 306.042 265.738 306.029 266.281 305.908C266.824 305.787 267.338 305.56 267.793 305.24C268.248 304.92 268.635 304.514 268.933 304.044C269.231 303.575 269.434 303.051 269.529 302.503L270.629 296.214C270.769 295.407 271.067 294.636 271.506 293.945C271.944 293.253 272.515 292.655 273.185 292.184C273.854 291.713 274.61 291.379 275.409 291.2C276.208 291.022 277.034 291.002 277.841 291.143L326.631 299.655C328.26 299.939 329.709 300.859 330.66 302.211C331.61 303.564 331.985 305.239 331.701 306.868L314.148 407.455C313.894 408.899 313.139 410.208 312.016 411.152C310.894 412.096 309.475 412.615 308.008 412.618ZM200.808 296.908C199.813 296.91 198.85 297.263 198.089 297.905C197.328 298.546 196.818 299.435 196.647 300.416L182 384.401C181.808 385.507 182.062 386.644 182.707 387.563C183.353 388.481 184.336 389.107 185.442 389.301L307.28 410.555C308.386 410.747 309.524 410.493 310.443 409.847C311.361 409.202 311.986 408.218 312.18 407.112L329.727 306.525C329.92 305.419 329.665 304.281 329.02 303.363C328.375 302.444 327.391 301.819 326.285 301.625L277.495 293.113C276.947 293.017 276.386 293.03 275.843 293.151C275.3 293.272 274.787 293.499 274.332 293.819C273.876 294.139 273.489 294.545 273.191 295.015C272.893 295.484 272.69 296.008 272.595 296.556L271.495 302.845C271.354 303.651 271.056 304.422 270.618 305.114C270.179 305.805 269.609 306.404 268.939 306.874C268.269 307.345 267.513 307.68 266.714 307.858C265.915 308.037 265.089 308.057 264.282 307.916L201.547 296.971C201.304 296.929 201.058 296.908 200.811 296.908H200.808Z" fill="#16276F"/>
<path d="M317.2 347.778C317.352 347.24 317.675 346.767 318.121 346.43C318.566 346.093 319.109 345.911 319.668 345.912C319.661 345.867 319.612 345.764 319.69 345.756L317.767 344.822C317.194 344.559 316.736 344.098 316.477 343.524C316.218 342.95 316.176 342.301 316.358 341.698C316.557 341.108 316.968 340.614 317.512 340.31C318.055 340.006 318.691 339.915 319.298 340.054C319.29 340.03 319.298 340.004 319.298 339.979L318.508 339.595C317.97 339.345 317.534 338.917 317.275 338.383C317.016 337.848 316.95 337.241 317.087 336.664C317.18 336.303 317.353 335.968 317.591 335.683C317.83 335.397 318.129 335.168 318.467 335.012C318.805 334.856 319.174 334.777 319.546 334.78C319.918 334.784 320.285 334.87 320.62 335.033L322.444 335.918C322.444 335.908 322.444 335.897 322.444 335.887C322.444 335.877 322.466 335.871 322.474 335.859C322.029 335.504 321.718 335.008 321.592 334.452C321.467 333.897 321.533 333.315 321.782 332.803C322.337 331.438 324.15 331.387 325.329 331.959L328.903 334.051C329.455 334.374 329.918 334.828 330.251 335.374C330.584 335.919 330.778 336.539 330.814 337.177C331.133 342.698 331.621 357.14 327.857 355.312L318.592 350.812C318.056 350.532 317.628 350.083 317.376 349.533C317.124 348.984 317.062 348.366 317.2 347.778V347.778Z" fill="#E98862"/>
<path d="M213.627 371.19C213.587 370.575 213.358 369.988 212.971 369.51C212.584 369.031 212.058 368.685 211.465 368.518C211.491 368.47 211.502 368.416 211.495 368.362C211.483 368.317 211.46 368.276 211.428 368.243C211.395 368.21 211.355 368.186 211.31 368.174L213.785 367.625C214.517 367.479 215.172 367.073 215.629 366.481C216.085 365.89 216.312 365.153 216.267 364.408C216.198 363.674 215.859 362.991 215.316 362.493C214.773 361.994 214.064 361.714 213.327 361.708C213.343 361.683 213.336 361.65 213.344 361.621L214.361 361.395C215.051 361.255 215.671 360.88 216.116 360.335C216.562 359.79 216.805 359.108 216.805 358.404C216.796 357.962 216.689 357.529 216.492 357.134C216.295 356.739 216.013 356.392 215.666 356.119C215.319 355.847 214.915 355.654 214.485 355.556C214.055 355.458 213.608 355.456 213.177 355.552L210.83 356.073C210.83 356.06 210.84 356.05 210.837 356.037C210.834 356.024 210.817 356.012 210.811 355.997C211.422 355.709 211.916 355.222 212.214 354.616C212.512 354.009 212.594 353.32 212.449 352.661C212.183 350.934 210.106 350.377 208.589 350.714L194.894 353.504L198.143 351.129C198.786 350.679 199.233 350.002 199.395 349.235C199.558 348.467 199.422 347.667 199.017 346.996C198.796 346.657 198.508 346.366 198.171 346.142C197.834 345.917 197.455 345.764 197.057 345.691C196.658 345.618 196.249 345.627 195.855 345.718C195.46 345.808 195.088 345.978 194.761 346.217L177.021 359.187C174.939 360.708 173.532 362.981 173.1 365.523C172.668 368.064 173.245 370.675 174.708 372.798C176.403 375.261 178.795 377.161 181.578 378.256C184.36 379.351 187.406 379.589 190.325 378.942L211.183 374.312C211.883 374.143 212.505 373.743 212.949 373.177C213.393 372.61 213.632 371.91 213.627 371.19Z" fill="#E98862"/>
<g opacity="0.25">
<path opacity="0.25" d="M197.28 358.817C197.296 358.887 197.339 358.948 197.399 358.987C197.459 359.025 197.533 359.039 197.603 359.025L210.623 356.354C210.691 356.336 210.749 356.293 210.786 356.233C210.824 356.173 210.836 356.102 210.822 356.033C210.808 355.964 210.768 355.903 210.711 355.863C210.653 355.822 210.582 355.806 210.513 355.816L197.493 358.486C197.458 358.493 197.424 358.507 197.394 358.527C197.364 358.547 197.338 358.573 197.318 358.603C197.298 358.633 197.285 358.667 197.278 358.703C197.271 358.738 197.272 358.774 197.279 358.81L197.28 358.817Z" fill="#033563"/>
</g>
<g opacity="0.25">
<path opacity="0.25" d="M198.3 364.59C198.316 364.66 198.359 364.721 198.42 364.76C198.48 364.799 198.553 364.812 198.624 364.798L213.154 361.818C213.189 361.811 213.223 361.797 213.253 361.776C213.283 361.756 213.308 361.73 213.328 361.7C213.348 361.67 213.362 361.636 213.369 361.601C213.376 361.566 213.375 361.529 213.368 361.494C213.351 361.423 213.308 361.362 213.248 361.322C213.188 361.283 213.114 361.267 213.043 361.28L198.513 364.259C198.478 364.266 198.444 364.28 198.414 364.301C198.384 364.321 198.359 364.347 198.339 364.377C198.319 364.407 198.305 364.441 198.298 364.476C198.291 364.512 198.292 364.548 198.299 364.584L198.3 364.59Z" fill="#033563"/>
</g>
<g opacity="0.25">
<path opacity="0.25" d="M199.367 370.852C199.383 370.922 199.426 370.983 199.486 371.022C199.546 371.061 199.62 371.074 199.69 371.06L211.281 368.683C211.316 368.676 211.35 368.662 211.38 368.641C211.41 368.621 211.435 368.595 211.455 368.565C211.475 368.535 211.489 368.501 211.496 368.466C211.503 368.431 211.502 368.394 211.495 368.359C211.48 368.287 211.438 368.225 211.377 368.185C211.316 368.144 211.242 368.13 211.17 368.144L199.58 370.521C199.545 370.528 199.511 370.542 199.481 370.563C199.451 370.583 199.425 370.609 199.406 370.639C199.386 370.669 199.372 370.703 199.365 370.738C199.358 370.774 199.359 370.81 199.366 370.846L199.367 370.852Z" fill="#033563"/>
</g>
<path d="M189.035 387.19L75.867 407.642C72.3356 408.026 68.7633 407.587 65.4302 406.358C62.0972 405.13 59.0941 403.146 56.6565 400.562C54.219 397.978 52.4134 394.865 51.3813 391.466C50.3492 388.067 50.1187 384.475 50.708 380.972L66.551 286.802C67.0519 283.825 68.1342 280.975 69.7363 278.416C71.3384 275.857 73.4288 273.639 75.8882 271.888C78.3476 270.137 81.1279 268.887 84.0702 268.211C87.0125 267.534 90.0592 267.443 93.0365 267.944C96.0138 268.445 98.8632 269.528 101.422 271.13C103.981 272.732 106.199 274.822 107.951 277.282C109.702 279.741 110.951 282.521 111.628 285.463C112.304 288.406 112.395 291.453 111.894 294.43L101.094 359.256L184.063 348.837L189.035 387.19Z" fill="#36ABFF"/>
<path d="M75.866 408.06C75.7618 408.059 75.6616 408.019 75.585 407.949C75.5084 407.878 75.4609 407.781 75.4518 407.677C75.4427 407.574 75.4726 407.47 75.5357 407.387C75.5988 407.304 75.6905 407.248 75.793 407.229L188.569 386.849L183.699 349.304L101.143 359.672C101.078 359.68 101.013 359.673 100.951 359.651C100.89 359.63 100.834 359.594 100.789 359.547C100.744 359.5 100.71 359.443 100.691 359.38C100.672 359.318 100.667 359.252 100.678 359.188L107.546 317.756C107.554 317.701 107.573 317.649 107.602 317.602C107.631 317.555 107.669 317.514 107.714 317.482C107.759 317.45 107.81 317.428 107.863 317.415C107.917 317.403 107.973 317.402 108.027 317.412C108.136 317.43 108.234 317.491 108.299 317.581C108.364 317.671 108.39 317.783 108.372 317.893L101.6 358.771L184.012 348.421C184.122 348.408 184.232 348.439 184.319 348.506C184.407 348.574 184.464 348.673 184.479 348.783L189.455 387.136C189.469 387.242 189.441 387.35 189.378 387.437C189.314 387.524 189.22 387.583 189.114 387.602L75.942 408.054C75.9169 408.058 75.8914 408.06 75.866 408.06Z" fill="#033563"/>
<path d="M101.028 358.844L93.7482 360.009L93.8807 360.837L101.16 359.671L101.028 358.844Z" fill="#033563"/>
<path d="M813.022 632.157H758.142V630.157H813.022C826.529 630.143 839.479 624.77 849.03 615.219C858.582 605.668 863.954 592.718 863.968 579.211V226.872H865.968V579.211C865.952 593.248 860.368 606.706 850.443 616.631C840.517 626.557 827.059 632.141 813.022 632.157V632.157Z" fill="#16276F"/>
<path d="M864.968 295.582C868.516 295.582 871.393 292.705 871.393 289.157C871.393 285.608 868.516 282.732 864.968 282.732C861.42 282.732 858.543 285.608 858.543 289.157C858.543 292.705 861.42 295.582 864.968 295.582Z" fill="white"/>
<path d="M864.968 296.582C863.499 296.582 862.063 296.146 860.842 295.33C859.621 294.514 858.669 293.354 858.107 291.997C857.545 290.64 857.398 289.147 857.685 287.707C857.971 286.266 858.679 284.943 859.717 283.904C860.756 282.866 862.079 282.159 863.52 281.872C864.96 281.586 866.454 281.733 867.81 282.295C869.167 282.858 870.327 283.81 871.143 285.031C871.959 286.252 872.394 287.688 872.394 289.157C872.392 291.125 871.608 293.013 870.216 294.405C868.824 295.797 866.937 296.58 864.968 296.582V296.582ZM864.968 283.731C863.895 283.731 862.846 284.049 861.953 284.645C861.061 285.241 860.366 286.089 859.955 287.08C859.544 288.072 859.437 289.163 859.646 290.215C859.856 291.268 860.372 292.235 861.131 292.994C861.89 293.752 862.857 294.269 863.909 294.479C864.962 294.688 866.053 294.58 867.044 294.17C868.036 293.759 868.883 293.064 869.48 292.171C870.076 291.279 870.394 290.23 870.394 289.157C870.392 287.718 869.82 286.339 868.803 285.322C867.786 284.305 866.407 283.732 864.968 283.731V283.731Z" fill="#16276F"/>
<path d="M864.968 386.01C868.516 386.01 871.393 383.133 871.393 379.585C871.393 376.036 868.516 373.16 864.968 373.16C861.42 373.16 858.543 376.036 858.543 379.585C858.543 383.133 861.42 386.01 864.968 386.01Z" fill="#16276F"/>
<path d="M864.968 387.011C863.499 387.011 862.064 386.575 860.842 385.759C859.621 384.943 858.669 383.784 858.107 382.427C857.545 381.07 857.398 379.577 857.685 378.136C857.971 376.696 858.678 375.372 859.717 374.334C860.756 373.295 862.079 372.588 863.519 372.301C864.96 372.015 866.453 372.162 867.81 372.724C869.167 373.286 870.327 374.238 871.143 375.459C871.958 376.68 872.394 378.116 872.394 379.585C872.392 381.554 871.609 383.441 870.217 384.833C868.824 386.226 866.937 387.009 864.968 387.011V387.011ZM864.968 374.16C863.895 374.16 862.846 374.478 861.953 375.074C861.061 375.671 860.366 376.518 859.955 377.51C859.544 378.501 859.437 379.592 859.646 380.645C859.856 381.697 860.373 382.664 861.132 383.423C861.891 384.182 862.857 384.698 863.91 384.908C864.963 385.117 866.054 385.009 867.045 384.598C868.037 384.188 868.884 383.492 869.48 382.6C870.076 381.707 870.394 380.658 870.394 379.585C870.392 378.146 869.82 376.767 868.803 375.75C867.785 374.733 866.406 374.161 864.968 374.16V374.16Z" fill="white"/>
<path d="M864.968 476.438C868.516 476.438 871.393 473.561 871.393 470.013C871.393 466.464 868.516 463.588 864.968 463.588C861.42 463.588 858.543 466.464 858.543 470.013C858.543 473.561 861.42 476.438 864.968 476.438Z" fill="white"/>
<path d="M864.968 477.439C863.499 477.439 862.064 477.003 860.842 476.187C859.621 475.371 858.669 474.212 858.107 472.855C857.545 471.498 857.398 470.005 857.685 468.564C857.971 467.124 858.678 465.8 859.717 464.762C860.756 463.723 862.079 463.016 863.519 462.73C864.96 462.443 866.453 462.59 867.81 463.152C869.167 463.714 870.327 464.666 871.143 465.887C871.958 467.108 872.394 468.544 872.394 470.013C872.392 471.982 871.609 473.869 870.217 475.261C868.824 476.654 866.937 477.437 864.968 477.439V477.439ZM864.968 464.588C863.895 464.588 862.846 464.906 861.953 465.502C861.061 466.099 860.366 466.946 859.955 467.938C859.544 468.929 859.437 470.02 859.646 471.073C859.856 472.125 860.373 473.092 861.132 473.851C861.891 474.61 862.857 475.126 863.91 475.336C864.963 475.545 866.054 475.437 867.045 475.027C868.037 474.616 868.884 473.92 869.48 473.028C870.076 472.135 870.394 471.086 870.394 470.013C870.392 468.575 869.819 467.196 868.802 466.179C867.785 465.163 866.406 464.591 864.968 464.59V464.588Z" fill="#16276F"/>
<path d="M864.968 566.867C868.516 566.867 871.393 563.99 871.393 560.442C871.393 556.893 868.516 554.017 864.968 554.017C861.42 554.017 858.543 556.893 858.543 560.442C858.543 563.99 861.42 566.867 864.968 566.867Z" fill="white"/>
<path d="M864.968 567.867C863.499 567.867 862.064 567.431 860.842 566.615C859.621 565.799 858.669 564.64 858.107 563.283C857.545 561.926 857.398 560.433 857.685 558.992C857.971 557.552 858.678 556.228 859.717 555.19C860.756 554.151 862.079 553.444 863.519 553.157C864.96 552.871 866.453 553.018 867.81 553.58C869.167 554.142 870.327 555.094 871.143 556.315C871.958 557.536 872.394 558.972 872.394 560.441C872.392 562.41 871.609 564.297 870.217 565.689C868.824 567.082 866.937 567.865 864.968 567.867V567.867ZM864.968 555.016C863.895 555.016 862.846 555.334 861.953 555.93C861.061 556.527 860.366 557.374 859.955 558.366C859.544 559.357 859.437 560.448 859.646 561.501C859.856 562.553 860.373 563.52 861.132 564.279C861.891 565.038 862.857 565.554 863.91 565.764C864.963 565.973 866.054 565.865 867.045 565.454C868.037 565.044 868.884 564.348 869.48 563.456C870.076 562.563 870.394 561.514 870.394 560.441C870.392 559.002 869.82 557.623 868.803 556.606C867.785 555.589 866.406 555.017 864.968 555.016V555.016Z" fill="#16276F"/>
<path d="M815.873 637.817C819.421 637.817 822.298 634.94 822.298 631.392C822.298 627.843 819.421 624.967 815.873 624.967C812.325 624.967 809.448 627.843 809.448 631.392C809.448 634.94 812.325 637.817 815.873 637.817Z" fill="#16276F"/>
<path d="M815.874 638.817C814.406 638.817 812.97 638.381 811.749 637.565C810.529 636.749 809.577 635.59 809.015 634.233C808.453 632.876 808.306 631.384 808.593 629.943C808.879 628.503 809.586 627.18 810.624 626.142C811.663 625.104 812.985 624.396 814.426 624.11C815.866 623.823 817.359 623.97 818.715 624.532C820.072 625.093 821.232 626.045 822.048 627.265C822.864 628.486 823.3 629.921 823.3 631.39C823.298 633.359 822.515 635.247 821.123 636.639C819.731 638.032 817.843 638.815 815.874 638.817ZM815.874 625.967C814.801 625.967 813.752 626.285 812.86 626.882C811.968 627.478 811.273 628.326 810.863 629.317C810.452 630.308 810.345 631.399 810.555 632.452C810.764 633.504 811.281 634.47 812.04 635.229C812.799 635.987 813.766 636.504 814.818 636.713C815.871 636.922 816.962 636.814 817.953 636.403C818.944 635.992 819.791 635.297 820.387 634.404C820.983 633.512 821.3 632.463 821.3 631.39C821.298 629.952 820.726 628.573 819.709 627.556C818.691 626.539 817.312 625.968 815.874 625.967V625.967Z" fill="white"/>
<path d="M1 800.661H929.139C929.404 800.661 929.659 800.555 929.846 800.368C930.034 800.18 930.139 799.926 930.139 799.661C930.139 799.396 930.034 799.141 929.846 798.954C929.659 798.766 929.404 798.661 929.139 798.661H1C0.734784 798.661 0.48043 798.766 0.292893 798.954C0.105357 799.141 0 799.396 0 799.661C0 799.926 0.105357 800.18 0.292893 800.368C0.48043 800.555 0.734784 800.661 1 800.661V800.661Z" fill="#01203D"/>
</svg>
