<svg xmlns="http://www.w3.org/2000/svg" viewBox="0 0 3572.1 1599.7"><defs><style>.cls-1{isolation:isolate;}.cls-2{fill:#f8f9fd;}.cls-3{fill:#0e385a;}.cls-10,.cls-12,.cls-35,.cls-4{fill:#31c0df;}.cls-5{fill:#febd54;}.cls-6{fill:#fee0af;}.cls-7{fill:#c48c31;}.cls-40,.cls-7,.cls-9{opacity:0.36;}.cls-8{fill:#feb540;}.cls-9{fill:#d99b36;}.cls-10,.cls-12,.cls-14,.cls-35{stroke:#000;stroke-miterlimit:10;}.cls-10{stroke-width:5px;}.cls-11{fill:#2a4387;}.cls-12{stroke-width:6px;}.cls-13{fill:#325bc7;}.cls-14{fill:#3d6ff5;stroke-width:7px;}.cls-15{fill:#fe5454;}.cls-16{fill:#f7f7f7;}.cls-17{fill:#4d78eb;}.cls-18{fill:#8da6eb;}.cls-19,.cls-59{fill:#fff;}.cls-20{fill:#292c47;}.cls-21{fill:#eea886;}.cls-22{fill:#424773;}.cls-23{fill:#323657;}.cls-24{fill:#84a4fd;}.cls-25{fill:#4956bd;}.cls-26{fill:#ded7d5;}.cls-27{fill:#88a3eb;}.cls-28,.cls-54{fill:#243973;}.cls-28,.cls-53{mix-blend-mode:multiply;opacity:0.15;}.cls-29{fill:#202338;}.cls-30{fill:#81807e;}.cls-31{fill:#1d2033;}.cls-32{fill:#eea987;}.cls-33{fill:#353a3d;}.cls-34{fill:#c78d71;}.cls-35{stroke-width:0.75px;}.cls-36{fill:#3a4066;}.cls-37{fill:#eddad3;}.cls-38{fill:#c1c5db;}.cls-39{fill:#aebdf2;}.cls-40{fill:#6e4e1b;}.cls-41{fill:#f2aa43;}.cls-42{fill:#f8bb66;}.cls-43{fill:#eba02a;}.cls-44{fill:#f8c681;}.cls-45{fill:#f8f8f8;mix-blend-mode:soft-light;}.cls-46{fill:#6069a8;}.cls-47{fill:#464240;}.cls-48{fill:#eb4747;}.cls-49{fill:#a77860;}.cls-50{fill:#3a5ab0;}.cls-51{fill:#5e5853;}.cls-52{fill:#baafa3;}.cls-55{fill:#d4c3bd;}.cls-56{fill:#de9673;}.cls-57{fill:#e6d3cc;}.cls-58{fill:#dbd5d2;}.cls-59{opacity:0.72;}</style></defs><g class="cls-1"><g id="Слой_1" data-name="Слой 1"><rect class="cls-2" x="2537.5" y="132.5" width="1033.1" height="925.2"/><path class="cls-3" d="M2632.5,322.6v974.9H3668.7V322.6Zm1033.2,971.9H2635.6V325.6H3665.7Z" transform="translate(-96.6 -231)"/><rect class="cls-3" x="3290.7" y="348.6" width="164" height="640.25"/><rect class="cls-4" x="3290.7" y="594.5" width="164" height="394.29"/><rect class="cls-3" x="3086.1" y="432.4" width="164" height="787.44" transform="translate(6239.5 1421.2) rotate(180)"/><rect class="cls-4" x="3086.1" y="720.4" width="164" height="499.42" transform="translate(6239.5 1709.2) rotate(180)"/><rect class="cls-3" x="2784" y="519.1" width="164" height="700.73" transform="translate(5635.4 1507.9) rotate(180)"/><rect class="cls-4" x="2784" y="775.4" width="164" height="444.43" transform="translate(5635.4 1764.2) rotate(180)"/><polygon class="cls-3" points="588 747.9 578.9 737.3 652.8 673.9 743.8 673.9 950.5 497.9 1079.7 608 1175 608 1223.1 649 1372.8 521.5 1448.7 521.5 1946.9 98.1 1955.9 108.7 1453.9 535.5 1377.9 535.5 1223.1 667.3 1169.8 621.9 1074.6 621.9 950.5 516.2 749 687.8 657.9 687.8 588 747.9"/><path class="cls-5" d="M763.4,1631.8v36.1a7.4,7.4,0,0,1-7.4,7.5H279.1a7.5,7.5,0,0,1-7.5-7.5v-36.1a7.5,7.5,0,0,1,7.5-7.4H756A7.4,7.4,0,0,1,763.4,1631.8Z" transform="translate(-96.6 -231)"/><path class="cls-6" d="M763.4,1631.8H271.6a7.5,7.5,0,0,1,7.5-7.4H756A7.4,7.4,0,0,1,763.4,1631.8Z" transform="translate(-96.6 -231)"/><path class="cls-7" d="M530,1624.4l-30.6,51H279.1a7.5,7.5,0,0,1-7.5-7.5v-36.1a7.5,7.5,0,0,1,7.5-7.4Z" transform="translate(-96.6 -231)"/><path class="cls-5" d="M784.4,1529.7v36.2a7.5,7.5,0,0,1-7.5,7.4H300a7.4,7.4,0,0,1-7.4-7.4v-36.2a7.4,7.4,0,0,1,7.4-7.4H776.9A7.5,7.5,0,0,1,784.4,1529.7Z" transform="translate(-96.6 -231)"/><path class="cls-6" d="M784.4,1529.7H292.6a7.4,7.4,0,0,1,7.4-7.4H776.9A7.5,7.5,0,0,1,784.4,1529.7Z" transform="translate(-96.6 -231)"/><path class="cls-7" d="M550.9,1522.3l-30.5,51H300a7.4,7.4,0,0,1-7.4-7.4v-36.2a7.4,7.4,0,0,1,7.4-7.4Z" transform="translate(-96.6 -231)"/><path class="cls-8" d="M743.8,1580.7v36.2a7.6,7.6,0,0,1-7.5,7.5H259.4a7.5,7.5,0,0,1-7.4-7.5v-36.2a7.4,7.4,0,0,1,7.4-7.4H736.3A7.5,7.5,0,0,1,743.8,1580.7Z" transform="translate(-96.6 -231)"/><path class="cls-6" d="M743.8,1580.7H252a7.4,7.4,0,0,1,7.4-7.4H736.3A7.5,7.5,0,0,1,743.8,1580.7Z" transform="translate(-96.6 -231)"/><path class="cls-9" d="M510.3,1573.3l-30.5,51.1H259.4a7.5,7.5,0,0,1-7.4-7.5v-36.2a7.4,7.4,0,0,1,7.4-7.4Z" transform="translate(-96.6 -231)"/><path class="cls-8" d="M743.8,1478.7v36.2a7.5,7.5,0,0,1-7.5,7.4H259.4a7.4,7.4,0,0,1-7.4-7.4v-36.2a7.4,7.4,0,0,1,7.4-7.4H736.3A7.5,7.5,0,0,1,743.8,1478.7Z" transform="translate(-96.6 -231)"/><path class="cls-6" d="M743.8,1478.7H252a7.4,7.4,0,0,1,7.4-7.4H736.3A7.5,7.5,0,0,1,743.8,1478.7Z" transform="translate(-96.6 -231)"/><path class="cls-9" d="M510.3,1471.3l-30.5,51H259.4a7.4,7.4,0,0,1-7.4-7.4v-36.2a7.4,7.4,0,0,1,7.4-7.4Z" transform="translate(-96.6 -231)"/><path class="cls-5" d="M784.4,1427.7v36.1a7.5,7.5,0,0,1-7.5,7.5H300a7.4,7.4,0,0,1-7.4-7.5v-36.1a7.4,7.4,0,0,1,7.4-7.4H776.9A7.5,7.5,0,0,1,784.4,1427.7Z" transform="translate(-96.6 -231)"/><path class="cls-6" d="M784.4,1427.7H292.6a7.4,7.4,0,0,1,7.4-7.4H776.9A7.5,7.5,0,0,1,784.4,1427.7Z" transform="translate(-96.6 -231)"/><path class="cls-7" d="M550.9,1420.3l-30.5,51H300a7.4,7.4,0,0,1-7.4-7.5v-36.1a7.4,7.4,0,0,1,7.4-7.4Z" transform="translate(-96.6 -231)"/><path class="cls-5" d="M763.4,1325.6v36.2a7.4,7.4,0,0,1-7.4,7.4H279.1a7.5,7.5,0,0,1-7.5-7.4v-36.2a7.5,7.5,0,0,1,7.5-7.4H756A7.4,7.4,0,0,1,763.4,1325.6Z" transform="translate(-96.6 -231)"/><path class="cls-6" d="M763.4,1325.6H271.6a7.5,7.5,0,0,1,7.5-7.4H756A7.4,7.4,0,0,1,763.4,1325.6Z" transform="translate(-96.6 -231)"/><path class="cls-7" d="M530,1318.2l-30.6,51H279.1a7.5,7.5,0,0,1-7.5-7.4v-36.2a7.5,7.5,0,0,1,7.5-7.4Z" transform="translate(-96.6 -231)"/><path class="cls-8" d="M748.5,1376.6v36.2a7.6,7.6,0,0,1-7.5,7.5H264.1a7.5,7.5,0,0,1-7.4-7.5v-36.2a7.4,7.4,0,0,1,7.4-7.4H741A7.5,7.5,0,0,1,748.5,1376.6Z" transform="translate(-96.6 -231)"/><path class="cls-6" d="M748.5,1376.6H256.7a7.4,7.4,0,0,1,7.4-7.4H741A7.5,7.5,0,0,1,748.5,1376.6Z" transform="translate(-96.6 -231)"/><path class="cls-9" d="M515,1369.2l-30.5,51.1H264.1a7.5,7.5,0,0,1-7.4-7.5v-36.2a7.4,7.4,0,0,1,7.4-7.4Z" transform="translate(-96.6 -231)"/><path class="cls-8" d="M733.8,1274.6v36.2a7.4,7.4,0,0,1-7.4,7.4H249.5a7.4,7.4,0,0,1-7.5-7.4v-36.2a7.4,7.4,0,0,1,7.5-7.4H726.4A7.4,7.4,0,0,1,733.8,1274.6Z" transform="translate(-96.6 -231)"/><path class="cls-6" d="M733.8,1274.6H242a7.4,7.4,0,0,1,7.5-7.4H726.4A7.4,7.4,0,0,1,733.8,1274.6Z" transform="translate(-96.6 -231)"/><path class="cls-9" d="M515,1267.2l-5.9,7.4-34.5,43.6H249.5a7.4,7.4,0,0,1-7.5-7.4v-36.2a7.4,7.4,0,0,1,7.5-7.4Z" transform="translate(-96.6 -231)"/><path class="cls-10" d="M2168.4,550.6v928.1H853V550.6a46.2,46.2,0,0,1,46.1-46.1H2122.3A46.1,46.1,0,0,1,2168.4,550.6Z" transform="translate(-96.6 -231)"/><rect class="cls-11" x="899.5" y="552.2" width="1220" height="749.37" transform="translate(2922.5 1622.9) rotate(180)"/><polygon class="cls-12" points="2072 1107.6 1414.5 1107.6 757.1 1107.6 613.2 1479.7 1418.8 1479.7 2215.8 1479.7 2072 1107.6"/><path class="cls-13" d="M903.2,1403.3H984c3.4,0,5.9,1.8,5.3,3.8l-7.8,24.3c-.5,1.5-2.7,2.6-5.3,2.6H894c-3.4,0-6-1.9-5.2-3.9l9.2-24.3C898.5,1404.4,900.7,1403.3,903.2,1403.3Z" transform="translate(-96.6 -231)"/><path class="cls-13" d="M1024.7,1403.3h52c2.8,0,5,1.8,4.4,3.7l-6.4,24.5c-.4,1.4-2.3,2.5-4.4,2.5h-53c-2.9,0-5-1.8-4.4-3.7l7.4-24.5C1020.7,1404.3,1022.6,1403.3,1024.7,1403.3Z" transform="translate(-96.6 -231)"/><path class="cls-13" d="M1116.3,1403.3h52.5c2.6,0,4.6,1.6,4.2,3.4l-5.1,24.7c-.3,1.5-2.1,2.6-4.3,2.6h-53.4c-2.7,0-4.7-1.6-4.2-3.4l6-24.8C1112.4,1404.4,1114.2,1403.3,1116.3,1403.3Z" transform="translate(-96.6 -231)"/><path class="cls-13" d="M1208.5,1403.3H1260c2.8,0,5.1,1.7,4.8,3.7l-3.7,24c-.2,1.7-2.3,3-4.8,3H1204c-3,0-5.2-1.8-4.8-3.8l4.5-24C1204,1404.6,1206.1,1403.3,1208.5,1403.3Z" transform="translate(-96.6 -231)"/><path class="cls-13" d="M1300.6,1403.3h50.9c2.9,0,5.3,1.8,5.1,3.8l-2.2,23.6c-.2,1.8-2.5,3.3-5.2,3.3h-51.8c-3,0-5.4-1.8-5.1-3.9l3.1-23.5C1295.7,1404.7,1297.9,1403.3,1300.6,1403.3Z" transform="translate(-96.6 -231)"/><path class="cls-13" d="M1393.2,1403.3h49.2c3.4,0,6.1,1.9,6,4.3l-.9,22.4c0,2.2-2.7,4-5.9,4h-50.1c-3.5,0-6.2-2-6-4.3l1.7-22.5C1387.3,1405,1390,1403.3,1393.2,1403.3Z" transform="translate(-96.6 -231)"/><path class="cls-13" d="M2115.1,1403.3h-77.4c-4.5,0-7.8,2.9-6.9,5.9l6.8,21c.7,2.2,3.5,3.8,6.8,3.8h78.7c4.6,0,7.9-3,6.8-6.1l-8-21C2121.1,1404.8,2118.3,1403.3,2115.1,1403.3Z" transform="translate(-96.6 -231)"/><path class="cls-13" d="M1993.1,1403.3h-47.9c-4.1,0-7.2,2.6-6.5,5.3l5.8,21.7c.5,2.1,3.2,3.7,6.4,3.7h48.8c4.1,0,7.2-2.6,6.3-5.4l-6.5-21.7C1998.9,1404.8,1996.2,1403.3,1993.1,1403.3Z" transform="translate(-96.6 -231)"/><path class="cls-13" d="M1902,1403.3h-49.8c-3.4,0-6,2.1-5.6,4.5l4.8,22.9c.4,1.9,2.8,3.3,5.6,3.3h50.7c3.5,0,6.1-2.1,5.5-4.5l-5.6-22.9C1907.1,1404.7,1904.8,1403.3,1902,1403.3Z" transform="translate(-96.6 -231)"/><path class="cls-13" d="M1810,1403.3h-49.4c-3.4,0-6.2,2.1-5.8,4.5l3.4,22.6c.3,2,2.8,3.6,5.9,3.6h50.2c3.5,0,6.3-2.2,5.8-4.6l-4.2-22.5C1815.5,1404.8,1813,1403.3,1810,1403.3Z" transform="translate(-96.6 -231)"/><path class="cls-13" d="M1718.6,1403.3h-50.3c-3.1,0-5.6,1.9-5.4,4l2.2,23.2c.2,2,2.5,3.5,5.4,3.5h51.2c3.2,0,5.7-1.9,5.4-4.1l-3.1-23.2C1723.8,1404.8,1721.4,1403.3,1718.6,1403.3Z" transform="translate(-96.6 -231)"/><path class="cls-13" d="M1626.6,1403.3h-49.9c-3.2,0-5.7,1.8-5.7,4l.9,22.9c.1,2.1,2.6,3.8,5.7,3.8h50.7c3.3,0,5.9-1.8,5.7-4.1l-1.7-22.9C1632.1,1405,1629.6,1403.3,1626.6,1403.3Z" transform="translate(-96.6 -231)"/><path class="cls-13" d="M1484.9,1403.3h49.6c3.1,0,5.7,1.8,5.8,4l.7,22.6c.1,2.2-2.5,4.1-5.8,4.1h-50.3c-3.2,0-5.8-1.8-5.8-4v-22.7C1479.1,1405.1,1481.7,1403.3,1484.9,1403.3Z" transform="translate(-96.6 -231)"/><path class="cls-13" d="M880.7,1456.9H997.6c3.3,0,5.9,2,5.4,4.3l-5.6,24.1c-.4,1.9-2.7,3.2-5.3,3.2H873.3c-3.4,0-6-2.2-5.3-4.5l7.4-24.2C876,1458.1,878.2,1456.9,880.7,1456.9Z" transform="translate(-96.6 -231)"/><path class="cls-13" d="M2135.1,1456.9H1991.3c-4.5,0-7.8,2.7-6.9,5.7l6.2,22c.6,2.3,3.5,3.9,6.9,3.9h145.9c4.6,0,7.9-3,6.7-6.1l-8.3-21.9C2141,1458.3,2138.2,1456.9,2135.1,1456.9Z" transform="translate(-96.6 -231)"/><path class="cls-13" d="M1945,1456.9h-48.3c-4.5,0-8,2.8-7.3,5.9l4.9,21.4c.5,2.5,3.6,4.3,7.3,4.3h49.1c4.6,0,8.1-2.9,7.3-6l-5.7-21.5C1951.6,1458.6,1948.6,1456.9,1945,1456.9Z" transform="translate(-96.6 -231)"/><path class="cls-13" d="M1850.9,1456.9h-50.1c-3.9,0-7,2.3-6.5,5l3.8,22.6c.4,2.3,3.2,4,6.5,4h51c4,0,7-2.4,6.4-5.2l-4.7-22.6C1856.9,1458.5,1854.1,1456.9,1850.9,1456.9Z" transform="translate(-96.6 -231)"/><path class="cls-13" d="M1755.3,1456.9h-48.6c-4.3,0-7.6,2.5-7.3,5.4l2.4,21.5c.3,2.7,3.5,4.7,7.4,4.7h49.3c4.4,0,7.8-2.6,7.3-5.6l-3.2-21.5C1762.2,1458.8,1759,1456.9,1755.3,1456.9Z" transform="translate(-96.6 -231)"/><path class="cls-13" d="M1660.9,1456.9h-49.8c-3.8,0-6.8,2.2-6.7,4.8l1.3,22.3c.1,2.5,3.1,4.5,6.7,4.5H1663c3.9,0,7-2.3,6.8-5l-2.2-22.3C1667.4,1458.8,1664.5,1456.9,1660.9,1456.9Z" transform="translate(-96.6 -231)"/><path class="cls-13" d="M861.8,1513.3H980.6c3.7,0,6.4,2.3,5.7,4.8l-7.1,23.4c-.6,1.8-3,3.2-5.7,3.2H853c-3.9,0-6.7-2.5-5.7-5.1l8.8-23.3C856.8,1514.5,859.1,1513.3,861.8,1513.3Z" transform="translate(-96.6 -231)"/><path class="cls-13" d="M1024.8,1513.3h54.3c3.4,0,6,2.1,5.4,4.4l-5.9,23.9c-.4,1.8-2.7,3.1-5.3,3.1h-55.2c-3.5,0-6-2.2-5.4-4.5l6.8-23.9C1020,1514.5,1022.2,1513.3,1024.8,1513.3Z" transform="translate(-96.6 -231)"/><path class="cls-13" d="M1117.3,1517.3c.5-2.3,3.4-4,6.9-4h476.6c3.7,0,6.8,2,6.9,4.6l1.3,21.8c.1,2.7-3,5-7,5H1119.2c-4.3,0-7.5-2.7-6.9-5.6Z" transform="translate(-96.6 -231)"/><path class="cls-13" d="M1649.6,1513.3H1697c4.7,0,8.6,2.5,9,5.7l2.1,19c.4,3.6-3.7,6.7-8.9,6.7H1651c-4.8,0-8.7-2.6-9-5.9l-1.4-19C1640.3,1516.2,1644.4,1513.3,1649.6,1513.3Z" transform="translate(-96.6 -231)"/><path class="cls-13" d="M1747.3,1513.3h48.3c4.3,0,8,2.2,8.5,5.2l3.3,19.6c.6,3.5-3.4,6.6-8.5,6.6h-49c-4.4,0-8.1-2.3-8.5-5.4l-2.6-19.6C1738.3,1516.2,1742.3,1513.3,1747.3,1513.3Z" transform="translate(-96.6 -231)"/><path class="cls-13" d="M1844.7,1513.3h49.6c3.9,0,7.2,1.9,7.8,4.5l4.6,20.6c.8,3.3-2.9,6.3-7.7,6.3h-50.4c-3.9,0-7.2-2-7.8-4.7l-3.9-20.6C1836.3,1516.1,1840,1513.3,1844.7,1513.3Z" transform="translate(-96.6 -231)"/><path class="cls-13" d="M1941.4,1513.3h52.1c3.1,0,5.8,1.5,6.4,3.6l6.4,22.4c.8,2.8-2.3,5.4-6.5,5.4h-52.9c-3.2,0-5.9-1.6-6.5-3.8l-5.5-22.3C1934.3,1515.8,1937.3,1513.3,1941.4,1513.3Z" transform="translate(-96.6 -231)"/><path class="cls-13" d="M2036.9,1513.3h121.6c2.1,0,3.8.9,4.3,2.2l9.6,25.4c.7,1.9-1.4,3.8-4.3,3.8H2044.6c-2.1,0-3.9-1-4.3-2.4l-7.7-25.4C2032,1515,2034.1,1513.3,2036.9,1513.3Z" transform="translate(-96.6 -231)"/><path class="cls-13" d="M1565.5,1456.9h-48c-4.1,0-7.4,2.2-7.4,5.1v21.4c0,2.8,3.3,5.1,7.4,5.1h48.8c4.2,0,7.5-2.4,7.4-5.2l-.8-21.5C1572.8,1459.1,1569.5,1456.9,1565.5,1456.9Z" transform="translate(-96.6 -231)"/><path class="cls-13" d="M1472,1456.9h-51.3c-3.2,0-5.8,1.7-6,3.9l-1.3,23.4c-.1,2.3,2.6,4.3,6,4.3h52.2c3.3,0,5.9-1.8,6-4.1l.4-23.4C1478,1458.7,1475.4,1456.9,1472,1456.9Z" transform="translate(-96.6 -231)"/><path class="cls-13" d="M1376.3,1456.9h-49.8c-3.5,0-6.4,1.8-6.7,4.2l-2.5,22.4c-.3,2.7,2.8,5,6.7,5h50.7c3.5,0,6.5-1.9,6.7-4.4l1.7-22.4C1383.3,1459.1,1380.2,1456.9,1376.3,1456.9Z" transform="translate(-96.6 -231)"/><path class="cls-13" d="M1281.8,1456.9h-50.5c-3.2,0-5.9,1.6-6.3,3.8l-3.9,22.9c-.4,2.6,2.5,4.9,6.3,4.9h51.4c3.3,0,6-1.7,6.3-4l3-22.9C1288.5,1459.1,1285.6,1456.9,1281.8,1456.9Z" transform="translate(-96.6 -231)"/><path class="cls-13" d="M1186.1,1456.9h-49c-3.5,0-6.5,1.7-7,4.1l-5,21.8c-.6,3,2.7,5.7,7,5.7h49.8c3.6,0,6.6-1.8,7-4.3l4.2-21.8C1193.6,1459.5,1190.3,1456.9,1186.1,1456.9Z" transform="translate(-96.6 -231)"/><path class="cls-13" d="M1091.8,1456.9h-50.1c-3.1,0-5.7,1.5-6.3,3.6l-6.5,22.7c-.8,2.7,2.3,5.3,6.3,5.3h51c3.2,0,5.9-1.6,6.4-3.7l5.6-22.7C1098.9,1459.3,1095.8,1456.9,1091.8,1456.9Z" transform="translate(-96.6 -231)"/><path class="cls-13" d="M908,1379.3l7.5-19.8c.6-1.7,2.8-2.8,5.3-2.8h18.5c3.5,0,6.1,2.2,5.3,4.6l-7,19.9c-.6,1.7-2.8,2.8-5.3,2.8H913.2C909.7,1384,907.1,1381.7,908,1379.3Z" transform="translate(-96.6 -231)"/><path class="cls-13" d="M979.4,1356.7h50.3c2.8,0,4.9,1.7,4.4,3.6l-6.5,21.3c-.4,1.4-2.2,2.4-4.3,2.4H972.1c-2.8,0-4.9-1.8-4.3-3.7l7.3-21.3C975.5,1357.6,977.3,1356.7,979.4,1356.7Z" transform="translate(-96.6 -231)"/><path class="cls-13" d="M1068.3,1356.7h50.8c2.6,0,4.6,1.6,4.2,3.4l-5.3,21.5c-.4,1.4-2.1,2.4-4.2,2.4h-51.6c-2.7,0-4.7-1.6-4.2-3.4l6.2-21.6C1064.5,1357.6,1066.3,1356.7,1068.3,1356.7Z" transform="translate(-96.6 -231)"/><path class="cls-13" d="M1158.3,1356.7H1207c3.2,0,5.7,1.9,5.3,4.1l-3.8,20c-.3,1.9-2.6,3.2-5.3,3.2h-49.4c-3.3,0-5.8-2-5.3-4.2l4.6-20C1153.5,1358,1155.7,1356.7,1158.3,1356.7Z" transform="translate(-96.6 -231)"/><path class="cls-13" d="M1247.6,1356.7h48.5c3.2,0,5.7,1.9,5.4,4.1l-2.6,19.8c-.3,2-2.6,3.4-5.5,3.4h-49.2c-3.2,0-5.8-1.9-5.4-4.2l3.4-19.8C1242.5,1358.1,1244.8,1356.7,1247.6,1356.7Z" transform="translate(-96.6 -231)"/><path class="cls-13" d="M1337,1356.7h48c3.2,0,5.9,1.9,5.7,4.1l-1.5,19.5c-.1,2.1-2.7,3.7-5.7,3.7h-48.7c-3.3,0-6-1.9-5.7-4.2l2.2-19.5C1331.5,1358.3,1334,1356.7,1337,1356.7Z" transform="translate(-96.6 -231)"/><path class="cls-13" d="M1425.9,1356.7h48.6c3,0,5.4,1.7,5.4,3.8l-.4,19.8c0,2.1-2.4,3.7-5.4,3.7h-49.3c-3.1,0-5.6-1.7-5.5-3.9l1.2-19.8C1420.6,1358.2,1423,1356.7,1425.9,1356.7Z" transform="translate(-96.6 -231)"/><path class="cls-13" d="M1514.4,1356.7h49.9c2.6,0,4.7,1.4,4.7,3.2l.8,20.7c.1,1.9-2.1,3.4-4.8,3.4h-50.6c-2.6,0-4.8-1.4-4.8-3.3V1360C1509.6,1358.1,1511.8,1356.7,1514.4,1356.7Z" transform="translate(-96.6 -231)"/><path class="cls-13" d="M1604.7,1356.7h47.7c3.1,0,5.6,1.6,5.8,3.7l1.9,19.3c.2,2.4-2.5,4.3-5.9,4.3h-48.4c-3.2,0-5.8-1.7-5.9-3.8l-1.1-19.3C1598.7,1358.6,1601.3,1356.7,1604.7,1356.7Z" transform="translate(-96.6 -231)"/><path class="cls-13" d="M1693.2,1356.7h48.9c2.7,0,5,1.4,5.2,3.2l3.1,20.2c.3,2.1-2.1,3.9-5.2,3.9h-49.7c-2.8,0-5-1.4-5.2-3.3l-2.3-20.2C1687.7,1358.4,1690.1,1356.7,1693.2,1356.7Z" transform="translate(-96.6 -231)"/><path class="cls-13" d="M1782.7,1356.7H1831c2.8,0,5.1,1.3,5.5,3.2l4.1,19.8c.5,2.3-2.1,4.3-5.4,4.3H1786c-2.7,0-5.1-1.4-5.4-3.3l-3.4-19.8C1776.8,1358.6,1779.4,1356.7,1782.7,1356.7Z" transform="translate(-96.6 -231)"/><path class="cls-13" d="M1872.4,1356.7h47.4c2.9,0,5.3,1.4,5.8,3.3l5.1,19.2c.7,2.5-2.1,4.8-5.8,4.8h-48.2c-2.9,0-5.4-1.4-5.8-3.4l-4.4-19.2C1866,1358.9,1868.7,1356.7,1872.4,1356.7Z" transform="translate(-96.6 -231)"/><path class="cls-13" d="M1961.5,1356.7h47.6c2.7,0,5,1.3,5.6,3.1l6.3,19.4c.8,2.5-2,4.8-5.7,4.8H1967c-2.8,0-5.2-1.3-5.7-3.2l-5.5-19.4C1955.1,1359,1957.8,1356.7,1961.5,1356.7Z" transform="translate(-96.6 -231)"/><path class="cls-13" d="M2050.1,1356.7h48.5c2.4,0,4.5,1.1,5.1,2.7l7.6,20.1c.9,2.3-1.6,4.5-5.1,4.5h-49.3c-2.5,0-4.6-1.1-5.2-2.8l-6.8-20C2044.1,1358.9,2046.6,1356.7,2050.1,1356.7Z" transform="translate(-96.6 -231)"/><path class="cls-3" d="M903.2,1400.5H984c3.4,0,5.9,1.8,5.3,3.8l-7.8,24.3c-.5,1.5-2.7,2.6-5.3,2.6H894c-3.4,0-6-1.9-5.2-3.9L898,1403C898.5,1401.5,900.7,1400.5,903.2,1400.5Z" transform="translate(-96.6 -231)"/><path class="cls-3" d="M1024.7,1400.5h52c2.8,0,5,1.8,4.4,3.7l-6.4,24.5c-.4,1.4-2.3,2.5-4.4,2.5h-53c-2.9,0-5-1.8-4.4-3.7l7.4-24.5C1020.7,1401.5,1022.6,1400.5,1024.7,1400.5Z" transform="translate(-96.6 -231)"/><path class="cls-3" d="M1116.3,1400.5h52.5c2.6,0,4.6,1.6,4.2,3.4l-5.1,24.7c-.3,1.5-2.1,2.6-4.3,2.6h-53.4c-2.7,0-4.7-1.6-4.2-3.5l6-24.7C1112.4,1401.6,1114.2,1400.5,1116.3,1400.5Z" transform="translate(-96.6 -231)"/><path class="cls-3" d="M1208.5,1400.5H1260c2.8,0,5.1,1.7,4.8,3.7l-3.7,24c-.2,1.7-2.3,3-4.8,3H1204c-3,0-5.2-1.8-4.8-3.8l4.5-24C1204,1401.8,1206.1,1400.5,1208.5,1400.5Z" transform="translate(-96.6 -231)"/><path class="cls-3" d="M1300.6,1400.5h50.9c2.9,0,5.3,1.7,5.1,3.8l-2.2,23.6c-.2,1.8-2.5,3.3-5.2,3.3h-51.8c-3,0-5.4-1.8-5.1-3.9l3.1-23.6C1295.7,1401.9,1297.9,1400.5,1300.6,1400.5Z" transform="translate(-96.6 -231)"/><path class="cls-3" d="M1393.2,1400.5h49.2c3.4,0,6.1,1.9,6,4.3l-.9,22.4c0,2.2-2.7,4-5.9,4h-50.1c-3.5,0-6.2-2-6-4.3l1.7-22.5C1387.3,1402.2,1390,1400.5,1393.2,1400.5Z" transform="translate(-96.6 -231)"/><path class="cls-3" d="M2115.1,1400.5h-77.4c-4.5,0-7.8,2.9-6.9,5.9l6.8,21c.7,2.2,3.5,3.8,6.8,3.8h78.7c4.6,0,7.9-3,6.8-6.1l-8-21C2121.1,1402,2118.3,1400.5,2115.1,1400.5Z" transform="translate(-96.6 -231)"/><path class="cls-3" d="M1993.1,1400.5h-47.9c-4.1,0-7.2,2.6-6.5,5.3l5.8,21.7c.5,2.1,3.2,3.7,6.4,3.7h48.8c4.1,0,7.2-2.6,6.3-5.4l-6.5-21.7C1998.9,1402,1996.2,1400.5,1993.1,1400.5Z" transform="translate(-96.6 -231)"/><path class="cls-3" d="M1902,1400.5h-49.8c-3.4,0-6,2.1-5.6,4.5l4.8,22.8c.4,2,2.8,3.4,5.6,3.4h50.7c3.5,0,6.1-2.1,5.5-4.5l-5.6-22.9C1907.1,1401.9,1904.8,1400.5,1902,1400.5Z" transform="translate(-96.6 -231)"/><path class="cls-3" d="M1810,1400.5h-49.4c-3.4,0-6.2,2.1-5.8,4.5l3.4,22.5c.3,2.1,2.8,3.7,5.9,3.7h50.2c3.5,0,6.3-2.2,5.8-4.6l-4.2-22.5C1815.5,1402,1813,1400.5,1810,1400.5Z" transform="translate(-96.6 -231)"/><path class="cls-3" d="M1718.6,1400.5h-50.3c-3.1,0-5.6,1.8-5.4,4l2.2,23.2c.2,2,2.5,3.5,5.4,3.5h51.2c3.2,0,5.7-1.9,5.4-4.1l-3.1-23.2C1723.8,1402,1721.4,1400.5,1718.6,1400.5Z" transform="translate(-96.6 -231)"/><path class="cls-3" d="M1626.6,1400.5h-49.9c-3.2,0-5.7,1.8-5.7,4l.9,22.9c.1,2.1,2.6,3.8,5.7,3.8h50.7c3.3,0,5.9-1.9,5.7-4.1l-1.7-22.9C1632.1,1402.1,1629.6,1400.5,1626.6,1400.5Z" transform="translate(-96.6 -231)"/><path class="cls-3" d="M1484.9,1400.5h49.6c3.1,0,5.7,1.8,5.8,3.9l.7,22.7c.1,2.2-2.5,4.1-5.8,4.1h-50.3c-3.2,0-5.8-1.8-5.8-4v-22.7C1479.1,1402.3,1481.7,1400.5,1484.9,1400.5Z" transform="translate(-96.6 -231)"/><path class="cls-3" d="M880.7,1454H997.6c3.3,0,5.9,2.1,5.4,4.4l-5.6,24.1c-.4,1.8-2.7,3.2-5.3,3.2H873.3c-3.4,0-6-2.2-5.3-4.5l7.4-24.2C876,1455.3,878.2,1454,880.7,1454Z" transform="translate(-96.6 -231)"/><path class="cls-3" d="M2135.1,1454H1991.3c-4.5,0-7.8,2.8-6.9,5.8l6.2,22c.6,2.2,3.5,3.9,6.9,3.9h145.9c4.6,0,7.9-3,6.7-6.1l-8.3-21.9C2141,1455.5,2138.2,1454,2135.1,1454Z" transform="translate(-96.6 -231)"/><path class="cls-3" d="M1945,1454h-48.3c-4.5,0-8,2.8-7.3,6l4.9,21.4c.5,2.5,3.6,4.3,7.3,4.3h49.1c4.6,0,8.1-2.9,7.3-6.1l-5.7-21.4C1951.6,1455.8,1948.6,1454,1945,1454Z" transform="translate(-96.6 -231)"/><path class="cls-3" d="M1850.9,1454h-50.1c-3.9,0-7,2.4-6.5,5.1l3.8,22.6c.4,2.3,3.2,4,6.5,4h51c4,0,7-2.5,6.4-5.2l-4.7-22.6C1856.9,1455.7,1854.1,1454,1850.9,1454Z" transform="translate(-96.6 -231)"/><path class="cls-3" d="M1755.3,1454h-48.6c-4.3,0-7.6,2.6-7.3,5.5l2.4,21.5c.3,2.6,3.5,4.7,7.4,4.7h49.3c4.4,0,7.8-2.6,7.3-5.6l-3.2-21.5C1762.2,1456,1759,1454,1755.3,1454Z" transform="translate(-96.6 -231)"/><path class="cls-3" d="M1660.9,1454h-49.8c-3.8,0-6.8,2.2-6.7,4.9l1.3,22.3c.1,2.5,3.1,4.5,6.7,4.5H1663c3.9,0,7-2.3,6.8-5l-2.2-22.3C1667.4,1455.9,1664.5,1454,1660.9,1454Z" transform="translate(-96.6 -231)"/><path class="cls-3" d="M861.8,1510.4H980.6c3.7,0,6.4,2.4,5.7,4.9l-7.1,23.4c-.6,1.8-3,3.2-5.7,3.2H853c-3.9,0-6.7-2.5-5.7-5.1l8.8-23.3C856.8,1511.7,859.1,1510.4,861.8,1510.4Z" transform="translate(-96.6 -231)"/><path class="cls-3" d="M1024.8,1510.4h54.3c3.4,0,6,2.1,5.4,4.4l-5.9,23.9c-.4,1.9-2.7,3.2-5.3,3.2h-55.2c-3.5,0-6-2.2-5.4-4.5l6.8-23.9C1020,1511.7,1022.2,1510.4,1024.8,1510.4Z" transform="translate(-96.6 -231)"/><path class="cls-3" d="M1117.3,1514.5c.5-2.3,3.4-4.1,6.9-4.1h476.6c3.7,0,6.8,2.1,6.9,4.7l1.3,21.8c.1,2.7-3,5-7,5H1119.2c-4.3,0-7.5-2.7-6.9-5.6Z" transform="translate(-96.6 -231)"/><path class="cls-3" d="M1649.6,1510.4H1697c4.7,0,8.6,2.5,9,5.8l2.1,19c.4,3.6-3.7,6.7-8.9,6.7H1651c-4.8,0-8.7-2.6-9-5.9l-1.4-19C1640.3,1513.4,1644.4,1510.4,1649.6,1510.4Z" transform="translate(-96.6 -231)"/><path class="cls-3" d="M1747.3,1510.4h48.3c4.3,0,8,2.3,8.5,5.3l3.3,19.6c.6,3.5-3.4,6.6-8.5,6.6h-49c-4.4,0-8.1-2.4-8.5-5.4l-2.6-19.6C1738.3,1513.4,1742.3,1510.4,1747.3,1510.4Z" transform="translate(-96.6 -231)"/><path class="cls-3" d="M1844.7,1510.4h49.6c3.9,0,7.2,2,7.8,4.6l4.6,20.6c.8,3.3-2.9,6.3-7.7,6.3h-50.4c-3.9,0-7.2-2-7.8-4.7l-3.9-20.6C1836.3,1513.3,1840,1510.4,1844.7,1510.4Z" transform="translate(-96.6 -231)"/><path class="cls-3" d="M1941.4,1510.4h52.1c3.1,0,5.8,1.6,6.4,3.7l6.4,22.4c.8,2.8-2.3,5.4-6.5,5.4h-52.9c-3.2,0-5.9-1.6-6.5-3.8l-5.5-22.4C1934.3,1513,1937.3,1510.4,1941.4,1510.4Z" transform="translate(-96.6 -231)"/><path class="cls-3" d="M2036.9,1510.4h121.6c2.1,0,3.8,1,4.3,2.3l9.6,25.3c.7,2-1.4,3.9-4.3,3.9H2044.6c-2.1,0-3.9-1-4.3-2.5l-7.7-25.3C2032,1512.2,2034.1,1510.4,2036.9,1510.4Z" transform="translate(-96.6 -231)"/><path class="cls-3" d="M1565.5,1454h-48c-4.1,0-7.4,2.3-7.4,5.2v21.4c0,2.8,3.3,5.1,7.4,5.1h48.8c4.2,0,7.5-2.4,7.4-5.3l-.8-21.4C1572.8,1456.2,1569.5,1454,1565.5,1454Z" transform="translate(-96.6 -231)"/><path class="cls-3" d="M1472,1454h-51.3c-3.2,0-5.8,1.8-6,4l-1.3,23.4c-.1,2.3,2.6,4.3,6,4.3h52.2c3.3,0,5.9-1.8,6-4.1l.4-23.4C1478,1455.9,1475.4,1454,1472,1454Z" transform="translate(-96.6 -231)"/><path class="cls-3" d="M1376.3,1454h-49.8c-3.5,0-6.4,1.9-6.7,4.3l-2.5,22.4c-.3,2.7,2.8,5,6.7,5h50.7c3.5,0,6.5-2,6.7-4.4l1.7-22.4C1383.3,1456.3,1380.2,1454,1376.3,1454Z" transform="translate(-96.6 -231)"/><path class="cls-3" d="M1281.8,1454h-50.5c-3.2,0-5.9,1.7-6.3,3.9l-3.9,22.9c-.4,2.6,2.5,4.9,6.3,4.9h51.4c3.3,0,6-1.7,6.3-4l3-22.9C1288.5,1456.3,1285.6,1454,1281.8,1454Z" transform="translate(-96.6 -231)"/><path class="cls-3" d="M1186.1,1454h-49c-3.5,0-6.5,1.8-7,4.2l-5,21.8c-.6,3,2.7,5.7,7,5.7h49.8c3.6,0,6.6-1.8,7-4.3l4.2-21.8C1193.6,1456.6,1190.3,1454,1186.1,1454Z" transform="translate(-96.6 -231)"/><path class="cls-3" d="M1091.8,1454h-50.1c-3.1,0-5.7,1.6-6.3,3.6l-6.5,22.8c-.8,2.7,2.3,5.3,6.3,5.3h51c3.2,0,5.9-1.6,6.4-3.7l5.6-22.7C1098.9,1456.5,1095.8,1454,1091.8,1454Z" transform="translate(-96.6 -231)"/><path class="cls-3" d="M908,1376.5l7.5-19.9c.6-1.6,2.8-2.8,5.3-2.8h18.5c3.5,0,6.1,2.3,5.3,4.7l-7,19.9c-.6,1.7-2.8,2.8-5.3,2.8H913.2C909.7,1381.2,907.1,1378.9,908,1376.5Z" transform="translate(-96.6 -231)"/><path class="cls-3" d="M979.4,1353.8h50.3c2.8,0,4.9,1.8,4.4,3.7l-6.5,21.3c-.4,1.4-2.2,2.4-4.3,2.4H972.1c-2.8,0-4.9-1.8-4.3-3.7l7.3-21.3C975.5,1354.8,977.3,1353.8,979.4,1353.8Z" transform="translate(-96.6 -231)"/><path class="cls-3" d="M1068.3,1353.8h50.8c2.6,0,4.6,1.7,4.2,3.5l-5.3,21.5c-.4,1.4-2.1,2.4-4.2,2.4h-51.6c-2.7,0-4.7-1.6-4.2-3.5l6.2-21.5C1064.5,1354.8,1066.3,1353.8,1068.3,1353.8Z" transform="translate(-96.6 -231)"/><path class="cls-3" d="M1158.3,1353.8H1207c3.2,0,5.7,2,5.3,4.2l-3.8,20c-.3,1.9-2.6,3.2-5.3,3.2h-49.4c-3.3,0-5.8-2-5.3-4.2l4.6-20C1153.5,1355.2,1155.7,1353.8,1158.3,1353.8Z" transform="translate(-96.6 -231)"/><path class="cls-3" d="M1247.6,1353.8h48.5c3.2,0,5.7,2,5.4,4.2l-2.6,19.8c-.3,1.9-2.6,3.4-5.5,3.4h-49.2c-3.2,0-5.8-1.9-5.4-4.2l3.4-19.8C1242.5,1355.3,1244.8,1353.8,1247.6,1353.8Z" transform="translate(-96.6 -231)"/><path class="cls-3" d="M1337,1353.8h48c3.2,0,5.9,2,5.7,4.2l-1.5,19.5c-.1,2.1-2.7,3.7-5.7,3.7h-48.7c-3.3,0-6-1.9-5.7-4.3l2.2-19.4C1331.5,1355.4,1334,1353.8,1337,1353.8Z" transform="translate(-96.6 -231)"/><path class="cls-3" d="M1425.9,1353.8h48.6c3,0,5.4,1.8,5.4,3.9l-.4,19.8c0,2.1-2.4,3.7-5.4,3.7h-49.3c-3.1,0-5.6-1.7-5.5-3.9l1.2-19.8C1420.6,1355.4,1423,1353.8,1425.9,1353.8Z" transform="translate(-96.6 -231)"/><path class="cls-3" d="M1514.4,1353.8h49.9c2.6,0,4.7,1.5,4.7,3.3l.8,20.7c.1,1.9-2.1,3.4-4.8,3.4h-50.6c-2.6,0-4.8-1.4-4.8-3.3v-20.7C1509.6,1355.3,1511.8,1353.8,1514.4,1353.8Z" transform="translate(-96.6 -231)"/><path class="cls-3" d="M1604.7,1353.8h47.7c3.1,0,5.6,1.7,5.8,3.8l1.9,19.3c.2,2.4-2.5,4.3-5.9,4.3h-48.4c-3.2,0-5.8-1.7-5.9-3.9l-1.1-19.2C1598.7,1355.8,1601.3,1353.8,1604.7,1353.8Z" transform="translate(-96.6 -231)"/><path class="cls-3" d="M1693.2,1353.8h48.9c2.7,0,5,1.4,5.2,3.3l3.1,20.1c.3,2.2-2.1,4-5.2,4h-49.7c-2.8,0-5-1.4-5.2-3.3l-2.3-20.2C1687.7,1355.6,1690.1,1353.8,1693.2,1353.8Z" transform="translate(-96.6 -231)"/><path class="cls-3" d="M1782.7,1353.8H1831c2.8,0,5.1,1.4,5.5,3.3l4.1,19.8c.5,2.3-2.1,4.3-5.4,4.3H1786c-2.7,0-5.1-1.4-5.4-3.3l-3.4-19.8C1776.8,1355.8,1779.4,1353.8,1782.7,1353.8Z" transform="translate(-96.6 -231)"/><path class="cls-3" d="M1872.4,1353.8h47.4c2.9,0,5.3,1.5,5.8,3.4l5.1,19.2c.7,2.5-2.1,4.8-5.8,4.8h-48.2c-2.9,0-5.4-1.4-5.8-3.4l-4.4-19.2C1866,1356.1,1868.7,1353.8,1872.4,1353.8Z" transform="translate(-96.6 -231)"/><path class="cls-3" d="M1961.5,1353.8h47.6c2.7,0,5,1.4,5.6,3.2l6.3,19.4c.8,2.5-2,4.8-5.7,4.8H1967c-2.8,0-5.2-1.3-5.7-3.2l-5.5-19.4C1955.1,1356.2,1957.8,1353.8,1961.5,1353.8Z" transform="translate(-96.6 -231)"/><path class="cls-3" d="M2050.1,1353.8h48.5c2.4,0,4.5,1.2,5.1,2.8l7.6,20c.9,2.4-1.6,4.6-5.1,4.6h-49.3c-2.5,0-4.6-1.1-5.2-2.8l-6.8-20.1C2044.1,1356,2046.6,1353.8,2050.1,1353.8Z" transform="translate(-96.6 -231)"/><path class="cls-14" d="M2270.3,1752H751.5a41.8,41.8,0,0,1-41.9-41.8H2312.2A41.8,41.8,0,0,1,2270.3,1752Z" transform="translate(-96.6 -231)"/><path class="cls-13" d="M1697.2,1589.9c-1.6-6.5-9.8-11.3-19.4-11.3H1343.9c-9.6,0-17.7,4.8-19.3,11.3l-20.9,91.4v-.3l20.9-87.3c1.6-6.6,9.7-11.4,19.3-11.4h333.9c9.6,0,17.8,4.8,19.4,11.4l20.9,87.3v.3Z" transform="translate(-96.6 -231)"/><path class="cls-3" d="M1697.2,1593.7c-1.6-6.6-9.7-11.4-19.3-11.4h-334c-9.5,0-17.7,4.8-19.3,11.4l-20.9,87.3c-1.9,8.3,7.3,15.8,19.4,15.8h375.6c12.1,0,21.3-7.5,19.4-15.8Z" transform="translate(-96.6 -231)"/><path class="cls-15" d="M1647,835a220.2,220.2,0,0,1,3.5-66.1l214.8,44.7-124,180.8A218.4,218.4,0,0,1,1647,835Z" transform="translate(-96.6 -231)"/><path class="cls-3" d="M1650.5,768.9A219.6,219.6,0,0,1,1956.2,614c-27.8,60.8-72.6,159.4-86.6,190.1l-1,2.3a11.3,11.3,0,0,0-.9,2l-2.4,5.2Z" transform="translate(-96.6 -231)"/><path class="cls-4" d="M1865.3,813.6l2.4-5.2.9-2,1-2.3,3-6.5.8-1.9,2.8-6.1,80.2-175.5a219.2,219.2,0,0,1,77.2,340.1Z" transform="translate(-96.6 -231)"/><path class="cls-16" d="M1741.3,994.4l124-180.8,168.3,140.6a219.3,219.3,0,0,1-292.3,40.2Z" transform="translate(-96.6 -231)"/><ellipse class="cls-11" cx="1865.3" cy="813.6" rx="151.2" ry="151.3" transform="translate(942.2 2442.2) rotate(-89.6)"/><polygon class="cls-15" points="2271.3 97.1 2245.4 0 2094.5 139.6 2113.1 243.5 2271.3 97.1"/><polygon class="cls-15" points="2233.6 290.4 2139.3 257.3 2290.3 117.6 2392.3 144.5 2233.6 290.4"/><path class="cls-3" d="M1867.4,829.1l519.4-480.5-18.9-20.5L1848.2,808.9h0a13.9,13.9,0,0,0-.6,19.5,14.1,14.1,0,0,0,19.6,1h0v-.2h.1Z" transform="translate(-96.6 -231)"/><path class="cls-17" d="M944.7,1250.9s56.2-392,248.4-391.9c204.1,0,212.6,341.2,316.4,340.5,68-.5,86.3-145.9,160.3-144.1s85.4,159.3,152,158.6,40.3-94.9,109-95c77.4,0,90.3,131.9,90.3,131.9Z" transform="translate(-96.6 -231)"/><rect class="cls-18" x="1023.6" y="627.1" width="146" height="1.85"/><rect class="cls-18" x="1538.9" y="823.5" width="67.2" height="1.85"/><rect class="cls-19" x="1090.4" y="621.8" width="12.4" height="12.42"/><rect class="cls-19" x="1566.2" y="818.2" width="12.4" height="12.42"/><polygon class="cls-18" points="843 644 842.7 644 842.7 575.3 906.5 575.3 906.5 575.5 843 575.5 843 644"/><polygon class="cls-3" points="2640.8 329.4 2637.8 329.4 2637.8 259.3 2702.9 259.3 2702.9 262.3 2640.8 262.3 2640.8 329.4"/><polygon class="cls-18" points="1988.6 1042 1965.3 1042 1965.3 1041.8 1988.3 1041.8 1988.3 1019.9 1988.6 1019.9 1988.6 1042"/><rect class="cls-19" x="1372.5" y="1018.4" width="26" height="1.94" transform="translate(-411.6 1047.6) rotate(-45)"/><rect class="cls-19" x="1384.5" y="1006.4" width="1.9" height="26.02" transform="translate(-411.6 1047.4) rotate(-45)"/><rect class="cls-19" x="1570.6" y="1132.9" width="26" height="1.94" transform="translate(-434.5 1221.2) rotate(-45)"/><rect class="cls-19" x="1582.6" y="1120.9" width="1.9" height="26.02" transform="translate(-434.5 1221) rotate(-45)"/><path class="cls-5" d="M944.7,1250.9s63.2-207.7,203.8-201.7,114.5,167,180.6,155.6,45.1-86.5,98.2-86.4,36.7,106.8,98.1,104.8,40.5-63.2,91.1-62.8c52.5.4,58.7,90.5,58.7,90.5Z" transform="translate(-96.6 -231)"/><polygon class="cls-20" points="847.8 967.2 924.8 1009.5 1002 887.9 908.6 855.4 847.8 967.2"/><polygon class="cls-16" points="852.7 963.5 924.7 1003.1 996.9 889.4 909.5 859 852.7 963.5"/><path class="cls-21" d="M922.9,1173.3s13.4-6.4,19.3-9.8,21-7.9,22.2-9,44.8-3.8,47.5-6.1,5.2,5.4-6.1,7.9-27,8.5-27.9,12.9,11.6,5.5,12.9,9.1-.4,2.8-2.2,3.6-14.8-6.4-20.5-4.4-14.5-.8-18.9.7l-25.8,8.7Z" transform="translate(-96.6 -231)"/><path class="cls-21" d="M1025.1,1225.2s11.2-10.1,16.7-14.3,15.6-16.7,17.1-17.4,21.1-40.8,24.2-42.4-3-7-9.7,2.7-18.6,22.1-23.1,21.2-.6-13.1-3.5-15.7-2.8-.7-4.3.7.3,16.4-3.8,21-4.9,14-8.1,17.6l-18.2,20.9Z" transform="translate(-96.6 -231)"/><path class="cls-22" d="M782.8,1766.4s-2.5,16.9-2.8,19.5-27.1-1.5-27.1-1.5l-2.1-20.1S779.4,1764,782.8,1766.4Z" transform="translate(-96.6 -231)"/><path class="cls-20" d="M780.3,1783.7s8.5,10.2,16.7,14.6,21.1,6.2,25.9,10.8,12.8,17.6-21.3,17.3-50.5,2-54.1-3.4,5.3-40.4,5.3-40.4S760.8,1785.5,780.3,1783.7Z" transform="translate(-96.6 -231)"/><path class="cls-22" d="M974.6,1766.4s-2.5,16.9-2.8,19.5-27-1.5-27-1.5l-2.2-20.1S971.2,1764,974.6,1766.4Z" transform="translate(-96.6 -231)"/><path class="cls-20" d="M972.1,1783.7s8.5,10.2,16.7,14.6,38.4,8.1,43.3,12.7,9.3,16.7-38.7,15.4c-34-.9-50.5,2-54.1-3.4s5.3-40.4,5.3-40.4S952.2,1785.7,972.1,1783.7Z" transform="translate(-96.6 -231)"/><path class="cls-20" d="M804.9,1332.4s-25.1,40-23.3,76.1-9.1,75.5-12.9,113.3c-4.2,42-21.4,141.6-22,164.1s2.6,94.4,2.6,94.4l34.6.8s28.9-174.1,36.4-191.9,44.8-144.4,46-158.6S804.9,1332.4,804.9,1332.4Z" transform="translate(-96.6 -231)"/><path class="cls-20" d="M937.3,1337.8s19,99,21.5,121.1,4.2,107,5.4,120.8,8.4,180.8,15,201.4H935.1s-33.8-121.4-33.8-178.9-26.2-124.8-43.1-162.7-55.5-38.8-65.9-109.2C792.3,1330.3,923.3,1315.5,937.3,1337.8Z" transform="translate(-96.6 -231)"/><path class="cls-21" d="M846.9,996.4s33.8-12.6,49.3,13.1,14.1,77.2-2.9,83.5-42.6,3-51.3-13.1-16.6-39.3-16.2-54.8S838,1000.9,846.9,996.4Z" transform="translate(-96.6 -231)"/><path class="cls-21" d="M889.6,1094.2s-1.4,9.1.9,13.6-43.7,4.6-43.7,4.6-3.7-24.4-10.8-45.1S889.6,1094.2,889.6,1094.2Z" transform="translate(-96.6 -231)"/><path class="cls-20" d="M836,1067.3s3.1,5.3,16.1,3.2,28.8-19.3,34.3-21.2,5.4-5,5.4-5l-.6,5.6,9.8-.3s-5.3-15.5,2.6-21.8-6.2-72.9-69.3-28.4c0,0-12.5,1.8-11.3,20S828.8,1058.3,836,1067.3Z" transform="translate(-96.6 -231)"/><path class="cls-20" d="M893.3,1107.2s-.2-8.5-4.1-9.4-42.9-4.5-47.7-2.7v10S850.7,1110.8,893.3,1107.2Z" transform="translate(-96.6 -231)"/><path class="cls-21" d="M891,1037.6c-.8-3-8.5-11.7-11.5-2.4s4.5,21.9,8.7,20.8S892.8,1045.4,891,1037.6Z" transform="translate(-96.6 -231)"/><path class="cls-23" d="M1048.2,1208.6h-.1C1048.4,1208.7,1048.5,1208.7,1048.2,1208.6Z" transform="translate(-96.6 -231)"/><path class="cls-3" d="M776.5,1427.6s20.8,6.1,56.1,10,123.5-1.4,124.1-5.6-19-155.3-17.9-163.1,1.7-35.5,1.7-35.5c.4,7.6,8.2,38.6,17.5,55.5,3.4,6.2,14.7,25.3,20.2,21,26.4-21.1,67.3-100.6,69.9-101.3-2.1-1-19.4-8.9-21.8-9.7s-21.2,19.5-32.7,32l-8.8,9.6c-3.4-7.5-15.5-54.8-19.3-71.1-8.5-36.9-7.2-38.5-7.2-38.5-25.8-7.8-65-23.7-65-23.7l-51.8-2.1s-47.4,10.5-66.1,18.9c-1.8.8-1.8,42.4-6.7,53.3l15.5,32.7s9,64.8,10.8,93.6C795.9,1316.8,776.5,1427.6,776.5,1427.6Z" transform="translate(-96.6 -231)"/><path class="cls-3" d="M766.6,1231.2c1.3,4.4,7.4,8.1,11.4,9.7a15.5,15.5,0,0,0,8.3.8l2-.4h0l35.5-6.5s7.7-89.4-48.4-110.8C773.9,1124.5,754.1,1191.2,766.6,1231.2Z" transform="translate(-96.6 -231)"/><path class="cls-3" d="M778,1240.9h0a15.5,15.5,0,0,0,8.3.8l2-.4h0l-3.5-45.6Z" transform="translate(-96.6 -231)"/><path class="cls-3" d="M984.8,1240.5l4.3,18.4s4.7-18.4,4.5-28Z" transform="translate(-96.6 -231)"/><path class="cls-20" d="M837.3,999.5s-44.3-5.6-.8,68.3Z" transform="translate(-96.6 -231)"/><polygon class="cls-20" points="966.5 881.4 971 873.7 935.5 861.4 931 869.1 966.5 881.4"/><polygon class="cls-3" points="560.3 621.8 541.9 621.8 541.9 607.8 554.6 607.8 632.4 530 689 586.6 824.1 451.5 865.7 493 1002.7 356 1084.8 438.1 1178.5 438.1 1323 293.6 1447.6 293.6 1539.7 201.5 1652.5 201.5 1764.4 89.7 1774.2 99.5 1658.3 215.5 1545.5 215.5 1453.4 307.6 1328.7 307.6 1184.2 452.1 1079.1 452.1 1002.7 375.7 865.7 512.7 824.1 471.2 689 606.3 632.4 549.7 560.3 621.8"/><polygon class="cls-17" points="1522 597.8 1488.5 564.4 1392.8 564.4 1392.8 563.9 1488.8 563.9 1522.4 597.5 1522 597.8"/><rect class="cls-24" x="1282.3" y="538.3" width="141.5" height="8.01" rx="2"/><rect class="cls-24" x="1282.3" y="520.2" width="88.2" height="8.01" rx="2"/><rect class="cls-18" x="969.8" y="602.7" width="98" height="8.01" rx="1.6"/><rect class="cls-18" x="969.8" y="584.6" width="61" height="8.01" rx="1.6"/><rect class="cls-18" x="1531.6" y="792.9" width="43.8" height="8.01" rx="1.4"/><rect class="cls-18" x="1531.6" y="776" width="56.3" height="8.01" rx="1.6"/><polygon class="cls-17" points="1527.6 492.9 1488.5 453.8 1369.7 453.8 1369.7 453.3 1488.8 453.3 1528 492.5 1527.6 492.9"/><rect class="cls-24" x="1282.3" y="427.8" width="100.6" height="8.01" rx="2"/><rect class="cls-24" x="1282.3" y="409.6" width="123.8" height="8.01" rx="2"/><polygon class="cls-25" points="3173.4 467.3 3171.8 465.8 3214.7 422.9 3344.6 422.9 3344.6 425.1 3215.6 425.1 3173.4 467.3"/><rect class="cls-24" x="3327.5" y="624.4" width="153.2" height="12.2" rx="3" transform="translate(6711.5 1029.9) rotate(180)"/><rect class="cls-24" x="3327.5" y="596.7" width="188.6" height="12.2" rx="3" transform="translate(6746.9 974.6) rotate(180)"/><rect class="cls-24" x="2903.8" y="720.4" width="141.8" height="12.2" rx="2.9" transform="translate(5852.8 1222) rotate(180)"/><rect class="cls-24" x="2903.8" y="748" width="55" height="12.2" rx="2.6" transform="translate(5766 1277.2) rotate(180)"/><rect class="cls-24" x="2903.8" y="692.7" width="115.4" height="12.2" rx="2.9" transform="translate(5826.4 1166.7) rotate(180)"/><polygon class="cls-3" points="2778.4 1566.4 2774.1 1566.2 2795.9 1019 2418.9 1019 2397.1 1566.4 2392.8 1566.2 2414.7 1014.7 2800.4 1014.7 2778.4 1566.4"/><polygon class="cls-3" points="2813.8 1566.4 2792 1019 2414.9 1019 2436.7 1566.2 2432.4 1566.4 2410.4 1014.7 2796.1 1014.7 2818.1 1566.2 2813.8 1566.4"/><polygon class="cls-17" points="2434.6 1388.4 2815.9 1388.4 2794 838.9 2412.7 838.9 2434.6 1388.4"/><polygon class="cls-16" points="2765.5 1388.4 2384.2 1388.4 2406.1 838.9 2787.4 838.9 2765.5 1388.4"/><rect class="cls-26" x="2439.6" y="932.6" width="117.8" height="24.39" rx="8.4"/><rect class="cls-27" x="2439.6" y="889.9" width="117.8" height="24.39" rx="8.4"/><rect class="cls-27" x="2459.4" y="1143.9" width="78.2" height="16.2" rx="5.6"/><polygon class="cls-27" points="2602.3 1174.4 2478.9 1174.4 2478.9 1172 2599.8 1172 2599.8 1133.2 2602.3 1133.2 2602.3 1174.4"/><path class="cls-3" d="M2844.7,1141.6a50.3,50.3,0,0,0-48.7-33.2,51.1,51.1,0,0,0-15.3,2.9,50,50,0,0,0-30.3,64c.3,1.1.8,2.1,1.2,3.2a46.5,46.5,0,0,0,7.8,12.4,50.1,50.1,0,0,0,85.3-49.3Zm-34.5,52.2a37.5,37.5,0,0,1-41.3-11,38.4,38.4,0,0,1-5.8-9.3l-.9-2.4a36.7,36.7,0,0,1-.5-23.8,37.5,37.5,0,0,1,23.2-24.2,42.5,42.5,0,0,1,11.5-2.2,37.6,37.6,0,0,1,13.8,72.9Z" transform="translate(-96.6 -231)"/><path class="cls-15" d="M2761.7,1147.3l-12-3.7a50,50,0,0,1,31-32.3,51.1,51.1,0,0,1,15.3-2.9l.4,12.5a42.5,42.5,0,0,0-11.5,2.2A37.5,37.5,0,0,0,2761.7,1147.3Z" transform="translate(-96.6 -231)"/><path class="cls-17" d="M2763.1,1173.5l-11.5,5c-.4-1.1-.9-2.1-1.2-3.2a50,50,0,0,1-.7-31.7l12,3.7a36.7,36.7,0,0,0,.5,23.8Z" transform="translate(-96.6 -231)"/><path class="cls-17" d="M2759.4,1190.9a46.5,46.5,0,0,1-7.8-12.4l11.5-5a38.4,38.4,0,0,0,5.8,9.3Z" transform="translate(-96.6 -231)"/><polygon class="cls-11" points="2386.4 1388.4 2382 1388.4 2403.9 836.7 2794 836.7 2794 841.1 2408.2 841.1 2386.4 1388.4"/><polygon class="cls-11" points="2765.5 1388.4 2787.4 836.7 2794 836.7 2815.9 1388.4 2765.5 1388.4"/><polygon class="cls-3" points="2431.2 1274.5 2429.1 1270.7 2524 1216.8 2579.1 1254.2 2737.4 1166.5 2739.6 1170.3 2578.8 1259.3 2523.8 1222 2431.2 1274.5"/><path class="cls-3" d="M2754.9,1236.3a66,66,0,1,0-56.5,119.4c1.3.7,2.7,1.2,4,1.8a66.1,66.1,0,0,0,52.5-121.2Zm16.5,80.9a49.7,49.7,0,0,1-48.8,28.2,50.7,50.7,0,0,1-14.1-3.3l-3.1-1.3a49.6,49.6,0,0,1-23.6-66,52.5,52.5,0,0,1,8.7-12.8,49.6,49.6,0,0,1,80.9,55.2Z" transform="translate(-96.6 -231)"/><path class="cls-17" d="M2682.7,1319l-14.6,7.7a66.1,66.1,0,0,1,10.4-76l12,11.3a52.5,52.5,0,0,0-8.7,12.8A49.7,49.7,0,0,0,2682.7,1319Z" transform="translate(-96.6 -231)"/><path class="cls-15" d="M2708.5,1342.1l-6.1,15.4c-1.3-.6-2.7-1.1-4-1.8a65.6,65.6,0,0,1-30.3-29l14.6-7.7a50,50,0,0,0,22.7,21.8Z" transform="translate(-96.6 -231)"/><path class="cls-15" d="M2721.3,1361.9a66.6,66.6,0,0,1-18.9-4.4l6.1-15.4a50.7,50.7,0,0,0,14.1,3.3Z" transform="translate(-96.6 -231)"/><polygon class="cls-3" points="2425.3 1341.3 2423.1 1337.5 2523 1276.7 2564.5 1313.2 2633.8 1292.2 2695.3 1295.6 2732.8 1260.5 2735.8 1263.7 2696.9 1300 2634.3 1296.6 2563.4 1318.1 2522.5 1282.1 2425.3 1341.3"/><path class="cls-27" d="M2574.6,1339.8a8.6,8.6,0,0,1-3.6-.7,7.9,7.9,0,0,1-2.9-1.8,6.8,6.8,0,0,1-2-2.7,7.2,7.2,0,0,1-.7-3.3,8,8,0,0,1,.7-3.4,8.6,8.6,0,0,1,2-2.7,9.7,9.7,0,0,1,2.9-1.9,10.5,10.5,0,0,1,3.6-.6,10.3,10.3,0,0,1,3.5.6,9.7,9.7,0,0,1,2.9,1.9,8.6,8.6,0,0,1,2,2.7,8,8,0,0,1,.7,3.4,7.2,7.2,0,0,1-.7,3.3,6.8,6.8,0,0,1-2,2.7,7.9,7.9,0,0,1-2.9,1.8A8.4,8.4,0,0,1,2574.6,1339.8Zm-6.6,22.1,16.2-19.2,15.2-19.8,3,2.6-15.9,19-15.6,20.1Zm6.6-25.4a3.9,3.9,0,0,0,1.8-.4,5.3,5.3,0,0,0,1.4-1.2,3.4,3.4,0,0,0,1-1.6,4.8,4.8,0,0,0,.4-2,4.6,4.6,0,0,0-.4-2.1,3.7,3.7,0,0,0-1-1.7,4.5,4.5,0,0,0-3.2-1.5,4.3,4.3,0,0,0-3.4,1.5,5.7,5.7,0,0,0-1.3,3.8,4.5,4.5,0,0,0,.4,2,3.7,3.7,0,0,0,1,1.7,4.9,4.9,0,0,0,1.4,1.1A4.1,4.1,0,0,0,2574.6,1336.5Zm21.2,28.3a8.6,8.6,0,0,1-3.6-.7,7.9,7.9,0,0,1-2.9-1.8,9.5,9.5,0,0,1-2-2.8,8.1,8.1,0,0,1,0-6.6,9.5,9.5,0,0,1,2-2.8,11.9,11.9,0,0,1,2.9-1.8,11.1,11.1,0,0,1,7.2,0,11.9,11.9,0,0,1,2.9,1.8,7.7,7.7,0,0,1,1.9,2.8,7.2,7.2,0,0,1,0,6.6,7.7,7.7,0,0,1-1.9,2.8,7.9,7.9,0,0,1-2.9,1.8A8.6,8.6,0,0,1,2595.8,1364.8Zm0-3.3a4.3,4.3,0,0,0,3.3-1.5,5.7,5.7,0,0,0,1.4-3.8,6.5,6.5,0,0,0-.4-2,6.9,6.9,0,0,0-1-1.7,4.8,4.8,0,0,0-1.5-1.1,4.1,4.1,0,0,0-1.8-.5,3.5,3.5,0,0,0-1.8.5,4.7,4.7,0,0,0-2.5,2.8,4.5,4.5,0,0,0-.4,2,5.2,5.2,0,0,0,.4,2.1,5.9,5.9,0,0,0,1,1.7,4.2,4.2,0,0,0,1.5,1.1A3.4,3.4,0,0,0,2595.8,1361.5Z" transform="translate(-96.6 -231)"/><path class="cls-28" d="M2628.1,1239.7c-1.8-.6-29.3.3-38,.6-.1-.1-.1-.3-.2-.5l28.1-6.7c2.9-.8,2.8-2.6.4-4s-28.2,4.1-33.2,5.1-15.9,4.6-14.8,1.6,9.7-17.7,6.7-20.3-6.7,7.6-8.8,10.1-6.7,8-7.9,13.3a8.1,8.1,0,0,1-2.1,3.7v-.7s-6.1,1.9-15.6,3.8a187,187,0,0,1-22.2,3.2l-4,.4-5.3.7-3.9.5-9.6,1.3-2.3.3-2.1.2-1.4,34.1,2.2-.3,2.2-.3c4-.5,8.1-1.2,12.3-1.9l1.3-.2,3-.6,1.3-.2,3.6-.7c22.6-4.5,44.7-10.3,44.7-10.3l-1.2-8.6,1.1-.4c1.7-.9,14,2.9,24.3.1l.5-.3h0s16-.7,22.7-.3,6.2-2.5,5.7-3.6-17-2.3-23.9-2.6c0-.2.1-.3.1-.4l32.9-3.1a2.6,2.6,0,0,0,2.4-2.8,2.3,2.3,0,0,0-.8-1.8c-1.4-.9-25.6-.3-34.4,0v-.2l22.7-2.3c7.1-.7,13.2-1.4,13.8-1.6S2629.4,1240.1,2628.1,1239.7Z" transform="translate(-96.6 -231)"/><path class="cls-29" d="M2269.6,1775.5s-6.4,11.9-10.5,16.6-20.1,13.2-20.2,27.2,26.9,11,37.4,10.4,11.4-8.7,15.8-17.3,8.9-7.1,9.7-14.1-4.3-22.8-4.3-22.8Z" transform="translate(-96.6 -231)"/><path class="cls-30" d="M2297.2,1770.9s1.2,6.5,1,6.7-29.9,5.4-29.8,0,2.8-9.2,2.8-9.2Z" transform="translate(-96.6 -231)"/><path class="cls-21" d="M2568.8,1212.1s31.1-6.6,33.5-5.2,2.4,3.1-.4,3.8-30,7.2-30,7.2,37.7-1.3,39.9-.7,1.8,3.8.2,4.3-38.9,4.2-38.9,4.2,35.2-1.3,36.8-.1a2.6,2.6,0,0,1-1.5,4.5l-35.4,3.3s25.6.8,26.4,2.6,1.1,4-5.5,3.6-22.4.3-22.4.3Z" transform="translate(-96.6 -231)"/><path class="cls-29" d="M2430.3,1773.3s13,14.5,26.2,17.5,22.5,6.9,22.6,15.3-38,13.8-53.1,5.4c-22.6-12.5-24.9-8.8-27.4-15s3-23,2.9-25S2430.3,1773.3,2430.3,1773.3Z" transform="translate(-96.6 -231)"/><path class="cls-30" d="M2428.9,1766.3s1.7,6.8,1.4,7-29.7,3.6-28.8-1.8,1.7-9.3,1.7-9.3Z" transform="translate(-96.6 -231)"/><path class="cls-20" d="M2402.1,1359.3s10.7,104.1,16.3,139.8c6.5,41.7,8.7,76.1,10.5,97.7,2.3,27.1,2.7,160.6,4.3,168.5s-35.5,2.2-35.5,2.2-18.2-174.4-25.1-203.3c-6.3-26.9-29.8-142.7-35.6-135.4s-13,135.2-17.3,156.4-17.3,187.4-17.3,187.4-29.6,5.9-37.4-.8c0,0-3.6-143.2-.9-183,1.1-15.1-17.7-181.8,6.4-248.9C2283.2,1304.5,2402.1,1359.3,2402.1,1359.3Z" transform="translate(-96.6 -231)"/><path class="cls-4" d="M2218.2,1374.1s18.1,5.5,25.7,4.1,3.7-94.3,4-113.6c.3-15.7,8.9-57.1,8.9-57.1h0c.8,3.1,12.4,46,12.8,66.7s-2.8,103.3-2.8,103.3l32,3.1,91.7,2.3,19.1-2.3s-2.3-35-3.1-51.7c-.5-10.5-2.6-29.5-2.1-47.9,0,0-.3-19.5,1.6-27.8.2-37,2.5-73.6,2.5-73.6,1.2-16.8,2.1-32.4,2.6-47.1l-12.8-6.5c-12.1-5.7-28.8-13.4-39.6-18.3-6.3-2.9-12.5-5.1-12.5-5.1s-43-4.1-46.5-3.9c-1.1.1-6.5,2-13.5,4.7-15.3,5.8-44.7,17.5-49.4,20.9-6.9,4.9-21.4,121.8-22,129.9C2213.6,1269.2,2218.2,1374.1,2218.2,1374.1Z" transform="translate(-96.6 -231)"/><path class="cls-31" d="M2406.9,1366.2s-63,5.4-118.1,0v18.1s82.8,11.9,120.8-3.5Z" transform="translate(-96.6 -231)"/><path class="cls-3" d="M2353.2,1105.5s10.2,24,17.9,77.8c2.9,20.7,8.4,55.4,12.4,90.9h0c3.1,28,10.3,56.7,12.6,78.1s9.4,87.5,9.4,87.5l17.2-10.8c2.5-2.3,5.9-5.3,4.9-8.4-4.7-15.3-13.8-65.9-19.1-109.9h0c-.3-2.1-.5-4.2-.8-6.3v-.4c-1-8.8-1.9-17.2-2.5-25a82.7,82.7,0,0,1,.8-17.3c2.4-39.6,3.6-81.3,3.6-81.3,1.3-17,2-33,2.5-47.8-2.8-2.2-9-5.5-13.3-7.5C2398.8,1125,2360.4,1107.6,2353.2,1105.5Z" transform="translate(-96.6 -231)"/><path class="cls-4" d="M2349.9,1118s1.2,16.5-12.8,16.9-24.9-13-24.9-13l23.1,5.9,14.1-11.9Z" transform="translate(-96.6 -231)"/><path class="cls-21" d="M2533.9,1225.4s10.1-2.9,11.5-8.9,6.2-11.2,7.7-13,5.8-12.4,8.7-9.9-5.4,16.6-6.6,19.9,12.8-2.5,16.1-1.5,9.8,25.2-.2,28.1-22.2-1-23.9-.1a67.1,67.1,0,0,1-7.2,2.3Z" transform="translate(-96.6 -231)"/><path class="cls-32" d="M2331.1,991.9s32,5.4,26.6,55.4-33.7,45.6-35.6,45.5-28.3.6-29.7-60.5C2292.4,1032.3,2292,987.1,2331.1,991.9Z" transform="translate(-96.6 -231)"/><path class="cls-32" d="M2345.1,1078.3s0,20.6.9,25.1-25.7,18.6-42.8,2.5c0,0,3.4-22.5,2.4-30.4S2345.1,1078.3,2345.1,1078.3Z" transform="translate(-96.6 -231)"/><path class="cls-32" d="M2357.8,1035.7s3.5-3.7,4.8.1-4.5,19.8-5.3,21.4c0,0-.6,1.4-1.5.6S2357.8,1035.7,2357.8,1035.7Z" transform="translate(-96.6 -231)"/><path class="cls-32" d="M2292.8,1031.8s-3.4-3.8-4.8-.1,3.7,20.6,4.3,21.6,1.1,1.8,2,1S2292.8,1031.8,2292.8,1031.8Z" transform="translate(-96.6 -231)"/><path class="cls-33" d="M2360.3,1028.9c-1.1,6.9-2.1,11.9-2.1,11.9l-4.6,6.1s.2-13.4-.5-15.5a27,27,0,0,1-.9-3.8c-.5-2.5-1.1-5.3-1.4-6.3s-27.4-9.3-51.3,1.6c0,0,.2,2.1.2,4.4s-.3,5.7-1.5,6.1-1.4,15.8-1.4,15.8l-3.7-4.3s-1.1-7.8-2.1-16.7h0c-.3-2.1-.5-4.2-.7-6.4-.6-8.9.3-25.2,12-34.8,7.9-3.4,20.5-6.3,41.5.2,0,0,5.3,1.4,6.6,2.7C2363.5,1004.2,2360.3,1028.9,2360.3,1028.9Z" transform="translate(-96.6 -231)"/><path class="cls-34" d="M2307.7,1086.1s5.1,7.1,17,6.9,17-6.5,17-6.5-5.6,11.7-17.1,11.6S2307.7,1086.1,2307.7,1086.1Z" transform="translate(-96.6 -231)"/><path class="cls-35" d="M2347.2,1119l-11.9,8.8s10-21.2,10.2-29.7Z" transform="translate(-96.6 -231)"/><polygon class="cls-35" points="2248.9 867.1 2257 874.7 2265.6 900.1 2250.6 888 2248.9 867.1"/><path class="cls-3" d="M2547.3,1248.9s-70.3,18.5-87.5,14.3c-8-2-18.5-12.9-28.4-25.8-3.3-4.3-6.5-8.8-9.6-13.2h0c-12.2-17.6-21.7-34.5-21.7-34.5s-36.1-42.3-7.2-61.1c0,0,12.2-1.3,19.2,3.9s22,34.5,24.5,40,30,56.7,31.8,57.9,25.3-3.1,37.8-4.1a200.3,200.3,0,0,0,37-6.8Z" transform="translate(-96.6 -231)"/><path class="cls-32" d="M2344,1105.7a137.9,137.9,0,0,1-8.7,22.1s-12.5-10.9-16.5-14.8S2344,1105.7,2344,1105.7Z" transform="translate(-96.6 -231)"/><path class="cls-35" d="M2322.2,1115.6l13.1,12.2s-15.5-1-18.4-3.6Z" transform="translate(-96.6 -231)"/><path class="cls-35" d="M2304.8,1093s10.5,17,17.4,22.6l-11.6,19.3-18.6-33.8Z" transform="translate(-96.6 -231)"/><path class="cls-3" d="M2249.3,1265.4c-1.4,18,6.2,117.2-1.4,118.6s-35.4-4.7-35.4-4.7-3.5-107-2.3-118.3c.8-8.1,13.8-130.6,20.6-135.6,4-2.8,33.4-13.2,47.8-18.9,2.7-1,11-4.6,13.4-5.4,3,3.4,29.7,65.9,32.2,114.6.8,14.9-2.7,46.2-5.4,71.8-2.8,27.3-5.9,48.7-8.2,71.5-4.5,45-7.7,80.8-7.7,80.8l-44.8-19.9c-7.2-3.6-17.3-18.5-14.5-26.1,10.3-29.1,23.4-78.6,23.4-104.1,0,0-5-62.3-9-76C2258,1213.7,2251,1242.6,2249.3,1265.4Z" transform="translate(-96.6 -231)"/><rect class="cls-36" x="2235.8" y="1136.3" width="29.7" height="22.06"/><polygon class="cls-37" points="2169.3 1252.8 2071.6 1252.8 2094.5 1187.8 2192.2 1187.8 2169.3 1252.8"/><polygon class="cls-16" points="2169.3 1252.8 2071.6 1252.8 2094.5 1187.8 2192.2 1187.8 2169.3 1252.8"/><polygon class="cls-38" points="2094.5 1317.8 2192.2 1317.8 2169.3 1252.8 2071.6 1252.8 2094.5 1317.8"/><polygon class="cls-16" points="2169.3 1382.8 2071.6 1382.8 2094.5 1317.8 2192.2 1317.8 2169.3 1382.8"/><polygon class="cls-38" points="2094.5 1447.8 2192.2 1447.8 2169.3 1382.8 2071.6 1382.8 2094.5 1447.8"/><polygon class="cls-39" points="2156 1201.1 2100.3 1201.1 2101.1 1198.6 2156.7 1198.6 2156 1201.1"/><polygon class="cls-39" points="2152.6 1209.8 2097 1209.8 2097.7 1207.4 2153.4 1207.4 2152.6 1209.8"/><polygon class="cls-39" points="2138.4 1218.5 2093.3 1218.5 2094.1 1216.1 2139.2 1216.1 2138.4 1218.5"/><polygon class="cls-39" points="2156 1330.6 2100.3 1330.6 2101.1 1328.2 2156.7 1328.2 2156 1330.6"/><polygon class="cls-39" points="2124.8 1339.3 2097 1339.3 2097.7 1336.9 2125.6 1336.9 2124.8 1339.3"/><path class="cls-21" d="M2242.4,1385.3l1.4,4.4c1.6,4.8,6.7,10.3,3.6,16.9s-26.8,2.4-30.4-.6-2.1-13.1,6.1-26S2242.4,1385.3,2242.4,1385.3Z" transform="translate(-96.6 -231)"/><path class="cls-21" d="M2248.1,1404.2a197.8,197.8,0,0,1-2,22.8c-1.5,10.6-4.9,23.4-7.5,23.1s-.1-10.8.7-21.3-1-7.9-1-7.9.5-.5-2.4,9.9-6.9,23.1-9.1,22.9-3-.6-2.5-4.8c-.8,2.3-1.6,2.5-2.6,2.2-5.4-1.2-3.4-18.4-2.7-25.2-.6,5.3-1.6,9-4.4,6.2s.6-27.5,1.2-36.3S2248.1,1404.2,2248.1,1404.2Z" transform="translate(-96.6 -231)"/><path class="cls-3" d="M2250.4,1315.6l-.4,78.9s-15.8-.7-37.5-8.7l-1.5-111.3Z" transform="translate(-96.6 -231)"/><polygon class="cls-3" points="179.7 463.6 326.8 463.6 326.8 570.2 326.8 592.7 304.3 570.2 179.7 570.2 179.7 463.6"/><polygon class="cls-3" points="2428.2 640.9 2309 640.9 2309 727.3 2309 745.5 2327.2 727.3 2428.2 727.3 2428.2 640.9"/><rect class="cls-19" x="1129.6" y="1048.3" width="26" height="1.94" transform="translate(-503.8 884.6) rotate(-45)"/><rect class="cls-19" x="1141.7" y="1036.2" width="1.9" height="26.02" transform="translate(-503.8 884.4) rotate(-45)"/><rect class="cls-3" x="1498.9" y="392.5" width="4" height="1" transform="translate(65.1 945.3) rotate(-45)"/><path class="cls-3" d="M712.7,520.3H708v-1h4.2l2.4-2.4.7.7Zm-12.7,0h-7.9v-1H700Zm-15.9,0h-7.9v-1h7.9Zm-15.9,0h-8v-1h8Zm-15.9,0h-8v-1h8Zm-15.9,0h-8v-1h8Zm-15.9,0h-8v-1h8Zm-16,0h-7.9v-1h7.9Zm-15.9,0h-7.9v-1h7.9Zm-15.9,0h-7.9v-1h7.9Zm-15.9,0h-8v-1h8Zm-15.9,0h-8v-1h8Zm-15.9,0h-8v-1h8Zm-15.9,0h-8v-1h8Zm-16,0h-7.9v-1h7.9Zm-15.9,0h-7.9v-1h7.9Zm-15.9,0h-7.9v-1h7.9Zm-15.9,0h-8v-1h8Zm-15.9,0h-8v-1h8Zm-15.9,0h-8v-1h8Zm-15.9,0h-8v-1h8Zm-16,0h-7.9v-1h7.9Zm-15.9,0h-7.9v-1h7.9Zm-15.9,0H342v-1h7.9Zm-15.9,0h-8v-1h8Zm-15.9,0h-8v-1h8Zm-15.9,0h-8v-1h8Zm-15.9,0h-8v-1h8Zm-16,0h-7.9v-1h7.9Zm-15.9,0h-7.9v-1h7.9Zm-15.9,0h-7.9v-1h7.9Zm-15.9,0h-8v-1h8Zm-15.9,0h-8v-1h8ZM720.9,512l-.7-.7,5.6-5.6.7.7Zm11.2-11.2-.7-.7,5.7-5.7.7.7Zm11.3-11.3-.7-.7,5.6-5.6.7.7Zm11.3-11.2-.8-.7,5.7-5.7.7.7ZM765.9,467l-.7-.7,5.6-5.6.7.7Zm11.3-11.2-.7-.7,5.6-5.7.7.7Zm11.2-11.3-.7-.7,5.6-5.6.7.7Zm671.8-10.1h-8v-1h7.8v.2l.5.5Zm-16,0h-7.9v-1h7.9Zm-15.9,0h-7.9v-1h7.9Zm-15.9,0h-7.9v-1h7.9Zm-15.9,0h-7.9v-1h7.9Zm-15.9,0h-8v-1h8Zm-15.9,0h-8v-1h8Zm-15.9,0h-8v-1h8Zm-15.9,0h-8v-1h8Zm-16,0H1309v-1h7.9Zm-15.9,0h-7.9v-1h7.9Zm-15.9,0h-7.9v-1h7.9Zm-15.9,0h-8v-1h8Zm-15.9,0h-8v-1h8Zm-15.9,0h-8v-1h8Zm-15.9,0h-8v-1h8Zm-16,0h-7.9v-1h7.9Zm-15.9,0h-7.9v-1h7.9Zm-15.9,0h-7.9v-1h7.9Zm-15.9,0h-8v-1h8Zm-15.9,0h-8v-1h8Zm-15.9,0h-8v-1h8Zm-15.9,0h-8v-1h8Zm-16,0h-7.9v-1h7.9Zm-15.9,0h-7.9v-1h7.9Zm-15.9,0h-7.9v-1h7.9Zm-15.9,0h-8v-1h8Zm-15.9,0h-8v-1h8Zm-15.9,0h-8v-1h8Zm-15.9,0h-8v-1h8Zm-16,0h-7.9v-1h7.9Zm-15.9,0h-7.9v-1h7.9Zm-15.9,0H943v-1h7.9Zm-15.9,0h-8v-1h8Zm-15.9,0h-8v-1h8Zm-15.9,0h-8v-1h8Zm-15.9,0h-8v-1h8Zm-16,0h-7.9v-1h7.9Zm-15.9,0h-7.9v-1h7.9Zm-15.9,0h-7.9v-1h7.9Zm-15.9,0h-7.9v-1h7.9Zm-15.9,0h-8v-1h8Zm658.4-5.9-.7-.7,5.6-5.6.7.7Zm11.2-11.2-.7-.8,5.7-5.6.7.7Zm11.3-11.3-.7-.7,5.6-5.6.7.7Z" transform="translate(-96.6 -231)"/><polygon class="cls-3" points="90.7 292.8 89.7 292.8 89.7 288.3 94.2 288.3 94.2 289.3 90.7 289.3 90.7 292.8"/><path class="cls-3" d="M187.3,804.2h-1v-7.8h1Zm0-15.6h-1v-7.8h1Zm0-15.6h-1v-7.8h1Zm0-15.6h-1v-7.8h1Zm0-15.5h-1v-7.8h1Zm0-15.6h-1v-7.8h1Zm0-15.6h-1v-7.8h1Zm0-15.6h-1v-7.8h1Zm0-15.6h-1v-7.7h1Zm0-15.5h-1v-7.8h1Zm0-15.6h-1v-7.8h1Zm0-15.6h-1V625h1Zm0-15.6h-1v-7.8h1Zm0-15.6h-1v-7.7h1Zm0-15.5h-1v-7.8h1Zm0-15.6h-1v-7.8h1Zm0-15.6h-1v-7.8h1Zm0-15.6h-1v-7.8h1Z" transform="translate(-96.6 -231)"/><polygon class="cls-3" points="92.7 588.1 89.7 585.2 89.7 581 90.7 581 90.7 584.8 93.4 587.4 92.7 588.1"/><path class="cls-3" d="M269.6,899.4l-5.8-5.7.7-.7,5.8,5.7ZM258.1,888l-5.7-5.8.7-.7,5.7,5.8Zm-11.5-11.5-5.7-5.7.7-.7,5.7,5.7ZM235.1,865l-5.7-5.7.7-.7,5.8,5.7Zm-11.4-11.4-5.8-5.8.7-.7,5.8,5.7Zm-11.5-11.5-5.7-5.8.7-.7,5.7,5.8Zm-11.5-11.5-5.7-5.7.7-.7,5.7,5.7Z" transform="translate(-96.6 -231)"/><rect class="cls-3" x="276.6" y="904.2" width="1" height="4" transform="translate(-656.3 230.4) rotate(-45)"/><path class="cls-3" d="M307.3,907.7a22.5,22.5,0,1,1-22.5-22.6A22.5,22.5,0,0,1,307.3,907.7Z" transform="translate(-96.6 -231)"/><path class="cls-3" d="M2793.2,1067.8a22.5,22.5,0,1,1-22.5-22.5A22.5,22.5,0,0,1,2793.2,1067.8Z" transform="translate(-96.6 -231)"/><path class="cls-3" d="M2190.9,881.7a22.5,22.5,0,1,1-22.5-22.5A22.5,22.5,0,0,1,2190.9,881.7Z" transform="translate(-96.6 -231)"/><path class="cls-3" d="M2888.5,521.4a22.5,22.5,0,1,1-22.5-22.5A22.5,22.5,0,0,1,2888.5,521.4Z" transform="translate(-96.6 -231)"/><path class="cls-3" d="M2766.5,1062.8l-5.7-5.6.7-.8,5.7,5.7Zm-11.4-11.3-5.6-5.7.7-.7,5.7,5.7Zm-11.3-11.3-5.6-5.7.7-.7,5.6,5.7Zm-11.3-11.3-5.6-5.7.7-.7,5.6,5.7Zm-11.3-11.3-5.7-5.7.8-.7,5.6,5.7Zm-11.3-11.4-5.7-5.6.7-.7,5.7,5.6Zm-11.3-11.3-5.7-5.6.7-.7,5.7,5.6Zm-11.3-11.3-3.9-3.8v-3h1v2.6l3.6,3.5Zm-2.9-14.8h-1v-8h1Zm0-16h-1v-8h1Zm0-16h-1v-8h1Zm0-16h-1v-8h1Zm0-16h-1v-8h1Zm0-16h-1v-8h1Zm0-16h-1v-8h1Zm0-16h-1v-8h1Zm0-16h-1v-8h1Zm0-16h-1v-8h1Zm0-16h-1v-8h1Zm0-16h-1v-8h1Zm0-16h-1v-8h1Zm0-16h-1v-8h1Zm0-16h-1v-8h1Zm0-16h-1v-8h1Zm0-16h-1v-8h1Zm-4-14.3-5.6-5.7.7-.7,5.6,5.7Zm-11.3-11.4-5.7-5.6.7-.7,5.7,5.6Zm-11.3-11.3-5.7-5.6.7-.7,5.7,5.6Zm-11.3-11.3-5.7-5.6.7-.7,5.7,5.6Zm-11.4-11.3-5.6-5.6.7-.8,5.7,5.7Zm-11.3-11.3-5.6-5.7.7-.7,5.6,5.7Zm-11.3-11.3-5.6-5.7.7-.7,5.6,5.7Zm-11.3-11.3-5.7-5.7.8-.7,5.6,5.7ZM2589.9,608l-5.7-5.7.7-.7,5.7,5.6Zm-11.3-11.4-5.7-5.6.7-.7,5.7,5.6Zm-11.3-11.3-5.7-5.6.7-.7,5.7,5.6ZM2555.9,574l-5.6-5.6.7-.7,5.7,5.6Zm-11.3-11.3L2539,557l.7-.7,5.6,5.7Zm-11.3-11.3-5.6-5.7.7-.7,5.6,5.7ZM2522,540.1l-5.7-5.7.8-.7,5.6,5.7Zm-11.3-11.3-5.7-5.7.7-.7,5.7,5.7Zm-11.3-11.3-5.7-5.7.7-.7,5.7,5.6Zm-11.3-11.4-5.7-5.6.7-.7,5.7,5.6Zm-11.4-11.3-5.6-5.6.7-.7,5.7,5.6Zm-11.3-11.3-5.6-5.6.7-.7,5.6,5.6Z" transform="translate(-96.6 -231)"/><path class="cls-25" d="M3234,837a75.2,75.2,0,1,1,75.1-75.2A75.2,75.2,0,0,1,3234,837Zm0-146a70.9,70.9,0,1,0,70.8,70.8A71,71,0,0,0,3234,691Z" transform="translate(-96.6 -231)"/><path class="cls-3" d="M2157.3,887.2l-.7-.7,5.7-5.6.7.7Zm11.3-11.3-.7-.7,5.7-5.6.7.7Zm11.4-11.3-.7-.7,5.6-5.6.7.7Zm11.3-11.3-.7-.7,5.6-5.7.7.7Zm11.3-11.3-.7-.7,5.6-5.7.7.7Zm11.3-11.3-.7-.7,5.7-5.7.7.7Zm11.3-11.3-.7-.7,5.7-5.7.7.7Zm11.3-11.3-.7-.8,5.7-5.6.7.7Zm11.3-11.4-.7-.7,5.7-5.6.7.7Zm11.4-11.3-.7-.7,2.6-2.6h4.7v1h-4.3Zm225.7-2.3h-3.1v-1h2.7l3.4-3.5.7.7Zm-11.1,0h-8v-1h8Zm-16,0h-8v-1h8Zm-16,0h-8v-1h8Zm-16,0h-8v-1h8Zm-16,0h-8v-1h8Zm-16,0h-8v-1h8Zm-16,0h-8v-1h8Zm-16,0h-8v-1h8Zm-16,0h-8v-1h8Zm-16,0h-8v-1h8Zm-16,0h-8v-1h8Zm-16,0h-8v-1h8Zm-16,0h-8v-1h8Zm212.5-9.4-.7-.7,5.6-5.7.8.7Zm11.3-11.3-.7-.7,5.7-5.7.7.7Zm11.3-11.4-.7-.7,5.7-5.6.7.7Zm11.3-11.3-.7-.7,5.7-5.6.7.7Zm11.4-11.3-.8-.7,5.7-5.6.7.7Zm11.3-11.3-.7-.7,5.6-5.7.7.8Zm11.3-11.3-.7-.7,5.6-5.7.7.7Zm11.3-11.3-.7-.7,5.6-5.7.8.7Zm11.3-11.3-.7-.7,5.7-5.7.7.7Z" transform="translate(-96.6 -231)"/><path class="cls-40" d="M575.6,1675.4H126.3c-15-45-8.8-94.4,22.1-138.1,62.9-89.1,204.6-120.6,316.5-70.5C559.1,1509,602.1,1595.8,575.6,1675.4Z" transform="translate(-96.6 -231)"/><path class="cls-41" d="M561.2,1619.2v-15.7l-.5,8.9c-7.4-96.7-108-173.4-231.4-173.6-120.2-.1-219.3,72.4-231.5,165.6l-1.2-1.4v19.3a4.9,4.9,0,0,0-.1,1.2,6.1,6.1,0,0,0,.1,1.4v2.5h0c2.5,100.4,105.2,181.2,231.8,181.4,123.5.2,224.7-76.4,232.3-173.3v-.7c.2-3.6.4-7.1.4-10.7C561.3,1622.6,561.2,1620.9,561.2,1619.2Z" transform="translate(-96.6 -231)"/><ellipse class="cls-42" cx="232.4" cy="1368.2" rx="232.3" ry="185"/><path class="cls-42" d="M227.3,1765.6l227.5-321.9c102.7,52.5,137.3,160.4,76.6,246.3S337,1808.2,227.3,1765.6Z" transform="translate(-96.6 -231)"/><path class="cls-9" d="M126.5,1508.5c53.3-75.5,163.2-109.7,263.6-87.8L169,1733.5C93.5,1676.5,73.1,1583.9,126.5,1508.5Z" transform="translate(-96.6 -231)"/><ellipse class="cls-43" cx="232.4" cy="1368.2" rx="176.6" ry="140.6"/><path class="cls-44" d="M256.2,1620.5a24.3,24.3,0,0,0,3.2,6.6,66.2,66.2,0,0,0,6.3,8,74.4,74.4,0,0,0,9.1,8.3,78.1,78.1,0,0,0,11.5,7.4l26.2-37.1-3.8-2.6a205.6,205.6,0,0,1-18.2-15,54.3,54.3,0,0,1-11.6-14.4,26.2,26.2,0,0,1-3.3-14.8q.4-7.7,6.6-16.2a44.3,44.3,0,0,1,15.7-14.3,52.5,52.5,0,0,1,19.7-5.9,73.7,73.7,0,0,1,22.3,1.1,113.9,113.9,0,0,1,23.1,7.2l13.3-18.8,11.7,5.3-13.5,19.1a133.9,133.9,0,0,1,27.2,18.9,89.2,89.2,0,0,1,18.4,23.7l-23.6,12.1a29.9,29.9,0,0,0-3.9-7.9,82,82,0,0,0-7.6-9.8,109.7,109.7,0,0,0-10.9-10.3,108.2,108.2,0,0,0-13.8-9.5l-26.2,37.1,2.3,1.9,2.4,1.8a204.5,204.5,0,0,1,17.1,14.6,46.7,46.7,0,0,1,9.9,13.3,23.9,23.9,0,0,1,2.4,13.2c-.5,4.5-2.5,9.2-6,14.2a48.8,48.8,0,0,1-14.8,13.9,56,56,0,0,1-19.1,6.9,74.9,74.9,0,0,1-21.7.3,101.2,101.2,0,0,1-23.1-5.7l-12.8,18.1-11.6-5.2,12.7-18.1c-9.4-4.9-17.3-10.4-23.6-16.8a85.8,85.8,0,0,1-15.1-19.2Zm77.4,28.6c3.6-5,4-9.7,1.4-14.2s-7.8-9.7-15.5-15.6l-24.9,35.2c9.4,3.8,17.3,5.1,23.8,4A22.2,22.2,0,0,0,333.6,1649.1Zm-22.9-88.5c-3.8,5.2-3.9,10.4-.6,15.4s9,10.8,16.9,17.1l25.1-35.4c-9.7-4.2-18.1-6-25.2-5.6S314.4,1555.3,310.7,1560.6Z" transform="translate(-96.6 -231)"/><path class="cls-45" d="M262.9,1776.6c101.7,24.1,214.3-9.9,268.5-86.6s32.4-171.1-46.2-227.8Z" transform="translate(-96.6 -231)"/><path class="cls-45" d="M169,1733.5l221.1-312.8a263.1,263.1,0,0,1,52.8,17.3c4.1,1.8,8,3.7,11.9,5.7L227.3,1765.6c-4.2-1.6-8.3-3.3-12.3-5.2A239.6,239.6,0,0,1,169,1733.5Z" transform="translate(-96.6 -231)"/><polygon class="cls-40" points="418.4 1036.2 226.7 1278.5 226.7 1240.3 214.5 1209.3 260.1 1036.2 418.4 1036.2"/><path class="cls-46" d="M300,1468.2s-17.5,29.7-24.9,34.5c-10.1,6.6-3.8,13.3,1,13.3s29.1,1.7,34.4-4.4,8.1-24.3,13.1-29,10.1-23.8-2.5-28.4S300,1468.2,300,1468.2Z" transform="translate(-96.6 -231)"/><path class="cls-29" d="M307.5,1455.2s-20,34.7-23.5,39.9,6.6,5.1,12.7,2.6,21.7-27.3,23.9-31.8.5-11.7.5-11.7Z" transform="translate(-96.6 -231)"/><polygon class="cls-46" points="231.3 1242.9 226.7 1278.5 224.2 1278.6 225 1253 231.3 1242.9"/><path class="cls-46" d="M473.5,1468.2s-17.5,29.7-24.9,34.5c-10,6.6-3.7,13.3,1,13.3s29.1,1.7,34.5-4.4,8-24.3,13-29,10.3-24.2-2.4-28.4C483.5,1450.6,473.5,1468.2,473.5,1468.2Z" transform="translate(-96.6 -231)"/><path class="cls-29" d="M480,1455.3s-19,34.6-22.4,39.8,6.5,5.1,12.7,2.6,21.7-27.3,23.9-31.8.5-11.7.5-11.7Z" transform="translate(-96.6 -231)"/><polygon class="cls-46" points="404.8 1242.9 400.2 1278.5 397.7 1278.6 398.5 1253 404.8 1242.9"/><path class="cls-29" d="M551.2,1198.3l-158.4,72.1s-17.7,5.8-19.7,25.4c-6.2,61.3-52,158.4-52,158.4-14.7,7.2-13.6,1-13.6,1,9.3-29.7,20.6-152.3,24.6-201.6.9-10.4,1.4-17.6,1.5-19.9s1.8-3.6,4.7-5.9c21.8-17.7,111.2-54.1,111.2-54.1C516.6,1172,551.2,1198.3,551.2,1198.3Z" transform="translate(-96.6 -231)"/><path class="cls-29" d="M571.7,1226.7c-6.2,33.8-56.7,40.5-56.7,40.5H440.9s19.5,43.3,27,79.8c8,38.7,26.8,107.2,26.8,107.2s-1.3,2.4-14.7,1.1c0,0-58.1-115.9-80.3-145-4.8-6.3-18.6-40.3-20.9-60.6-.8-6.8-.3-12.1,2.2-14.2s8.5-6.2,16.4-11.2c23.2-14.6,63.5-37.1,85.9-42.2,30.1-6.7,77.6-19.4,77.6-19.4S579.6,1184.3,571.7,1226.7Z" transform="translate(-96.6 -231)"/><path class="cls-47" d="M530.6,899.6s11.1-21,5.7-43.4-26.2-44.8-56.7-34.5-55,33.9-36.8,61.2-16.5,39.7-7.6,52.7,5.5,26.6,1.7,29.7-15.8,13.8-14.5,26.6,59.1-37.3,59.1-37.3S512.9,891.4,530.6,899.6Z" transform="translate(-96.6 -231)"/><path class="cls-48" d="M437.8,1168.5s4.6,22.3,122.9-5.8C560.7,1162.7,521,1149.5,437.8,1168.5Z" transform="translate(-96.6 -231)"/><path class="cls-4" d="M562,1168.9l5.5,10.5-129.7,3.8c6.8-22.9,4.6-53.9,3.4-77.4-1.4-28.8-17.3-48.8-15.6-77.8l-18.6,2.9c13.1-37.3,17.6-55.8,58.3-70.2,13.2-4.6,21.9-5.6,36.3-4.4,47.1,3.9,61.3,4.5,84.5,47.2-36.3,5.7-30.3,18.7-41.3,54.8-5.4,17.6-11,37.2-8.1,55.7S562,1152.3,562,1168.9Z" transform="translate(-96.6 -231)"/><path class="cls-21" d="M486.8,969.8c19.3-3.7,15.2-14.4,15.2-14.4s-.9-6-1.3-13.7c-.1-1.9-.1-4-.1-6.1s.2-6.4.5-9.5c1.6-12.9-35-5.2-35-5.2s2.1,26.2-2.9,34S467.5,973.4,486.8,969.8Z" transform="translate(-96.6 -231)"/><path class="cls-21" d="M523.6,955.4s-38.9,44.9-53.3,55.3c0,0-16.5-14.9-6.3-54.4C464,956.3,482.7,946.9,523.6,955.4Z" transform="translate(-96.6 -231)"/><path class="cls-21" d="M522.5,847.2s20.2,39,.2,75.8-59.4-16-62-22.2-16-41.4,10.8-52S516.8,836.7,522.5,847.2Z" transform="translate(-96.6 -231)"/><path class="cls-47" d="M515.8,861s13.9,18.3,15.6,31.8a72.6,72.6,0,0,0-10.1-50c-15.7-24.5-55.5-1.2-60.9,8.6s-20.9,18.4,5.3,60.5C465.7,911.9,513,879.1,515.8,861Z" transform="translate(-96.6 -231)"/><path class="cls-49" d="M483.5,926.9s3.5,7.7,17.2,14.8c-.1-1.9-.1-4-.1-6.1A32.5,32.5,0,0,1,483.5,926.9Z" transform="translate(-96.6 -231)"/><path class="cls-21" d="M687.7,1133.9s9.6,4.3,14.2,2.3,11.6-2.3,13.8-2.3,12.3-3.3,12.1.3-15.1,6.2-18.1,7.3,9.1,7.9,10.3,10.9-12.7,22.5-20.5,17-11.9-16.8-13.5-17.5a53.2,53.2,0,0,1-5.8-3.8Z" transform="translate(-96.6 -231)"/><path class="cls-21" d="M718.5,1150.6s22.5,18.7,22.9,21.2-.9,3.7-3.1,2.1L716,1156.5s22.6,26.6,23.3,28.6-1.7,3.6-2.9,2.8-25.3-25.9-25.3-25.9,21,24.9,21.1,26.8-2.4,3.4-4.1,1.7l-22.6-23.8s14.1,19.2,13.2,20.9-2.3,3.2-5.8-1.9-13-16.1-13-16.1Z" transform="translate(-96.6 -231)"/><path class="cls-3" d="M577.3,1229.4c-6.9,38.6-62.3,37.8-62.3,37.8H448.7a184.4,184.4,0,0,0-31.6-23.6H417c-48.9-28.1-83.4-9.7-83.4-9.7-1.7-9.6,22.9-23.1,49.8-35h0c31.4-13.8,66.1-25.2,66.1-25.2a218.1,218.1,0,0,1,50.9,4.4c28.2-6.8,60.5-15.4,60.5-15.4S584.9,1187,577.3,1229.4Z" transform="translate(-96.6 -231)"/><path class="cls-4" d="M452.6,1176.9s28.4,11,63.3,1.1l1.6-13.1-71.8,4Z" transform="translate(-96.6 -231)"/><path class="cls-11" d="M453,1182.9a6.2,6.2,0,0,1-8.7,6.2L437,1186a5.2,5.2,0,0,1-3.1-5.6c3-19.2,9.6-93.6,0-106.4a42.4,42.4,0,0,1-7-12.5c-6.4,16.4-14.2,37.4-17.4,48.7l-59.7,79.4-20,5.1c25-60.2,45-92.1,45-92.1,4-10.5,15.2-42.3,25.1-70.6,6.3-17.9,12-34.3,15.1-43.2a20.2,20.2,0,0,1,8.8-10.7c9.2-5.5,24.6-14.3,38.6-21h.2l1.3-.7h.1c-26.6,40.2-16.3,153.8-11,226.5Z" transform="translate(-96.6 -231)"/><path class="cls-11" d="M551.7,959.8c8.5,1.3,29.6,21.8,40.8,42.5,12.8,23.6,25.9,50.5,35.6,59.3,18,16.3,68.3,73.8,70.6,72.4s-13.7,17.1-15.6,18-82.6-70.4-90.5-81.2-27.3-53.1-33.2-52.1h-.1a326.4,326.4,0,0,0-14.5,39.6l-.3,1.1c-4.8,16-4.3,33.4-1.8,52.9,2,14.7,12.9,38.8,19.6,50.5.8,1.4.6,4.1-.3,6.1h0a4.5,4.5,0,0,1-2.2,2.6l-23.9,8.9-5.7,2a12.3,12.3,0,0,1-11.5-1.5,12.1,12.1,0,0,1-4.9-8.4c-5.4-41-12.1-82.9-17.5-98.7-23.6-69.2,9.2-121.3,9.2-121.3S544.2,957,551.7,959.8Z" transform="translate(-96.6 -231)"/><path class="cls-47" d="M480.6,886s-7.7,12.1-.5,22.5-1.9,20.7-3.4,31.7,29.9,40.4-5.1,55.1-46.2-9.6-37.3-23,15.3-24.3,16.1-43.5S457.4,879.8,480.6,886Z" transform="translate(-96.6 -231)"/><path class="cls-50" d="M491.9,1199.4l-74.8,44.2H417c-48.9-28.1-83.4-9.7-83.4-9.7-1.7-9.6,22.9-23.1,49.8-35h0a522.1,522.1,0,0,1,54.4,2.2Z" transform="translate(-96.6 -231)"/><polygon class="cls-51" points="395.3 962.1 268.8 960.2 332.7 992.6 395.3 962.1"/><polygon class="cls-52" points="332.7 992.6 395.3 968.4 395.3 962.1 327.7 986.4 332.7 992.6"/><polygon class="cls-52" points="332.7 992.6 295 889.9 173.8 891.9 209.6 986.5 332.7 992.6"/><rect class="cls-3" x="2537.5" y="93.1" width="1033.1" height="60.24"/><rect class="cls-16" x="2582.2" y="116.8" width="131" height="12.24" rx="3.3"/><path class="cls-3" d="M2856.5,510.5l-1.7-1.7.7-.8,1.7,1.8Zm-7.4-7.4-5.6-5.7.7-.7,5.6,5.7Zm-11.3-11.3-5.6-5.7.7-.7,5.6,5.7Zm-11.3-11.3-5.7-5.7.8-.7,5.6,5.7Zm-11.3-11.3-5.7-5.7.7-.7,5.7,5.7Zm-152.1-.5-.7-.7,5.7-5.7.7.8Zm-192.3-1.2-.7-.7,5.7-5.6.7.7Zm186-2.7-5.7-5.7.7-.7,5.7,5.7Zm147.1-7-5.7-5.6.7-.7,5.7,5.6Zm-129.4-.4-.7-.7,5.6-5.7.7.7Zm-192.4-1.2-.7-.7,5.7-5.6.7.7Zm163.4-2.7-5.7-5.7.7-.7,5.7,5.7Zm147.1-7-5.7-5.6.7-.7,5.7,5.6Zm-106.8-.4-.7-.7,5.6-5.7.7.7Zm-192.4-1.2-.7-.7,5.7-5.7.7.8Zm140.8-2.7-5.7-5.7.7-.7,5.7,5.7Zm147-7-5.6-5.6.7-.7,5.7,5.6Zm-84.1-.4-.7-.7,5.6-5.7.8.7Zm-192.4-1.2-.7-.7,5.7-5.7.7.7Zm118.1-2.7-5.6-5.7.7-.7,5.6,5.7Zm147.1-7-5.6-5.7.7-.7,5.6,5.7Zm-61.5-.4-.7-.7,5.7-5.7.7.7Zm-192.3-1.2-.7-.7,5.6-5.7.7.7Zm95.4-2.8-5.6-5.6.7-.7,5.6,5.6Zm147.1-6.9-5.6-5.7.7-.7,5.6,5.7Zm-38.9-.5-.7-.7,5.7-5.6.7.7ZM2527.4,411l-.7-.7,5.6-5.7.7.7Zm72.8-2.8-5.6-5.6.7-.7,5.6,5.6Zm147.1-6.9-5.7-5.7.8-.7,5.6,5.7Zm-16.3-.5-.7-.7,5.7-5.6.7.7Zm-192.3-1.1-.7-.7,5.6-5.7.7.7Zm50.2-2.8-5.7-5.6.7-.7,5.7,5.6Zm-38.9-8.6-.7-.7,5.7-5.6.7.7Zm27.6-2.7-5.7-5.6.7-.8,5.7,5.7Zm-16.3-8.6-.7-.7,4.6-4.5,1.8,1.8-.7.7-1.1-1.1Z" transform="translate(-96.6 -231)"/><polygon class="cls-17" points="3502.9 663.6 3501.9 663.6 3501.9 283.2 3336.6 283.2 3336.6 282.2 3502.9 282.2 3502.9 663.6"/><path class="cls-4" d="M1599.5,911.2A84.5,84.5,0,1,0,1440.4,968a48.7,48.7,0,0,0,2.1,5.3,83.5,83.5,0,0,0,13.1,21,84.5,84.5,0,0,0,143.9-83.1Zm-58.2,88a63.3,63.3,0,0,1-69.6-18.6,60.2,60.2,0,0,1-9.8-15.7c-.6-1.3-1.1-2.6-1.6-4a63.3,63.3,0,1,1,81,38.3Z" transform="translate(-96.6 -231)"/><path class="cls-15" d="M1459.5,920.7l-20.2-6.3a83.9,83.9,0,0,1,52.2-54.3,84.9,84.9,0,0,1,25.9-5l.6,21.2a63.5,63.5,0,0,0-58.5,44.4Z" transform="translate(-96.6 -231)"/><path class="cls-3" d="M1461.9,964.9l-19.4,8.4a48.7,48.7,0,0,1-2.1-5.3,84.2,84.2,0,0,1-1.1-53.6l20.2,6.3a63,63,0,0,0,.8,40.2C1460.8,962.3,1461.3,963.6,1461.9,964.9Z" transform="translate(-96.6 -231)"/><path class="cls-3" d="M1455.6,994.3a83.5,83.5,0,0,1-13.1-21l19.4-8.4a60.2,60.2,0,0,0,9.8,15.7Z" transform="translate(-96.6 -231)"/><g class="cls-53"><path class="cls-54" d="M3215,1542.2a6.7,6.7,0,0,0,.3.7Z" transform="translate(-96.6 -231)"/><path class="cls-54" d="M3454.3,1267.3l-2.6,27.2-.3,3H3244.9a22.8,22.8,0,0,1,1.7-3c1.5-2.5,3.2-5.1,5-7.7-.7-29.2,12.5-43.5,23.2-52.1s11.4-34.4,6.4-51.3-6.4-41.3-.6-54.6,36.2-38,72-21,17,72.2,17,72.2c-2.3,22.4-8.2,34.6-14.3,41.2-.3,3.8-1,14.5.7,23.1l5.6.9,2,.3c16.1,2.2,31,8.3,40.3,17.3l17.6,1.1C3433,1264.7,3444.1,1265.8,3454.3,1267.3Z" transform="translate(-96.6 -231)"/></g><polygon class="cls-3" points="2946.7 790 3108.1 790.8 3107.5 907.7 3107.4 932.3 3082.9 907.6 2946.2 907 2946.7 790"/><path class="cls-3" d="M3490,1358c-3.3-2.2-7.9-1.6-11-.9l1.1-8.2h-44l7,50.6h30l.6-4.8.7-4.5a18,18,0,0,0,11.9-4.7c4.7-4.4,7.4-11.4,7.4-19.3C3493.7,1361.5,3491.7,1359.2,3490,1358Zm-7,24a13.5,13.5,0,0,1-8,3.4l3.2-23c2.4-.8,6.9-1.9,9.1-.4.4.3,1.6,1.1,1.6,4.2C3488.9,1372.8,3486.8,1378.5,3483,1382Z" transform="translate(-96.6 -231)"/><path class="cls-3" d="M3473.1,1399.5h-30l-7-50.6h16.2s-5.8,45.6,20.8,50.6Z" transform="translate(-96.6 -231)"/><path class="cls-3" d="M3456.4,1314s-9.3,3.1-5.9,11.3,9.4,13.5,3.8,23.6c0,0,10.3-6.2,5.5-16.5S3452.1,1319.2,3456.4,1314Z" transform="translate(-96.6 -231)"/><path class="cls-3" d="M3469.6,1323.3s-6.8,2.3-4.2,8.3,6.8,9.9,2.7,17.3c0,0,7.6-4.6,4-12.1S3466.5,1327.1,3469.6,1323.3Z" transform="translate(-96.6 -231)"/><path class="cls-3" d="M3444.9,1323.3s-6.8,2.3-4.2,8.3,6.8,9.9,2.7,17.3c0,0,7.6-4.6,4-12.1S3441.8,1327.1,3444.9,1323.3Z" transform="translate(-96.6 -231)"/><polygon class="cls-11" points="3305.4 1540.4 3270.4 1307.1 3277.1 1306.1 3312.2 1539.3 3305.4 1540.4"/><polygon class="cls-11" points="3262.6 1540.4 3227.5 1307.1 3234.3 1306.1 3269.4 1539.3 3262.6 1540.4"/><polygon class="cls-11" points="3051.7 1540.4 3044.9 1539.3 3080 1306.1 3086.7 1307.1 3051.7 1540.4"/><path class="cls-52" d="M3377.9,1540.5l27.5-289s-48.1-6.3-77.1-4.7l-43.6,293.7Z" transform="translate(-96.6 -231)"/><rect class="cls-52" x="3188.1" y="1294.8" width="93.3" height="14.69"/><path class="cls-52" d="M3223.6,1528.7l-14.5-275.4s121.6-13.2,196.3-1.8Z" transform="translate(-96.6 -231)"/><path class="cls-20" d="M3320.8,1164.1s18.7-55-17.1-72.1-66.3,7.6-72,21-4.2,37.6.7,54.5,4.2,42.7-6.5,51.3-23.8,23-23.2,52.1c.4,18.1,71.2-46.2,71.2-46.2Z" transform="translate(-96.6 -231)"/><path class="cls-55" d="M3272.9,1756.6s-1.1,39,4.5,41.3,26.6-11.2,35.9-24.6-11.7-44.5-15.1-61.7c-1.4-7.2-17.8-20.1-25.7-16.4s-13.8,13.2-13.8,13.2S3278.9,1722.3,3272.9,1756.6Z" transform="translate(-96.6 -231)"/><path class="cls-56" d="M3258.7,1708.4s6.9,13.3,10.4,23.6,4.2,38.8,6.5,40.8,19.8-6.9,22.2-17.6-4.8-32-11.6-43.2-13.7-16.8-13.7-16.8S3260.4,1697.5,3258.7,1708.4Z" transform="translate(-96.6 -231)"/><polygon class="cls-55" points="3201.6 1480.6 3220.6 1508.3 3217 1510.7 3202.3 1489.4 3201.6 1480.6"/><path class="cls-56" d="M3230,1406s9.3,15.7,0,27.1-71.5,42.6-71.1,60.7,11.9,46.3,16,53.5,19.2,36.9,27.1,54.3,53.3,100.8,62.2,119.6,3.4-75.2,3.4-75.2l-45.5-133.2,106.2-103.4S3315.4,1380.9,3230,1406Z" transform="translate(-96.6 -231)"/><path class="cls-15" d="M3270.4,1229.6s-29.4,6.6-41.1,13.4-37.7,38.3-37.7,51.8,113.6,26.1,113.6,26.1l21.5,78.6s57.4-14,64.2-25.7-22.6-94.2-26.7-111.6-25.6-29.2-49.5-32.6A166.6,166.6,0,0,0,3270.4,1229.6Z" transform="translate(-96.6 -231)"/><path class="cls-21" d="M3340,1408.6s-2,13.5,3.4,19.1,30.7,38.9,17.3,71.5c-12.2,30-35.9,29.4-35.9,29.4H3288s10.7,53.9,7.2,89.4-19.6,116.7-19.9,120.8-15.6,16.9-20,10.4c0,0-.4-48.8-2.8-67.3s-12.6-92.2-15.7-103.1-21.1-44.1-21.1-47.5-17.7-56.9,20.9-70.6S3288.8,1408.9,3340,1408.6Z" transform="translate(-96.6 -231)"/><path class="cls-57" d="M3237,1786.9s-25.4,29.5-22.5,34.8,27.7,8.1,43.3,3.5,19-41.9,27.1-57.5c3.5-6.5-1.1-26.8-9.6-28.9s-19.1,1.6-19.1,1.6S3263.3,1763.9,3237,1786.9Z" transform="translate(-96.6 -231)"/><path class="cls-21" d="M3256.2,1740.4s-3,14.6-6.7,24.9-21.1,32.8-20.6,35.8,19.7,7.1,28.3.3,16.4-27.9,18.1-40.9,0-21.7,0-21.7S3264.4,1733,3256.2,1740.4Z" transform="translate(-96.6 -231)"/><polygon class="cls-57" points="3188.4 1536.7 3185.7 1570.1 3181.4 1569.8 3183.4 1544 3188.4 1536.7"/><path class="cls-20" d="M3360.7,1499.2c-11.5,30.4-35.9,29.4-35.9,29.4H3288s-15.3-24.3-52.8-28.4a108.9,108.9,0,0,0-28.3.6h-.4c-49.9,7.4-40.3,25.7-40.1,26.2-4.1-10.2-8.5-26.3-7.5-34.9,4.8-39.5,61.9-47.8,71.1-59.1s0-27.1,0-27.1c85.4-25.1,98.3,3.4,98.3,3.4,3.7-.5,13.3-6,17.4-6,0,0,4.3,9.3,7.3,17.7S3373.3,1466.3,3360.7,1499.2Z" transform="translate(-96.6 -231)"/><polygon class="cls-11" points="3228.7 1051 3241.4 1168.5 3075 1168.5 3062.4 1051 3228.7 1051"/><rect class="cls-11" x="3226.8" y="1157.9" width="27.8" height="10.57"/><rect class="cls-58" x="2967.7" y="1168.5" width="442.1" height="16"/><path class="cls-21" d="M3288.8,1101.4s37.3,11,32,62.7-29.7,49.1-32,49.5-31.2,2.3-40.3-60.5S3288.8,1101.4,3288.8,1101.4Z" transform="translate(-96.6 -231)"/><path class="cls-21" d="M3306.6,1204.1s-2,17.1,1.3,27.7-43.4,11-43.4,2.2,4.8-18.2.3-35.3S3306.6,1204.1,3306.6,1204.1Z" transform="translate(-96.6 -231)"/><path class="cls-20" d="M3279.2,1124.5s20.2,32.2,41.6,39.6c0,0,11.6-54-36.5-65.3s-40.5,54.6-36.9,72.1C3247.4,1170.9,3257.4,1145.1,3279.2,1124.5Z" transform="translate(-96.6 -231)"/><path class="cls-49" d="M3270.3,1206.2s14.8,15.4,33.7,1.6c0,0-1.6,9.9-15.2,11.1S3270.3,1206.2,3270.3,1206.2Z" transform="translate(-96.6 -231)"/><path class="cls-59" d="M3252,1119.6s10.7-20.6,28.7-21.6,28.7,14.7,28.7,14.7-7-17.5-28.7-17.5S3252,1119.6,3252,1119.6Z" transform="translate(-96.6 -231)"/><path class="cls-21" d="M3312.7,1229.4s-.7,35.8-29.1,36.8-22.5-34.3-22.5-34.3S3281.9,1223.5,3312.7,1229.4Z" transform="translate(-96.6 -231)"/><rect class="cls-3" x="3397.9" y="1184.5" width="11.8" height="367.36"/><rect class="cls-3" x="2967.7" y="1184.5" width="11.8" height="367.36"/></g></g></svg>