<svg width="380" height="457" viewBox="0 0 380 457" fill="none" xmlns="http://www.w3.org/2000/svg">
<path d="M375.055 93.157V154.751H288.468L285.348 93.5884L375.055 93.157Z" fill="#E0E0E0"/>
<path d="M285.348 93.5797V154.621H371.935V93.5797H285.348Z" fill="white"/>
<path d="M372.337 155.043H284.906V93.1487H372.31L372.337 155.043ZM285.76 154.208H371.521V94.0396H285.76V154.208Z" fill="#E0E0E0"/>
<path d="M362.553 101.166H294.725V147.043H362.553V101.166Z" fill="white"/>
<path d="M362.555 101.166H362.216H361.252H357.526L343.549 101.222L294.727 101.326L294.919 101.119C294.919 115.186 294.919 130.669 294.919 146.987L294.708 146.771H362.537L362.363 146.949C362.363 132.985 362.436 121.544 362.454 113.573C362.454 109.587 362.454 106.474 362.5 104.345C362.5 103.286 362.5 102.47 362.5 101.916C362.5 101.363 362.5 101.072 362.5 101.072C362.5 101.072 362.5 101.344 362.5 101.879C362.5 102.413 362.5 103.229 362.5 104.27C362.5 106.399 362.5 109.494 362.546 113.461C362.546 121.46 362.592 132.938 362.629 146.949V147.118H362.464L294.635 147.165H294.424V146.949C294.424 130.631 294.424 115.064 294.424 101.082V100.885H294.626L343.577 100.979L357.508 101.035H361.179H362.436L362.555 101.166Z" fill="#E0E0E0"/>
<path d="M285.348 93.4102C285.877 93.6626 286.376 93.9774 286.834 94.348C287.752 95.0044 288.927 95.9328 290.23 96.9925C291.533 98.0522 292.68 99.0651 293.488 99.8059C293.954 100.18 294.371 100.615 294.727 101.1C293.079 99.9321 291.489 98.6802 289.964 97.3489C288.343 96.1398 286.801 94.8241 285.348 93.4102Z" fill="#E0E0E0"/>
<path d="M371.934 93.5889C370.497 95.0166 368.964 96.3391 367.345 97.5464C365.825 98.8673 364.215 100.077 362.527 101.166C363.962 99.7368 365.496 98.4142 367.116 97.2088C368.63 95.8796 370.241 94.6695 371.934 93.5889Z" fill="#E0E0E0"/>
<path d="M371.861 154.629L362.207 146.639L371.861 154.629Z" fill="white"/>
<path d="M362.207 146.639C363.944 147.8 365.603 149.078 367.172 150.466C368.824 151.746 370.39 153.137 371.861 154.629C370.122 153.473 368.463 152.195 366.897 150.803C365.242 149.526 363.675 148.135 362.207 146.639Z" fill="#E0E0E0"/>
<path d="M285.348 154.63C286.752 153.208 288.258 151.894 289.854 150.701C291.359 149.394 292.953 148.2 294.626 147.127C293.217 148.542 291.711 149.852 290.12 151.048C288.615 152.357 287.021 153.555 285.348 154.63Z" fill="#E0E0E0"/>
<path d="M308.502 115.458V130.819H351.176V115.458H308.502Z" fill="#E0E0E0"/>
<path d="M135.696 58.6279C135.696 58.6279 135.622 58.6279 135.485 58.5622L134.87 58.3184L132.557 57.3806L124.077 53.6295L96.1694 41.2037L95.2058 40.7723H95.4077L68.0596 52.7198L59.8001 56.2647L57.5426 57.2024C57.2853 57.3231 57.0181 57.4204 56.7441 57.4932C56.9889 57.3469 57.2435 57.2184 57.5058 57.1087L59.7176 56.0771L67.977 52.3259L95.2609 40.2378L95.3618 40.1909L95.4628 40.2378L96.4263 40.6692L124.27 53.2356L132.695 57.0993L134.971 58.1684L135.558 58.4591C135.608 58.5121 135.654 58.5685 135.696 58.6279Z" fill="#E0E0E0"/>
<path d="M179.221 54.5393H0V191.672H179.221V54.5393Z" fill="#E0E0E0"/>
<path d="M173.632 60.9163H6.26758V186.036H173.632V60.9163Z" fill="#FAFAFA"/>
<path d="M43.2344 115.608C43.2344 115.608 43.4087 136.615 44.4549 143.02L70.2337 141.773C70.2337 141.773 67.9669 121.141 68.8388 115.608H43.2344Z" fill="#E0E0E0"/>
<path d="M55.9255 118.554C55.9255 118.554 55.9255 118.554 56.0265 118.554H56.3018C56.6606 118.54 57.0199 118.559 57.3755 118.61C57.943 118.697 58.4959 118.864 59.0182 119.107C59.7035 119.457 60.3099 119.948 60.7986 120.551C61.3922 121.293 61.8155 122.161 62.0375 123.092C62.2353 124.183 62.1401 125.307 61.7622 126.347C61.5683 126.908 61.3257 127.451 61.0372 127.969C60.7527 128.503 60.459 129.029 60.2113 129.61C59.6961 130.805 59.347 132.067 59.1742 133.361V133.445H59.0916L56.5495 133.492H53.879H53.7872V133.427C53.6759 132.141 53.2533 130.903 52.5575 129.826C52.2455 129.291 51.9059 128.785 51.5847 128.269C51.2635 127.753 50.9331 127.331 50.667 126.759C50.191 125.765 50.0491 124.637 50.2632 123.552C50.4099 122.615 50.7476 121.721 51.2543 120.926C51.695 120.29 52.2686 119.761 52.9337 119.379C53.4302 119.101 53.9612 118.893 54.5122 118.76C54.8589 118.672 55.2118 118.613 55.5676 118.582H55.8429C55.9071 118.582 55.9347 118.582 55.9347 118.582H55.8429H55.5676C55.2175 118.625 54.8709 118.694 54.5306 118.788C53.9879 118.933 53.4664 119.15 52.9796 119.435C52.3353 119.814 51.7831 120.336 51.3644 120.964C50.8869 121.749 50.5743 122.627 50.4467 123.543C50.2465 124.595 50.3883 125.685 50.8505 126.647C51.1318 127.159 51.4381 127.657 51.7682 128.138C52.0803 128.635 52.429 129.15 52.741 129.694C53.4586 130.799 53.894 132.069 54.0075 133.389L53.9157 133.286H56.5863H59.1283L59.0366 133.38C59.2169 132.069 59.5752 130.791 60.1011 129.582C60.3489 129 60.6518 128.447 60.9362 127.922C61.2284 127.417 61.4683 126.883 61.6521 126.328C62.0261 125.3 62.1119 124.186 61.8999 123.111C61.6924 122.203 61.2878 121.353 60.716 120.626C60.2437 120.032 59.6563 119.543 58.9907 119.191C58.4818 118.943 57.9411 118.769 57.3847 118.676C57.0322 118.62 56.6766 118.589 56.3201 118.582H55.9439L55.9255 118.554Z" fill="white"/>
<path d="M57.258 133.182C57.2561 133.154 57.2561 133.126 57.258 133.098V132.854C57.258 132.639 57.1754 132.32 57.1111 131.916C57.001 131.101 56.8266 129.91 56.7073 128.437C56.7073 128.071 56.7073 127.687 56.6431 127.284C56.5789 126.88 56.6431 126.458 56.6431 126.018C56.6561 125.565 56.7559 125.119 56.9368 124.705C57.1284 124.256 57.4792 123.897 57.9187 123.701C58.1531 123.601 58.4112 123.573 58.6609 123.621C58.9106 123.67 59.1408 123.792 59.3229 123.973C59.4174 124.067 59.4929 124.179 59.5449 124.303C59.5969 124.427 59.6243 124.56 59.6257 124.695C59.6172 124.968 59.524 125.231 59.3596 125.446C59.1976 125.669 58.9829 125.846 58.7355 125.961C58.4935 126.079 58.2374 126.164 57.9738 126.215C57.4396 126.332 56.8957 126.398 56.3494 126.412C55.8005 126.431 55.251 126.402 54.7067 126.327C54.4404 126.291 54.1807 126.215 53.9358 126.102C53.6907 125.991 53.4693 125.832 53.2842 125.633C53.0998 125.437 52.9699 125.194 52.908 124.93C52.8545 124.664 52.8867 124.388 52.9998 124.142C53.1083 123.901 53.3016 123.71 53.5412 123.607C53.7763 123.508 54.0402 123.508 54.2754 123.607C54.4978 123.713 54.6881 123.878 54.826 124.086C54.9549 124.285 55.0452 124.508 55.0922 124.742C55.1778 125.184 55.2239 125.633 55.2298 126.083C55.2298 126.946 55.3124 127.753 55.3491 128.493C55.4225 129.966 55.4776 131.157 55.5235 131.991C55.5235 132.395 55.5235 132.714 55.5235 132.929V133.173C55.5255 133.201 55.5255 133.229 55.5235 133.258C55.5195 133.23 55.5195 133.201 55.5235 133.173C55.5235 133.117 55.5235 133.032 55.5235 132.929C55.5235 132.826 55.5235 132.395 55.4592 131.991C55.4592 131.166 55.3491 129.966 55.2665 128.493C55.2665 127.762 55.1839 126.955 55.1289 126.083C55.1216 125.637 55.0786 125.191 55.0004 124.752C54.9483 124.528 54.8582 124.315 54.7342 124.123C54.6014 123.933 54.425 123.778 54.2203 123.673C54.0023 123.584 53.7593 123.584 53.5412 123.673C53.3187 123.766 53.1407 123.945 53.0456 124.17C52.9326 124.396 52.9002 124.654 52.9539 124.902C53.0137 125.152 53.1372 125.382 53.3118 125.567C53.6879 125.943 54.1752 126.18 54.6975 126.243C55.7734 126.38 56.8638 126.342 57.9279 126.13C58.1882 126.078 58.441 125.993 58.6804 125.877C58.9103 125.763 59.1113 125.596 59.2678 125.389C59.4233 125.189 59.5103 124.942 59.5156 124.686C59.5183 124.561 59.4952 124.438 59.4478 124.323C59.4003 124.208 59.3296 124.105 59.2403 124.02C59.0682 123.851 58.8519 123.736 58.6174 123.689C58.383 123.643 58.1404 123.666 57.9187 123.758C57.5146 123.95 57.1897 124.282 57.001 124.695C56.8236 125.104 56.7239 125.543 56.7073 125.989C56.7073 126.421 56.7073 126.843 56.7073 127.237C56.7073 127.631 56.7074 128.025 56.7624 128.4C56.8725 129.872 57.0377 131.054 57.1479 131.87C57.1479 132.282 57.2396 132.592 57.2672 132.807V133.051C57.2543 133.094 57.2512 133.139 57.258 133.182Z" fill="white"/>
<path d="M53.8613 133.323C53.8613 133.323 53.8613 133.651 53.9256 134.195C53.9898 134.739 53.999 135.592 54.0449 136.474V136.418L55.7794 138.462H55.6968L57.6974 138.349H57.6148L58.6151 137.102L59.1107 136.474V136.558C59.1107 135.358 59.0556 134.214 59.0281 133.182L59.1382 133.286H55.3939H53.9072C54.0262 133.274 54.1461 133.274 54.2651 133.286L55.3205 133.229L59.1382 133.079H59.2392V133.192C59.2392 134.233 59.3034 135.367 59.3309 136.568L58.8354 137.187L57.8351 138.434L55.8252 138.537H55.7702L54.0724 136.465C54.0724 135.527 54.0724 134.777 54.0724 134.12C53.9813 133.861 53.9107 133.594 53.8613 133.323Z" fill="white"/>
<path d="M59.0383 136.284L58.8456 136.2C58.6755 136.121 58.5008 136.052 58.3225 135.995C57.7335 135.784 57.1107 135.689 56.487 135.714C55.872 135.733 55.2654 135.866 54.6975 136.107C54.5245 136.177 54.356 136.258 54.1927 136.35L54 136.443C54.0497 136.392 54.109 136.35 54.1744 136.322C54.3337 136.221 54.4992 136.13 54.6699 136.051C55.2495 135.792 55.8727 135.649 56.5054 135.63C57.1306 135.617 57.753 135.721 58.3408 135.939C58.517 136.005 58.6887 136.083 58.8548 136.172C58.9192 136.204 58.9807 136.241 59.0383 136.284Z" fill="white"/>
<path d="M59.0381 135.468L58.8454 135.384C58.7261 135.328 58.5517 135.253 58.3223 135.169C57.1501 134.757 55.8701 134.797 54.7248 135.281C54.5046 135.375 54.3302 135.459 54.2109 135.524C54.0916 135.59 54.0365 135.627 54.0273 135.618L54.2017 135.496C54.3605 135.397 54.5261 135.31 54.6973 135.235C55.2754 134.971 55.8995 134.828 56.5327 134.814C57.1588 134.788 57.7834 134.893 58.3682 135.122C58.5479 135.187 58.7227 135.265 58.8913 135.356C58.9438 135.388 58.9929 135.426 59.0381 135.468Z" fill="white"/>
<path d="M58.9904 134.681C58.9904 134.681 58.917 134.681 58.7977 134.606C58.6784 134.531 58.504 134.475 58.2746 134.391C57.6842 134.186 57.0625 134.091 56.4392 134.11C55.8085 134.122 55.1857 134.255 54.6037 134.503C54.3835 134.596 54.2091 134.681 54.0898 134.746C54.0338 134.787 53.9718 134.818 53.9062 134.839L54.0806 134.718C54.2374 134.615 54.4033 134.527 54.5762 134.456C55.1546 134.192 55.7781 134.046 56.4116 134.026C57.037 134.012 57.6595 134.116 58.2471 134.335C58.4236 134.404 58.5953 134.485 58.761 134.578L58.9904 134.681Z" fill="white"/>
<path d="M14.5195 81.238C14.5195 81.238 14.6939 102.245 15.7401 108.65L41.5188 107.412C41.5188 107.412 39.2521 86.7804 40.1239 81.238H14.5195Z" fill="#EBEBEB"/>
<path d="M36.2033 90.0627C33.3422 90.4953 30.4587 90.7574 27.5676 90.8478C24.6876 91.1128 21.795 91.2064 18.9043 91.1282C21.7649 90.6894 24.6486 90.4241 27.54 90.3338C30.4203 90.0743 33.3129 89.9838 36.2033 90.0627Z" fill="white"/>
<path d="M36.2502 94.5167C33.3883 94.9432 30.5052 95.2053 27.6144 95.3018C24.7342 95.5612 21.8416 95.6517 18.9512 95.5729C21.8123 95.1403 24.6958 94.8781 27.5869 94.7878C30.4668 94.5227 33.3597 94.4322 36.2502 94.5167Z" fill="white"/>
<path d="M31.8641 98.8776C30.2511 99.238 28.6056 99.4259 26.9543 99.4384C25.3097 99.6087 23.6524 99.6087 22.0078 99.4384C23.6247 99.0832 25.2728 98.8953 26.9268 98.8776C28.5683 98.7075 30.2226 98.7075 31.8641 98.8776Z" fill="white"/>
<path d="M13.2617 143.038C13.2617 143.038 13.4361 164.035 14.4823 170.45L40.261 169.203C40.261 169.203 37.9942 148.571 38.8661 143.038H13.2617Z" fill="#EBEBEB"/>
<path d="M35.0197 151.863C32.1579 152.29 29.2748 152.552 26.384 152.648C23.5037 152.907 20.6112 152.998 17.7207 152.919C20.5818 152.486 23.4653 152.224 26.3564 152.134C29.236 151.863 32.1292 151.773 35.0197 151.863Z" fill="white"/>
<path d="M35.0295 156.308C32.1683 156.74 29.2848 157.002 26.3937 157.093C23.5138 157.358 20.6209 157.449 17.7305 157.364C20.5916 156.932 23.4751 156.67 26.3662 156.579C29.2465 156.32 32.139 156.229 35.0295 156.308Z" fill="white"/>
<path d="M30.6415 160.678C29.0276 161.032 27.3826 161.22 25.7317 161.238C24.0869 161.406 22.4299 161.406 20.7852 161.238C22.402 160.884 24.0503 160.699 25.7041 160.687C27.3454 160.514 28.9996 160.511 30.6415 160.678Z" fill="white"/>
<path d="M83.75 86.8081L86.3013 147.389L160.315 148.299L156.993 87.6052L83.75 86.8081Z" fill="#EBEBEB"/>
<path d="M156.417 86.3767H82.8984V143.104H156.417V86.3767Z" fill="#F5F5F5"/>
<path d="M156.426 143.104C156.426 143.104 156.426 142.738 156.426 142.044C156.426 141.35 156.426 140.337 156.426 139.024C156.426 136.361 156.426 132.46 156.381 127.546C156.381 117.652 156.316 103.501 156.27 86.3767L156.472 86.583H82.963L83.2108 86.3298C83.2108 106.727 83.2108 126.045 83.2108 143.057L82.9814 142.822L136.007 142.935L151.085 143.001H155.096H156.133H156.491H156.16H155.151H151.186L136.154 143.057L82.9814 143.169H82.752V142.935C82.752 125.923 82.752 106.605 82.752 86.2079V85.9453H83.0089H156.518H156.729V86.161C156.683 103.341 156.647 117.539 156.619 127.424C156.619 132.347 156.619 136.202 156.564 138.855C156.564 140.15 156.564 141.144 156.564 141.838C156.564 142.532 156.426 143.104 156.426 143.104Z" fill="#E0E0E0"/>
<path d="M121.56 98.3904H91.7617V136.718H121.56V98.3904Z" fill="#F5F5F5"/>
<path d="M121.552 136.718C121.548 136.652 121.548 136.587 121.552 136.521V135.977C121.552 135.471 121.552 134.777 121.552 133.886C121.552 132.01 121.552 129.375 121.488 126.018C121.488 119.275 121.424 109.728 121.378 98.3906L121.598 98.625H91.8C91.7449 98.6813 92.2772 98.1374 92.0569 98.3718V100.998C92.0569 101.879 92.0569 102.751 92.0569 103.623V108.791C92.0569 112.195 92.0569 115.515 92.0569 118.731C92.0569 125.174 92.0569 131.204 92.0569 136.68L91.8459 136.465L113.421 136.577L119.478 136.634H121.084C121.452 136.634 121.644 136.634 121.644 136.634C121.473 136.647 121.301 136.647 121.13 136.634H119.561L113.559 136.69L91.8459 136.802H91.6348V136.587C91.6348 131.11 91.6348 125.08 91.6348 118.637C91.6348 115.421 91.6348 112.073 91.6348 108.697V98.4093L91.8917 98.1467H121.69H121.92V98.3718C121.92 109.775 121.837 119.369 121.809 126.149C121.809 129.488 121.809 132.123 121.745 133.961C121.745 134.836 121.745 135.521 121.745 136.015C121.745 136.221 121.745 136.399 121.745 136.53C121.745 136.662 121.552 136.727 121.552 136.718Z" fill="#E0E0E0"/>
<path d="M150.01 89.6218H92.9004V95.1451H150.01V89.6218Z" fill="#F5F5F5"/>
<path d="M150.001 95.1458C149.988 95.0212 149.988 94.8954 150.001 94.7707C150.001 94.4987 150.001 94.1424 150.001 93.6922C150.001 92.7544 150.001 91.3758 149.946 89.6221L150.047 89.7253C140.41 89.8191 118.459 89.8847 92.9368 89.8847L93.1938 89.6221V95.1271L92.9368 94.8645L133.39 94.977L145.541 95.0521H148.844H149.707H150.019H149.744H148.909H145.66L133.573 95.1271L92.9001 95.2302H92.6523V89.6409L92.9001 89.3877C118.422 89.3877 140.374 89.444 150.01 89.5377H150.111V89.6409C150.111 91.4227 150.092 92.8013 150.056 93.7766C150.056 94.2174 150.056 94.555 150.056 94.827C150.056 95.0989 150.001 95.1552 150.001 95.1458Z" fill="#E0E0E0"/>
<path d="M150.019 98.3904H125.213V121.488H150.019V98.3904Z" fill="#F5F5F5"/>
<path d="M150.003 121.488C149.992 121.341 149.992 121.194 150.003 121.047V119.79C150.003 118.665 150.003 117.08 149.948 115.101C149.948 111.041 149.883 105.301 149.837 98.4087L150.058 98.6337H125.279L125.527 98.3805V110.572C125.527 114.445 125.527 118.074 125.527 121.507L125.224 121.235L143.12 121.347L148.195 121.413H149.544H150.03C149.887 121.426 149.742 121.426 149.599 121.413H148.286L143.257 121.469L125.224 121.591H125.004V121.357C125.004 117.971 125.004 114.295 125.004 110.422V104.598C125.004 103.585 125.004 102.554 125.004 101.522V98.3993L125.261 98.1367H150.039H150.25V98.3524C150.205 105.301 150.168 111.088 150.14 115.233C150.14 117.202 150.14 118.768 150.085 119.922C150.085 120.422 150.085 120.825 150.085 121.131C150.071 121.253 150.043 121.373 150.003 121.488Z" fill="#E0E0E0"/>
<path d="M150.019 125.108H125.213V136.717H150.019V125.108Z" fill="#F5F5F5"/>
<path d="M150.001 136.718C149.981 136.437 149.981 136.155 150.001 135.874V133.548C150.001 131.494 149.937 128.634 149.901 125.108L150.084 125.296L125.306 125.371C125.076 125.605 125.609 125.052 125.553 125.117V131.072C125.553 133.014 125.553 134.899 125.553 136.699L125.315 136.455L143.054 136.568L148.221 136.643H149.616H150.121C149.971 136.656 149.821 136.656 149.671 136.643H148.331L143.21 136.709L125.315 136.821H125.076V136.577C125.076 134.777 125.076 132.892 125.076 130.951C125.076 130.013 125.076 129 125.076 127.996V124.996C125.021 124.996 125.563 124.499 125.333 124.733L150.112 124.799H150.295V124.977C150.249 128.55 150.222 131.457 150.194 133.529C150.194 134.467 150.194 135.246 150.148 135.818C150.123 136.121 150.074 136.422 150.001 136.718Z" fill="#E0E0E0"/>
<path d="M120.826 98.4551C111.603 111.481 100.985 123.7 91.7617 136.717L120.826 98.4551Z" fill="white"/>
<path d="M91.7617 136.718C91.8227 136.565 91.9063 136.422 92.0095 136.296L92.7804 135.123C93.4687 134.11 94.4873 132.676 95.763 130.922C98.3326 127.396 101.994 122.632 106.097 117.427C110.199 112.222 113.906 107.496 116.54 104.035L119.642 99.9373L120.496 98.8213C120.697 98.5775 120.808 98.4462 120.826 98.4555C120.764 98.6109 120.681 98.7562 120.578 98.8869C120.367 99.2058 120.119 99.5903 119.807 100.05C119.119 101.063 118.1 102.497 116.825 104.26C114.264 107.777 110.593 112.541 106.491 117.755C102.389 122.969 98.6813 127.677 96.0475 131.138L92.9456 135.245C92.5969 135.686 92.3215 136.052 92.0921 136.352C91.8627 136.652 91.7801 136.727 91.7617 136.718Z" fill="#E0E0E0"/>
<path d="M121.551 136.717C121.441 136.811 114.687 128.277 106.455 117.718C98.223 107.158 91.6429 98.4837 91.7714 98.3899C91.8999 98.2961 98.6359 106.83 106.868 117.399C115.1 127.968 121.671 136.633 121.551 136.717Z" fill="#E0E0E0"/>
<path d="M86.3045 98.4744C86.3045 99.4167 86.0311 100.338 85.5188 101.121C85.0065 101.905 84.2784 102.515 83.4265 102.876C82.5747 103.236 81.6373 103.331 80.733 103.147C79.8286 102.963 78.9979 102.509 78.3459 101.843C77.6939 101.177 77.2499 100.328 77.0701 99.4038C76.8902 98.4797 76.9825 97.5218 77.3353 96.6513C77.6882 95.7808 78.2857 95.0368 79.0524 94.5133C79.8191 93.9899 80.7204 93.7104 81.6425 93.7104C82.8789 93.7104 84.0647 94.2124 84.939 95.1058C85.8133 95.9992 86.3045 97.2109 86.3045 98.4744Z" fill="#E0E0E0"/>
<path d="M162.556 86.9111C162.556 87.8533 162.283 88.7744 161.771 89.5578C161.258 90.3412 160.53 90.9518 159.679 91.3123C158.827 91.6729 157.889 91.7673 156.985 91.5834C156.081 91.3996 155.25 90.9459 154.598 90.2797C153.946 89.6134 153.502 88.7646 153.322 87.8405C153.142 86.9164 153.234 85.9585 153.587 85.088C153.94 84.2176 154.538 83.4735 155.304 82.9501C156.071 82.4266 156.972 82.1472 157.894 82.1472C159.131 82.1472 160.317 82.6491 161.191 83.5425C162.065 84.4359 162.556 85.6476 162.556 86.9111Z" fill="#E0E0E0"/>
<path d="M297.845 417.257V438.611H294.357V440.937H297.845V455.229H363.067V442.221H358.24V439.408H363.067V435.16H365.215V433.228H362.663V417.285L297.845 417.257Z" fill="#F5F5F5"/>
<path d="M345.752 417.323V454.985H363.069V441.977H358.242V439.389L363.069 439.474V435.225H365.263L365.217 433.031L362.666 432.965V417.257L345.752 417.323Z" fill="#E0E0E0"/>
<path d="M346.981 440.627C346.981 440.757 335.18 440.86 320.624 440.86C306.069 440.86 294.268 440.757 294.268 440.627C294.268 440.496 306.069 440.393 320.624 440.393C335.18 440.393 346.981 440.496 346.981 440.627Z" fill="#E0E0E0"/>
<path d="M346.981 438.46C346.981 438.591 335.18 438.694 320.624 438.694C306.069 438.694 294.268 438.591 294.268 438.46C294.268 438.329 306.069 438.217 320.624 438.217C335.18 438.217 346.981 438.329 346.981 438.46Z" fill="#E0E0E0"/>
<path d="M350.366 432.58C350.366 432.711 338.564 432.814 324.009 432.814C309.454 432.814 297.652 432.711 297.652 432.58C297.652 432.449 309.454 432.346 324.009 432.346C338.564 432.346 350.366 432.487 350.366 432.58Z" fill="#E0E0E0"/>
<path d="M350.698 448.523C350.698 448.653 338.896 448.766 324.341 448.766C309.786 448.766 297.975 448.653 297.975 448.523C297.975 448.392 309.776 448.289 324.341 448.289C338.905 448.289 350.698 448.401 350.698 448.523Z" fill="#E0E0E0"/>
<path d="M100.921 349.503H150.68C152.359 349.503 153.97 348.821 155.158 347.608C156.345 346.394 157.012 344.748 157.012 343.032V327.362C157.012 325.928 156.736 324.509 156.199 323.184C155.662 321.86 154.875 320.657 153.883 319.643C152.892 318.629 151.714 317.825 150.418 317.277C149.122 316.728 147.733 316.446 146.33 316.446H100.545L100.921 349.503Z" fill="#EBEBEB"/>
<path d="M149.845 359.358H52.0073C50.735 359.348 49.518 358.825 48.6209 357.903C47.7238 356.981 47.2192 355.735 47.2168 354.435C47.2192 353.127 47.7286 351.874 48.6333 350.949C49.5381 350.025 50.7645 349.504 52.044 349.502H149.845C151.124 349.504 152.349 350.025 153.253 350.95C154.156 351.875 154.663 353.128 154.663 354.435C154.663 355.74 154.156 356.993 153.252 357.916C152.349 358.839 151.123 359.358 149.845 359.358Z" fill="#EBEBEB"/>
<path d="M32.0642 218.24L85.8884 217.302L120.055 349.259L47.2157 349.962L19.6841 234.295C19.2273 232.381 19.2027 230.387 19.6121 228.462C20.0215 226.537 20.8543 224.733 22.0472 223.186C23.2402 221.639 24.7621 220.39 26.4976 219.533C28.2331 218.676 30.1367 218.234 32.0642 218.24Z" fill="#E0E0E0"/>
<path d="M58.8814 359.358L42.7754 454.994H47.1896L68.3614 359.358H58.8814Z" fill="#EBEBEB"/>
<path d="M96.8479 359.358L79.7324 454.994H84.1467L106.328 359.358H96.8479Z" fill="#E0E0E0"/>
<path d="M138.843 359.358L157.931 454.994H153.517L129.354 359.358H138.843Z" fill="#EBEBEB"/>
<path d="M79.7324 217.265L106.346 349.362H126.775L105.438 232.644C104.655 228.326 102.418 224.423 99.1139 221.614C95.8099 218.804 91.6477 217.266 87.3495 217.265H79.7324Z" fill="#EBEBEB"/>
<path d="M380 455.518C380 455.649 295.102 455.761 190.39 455.761C85.6783 455.761 0.761719 455.649 0.761719 455.518C0.761719 455.387 85.6416 455.275 190.39 455.275C295.139 455.275 380 455.378 380 455.518Z" fill="#263238"/>
<path d="M139.474 455.792H69.3047L74.6091 403.594L139.474 403.163V455.792Z" fill="#F8775B"/>
<g opacity="0.4">
<path opacity="0.4" d="M139.474 455.792H69.3047L74.6091 403.594L139.474 403.163V455.792Z" fill="black"/>
</g>
<path d="M149.708 403.163H79.5391V455.782H149.708V403.163Z" fill="#F8775B"/>
<g opacity="0.2">
<path opacity="0.2" d="M149.708 403.163H79.5391V455.782H149.708V403.163Z" fill="black"/>
</g>
<path d="M150.293 428.642C150.293 428.773 134.508 428.885 115.043 428.885C95.5785 428.885 79.7754 428.773 79.7754 428.642C79.7754 428.511 95.5602 428.39 115.043 428.39C134.527 428.39 150.293 428.502 150.293 428.642Z" fill="#263238"/>
<path d="M92.0355 433.706C91.7173 431.087 91.7173 428.438 92.0355 425.819C92.3537 428.438 92.3537 431.087 92.0355 433.706Z" fill="#263238"/>
<path d="M140.823 433.426C140.504 431.089 140.504 428.719 140.823 426.383C141.141 428.719 141.141 431.089 140.823 433.426Z" fill="#263238"/>
<path d="M125.368 403.435C125.368 403.435 125.368 402.863 125.202 401.878C124.958 400.483 124.426 399.156 123.642 397.986C122.486 396.25 120.882 394.874 119.008 394.01C116.699 392.971 114.187 392.487 111.666 392.594C109.13 392.615 106.627 393.187 104.324 394.273C102.46 395.163 100.847 396.521 99.6348 398.221C98.8224 399.369 98.2392 400.669 97.9186 402.047C97.6984 403.032 97.6892 403.594 97.6433 403.594C97.6293 403.457 97.6293 403.319 97.6433 403.182C97.6446 402.788 97.6814 402.396 97.7535 402.009C98.0108 400.578 98.5646 399.219 99.3778 398.024C100.587 396.238 102.232 394.806 104.15 393.869C106.489 392.736 109.041 392.134 111.629 392.106C114.221 391.997 116.802 392.511 119.164 393.607C121.093 394.523 122.731 395.976 123.89 397.799C124.675 399.016 125.175 400.403 125.349 401.85C125.383 402.24 125.383 402.632 125.349 403.022C125.378 403.158 125.385 403.297 125.368 403.435Z" fill="#263238"/>
<path d="M99.0497 200.195C102.403 198.586 106.173 198.119 109.805 198.864C111.76 199.192 113.797 199.801 115.119 201.283C116.44 202.765 116.697 205.419 115.174 206.703C114.191 207.384 113.006 207.692 111.824 207.576C108.979 207.576 105.832 207.032 103.565 208.776C102.271 209.77 101.408 211.43 99.894 211.917C99.1192 212.1 98.3076 212.02 97.581 211.69C96.8545 211.36 96.2524 210.798 95.8652 210.089C95.1301 208.644 94.9659 206.965 95.4063 205.4C95.5807 204.304 96.0002 203.265 96.6321 202.362C97.2641 201.459 98.0914 200.718 99.0497 200.195Z" fill="#F8775B"/>
<path d="M91.5624 185.407C93.563 188.332 97.445 187.366 99.2529 185.585C101.061 183.803 101.813 181.215 102.511 178.758C104.089 173.131 105.686 167.223 104.511 161.493C104.226 159.758 103.48 158.136 102.355 156.804C101.784 156.149 101.054 155.658 100.239 155.382C99.4241 155.105 98.5524 155.052 97.7111 155.228C95.7472 155.754 94.5266 157.714 93.6456 159.589C91.0521 165.1 89.6945 171.133 89.6719 177.248C89.6719 180.061 89.9839 183.071 91.5624 185.416" fill="#F8775B"/>
<path d="M86.0637 189.597C87.0926 188.227 87.7777 186.62 88.0592 184.917C88.3407 183.213 88.2102 181.466 87.6789 179.826C86.5909 176.532 84.6309 173.61 82.0166 171.386C79.053 168.704 75.6051 166.639 71.8666 165.309C70.4127 164.703 68.8462 164.431 67.278 164.512C66.4989 164.557 65.7426 164.798 65.0754 165.211C64.4082 165.625 63.8505 166.199 63.4511 166.884C62.3773 168.966 63.4511 171.489 64.5064 173.543C66.4611 177.173 68.6919 180.641 71.1783 183.915C73.1697 186.55 75.464 189.147 78.52 190.329C81.576 191.511 84.733 191.379 86.3482 189.222" fill="#F8775B"/>
<path d="M91.4235 229.454C91.5253 229.017 91.5867 228.571 91.6071 228.122C91.6988 227.185 91.809 225.947 91.9466 224.503C92.1249 222.721 92.3914 220.949 92.745 219.195C93.207 217.057 93.8393 214.962 94.6355 212.93C95.4101 210.897 96.4638 208.987 97.765 207.257C98.8254 205.847 100.18 204.697 101.73 203.89C102.769 203.359 103.884 202.998 105.033 202.821C105.47 202.804 105.904 202.742 106.327 202.633C105.888 202.585 105.445 202.585 105.006 202.633C103.805 202.737 102.631 203.055 101.537 203.571C99.9043 204.358 98.472 205.52 97.352 206.966C95.9957 208.719 94.9038 210.669 94.1124 212.752C93.3225 214.817 92.7084 216.947 92.277 219.12C91.9414 220.898 91.7116 222.696 91.5887 224.503C91.4786 226.04 91.4327 227.316 91.4143 228.141C91.372 228.578 91.3751 229.018 91.4235 229.454Z" fill="#263238"/>
<path d="M91.6622 226.669C91.6896 226.464 91.6896 226.256 91.6622 226.05V224.287C91.6622 222.768 91.6622 220.536 91.7356 217.826C91.8641 212.359 92.3321 206.488 93.2132 198.198C94.0575 190.414 95.1863 181.318 96.3793 175.447C96.6363 174.106 96.8932 172.906 97.1318 171.846C97.3704 170.786 97.5632 169.877 97.7559 169.136C97.9486 168.395 98.0495 167.879 98.1597 167.429C98.2168 167.231 98.2507 167.026 98.2606 166.82C98.1662 167.003 98.0953 167.199 98.0496 167.401L97.554 169.08C97.3337 169.811 97.1043 170.721 96.8473 171.78C96.5904 172.84 96.2875 174.031 96.0122 175.372C94.5315 182.343 93.4194 189.389 92.6809 196.482C91.7632 204.781 91.3961 212.34 91.3594 217.817C91.3594 220.555 91.3594 222.768 91.4511 224.297C91.4511 225.009 91.5246 225.591 91.5521 226.06C91.57 226.266 91.6068 226.47 91.6622 226.669Z" fill="#263238"/>
<path d="M91.6982 212.087C91.7502 211.463 91.7502 210.836 91.6982 210.212C91.6339 209.03 91.4687 207.323 91.1475 205.232C90.7535 202.784 90.2234 200.36 89.5599 197.973C88.7858 195.036 87.7917 192.164 86.5865 189.383C84.5292 184.254 81.5749 179.551 77.8681 175.504C77.2263 174.808 76.5395 174.156 75.8124 173.553C75.5004 173.281 75.2251 173.009 74.8947 172.794L74.0963 172.231C73.6181 171.876 73.1116 171.562 72.582 171.293C74.3296 172.69 75.988 174.2 77.5469 175.813C81.1321 179.896 84.0092 184.574 86.0542 189.646C87.2327 192.413 88.2291 195.258 89.0368 198.161C89.7197 200.524 90.2833 202.922 90.7254 205.344C91.1017 207.417 91.3127 209.096 91.4412 210.277C91.4833 210.886 91.5692 211.491 91.6982 212.087Z" fill="#263238"/>
<path d="M77.916 237.81L79.3385 257.822H104.502L105.934 237.81H77.916Z" fill="#263238"/>
<path d="M108.933 229.914H75.4824V237.801H108.933V229.914Z" fill="#263238"/>
<path d="M75.4824 257.053V259.231H77.0517H108.383V257.053H75.4824Z" fill="#455A64"/>
<path d="M78.5945 263.093L77.0527 259.239H107.181L105.383 263.093H78.5945Z" fill="#455A64"/>
<path d="M105.466 244.347C105.466 244.347 105.466 244.412 105.346 244.534L104.97 245.041L103.511 246.916L103.438 247.01L103.382 246.916L99.7758 241.824H99.9869L96.4353 246.954L96.3252 247.123L96.2059 246.963C94.8936 245.378 93.4527 243.653 92.0027 241.852H92.2414L92.0119 242.152L88.2493 246.963L88.1208 247.123L88.0107 246.954L84.4591 241.833H84.6702L80.3018 246.916L80.2192 247.01L80.1641 246.907L78.7968 244.553L78.448 243.934C78.4016 243.865 78.3645 243.789 78.3379 243.709C78.3929 243.77 78.4421 243.836 78.4847 243.906L78.8702 244.506L80.311 246.813H80.1733L84.4683 241.665L84.5784 241.533L84.6793 241.674C85.7623 243.221 86.9645 244.947 88.2584 246.776H88.0107L91.7641 241.946L91.9936 241.655L92.1129 241.496L92.2414 241.646C93.7097 243.446 95.123 245.181 96.4353 246.776H96.1967L99.7758 241.665L99.886 241.515L99.9869 241.665L103.511 246.813H103.382C104.025 246.035 104.539 245.407 104.906 244.938L105.319 244.459C105.363 244.416 105.413 244.378 105.466 244.347Z" fill="#E0E0E0"/>
<path d="M106.282 237.679C106.282 237.763 99.9773 237.837 92.2042 237.837C84.4311 237.837 78.1172 237.763 78.1172 237.679C78.1172 237.595 84.4219 237.52 92.1858 237.52C99.9497 237.52 106.282 237.585 106.282 237.679Z" fill="#455A64"/>
<path d="M107.557 259.453C107.557 259.547 100.702 259.612 92.2496 259.612C83.7974 259.612 76.9512 259.547 76.9512 259.453C76.9512 259.36 83.7974 259.294 92.2496 259.294C100.702 259.294 107.557 259.369 107.557 259.453Z" fill="#263238"/>
<path d="M237.736 263.535H311.41V259.877H237.736V263.535Z" fill="#263238"/>
<path d="M322.827 263.534L336.648 210.624H279.116L266.607 263.534H322.827Z" fill="#263238"/>
<path d="M270.059 259.526H321.442L333.409 213.067H281.75L270.059 259.526Z" fill="#455A64"/>
<path d="M321.798 260.02H269.488L281.419 212.615H334.022L321.798 260.02ZM270.645 259.082H321.119L332.838 213.553H282.153L270.645 259.082Z" fill="#263238"/>
<path d="M89.6152 273.812H85.8984V455.331H89.6152V273.812Z" fill="#455A64"/>
<path d="M93.3418 274.329H89.625V455.322H93.3418V274.329Z" fill="#263238"/>
<path d="M318.834 273.812H315.117V455.331H318.834V273.812Z" fill="#455A64"/>
<path d="M322.553 274.329H318.836V455.322H322.553V274.329Z" fill="#263238"/>
<path d="M374.467 263.263H42.7754V278.155H374.467V263.263Z" fill="#455A64"/>
<path d="M316.982 278.154H192.566V302.8H316.982V278.154Z" fill="#455A64"/>
<path d="M260.321 288.771C260.321 289.327 260.159 289.871 259.857 290.334C259.554 290.796 259.124 291.157 258.621 291.37C258.118 291.583 257.565 291.638 257.031 291.53C256.496 291.421 256.006 291.153 255.621 290.76C255.236 290.366 254.974 289.865 254.867 289.319C254.761 288.774 254.816 288.208 255.024 287.694C255.232 287.18 255.585 286.741 256.038 286.431C256.491 286.122 257.023 285.957 257.568 285.957C258.298 285.957 258.998 286.254 259.514 286.781C260.031 287.309 260.321 288.024 260.321 288.771Z" fill="#263238"/>
<path d="M344.083 278.154C344.083 278.285 300.95 278.397 247.814 278.397C194.678 278.397 151.545 278.285 151.545 278.154C151.545 278.024 194.678 277.911 247.814 277.911C300.95 277.911 344.083 278.024 344.083 278.154Z" fill="#263238"/>
<path d="M229.272 102.967C229.768 102.967 236.476 104.111 236.476 104.111L245.553 115.796L246.92 118.009L234.678 126.008L229.272 117.831L224.684 114.783C225.367 114.25 226.18 113.919 227.035 113.828C227.89 113.737 228.753 113.889 229.529 114.267C231.338 115.044 233.284 115.434 235.247 115.411L233.631 110.722L228.657 109.709L229.272 102.967Z" fill="#EB996E"/>
<path d="M229.843 94.7885C230.033 94.7375 230.232 94.7281 230.426 94.7607C230.62 94.7933 230.805 94.8673 230.97 94.9778C231.134 95.0884 231.274 95.233 231.38 95.4023C231.486 95.5716 231.557 95.7619 231.586 95.9607C232.33 100.753 234.578 115.176 235.257 119.405C235.314 119.742 235.246 120.089 235.066 120.377C234.886 120.665 234.607 120.874 234.284 120.962L223.483 124.048C223.296 124.102 223.101 124.114 222.909 124.084C222.718 124.053 222.535 123.981 222.373 123.871C222.212 123.761 222.076 123.617 221.974 123.449C221.873 123.28 221.808 123.091 221.785 122.894L218.83 98.9523C218.786 98.6019 218.869 98.2471 219.063 97.9551C219.258 97.663 219.55 97.4539 219.885 97.3674L229.843 94.7885Z" fill="#263238"/>
<path d="M222.594 121.094L233.607 117.953L230.688 98.0337C230.649 97.7654 230.555 97.5085 230.413 97.28C230.27 97.0514 230.081 96.8563 229.859 96.7075C229.637 96.5587 229.387 96.4596 229.125 96.4166C228.863 96.3736 228.595 96.3878 228.339 96.4582L219.52 98.8496L222.594 121.094Z" fill="#EBEBEB"/>
<path d="M233.376 106.521L228.43 110.272C228.43 110.272 228.843 111.603 229.595 111.697C231.198 111.483 232.782 111.138 234.331 110.665L233.376 106.521Z" fill="#EB996E"/>
<path d="M232.778 103.491L227.593 105.817C227.593 105.817 227.263 107.542 229.199 107.299L227.465 108.574C227.465 108.574 227.896 109.343 230.062 109.437C232.228 109.531 234.329 106.455 234.329 106.455L232.778 103.491Z" fill="#EB996E"/>
<path d="M237.928 109.39C237.928 109.456 237.294 109.334 236.606 108.677C236.227 108.315 235.829 107.973 235.413 107.655C235.18 107.48 234.906 107.368 234.618 107.332C234.33 107.296 234.038 107.336 233.77 107.449C232.331 108.296 230.827 109.024 229.273 109.625C230.616 108.583 232.069 107.699 233.605 106.989C233.957 106.843 234.341 106.798 234.715 106.858C235.047 106.938 235.359 107.084 235.633 107.289C236.063 107.628 236.456 108.011 236.808 108.434C237.159 108.779 237.533 109.098 237.928 109.39Z" fill="#D1734A"/>
<path d="M236.909 122.594C236.02 121.497 235.468 120.157 235.321 118.741C235.174 117.325 235.439 115.896 236.083 114.633C235.832 115.967 235.736 117.327 235.798 118.684C236.014 120.028 236.387 121.341 236.909 122.594Z" fill="#D1734A"/>
<path d="M236.268 105.825C236.203 105.881 235.928 105.478 235.267 105.263C234.384 105.011 233.438 105.122 232.634 105.572C231.661 106.049 230.798 106.658 230.11 106.948C229.422 107.238 228.935 107.304 228.926 107.248C228.917 107.191 229.33 107.023 229.954 106.639C230.578 106.255 231.385 105.637 232.441 105.132C232.939 104.878 233.482 104.728 234.038 104.692C234.501 104.664 234.963 104.751 235.387 104.945C236.075 105.291 236.268 105.806 236.268 105.825Z" fill="#D1734A"/>
<path d="M235.834 139.053L262.806 156.749L255.657 177.643C255.657 177.643 237.201 171.819 237.541 171.21C237.881 170.6 235.834 139.053 235.834 139.053Z" fill="#F8775B"/>
<path d="M228.86 421.871L224.611 441.837C224.611 441.837 243.048 452.949 242.617 456.71L204.439 449.695L209.799 418.307L228.86 421.871Z" fill="#263238"/>
<path d="M204.439 449.695L205.1 446.553L241.46 454.459C241.46 454.459 243.02 455.528 242.617 456.71L204.439 449.695Z" fill="#455A64"/>
<path d="M185.436 424.065L184.802 444.481C184.802 444.481 204.91 451.983 205.148 455.781L166.356 455.959L166.062 424.074L185.436 424.065Z" fill="#263238"/>
<g opacity="0.6">
<path opacity="0.6" d="M166.354 455.96L166.445 452.743L203.604 453.784C203.604 453.784 205.338 454.544 205.145 455.782L166.354 455.96Z" fill="#455A64"/>
</g>
<path d="M191.06 89.2184L195.015 136.108L217.958 134.232C218.096 131.494 217.903 120.897 217.903 120.897C217.903 120.897 227.456 119.378 227.576 109.643C227.631 104.898 226.97 95.1077 226.273 86.2831C225.913 81.5723 223.761 77.1932 220.278 74.0849C216.795 70.9766 212.259 69.3867 207.643 69.6561C205.286 69.7965 202.981 70.4179 200.863 71.4837C198.745 72.5494 196.857 74.0379 195.312 75.8614C193.766 77.6848 192.593 79.8061 191.863 82.1002C191.133 84.3943 190.86 86.8147 191.06 89.2184Z" fill="#EB996E"/>
<path d="M217.912 120.719C213.502 120.801 209.167 119.541 205.459 117.099C205.459 117.099 208.405 124.123 217.931 123.242L217.912 120.719Z" fill="#D1734A"/>
<path d="M201.394 78.5179H201.339C199.83 79.7515 198.844 81.5314 198.586 83.4882V83.6852C198.21 86.4986 198.283 89.3119 197.879 92.1253C197.475 94.9387 196.539 97.7521 194.52 99.6276C193.694 100.415 192.235 100.959 191.556 100.04C191.324 99.6581 191.206 99.2148 191.217 98.7649C190.703 92.0409 188.904 86.0766 188.922 79.0712C188.912 78.1295 189.123 77.1989 189.536 76.3571C189.95 75.5154 190.554 74.7868 191.299 74.2322C192.74 73.1819 194.493 72.0847 196.099 72.8631C197.705 73.6414 199.77 76.6986 201.009 77.9928" fill="#263238"/>
<path d="M194.28 93.6352C194.115 93.5601 187.719 91.6471 187.921 98.324C188.123 105.001 194.648 103.407 194.648 103.219C194.648 103.032 194.28 93.6352 194.28 93.6352Z" fill="#EB996E"/>
<path d="M192.572 100.753C192.572 100.753 192.461 100.838 192.278 100.932C192.01 101.06 191.704 101.077 191.424 100.979C190.995 100.72 190.64 100.349 190.397 99.9039C190.153 99.459 190.03 98.9561 190.039 98.4465C190.005 97.8737 190.096 97.3004 190.305 96.7679C190.357 96.5546 190.46 96.3578 190.604 96.1943C190.748 96.0309 190.929 95.9059 191.131 95.8301C191.261 95.7915 191.4 95.7993 191.525 95.8522C191.65 95.905 191.754 95.9997 191.819 96.1208C191.911 96.3083 191.874 96.4396 191.911 96.449C191.947 96.4584 192.039 96.3365 191.984 96.0645C191.942 95.8986 191.845 95.7527 191.709 95.6519C191.523 95.5246 191.298 95.4712 191.076 95.5018C190.81 95.5683 190.565 95.7019 190.363 95.8903C190.161 96.0787 190.008 96.316 189.919 96.5803C189.66 97.1681 189.546 97.8124 189.589 98.4559C189.672 99.8063 190.387 101.035 191.333 101.269C191.51 101.315 191.696 101.32 191.875 101.282C192.055 101.245 192.224 101.167 192.37 101.054C192.572 100.913 192.599 100.763 192.572 100.753Z" fill="#D1734A"/>
<path d="M195.888 73.8948C194.282 71.2221 198.687 67.3865 201.909 66.3924C205.13 65.3984 209.379 66.9551 212.582 68.043C214.61 68.7275 216.62 69.6841 218.758 69.5997C220.181 69.4448 221.575 69.0816 222.897 68.5212C224.217 67.9505 225.639 67.6632 227.072 67.6772C227.788 67.6927 228.487 67.908 229.092 68.2997C229.697 68.6915 230.185 69.2448 230.505 69.8998C231.046 71.2502 230.275 73.107 228.853 73.304C229.306 73.0521 229.813 72.916 230.329 72.9072C230.845 72.8984 231.355 73.0172 231.817 73.2535C232.278 73.4898 232.677 73.8365 232.979 74.2642C233.281 74.6919 233.478 75.1878 233.552 75.7098C233.626 76.2318 233.575 76.7643 233.405 77.2621C233.234 77.7599 232.948 78.2081 232.571 78.5686C232.195 78.9292 231.738 79.1913 231.241 79.3327C230.744 79.4741 230.22 79.4907 229.715 79.3809C230.633 78.6588 232.065 79.8498 231.946 81.0314C231.821 81.6149 231.55 82.1552 231.159 82.5991C230.768 83.0431 230.27 83.3754 229.715 83.5634C226.962 84.7826 223.814 84.3887 220.997 83.4228C218.18 82.4568 215.564 80.947 212.738 79.906C209.911 78.8651 205.258 76.9895 202.459 78.0305C200.394 78.7807 198.953 81.3221 197.788 80.7594C197.238 80.4593 196.765 80.0314 196.406 79.5102C196.047 78.9889 195.813 78.389 195.723 77.7585C195.569 76.5091 195.612 75.2426 195.852 74.0073" fill="#263238"/>
<path d="M229.631 73.0826C229.576 73.0826 229.301 73.5702 228.594 74.3486C227.595 75.4359 226.35 76.2569 224.969 76.7399C222.939 77.4859 220.704 77.395 218.738 76.4867C216.517 75.4645 214.617 73.4014 212.406 71.5259C210.378 69.5844 207.815 68.3272 205.064 67.9248C203.928 67.7825 202.776 67.907 201.694 68.2889C200.613 68.6709 199.631 69.3001 198.823 70.1286C198.303 70.7073 197.902 71.388 197.647 72.1295C197.391 72.8711 197.286 73.6579 197.337 74.4424C197.373 74.8638 197.469 75.2776 197.621 75.6709C197.741 75.9334 197.814 76.0647 197.832 76.0554C197.708 75.522 197.626 74.9795 197.585 74.433C197.586 72.9475 198.148 71.5198 199.154 70.4474C199.934 69.6935 200.871 69.1284 201.894 68.7941C202.917 68.4597 204 68.3645 205.064 68.5156C207.679 68.9405 210.11 70.1592 212.039 72.0135C214.186 73.8891 216.15 75.9803 218.527 77.04C220.279 77.8053 222.226 77.9732 224.079 77.5188C225.932 77.0644 227.593 76.0119 228.814 74.5174C229.075 74.1987 229.303 73.853 229.494 73.4858C229.595 73.2326 229.65 73.092 229.631 73.0826Z" fill="#455A64"/>
<path d="M192.611 93.3442C192.611 93.3442 192.896 93.1567 193.144 92.6315C193.466 91.8704 193.58 91.0342 193.474 90.212C193.327 88.0645 191.464 85.7575 191.225 82.7847C191.06 81.4116 191.313 80.0196 191.95 78.7991C192.508 77.8348 193.359 77.0838 194.373 76.6609C195.062 76.364 195.815 76.2573 196.557 76.3515C197.081 76.4453 197.365 76.5672 197.393 76.5109C197.174 76.3054 196.904 76.1658 196.613 76.1076C195.821 75.8971 194.986 75.9363 194.217 76.2202C193.072 76.6325 192.101 77.4335 191.464 78.4896C190.732 79.813 190.433 81.341 190.611 82.8504C190.78 84.3164 191.206 85.7394 191.868 87.0517C192.392 88.0719 192.778 89.1604 193.015 90.287C193.195 91.3242 193.054 92.3931 192.611 93.3442Z" fill="#455A64"/>
<path d="M230.944 438.996C230.944 438.996 250.831 339.309 250.849 337.321L215.324 318.171L201.559 435.16L230.944 438.996Z" fill="#263238"/>
<path d="M186.213 442.333L213.68 269.564V232.297L173.906 235.204C173.429 236.657 163.398 442.559 163.398 442.559L167.271 442.333H186.213Z" fill="#263238"/>
<path d="M235.274 229.662L250.848 337.321L216.03 328.693L201.842 233.17L235.274 229.662Z" fill="#263238"/>
<path d="M241.276 276.036C241.276 276.036 247.333 270.718 247.93 266.714C248.526 262.71 240.671 198.255 240.671 198.255L236.66 144.97C236.66 145.908 236.77 138.255 235.559 137.796C231.888 136.38 224.345 133.81 224.345 133.81L220.031 129.853C220.031 129.853 227.777 163.688 229.282 172.935L241.276 276.036Z" fill="#F8775B"/>
<path d="M191.547 126.177L185.031 130.613L160.592 140.431L171.449 182.266L169.99 206.574L168.604 222C168.604 222 161.326 260.197 154.902 283.407C154.902 283.407 162.07 297.286 167.962 299.218L170.412 300.709L179.149 235.336L186.646 225.02C187.371 224.026 188.041 223.004 188.674 221.953C190.51 218.887 194.713 211.919 198.063 206.546C202.486 199.447 208.158 183.317 206.478 176.433C204.799 169.55 191.547 126.177 191.547 126.177Z" fill="#F8775B"/>
<path d="M174.945 270.4C180.667 265.669 185.42 259.831 188.931 253.22L174.945 270.4Z" fill="#263238"/>
<path d="M191.545 126.177L197.428 164.748C197.268 169.679 196.469 174.567 195.051 179.283L184.552 213.982C184.552 213.982 176.293 232.897 179.147 235.316C182.001 237.736 204.2 235.316 204.2 235.316L234.247 230.862C234.917 230.761 235.524 230.402 235.942 229.857C236.361 229.313 236.559 228.625 236.495 227.936L232.035 180.84C230.53 177.586 229.915 170.928 229.282 168.565L220.031 129.862L218.141 129.609L214.029 132.488L211.863 132.666L193.683 123.673L191.545 126.177Z" fill="#EBEBEB"/>
<path d="M186.067 208.946C190.922 193.482 197.209 168.339 197.209 168.339C199.163 181.468 197.025 194.926 192.244 207.305C188.334 217.395 183.608 225.029 180.359 235.373L180.258 235.795C180.258 235.795 178.423 235.898 178.551 233.131C178.68 230.365 181.305 222.131 183.057 217.573C184.81 213.016 186.067 208.946 186.067 208.946Z" fill="#E0E0E0"/>
<path d="M215.078 135.761H210.994L209.773 141.472L213.343 145.889L216.941 145.523L218.116 141.425L217.152 139.137L215.078 135.761Z" fill="#F8775B"/>
<path d="M238.891 169.109C240.176 169.371 254.364 179.124 259.522 178.074C264.679 177.024 268.855 172.053 269.406 171.388C272.333 167.843 270.498 160.481 269.653 157.705C269.448 157.028 269.168 156.377 268.818 155.764L246.912 117.315L234 125.333L247.399 150.306L238.891 169.109Z" fill="#F8775B"/>
<path d="M133.234 215.594C132.385 213.326 132.017 210.899 132.153 208.474C132.289 206.05 132.926 203.682 134.023 201.528C136.997 195.516 141.714 185.81 142.705 182.622C144.173 177.886 157.902 141.546 160.591 140.421L172.522 181.581L158.664 211.402L174.908 242.678L161.371 257.589C161.371 257.589 135.758 221.09 133.647 216.579C133.5 216.254 133.363 215.926 133.234 215.594Z" fill="#F8775B"/>
<path d="M175.551 267.079C178.112 264.63 180.388 261.886 182.333 258.902C182.315 258.862 182.305 258.819 182.305 258.775C182.305 258.731 182.315 258.688 182.333 258.649C182.364 258.602 182.405 258.563 182.452 258.533C182.5 258.504 182.553 258.486 182.608 258.48C183.386 257.248 184.096 255.974 184.737 254.663C182.47 253.153 179.506 250.912 182.727 250.405C186.701 249.824 189.537 247.854 189.941 246.776C190.344 245.698 189.023 244.732 187.977 245.416C186.773 246.047 185.487 246.502 184.159 246.767C183.098 247.022 182.003 247.092 180.919 246.973C179.662 246.832 174.495 244.544 173.578 244.375L163.914 254.766C163.914 254.766 171.338 262.84 175.551 267.079Z" fill="#EB996E"/>
<path d="M238.799 170.253C238.641 169.884 238.527 169.496 238.46 169.099C238.267 168.349 238.028 167.224 237.762 165.883C237.083 162.332 236.583 158.748 236.266 155.145C235.951 151.541 235.822 147.922 235.881 144.304C235.881 142.916 235.954 141.8 236.009 141.022C236.017 140.618 236.06 140.217 236.138 139.821C236.203 140.221 236.221 140.627 236.193 141.031C236.193 141.903 236.193 143 236.193 144.304C236.193 147.117 236.349 150.869 236.716 155.107C237.083 159.346 237.634 163.097 238.074 165.826C238.285 167.111 238.469 168.199 238.616 169.062C238.714 169.452 238.775 169.851 238.799 170.253Z" fill="#263238"/>
<path d="M250.033 172.475C250.033 172.475 249.923 172.475 249.721 172.4C249.438 172.294 249.164 172.163 248.904 172.006C247.949 171.402 247.15 170.572 246.573 169.587C245.767 168.129 245.203 166.544 244.903 164.898C244.433 162.909 244.069 160.896 243.811 158.868C243.426 154.535 243.104 150.643 242.893 147.811C242.802 146.47 242.728 145.345 242.664 144.454C242.62 144.043 242.62 143.627 242.664 143.216C242.767 143.615 242.835 144.023 242.866 144.435C242.958 145.373 243.086 146.442 243.233 147.774C243.536 150.587 243.912 154.516 244.288 158.812C244.554 160.95 244.949 162.975 245.344 164.795C245.609 166.429 246.123 168.011 246.867 169.484C247.402 170.446 248.134 171.277 249.015 171.922C249.675 172.288 250.079 172.438 250.033 172.475Z" fill="#263238"/>
<g opacity="0.3">
<path opacity="0.3" d="M242.633 143.254C241.515 147.575 240.741 151.982 240.32 156.43C239.933 159.085 240.07 161.793 240.724 164.392C241.513 166.943 243.358 169.297 245.891 170.019C244.734 161.316 243.716 152.598 242.835 143.864" fill="black"/>
</g>
<g opacity="0.3">
<path opacity="0.3" d="M167.492 227.57C167.492 227.57 171.787 236.564 174.164 241.271C179.12 220.349 172.833 198.33 174.88 176.911L171.301 184.291L170.291 201.368L169.52 211.384C169.52 211.384 168.786 222.159 167.492 227.57Z" fill="black"/>
</g>
<path d="M170.961 140.816C171.238 141.179 171.481 141.568 171.686 141.979C171.915 142.363 172.172 142.841 172.448 143.404C172.723 143.967 173.063 144.614 173.365 145.345C174.114 147.054 174.76 148.808 175.302 150.597C176.608 154.993 177.263 159.563 177.247 164.157C177.242 166.039 177.117 167.919 176.871 169.784C176.798 170.581 176.651 171.294 176.541 171.913C176.431 172.532 176.32 173.076 176.219 173.507C176.138 173.962 176.012 174.409 175.843 174.839C175.868 174.377 175.932 173.919 176.036 173.469C176.109 173.029 176.201 172.532 176.284 171.866C176.366 171.2 176.476 170.534 176.541 169.746C176.729 167.899 176.818 166.043 176.807 164.185C176.778 161.917 176.61 159.652 176.302 157.405C175.963 155.161 175.488 152.94 174.88 150.756C174.367 148.974 173.754 147.224 173.044 145.514C172.769 144.773 172.448 144.135 172.2 143.554C171.952 142.973 171.713 142.494 171.512 142.1C171.286 141.692 171.102 141.262 170.961 140.816Z" fill="#263238"/>
<path d="M158.537 211.656C158.472 211.703 157.857 210.718 156.701 209.171C155.159 207.221 153.329 205.528 151.277 204.153C150.179 203.394 148.851 203.062 147.533 203.215C146.463 203.417 145.451 203.859 144.569 204.51C143.018 205.598 142.174 206.451 142.109 206.385C142.259 206.141 142.444 205.923 142.66 205.738C143.196 205.191 143.77 204.683 144.376 204.219C145.278 203.522 146.323 203.044 147.432 202.822C148.851 202.615 150.295 202.948 151.488 203.759C153.592 205.156 155.435 206.925 156.931 208.983C157.384 209.601 157.801 210.246 158.179 210.915C158.335 211.141 158.456 211.391 158.537 211.656Z" fill="#263238"/>
<path d="M155.508 201.8C157.329 204.64 158.375 207.927 158.536 211.319C158.389 211.319 158.031 209.124 157.187 206.508C156.343 203.891 155.407 201.884 155.508 201.8Z" fill="#263238"/>
<path d="M167.208 226.989C167.471 227.367 167.701 227.769 167.896 228.189L169.639 231.556C171.099 234.416 173.09 238.402 175.302 242.875L175.384 243.034L175.265 243.156L174.347 244.094C170.741 247.93 167.464 251.39 165.069 253.866L162.215 256.792C161.879 257.166 161.514 257.511 161.123 257.823C161.397 257.41 161.704 257.021 162.041 256.66L164.794 253.631C167.125 251.081 170.374 247.592 173.971 243.756L174.889 242.819V243.1C172.686 238.617 170.741 234.66 169.383 231.706L167.777 228.274C167.546 227.865 167.356 227.435 167.208 226.989Z" fill="#263238"/>
<path d="M185.085 208.121C185.061 207.85 185.061 207.577 185.085 207.305C185.085 206.733 185.085 205.964 185.085 204.989C185.131 202.935 185.195 200.028 185.278 196.464C185.36 192.901 185.452 188.587 185.645 183.832C185.762 178.649 186.451 173.496 187.7 168.471C188.394 165.896 189.367 163.408 190.6 161.054L190.775 161.41C189.633 161.21 188.594 160.61 187.838 159.713C187.117 158.872 186.593 157.874 186.306 156.796C185.885 154.801 185.725 152.757 185.828 150.719C185.828 146.902 185.828 143.489 185.828 140.638C185.828 137.787 185.828 135.564 185.828 133.951C185.828 133.201 185.828 132.601 185.828 132.151C185.807 131.945 185.807 131.738 185.828 131.532C185.863 131.736 185.878 131.944 185.874 132.151C185.874 132.601 185.874 133.201 185.92 133.951C185.92 135.564 185.975 137.825 186.021 140.629C186.067 143.433 186.085 146.893 186.122 150.719C186.03 152.718 186.197 154.72 186.618 156.674C186.892 157.68 187.384 158.609 188.058 159.394C188.742 160.208 189.684 160.752 190.72 160.932L191.05 160.988L190.894 161.288C189.678 163.61 188.721 166.063 188.04 168.603C186.805 173.593 186.109 178.706 185.966 183.851C185.755 188.596 185.636 192.882 185.489 196.483C185.342 200.084 185.232 202.935 185.149 204.998L185.039 207.315C185.067 207.583 185.083 207.852 185.085 208.121Z" fill="#263238"/>
<path d="M224.41 134.363C224.502 134.526 224.576 134.699 224.63 134.879C224.759 135.273 224.942 135.817 225.154 136.389L227.053 142.015C227.842 144.426 228.788 147.286 229.806 150.455C230.311 152.078 230.935 153.728 231.403 155.557C231.655 156.508 231.696 157.504 231.522 158.474C231.433 158.991 231.242 159.484 230.961 159.924C230.681 160.364 230.316 160.741 229.889 161.034L229.962 160.687C230.733 161.859 231.55 163.106 232.312 164.438C233.457 166.323 234.323 168.371 234.881 170.515C235.31 172.534 235.449 174.606 235.294 176.667C235.074 180.558 234.826 184.056 234.624 186.982C234.422 189.908 234.248 192.253 234.12 193.95C234.055 194.728 234 195.357 233.964 195.826C233.954 196.047 233.923 196.267 233.872 196.482C233.85 196.261 233.85 196.038 233.872 195.816C233.872 195.338 233.918 194.7 233.945 193.941C234.028 192.234 234.147 189.861 234.294 186.964C234.441 184.066 234.652 180.502 234.872 176.648C234.999 174.633 234.854 172.611 234.441 170.637C233.883 168.543 233.03 166.543 231.908 164.7C231.155 163.406 230.348 162.168 229.577 160.949L229.439 160.743L229.65 160.612C230.023 160.355 230.341 160.025 230.586 159.64C230.83 159.254 230.996 158.823 231.073 158.37C231.237 157.467 231.202 156.539 230.972 155.651C230.531 153.888 229.907 152.19 229.412 150.587C228.402 147.37 227.494 144.501 226.723 142.081C225.952 139.662 225.392 137.795 224.97 136.454C224.777 135.826 224.63 135.31 224.511 134.916C224.464 134.735 224.431 134.55 224.41 134.363Z" fill="#263238"/>
<path d="M188.691 250.894C188.59 251.171 188.448 251.43 188.269 251.663C187.975 252.141 187.535 252.816 186.975 253.642C185.846 255.292 184.222 257.533 182.387 259.953C180.551 262.372 178.771 264.492 177.468 265.992C176.816 266.743 176.275 267.343 175.889 267.746C175.504 268.149 175.283 268.365 175.256 268.346C175.851 267.443 176.504 266.582 177.211 265.767C178.45 264.211 180.156 262.016 182.01 259.653C183.864 257.29 185.507 255.039 186.7 253.435C187.309 252.544 187.974 251.696 188.691 250.894Z" fill="#455A64"/>
<path d="M203.072 238.796C203.072 238.796 203.072 238.974 203.072 239.321C203.072 239.668 202.981 240.203 202.907 240.868C202.76 242.238 202.531 244.235 202.246 246.795C201.65 251.944 200.76 259.399 199.585 268.589C197.263 286.98 193.739 312.347 189.949 340.368C188.059 354.388 186.278 367.742 184.847 379.914C184.47 382.953 184.167 385.926 183.745 388.805C183.323 391.684 182.892 394.431 182.488 397.151L180.267 412.156C178.918 421.327 177.853 428.745 177.156 433.884C176.807 436.444 176.55 438.442 176.394 439.802C176.321 440.477 176.266 440.993 176.247 441.34C176.239 441.471 176.239 441.602 176.247 441.734C176.247 441.846 176.312 441.734 176.312 441.734C176.312 441.734 176.238 441.734 176.247 441.687C176.23 441.556 176.23 441.423 176.247 441.293C176.247 440.946 176.293 440.421 176.358 439.745C176.477 438.386 176.706 436.379 177.028 433.809C177.67 428.661 178.679 421.233 179.983 412.062C180.653 407.467 181.378 402.45 182.148 397.057C182.552 394.356 182.956 391.571 183.378 388.702C183.8 385.832 184.094 382.859 184.47 379.821C185.92 367.629 187.646 354.285 189.527 340.265C193.317 312.234 196.869 286.886 199.31 268.505C200.494 259.333 201.448 251.897 202.118 246.739C202.439 244.179 202.696 242.191 202.871 240.812C202.962 240.156 203.027 239.64 203.072 239.274C203.118 238.908 203.072 238.796 203.072 238.796Z" fill="#455A64"/>
<path d="M224.014 438.067C224.026 437.897 224.048 437.728 224.078 437.56C224.133 437.204 224.206 436.707 224.307 436.06C224.537 434.728 224.858 432.806 225.225 430.33C226.079 425.332 227.317 418.139 228.841 409.258L240.991 339.739C241.345 338.09 241.444 336.394 241.285 334.713C241.074 333.044 240.799 331.356 240.56 329.705C240.065 326.385 239.572 323.119 239.083 319.905C238.092 313.491 237.11 307.301 236.155 301.412C234.237 289.633 232.383 279.046 230.731 270.174C229.079 261.303 227.62 254.147 226.519 249.224C225.996 246.757 225.519 244.854 225.225 243.597C225.087 242.969 224.977 242.472 224.895 242.125C224.812 241.778 224.794 241.618 224.794 241.618C224.851 241.781 224.9 241.947 224.941 242.115L225.326 243.578C225.647 244.863 226.152 246.758 226.703 249.205C227.859 254.11 229.364 261.265 231.062 270.127C232.76 278.989 234.641 289.577 236.568 301.356C237.541 307.245 238.523 313.434 239.523 319.849C240.013 323.069 240.508 326.335 241.01 329.649C241.258 331.318 241.524 332.969 241.744 334.675C241.906 336.41 241.803 338.159 241.441 339.861C236.66 366.973 232.337 391.524 229.199 409.314C227.611 418.186 226.326 425.369 225.436 430.358C224.986 432.834 224.629 434.756 224.39 436.079C224.271 436.716 224.17 437.213 224.105 437.56C224.041 437.907 224.014 438.067 224.014 438.067Z" fill="#455A64"/>
<path d="M213.68 268.346C213.817 268.346 212.193 279.524 210.055 293.272C207.916 307.02 206.09 318.17 205.98 318.17C205.87 318.17 207.476 306.992 209.605 293.244C211.734 279.496 213.551 268.327 213.68 268.346Z" fill="#455A64"/>
<path d="M186.544 442.024C186.246 442.113 185.938 442.166 185.627 442.183C185.049 442.248 184.204 442.333 183.158 442.417C181.075 442.585 178.184 442.744 174.99 442.791C171.797 442.837 168.897 442.791 166.804 442.688C165.758 442.688 164.914 442.594 164.336 442.538C164.025 442.543 163.715 442.499 163.418 442.407C164.545 442.319 165.675 442.3 166.804 442.351C168.897 442.351 171.778 442.351 174.972 442.305C178.166 442.258 181.038 442.155 183.131 442.071C184.266 441.977 185.407 441.962 186.544 442.024Z" fill="#455A64"/>
<path d="M230.945 438.996C230.555 439.013 230.164 438.991 229.779 438.93L226.622 438.592C223.961 438.283 220.29 437.814 216.234 437.279C212.177 436.745 208.506 436.229 205.854 435.835L202.716 435.348C202.328 435.3 201.944 435.222 201.568 435.113C201.96 435.075 202.355 435.091 202.743 435.16C203.486 435.226 204.578 435.338 205.9 435.488C208.561 435.798 212.241 436.257 216.298 436.792C220.354 437.326 224.016 437.851 226.668 438.245L229.807 438.742C230.194 438.781 230.576 438.865 230.945 438.996Z" fill="#455A64"/>
<path d="M192.215 132.413C192.572 132.601 192.91 132.824 193.224 133.079L195.922 134.955C198.217 136.558 201.429 138.706 205.1 140.844C206.476 141.651 207.853 142.401 209.064 143.076L208.734 143.226C209.505 140.113 210.184 137.44 210.679 135.555C210.918 134.673 211.12 133.942 211.285 133.342C211.343 133.073 211.433 132.811 211.551 132.563C211.545 132.839 211.505 133.113 211.432 133.379C211.303 133.989 211.147 134.73 210.964 135.621C210.533 137.496 209.918 140.216 209.128 143.339L209.064 143.62L208.807 143.489C207.55 142.823 206.192 142.073 204.815 141.266C201.668 139.43 198.622 137.417 195.693 135.236C194.573 134.401 193.683 133.689 193.078 133.192C192.763 132.965 192.474 132.704 192.215 132.413Z" fill="#263238"/>
<path d="M222.502 139.315C221.224 140.36 219.868 141.301 218.445 142.128L218.243 142.26L218.133 142.035L216.894 139.568C215.977 137.693 215.105 135.911 214.527 134.635C214.167 133.965 213.877 133.258 213.664 132.525C214.118 133.134 214.506 133.791 214.82 134.485C215.481 135.714 216.371 137.43 217.317 139.343L218.556 141.866L218.243 141.772C219.603 140.849 221.026 140.028 222.502 139.315Z" fill="#263238"/>
<path d="M216.517 138.395C216.272 138.641 216.001 138.858 215.709 139.042C215.204 139.427 214.489 139.98 213.69 140.496C212.892 141.012 212.167 141.546 211.635 141.903C211.344 142.108 211.037 142.286 210.717 142.437C210.962 142.189 211.233 141.969 211.524 141.781C212.038 141.406 212.754 140.89 213.543 140.337L215.599 138.93C215.889 138.725 216.196 138.546 216.517 138.395Z" fill="#263238"/>
<path d="M213.763 140.337C213.109 139.811 212.495 139.234 211.928 138.611C211.335 138.029 210.786 137.402 210.285 136.736C210.922 137.262 211.518 137.839 212.066 138.461C212.678 139.041 213.245 139.668 213.763 140.337Z" fill="#263238"/>
<path d="M196.473 223.529C196.744 225.873 197.386 228.156 198.372 230.29C199.494 232.352 200.938 234.211 202.649 235.795C202.02 235.494 201.451 235.078 200.97 234.566C198.477 232.233 196.882 229.067 196.473 225.639C196.35 224.941 196.35 224.226 196.473 223.529Z" fill="#263238"/>
<path d="M201.815 235.889C198.76 235.623 195.899 234.249 193.748 232.016C193.84 231.903 195.418 233.188 197.639 234.248C199.86 235.308 201.842 235.739 201.815 235.889Z" fill="#263238"/>
<path d="M219.748 205.87C219.906 206.187 220.02 206.524 220.088 206.873C220.28 207.53 220.528 208.486 220.803 209.687C221.372 212.059 222.042 215.37 222.575 219.065C223.107 222.759 223.41 226.117 223.547 228.564C223.612 229.783 223.648 230.768 223.648 231.453C223.694 231.804 223.694 232.161 223.648 232.512C223.563 232.169 223.514 231.816 223.502 231.462C223.428 230.674 223.345 229.718 223.245 228.583C223.024 226.164 222.676 222.816 222.143 219.14C221.611 215.463 220.987 212.153 220.51 209.762C220.289 208.646 220.097 207.699 219.941 206.948C219.838 206.597 219.773 206.236 219.748 205.87Z" fill="#263238"/>
<path d="M213.635 146.845C212.442 156.589 211.561 177.792 211.231 187.629C210.956 195.844 210.983 204.069 211.011 212.293C211.011 214.947 211.011 217.686 212.121 220.096C214.039 224.438 218.729 226.66 223.033 228.423L213.635 146.845Z" fill="#E0E0E0"/>
<path d="M224.336 227.017L229.264 214.676L216.939 145.523L213.342 145.889C213.342 145.889 213.847 217.761 213.681 218.408L224.336 227.017Z" fill="#F8775B"/>
<path d="M216.811 145.523C216.255 145.702 215.677 145.8 215.094 145.813C214.522 145.89 213.942 145.89 213.369 145.813C213.936 145.713 214.51 145.657 215.085 145.645C215.657 145.567 216.234 145.527 216.811 145.523Z" fill="#263238"/>
<path d="M314.849 41.0359V68.1675C314.849 69.6474 313.639 70.8807 312.187 70.8807H267.785C266.333 70.8807 265.123 69.6474 265.123 68.1675V41.0359C265.123 40.5426 265.244 40.1726 265.365 39.8027C265.849 38.9394 266.696 38.3228 267.785 38.3228H312.187C313.276 38.3228 314.123 38.9394 314.607 39.8027C314.728 40.1726 314.849 40.5426 314.849 41.0359Z" fill="#CBE19B"/>
<path d="M314.607 39.8022L290.047 56.9442L265.486 39.6789C265.97 38.8156 266.817 38.199 267.906 38.199H312.309C313.276 38.199 314.123 38.9389 314.607 39.8022Z" fill="#EDFACB"/>
<path d="M215.22 24.4371C216.78 14.6208 210.239 5.36967 200.609 3.77403C190.98 2.17839 181.909 8.84249 180.349 18.6587C178.788 28.475 185.33 37.7261 194.959 39.3218C204.588 40.9174 213.659 34.2533 215.22 24.4371Z" fill="white"/>
<path d="M194.216 17.1159C194.216 17.1159 196.542 17.9809 197.177 16.2509C197.811 14.4129 194.851 9.87184 193.37 10.1962C191.89 10.5206 189.776 14.6291 189.776 16.5753C189.776 18.7377 193.053 28.6847 197.177 31.3878C201.3 34.0908 206.375 32.9014 205.741 30.1984C205.106 27.4954 203.098 24.1437 202.146 24.4681C201.3 24.7924 198.868 27.8198 198.868 27.8198C198.868 27.8198 193.582 22.5219 194.216 17.1159Z" fill="#CBE19B"/>
</svg>
