<svg width="758" height="745" viewBox="0 0 758 745" fill="none" xmlns="http://www.w3.org/2000/svg">
<path d="M420.453 0C411.969 0.00952843 403.835 3.384 397.836 9.3831C391.837 15.3822 388.463 23.516 388.453 32V710.428C388.463 718.912 391.837 727.046 397.836 733.045C403.835 739.044 411.969 742.418 420.453 742.428H717.453C725.937 742.418 734.071 739.044 740.07 733.045C746.069 727.046 749.443 718.912 749.453 710.428V32C749.444 23.516 746.069 15.3822 740.07 9.3831C734.071 3.384 725.937 0.00952843 717.453 0H420.453Z" fill="#E6E6E6"/>
<path d="M729.658 156.982V102.542C712.746 98.6581 696.825 91.3023 682.906 80.9412C668.986 70.58 657.372 57.4395 648.799 42.353V42.353C644.686 45.4027 639.699 47.044 634.579 47.033H591.35C602.885 75.7832 621.701 101.038 645.95 120.315C670.199 139.592 699.047 152.228 729.658 156.982V156.982Z" fill="white"/>
<path d="M729.658 99.4219V47.1219C729.659 43.2962 728.907 39.5077 727.443 35.973C725.98 32.4382 723.834 29.2265 721.129 26.5213C718.424 23.8161 715.212 21.6704 711.677 20.2069C708.142 18.7434 704.354 17.9908 700.528 17.9919H658.558V23.0419C658.562 26.281 657.909 29.4871 656.637 32.4659C655.365 35.4447 653.501 38.1341 651.158 40.3709C659.451 55.1049 670.708 67.9595 684.219 78.123C697.731 88.2865 713.203 95.5381 729.658 99.4199V99.4219Z" fill="white"/>
<path d="M527.769 47.034H500.738C494.377 47.0322 488.277 44.5037 483.78 40.0049C479.283 35.506 476.757 29.4051 476.758 23.044V17.994H437.382C433.556 17.9938 429.768 18.7471 426.234 20.2111C422.699 21.675 419.488 23.8209 416.783 26.5261C414.078 29.2314 411.932 32.443 410.468 35.9775C409.005 39.5121 408.251 43.3004 408.252 47.126V695.326C408.248 699.152 408.999 702.94 410.461 706.475C411.924 710.01 414.07 713.222 416.776 715.926C419.482 718.63 422.695 720.774 426.231 722.234C429.767 723.695 433.556 724.443 437.382 724.436H700.532C701.732 724.439 702.931 724.365 704.122 724.216C711.167 723.338 717.65 719.918 722.352 714.598C727.055 709.279 729.654 702.426 729.662 695.326V218.152C633.949 207.066 554.2 138.773 527.769 47.034Z" fill="white"/>
<path d="M588.07 47.0339H530.93C557.23 137.073 635.61 204.062 729.659 215.102V160.082C698.229 155.277 668.611 142.307 643.765 122.469C618.918 102.631 599.713 76.6196 588.069 47.0339H588.07Z" fill="white"/>
<path d="M709.612 532.781H439.612C438.287 532.779 437.016 532.252 436.079 531.315C435.141 530.377 434.614 529.107 434.612 527.781V460.806C434.614 459.48 435.141 458.21 436.079 457.272C437.016 456.335 438.287 455.808 439.612 455.806H709.612C710.938 455.808 712.209 456.335 713.146 457.272C714.083 458.21 714.611 459.48 714.612 460.806V527.782C714.61 529.107 714.083 530.378 713.146 531.315C712.208 532.252 710.938 532.779 709.612 532.781ZM439.612 457.805C438.817 457.805 438.054 458.121 437.491 458.684C436.928 459.246 436.612 460.009 436.612 460.805V527.781C436.612 528.577 436.928 529.34 437.491 529.902C438.054 530.465 438.817 530.781 439.612 530.781H709.612C710.408 530.781 711.171 530.465 711.734 529.902C712.296 529.34 712.612 528.577 712.612 527.781V460.806C712.612 460.01 712.296 459.247 711.734 458.685C711.171 458.122 710.408 457.806 709.612 457.806L439.612 457.805Z" fill="#E6E6E6"/>
<path d="M474.611 515.293C486.209 515.293 495.611 505.891 495.611 494.293C495.611 482.695 486.209 473.293 474.611 473.293C463.013 473.293 453.611 482.695 453.611 494.293C453.611 505.891 463.013 515.293 474.611 515.293Z" fill="#3F3D56"/>
<path d="M523.111 480.293C522.183 480.293 521.293 480.662 520.636 481.318C519.98 481.974 519.611 482.865 519.611 483.793C519.611 484.721 519.98 485.611 520.636 486.268C521.293 486.924 522.183 487.293 523.111 487.293H688.111C689.04 487.293 689.93 486.924 690.586 486.268C691.243 485.611 691.611 484.721 691.611 483.793C691.611 482.865 691.243 481.974 690.586 481.318C689.93 480.662 689.04 480.293 688.111 480.293H523.111Z" fill="#E6E6E6"/>
<path d="M523.111 501.293C522.183 501.293 521.293 501.662 520.636 502.318C519.98 502.974 519.611 503.865 519.611 504.793C519.611 505.721 519.98 506.611 520.636 507.268C521.293 507.924 522.183 508.293 523.111 508.293H688.111C689.04 508.293 689.93 507.924 690.586 507.268C691.243 506.611 691.611 505.721 691.611 504.793C691.611 503.865 691.243 502.974 690.586 502.318C689.93 501.662 689.04 501.293 688.111 501.293H523.111Z" fill="#E6E6E6"/>
<path d="M709.612 644.781H439.612C438.287 644.779 437.016 644.252 436.079 643.315C435.141 642.377 434.614 641.107 434.612 639.781V572.806C434.614 571.48 435.141 570.21 436.079 569.272C437.016 568.335 438.287 567.808 439.612 567.806H709.612C710.938 567.808 712.209 568.335 713.146 569.272C714.083 570.21 714.611 571.48 714.612 572.806V639.782C714.61 641.107 714.083 642.378 713.146 643.315C712.208 644.252 710.938 644.779 709.612 644.781V644.781ZM439.612 569.805C438.817 569.805 438.054 570.121 437.491 570.684C436.928 571.246 436.612 572.009 436.612 572.805V639.781C436.612 640.577 436.928 641.34 437.491 641.902C438.054 642.465 438.817 642.781 439.612 642.781H709.612C710.408 642.781 711.171 642.465 711.734 641.902C712.296 641.34 712.612 640.577 712.612 639.781V572.806C712.612 572.01 712.296 571.247 711.734 570.685C711.171 570.122 710.408 569.806 709.612 569.806L439.612 569.805Z" fill="#E6E6E6"/>
<path d="M474.611 627.293C486.209 627.293 495.611 617.891 495.611 606.293C495.611 594.695 486.209 585.293 474.611 585.293C463.013 585.293 453.611 594.695 453.611 606.293C453.611 617.891 463.013 627.293 474.611 627.293Z" fill="#3F3D56"/>
<path d="M523.111 592.293C522.183 592.293 521.293 592.662 520.636 593.318C519.98 593.974 519.611 594.865 519.611 595.793C519.611 596.721 519.98 597.611 520.636 598.268C521.293 598.924 522.183 599.293 523.111 599.293H688.111C689.04 599.293 689.93 598.924 690.586 598.268C691.243 597.611 691.611 596.721 691.611 595.793C691.611 594.865 691.243 593.974 690.586 593.318C689.93 592.662 689.04 592.293 688.111 592.293H523.111Z" fill="#E6E6E6"/>
<path d="M523.111 613.293C522.183 613.293 521.293 613.662 520.636 614.318C519.98 614.974 519.611 615.865 519.611 616.793C519.611 617.721 519.98 618.611 520.636 619.268C521.293 619.924 522.183 620.293 523.111 620.293H688.111C689.04 620.293 689.93 619.924 690.586 619.268C691.243 618.611 691.611 617.721 691.611 616.793C691.611 615.865 691.243 614.974 690.586 614.318C689.93 613.662 689.04 613.293 688.111 613.293H523.111Z" fill="#E6E6E6"/>
<path d="M568.929 394C556.452 394.005 544.096 391.552 532.568 386.779C521.039 382.007 510.564 375.01 501.742 366.187C492.919 357.364 485.922 346.889 481.149 335.361C476.377 323.833 473.923 311.477 473.929 299C473.929 298.8 473.929 298.592 473.941 298.393C474.232 246.368 516.841 204 568.929 204C581.404 204 593.758 206.457 605.284 211.231C616.81 216.006 627.282 223.003 636.104 231.825C644.925 240.646 651.923 251.119 656.697 262.645C661.472 274.171 663.929 286.524 663.929 299C663.929 311.476 661.472 323.829 656.697 335.355C651.923 346.881 644.925 357.354 636.104 366.175C627.282 374.997 616.81 381.994 605.284 386.769C593.758 391.543 581.404 394 568.929 394V394ZM568.929 206C544.375 206.055 520.835 215.796 503.423 233.108C486.012 250.42 476.135 273.903 475.939 298.456C475.928 298.668 475.929 298.839 475.929 299C475.926 317.397 481.38 335.382 491.599 350.679C501.818 365.977 516.345 377.9 533.341 384.942C550.337 391.983 569.04 393.826 587.084 390.237C605.127 386.649 621.701 377.79 634.71 364.781C647.719 351.773 656.578 335.198 660.166 317.155C663.755 299.111 661.912 280.409 654.87 263.412C647.829 246.416 635.906 231.89 620.608 221.67C605.31 211.451 587.326 205.998 568.929 206V206Z" fill="#3F3D56"/>
<path d="M611.952 296.808L546.93 259.267C546.626 259.091 546.281 258.999 545.93 258.999C545.579 258.999 545.234 259.091 544.93 259.267C544.626 259.443 544.373 259.695 544.198 259.999C544.022 260.303 543.93 260.648 543.93 260.999V336.079C543.93 336.43 544.022 336.775 544.198 337.079C544.373 337.383 544.626 337.636 544.93 337.811C545.234 337.987 545.579 338.079 545.93 338.079C546.281 338.079 546.626 337.987 546.93 337.811L611.952 300.27C612.256 300.094 612.508 299.842 612.684 299.538C612.859 299.234 612.952 298.889 612.952 298.538C612.952 298.187 612.859 297.842 612.684 297.538C612.508 297.234 612.256 296.982 611.952 296.806L546.93 259.265C546.626 259.089 546.281 258.997 545.93 258.997C545.579 258.997 545.234 259.089 544.93 259.265C544.626 259.441 544.373 259.693 544.198 259.997C544.022 260.301 543.93 260.646 543.93 260.997V336.079C543.93 336.43 544.022 336.775 544.198 337.079C544.373 337.383 544.626 337.636 544.93 337.811C545.234 337.987 545.579 338.079 545.93 338.079C546.281 338.079 546.626 337.987 546.93 337.811L611.952 300.27C612.256 300.094 612.508 299.842 612.684 299.538C612.859 299.234 612.952 298.889 612.952 298.538C612.952 298.187 612.859 297.842 612.684 297.538C612.508 297.234 612.256 296.982 611.952 296.806V296.808Z" fill="#F1502D"/>
<path d="M757.569 744.181H0V742H757.964L757.569 744.181Z" fill="#3F3D56"/>
<path d="M214.339 369.276C198.911 369.276 186.403 356.769 186.403 341.34C186.403 325.911 198.911 313.404 214.339 313.404C229.768 313.404 242.275 325.911 242.275 341.34C242.275 356.769 229.768 369.276 214.339 369.276Z" fill="#FFB8B8"/>
<path d="M216.145 497.953C216.685 496.274 216.863 494.5 216.669 492.748C216.475 490.995 215.912 489.303 215.019 487.783C214.125 486.263 212.92 484.948 211.483 483.927C210.046 482.905 208.409 482.198 206.679 481.853C206.131 481.748 205.577 481.681 205.019 481.653L175.592 434.424L202.468 408.868C203.508 407.895 204.344 406.725 204.927 405.426C205.51 404.126 205.828 402.724 205.863 401.3C205.898 399.877 205.65 398.46 205.132 397.134C204.614 395.807 203.837 394.597 202.847 393.574C201.857 392.55 200.672 391.734 199.363 391.174C198.055 390.613 196.647 390.318 195.223 390.307C193.799 390.296 192.387 390.568 191.069 391.108C189.752 391.649 188.555 392.446 187.548 393.453L150.435 430.053L150.36 430.144C149.212 431.891 148.658 433.961 148.78 436.048C148.902 438.135 149.693 440.127 151.036 441.728L192.268 490.487C192.145 490.878 192.043 491.275 191.961 491.677C191.617 493.406 191.641 495.189 192.033 496.907C192.425 498.626 193.176 500.243 194.236 501.652C195.297 503.06 196.643 504.229 198.187 505.08C199.73 505.932 201.436 506.449 203.193 506.595C203.549 506.627 203.902 506.642 204.253 506.642C206.898 506.631 209.472 505.785 211.608 504.225C213.743 502.665 215.331 500.47 216.145 497.953V497.953Z" fill="#FFB8B8"/>
<path d="M260.349 730.138H274.294L280.927 676.352H260.347L260.349 730.138Z" fill="#FFB8B8"/>
<path d="M256.225 744.225H302.325V743.082C302.325 740.709 301.858 738.359 300.95 736.167C300.042 733.975 298.71 731.983 297.033 730.305C295.355 728.627 293.363 727.296 291.17 726.388C288.978 725.48 286.628 725.013 284.255 725.013H256.224L256.225 744.225Z" fill="#2F2E41"/>
<path d="M121.75 710.859L133.732 717.994L166.949 675.174L149.264 664.645L121.75 710.859Z" fill="#FFB8B8"/>
<path d="M150.611 744.436L151.193 743.459C153.644 739.341 154.36 734.418 153.182 729.773C152.004 725.128 149.029 721.141 144.912 718.689L120.827 704.348L111.001 720.848L150.611 744.436Z" fill="#2F2E41"/>
<path d="M282.687 706.452C292.028 596.458 297.587 494.274 263.437 452.59L263.173 452.267L205.705 475.255L205.61 475.46C205.416 475.882 186.304 517.923 190.762 546.201L176.587 611.407L130.368 688.798C129.996 689.421 129.761 690.116 129.678 690.837C129.595 691.558 129.666 692.288 129.886 692.98C130.107 693.671 130.472 694.307 130.957 694.847C131.443 695.387 132.037 695.817 132.701 696.109L152.787 704.946C153.921 705.439 155.194 705.508 156.373 705.139C157.553 704.77 158.561 703.989 159.211 702.938L209.488 620.952L237.888 558.069C238.042 557.727 238.305 557.446 238.635 557.268C238.965 557.09 239.344 557.026 239.714 557.086C240.084 557.145 240.424 557.325 240.682 557.597C240.94 557.869 241.101 558.218 241.14 558.591L256.88 706.564C257.012 707.821 257.605 708.985 258.545 709.831C259.485 710.676 260.705 711.143 261.969 711.141H277.585C278.866 711.134 280.099 710.649 281.042 709.782C281.985 708.915 282.572 707.728 282.687 706.452V706.452Z" fill="#2F2E41"/>
<path d="M263.243 453.462L263.518 453.331L263.561 453.031C265.708 438.006 263.167 421.311 256.009 403.411C252.48 394.651 245.922 387.45 237.529 383.119C229.136 378.788 219.467 377.617 210.283 379.817V379.817C204.992 381.121 200.03 383.509 195.711 386.83C191.391 390.152 187.809 394.334 185.191 399.112C182.605 403.841 181.031 409.056 180.566 414.425C180.101 419.795 180.756 425.202 182.491 430.305C191.515 456.693 203.221 481.383 203.339 481.629L203.584 482.144L263.243 453.462Z" fill="#F1502D"/>
<path d="M304.594 515.775C304.989 512.74 304.282 509.664 302.601 507.107C300.92 504.55 298.377 502.681 295.434 501.84L241.695 398.669C241.005 397.478 240.083 396.437 238.983 395.608C237.884 394.779 236.629 394.179 235.294 393.843C233.959 393.508 232.57 393.443 231.209 393.653C229.848 393.864 228.544 394.345 227.372 395.068C226.201 395.791 225.186 396.742 224.388 397.864C223.59 398.986 223.026 400.257 222.727 401.601C222.429 402.946 222.403 404.336 222.652 405.69C222.9 407.044 223.417 408.335 224.173 409.486L279.182 511.938C279.067 512.561 279.001 513.193 278.982 513.826C278.935 515.559 279.239 517.283 279.875 518.895C280.511 520.507 281.467 521.974 282.684 523.208C283.901 524.441 285.355 525.416 286.959 526.074C288.562 526.731 290.282 527.058 292.015 527.034V527.034C293.915 527.007 295.785 526.559 297.492 525.723C299.198 524.888 300.699 523.684 301.885 522.2C303.371 520.353 304.311 518.128 304.599 515.775H304.594Z" fill="#FFB8B8"/>
<path d="M248.211 325.559H203.852V306.223C213.588 302.355 223.116 299.065 228.875 306.223C234.003 306.223 238.921 308.26 242.548 311.886C246.174 315.513 248.211 320.431 248.211 325.559Z" fill="#2F2E41"/>
<path d="M201.396 302.811C174.877 302.811 167.455 336.051 167.455 354.804C167.455 365.262 172.184 369.004 179.617 370.268L182.242 356.268L188.389 370.868C190.477 370.878 192.67 370.838 194.944 370.796L197.028 366.504L201.676 370.719C220.292 370.747 235.337 373.46 235.337 354.802C235.337 336.052 228.827 302.811 201.396 302.811Z" fill="#2F2E41"/>
<path d="M209.298 330.2V304.333C209.298 304.027 209.359 303.723 209.476 303.44C209.593 303.157 209.765 302.9 209.982 302.683C210.198 302.467 210.455 302.295 210.738 302.178C211.022 302.06 211.325 302 211.631 302H216.297C216.604 302 216.907 302.06 217.19 302.178C217.473 302.295 217.73 302.467 217.947 302.683C218.164 302.9 218.335 303.157 218.453 303.44C218.57 303.723 218.63 304.027 218.63 304.333V328.64C222.08 329.2 225.219 330.967 227.487 333.627C229.755 336.286 231.004 339.665 231.013 343.16C231.021 346.655 229.787 350.039 227.532 352.709C225.277 355.379 222.146 357.161 218.699 357.738C215.252 358.314 211.712 357.647 208.711 355.856C205.71 354.065 203.442 351.266 202.313 347.958C201.184 344.65 201.267 341.049 202.546 337.797C203.826 334.544 206.219 331.852 209.299 330.2H209.298Z" fill="#F1502D"/>
<path d="M215.52 350.21C211.655 350.21 208.522 347.077 208.522 343.212C208.522 339.347 211.655 336.214 215.52 336.214C219.384 336.214 222.518 339.347 222.518 343.212C222.518 347.077 219.384 350.21 215.52 350.21Z" fill="white"/>
</svg>
